<?xml version="1.0" standalone="no"?>
<!DOCTYPE svg PUBLIC "-//W3C//DTD SVG 1.1//EN" "http://www.w3.org/Graphics/SVG/1.1/DTD/svg11.dtd" >
<svg xmlns="http://www.w3.org/2000/svg" xmlns:xlink="http://www.w3.org/1999/xlink" version="1.1">
<metadata>
Created by FontForge 20161003 at Fri Aug 17 10:07:21 2018
 By www-data
Copyright 2014 Dinamo (Johannes Breyer, Fabian Harb)
</metadata>
<defs>
<font id="Favorit-Bold" horiz-adv-x="600" >
  <font-face 
    font-family="Favorit"
    font-weight="600"
    font-stretch="normal"
    units-per-em="1000"
    panose-1="2 1 8 3 3 2 1 8 2 3"
    ascent="800"
    descent="-200"
    x-height="500"
    cap-height="700"
    bbox="-170 -310 2150 1016"
    underline-thickness="0"
    underline-position="0"
    unicode-range="U+0020-FB04"
  />
<missing-glyph horiz-adv-x="640" 
d="M570 0h-500v700h500v-700zM465 105v490h-290v-490h290z" />
    <glyph glyph-name=".notdef" horiz-adv-x="640" 
d="M570 0h-500v700h500v-700zM465 105v490h-290v-490h290z" />
    <glyph glyph-name="glyph1" horiz-adv-x="0" 
 />
    <glyph glyph-name="glyph2" horiz-adv-x="333" 
 />
    <glyph glyph-name="space" unicode=" " horiz-adv-x="234" 
 />
    <glyph glyph-name="exclam" unicode="!" horiz-adv-x="277" 
d="M103 175l-31 285v240h133v-240l-31 -285h-71zM73 0v130h130v-130h-130z" />
    <glyph glyph-name="quotedbl" unicode="&#x22;" horiz-adv-x="389" 
d="M254 460l-32 135v105h115v-105l-32 -135h-51zM84 460l-32 135v105h115v-105l-32 -135h-51z" />
    <glyph glyph-name="numbersign" unicode="#" horiz-adv-x="710" 
d="M395 275l32 150h-110l-32 -150h110zM336 0l34 160h-110l-34 -160h-120l34 160h-100v115h125l32 150h-114v115h139l34 160h120l-34 -160h110l34 160h120l-34 -160h99v-115h-124l-32 -150h113v-115h-138l-34 -160h-120z" />
    <glyph glyph-name="dollar" unicode="$" horiz-adv-x="633" 
d="M200 505q0 -35 19 -53t61 -26l28 169q-49 -4 -78.5 -29.5t-29.5 -60.5zM370 276l-29 -171q51 2 79.5 27.5t28.5 62.5q0 33 -17 52.5t-62 28.5zM303 -120h-115l21 124q-84 23 -128.5 83.5t-47.5 147.5h132q5 -74 65 -108l28 172l-13 3q-177 37 -177 198q0 85 68 147.5
t189 62.5h3l18 110h115l-21 -128q72 -25 112 -81t40 -131h-132q-4 57 -42 87l-27 -163q190 -39 190 -199q0 -94 -68.5 -154.5t-191.5 -60.5z" />
    <glyph glyph-name="percent" unicode="%" horiz-adv-x="942" 
d="M206 300q-86 0 -130 59t-44 143q0 85 44 144t130 59t130 -59t44 -144q0 -84 -44 -143t-130 -59zM317 0h-117l420 700h117zM204 392h4q64 0 64 110q0 111 -64 111h-4q-64 0 -64 -111q0 -110 64 -110zM735 -5q-86 0 -130 59t-44 143q0 85 44 144t130 59t130 -59t44 -144
q0 -84 -44 -143t-130 -59zM733 87h4q64 0 64 110q0 111 -64 111h-4q-64 0 -64 -111q0 -110 64 -110z" />
    <glyph glyph-name="ampersand" unicode="&#x26;" horiz-adv-x="665" 
d="M537 0h-280q-86 0 -148.5 51t-62.5 134q0 62 36 106.5t97 63.5q-58 21 -93 62.5t-35 102.5q0 83 59 131.5t145 48.5h151v-105h-111q-52 0 -83 -22.5t-31 -68.5q0 -47 31.5 -71.5t82.5 -24.5h112v121h130v-121h105v-105h-105v-303zM407 105v198h-112q-53 0 -86 -23.5
t-33 -73.5t33.5 -75.5t85.5 -25.5h112z" />
    <glyph glyph-name="quotesingle" unicode="'" horiz-adv-x="219" 
d="M84 460l-32 135v105h115v-105l-32 -135h-51z" />
    <glyph glyph-name="parenleft" unicode="(" horiz-adv-x="410" 
d="M383 -35v-110q-62 0 -121 30.5t-108.5 88.5t-80 156t-30.5 220t30.5 220t80 156t108.5 88.5t121 30.5v-110q-28 -4 -55 -17t-55.5 -42t-50 -70.5t-35.5 -107.5t-14 -148t14 -148t35.5 -107.5t50 -70.5t55.5 -42t55 -17z" />
    <glyph glyph-name="parenright" unicode=")" horiz-adv-x="410" 
d="M27 -145v110q28 4 55 17t55.5 42t50 70.5t35.5 107.5t14 148t-14 148t-35.5 107.5t-50 70.5t-55.5 42t-55 17v110q62 0 121 -30.5t108.5 -88.5t80 -156t30.5 -220t-30.5 -220t-80 -156t-108.5 -88.5t-121 -30.5z" />
    <glyph glyph-name="asterisk" unicode="*" horiz-adv-x="447" 
d="M360 451l-84 -46l-52 87l-53 -87l-84 46l53 87h-95v92h95l-53 87l84 46l53 -87l52 87l84 -46l-53 -87h95v-92h-95z" />
    <glyph glyph-name="plus" unicode="+" horiz-adv-x="573" 
d="M533 200h-180v-185h-133v185h-180v115h180v185h133v-185h180v-115z" />
    <glyph glyph-name="comma" unicode="," horiz-adv-x="272" 
d="M72 -150h-41v75h36q32 0 47 18t15 47v10h-65v145h145v-160q0 -54 -39.5 -94.5t-97.5 -40.5z" />
    <glyph glyph-name="hyphen" unicode="-" horiz-adv-x="414" 
d="M62 250v105h290v-105h-290z" />
    <glyph glyph-name="period" unicode="." horiz-adv-x="269" 
d="M62 0v145h145v-145h-145z" />
    <glyph glyph-name="slash" unicode="/" horiz-adv-x="462" 
d="M28 0l270 700h135l-265 -700h-140z" />
    <glyph glyph-name="zero" unicode="0" horiz-adv-x="670" 
d="M335 -10q-136 0 -210.5 97.5t-74.5 262.5q0 164 76 262t209 98t209 -98t76 -262q0 -165 -74.5 -262.5t-210.5 -97.5zM331 105h8q148 0 148 245t-148 245h-8q-148 0 -148 -245t148 -245z" />
    <glyph glyph-name="one" unicode="1" horiz-adv-x="401" 
d="M316 0h-127v512l-155 -149v165l177 172h105v-700z" />
    <glyph glyph-name="two" unicode="2" horiz-adv-x="590" 
d="M541 0h-493v121l238 224q66 62 89 94t23 68q0 38 -26 63t-67 25h-10q-46 0 -76 -30.5t-31 -83.5h-133q0 105 68.5 167t175.5 62q104 0 168 -55.5t64 -142.5q0 -64 -30 -113.5t-103 -116.5l-182 -167h325v-115z" />
    <glyph glyph-name="three" unicode="3" horiz-adv-x="598" 
d="M291 -10q-112 0 -180 55t-68 148h133q4 -40 32.5 -64t77.5 -24h10q56 0 84.5 28.5t28.5 66.5q0 44 -34 68t-90 24h-47v115h42q57 0 91 26.5t34 71.5q0 38 -29.5 64t-74.5 26h-10q-40 0 -69 -24.5t-33 -65.5h-133q0 89 68.5 147t171.5 58q109 0 175.5 -56.5t66.5 -138.5
q0 -60 -33.5 -103.5t-89.5 -58.5q57 -15 92.5 -59.5t35.5 -103.5q0 -95 -70 -147.5t-182 -52.5z" />
    <glyph glyph-name="four" unicode="4" horiz-adv-x="632" 
d="M494 0h-127v142h-338v131l334 427h131v-443h105v-115h-105v-142zM367 257v265l-208 -265h208z" />
    <glyph glyph-name="five" unicode="5" horiz-adv-x="594" 
d="M290 -10q-107 0 -178 57t-82 148h133q10 -42 43 -66t82 -24h6q50 0 82.5 30t32.5 81t-32 79t-83 28h-6q-68 0 -112 -48h-122l86 425h395v-115h-294l-40 -191q46 44 122 44q97 0 158 -60.5t61 -156.5q0 -104 -68.5 -167.5t-183.5 -63.5z" />
    <glyph glyph-name="six" unicode="6" horiz-adv-x="631" 
d="M573 230q0 -100 -68 -170t-187 -70q-128 0 -198 88t-70 249q0 171 90 277t224 106q89 0 151 -51.5t73 -138.5h-133q-4 33 -28.5 54t-68.5 21h-8q-65 0 -117.5 -56t-63.5 -174q23 44 71 69.5t107 25.5q95 0 160.5 -63.5t65.5 -166.5zM191 225q0 -52 34.5 -86t89.5 -34h8
q51 0 84 34.5t33 85.5t-33 85.5t-84 34.5h-8q-53 0 -88.5 -34t-35.5 -86z" />
    <glyph glyph-name="seven" unicode="7" horiz-adv-x="558" 
d="M278 0h-139v65q0 345 234 515h-348v120h505v-110q-252 -164 -252 -525v-65z" />
    <glyph glyph-name="eight" unicode="8" horiz-adv-x="588" 
d="M294 -10q-108 0 -168.5 55t-60.5 135q0 118 118 159q-57 20 -94.5 67t-37.5 114q0 77 64.5 133.5t178.5 56.5t178.5 -56.5t64.5 -133.5q0 -67 -37.5 -114t-94.5 -67q118 -41 118 -159q0 -80 -60.5 -135t-168.5 -55zM289 595q-44 0 -74.5 -27.5t-30.5 -69.5t31 -70t74 -28
h10q43 0 74 28t31 70t-30.5 69.5t-74.5 27.5h-10zM390 195q0 40 -26.5 65.5t-64.5 25.5h-10q-38 0 -64.5 -25.5t-26.5 -65.5t26 -65t65 -25h10q39 0 65 25t26 65z" />
    <glyph glyph-name="nine" unicode="9" horiz-adv-x="631" 
d="M440 475q0 52 -34.5 86t-89.5 34h-8q-51 0 -84 -34.5t-33 -85.5t33 -85.5t84 -34.5h8q53 0 88.5 34t35.5 86zM267 -10q-89 0 -151 51.5t-73 138.5h133q4 -33 28.5 -54t68.5 -21h8q65 0 117.5 56t63.5 174q-23 -44 -71 -69.5t-107 -25.5q-95 0 -160.5 63.5t-65.5 166.5
q0 100 68 170t187 70q128 0 198 -88t70 -249q0 -171 -90 -277t-224 -106z" />
    <glyph glyph-name="colon" unicode=":" horiz-adv-x="271" 
d="M63 355v145h145v-145h-145zM63 0v145h145v-145h-145z" />
    <glyph glyph-name="semicolon" unicode=";" horiz-adv-x="290" 
d="M75 355v145h145v-145h-145zM84 -150h-41v75h36q32 0 47 18t15 47v10h-65v145h145v-160q0 -54 -39.5 -94.5t-97.5 -40.5z" />
    <glyph glyph-name="less" unicode="&#x3c;" horiz-adv-x="528" 
d="M465 26l-425 170v120l425 170v-128l-261 -98l261 -99v-135z" />
    <glyph glyph-name="equal" unicode="=" horiz-adv-x="628" 
d="M67 300v115h494v-115h-494zM67 100v115h494v-115h-494z" />
    <glyph glyph-name="greater" unicode="&#x3e;" horiz-adv-x="528" 
d="M63 26v127l264 100l-264 99v134l425 -170v-120z" />
    <glyph glyph-name="question" unicode="?" horiz-adv-x="491" 
d="M277 320q-15 0 -20.5 -5t-5.5 -20v-104h-123v154q0 38 21 59t58 21h27q93 0 93 80q0 37 -25.5 58.5t-67.5 21.5h-200v115h218q91 0 149 -53t58 -142q0 -78 -49.5 -131.5t-132.5 -53.5zM124 0v130h130v-130h-130z" />
    <glyph glyph-name="at" unicode="@" horiz-adv-x="944" 
d="M259 298q0 87 50.5 149.5t126.5 62.5q83 0 121 -65v55h115v-315q43 0 73 41t30 134q0 115 -80 190t-210 75q-135 0 -227.5 -88.5t-92.5 -231.5q0 -151 91 -235.5t239 -84.5h255v-110h-265q-128 0 -225.5 46t-156 144.5t-58.5 239.5q0 128 63.5 226.5t163 148.5t213.5 50
q170 0 290 -107t120 -263q0 -127 -62 -196t-148 -69h-128v55q-38 -65 -121 -65q-76 0 -126.5 63t-50.5 150zM467 184h5q37 0 58.5 34t21.5 80q0 44 -21.5 78.5t-58.5 34.5h-5q-35 0 -57.5 -31.5t-22.5 -81.5q0 -51 22 -82.5t58 -31.5z" />
    <glyph glyph-name="A" unicode="A" horiz-adv-x="713" 
d="M455 285l-101 265l-101 -265h202zM564 0l-63 165h-294l-63 -165h-142l277 700h158l270 -700h-143z" />
    <glyph glyph-name="B" unicode="B" horiz-adv-x="667" 
d="M402 0h-320v700h310q98 0 156.5 -52t58.5 -129q0 -62 -32.5 -105t-85.5 -59q58 -12 95.5 -56.5t37.5 -112.5q0 -80 -62 -133t-158 -53zM217 413h155q100 0 100 84q0 83 -100 83h-155v-167zM217 120h165q50 0 77.5 22.5t27.5 66.5q0 88 -105 88h-165v-177z" />
    <glyph glyph-name="C" unicode="C" horiz-adv-x="711" 
d="M538 230h135q-8 -107 -84 -173.5t-210 -66.5q-159 0 -247 98t-88 262t88 262t247 98q133 0 209.5 -68t84.5 -172h-135q-12 58 -51.5 89t-102.5 31h-10q-88 0 -141.5 -64.5t-53.5 -175.5t53.5 -175.5t141.5 -64.5h10q129 0 154 120z" />
    <glyph glyph-name="D" unicode="D" horiz-adv-x="721" 
d="M82 0v700h240q162 0 258.5 -91t96.5 -259q0 -169 -94.5 -259.5t-255.5 -90.5h-245zM217 120h95q109 0 169.5 53t60.5 177t-60.5 177t-169.5 53h-95v-460z" />
    <glyph glyph-name="E" unicode="E" horiz-adv-x="661" 
d="M82 0v700h530v-120h-395v-161h335v-120h-335v-179h405v-120h-540z" />
    <glyph glyph-name="F" unicode="F" horiz-adv-x="616" 
d="M82 0v700h510v-120h-375v-180h325v-120h-325v-280h-135z" />
    <glyph glyph-name="G" unicode="G" horiz-adv-x="745" 
d="M577 0v68q-73 -78 -190 -78q-155 0 -250 102t-95 258t95 258t250 102q132 0 212 -69.5t88 -180.5h-135q-8 59 -48 94.5t-112 35.5h-10q-96 0 -150.5 -65t-54.5 -175t54.5 -175t150.5 -65h10q68 0 119.5 36t67.5 99h-192v120h220q85 0 85 -85v-280h-115z" />
    <glyph glyph-name="H" unicode="H" horiz-adv-x="739" 
d="M82 0v700h135v-290h305v290h135v-700h-135v290h-305v-290h-135z" />
    <glyph glyph-name="I" unicode="I" horiz-adv-x="299" 
d="M82 0v700h135v-700h-135z" />
    <glyph glyph-name="J" unicode="J" horiz-adv-x="429" 
d="M211 0h-183v130h128q34 0 47 13t13 47v510h135v-560q0 -64 -38 -102t-102 -38z" />
    <glyph glyph-name="K" unicode="K" horiz-adv-x="686" 
d="M520 0l-211 308l-92 -97v-211h-135v700h135v-314l297 314h167l-275 -290l281 -410h-167z" />
    <glyph glyph-name="L" unicode="L" horiz-adv-x="630" 
d="M82 0v700h135v-580h395v-120h-530z" />
    <glyph glyph-name="M" unicode="M" horiz-adv-x="929" 
d="M393 0l-179 553v-553h-132v700h210l176 -550l170 550h209v-700h-132v552l-174 -552h-148z" />
    <glyph glyph-name="N" unicode="N" horiz-adv-x="749" 
d="M492 0l-275 515v-515h-135v700h175l275 -513v513h135v-700h-175z" />
    <glyph glyph-name="O" unicode="O" horiz-adv-x="766" 
d="M383 -10q-152 0 -246 97t-94 263t94 263t246 97t246 -97t94 -263t-94 -263t-246 -97zM378 110h10q94 0 147 64t53 176t-53 176t-147 64h-10q-94 0 -147 -64t-53 -176t53 -176t147 -64z" />
    <glyph glyph-name="P" unicode="P" horiz-adv-x="652" 
d="M82 0v700h315q103 0 164 -58t61 -162t-61 -162.5t-164 -58.5h-180v-259h-135zM217 379h165q51 0 78 27.5t27 73.5t-27 73t-78 27h-165v-201z" />
    <glyph glyph-name="Q" unicode="Q" horiz-adv-x="766" 
d="M637 -200h-187q-130 0 -130 130v65q-127 19 -202 113t-75 242q0 166 94 263t246 97t246 -97t94 -263q0 -147 -74.5 -240.5t-199.5 -114.5v-30q0 -34 10.5 -44.5t44.5 -10.5h133v-110zM378 110h10q94 0 147 64t53 176t-53 176t-147 64h-10q-94 0 -147 -64t-53 -176
t53 -176t147 -64z" />
    <glyph glyph-name="R" unicode="R" horiz-adv-x="682" 
d="M217 383h150q120 0 120 101q0 96 -120 96h-150v-197zM82 0v700h325q91 0 153 -54t62 -136q0 -132 -119 -177q109 0 109 -99v-234h-135v200q0 38 -13.5 51.5t-51.5 13.5h-195v-265h-135z" />
    <glyph glyph-name="S" unicode="S" horiz-adv-x="634" 
d="M459 480q-4 53 -39 81.5t-91 28.5h-10q-54 0 -87 -25t-33 -60q0 -34 19.5 -52t65.5 -27l105 -21q194 -39 194 -200q0 -93 -71.5 -154t-197.5 -61q-139 0 -210 65.5t-75 179.5h135q4 -56 44.5 -90.5t115.5 -34.5h10q54 0 84 24.5t30 60.5q0 32 -17 50t-62 27l-125 26
q-180 37 -180 202q0 85 71.5 147.5t193.5 62.5q125 0 195 -64t70 -166h-135z" />
    <glyph glyph-name="T" unicode="T" horiz-adv-x="656" 
d="M260 0v580h-242v120h620v-120h-243v-580h-135z" />
    <glyph glyph-name="U" unicode="U" horiz-adv-x="702" 
d="M351 -10q-139 0 -207 66t-68 189v455h135v-435q0 -81 33 -118t102 -37h10q69 0 102 37t33 118v435h135v-455q0 -123 -68 -189t-207 -66z" />
    <glyph glyph-name="V" unicode="V" horiz-adv-x="716" 
d="M447 0h-175l-268 700h151l207 -558l199 558h148z" />
    <glyph glyph-name="W" unicode="W" horiz-adv-x="950" 
d="M582 0l-107 510l-108 -510h-175l-172 700h139l125 -555l110 555h165l110 -555l121 555h140l-173 -700h-175z" />
    <glyph glyph-name="X" unicode="X" horiz-adv-x="642" 
d="M482 0l-163 248l-166 -248h-152l242 359l-227 341h159l148 -226l151 226h152l-227 -336l242 -364h-159z" />
    <glyph glyph-name="Y" unicode="Y" horiz-adv-x="663" 
d="M399 0h-135v280l-260 420h153l179 -294l176 294h148l-261 -420v-280z" />
    <glyph glyph-name="Z" unicode="Z" horiz-adv-x="635" 
d="M595 0h-555v115l388 465h-378v120h535v-115l-388 -465h398v-120z" />
    <glyph glyph-name="bracketleft" unicode="[" horiz-adv-x="351" 
d="M79 -145v990h240v-105h-110v-780h110v-105h-240z" />
    <glyph glyph-name="backslash" unicode="\" horiz-adv-x="462" 
d="M164 700l270 -700h-140l-265 700h135z" />
    <glyph glyph-name="bracketright" unicode="]" horiz-adv-x="351" 
d="M272 845v-990h-240v105h110v780h-110v105h240z" />
    <glyph glyph-name="asciicircum" unicode="^" horiz-adv-x="540" 
d="M368 285l-99 246l-99 -246h-137l175 415h124l175 -415h-139z" />
    <glyph glyph-name="underscore" unicode="_" horiz-adv-x="530" 
d="M30 -105v105h470v-105h-470z" />
    <glyph glyph-name="grave" unicode="`" horiz-adv-x="195" 
d="M160 700l25 -150h-75l-100 150h150z" />
    <glyph glyph-name="a" unicode="a" horiz-adv-x="534" 
d="M227 95h5q46 0 79.5 30.5t33.5 78.5v14l-108 -11q-29 -3 -51 -18t-22 -43q0 -23 18 -37t45 -14zM354 0q-4 21 -6 61q-50 -71 -148 -71q-69 0 -116.5 40.5t-47.5 106.5q0 76 51 117t132 48l126 11v12q0 35 -22 57.5t-59 22.5h-6q-35 0 -57.5 -18t-24.5 -42h-130
q8 72 65.5 118.5t149.5 46.5q96 0 153 -47t57 -133v-220q0 -75 5 -110h-122z" />
    <glyph glyph-name="b" unicode="b" horiz-adv-x="601" 
d="M563 250q0 -108 -59 -184t-163 -76q-49 0 -88 23t-56 52v-65h-130v700h130v-265q17 29 56 52t88 23q104 0 163 -76t59 -184zM311 95h8q50 0 82 43t32 113t-32 112t-82 42h-8q-47 0 -80.5 -43t-33.5 -112t33.5 -112t80.5 -43z" />
    <glyph glyph-name="c" unicode="c" horiz-adv-x="539" 
d="M374 175h130q-7 -92 -66 -138.5t-159 -46.5q-104 0 -172 71t-68 189t68 189t172 71q100 0 159 -46.5t66 -138.5h-130q-13 80 -92 80h-6q-53 0 -80 -43.5t-27 -111.5t27 -111.5t80 -43.5h6q79 0 92 80z" />
    <glyph glyph-name="d" unicode="d" horiz-adv-x="601" 
d="M282 95h8q47 0 80.5 43t33.5 112t-33.5 112t-80.5 43h-8q-50 0 -82 -42t-32 -112t32 -113t82 -43zM260 -10q-104 0 -163 76t-59 184t59 184t163 76q49 0 88 -23t56 -52v265h130v-700h-130v65q-17 -29 -56 -52t-88 -23z" />
    <glyph glyph-name="e" unicode="e" horiz-adv-x="541" 
d="M503 158q-19 -76 -77 -122t-149 -46q-99 0 -168.5 70.5t-69.5 189.5q0 115 64 187.5t174 72.5q109 0 168.5 -70.5t59.5 -183.5q0 -15 -2 -47h-338q4 -50 37.5 -82t76.5 -32h6q36 0 59 18t30 45h129zM269 405q-43 0 -72.5 -26t-31.5 -70h214q-2 44 -31.5 70t-72.5 26h-6z
" />
    <glyph glyph-name="f" unicode="f" horiz-adv-x="396" 
d="M123 0v395h-102v105h102v70q0 130 130 130h143v-108h-88q-34 0 -44.5 -10.5t-10.5 -44.5v-37h118v-105h-118v-395h-130z" />
    <glyph glyph-name="g" unicode="g" horiz-adv-x="593" 
d="M281 105h8q46 0 76.5 40.5t30.5 109.5t-30.5 109.5t-76.5 40.5h-8q-49 0 -80.5 -40.5t-31.5 -109.5t31.5 -109.5t80.5 -40.5zM267 -219q-100 0 -166 45.5t-70 118.5h130q5 -27 34 -43t78 -16h6q51 0 84 30.5t33 88.5v65q-42 -70 -141 -70q-91 0 -153.5 68t-62.5 187
t62.5 187t153.5 68q99 0 141 -70v60h130v-511q0 -85 -68 -146.5t-191 -61.5z" />
    <glyph glyph-name="h" unicode="h" horiz-adv-x="584" 
d="M197 278v-278h-130v700h130v-273q23 38 63 60.5t88 22.5q87 0 130.5 -51.5t43.5 -138.5v-320h-130v305q0 48 -20.5 74t-58.5 26h-8q-45 0 -76.5 -37t-31.5 -90z" />
    <glyph glyph-name="i" unicode="i" horiz-adv-x="264" 
d="M62 565v135h140v-135h-140zM67 0v500h130v-500h-130z" />
    <glyph glyph-name="j" unicode="j" horiz-adv-x="272" 
d="M69 565v135h140v-135h-140zM205 500v-575q0 -60 -32.5 -92.5t-92.5 -32.5h-162v110h102q30 0 42.5 12.5t12.5 42.5v535h130z" />
    <glyph glyph-name="k" unicode="k" horiz-adv-x="551" 
d="M394 0l-139 208l-58 -59v-149h-130v700h130v-386l181 186h159l-192 -199l202 -301h-153z" />
    <glyph glyph-name="l" unicode="l" horiz-adv-x="264" 
d="M67 0v700h130v-700h-130z" />
    <glyph glyph-name="m" unicode="m" horiz-adv-x="904" 
d="M197 278v-278h-130v500h130v-71q50 81 149 81q111 0 153 -86q54 86 165 86q92 0 135 -53t43 -142v-315h-130v300q0 100 -78 100h-6q-46 0 -77 -35t-31 -87v-278h-130v300q0 100 -79 100h-6q-46 0 -77 -35t-31 -87z" />
    <glyph glyph-name="n" unicode="n" horiz-adv-x="584" 
d="M197 278v-278h-130v500h130v-73q23 38 63 60.5t88 22.5q87 0 130.5 -51.5t43.5 -138.5v-320h-130v305q0 48 -20.5 74t-58.5 26h-8q-45 0 -76.5 -37t-31.5 -90z" />
    <glyph glyph-name="o" unicode="o" horiz-adv-x="576" 
d="M288 -10q-111 0 -180.5 73t-69.5 187t69.5 187t180.5 73t180.5 -73t69.5 -187t-69.5 -187t-180.5 -73zM292 95q53 0 84 41t31 114t-31 114t-84 41h-8q-53 0 -84 -41t-31 -114t31 -114t84 -41h8z" />
    <glyph glyph-name="p" unicode="p" horiz-adv-x="601" 
d="M319 405h-8q-47 0 -80.5 -43t-33.5 -112t33.5 -112t80.5 -43h8q50 0 82 42t32 112t-32 113t-82 43zM341 510q104 0 163 -76t59 -184t-59 -184t-163 -76q-49 0 -88 23t-56 52v-265h-130v700h130v-65q17 29 56 52t88 23z" />
    <glyph glyph-name="q" unicode="q" horiz-adv-x="602" 
d="M39 250q0 108 59 184t163 76q49 0 88 -23t56 -52v65h130v-700h-130v265q-17 -29 -56 -52t-88 -23q-104 0 -163 76t-59 184zM291 405h-8q-50 0 -82 -43t-32 -113t32 -112t82 -42h8q47 0 80.5 43t33.5 112t-33.5 112t-80.5 43z" />
    <glyph glyph-name="r" unicode="r" horiz-adv-x="387" 
d="M67 0v500h130v-100q15 50 52.5 77.5t92.5 27.5h25v-120h-45q-125 0 -125 -125v-260h-130z" />
    <glyph glyph-name="s" unicode="s" horiz-adv-x="497" 
d="M248 -10q-101 0 -158.5 46.5t-57.5 128.5h133q0 -34 23 -54.5t61 -20.5h8q30 0 48 13.5t18 35.5q0 37 -51 50l-65 16q-80 20 -117.5 55.5t-37.5 95.5q0 68 54.5 111t147.5 43q97 0 150.5 -46t53.5 -129h-130q-8 75 -75 75h-8q-27 0 -45 -13.5t-18 -35.5q0 -35 64 -51
l67 -17q72 -18 106 -54t34 -95q0 -67 -54 -110.5t-151 -43.5z" />
    <glyph glyph-name="t" unicode="t" horiz-adv-x="407" 
d="M377 110v-110h-127q-130 0 -130 130v265h-103v105h103v162h130v-162h112v-105h-112v-230q0 -34 10.5 -44.5t44.5 -10.5h72z" />
    <glyph glyph-name="u" unicode="u" horiz-adv-x="575" 
d="M378 222v278h130v-500h-130v73q-23 -38 -61.5 -60.5t-84.5 -22.5q-84 0 -126.5 51.5t-42.5 138.5v320h130v-305q0 -48 19.5 -74t54.5 -26h8q43 0 73 37t30 90z" />
    <glyph glyph-name="v" unicode="v" horiz-adv-x="559" 
d="M374 0h-189l-173 500h138l132 -404l131 404h134z" />
    <glyph glyph-name="w" unicode="w" horiz-adv-x="791" 
d="M484 0l-88 350l-83 -350h-146l-153 500h131l100 -371l81 371h139l87 -368l95 368h126l-143 -500h-146z" />
    <glyph glyph-name="x" unicode="x" horiz-adv-x="525" 
d="M370 0l-109 153l-110 -153h-141l181 252l-176 248h145l104 -146l105 146h141l-176 -245l181 -255h-145z" />
    <glyph glyph-name="y" unicode="y" horiz-adv-x="572" 
d="M225 -202h-182v112h133q34 0 44.5 10.5t10.5 44.5v73l-218 462h146l135 -304l130 304h144l-213 -457v-115q0 -130 -130 -130z" />
    <glyph glyph-name="z" unicode="z" horiz-adv-x="509" 
d="M474 0h-435v100l258 285h-253v115h415v-100l-258 -285h273v-115z" />
    <glyph glyph-name="braceleft" unicode="{" horiz-adv-x="365" 
d="M161 361v-22q36 0 58 -22.5t22 -68.5v-213q0 -43 12 -59t48 -16h31v-105h-86q-135 0 -135 155v205q0 38 -10 51.5t-40 13.5h-25v140h25q30 0 40 13.5t10 51.5v205q0 155 135 155h86v-105h-31q-36 0 -48 -16t-12 -59v-213q0 -46 -22 -68.5t-58 -22.5z" />
    <glyph glyph-name="bar" unicode="|" horiz-adv-x="291" 
d="M212 -85h-133v870h133v-870z" />
    <glyph glyph-name="braceright" unicode="}" horiz-adv-x="365" 
d="M204 339v22q-36 0 -58 22.5t-22 68.5v213q0 43 -12 59t-48 16h-31v105h86q135 0 135 -155v-205q0 -38 10 -51.5t40 -13.5h25v-140h-25q-30 0 -40 -13.5t-10 -51.5v-205q0 -155 -135 -155h-86v105h31q36 0 48 16t12 59v213q0 46 22 68.5t58 22.5z" />
    <glyph glyph-name="asciitilde" unicode="~" horiz-adv-x="503" 
d="M322 440q30 0 30 40h95v-26q0 -50 -27.5 -82t-82.5 -32q-35 0 -80 24l-18 10q-28 16 -45 16q-15 1 -23 -10.5t-8 -29.5h-95v26q0 47 32.5 80.5t79.5 33.5q37 0 75 -20l18 -10q40 -20 49 -20z" />
    <glyph glyph-name="exclamdown" unicode="&#xa1;" horiz-adv-x="267" 
d="M68 370v130h130v-130h-130zM67 40l31 285h71l31 -285v-240h-133v240z" />
    <glyph glyph-name="cent" unicode="&#xa2;" horiz-adv-x="542" 
d="M170 250q0 -74 40 -115l44 257q-40 -12 -62 -51.5t-22 -90.5zM290 -10h-1l-19 -110h-103l22 128q-71 27 -110 92t-39 150q0 109 62 181.5t171 78.5l19 110h103l-21 -123q56 -20 90.5 -64.5t40.5 -107.5h-129q-5 29 -23 47l-45 -268q27 4 45 23.5t23 47.5h129
q-8 -85 -66.5 -135t-148.5 -50z" />
    <glyph glyph-name="sterling" unicode="&#xa3;" horiz-adv-x="593" 
d="M560 0h-516v115h43q32 0 46.5 15t16.5 47l6 87l-112 -27v110l121 29l8 114q16 210 222 210h115v-115h-118q-44 0 -64 -21.5t-24 -78.5l-6 -77l111 26v-110l-119 -28l-8 -99q-5 -56 -44 -82h322v-115z" />
    <glyph glyph-name="currency" unicode="&#xa4;" horiz-adv-x="741" 
d="M603 -5l-89 85q-67 -40 -146 -40q-77 0 -143 39l-87 -84l-90 90l87 83q-37 64 -37 137q0 72 34 131l-84 84l90 90l86 -83q66 38 144 38q82 0 147 -40l88 85l90 -90l-88 -88q33 -58 33 -127q0 -72 -35 -134l90 -86zM364 155h8q59 0 96 41.5t37 108.5q0 65 -37 105t-96 40
h-8q-59 0 -96 -40t-37 -105q0 -67 37 -108.5t96 -41.5z" />
    <glyph glyph-name="yen" unicode="&#xa5;" horiz-adv-x="691" 
d="M412 0h-133v105l-133 -30v110l133 30v62l-163 -36v110l110 24l-199 325h143l179 -293l176 293h140l-161 -263l73 16v-110l-151 -33l-14 -23v-43l135 30v-110l-135 -30v-134z" />
    <glyph glyph-name="brokenbar" unicode="&#xa6;" horiz-adv-x="289" 
d="M78 415v370h133v-370h-133zM78 -85v380h133v-380h-133z" />
    <glyph glyph-name="section" unicode="&#xa7;" horiz-adv-x="541" 
d="M288 -60h-209v105h205q52 0 52 41q0 31 -45 47l-139 52q-59 22 -86.5 54.5t-26.5 82.5q2 78 91 125q-53 38 -53 110q0 71 45.5 107.5t133.5 36.5l188 -1v-105h-180q-57 0 -57 -40q0 -33 43 -46l91 -30q83 -27 123 -59.5t40 -92.5q0 -42 -25 -78t-68 -57q58 -46 58 -108
q0 -61 -44.5 -102.5t-136.5 -41.5zM231 276l88 -33q25 9 38.5 28t13.5 37q0 42 -62 61l-87 28q-50 -21 -50 -67q0 -15 9 -25.5t19.5 -15.5t30.5 -13z" />
    <glyph glyph-name="dieresis" unicode="&#xa8;" horiz-adv-x="340" 
d="M210 565v130h120v-130h-120zM10 565v130h120v-130h-120z" />
    <glyph glyph-name="copyright" unicode="&#xa9;" horiz-adv-x="870" 
d="M435 -39q-161 0 -275.5 114.5t-114.5 275.5t114.5 275.5t275.5 114.5t275.5 -114.5t114.5 -275.5t-114.5 -275.5t-275.5 -114.5zM435 48q123 0 210.5 89t87.5 214t-87.5 214t-210.5 89t-210.5 -89t-87.5 -214t87.5 -214t210.5 -89zM602 405h-108q-8 57 -57 57h-4
q-64 0 -64 -111t64 -111h4q50 0 58 60h107q0 -66 -42 -109t-125 -43q-87 0 -131 59t-44 144t44 144t131 59q83 0 125 -42t42 -107z" />
    <glyph glyph-name="ordfeminine" unicode="&#xaa;" horiz-adv-x="380" 
d="M171 482h4q19 0 33 13t14 36v10l-55 -10q-24 -5 -24 -25q0 -24 28 -24zM231 415q-2 9 -4 36q-32 -41 -87 -41q-40 0 -66.5 24t-26.5 63q0 73 108 86l65 8v9q0 33 -32 33h-4q-29 0 -34 -22h-93q2 43 36 68.5t95 25.5q57 0 92.5 -27.5t35.5 -71.5v-128q0 -36 4 -63h-89z
" />
    <glyph glyph-name="guillemotleft" unicode="&#xab;" horiz-adv-x="602" 
d="M327 70h-150l-145 215l145 215h150l-145 -215zM567 70h-150l-145 215l145 215h150l-145 -215z" />
    <glyph glyph-name="logicalnot" unicode="&#xac;" horiz-adv-x="617" 
d="M546 115h-133v135h-349v115h482v-250z" />
    <glyph glyph-name="registered" unicode="&#xae;" horiz-adv-x="870" 
d="M435 -39q-161 0 -275.5 114.5t-114.5 275.5t114.5 275.5t275.5 114.5t275.5 -114.5t114.5 -275.5t-114.5 -275.5t-275.5 -114.5zM435 48q123 0 210.5 89t87.5 214t-87.5 214t-210.5 89t-210.5 -89t-87.5 -214t87.5 -214t210.5 -89zM392 378h63q42 0 42 39q0 38 -44 38
h-61v-77zM288 158v386h186q61 0 94 -29.5t33 -76.5q0 -83 -81 -101q39 0 57.5 -14t18.5 -46v-119h-104v99q0 20 -7 27.5t-28 7.5h-65v-134h-104z" />
    <glyph glyph-name="macron" unicode="&#xaf;" horiz-adv-x="325" 
d="M10 565v105h305v-105h-305z" />
    <glyph glyph-name="degree" unicode="&#xb0;" horiz-adv-x="448" 
d="M224 340q-79 0 -132 53t-53 132t53 132t132 53t132 -53t53 -132t-53 -132t-132 -53zM224 448q30 0 50.5 22t20.5 55q0 31 -20.5 51.5t-50.5 20.5t-50.5 -20.5t-20.5 -51.5q0 -33 20.5 -55t50.5 -22z" />
    <glyph glyph-name="plusminus" unicode="&#xb1;" horiz-adv-x="620" 
d="M557 275h-181v-105h-133v105h-180v115h180v110h133v-110h181v-115zM63 0v114h494v-114h-494z" />
    <glyph glyph-name="twosuperior" unicode="&#xb2;" horiz-adv-x="374" 
d="M334 415h-296v84l149 135q38 34 38 57q0 15 -10.5 25.5t-26.5 10.5h-4q-16 0 -28 -13t-13 -30h-107q4 59 47.5 95t108.5 36q63 0 102 -36t39 -81q0 -33 -14.5 -56t-43.5 -50l-95 -87h154v-90z" />
    <glyph glyph-name="threesuperior" unicode="&#xb3;" horiz-adv-x="378" 
d="M183 410q-64 0 -107.5 31t-43.5 86h108q1 -13 13.5 -21.5t28.5 -8.5h5q19 0 31.5 11t12.5 28t-12 26.5t-31 9.5h-37v84h37q18 0 29 10t11 26t-10 26t-28 10h-5q-15 0 -25.5 -8.5t-12.5 -19.5h-108q0 54 43 84.5t106 30.5q61 0 104.5 -30.5t43.5 -82.5q0 -63 -55 -87
q58 -27 58 -93q0 -53 -46 -82.5t-110 -29.5z" />
    <glyph glyph-name="acute" unicode="&#xb4;" horiz-adv-x="195" 
d="M10 550l25 150h150l-100 -150h-75z" />
    <glyph glyph-name="mu" unicode="&#xb5;" horiz-adv-x="579" 
d="M236 -10q-21 0 -39 3v-193h-130v700h130v-305q0 -48 19.5 -74t54.5 -26h8q43 0 73 37t30 90v278h130v-500h-130v73q-23 -38 -61.5 -60.5t-84.5 -22.5z" />
    <glyph glyph-name="paragraph" unicode="&#xb6;" horiz-adv-x="683" 
d="M371 -200h-130v474q-88 0 -150.5 62.5t-62.5 150.5t62.5 150.5t150.5 62.5h395v-105h-70v-795h-130v795h-65v-795z" />
    <glyph glyph-name="periodcentered" unicode="&#xb7;" horiz-adv-x="269" 
d="M62 276v145h145v-145h-145z" />
    <glyph glyph-name="cedilla" unicode="&#xb8;" horiz-adv-x="240" 
d="M20 -245v75h85q40 0 40 30q0 12 -8.5 21t-26.5 9h-55v125h70v-60q40 0 67.5 -24.5t27.5 -70.5q0 -48 -33.5 -76.5t-86.5 -28.5h-80z" />
    <glyph glyph-name="onesuperior" unicode="&#xb9;" horiz-adv-x="301" 
d="M244 415h-105v256l-109 -90v126l125 103h89v-395z" />
    <glyph glyph-name="ordmasculine" unicode="&#xba;" horiz-adv-x="392" 
d="M196 705q70 0 112 -42t42 -106t-42 -105.5t-112 -41.5t-112 41.5t-42 105.5t42 106t112 42zM198 625h-4q-23 0 -36.5 -18t-13.5 -50t13.5 -49.5t36.5 -17.5h4q23 0 36.5 17.5t13.5 49.5t-13.5 50t-36.5 18z" />
    <glyph glyph-name="guillemotright" unicode="&#xbb;" horiz-adv-x="602" 
d="M425 70h-150l145 215l-145 215h150l145 -215zM185 70h-150l145 215l-145 215h150l145 -215z" />
    <glyph glyph-name="onequarter" unicode="&#xbc;" horiz-adv-x="910" 
d="M295 0h-117l420 700h117zM246 305h-105v256l-109 -90v126l125 103h89v-395zM825 0h-97v62h-196v109l174 224h119v-249h53v-84h-53v-62zM728 283l-105 -137h105v137z" />
    <glyph glyph-name="onehalf" unicode="&#xbd;" horiz-adv-x="931" 
d="M295 0h-117l420 700h117zM246 305h-105v256l-109 -90v126l125 103h89v-395zM891 0h-296v84l149 135q38 34 38 57q0 15 -10.5 25.5t-26.5 10.5h-4q-16 0 -28 -13t-13 -30h-107q4 59 47.5 95t108.5 36q63 0 102 -36t39 -81q0 -33 -14.5 -56t-43.5 -50l-95 -87h154v-90z" />
    <glyph glyph-name="threequarters" unicode="&#xbe;" horiz-adv-x="961" 
d="M345 0h-117l420 700h117zM185 300q-64 0 -107.5 31t-43.5 86h108q1 -13 13.5 -21.5t28.5 -8.5h5q19 0 31.5 11t12.5 28t-12 26.5t-31 9.5h-37v84h37q18 0 29 10t11 26t-10 26t-28 10h-5q-15 0 -25.5 -8.5t-12.5 -19.5h-108q0 54 43 84.5t106 30.5q61 0 104.5 -30.5
t43.5 -82.5q0 -63 -55 -87q58 -27 58 -93q0 -53 -46 -82.5t-110 -29.5zM876 0h-97v62h-196v109l174 224h119v-249h53v-84h-53v-62zM779 283l-105 -137h105v137z" />
    <glyph glyph-name="questiondown" unicode="&#xbf;" horiz-adv-x="485" 
d="M364 500v-130h-130v130h130zM211 180q15 0 20.5 5t5.5 20v104h123v-154q0 -38 -21 -59t-58 -21h-27q-93 0 -93 -80q0 -37 25.5 -58.5t67.5 -21.5h200v-115h-218q-91 0 -149 53t-58 142q0 78 49.5 131.5t132.5 53.5z" />
    <glyph glyph-name="Agrave" unicode="&#xc0;" horiz-adv-x="713" 
d="M411 745h-90l-105 145h155zM455 285l-101 265l-101 -265h202zM564 0l-63 165h-294l-63 -165h-142l277 700h158l270 -700h-143z" />
    <glyph glyph-name="Aacute" unicode="&#xc1;" horiz-adv-x="713" 
d="M396 745h-90l40 145h155zM455 285l-101 265l-101 -265h202zM564 0l-63 165h-294l-63 -165h-142l277 700h158l270 -700h-143z" />
    <glyph glyph-name="Acircumflex" unicode="&#xc2;" horiz-adv-x="713" 
d="M274 745h-110l120 145h140l120 -145h-110l-80 58zM455 285l-101 265l-101 -265h202zM564 0l-63 165h-294l-63 -165h-142l277 700h158l270 -700h-143z" />
    <glyph glyph-name="Atilde" unicode="&#xc3;" horiz-adv-x="713" 
d="M419 850q30 0 30 40h95v-26q0 -50 -27.5 -82t-82.5 -32q-35 0 -80 24l-18 10q-28 16 -45 16q-15 1 -23 -10.5t-8 -29.5h-95v26q0 47 32.5 80.5t79.5 33.5q37 0 75 -20l18 -10q40 -20 49 -20zM455 285l-101 265l-101 -265h202zM564 0l-63 165h-294l-63 -165h-142l277 700
h158l270 -700h-143z" />
    <glyph glyph-name="Adieresis" unicode="&#xc4;" horiz-adv-x="713" 
d="M515 765h-125v120h125v-120zM320 765h-125v120h125v-120zM455 285l-101 265l-101 -265h202zM564 0l-63 165h-294l-63 -165h-142l277 700h158l270 -700h-143z" />
    <glyph glyph-name="Aring" unicode="&#xc5;" horiz-adv-x="713" 
d="M466 840q0 -47 -31.5 -78.5t-78.5 -31.5q-44 0 -77 32t-33 78q0 43 33.5 76.5t76.5 33.5q46 0 78 -33t32 -77zM395 840q0 16 -11.5 28t-27.5 12t-28 -12t-12 -28t12 -28t28 -12t27.5 12t11.5 28zM455 285l-101 265l-101 -265h202zM564 0l-63 165h-294l-63 -165h-142
l277 700h158l270 -700h-143z" />
    <glyph glyph-name="AE" unicode="&#xc6;" horiz-adv-x="991" 
d="M472 285l-41 287l-145 -287h186zM513 0l-24 165h-264l-83 -165h-147l365 700h548v-120h-343l24 -161h289v-120h-274l26 -179h338v-120h-455z" />
    <glyph glyph-name="Ccedilla" unicode="&#xc7;" horiz-adv-x="711" 
d="M491 -140q0 -48 -33.5 -76.5t-86.5 -28.5h-80v75h85q40 0 40 30q0 12 -9 21t-26 9h-55v103q-135 16 -208.5 111.5t-73.5 245.5q0 164 88 262t247 98q133 0 209.5 -68t84.5 -172h-135q-12 58 -51.5 89t-102.5 31h-10q-88 0 -141.5 -64.5t-53.5 -175.5t53.5 -175.5
t141.5 -64.5h10q129 0 154 120h135q-8 -104 -79.5 -170t-197.5 -70v-35q40 0 67.5 -24.5t27.5 -70.5z" />
    <glyph glyph-name="Egrave" unicode="&#xc8;" horiz-adv-x="661" 
d="M417 745h-90l-105 145h155zM82 0v700h530v-120h-395v-161h335v-120h-335v-179h405v-120h-540z" />
    <glyph glyph-name="Eacute" unicode="&#xc9;" horiz-adv-x="661" 
d="M382 745h-90l40 145h155zM82 0v700h530v-120h-395v-161h335v-120h-335v-179h405v-120h-540z" />
    <glyph glyph-name="Ecircumflex" unicode="&#xca;" horiz-adv-x="661" 
d="M268 745h-110l120 145h140l120 -145h-110l-80 58zM82 0v700h530v-120h-395v-161h335v-120h-335v-179h405v-120h-540z" />
    <glyph glyph-name="Edieresis" unicode="&#xcb;" horiz-adv-x="661" 
d="M509 765h-125v120h125v-120zM314 765h-125v120h125v-120zM82 0v700h530v-120h-395v-161h335v-120h-335v-179h405v-120h-540z" />
    <glyph glyph-name="Igrave" unicode="&#xcc;" horiz-adv-x="299" 
d="M199 745h-90l-105 145h155zM82 0v700h135v-700h-135z" />
    <glyph glyph-name="Iacute" unicode="&#xcd;" horiz-adv-x="299" 
d="M195 745h-90l40 145h155zM82 0v700h135v-700h-135z" />
    <glyph glyph-name="Icircumflex" unicode="&#xce;" horiz-adv-x="299" 
d="M70 745h-110l120 145h140l120 -145h-110l-80 58zM82 0v700h135v-700h-135z" />
    <glyph glyph-name="Idieresis" unicode="&#xcf;" horiz-adv-x="299" 
d="M310 765h-125v120h125v-120zM115 765h-125v120h125v-120zM82 0v700h135v-700h-135z" />
    <glyph glyph-name="Eth" unicode="&#xd0;" horiz-adv-x="752" 
d="M358 0h-245v290h-100v120h100v290h240q162 0 258.5 -91t96.5 -259q0 -169 -94.5 -259.5t-255.5 -90.5zM248 120h95q109 0 169.5 53t60.5 177t-60.5 177t-169.5 53h-95v-170h125v-120h-125v-170z" />
    <glyph glyph-name="Ntilde" unicode="&#xd1;" horiz-adv-x="749" 
d="M451 850q30 0 30 40h95v-26q0 -50 -27.5 -82t-82.5 -32q-35 0 -80 24l-18 10q-28 16 -45 16q-15 1 -23 -10.5t-8 -29.5h-95v26q0 47 32.5 80.5t79.5 33.5q37 0 75 -20l18 -10q40 -20 49 -20zM492 0l-275 515v-515h-135v700h175l275 -513v513h135v-700h-175z" />
    <glyph glyph-name="Ograve" unicode="&#xd2;" horiz-adv-x="766" 
d="M437 745h-90l-105 145h155zM383 -10q-152 0 -246 97t-94 263t94 263t246 97t246 -97t94 -263t-94 -263t-246 -97zM378 110h10q94 0 147 64t53 176t-53 176t-147 64h-10q-94 0 -147 -64t-53 -176t53 -176t147 -64z" />
    <glyph glyph-name="Oacute" unicode="&#xd3;" horiz-adv-x="766" 
d="M430 745h-90l40 145h155zM383 -10q-152 0 -246 97t-94 263t94 263t246 97t246 -97t94 -263t-94 -263t-246 -97zM378 110h10q94 0 147 64t53 176t-53 176t-147 64h-10q-94 0 -147 -64t-53 -176t53 -176t147 -64z" />
    <glyph glyph-name="Ocircumflex" unicode="&#xd4;" horiz-adv-x="766" 
d="M303 745h-110l120 145h140l120 -145h-110l-80 58zM383 -10q-152 0 -246 97t-94 263t94 263t246 97t246 -97t94 -263t-94 -263t-246 -97zM378 110h10q94 0 147 64t53 176t-53 176t-147 64h-10q-94 0 -147 -64t-53 -176t53 -176t147 -64z" />
    <glyph glyph-name="Otilde" unicode="&#xd5;" horiz-adv-x="766" 
d="M448 850q30 0 30 40h95v-26q0 -50 -27.5 -82t-82.5 -32q-35 0 -80 24l-18 10q-28 16 -45 16q-15 1 -23 -10.5t-8 -29.5h-95v26q0 47 32.5 80.5t79.5 33.5q37 0 75 -20l18 -10q40 -20 49 -20zM383 -10q-152 0 -246 97t-94 263t94 263t246 97t246 -97t94 -263t-94 -263
t-246 -97zM378 110h10q94 0 147 64t53 176t-53 176t-147 64h-10q-94 0 -147 -64t-53 -176t53 -176t147 -64z" />
    <glyph glyph-name="Odieresis" unicode="&#xd6;" horiz-adv-x="766" 
d="M543 765h-125v120h125v-120zM348 765h-125v120h125v-120zM383 -10q-152 0 -246 97t-94 263t94 263t246 97t246 -97t94 -263t-94 -263t-246 -97zM378 110h10q94 0 147 64t53 176t-53 176t-147 64h-10q-94 0 -147 -64t-53 -176t53 -176t147 -64z" />
    <glyph glyph-name="multiply" unicode="&#xd7;" horiz-adv-x="548" 
d="M418 31l-144 145l-145 -145l-81 82l144 144l-145 145l83 83l145 -145l144 144l81 -82l-143 -143l144 -145z" />
    <glyph glyph-name="Oslash" unicode="&#xd8;" horiz-adv-x="769" 
d="M179 350q0 -70 22 -125l275 347q-39 18 -87 18h-10q-94 0 -147 -64t-53 -176zM379 110h10q94 0 147 64t53 176q0 70 -22 123l-273 -346q39 -17 85 -17zM384 -10q-94 0 -168 38l-61 -77l-105 82l64 82q-70 94 -70 235q0 166 94 263t246 97q94 0 169 -39l62 78l105 -82
l-65 -83q69 -93 69 -234q0 -166 -94 -263t-246 -97z" />
    <glyph glyph-name="Ugrave" unicode="&#xd9;" horiz-adv-x="702" 
d="M404 745h-90l-105 145h155zM351 -10q-139 0 -207 66t-68 189v455h135v-435q0 -81 33 -118t102 -37h10q69 0 102 37t33 118v435h135v-455q0 -123 -68 -189t-207 -66z" />
    <glyph glyph-name="Uacute" unicode="&#xda;" horiz-adv-x="702" 
d="M389 745h-90l40 145h155zM351 -10q-139 0 -207 66t-68 189v455h135v-435q0 -81 33 -118t102 -37h10q69 0 102 37t33 118v435h135v-455q0 -123 -68 -189t-207 -66z" />
    <glyph glyph-name="Ucircumflex" unicode="&#xdb;" horiz-adv-x="702" 
d="M271 745h-110l120 145h140l120 -145h-110l-80 58zM351 -10q-139 0 -207 66t-68 189v455h135v-435q0 -81 33 -118t102 -37h10q69 0 102 37t33 118v435h135v-455q0 -123 -68 -189t-207 -66z" />
    <glyph glyph-name="Udieresis" unicode="&#xdc;" horiz-adv-x="702" 
d="M511 765h-125v120h125v-120zM316 765h-125v120h125v-120zM351 -10q-139 0 -207 66t-68 189v455h135v-435q0 -81 33 -118t102 -37h10q69 0 102 37t33 118v435h135v-455q0 -123 -68 -189t-207 -66z" />
    <glyph glyph-name="Yacute" unicode="&#xdd;" horiz-adv-x="663" 
d="M370 745h-90l40 145h155zM399 0h-135v280l-260 420h153l179 -294l176 294h148l-261 -420v-280z" />
    <glyph glyph-name="Thorn" unicode="&#xde;" horiz-adv-x="652" 
d="M82 0v700h135v-125h175q103 0 166.5 -60t63.5 -165t-63.5 -165t-166.5 -60h-175v-125h-135zM217 245h165q51 0 78 28.5t27 76.5q0 49 -27 77t-78 28h-165v-210z" />
    <glyph glyph-name="germandbls" unicode="&#xdf;" horiz-adv-x="554" 
d="M197 498v-683h-130v688q0 95 58 151t158 56q92 0 150.5 -52t58.5 -128q0 -115 -116 -162q58 -10 99.5 -57.5t41.5 -112.5q0 -92 -63.5 -145t-163.5 -53h-48v105h18q60 0 93.5 28t33.5 80q0 50 -35.5 74.5t-91.5 24.5h-18v105h18q44 0 75.5 26t31.5 72q0 43 -23 66.5
t-58 23.5h-6q-36 0 -59.5 -27t-23.5 -80z" />
    <glyph glyph-name="agrave" unicode="&#xe0;" horiz-adv-x="534" 
d="M283 700l25 -150h-75l-100 150h150zM227 95h5q46 0 79.5 30.5t33.5 78.5v14l-108 -11q-29 -3 -51 -18t-22 -43q0 -23 18 -37t45 -14zM354 0q-4 21 -6 61q-50 -71 -148 -71q-69 0 -116.5 40.5t-47.5 106.5q0 76 51 117t132 48l126 11v12q0 35 -22 57.5t-59 22.5h-6
q-35 0 -57.5 -18t-24.5 -42h-130q8 72 65.5 118.5t149.5 46.5q96 0 153 -47t57 -133v-220q0 -75 5 -110h-122z" />
    <glyph glyph-name="aacute" unicode="&#xe1;" horiz-adv-x="534" 
d="M218 550l25 150h150l-100 -150h-75zM227 95h5q46 0 79.5 30.5t33.5 78.5v14l-108 -11q-29 -3 -51 -18t-22 -43q0 -23 18 -37t45 -14zM354 0q-4 21 -6 61q-50 -71 -148 -71q-69 0 -116.5 40.5t-47.5 106.5q0 76 51 117t132 48l126 11v12q0 35 -22 57.5t-59 22.5h-6
q-35 0 -57.5 -18t-24.5 -42h-130q8 72 65.5 118.5t149.5 46.5q96 0 153 -47t57 -133v-220q0 -75 5 -110h-122z" />
    <glyph glyph-name="acircumflex" unicode="&#xe2;" horiz-adv-x="534" 
d="M361 550l-100 72l-100 -72h-80l100 150h160l100 -150h-80zM227 95h5q46 0 79.5 30.5t33.5 78.5v14l-108 -11q-29 -3 -51 -18t-22 -43q0 -23 18 -37t45 -14zM354 0q-4 21 -6 61q-50 -71 -148 -71q-69 0 -116.5 40.5t-47.5 106.5q0 76 51 117t132 48l126 11v12
q0 35 -22 57.5t-59 22.5h-6q-35 0 -57.5 -18t-24.5 -42h-130q8 72 65.5 118.5t149.5 46.5q96 0 153 -47t57 -133v-220q0 -75 5 -110h-122z" />
    <glyph glyph-name="atilde" unicode="&#xe3;" horiz-adv-x="534" 
d="M333 655q13 0 21.5 11.5t8.5 28.5h95v-26q0 -46 -33 -80t-77 -34q-35 0 -80 24l-18 10q-28 16 -42 16q-13 0 -23.5 -11.5t-10.5 -28.5h-95v26q0 47 32.5 80.5t79.5 33.5q37 0 75 -20l18 -10q40 -20 49 -20zM227 95h5q46 0 79.5 30.5t33.5 78.5v14l-108 -11
q-29 -3 -51 -18t-22 -43q0 -23 18 -37t45 -14zM354 0q-4 21 -6 61q-50 -71 -148 -71q-69 0 -116.5 40.5t-47.5 106.5q0 76 51 117t132 48l126 11v12q0 35 -22 57.5t-59 22.5h-6q-35 0 -57.5 -18t-24.5 -42h-130q8 72 65.5 118.5t149.5 46.5q96 0 153 -47t57 -133v-220
q0 -75 5 -110h-122z" />
    <glyph glyph-name="adieresis" unicode="&#xe4;" horiz-adv-x="534" 
d="M300 565v130h120v-130h-120zM100 565v130h120v-130h-120zM227 95h5q46 0 79.5 30.5t33.5 78.5v14l-108 -11q-29 -3 -51 -18t-22 -43q0 -23 18 -37t45 -14zM354 0q-4 21 -6 61q-50 -71 -148 -71q-69 0 -116.5 40.5t-47.5 106.5q0 76 51 117t132 48l126 11v12
q0 35 -22 57.5t-59 22.5h-6q-35 0 -57.5 -18t-24.5 -42h-130q8 72 65.5 118.5t149.5 46.5q96 0 153 -47t57 -133v-220q0 -75 5 -110h-122z" />
    <glyph glyph-name="aring" unicode="&#xe5;" horiz-adv-x="534" 
d="M268 540q-42 0 -73.5 30.5t-31.5 74.5q0 41 32 73t73 32q44 0 74.5 -31.5t30.5 -73.5q0 -45 -30 -75t-75 -30zM268 689q-18 0 -31 -13t-13 -31t13 -31t31 -13t30.5 13t12.5 31t-12.5 31t-30.5 13zM227 95h5q46 0 79.5 30.5t33.5 78.5v14l-108 -11q-29 -3 -51 -18t-22 -43
q0 -23 18 -37t45 -14zM354 0q-4 21 -6 61q-50 -71 -148 -71q-69 0 -116.5 40.5t-47.5 106.5q0 76 51 117t132 48l126 11v12q0 35 -22 57.5t-59 22.5h-6q-35 0 -57.5 -18t-24.5 -42h-130q8 72 65.5 118.5t149.5 46.5q96 0 153 -47t57 -133v-220q0 -75 5 -110h-122z" />
    <glyph glyph-name="ae" unicode="&#xe6;" horiz-adv-x="846" 
d="M582 -10q-120 0 -189 95q-25 -42 -74.5 -68.5t-108.5 -26.5q-76 0 -125 40t-49 107q0 76 51 117t132 48l126 11v12q0 35 -22 57.5t-59 22.5h-6q-35 0 -57.5 -18t-24.5 -42h-130q8 72 65.5 118.5t149.5 46.5q107 0 163 -56q64 56 158 56q109 0 168.5 -70.5t59.5 -183.5
q0 -15 -2 -47h-337v-9q7 -47 40 -76t73 -29h6q36 0 59 18t30 45h129q-19 -76 -77 -122t-149 -46zM574 405q-40 0 -68.5 -23t-34.5 -63v-10h213q-2 44 -31.5 70t-72.5 26h-6zM227 95h5q46 0 79.5 30.5t33.5 78.5v14l-108 -11q-29 -3 -51 -18t-22 -43q0 -23 18 -37t45 -14z
" />
    <glyph glyph-name="ccedilla" unicode="&#xe7;" horiz-adv-x="539" 
d="M407 -140q0 -48 -33.5 -76.5t-86.5 -28.5h-80v75h85q40 0 40 30q0 12 -9 21t-26 9h-55v103q-90 12 -146.5 81.5t-56.5 175.5q0 118 68 189t172 71q100 0 159 -46.5t66 -138.5h-130q-13 80 -92 80h-6q-53 0 -80 -43.5t-27 -111.5t27 -111.5t80 -43.5h6q79 0 92 80h130
q-7 -84 -57 -130t-135 -54v-36q40 0 67.5 -24.5t27.5 -70.5z" />
    <glyph glyph-name="egrave" unicode="&#xe8;" horiz-adv-x="541" 
d="M290 700l25 -150h-75l-100 150h150zM503 158q-19 -76 -77 -122t-149 -46q-99 0 -168.5 70.5t-69.5 189.5q0 115 64 187.5t174 72.5q109 0 168.5 -70.5t59.5 -183.5q0 -15 -2 -47h-338q4 -50 37.5 -82t76.5 -32h6q36 0 59 18t30 45h129zM269 405q-43 0 -72.5 -26
t-31.5 -70h214q-2 44 -31.5 70t-72.5 26h-6z" />
    <glyph glyph-name="eacute" unicode="&#xe9;" horiz-adv-x="541" 
d="M227 550l25 150h150l-100 -150h-75zM503 158q-19 -76 -77 -122t-149 -46q-99 0 -168.5 70.5t-69.5 189.5q0 115 64 187.5t174 72.5q109 0 168.5 -70.5t59.5 -183.5q0 -15 -2 -47h-338q4 -50 37.5 -82t76.5 -32h6q36 0 59 18t30 45h129zM269 405q-43 0 -72.5 -26
t-31.5 -70h214q-2 44 -31.5 70t-72.5 26h-6z" />
    <glyph glyph-name="ecircumflex" unicode="&#xea;" horiz-adv-x="541" 
d="M373 550l-100 72l-100 -72h-80l100 150h160l100 -150h-80zM503 158q-19 -76 -77 -122t-149 -46q-99 0 -168.5 70.5t-69.5 189.5q0 115 64 187.5t174 72.5q109 0 168.5 -70.5t59.5 -183.5q0 -15 -2 -47h-338q4 -50 37.5 -82t76.5 -32h6q36 0 59 18t30 45h129zM269 405
q-43 0 -72.5 -26t-31.5 -70h214q-2 44 -31.5 70t-72.5 26h-6z" />
    <glyph glyph-name="edieresis" unicode="&#xeb;" horiz-adv-x="541" 
d="M308 565v130h120v-130h-120zM108 565v130h120v-130h-120zM503 158q-19 -76 -77 -122t-149 -46q-99 0 -168.5 70.5t-69.5 189.5q0 115 64 187.5t174 72.5q109 0 168.5 -70.5t59.5 -183.5q0 -15 -2 -47h-338q4 -50 37.5 -82t76.5 -32h6q36 0 59 18t30 45h129zM269 405
q-43 0 -72.5 -26t-31.5 -70h214q-2 44 -31.5 70t-72.5 26h-6z" />
    <glyph glyph-name="igrave" unicode="&#xec;" horiz-adv-x="264" 
d="M147 700l25 -150h-75l-100 150h150zM67 0v500h130v-500h-130z" />
    <glyph glyph-name="iacute" unicode="&#xed;" horiz-adv-x="264" 
d="M92 550l25 150h150l-100 -150h-75zM67 0v500h130v-500h-130z" />
    <glyph glyph-name="icircumflex" unicode="&#xee;" horiz-adv-x="264" 
d="M229 550l-100 72l-100 -72h-80l100 150h160l100 -150h-80zM67 0v500h130v-500h-130z" />
    <glyph glyph-name="idieresis" unicode="&#xef;" horiz-adv-x="264" 
d="M172 565v130h120v-130h-120zM-28 565v130h120v-130h-120zM67 0v500h130v-500h-130z" />
    <glyph glyph-name="eth" unicode="&#xf0;" horiz-adv-x="580" 
d="M283 -10q-110 0 -177.5 71t-67.5 180q0 100 63 167t167 67q65 0 123 -45q-11 62 -45 99l-64 -43l-56 79l25 17q-37 8 -76 8v110q121 0 191 -40l76 51l56 -79l-56 -38q91 -112 91 -302q0 -129 -64.5 -215.5t-185.5 -86.5zM281 95h8q56 0 87.5 41.5t31.5 103.5
q0 55 -32.5 92.5t-88.5 37.5h-8q-52 0 -81.5 -37t-29.5 -92q0 -63 29.5 -104.5t83.5 -41.5z" />
    <glyph glyph-name="ntilde" unicode="&#xf1;" horiz-adv-x="584" 
d="M360 655q13 0 21.5 11.5t8.5 28.5h95v-26q0 -46 -33 -80t-77 -34q-35 0 -80 24l-18 10q-28 16 -42 16q-13 0 -23.5 -11.5t-10.5 -28.5h-95v26q0 47 32.5 80.5t79.5 33.5q37 0 75 -20l18 -10q40 -20 49 -20zM197 278v-278h-130v500h130v-73q23 38 63 60.5t88 22.5
q87 0 130.5 -51.5t43.5 -138.5v-320h-130v305q0 48 -20.5 74t-58.5 26h-8q-45 0 -76.5 -37t-31.5 -90z" />
    <glyph glyph-name="ograve" unicode="&#xf2;" horiz-adv-x="576" 
d="M310 700l25 -150h-75l-100 150h150zM288 -10q-111 0 -180.5 73t-69.5 187t69.5 187t180.5 73t180.5 -73t69.5 -187t-69.5 -187t-180.5 -73zM292 95q53 0 84 41t31 114t-31 114t-84 41h-8q-53 0 -84 -41t-31 -114t31 -114t84 -41h8z" />
    <glyph glyph-name="oacute" unicode="&#xf3;" horiz-adv-x="576" 
d="M242 550l25 150h150l-100 -150h-75zM288 -10q-111 0 -180.5 73t-69.5 187t69.5 187t180.5 73t180.5 -73t69.5 -187t-69.5 -187t-180.5 -73zM292 95q53 0 84 41t31 114t-31 114t-84 41h-8q-53 0 -84 -41t-31 -114t31 -114t84 -41h8z" />
    <glyph glyph-name="ocircumflex" unicode="&#xf4;" horiz-adv-x="576" 
d="M388 550l-100 72l-100 -72h-80l100 150h160l100 -150h-80zM288 -10q-111 0 -180.5 73t-69.5 187t69.5 187t180.5 73t180.5 -73t69.5 -187t-69.5 -187t-180.5 -73zM292 95q53 0 84 41t31 114t-31 114t-84 41h-8q-53 0 -84 -41t-31 -114t31 -114t84 -41h8z" />
    <glyph glyph-name="otilde" unicode="&#xf5;" horiz-adv-x="576" 
d="M357 655q13 0 21.5 11.5t8.5 28.5h95v-26q0 -46 -33 -80t-77 -34q-35 0 -80 24l-18 10q-28 16 -42 16q-13 0 -23.5 -11.5t-10.5 -28.5h-95v26q0 47 32.5 80.5t79.5 33.5q37 0 75 -20l18 -10q40 -20 49 -20zM288 -10q-111 0 -180.5 73t-69.5 187t69.5 187t180.5 73
t180.5 -73t69.5 -187t-69.5 -187t-180.5 -73zM292 95q53 0 84 41t31 114t-31 114t-84 41h-8q-53 0 -84 -41t-31 -114t31 -114t84 -41h8z" />
    <glyph glyph-name="odieresis" unicode="&#xf6;" horiz-adv-x="576" 
d="M328 565v130h120v-130h-120zM128 565v130h120v-130h-120zM288 -10q-111 0 -180.5 73t-69.5 187t69.5 187t180.5 73t180.5 -73t69.5 -187t-69.5 -187t-180.5 -73zM292 95q53 0 84 41t31 114t-31 114t-84 41h-8q-53 0 -84 -41t-31 -114t31 -114t84 -41h8z" />
    <glyph glyph-name="divide" unicode="&#xf7;" horiz-adv-x="592" 
d="M226 360v135h140v-135h-140zM49 200v115h494v-115h-494zM226 20v135h140v-135h-140z" />
    <glyph glyph-name="oslash" unicode="&#xf8;" horiz-adv-x="578" 
d="M170 250q0 -32 6 -57l157 205q-17 7 -40 7h-8q-53 0 -84 -41t-31 -114zM285 95h8q53 0 84 41t31 114q0 32 -6 56l-157 -204q17 -7 40 -7zM289 -10q-63 0 -112 24l-50 -65l-84 70l49 64q-53 69 -53 167q0 114 69.5 187t180.5 73q63 0 112 -24l48 63l89 -66l-51 -66
q52 -71 52 -167q0 -114 -69.5 -187t-180.5 -73z" />
    <glyph glyph-name="ugrave" unicode="&#xf9;" horiz-adv-x="575" 
d="M301 700l25 -150h-75l-100 150h150zM378 222v278h130v-500h-130v73q-23 -38 -61.5 -60.5t-84.5 -22.5q-84 0 -126.5 51.5t-42.5 138.5v320h130v-305q0 -48 19.5 -74t54.5 -26h8q43 0 73 37t30 90z" />
    <glyph glyph-name="uacute" unicode="&#xfa;" horiz-adv-x="575" 
d="M243 550l25 150h150l-100 -150h-75zM378 222v278h130v-500h-130v73q-23 -38 -61.5 -60.5t-84.5 -22.5q-84 0 -126.5 51.5t-42.5 138.5v320h130v-305q0 -48 19.5 -74t54.5 -26h8q43 0 73 37t30 90z" />
    <glyph glyph-name="ucircumflex" unicode="&#xfb;" horiz-adv-x="575" 
d="M384 550l-100 72l-100 -72h-80l100 150h160l100 -150h-80zM378 222v278h130v-500h-130v73q-23 -38 -61.5 -60.5t-84.5 -22.5q-84 0 -126.5 51.5t-42.5 138.5v320h130v-305q0 -48 19.5 -74t54.5 -26h8q43 0 73 37t30 90z" />
    <glyph glyph-name="udieresis" unicode="&#xfc;" horiz-adv-x="575" 
d="M324 565v130h120v-130h-120zM124 565v130h120v-130h-120zM378 222v278h130v-500h-130v73q-23 -38 -61.5 -60.5t-84.5 -22.5q-84 0 -126.5 51.5t-42.5 138.5v320h130v-305q0 -48 19.5 -74t54.5 -26h8q43 0 73 37t30 90z" />
    <glyph glyph-name="yacute" unicode="&#xfd;" horiz-adv-x="572" 
d="M242 550l25 150h150l-100 -150h-75zM225 -202h-182v112h133q34 0 44.5 10.5t10.5 44.5v73l-218 462h146l135 -304l130 304h144l-213 -457v-115q0 -130 -130 -130z" />
    <glyph glyph-name="thorn" unicode="&#xfe;" horiz-adv-x="601" 
d="M319 405h-8q-47 0 -80.5 -43t-33.5 -112t33.5 -112t80.5 -43h8q50 0 82 42t32 112t-32 113t-82 43zM197 -200h-130v900h130v-265q17 29 56 52t88 23q104 0 163 -76t59 -184t-59 -184t-163 -76q-49 0 -88 23t-56 52v-265z" />
    <glyph glyph-name="ydieresis" unicode="&#xff;" horiz-adv-x="572" 
d="M326 565v130h120v-130h-120zM126 565v130h120v-130h-120zM225 -202h-182v112h133q34 0 44.5 10.5t10.5 44.5v73l-218 462h146l135 -304l130 304h144l-213 -457v-115q0 -130 -130 -130z" />
    <glyph glyph-name="Amacron" unicode="&#x100;" horiz-adv-x="713" 
d="M522 765h-335v110h335v-110zM455 285l-101 265l-101 -265h202zM564 0l-63 165h-294l-63 -165h-142l277 700h158l270 -700h-143z" />
    <glyph glyph-name="amacron" unicode="&#x101;" horiz-adv-x="534" 
d="M109 565v105h305v-105h-305zM227 95h5q46 0 79.5 30.5t33.5 78.5v14l-108 -11q-29 -3 -51 -18t-22 -43q0 -23 18 -37t45 -14zM354 0q-4 21 -6 61q-50 -71 -148 -71q-69 0 -116.5 40.5t-47.5 106.5q0 76 51 117t132 48l126 11v12q0 35 -22 57.5t-59 22.5h-6
q-35 0 -57.5 -18t-24.5 -42h-130q8 72 65.5 118.5t149.5 46.5q96 0 153 -47t57 -133v-220q0 -75 5 -110h-122z" />
    <glyph glyph-name="Abreve" unicode="&#x102;" horiz-adv-x="713" 
d="M294 890q3 -27 19.5 -41t40.5 -14t40.5 14t19.5 41h110q-1 -68 -48.5 -109t-121.5 -41t-121.5 41t-48.5 109h110zM455 285l-101 265l-101 -265h202zM564 0l-63 165h-294l-63 -165h-142l277 700h158l270 -700h-143z" />
    <glyph glyph-name="abreve" unicode="&#x103;" horiz-adv-x="534" 
d="M258 635q27 0 42.5 17.5t17.5 47.5h110q-1 -72 -48.5 -116t-121.5 -44t-121.5 44t-48.5 116h110q2 -30 17.5 -47.5t42.5 -17.5zM227 95h5q46 0 79.5 30.5t33.5 78.5v14l-108 -11q-29 -3 -51 -18t-22 -43q0 -23 18 -37t45 -14zM354 0q-4 21 -6 61q-50 -71 -148 -71
q-69 0 -116.5 40.5t-47.5 106.5q0 76 51 117t132 48l126 11v12q0 35 -22 57.5t-59 22.5h-6q-35 0 -57.5 -18t-24.5 -42h-130q8 72 65.5 118.5t149.5 46.5q96 0 153 -47t57 -133v-220q0 -75 5 -110h-122z" />
    <glyph glyph-name="Aogonek" unicode="&#x104;" horiz-adv-x="713" 
d="M455 285l-101 265l-101 -265h202zM707 -140v-80h-50q-52 0 -86 28t-34 72q0 74 76 120h-49l-63 165h-294l-63 -165h-142l277 700h158l270 -700q-80 -46 -80 -90q0 -25 14.5 -37.5t35.5 -12.5h30z" />
    <glyph glyph-name="aogonek" unicode="&#x105;" horiz-adv-x="534" 
d="M227 95h5q46 0 79.5 30.5t33.5 78.5v14l-108 -11q-29 -3 -51 -18t-22 -43q0 -23 18 -37t45 -14zM476 -140v-80h-50q-52 0 -86 28t-34 72q0 74 76 120h-28q-4 21 -6 61q-50 -71 -148 -71q-69 0 -116.5 40.5t-47.5 106.5q0 76 51 117t132 48l126 11v12q0 35 -22 57.5
t-59 22.5h-6q-35 0 -57.5 -18t-24.5 -42h-130q8 72 65.5 118.5t149.5 46.5q96 0 153 -47t57 -133v-220q0 -75 5 -110q-80 -46 -80 -90q0 -25 14.5 -37.5t35.5 -12.5h30z" />
    <glyph glyph-name="Cacute" unicode="&#x106;" horiz-adv-x="711" 
d="M426 745h-90l40 145h155zM538 230h135q-8 -107 -84 -173.5t-210 -66.5q-159 0 -247 98t-88 262t88 262t247 98q133 0 209.5 -68t84.5 -172h-135q-12 58 -51.5 89t-102.5 31h-10q-88 0 -141.5 -64.5t-53.5 -175.5t53.5 -175.5t141.5 -64.5h10q129 0 154 120z" />
    <glyph glyph-name="cacute" unicode="&#x107;" horiz-adv-x="539" 
d="M240 550l25 150h150l-100 -150h-75zM374 175h130q-7 -92 -66 -138.5t-159 -46.5q-104 0 -172 71t-68 189t68 189t172 71q100 0 159 -46.5t66 -138.5h-130q-13 80 -92 80h-6q-53 0 -80 -43.5t-27 -111.5t27 -111.5t80 -43.5h6q79 0 92 80z" />
    <glyph glyph-name="Ccircumflex" unicode="&#x108;" horiz-adv-x="711" 
d="M303 745h-110l120 145h140l120 -145h-110l-80 58zM538 230h135q-8 -107 -84 -173.5t-210 -66.5q-159 0 -247 98t-88 262t88 262t247 98q133 0 209.5 -68t84.5 -172h-135q-12 58 -51.5 89t-102.5 31h-10q-88 0 -141.5 -64.5t-53.5 -175.5t53.5 -175.5t141.5 -64.5h10
q129 0 154 120z" />
    <glyph glyph-name="ccircumflex" unicode="&#x109;" horiz-adv-x="539" 
d="M382 550l-100 72l-100 -72h-80l100 150h160l100 -150h-80zM374 175h130q-7 -92 -66 -138.5t-159 -46.5q-104 0 -172 71t-68 189t68 189t172 71q100 0 159 -46.5t66 -138.5h-130q-13 80 -92 80h-6q-53 0 -80 -43.5t-27 -111.5t27 -111.5t80 -43.5h6q79 0 92 80z" />
    <glyph glyph-name="Cdotaccent" unicode="&#x10a;" horiz-adv-x="711" 
d="M323 765v135h140v-135h-140zM538 230h135q-8 -107 -84 -173.5t-210 -66.5q-159 0 -247 98t-88 262t88 262t247 98q133 0 209.5 -68t84.5 -172h-135q-12 58 -51.5 89t-102.5 31h-10q-88 0 -141.5 -64.5t-53.5 -175.5t53.5 -175.5t141.5 -64.5h10q129 0 154 120z" />
    <glyph glyph-name="cdotaccent" unicode="&#x10b;" horiz-adv-x="539" 
d="M216 565v135h140v-135h-140zM374 175h130q-7 -92 -66 -138.5t-159 -46.5q-104 0 -172 71t-68 189t68 189t172 71q100 0 159 -46.5t66 -138.5h-130q-13 80 -92 80h-6q-53 0 -80 -43.5t-27 -111.5t27 -111.5t80 -43.5h6q79 0 92 80z" />
    <glyph glyph-name="Ccaron" unicode="&#x10c;" horiz-adv-x="711" 
d="M459 745h-140l-120 145h110l80 -58l80 58h110zM538 230h135q-8 -107 -84 -173.5t-210 -66.5q-159 0 -247 98t-88 262t88 262t247 98q133 0 209.5 -68t84.5 -172h-135q-12 58 -51.5 89t-102.5 31h-10q-88 0 -141.5 -64.5t-53.5 -175.5t53.5 -175.5t141.5 -64.5h10
q129 0 154 120z" />
    <glyph glyph-name="ccaron" unicode="&#x10d;" horiz-adv-x="539" 
d="M202 550l-100 150h80l100 -72l100 72h80l-100 -150h-160zM374 175h130q-7 -92 -66 -138.5t-159 -46.5q-104 0 -172 71t-68 189t68 189t172 71q100 0 159 -46.5t66 -138.5h-130q-13 80 -92 80h-6q-53 0 -80 -43.5t-27 -111.5t27 -111.5t80 -43.5h6q79 0 92 80z" />
    <glyph glyph-name="Dcaron" unicode="&#x10e;" horiz-adv-x="721" 
d="M399 745h-140l-120 145h110l80 -58l80 58h110zM82 0v700h240q162 0 258.5 -91t96.5 -259q0 -169 -94.5 -259.5t-255.5 -90.5h-245zM217 120h95q109 0 169.5 53t60.5 177t-60.5 177t-169.5 53h-95v-460z" />
    <glyph glyph-name="dcaron" unicode="&#x10f;" horiz-adv-x="693" 
d="M602 455h-28v75h23q54 0 54 40h-52v130h130v-130q0 -50 -35.5 -82.5t-91.5 -32.5zM282 95h8q47 0 80.5 43t33.5 112t-33.5 112t-80.5 43h-8q-50 0 -82 -42t-32 -112t32 -113t82 -43zM260 -10q-104 0 -163 76t-59 184t59 184t163 76q49 0 88 -23t56 -52v265h130v-700h-130
v65q-17 -29 -56 -52t-88 -23z" />
    <glyph glyph-name="Dcroat" unicode="&#x110;" horiz-adv-x="752" 
d="M358 0h-245v290h-100v120h100v290h240q162 0 258.5 -91t96.5 -259q0 -169 -94.5 -259.5t-255.5 -90.5zM248 120h95q109 0 169.5 53t60.5 177t-60.5 177t-169.5 53h-95v-170h125v-120h-125v-170z" />
    <glyph glyph-name="dcroat" unicode="&#x111;" horiz-adv-x="602" 
d="M283 95h8q47 0 80.5 43t33.5 112t-33.5 112t-80.5 43h-8q-50 0 -82 -42t-32 -112t32 -113t82 -43zM405 65q-17 -29 -56 -52t-88 -23q-104 0 -163 76t-59 184t59 184t163 76q49 0 88 -23t56 -52v120h-120v90h120v55h130v-55h75v-90h-75v-555h-130v65z" />
    <glyph glyph-name="Emacron" unicode="&#x112;" horiz-adv-x="661" 
d="M517 765h-335v110h335v-110zM82 0v700h530v-120h-395v-161h335v-120h-335v-179h405v-120h-540z" />
    <glyph glyph-name="emacron" unicode="&#x113;" horiz-adv-x="541" 
d="M126 565v105h305v-105h-305zM503 158q-19 -76 -77 -122t-149 -46q-99 0 -168.5 70.5t-69.5 189.5q0 115 64 187.5t174 72.5q109 0 168.5 -70.5t59.5 -183.5q0 -15 -2 -47h-338q4 -50 37.5 -82t76.5 -32h6q36 0 59 18t30 45h129zM269 405q-43 0 -72.5 -26t-31.5 -70h214
q-2 44 -31.5 70t-72.5 26h-6z" />
    <glyph glyph-name="Ebreve" unicode="&#x114;" horiz-adv-x="661" 
d="M291 890q3 -27 19.5 -41t40.5 -14t40.5 14t19.5 41h110q-1 -68 -48.5 -109t-121.5 -41t-121.5 41t-48.5 109h110zM82 0v700h530v-120h-395v-161h335v-120h-335v-179h405v-120h-540z" />
    <glyph glyph-name="ebreve" unicode="&#x115;" horiz-adv-x="541" 
d="M272 635q27 0 42.5 17.5t17.5 47.5h110q-1 -72 -48.5 -116t-121.5 -44t-121.5 44t-48.5 116h110q2 -30 17.5 -47.5t42.5 -17.5zM503 158q-19 -76 -77 -122t-149 -46q-99 0 -168.5 70.5t-69.5 189.5q0 115 64 187.5t174 72.5q109 0 168.5 -70.5t59.5 -183.5q0 -15 -2 -47
h-338q4 -50 37.5 -82t76.5 -32h6q36 0 59 18t30 45h129zM269 405q-43 0 -72.5 -26t-31.5 -70h214q-2 44 -31.5 70t-72.5 26h-6z" />
    <glyph glyph-name="Edotaccent" unicode="&#x116;" horiz-adv-x="661" 
d="M285 765v135h140v-135h-140zM82 0v700h530v-120h-395v-161h335v-120h-335v-179h405v-120h-540z" />
    <glyph glyph-name="edotaccent" unicode="&#x117;" horiz-adv-x="541" 
d="M205 565v135h140v-135h-140zM503 158q-19 -76 -77 -122t-149 -46q-99 0 -168.5 70.5t-69.5 189.5q0 115 64 187.5t174 72.5q109 0 168.5 -70.5t59.5 -183.5q0 -15 -2 -47h-338q4 -50 37.5 -82t76.5 -32h6q36 0 59 18t30 45h129zM269 405q-43 0 -72.5 -26t-31.5 -70h214
q-2 44 -31.5 70t-72.5 26h-6z" />
    <glyph glyph-name="Eogonek" unicode="&#x118;" horiz-adv-x="661" 
d="M622 -140v-80h-50q-52 0 -86 28t-34 72q0 74 76 120h-446v700h530v-120h-395v-161h335v-120h-335v-179h405v-120q-80 -46 -80 -90q0 -25 14.5 -37.5t35.5 -12.5h30z" />
    <glyph glyph-name="eogonek" unicode="&#x119;" horiz-adv-x="541" 
d="M353 -220h-50q-52 0 -86 28t-34 72q0 67 64 112q-89 11 -148.5 79.5t-59.5 178.5q0 115 64 187.5t174 72.5q109 0 168.5 -70.5t59.5 -183.5q0 -15 -2 -47h-338q4 -50 37.5 -82t76.5 -32h6q36 0 59 18t30 45h129q-15 -59 -53 -100.5t-97 -57.5q-80 -46 -80 -90
q0 -25 14.5 -37.5t35.5 -12.5h30v-80zM269 405q-43 0 -72.5 -26t-31.5 -70h214q-2 44 -31.5 70t-72.5 26h-6z" />
    <glyph glyph-name="Ecaron" unicode="&#x11a;" horiz-adv-x="661" 
d="M419 745h-140l-120 145h110l80 -58l80 58h110zM82 0v700h530v-120h-395v-161h335v-120h-335v-179h405v-120h-540z" />
    <glyph glyph-name="ecaron" unicode="&#x11b;" horiz-adv-x="541" 
d="M194 550l-100 150h80l100 -72l100 72h80l-100 -150h-160zM503 158q-19 -76 -77 -122t-149 -46q-99 0 -168.5 70.5t-69.5 189.5q0 115 64 187.5t174 72.5q109 0 168.5 -70.5t59.5 -183.5q0 -15 -2 -47h-338q4 -50 37.5 -82t76.5 -32h6q36 0 59 18t30 45h129zM269 405
q-43 0 -72.5 -26t-31.5 -70h214q-2 44 -31.5 70t-72.5 26h-6z" />
    <glyph glyph-name="Gcircumflex" unicode="&#x11c;" horiz-adv-x="745" 
d="M300 745h-110l120 145h140l120 -145h-110l-80 58zM577 0v68q-73 -78 -190 -78q-155 0 -250 102t-95 258t95 258t250 102q132 0 212 -69.5t88 -180.5h-135q-8 59 -48 94.5t-112 35.5h-10q-96 0 -150.5 -65t-54.5 -175t54.5 -175t150.5 -65h10q68 0 119.5 36t67.5 99h-192
v120h220q85 0 85 -85v-280h-115z" />
    <glyph glyph-name="gcircumflex" unicode="&#x11d;" horiz-adv-x="593" 
d="M392 550l-100 72l-100 -72h-80l100 150h160l100 -150h-80zM281 105h8q46 0 76.5 40.5t30.5 109.5t-30.5 109.5t-76.5 40.5h-8q-49 0 -80.5 -40.5t-31.5 -109.5t31.5 -109.5t80.5 -40.5zM267 -219q-100 0 -166 45.5t-70 118.5h130q5 -27 34 -43t78 -16h6q51 0 84 30.5
t33 88.5v65q-42 -70 -141 -70q-91 0 -153.5 68t-62.5 187t62.5 187t153.5 68q99 0 141 -70v60h130v-511q0 -85 -68 -146.5t-191 -61.5z" />
    <glyph glyph-name="Gbreve" unicode="&#x11e;" horiz-adv-x="745" 
d="M320 890q3 -27 19.5 -41t40.5 -14t40.5 14t19.5 41h110q-1 -68 -48.5 -109t-121.5 -41t-121.5 41t-48.5 109h110zM577 0v68q-73 -78 -190 -78q-155 0 -250 102t-95 258t95 258t250 102q132 0 212 -69.5t88 -180.5h-135q-8 59 -48 94.5t-112 35.5h-10q-96 0 -150.5 -65
t-54.5 -175t54.5 -175t150.5 -65h10q68 0 119.5 36t67.5 99h-192v120h220q85 0 85 -85v-280h-115z" />
    <glyph glyph-name="gbreve" unicode="&#x11f;" horiz-adv-x="593" 
d="M284 635q27 0 42.5 17.5t17.5 47.5h110q-1 -72 -48.5 -116t-121.5 -44t-121.5 44t-48.5 116h110q2 -30 17.5 -47.5t42.5 -17.5zM281 105h8q46 0 76.5 40.5t30.5 109.5t-30.5 109.5t-76.5 40.5h-8q-49 0 -80.5 -40.5t-31.5 -109.5t31.5 -109.5t80.5 -40.5zM267 -219
q-100 0 -166 45.5t-70 118.5h130q5 -27 34 -43t78 -16h6q51 0 84 30.5t33 88.5v65q-42 -70 -141 -70q-91 0 -153.5 68t-62.5 187t62.5 187t153.5 68q99 0 141 -70v60h130v-511q0 -85 -68 -146.5t-191 -61.5z" />
    <glyph glyph-name="Gdotaccent" unicode="&#x120;" horiz-adv-x="745" 
d="M324 765v135h140v-135h-140zM577 0v68q-73 -78 -190 -78q-155 0 -250 102t-95 258t95 258t250 102q132 0 212 -69.5t88 -180.5h-135q-8 59 -48 94.5t-112 35.5h-10q-96 0 -150.5 -65t-54.5 -175t54.5 -175t150.5 -65h10q68 0 119.5 36t67.5 99h-192v120h220q85 0 85 -85
v-280h-115z" />
    <glyph glyph-name="gdotaccent" unicode="&#x121;" horiz-adv-x="593" 
d="M223 565v135h140v-135h-140zM281 105h8q46 0 76.5 40.5t30.5 109.5t-30.5 109.5t-76.5 40.5h-8q-49 0 -80.5 -40.5t-31.5 -109.5t31.5 -109.5t80.5 -40.5zM267 -219q-100 0 -166 45.5t-70 118.5h130q5 -27 34 -43t78 -16h6q51 0 84 30.5t33 88.5v65q-42 -70 -141 -70
q-91 0 -153.5 68t-62.5 187t62.5 187t153.5 68q99 0 141 -70v60h130v-511q0 -85 -68 -146.5t-191 -61.5z" />
    <glyph glyph-name="Gcommaaccent" unicode="&#x122;" horiz-adv-x="745" 
d="M577 0v68q-73 -78 -190 -78q-155 0 -250 102t-95 258t95 258t250 102q132 0 212 -69.5t88 -180.5h-135q-8 59 -48 94.5t-112 35.5h-10q-96 0 -150.5 -65t-54.5 -175t54.5 -175t150.5 -65h10q68 0 119.5 36t67.5 99h-192v120h220q85 0 85 -85v-280h-115zM313 -310h-28v75
h23q54 0 54 40h-52v130h130v-130q0 -50 -35.5 -82.5t-91.5 -32.5z" />
    <glyph glyph-name="gcommaaccent" unicode="&#x123;" horiz-adv-x="593" 
d="M355 815h28v-75h-23q-54 0 -54 -40h52v-130h-130v130q0 50 35.5 82.5t91.5 32.5zM281 105h8q46 0 76.5 40.5t30.5 109.5t-30.5 109.5t-76.5 40.5h-8q-49 0 -80.5 -40.5t-31.5 -109.5t31.5 -109.5t80.5 -40.5zM267 -219q-100 0 -166 45.5t-70 118.5h130q5 -27 34 -43
t78 -16h6q51 0 84 30.5t33 88.5v65q-42 -70 -141 -70q-91 0 -153.5 68t-62.5 187t62.5 187t153.5 68q99 0 141 -70v60h130v-511q0 -85 -68 -146.5t-191 -61.5z" />
    <glyph glyph-name="Hcircumflex" unicode="&#x124;" horiz-adv-x="739" 
d="M289 745h-110l120 145h140l120 -145h-110l-80 58zM82 0v700h135v-290h305v290h135v-700h-135v290h-305v-290h-135z" />
    <glyph glyph-name="hcircumflex" unicode="&#x125;" horiz-adv-x="584" 
d="M52 745h-110l120 145h140l120 -145h-110l-80 58zM197 278v-278h-130v700h130v-273q23 38 63 60.5t88 22.5q87 0 130.5 -51.5t43.5 -138.5v-320h-130v305q0 48 -20.5 74t-58.5 26h-8q-45 0 -76.5 -37t-31.5 -90z" />
    <glyph glyph-name="Hbar" unicode="&#x126;" horiz-adv-x="747" 
d="M221 410h305v82h-305v-82zM221 290v-290h-135v492h-60v115h60v93h135v-93h305v93h135v-93h60v-115h-60v-492h-135v290h-305z" />
    <glyph glyph-name="hbar" unicode="&#x127;" horiz-adv-x="584" 
d="M197 278v-278h-130v555h-70v90h70v55h130v-55h125v-90h-125v-128q23 38 63 60.5t88 22.5q87 0 130.5 -51.5t43.5 -138.5v-320h-130v305q0 48 -20.5 74t-58.5 26h-8q-45 0 -76.5 -37t-31.5 -90z" />
    <glyph glyph-name="Itilde" unicode="&#x128;" horiz-adv-x="299" 
d="M214 850q30 0 30 40h95v-26q0 -50 -27.5 -82t-82.5 -32q-35 0 -80 24l-18 10q-28 16 -45 16q-15 1 -23 -10.5t-8 -29.5h-95v26q0 47 32.5 80.5t79.5 33.5q37 0 75 -20l18 -10q40 -20 49 -20zM82 0v700h135v-700h-135z" />
    <glyph glyph-name="itilde" unicode="&#x129;" horiz-adv-x="264" 
d="M198 655q13 0 21.5 11.5t8.5 28.5h95v-26q0 -46 -33 -80t-77 -34q-35 0 -80 24l-18 10q-28 16 -42 16q-13 0 -23.5 -11.5t-10.5 -28.5h-95v26q0 47 32.5 80.5t79.5 33.5q37 0 75 -20l18 -10q40 -20 49 -20zM67 0v500h130v-500h-130z" />
    <glyph glyph-name="Imacron" unicode="&#x12a;" horiz-adv-x="299" 
d="M317 765h-335v110h335v-110zM82 0v700h135v-700h-135z" />
    <glyph glyph-name="imacron" unicode="&#x12b;" horiz-adv-x="264" 
d="M-20 565v105h305v-105h-305zM67 0v500h130v-500h-130z" />
    <glyph glyph-name="Ibreve" unicode="&#x12c;" horiz-adv-x="299" 
d="M90 890q3 -27 19.5 -41t40.5 -14t40.5 14t19.5 41h110q-1 -68 -48.5 -109t-121.5 -41t-121.5 41t-48.5 109h110zM82 0v700h135v-700h-135z" />
    <glyph glyph-name="ibreve" unicode="&#x12d;" horiz-adv-x="264" 
d="M133 635q27 0 42.5 17.5t17.5 47.5h110q-1 -72 -48.5 -116t-121.5 -44t-121.5 44t-48.5 116h110q2 -30 17.5 -47.5t42.5 -17.5zM67 0v500h130v-500h-130z" />
    <glyph glyph-name="Iogonek" unicode="&#x12e;" horiz-adv-x="299" 
d="M217 -140v-80h-50q-52 0 -86 28t-34 72q0 74 76 120h-41v700h135v-700q-80 -46 -80 -90q0 -25 14.5 -37.5t35.5 -12.5h30z" />
    <glyph glyph-name="iogonek" unicode="&#x12f;" horiz-adv-x="264" 
d="M62 565v135h140v-135h-140zM197 -140v-80h-50q-52 0 -86 28t-34 72q0 74 76 120h-36v500h130v-500q-80 -46 -80 -90q0 -25 14.5 -37.5t35.5 -12.5h30z" />
    <glyph glyph-name="Idotaccent" unicode="&#x130;" horiz-adv-x="299" 
d="M79 765v135h140v-135h-140zM82 0v700h135v-700h-135z" />
    <glyph glyph-name="dotlessi" unicode="&#x131;" horiz-adv-x="264" 
d="M67 0v500h130v-500h-130z" />
    <glyph glyph-name="IJ" unicode="&#x132;" horiz-adv-x="546" 
d="M264 0h-190v130h175q48 0 66.5 21.5t18.5 73.5v475h135v-490q0 -109 -48.5 -159.5t-156.5 -50.5zM74 206v494h135v-494h-135z" />
    <glyph glyph-name="ij" unicode="&#x133;" horiz-adv-x="507" 
d="M304 565v135h140v-135h-140zM62 565v135h140v-135h-140zM67 0v500h130v-500h-130zM67 -200v110h188q30 0 42.5 12.5t12.5 42.5v535h130v-575q0 -60 -32.5 -92.5t-92.5 -32.5h-248z" />
    <glyph glyph-name="Jcircumflex" unicode="&#x134;" horiz-adv-x="429" 
d="M203 745h-110l120 145h140l120 -145h-110l-80 58zM211 0h-183v130h128q34 0 47 13t13 47v510h135v-560q0 -64 -38 -102t-102 -38z" />
    <glyph glyph-name="jcircumflex" unicode="&#x135;" horiz-adv-x="272" 
d="M238 550l-100 72l-100 -72h-80l100 150h160l100 -150h-80zM205 500v-575q0 -60 -32.5 -92.5t-92.5 -32.5h-162v110h102q30 0 42.5 12.5t12.5 42.5v535h130z" />
    <glyph glyph-name="Kcommaaccent" unicode="&#x136;" horiz-adv-x="686" 
d="M520 0l-211 308l-92 -97v-211h-135v700h135v-314l297 314h167l-275 -290l281 -410h-167zM289 -310h-28v75h23q54 0 54 40h-52v130h130v-130q0 -50 -35.5 -82.5t-91.5 -32.5z" />
    <glyph glyph-name="kcommaaccent" unicode="&#x137;" horiz-adv-x="551" 
d="M394 0l-139 208l-58 -59v-149h-130v700h130v-386l181 186h159l-192 -199l202 -301h-153zM225 -310h-28v75h23q54 0 54 40h-52v130h130v-130q0 -50 -35.5 -82.5t-91.5 -32.5z" />
    <glyph glyph-name="Lacute" unicode="&#x139;" horiz-adv-x="630" 
d="M188 745h-90l40 145h155zM82 0v700h135v-580h395v-120h-530z" />
    <glyph glyph-name="lacute" unicode="&#x13a;" horiz-adv-x="264" 
d="M177 745h-90l40 145h155zM67 0v700h130v-700h-130z" />
    <glyph glyph-name="Lcommaaccent" unicode="&#x13b;" horiz-adv-x="630" 
d="M82 0v700h135v-580h395v-120h-530zM271 -310h-28v75h23q54 0 54 40h-52v130h130v-130q0 -50 -35.5 -82.5t-91.5 -32.5z" />
    <glyph glyph-name="lcommaaccent" unicode="&#x13c;" horiz-adv-x="264" 
d="M67 0v700h130v-700h-130zM69 -310h-28v75h23q54 0 54 40h-52v130h130v-130q0 -50 -35.5 -82.5t-91.5 -32.5z" />
    <glyph glyph-name="Lcaron" unicode="&#x13d;" horiz-adv-x="630" 
d="M355 455h-28v75h23q54 0 54 40h-52v130h130v-130q0 -50 -35.5 -82.5t-91.5 -32.5zM82 0v700h135v-580h395v-120h-530z" />
    <glyph glyph-name="lcaron" unicode="&#x13e;" horiz-adv-x="356" 
d="M67 0v700h130v-700h-130zM265 455h-28v75h23q54 0 54 40h-52v130h130v-130q0 -50 -35.5 -82.5t-91.5 -32.5z" />
    <glyph glyph-name="Ldot" unicode="&#x13f;" horiz-adv-x="630" 
d="M82 0v700h135v-580h395v-120h-530zM377 305v135h140v-135h-140z" />
    <glyph glyph-name="ldot" unicode="&#x140;" horiz-adv-x="410" 
d="M67 0v700h130v-700h-130zM262 270v135h140v-135h-140z" />
    <glyph glyph-name="Lslash" unicode="&#x141;" horiz-adv-x="680" 
d="M662 0h-530v235l-95 -53v135l95 53v330h135v-254l170 95v-134l-170 -96v-191h395v-120z" />
    <glyph glyph-name="lslash" unicode="&#x142;" horiz-adv-x="333" 
d="M234 0h-130v303l-80 -45v120l80 45v277h130v-203l80 45v-120l-80 -45v-377z" />
    <glyph glyph-name="Nacute" unicode="&#x143;" horiz-adv-x="749" 
d="M406 745h-90l40 145h155zM492 0l-275 515v-515h-135v700h175l275 -513v513h135v-700h-175z" />
    <glyph glyph-name="nacute" unicode="&#x144;" horiz-adv-x="584" 
d="M242 550l25 150h150l-100 -150h-75zM197 278v-278h-130v500h130v-73q23 38 63 60.5t88 22.5q87 0 130.5 -51.5t43.5 -138.5v-320h-130v305q0 48 -20.5 74t-58.5 26h-8q-45 0 -76.5 -37t-31.5 -90z" />
    <glyph glyph-name="Ncommaaccent" unicode="&#x145;" horiz-adv-x="749" 
d="M492 0l-275 515v-515h-135v700h175l275 -513v513h135v-700h-175zM314 -310h-28v75h23q54 0 54 40h-52v130h130v-130q0 -50 -35.5 -82.5t-91.5 -32.5z" />
    <glyph glyph-name="ncommaaccent" unicode="&#x146;" horiz-adv-x="584" 
d="M197 278v-278h-130v500h130v-73q23 38 63 60.5t88 22.5q87 0 130.5 -51.5t43.5 -138.5v-320h-130v305q0 48 -20.5 74t-58.5 26h-8q-45 0 -76.5 -37t-31.5 -90zM230 -310h-28v75h23q54 0 54 40h-52v130h130v-130q0 -50 -35.5 -82.5t-91.5 -32.5z" />
    <glyph glyph-name="Ncaron" unicode="&#x147;" horiz-adv-x="749" 
d="M439 745h-140l-120 145h110l80 -58l80 58h110zM492 0l-275 515v-515h-135v700h175l275 -513v513h135v-700h-175z" />
    <glyph glyph-name="ncaron" unicode="&#x148;" horiz-adv-x="584" 
d="M213 550l-100 150h80l100 -72l100 72h80l-100 -150h-160zM197 278v-278h-130v500h130v-73q23 38 63 60.5t88 22.5q87 0 130.5 -51.5t43.5 -138.5v-320h-130v305q0 48 -20.5 74t-58.5 26h-8q-45 0 -76.5 -37t-31.5 -90z" />
    <glyph glyph-name="Eng" unicode="&#x14a;" horiz-adv-x="749" 
d="M667 -70q0 -60 -35 -95t-95 -35h-120v110h60q30 0 42.5 12.5t12.5 42.5v35h-40l-275 515v-515h-135v700h175l275 -513v513h135v-770z" />
    <glyph glyph-name="eng" unicode="&#x14b;" horiz-adv-x="584" 
d="M522 -77q0 -60 -32.5 -92.5t-92.5 -32.5h-110v112h50q30 0 42.5 12.5t12.5 42.5v340q0 48 -20.5 74t-58.5 26h-8q-45 0 -76.5 -37t-31.5 -90v-278h-130v500h130v-73q23 38 63 60.5t88 22.5q87 0 130.5 -51.5t43.5 -138.5v-397z" />
    <glyph glyph-name="Omacron" unicode="&#x14c;" horiz-adv-x="766" 
d="M551 765h-335v110h335v-110zM383 -10q-152 0 -246 97t-94 263t94 263t246 97t246 -97t94 -263t-94 -263t-246 -97zM378 110h10q94 0 147 64t53 176t-53 176t-147 64h-10q-94 0 -147 -64t-53 -176t53 -176t147 -64z" />
    <glyph glyph-name="omacron" unicode="&#x14d;" horiz-adv-x="576" 
d="M136 565v105h305v-105h-305zM288 -10q-111 0 -180.5 73t-69.5 187t69.5 187t180.5 73t180.5 -73t69.5 -187t-69.5 -187t-180.5 -73zM292 95q53 0 84 41t31 114t-31 114t-84 41h-8q-53 0 -84 -41t-31 -114t31 -114t84 -41h8z" />
    <glyph glyph-name="Obreve" unicode="&#x14e;" horiz-adv-x="766" 
d="M323 890q3 -27 19.5 -41t40.5 -14t40.5 14t19.5 41h110q-1 -68 -48.5 -109t-121.5 -41t-121.5 41t-48.5 109h110zM383 -10q-152 0 -246 97t-94 263t94 263t246 97t246 -97t94 -263t-94 -263t-246 -97zM378 110h10q94 0 147 64t53 176t-53 176t-147 64h-10q-94 0 -147 -64
t-53 -176t53 -176t147 -64z" />
    <glyph glyph-name="obreve" unicode="&#x14f;" horiz-adv-x="576" 
d="M289 635q27 0 42.5 17.5t17.5 47.5h110q-1 -72 -48.5 -116t-121.5 -44t-121.5 44t-48.5 116h110q2 -30 17.5 -47.5t42.5 -17.5zM288 -10q-111 0 -180.5 73t-69.5 187t69.5 187t180.5 73t180.5 -73t69.5 -187t-69.5 -187t-180.5 -73zM292 95q53 0 84 41t31 114t-31 114
t-84 41h-8q-53 0 -84 -41t-31 -114t31 -114t84 -41h8z" />
    <glyph glyph-name="Ohungarumlaut" unicode="&#x150;" horiz-adv-x="766" 
d="M513 745h-90l40 145h155zM324 745h-90l40 145h155zM383 -10q-152 0 -246 97t-94 263t94 263t246 97t246 -97t94 -263t-94 -263t-246 -97zM378 110h10q94 0 147 64t53 176t-53 176t-147 64h-10q-94 0 -147 -64t-53 -176t53 -176t147 -64z" />
    <glyph glyph-name="ohungarumlaut" unicode="&#x151;" horiz-adv-x="576" 
d="M328 550l25 150h150l-100 -150h-75zM169 550l25 150h150l-100 -150h-75zM288 -10q-111 0 -180.5 73t-69.5 187t69.5 187t180.5 73t180.5 -73t69.5 -187t-69.5 -187t-180.5 -73zM292 95q53 0 84 41t31 114t-31 114t-84 41h-8q-53 0 -84 -41t-31 -114t31 -114t84 -41h8z
" />
    <glyph glyph-name="OE" unicode="&#x152;" horiz-adv-x="1167" 
d="M378 110h10q94 0 147 64t53 176t-53 176t-147 64h-10q-94 0 -147 -64t-53 -176t53 -176t147 -64zM588 0v70q-82 -80 -205 -80q-152 0 -246 97t-94 263t94 263t246 97q123 0 205 -80v70h530v-120h-395v-161h335v-120h-335v-179h405v-120h-540z" />
    <glyph glyph-name="oe" unicode="&#x153;" horiz-adv-x="911" 
d="M647 -10q-106 0 -174 77q-71 -77 -185 -77q-111 0 -180.5 73t-69.5 187t69.5 187t180.5 73q113 0 183 -75q64 75 176 75q109 0 168.5 -70.5t59.5 -183.5q0 -15 -2 -47h-338v-2q4 -49 38 -80.5t76 -31.5h6q36 0 59 18t30 45h129q-19 -76 -77 -122t-149 -46zM292 95
q53 0 84 41t31 114t-31 114t-84 41h-8q-53 0 -84 -41t-31 -114t31 -114t84 -41h8zM639 405q-43 0 -72.5 -26t-31.5 -70h214q-2 44 -31.5 70t-72.5 26h-6z" />
    <glyph glyph-name="Racute" unicode="&#x154;" horiz-adv-x="682" 
d="M379 745h-90l40 145h155zM217 383h150q120 0 120 101q0 96 -120 96h-150v-197zM82 0v700h325q91 0 153 -54t62 -136q0 -132 -119 -177q109 0 109 -99v-234h-135v200q0 38 -13.5 51.5t-51.5 13.5h-195v-265h-135z" />
    <glyph glyph-name="racute" unicode="&#x155;" horiz-adv-x="387" 
d="M147 550l25 150h150l-100 -150h-75zM67 0v500h130v-100q15 50 52.5 77.5t92.5 27.5h25v-120h-45q-125 0 -125 -125v-260h-130z" />
    <glyph glyph-name="Rcommaaccent" unicode="&#x156;" horiz-adv-x="682" 
d="M217 383h150q120 0 120 101q0 96 -120 96h-150v-197zM82 0v700h325q91 0 153 -54t62 -136q0 -132 -119 -177q109 0 109 -99v-234h-135v200q0 38 -13.5 51.5t-51.5 13.5h-195v-265h-135zM279 -310h-28v75h23q54 0 54 40h-52v130h130v-130q0 -50 -35.5 -82.5t-91.5 -32.5z
" />
    <glyph glyph-name="rcommaaccent" unicode="&#x157;" horiz-adv-x="387" 
d="M67 0v500h130v-100q15 50 52.5 77.5t92.5 27.5h25v-120h-45q-125 0 -125 -125v-260h-130zM70 -310h-28v75h23q54 0 54 40h-52v130h130v-130q0 -50 -35.5 -82.5t-91.5 -32.5z" />
    <glyph glyph-name="Rcaron" unicode="&#x158;" horiz-adv-x="682" 
d="M412 745h-140l-120 145h110l80 -58l80 58h110zM217 383h150q120 0 120 101q0 96 -120 96h-150v-197zM82 0v700h325q91 0 153 -54t62 -136q0 -132 -119 -177q109 0 109 -99v-234h-135v200q0 38 -13.5 51.5t-51.5 13.5h-195v-265h-135z" />
    <glyph glyph-name="rcaron" unicode="&#x159;" horiz-adv-x="387" 
d="M113 550l-100 150h80l100 -72l100 72h80l-100 -150h-160zM67 0v500h130v-100q15 50 52.5 77.5t92.5 27.5h25v-120h-45q-125 0 -125 -125v-260h-130z" />
    <glyph glyph-name="Sacute" unicode="&#x15a;" horiz-adv-x="634" 
d="M376 745h-90l40 145h155zM459 480q-4 53 -39 81.5t-91 28.5h-10q-54 0 -87 -25t-33 -60q0 -34 19.5 -52t65.5 -27l105 -21q194 -39 194 -200q0 -93 -71.5 -154t-197.5 -61q-139 0 -210 65.5t-75 179.5h135q4 -56 44.5 -90.5t115.5 -34.5h10q54 0 84 24.5t30 60.5
q0 32 -17 50t-62 27l-125 26q-180 37 -180 202q0 85 71.5 147.5t193.5 62.5q125 0 195 -64t70 -166h-135z" />
    <glyph glyph-name="sacute" unicode="&#x15b;" horiz-adv-x="497" 
d="M207 550l25 150h150l-100 -150h-75zM248 -10q-101 0 -158.5 46.5t-57.5 128.5h133q0 -34 23 -54.5t61 -20.5h8q30 0 48 13.5t18 35.5q0 37 -51 50l-65 16q-80 20 -117.5 55.5t-37.5 95.5q0 68 54.5 111t147.5 43q97 0 150.5 -46t53.5 -129h-130q-8 75 -75 75h-8
q-27 0 -45 -13.5t-18 -35.5q0 -35 64 -51l67 -17q72 -18 106 -54t34 -95q0 -67 -54 -110.5t-151 -43.5z" />
    <glyph glyph-name="Scircumflex" unicode="&#x15c;" horiz-adv-x="634" 
d="M254 750h-110l120 145h140l120 -145h-110l-80 58zM459 480q-4 53 -39 81.5t-91 28.5h-10q-54 0 -87 -25t-33 -60q0 -34 19.5 -52t65.5 -27l105 -21q194 -39 194 -200q0 -93 -71.5 -154t-197.5 -61q-139 0 -210 65.5t-75 179.5h135q4 -56 44.5 -90.5t115.5 -34.5h10
q54 0 84 24.5t30 60.5q0 32 -17 50t-62 27l-125 26q-180 37 -180 202q0 85 71.5 147.5t193.5 62.5q125 0 195 -64t70 -166h-135z" />
    <glyph glyph-name="scircumflex" unicode="&#x15d;" horiz-adv-x="497" 
d="M350 550l-100 72l-100 -72h-80l100 150h160l100 -150h-80zM248 -10q-101 0 -158.5 46.5t-57.5 128.5h133q0 -34 23 -54.5t61 -20.5h8q30 0 48 13.5t18 35.5q0 37 -51 50l-65 16q-80 20 -117.5 55.5t-37.5 95.5q0 68 54.5 111t147.5 43q97 0 150.5 -46t53.5 -129h-130
q-8 75 -75 75h-8q-27 0 -45 -13.5t-18 -35.5q0 -35 64 -51l67 -17q72 -18 106 -54t34 -95q0 -67 -54 -110.5t-151 -43.5z" />
    <glyph glyph-name="Scedilla" unicode="&#x15e;" horiz-adv-x="634" 
d="M324 -245h-80v75h85q40 0 40 30q0 12 -8.5 21t-26.5 9h-55v101q-122 9 -184 73.5t-66 170.5h135q4 -56 44.5 -90.5t115.5 -34.5h10q54 0 84 24.5t30 60.5q0 32 -17 50t-62 27l-125 26q-180 37 -180 202q0 85 71.5 147.5t193.5 62.5q125 0 195 -64t70 -166h-135
q-4 53 -39 81.5t-91 28.5h-10q-54 0 -87 -25t-33 -60q0 -34 19.5 -52t65.5 -27l105 -21q194 -39 194 -200q0 -87 -62 -146t-172 -68v-36q40 0 67.5 -24.5t27.5 -70.5q0 -48 -33.5 -76.5t-86.5 -28.5z" />
    <glyph glyph-name="scedilla" unicode="&#x15f;" horiz-adv-x="497" 
d="M251 -245h-80v75h85q40 0 40 30q0 12 -9 21t-26 9h-55v102q-83 10 -128.5 55t-45.5 118h133q0 -34 23 -54.5t61 -20.5h8q30 0 48 13.5t18 35.5q0 37 -51 50l-65 16q-80 20 -117.5 55.5t-37.5 95.5q0 68 54.5 111t147.5 43q97 0 150.5 -46t53.5 -129h-130q-8 75 -75 75h-8
q-27 0 -45 -13.5t-18 -35.5q0 -35 64 -51l67 -17q72 -18 106 -54t34 -95q0 -62 -46 -104t-131 -49v-36q40 0 67.5 -24.5t27.5 -70.5q0 -48 -33.5 -76.5t-86.5 -28.5z" />
    <glyph glyph-name="Scaron" unicode="&#x160;" horiz-adv-x="634" 
d="M401 745h-140l-120 145h110l80 -58l80 58h110zM459 480q-4 53 -39 81.5t-91 28.5h-10q-54 0 -87 -25t-33 -60q0 -34 19.5 -52t65.5 -27l105 -21q194 -39 194 -200q0 -93 -71.5 -154t-197.5 -61q-139 0 -210 65.5t-75 179.5h135q4 -56 44.5 -90.5t115.5 -34.5h10
q54 0 84 24.5t30 60.5q0 32 -17 50t-62 27l-125 26q-180 37 -180 202q0 85 71.5 147.5t193.5 62.5q125 0 195 -64t70 -166h-135z" />
    <glyph glyph-name="scaron" unicode="&#x161;" horiz-adv-x="497" 
d="M173 550l-100 150h80l100 -72l100 72h80l-100 -150h-160zM248 -10q-101 0 -158.5 46.5t-57.5 128.5h133q0 -34 23 -54.5t61 -20.5h8q30 0 48 13.5t18 35.5q0 37 -51 50l-65 16q-80 20 -117.5 55.5t-37.5 95.5q0 68 54.5 111t147.5 43q97 0 150.5 -46t53.5 -129h-130
q-8 75 -75 75h-8q-27 0 -45 -13.5t-18 -35.5q0 -35 64 -51l67 -17q72 -18 106 -54t34 -95q0 -67 -54 -110.5t-151 -43.5z" />
    <glyph glyph-name="uni0162" unicode="&#x162;" horiz-adv-x="656" 
d="M425 -140q0 -48 -33.5 -76.5t-86.5 -28.5h-80v75h85q40 0 40 30q0 12 -9 21t-26 9h-55v690h-242v120h620v-120h-243v-580h-65v-45q40 0 67.5 -24.5t27.5 -70.5z" />
    <glyph glyph-name="uni0163" unicode="&#x163;" horiz-adv-x="407" 
d="M345 -140q0 -48 -33.5 -76.5t-86.5 -28.5h-80v75h85q40 0 40 30q0 12 -9 21t-26 9h-55v124q-60 29 -60 116v265h-103v105h103v162h130v-162h112v-105h-112v-230q0 -34 10.5 -44.5t44.5 -10.5h72v-110h-127v-45q40 0 67.5 -24.5t27.5 -70.5z" />
    <glyph glyph-name="Tcaron" unicode="&#x164;" horiz-adv-x="656" 
d="M397 745h-140l-120 145h110l80 -58l80 58h110zM260 0v580h-242v120h620v-120h-243v-580h-135z" />
    <glyph glyph-name="tcaron" unicode="&#x165;" horiz-adv-x="515" 
d="M430 455h-28v75h23q54 0 54 40h-52v130h130v-130q0 -50 -35.5 -82.5t-91.5 -32.5zM377 110v-110h-127q-130 0 -130 130v265h-103v105h103v162h130v-162h112v-105h-112v-230q0 -34 10.5 -44.5t44.5 -10.5h72z" />
    <glyph glyph-name="Tbar" unicode="&#x166;" horiz-adv-x="676" 
d="M575 323h-170v-323h-135v323h-170v115h170v142h-242v120h620v-120h-243v-142h170v-115z" />
    <glyph glyph-name="tbar" unicode="&#x167;" horiz-adv-x="415" 
d="M384 110v-110h-127q-130 0 -130 130v85h-103v105h103v75h-103v105h103v162h130v-162h112v-105h-112v-75h112v-105h-112v-50q0 -34 10.5 -44.5t44.5 -10.5h72z" />
    <glyph glyph-name="Utilde" unicode="&#x168;" horiz-adv-x="702" 
d="M416 850q30 0 30 40h95v-26q0 -50 -27.5 -82t-82.5 -32q-35 0 -80 24l-18 10q-28 16 -45 16q-15 1 -23 -10.5t-8 -29.5h-95v26q0 47 32.5 80.5t79.5 33.5q37 0 75 -20l18 -10q40 -20 49 -20zM351 -10q-139 0 -207 66t-68 189v455h135v-435q0 -81 33 -118t102 -37h10
q69 0 102 37t33 118v435h135v-455q0 -123 -68 -189t-207 -66z" />
    <glyph glyph-name="utilde" unicode="&#x169;" horiz-adv-x="575" 
d="M348 655q13 0 21.5 11.5t8.5 28.5h95v-26q0 -46 -33 -80t-77 -34q-35 0 -80 24l-18 10q-28 16 -42 16q-13 0 -23.5 -11.5t-10.5 -28.5h-95v26q0 47 32.5 80.5t79.5 33.5q37 0 75 -20l18 -10q40 -20 49 -20zM378 222v278h130v-500h-130v73q-23 -38 -61.5 -60.5
t-84.5 -22.5q-84 0 -126.5 51.5t-42.5 138.5v320h130v-305q0 -48 19.5 -74t54.5 -26h8q43 0 73 37t30 90z" />
    <glyph glyph-name="Umacron" unicode="&#x16a;" horiz-adv-x="702" 
d="M519 765h-335v110h335v-110zM351 -10q-139 0 -207 66t-68 189v455h135v-435q0 -81 33 -118t102 -37h10q69 0 102 37t33 118v435h135v-455q0 -123 -68 -189t-207 -66z" />
    <glyph glyph-name="umacron" unicode="&#x16b;" horiz-adv-x="575" 
d="M129 565v105h305v-105h-305zM378 222v278h130v-500h-130v73q-23 -38 -61.5 -60.5t-84.5 -22.5q-84 0 -126.5 51.5t-42.5 138.5v320h130v-305q0 -48 19.5 -74t54.5 -26h8q43 0 73 37t30 90z" />
    <glyph glyph-name="Ubreve" unicode="&#x16c;" horiz-adv-x="702" 
d="M291 890q3 -27 19.5 -41t40.5 -14t40.5 14t19.5 41h110q-1 -68 -48.5 -109t-121.5 -41t-121.5 41t-48.5 109h110zM351 -10q-139 0 -207 66t-68 189v455h135v-435q0 -81 33 -118t102 -37h10q69 0 102 37t33 118v435h135v-455q0 -123 -68 -189t-207 -66z" />
    <glyph glyph-name="ubreve" unicode="&#x16d;" horiz-adv-x="575" 
d="M285 635q27 0 42.5 17.5t17.5 47.5h110q-1 -72 -48.5 -116t-121.5 -44t-121.5 44t-48.5 116h110q2 -30 17.5 -47.5t42.5 -17.5zM378 222v278h130v-500h-130v73q-23 -38 -61.5 -60.5t-84.5 -22.5q-84 0 -126.5 51.5t-42.5 138.5v320h130v-305q0 -48 19.5 -74t54.5 -26h8
q43 0 73 37t30 90z" />
    <glyph glyph-name="Uring" unicode="&#x16e;" horiz-adv-x="702" 
d="M461 840q0 -47 -31.5 -78.5t-78.5 -31.5q-44 0 -77 32t-33 78q0 43 33.5 76.5t76.5 33.5q46 0 78 -33t32 -77zM390 840q0 16 -11.5 28t-27.5 12t-28 -12t-12 -28t12 -28t28 -12t27.5 12t11.5 28zM351 -10q-139 0 -207 66t-68 189v455h135v-435q0 -81 33 -118t102 -37h10
q69 0 102 37t33 118v435h135v-455q0 -123 -68 -189t-207 -66z" />
    <glyph glyph-name="uring" unicode="&#x16f;" horiz-adv-x="575" 
d="M285 540q-42 0 -73.5 30.5t-31.5 74.5q0 41 32 73t73 32q44 0 74.5 -31.5t30.5 -73.5q0 -45 -30 -75t-75 -30zM285 689q-18 0 -31 -13t-13 -31t13 -31t31 -13t30.5 13t12.5 31t-12.5 31t-30.5 13zM378 222v278h130v-500h-130v73q-23 -38 -61.5 -60.5t-84.5 -22.5
q-84 0 -126.5 51.5t-42.5 138.5v320h130v-305q0 -48 19.5 -74t54.5 -26h8q43 0 73 37t30 90z" />
    <glyph glyph-name="Uhungarumlaut" unicode="&#x170;" horiz-adv-x="702" 
d="M473 745h-90l40 145h155zM284 745h-90l40 145h155zM351 -10q-139 0 -207 66t-68 189v455h135v-435q0 -81 33 -118t102 -37h10q69 0 102 37t33 118v435h135v-455q0 -123 -68 -189t-207 -66z" />
    <glyph glyph-name="uhungarumlaut" unicode="&#x171;" horiz-adv-x="575" 
d="M319 550l25 150h150l-100 -150h-75zM160 550l25 150h150l-100 -150h-75zM378 222v278h130v-500h-130v73q-23 -38 -61.5 -60.5t-84.5 -22.5q-84 0 -126.5 51.5t-42.5 138.5v320h130v-305q0 -48 19.5 -74t54.5 -26h8q43 0 73 37t30 90z" />
    <glyph glyph-name="Uogonek" unicode="&#x172;" horiz-adv-x="702" 
d="M447 -220h-50q-52 0 -86 28t-34 72q0 65 62 110q-133 3 -198 69t-65 186v455h135v-435q0 -81 33 -118t102 -37h10q69 0 102 37t33 118v435h135v-455q0 -204 -179 -245q-80 -46 -80 -90q0 -25 14.5 -37.5t35.5 -12.5h30v-80z" />
    <glyph glyph-name="uogonek" unicode="&#x173;" horiz-adv-x="575" 
d="M508 -140v-80h-50q-52 0 -86 28t-34 72q0 74 76 120h-36v73q-23 -38 -61.5 -60.5t-84.5 -22.5q-84 0 -126.5 51.5t-42.5 138.5v320h130v-305q0 -48 19.5 -74t54.5 -26h8q43 0 73 37t30 90v278h130v-500q-80 -46 -80 -90q0 -25 14.5 -37.5t35.5 -12.5h30z" />
    <glyph glyph-name="Wcircumflex" unicode="&#x174;" horiz-adv-x="950" 
d="M395 745h-110l120 145h140l120 -145h-110l-80 58zM582 0l-107 510l-108 -510h-175l-172 700h139l125 -555l110 555h165l110 -555l121 555h140l-173 -700h-175z" />
    <glyph glyph-name="wcircumflex" unicode="&#x175;" horiz-adv-x="791" 
d="M496 550l-100 72l-100 -72h-80l100 150h160l100 -150h-80zM484 0l-88 350l-83 -350h-146l-153 500h131l100 -371l81 371h139l87 -368l95 368h126l-143 -500h-146z" />
    <glyph glyph-name="Ycircumflex" unicode="&#x176;" horiz-adv-x="663" 
d="M254 745h-110l120 145h140l120 -145h-110l-80 58zM399 0h-135v280l-260 420h153l179 -294l176 294h148l-261 -420v-280z" />
    <glyph glyph-name="ycircumflex" unicode="&#x177;" horiz-adv-x="572" 
d="M388 550l-100 72l-100 -72h-80l100 150h160l100 -150h-80zM225 -202h-182v112h133q34 0 44.5 10.5t10.5 44.5v73l-218 462h146l135 -304l130 304h144l-213 -457v-115q0 -130 -130 -130z" />
    <glyph glyph-name="Ydieresis" unicode="&#x178;" horiz-adv-x="663" 
d="M495 765h-125v120h125v-120zM300 765h-125v120h125v-120zM399 0h-135v280l-260 420h153l179 -294l176 294h148l-261 -420v-280z" />
    <glyph glyph-name="Zacute" unicode="&#x179;" horiz-adv-x="635" 
d="M345 750h-90l40 145h155zM595 0h-555v115l388 465h-378v120h535v-115l-388 -465h398v-120z" />
    <glyph glyph-name="zacute" unicode="&#x17a;" horiz-adv-x="509" 
d="M211 550l25 150h150l-100 -150h-75zM474 0h-435v100l258 285h-253v115h415v-100l-258 -285h273v-115z" />
    <glyph glyph-name="Zdotaccent" unicode="&#x17b;" horiz-adv-x="635" 
d="M257 770v135h140v-135h-140zM595 0h-555v115l388 465h-378v120h535v-115l-388 -465h398v-120z" />
    <glyph glyph-name="zdotaccent" unicode="&#x17c;" horiz-adv-x="509" 
d="M193 565v135h140v-135h-140zM474 0h-435v100l258 285h-253v115h415v-100l-258 -285h273v-115z" />
    <glyph glyph-name="Zcaron" unicode="&#x17d;" horiz-adv-x="635" 
d="M400 745h-140l-120 145h110l80 -58l80 58h110zM595 0h-555v115l388 465h-378v120h535v-115l-388 -465h398v-120z" />
    <glyph glyph-name="zcaron" unicode="&#x17e;" horiz-adv-x="509" 
d="M179 550l-100 150h80l100 -72l100 72h80l-100 -150h-160zM474 0h-435v100l258 285h-253v115h415v-100l-258 -285h273v-115z" />
    <glyph glyph-name="florin" unicode="&#x192;" horiz-adv-x="451" 
d="M217 -10q-16 -102 -60.5 -146t-134.5 -44h-73v115h60q41 0 59 16t23 54l57 371h-98v112h115l6 42q16 103 58.5 146.5t130.5 43.5h74v-115h-60q-39 0 -55 -15.5t-22 -54.5l-7 -47h116v-112h-133z" />
    <glyph glyph-name="AEmacron" unicode="&#x1e2;" horiz-adv-x="991" 
d="M801 765h-335v110h335v-110zM472 285l-41 287l-145 -287h186zM513 0l-24 165h-264l-83 -165h-147l365 700h548v-120h-343l24 -161h289v-120h-274l26 -179h338v-120h-455z" />
    <glyph glyph-name="aemacron" unicode="&#x1e3;" horiz-adv-x="846" 
d="M275 565v105h305v-105h-305zM582 -10q-120 0 -189 95q-25 -42 -74.5 -68.5t-108.5 -26.5q-76 0 -125 40t-49 107q0 76 51 117t132 48l126 11v12q0 35 -22 57.5t-59 22.5h-6q-35 0 -57.5 -18t-24.5 -42h-130q8 72 65.5 118.5t149.5 46.5q107 0 163 -56q64 56 158 56
q109 0 168.5 -70.5t59.5 -183.5q0 -15 -2 -47h-337v-9q7 -47 40 -76t73 -29h6q36 0 59 18t30 45h129q-19 -76 -77 -122t-149 -46zM574 405q-40 0 -68.5 -23t-34.5 -63v-10h213q-2 44 -31.5 70t-72.5 26h-6zM227 95h5q46 0 79.5 30.5t33.5 78.5v14l-108 -11q-29 -3 -51 -18
t-22 -43q0 -23 18 -37t45 -14z" />
    <glyph glyph-name="Aringacute" unicode="&#x1fa;" horiz-adv-x="713" 
d="M465 1016l-62 -88h-79l16 88h125zM449 818q0 -38 -25.5 -63.5t-63.5 -25.5t-63.5 25.5t-25.5 63.5t25.5 63.5t63.5 25.5t63.5 -25.5t25.5 -63.5zM393 818q0 14 -10 24t-23 10q-14 0 -24 -10t-10 -24t10 -24t24 -10q13 0 23 10t10 24zM455 285l-101 265l-101 -265h202z
M564 0l-63 165h-294l-63 -165h-142l277 700h158l270 -700h-143z" />
    <glyph glyph-name="aringacute" unicode="&#x1fb;" horiz-adv-x="534" 
d="M299 766h-79l25 135h150zM256 530q-42 0 -73.5 30.5t-31.5 74.5q0 41 32 73t73 32q44 0 74.5 -31.5t30.5 -73.5q0 -45 -30 -75t-75 -30zM258 679q-18 0 -31 -13t-13 -31t13 -31t31 -13t30.5 13t12.5 31t-12.5 31t-30.5 13zM227 95h5q46 0 79.5 30.5t33.5 78.5v14
l-108 -11q-29 -3 -51 -18t-22 -43q0 -23 18 -37t45 -14zM354 0q-4 21 -6 61q-50 -71 -148 -71q-69 0 -116.5 40.5t-47.5 106.5q0 76 51 117t132 48l126 11v12q0 35 -22 57.5t-59 22.5h-6q-35 0 -57.5 -18t-24.5 -42h-130q8 72 65.5 118.5t149.5 46.5q96 0 153 -47t57 -133
v-220q0 -75 5 -110h-122z" />
    <glyph glyph-name="AEacute" unicode="&#x1fc;" horiz-adv-x="991" 
d="M641 745h-90l40 145h155zM472 285l-41 287l-145 -287h186zM513 0l-24 165h-264l-83 -165h-147l365 700h548v-120h-343l24 -161h289v-120h-274l26 -179h338v-120h-455z" />
    <glyph glyph-name="aeacute" unicode="&#x1fd;" horiz-adv-x="846" 
d="M385 550l25 150h150l-100 -150h-75zM582 -10q-120 0 -189 95q-25 -42 -74.5 -68.5t-108.5 -26.5q-76 0 -125 40t-49 107q0 76 51 117t132 48l126 11v12q0 35 -22 57.5t-59 22.5h-6q-35 0 -57.5 -18t-24.5 -42h-130q8 72 65.5 118.5t149.5 46.5q107 0 163 -56
q64 56 158 56q109 0 168.5 -70.5t59.5 -183.5q0 -15 -2 -47h-337v-9q7 -47 40 -76t73 -29h6q36 0 59 18t30 45h129q-19 -76 -77 -122t-149 -46zM574 405q-40 0 -68.5 -23t-34.5 -63v-10h213q-2 44 -31.5 70t-72.5 26h-6zM227 95h5q46 0 79.5 30.5t33.5 78.5v14l-108 -11
q-29 -3 -51 -18t-22 -43q0 -23 18 -37t45 -14z" />
    <glyph glyph-name="Oslashacute" unicode="&#x1fe;" horiz-adv-x="769" 
d="M437 745h-90l40 145h155zM180 351q0 -70 22 -125l275 347q-39 18 -87 18h-10q-94 0 -147 -63.5t-53 -176.5zM380 111h10q94 0 147 63.5t53 176.5q0 70 -22 123l-273 -346q39 -17 85 -17zM385 -9q-94 0 -168 38l-61 -77l-105 82l64 82q-70 94 -70 235q0 166 94 263t246 97
q94 0 169 -39l62 78l105 -82l-65 -83q69 -93 69 -234q0 -166 -94 -263t-246 -97z" />
    <glyph glyph-name="oslashacute" unicode="&#x1ff;" horiz-adv-x="578" 
d="M268 550l25 150h150l-100 -150h-75zM170 250q0 -32 6 -57l157 205q-17 7 -40 7h-8q-53 0 -84 -41t-31 -114zM285 95h8q53 0 84 41t31 114q0 32 -6 56l-157 -204q17 -7 40 -7zM289 -10q-63 0 -112 24l-50 -65l-84 70l49 64q-53 69 -53 167q0 114 69.5 187t180.5 73
q63 0 112 -24l48 63l89 -66l-51 -66q52 -71 52 -167q0 -114 -69.5 -187t-180.5 -73z" />
    <glyph glyph-name="Scommaaccent" unicode="&#x218;" horiz-adv-x="634" 
d="M459 480q-4 53 -39 81.5t-91 28.5h-10q-54 0 -87 -25t-33 -60q0 -34 19.5 -52t65.5 -27l105 -21q194 -39 194 -200q0 -93 -71.5 -154t-197.5 -61q-139 0 -210 65.5t-75 179.5h135q4 -56 44.5 -90.5t115.5 -34.5h10q54 0 84 24.5t30 60.5q0 32 -17 50t-62 27l-125 26
q-180 37 -180 202q0 85 71.5 147.5t193.5 62.5q125 0 195 -64t70 -166h-135zM248 -310h-28v75h23q54 0 54 40h-52v130h130v-130q0 -50 -35.5 -82.5t-91.5 -32.5z" />
    <glyph glyph-name="scommaaccent" unicode="&#x219;" horiz-adv-x="497" 
d="M248 -10q-101 0 -158.5 46.5t-57.5 128.5h133q0 -34 23 -54.5t61 -20.5h8q30 0 48 13.5t18 35.5q0 37 -51 50l-65 16q-80 20 -117.5 55.5t-37.5 95.5q0 68 54.5 111t147.5 43q97 0 150.5 -46t53.5 -129h-130q-8 75 -75 75h-8q-27 0 -45 -13.5t-18 -35.5q0 -35 64 -51
l67 -17q72 -18 106 -54t34 -95q0 -67 -54 -110.5t-151 -43.5zM189 -310h-28v75h23q54 0 54 40h-52v130h130v-130q0 -50 -35.5 -82.5t-91.5 -32.5z" />
    <glyph glyph-name="uni021A" unicode="&#x21a;" horiz-adv-x="656" 
d="M260 0v580h-242v120h620v-120h-243v-580h-135zM265 -310h-28v75h23q54 0 54 40h-52v130h130v-130q0 -50 -35.5 -82.5t-91.5 -32.5z" />
    <glyph glyph-name="uni021B" unicode="&#x21b;" horiz-adv-x="407" 
d="M377 110v-110h-127q-130 0 -130 130v265h-103v105h103v162h130v-162h112v-105h-112v-230q0 -34 10.5 -44.5t44.5 -10.5h72zM175 -310h-28v75h23q54 0 54 40h-52v130h130v-130q0 -50 -35.5 -82.5t-91.5 -32.5z" />
    <glyph glyph-name="uni0226" unicode="&#x226;" horiz-adv-x="713" 
d="M289 765v135h140v-135h-140zM455 285l-101 265l-101 -265h202zM564 0l-63 165h-294l-63 -165h-142l277 700h158l270 -700h-143z" />
    <glyph glyph-name="uni0227" unicode="&#x227;" horiz-adv-x="534" 
d="M195 565v135h140v-135h-140zM227 95h5q46 0 79.5 30.5t33.5 78.5v14l-108 -11q-29 -3 -51 -18t-22 -43q0 -23 18 -37t45 -14zM354 0q-4 21 -6 61q-50 -71 -148 -71q-69 0 -116.5 40.5t-47.5 106.5q0 76 51 117t132 48l126 11v12q0 35 -22 57.5t-59 22.5h-6
q-35 0 -57.5 -18t-24.5 -42h-130q8 72 65.5 118.5t149.5 46.5q96 0 153 -47t57 -133v-220q0 -75 5 -110h-122z" />
    <glyph glyph-name="Ymacron" unicode="&#x232;" horiz-adv-x="663" 
d="M502 765h-335v110h335v-110zM399 0h-135v280l-260 420h153l179 -294l176 294h148l-261 -420v-280z" />
    <glyph glyph-name="ymacron" unicode="&#x233;" horiz-adv-x="572" 
d="M138 565v105h305v-105h-305zM225 -202h-182v112h133q34 0 44.5 10.5t10.5 44.5v73l-218 462h146l135 -304l130 304h144l-213 -457v-115q0 -130 -130 -130z" />
    <glyph glyph-name="dotlessj" unicode="&#x237;" horiz-adv-x="272" 
d="M205 500v-575q0 -60 -32.5 -92.5t-92.5 -32.5h-162v110h102q30 0 42.5 12.5t12.5 42.5v535h130z" />
    <glyph glyph-name="circumflex" unicode="&#x2c6;" horiz-adv-x="380" 
d="M290 550l-100 72l-100 -72h-80l100 150h160l100 -150h-80z" />
    <glyph glyph-name="caron" unicode="&#x2c7;" horiz-adv-x="380" 
d="M110 550l-100 150h80l100 -72l100 72h80l-100 -150h-160z" />
    <glyph glyph-name="breve" unicode="&#x2d8;" horiz-adv-x="360" 
d="M180 635q27 0 42.5 17.5t17.5 47.5h110q-1 -72 -48.5 -116t-121.5 -44t-121.5 44t-48.5 116h110q2 -30 17.5 -47.5t42.5 -17.5z" />
    <glyph glyph-name="dotaccent" unicode="&#x2d9;" horiz-adv-x="160" 
d="M10 565v135h140v-135h-140z" />
    <glyph glyph-name="ring" unicode="&#x2da;" horiz-adv-x="230" 
d="M115 540q-42 0 -73.5 30.5t-31.5 74.5q0 41 32 73t73 32q44 0 74.5 -31.5t30.5 -73.5q0 -45 -30 -75t-75 -30zM115 689q-18 0 -31 -13t-13 -31t13 -31t31 -13t30.5 13t12.5 31t-12.5 31t-30.5 13z" />
    <glyph glyph-name="ogonek" unicode="&#x2db;" horiz-adv-x="210" 
d="M140 -220q-52 0 -86 28t-34 72q0 88 105 135l65 -15q-80 -46 -80 -90q0 -25 14.5 -37.5t35.5 -12.5h30v-80h-50z" />
    <glyph glyph-name="tilde" unicode="&#x2dc;" horiz-adv-x="399" 
d="M264 655q13 0 21.5 11.5t8.5 28.5h95v-26q0 -46 -33 -80t-77 -34q-35 0 -80 24l-18 10q-28 16 -42 16q-13 0 -23.5 -11.5t-10.5 -28.5h-95v26q0 47 32.5 80.5t79.5 33.5q37 0 75 -20l18 -10q40 -20 49 -20z" />
    <glyph glyph-name="hungarumlaut" unicode="&#x2dd;" horiz-adv-x="354" 
d="M169 550l25 150h150l-100 -150h-75zM10 550l25 150h150l-100 -150h-75z" />
    <glyph glyph-name="pi" unicode="&#x3c0;" horiz-adv-x="702" 
d="M263 0h-130v392h-115v108h640v-108h-115v-244q0 -22 8.5 -31t31.5 -9h75v-108h-140q-105 0 -105 105v287h-150v-392z" />
    <glyph glyph-name="Wgrave" unicode="&#x1e80;" horiz-adv-x="950" 
d="M525 745h-90l-105 145h155zM582 0l-107 510l-108 -510h-175l-172 700h139l125 -555l110 555h165l110 -555l121 555h140l-173 -700h-175z" />
    <glyph glyph-name="wgrave" unicode="&#x1e81;" horiz-adv-x="791" 
d="M407 700l25 -150h-75l-100 150h150zM484 0l-88 350l-83 -350h-146l-153 500h131l100 -371l81 371h139l87 -368l95 368h126l-143 -500h-146z" />
    <glyph glyph-name="Wacute" unicode="&#x1e82;" horiz-adv-x="950" 
d="M520 745h-90l40 145h155zM582 0l-107 510l-108 -510h-175l-172 700h139l125 -555l110 555h165l110 -555l121 555h140l-173 -700h-175z" />
    <glyph glyph-name="wacute" unicode="&#x1e83;" horiz-adv-x="791" 
d="M361 550l25 150h150l-100 -150h-75zM484 0l-88 350l-83 -350h-146l-153 500h131l100 -371l81 371h139l87 -368l95 368h126l-143 -500h-146z" />
    <glyph glyph-name="Wdieresis" unicode="&#x1e84;" horiz-adv-x="950" 
d="M637 765h-125v120h125v-120zM442 765h-125v120h125v-120zM582 0l-107 510l-108 -510h-175l-172 700h139l125 -555l110 555h165l110 -555l121 555h140l-173 -700h-175z" />
    <glyph glyph-name="wdieresis" unicode="&#x1e85;" horiz-adv-x="791" 
d="M442 565v130h120v-130h-120zM242 565v130h120v-130h-120zM484 0l-88 350l-83 -350h-146l-153 500h131l100 -371l81 371h139l87 -368l95 368h126l-143 -500h-146z" />
    <glyph glyph-name="uni1EA0" unicode="&#x1ea0;" horiz-adv-x="713" 
d="M455 285l-101 265l-101 -265h202zM564 0l-63 165h-294l-63 -165h-142l277 700h158l270 -700h-143zM302 -195v130h130v-130h-130z" />
    <glyph glyph-name="uni1EA1" unicode="&#x1ea1;" horiz-adv-x="534" 
d="M227 95h5q46 0 79.5 30.5t33.5 78.5v14l-108 -11q-29 -3 -51 -18t-22 -43q0 -23 18 -37t45 -14zM354 0q-4 21 -6 61q-50 -71 -148 -71q-69 0 -116.5 40.5t-47.5 106.5q0 76 51 117t132 48l126 11v12q0 35 -22 57.5t-59 22.5h-6q-35 0 -57.5 -18t-24.5 -42h-130
q8 72 65.5 118.5t149.5 46.5q96 0 153 -47t57 -133v-220q0 -75 5 -110h-122zM191 -195v130h130v-130h-130z" />
    <glyph glyph-name="uni1EB8" unicode="&#x1eb8;" horiz-adv-x="661" 
d="M82 0v700h530v-120h-395v-161h335v-120h-335v-179h405v-120h-540zM287 -195v130h130v-130h-130z" />
    <glyph glyph-name="uni1EB9" unicode="&#x1eb9;" horiz-adv-x="541" 
d="M503 158q-19 -76 -77 -122t-149 -46q-99 0 -168.5 70.5t-69.5 189.5q0 115 64 187.5t174 72.5q109 0 168.5 -70.5t59.5 -183.5q0 -15 -2 -47h-338q4 -50 37.5 -82t76.5 -32h6q36 0 59 18t30 45h129zM269 405q-43 0 -72.5 -26t-31.5 -70h214q-2 44 -31.5 70t-72.5 26h-6z
M207 -195v130h130v-130h-130z" />
    <glyph glyph-name="uni1ECA" unicode="&#x1eca;" horiz-adv-x="299" 
d="M82 0v700h135v-700h-135zM84 -195v130h130v-130h-130z" />
    <glyph glyph-name="uni1ECB" unicode="&#x1ecb;" horiz-adv-x="264" 
d="M62 565v135h140v-135h-140zM67 0v500h130v-500h-130zM67 -195v130h130v-130h-130z" />
    <glyph glyph-name="uni1ECC" unicode="&#x1ecc;" horiz-adv-x="766" 
d="M383 -10q-152 0 -246 97t-94 263t94 263t246 97t246 -97t94 -263t-94 -263t-246 -97zM378 110h10q94 0 147 64t53 176t-53 176t-147 64h-10q-94 0 -147 -64t-53 -176t53 -176t147 -64zM318 -195v130h130v-130h-130z" />
    <glyph glyph-name="uni1ECD" unicode="&#x1ecd;" horiz-adv-x="576" 
d="M288 -10q-111 0 -180.5 73t-69.5 187t69.5 187t180.5 73t180.5 -73t69.5 -187t-69.5 -187t-180.5 -73zM292 95q53 0 84 41t31 114t-31 114t-84 41h-8q-53 0 -84 -41t-31 -114t31 -114t84 -41h8zM226 -195v130h130v-130h-130z" />
    <glyph glyph-name="uni1EE4" unicode="&#x1ee4;" horiz-adv-x="702" 
d="M351 -10q-139 0 -207 66t-68 189v455h135v-435q0 -81 33 -118t102 -37h10q69 0 102 37t33 118v435h135v-455q0 -123 -68 -189t-207 -66zM285 -195v130h130v-130h-130z" />
    <glyph glyph-name="uni1EE5" unicode="&#x1ee5;" horiz-adv-x="575" 
d="M378 222v278h130v-500h-130v73q-23 -38 -61.5 -60.5t-84.5 -22.5q-84 0 -126.5 51.5t-42.5 138.5v320h130v-305q0 -48 19.5 -74t54.5 -26h8q43 0 73 37t30 90zM223 -195v130h130v-130h-130z" />
    <glyph glyph-name="Ygrave" unicode="&#x1ef2;" horiz-adv-x="663" 
d="M389 745h-90l-105 145h155zM399 0h-135v280l-260 420h153l179 -294l176 294h148l-261 -420v-280z" />
    <glyph glyph-name="ygrave" unicode="&#x1ef3;" horiz-adv-x="572" 
d="M314 700l25 -150h-75l-100 150h150zM225 -202h-182v112h133q34 0 44.5 10.5t10.5 44.5v73l-218 462h146l135 -304l130 304h144l-213 -457v-115q0 -130 -130 -130z" />
    <glyph glyph-name="enspace" unicode="&#x2002;" horiz-adv-x="460" 
 />
    <glyph glyph-name="emspace" unicode="&#x2003;" horiz-adv-x="960" 
 />
    <glyph glyph-name="thinspace" unicode="&#x2009;" horiz-adv-x="85" 
 />
    <glyph glyph-name="endash" unicode="&#x2013;" horiz-adv-x="594" 
d="M62 250v105h470v-105h-470z" />
    <glyph glyph-name="emdash" unicode="&#x2014;" horiz-adv-x="914" 
d="M62 250v105h790v-105h-790z" />
    <glyph glyph-name="quoteleft" unicode="&#x2018;" horiz-adv-x="283" 
d="M196 700h41v-75h-36q-32 0 -47 -18t-15 -47v-10h65v-145h-145v160q0 54 39.5 94.5t97.5 40.5z" />
    <glyph glyph-name="quoteright" unicode="&#x2019;" horiz-adv-x="280" 
d="M92 405h-41v75h36q32 0 47 18t15 47v10h-65v145h145v-160q0 -54 -39.5 -94.5t-97.5 -40.5z" />
    <glyph glyph-name="quotesinglbase" unicode="&#x201a;" horiz-adv-x="272" 
d="M72 -150h-41v75h36q32 0 47 18t15 47v10h-65v145h145v-160q0 -54 -39.5 -94.5t-97.5 -40.5z" />
    <glyph glyph-name="quotedblleft" unicode="&#x201c;" horiz-adv-x="488" 
d="M401 699h41v-75h-36q-32 0 -47 -18t-15 -47v-10h65v-145h-145v160q0 54 39.5 94.5t97.5 40.5zM196 699h41v-75h-36q-32 0 -47 -18t-15 -47v-10h65v-145h-145v160q0 54 39.5 94.5t97.5 40.5z" />
    <glyph glyph-name="quotedblright" unicode="&#x201d;" horiz-adv-x="485" 
d="M92 405h-41v75h36q32 0 47 18t15 47v10h-65v145h145v-160q0 -54 -39.5 -94.5t-97.5 -40.5zM297 405h-41v75h36q32 0 47 18t15 47v10h-65v145h145v-160q0 -54 -39.5 -94.5t-97.5 -40.5z" />
    <glyph glyph-name="quotedblbase" unicode="&#x201e;" horiz-adv-x="477" 
d="M72 -150h-41v75h36q32 0 47 18t15 47v10h-65v145h145v-160q0 -54 -39.5 -94.5t-97.5 -40.5zM277 -150h-41v75h36q32 0 47 18t15 47v10h-65v145h145v-160q0 -54 -39.5 -94.5t-97.5 -40.5z" />
    <glyph glyph-name="dagger" unicode="&#x2020;" horiz-adv-x="530" 
d="M482 455h-152v-540h-130v540h-152v110h152v220h130v-220h152v-110z" />
    <glyph glyph-name="daggerdbl" unicode="&#x2021;" horiz-adv-x="530" 
d="M482 135h-152v-220h-130v220h-152v110h152v210h-152v110h152v220h130v-220h152v-110h-152v-210h152v-110z" />
    <glyph glyph-name="bullet" unicode="&#x2022;" horiz-adv-x="548" 
d="M274 145q-85 0 -145 60t-60 145t60 145t145 60t145 -60t60 -145t-60 -145t-145 -60z" />
    <glyph glyph-name="ellipsis" unicode="&#x2026;" horiz-adv-x="779" 
d="M572 0v145h145v-145h-145zM317 0v145h145v-145h-145zM62 0v145h145v-145h-145z" />
    <glyph glyph-name="perthousand" unicode="&#x2030;" horiz-adv-x="1178" 
d="M206 300q-86 0 -130 59t-44 143q0 85 44 144t130 59t130 -59t44 -144q0 -84 -44 -143t-130 -59zM317 0h-117l420 700h117zM204 392h4q64 0 64 110q0 111 -64 111h-4q-64 0 -64 -111q0 -110 64 -110zM975 -5q-75 0 -120 47q-45 -47 -120 -47q-86 0 -130 59t-44 143
q0 85 44 144t130 59q75 0 120 -48q45 48 120 48q86 0 130 -59t44 -144q0 -84 -44 -143t-130 -59zM733 87h4q64 0 64 110q0 111 -64 111h-4q-64 0 -64 -111q0 -110 64 -110zM973 87h4q64 0 64 110q0 111 -64 111h-4q-64 0 -64 -111q0 -110 64 -110z" />
    <glyph glyph-name="guilsinglleft" unicode="&#x2039;" horiz-adv-x="362" 
d="M327 70h-150l-145 215l145 215h150l-145 -215z" />
    <glyph glyph-name="guilsinglright" unicode="&#x203a;" horiz-adv-x="362" 
d="M185 70h-150l145 215l-145 215h150l145 -215z" />
    <glyph glyph-name="fraction" unicode="&#x2044;" horiz-adv-x="200" 
d="M-53 0h-117l420 700h117z" />
    <glyph glyph-name="Euro" unicode="&#x20ac;" horiz-adv-x="703" 
d="M657 220q-13 -105 -82.5 -167.5t-171.5 -62.5q-86 0 -148.5 46t-94.5 129l-115 -26v110l88 20q-4 36 -5 61l-83 -18v110l90 20q21 124 91.5 196t176.5 72q100 0 169.5 -63t84.5 -167h-133q-8 52 -39.5 83.5t-77.5 31.5h-8q-93 0 -125 -122l172 38v-110l-186 -41v-10
q0 -19 2 -53l142 32v-110l-118 -26q36 -88 113 -88h8q46 0 77.5 31.5t39.5 83.5h133z" />
    <glyph glyph-name="uni2105" unicode="&#x2105;" horiz-adv-x="729" 
d="M211 0h-117l420 700h117zM183 445q-69 0 -112 37.5t-43 109.5t43 110t112 38q67 0 100.5 -32.5t37.5 -80.5h-101q-5 33 -40 33h-4q-46 0 -46 -68q0 -67 46 -67h4q35 0 40 30h101q-5 -47 -38 -78.5t-100 -31.5zM548 285q70 0 112 -42t42 -106t-42 -105.5t-112 -41.5
t-112 41.5t-42 105.5t42 106t112 42zM550 205h-4q-23 0 -36.5 -18t-13.5 -50t13.5 -49.5t36.5 -17.5h4q23 0 36.5 17.5t13.5 49.5t-13.5 50t-36.5 18z" />
    <glyph glyph-name="afii61289" unicode="&#x2113;" horiz-adv-x="461" 
d="M377 0h-155q-105 0 -105 105v68l-75 -46v135l75 45v232q0 82 41 126.5t115 44.5q77 0 121.5 -56.5t44.5 -132.5q0 -70 -41 -135.5t-113 -109.5l-38 -23v-98q0 -23 8.5 -31.5t30.5 -8.5h91v-115zM247 555v-170q62 44 62 129q0 81 -38 81q-24 0 -24 -40z" />
    <glyph glyph-name="afii61352" unicode="&#x2116;" horiz-adv-x="1098" 
d="M899 705q70 0 112 -42t42 -106t-42 -105.5t-112 -41.5t-112 41.5t-42 105.5t42 106t112 42zM901 625h-4q-23 0 -36.5 -18t-13.5 -50t13.5 -49.5t36.5 -17.5h4q23 0 36.5 17.5t13.5 49.5t-13.5 50t-36.5 18zM495 0l-275 515v-515h-135v700h175l275 -513v513h135v-700h-175
zM1048 270h-288v80h288v-80z" />
    <glyph glyph-name="uni2117" unicode="&#x2117;" horiz-adv-x="870" 
d="M435 -39q-161 0 -275.5 114.5t-114.5 275.5t114.5 275.5t275.5 114.5t275.5 -114.5t114.5 -275.5t-114.5 -275.5t-275.5 -114.5zM435 48q123 0 210.5 89t87.5 214t-87.5 214t-210.5 89t-210.5 -89t-87.5 -214t87.5 -214t210.5 -89zM307 163v381h183q62 0 96 -36t34 -93
q0 -56 -34 -91t-96 -35h-78v-126h-105zM412 375h67q17 0 26.5 10.5t9.5 29.5q0 18 -10.5 29t-27.5 11h-65v-80z" />
    <glyph glyph-name="trademark" unicode="&#x2122;" horiz-adv-x="974" 
d="M161 320v280h-125v100h365v-100h-125v-280h-115zM648 320l-80 209v-209h-113v380h152l72 -193l70 193h152v-380h-113v202l-76 -202h-64z" />
    <glyph glyph-name="Omega" unicode="&#x2126;" horiz-adv-x="782" 
d="M351 110v-110h-295v113h128q-62 36 -97.5 102t-35.5 155q0 149 96 244.5t244 95.5t244 -95.5t96 -244.5q0 -90 -36.5 -156t-101.5 -101h133v-113h-295v110q75 19 120 83.5t45 156.5q0 113 -53.5 176.5t-146.5 63.5h-10q-93 0 -146.5 -63.5t-53.5 -176.5
q0 -92 45.5 -156.5t119.5 -83.5z" />
    <glyph glyph-name="onethird" unicode="&#x2153;" horiz-adv-x="918" 
d="M290 0h-117l420 700h117zM246 305h-105v256l-109 -90v126l125 103h89v-395zM725 -5q-64 0 -107.5 31t-43.5 86h108q1 -13 13.5 -21.5t28.5 -8.5h5q19 0 31.5 11t12.5 28t-12 26.5t-31 9.5h-37v84h37q18 0 29 10t11 26q0 15 -10 25.5t-28 10.5h-5q-15 0 -25.5 -8.5
t-12.5 -19.5h-108q0 54 43 84.5t106 30.5q61 0 104.5 -30.5t43.5 -82.5q0 -63 -55 -87q58 -27 58 -93q0 -53 -46 -82.5t-110 -29.5z" />
    <glyph glyph-name="twothirds" unicode="&#x2154;" horiz-adv-x="960" 
d="M341 305h-296v84l149 135q38 34 38 57q0 15 -10.5 25.5t-26.5 10.5h-4q-16 0 -28 -13t-13 -30h-107q4 59 47.5 95t108.5 36q63 0 102 -36t39 -81q0 -33 -14.5 -56t-43.5 -50l-95 -87h154v-90zM343 0h-117l420 700h117zM768 -5q-64 0 -107.5 31t-43.5 86h108
q1 -13 13.5 -21.5t28.5 -8.5h5q19 0 31.5 11t12.5 28t-12 26.5t-31 9.5h-37v84h37q18 0 29 10t11 26q0 15 -10.5 25.5t-27.5 10.5h-5q-15 0 -25.5 -8.5t-12.5 -19.5h-108q0 54 43 84.5t106 30.5q61 0 104.5 -30.5t43.5 -82.5q0 -63 -55 -87q58 -27 58 -93q0 -53 -46 -82.5
t-110 -29.5z" />
    <glyph glyph-name="uni2155" unicode="&#x2155;" horiz-adv-x="925" 
d="M297 0h-117l420 700h117zM246 305h-105v256l-109 -90v126l125 103h89v-395zM721 -5q-64 0 -107.5 34.5t-47.5 90.5h112q4 -16 16.5 -26.5t29.5 -10.5h4q20 0 33.5 14.5t13.5 34.5t-12.5 32.5t-32.5 12.5h-4q-24 0 -38 -17h-108l44 235h252v-88h-174l-14 -67q26 23 72 23
q47 0 84 -33.5t37 -92.5q0 -65 -44.5 -103.5t-115.5 -38.5z" />
    <glyph glyph-name="uni2156" unicode="&#x2156;" horiz-adv-x="975" 
d="M341 306h-296v84l149 135q38 34 38 57q0 15 -10.5 25.5t-26.5 10.5h-4q-16 0 -28 -13t-13 -30h-107q4 59 47.5 95t108.5 36q63 0 102 -36t39 -81q0 -33 -14.5 -56t-43.5 -50l-95 -87h154v-90zM348 0h-117l420 700h117zM772 -5q-64 0 -107.5 34.5t-47.5 90.5h112
q4 -16 16.5 -26.5t29.5 -10.5h4q20 0 33.5 14.5t13.5 34.5t-12.5 32.5t-32.5 12.5h-4q-24 0 -38 -17h-108l44 235h252v-88h-174l-14 -67q26 23 72 23q47 0 84 -33.5t37 -92.5q0 -65 -44.5 -103.5t-115.5 -38.5z" />
    <glyph glyph-name="uni2157" unicode="&#x2157;" horiz-adv-x="977" 
d="M350 0h-117l420 700h117zM184 300q-64 0 -107.5 31t-43.5 86h108q1 -13 13.5 -21.5t28.5 -8.5h5q19 0 31.5 11t12.5 28t-12 26.5t-31 9.5h-37v84h37q18 0 29 10t11 26t-10.5 26t-27.5 10h-5q-15 0 -25.5 -8.5t-12.5 -19.5h-108q0 54 43 84.5t106 30.5q61 0 104.5 -30.5
t43.5 -82.5q0 -63 -55 -87q58 -27 58 -93q0 -53 -46 -82.5t-110 -29.5zM774 -5q-64 0 -107.5 34.5t-47.5 90.5h112q4 -16 16.5 -26.5t29.5 -10.5h4q20 0 33.5 14.5t13.5 34.5t-12.5 32.5t-32.5 12.5h-4q-24 0 -38 -17h-108l44 235h252v-88h-174l-14 -67q26 23 72 23
q47 0 84 -33.5t37 -92.5q0 -65 -44.5 -103.5t-115.5 -38.5z" />
    <glyph glyph-name="uni2158" unicode="&#x2158;" horiz-adv-x="1001" 
d="M324 306h-97v62h-196v109l174 224h119v-249h53v-84h-53v-62zM373 0h-117l420 700h117zM227 589l-105 -137h105v137zM797 -5q-64 0 -107.5 34.5t-47.5 90.5h112q4 -16 16.5 -26.5t29.5 -10.5h4q20 0 33.5 14.5t13.5 34.5t-12.5 32.5t-32.5 12.5h-4q-24 0 -38 -17h-108
l44 235h252v-88h-174l-14 -67q26 23 72 23q47 0 84 -33.5t37 -92.5q0 -65 -44.5 -103.5t-115.5 -38.5z" />
    <glyph glyph-name="uni2159" unicode="&#x2159;" horiz-adv-x="917" 
d="M292 0h-117l420 700h117zM246 305h-105v256l-109 -90v126l125 103h89v-395zM876 133q0 -60 -42.5 -99t-109.5 -39q-76 0 -121 49.5t-45 133.5q0 102 50.5 162t135.5 60q62 0 99 -33.5t39 -85.5h-104q-7 31 -39 31h-6q-30 0 -50.5 -27.5t-24.5 -67.5q32 40 91 40
q55 0 91 -35t36 -89zM672 128q0 -19 13.5 -32t33.5 -13h4q20 0 33.5 13t13.5 33q0 19 -13 31t-34 12h-4q-19 0 -33 -13t-14 -31z" />
    <glyph glyph-name="uni215A" unicode="&#x215a;" horiz-adv-x="962" 
d="M336 0h-117l420 700h117zM185 299q-64 0 -107.5 34.5t-47.5 90.5h112q4 -16 16.5 -26.5t29.5 -10.5h4q20 0 33.5 14.5t13.5 34.5t-12.5 32.5t-32.5 12.5h-4q-24 0 -38 -17h-108l44 235h252v-88h-174l-14 -67q26 23 72 23q47 0 84 -33.5t37 -92.5q0 -65 -44.5 -103.5
t-115.5 -38.5zM920 133q0 -60 -42.5 -99t-109.5 -39q-76 0 -121 49.5t-45 133.5q0 102 50.5 162t135.5 60q62 0 99 -33.5t39 -85.5h-104q-7 31 -39 31h-6q-30 0 -50.5 -27.5t-24.5 -67.5q32 40 91 40q55 0 91 -35t36 -89zM716 128q0 -19 13.5 -32t33.5 -13h4q20 0 33.5 13
t13.5 33q0 19 -13 31t-34 12h-4q-19 0 -33 -13t-14 -31z" />
    <glyph glyph-name="oneeighth" unicode="&#x215b;" horiz-adv-x="927" 
d="M292 0h-117l420 700h117zM246 305h-105v256l-109 -90v126l125 103h89v-395zM738 -10q-65 0 -107 30.5t-42 77.5q0 32 18.5 56.5t50.5 34.5q-75 28 -75 98q0 47 45 77.5t110 30.5t109.5 -30.5t44.5 -77.5q0 -70 -76 -98q32 -10 50.5 -34.5t18.5 -56.5q0 -47 -41 -77.5
t-106 -30.5zM735 307q-19 0 -32.5 -10t-13.5 -27t13.5 -27t32.5 -10h5q19 0 32.5 10t13.5 27t-13.5 27t-32.5 10h-5zM779 113q0 15 -11.5 25.5t-27.5 10.5h-5q-16 0 -28 -10.5t-12 -25.5t12 -25t28 -10h5q16 0 27.5 10t11.5 25z" />
    <glyph glyph-name="threeeighths" unicode="&#x215c;" horiz-adv-x="978" 
d="M344 0h-117l420 700h117zM184 300q-64 0 -107.5 31t-43.5 86h108q1 -13 13.5 -21.5t28.5 -8.5h5q19 0 31.5 11t12.5 28t-12 26.5t-31 9.5h-37v84h37q18 0 29 10t11 26t-10.5 26t-27.5 10h-5q-15 0 -25.5 -8.5t-12.5 -19.5h-108q0 54 43 84.5t106 30.5q61 0 104.5 -30.5
t43.5 -82.5q0 -63 -55 -87q58 -27 58 -93q0 -53 -46 -82.5t-110 -29.5zM790 -10q-65 0 -107 30.5t-42 77.5q0 32 18.5 56.5t50.5 34.5q-75 28 -75 98q0 47 45 77.5t110 30.5t109.5 -30.5t44.5 -77.5q0 -70 -76 -98q32 -10 50.5 -34.5t18.5 -56.5q0 -47 -41 -77.5t-106 -30.5
zM787 307q-19 0 -32.5 -10t-13.5 -27t13.5 -27t32.5 -10h5q19 0 32.5 10t13.5 27t-13.5 27t-32.5 10h-5zM831 113q0 15 -11.5 25.5t-27.5 10.5h-5q-16 0 -28 -10.5t-12 -25.5t12 -25t28 -10h5q16 0 27.5 10t11.5 25z" />
    <glyph glyph-name="fiveeighths" unicode="&#x215d;" horiz-adv-x="980" 
d="M343 0h-117l420 700h117zM186 299q-64 0 -107.5 34.5t-47.5 90.5h112q4 -16 16.5 -26.5t29.5 -10.5h4q20 0 33.5 14.5t13.5 34.5t-12.5 32.5t-32.5 12.5h-4q-24 0 -38 -17h-108l44 235h252v-88h-174l-14 -67q26 23 72 23q47 0 84 -33.5t37 -92.5q0 -65 -44.5 -103.5
t-115.5 -38.5zM789 -10q-65 0 -107 30.5t-42 77.5q0 32 18.5 56.5t50.5 34.5q-75 28 -75 98q0 47 45 77.5t110 30.5t109.5 -30.5t44.5 -77.5q0 -70 -76 -98q32 -10 50.5 -34.5t18.5 -56.5q0 -47 -41 -77.5t-106 -30.5zM786 307q-19 0 -32.5 -10t-13.5 -27t13.5 -27t32.5 -10
h5q19 0 32.5 10t13.5 27t-13.5 27t-32.5 10h-5zM830 113q0 15 -11.5 25.5t-27.5 10.5h-5q-16 0 -28 -10.5t-12 -25.5t12 -25t28 -10h5q16 0 27.5 10t11.5 25z" />
    <glyph glyph-name="seveneighths" unicode="&#x215e;" horiz-adv-x="900" 
d="M209 306h-113v13q0 169 114 292h-180v90h299v-78q-120 -120 -120 -299v-18zM263 0h-117l420 700h117zM709 -10q-65 0 -107 30.5t-42 77.5q0 32 18.5 56.5t50.5 34.5q-75 28 -75 98q0 47 45 77.5t110 30.5t109.5 -30.5t44.5 -77.5q0 -70 -76 -98q32 -10 50.5 -34.5
t18.5 -56.5q0 -47 -41 -77.5t-106 -30.5zM706 307q-19 0 -32.5 -10t-13.5 -27t13.5 -27t32.5 -10h5q19 0 32.5 10t13.5 27t-13.5 27t-32.5 10h-5zM750 113q0 15 -11.5 25.5t-27.5 10.5h-5q-16 0 -28 -10.5t-12 -25.5t12 -25t28 -10h5q16 0 27.5 10t11.5 25z" />
    <glyph glyph-name="uni215F" unicode="&#x215f;" horiz-adv-x="697" 
d="M283 0h-117l420 700h117zM238 305h-105v256l-109 -90v126l125 103h89v-395z" />
    <glyph glyph-name="uni2160" unicode="&#x2160;" horiz-adv-x="500" 
d="M48 0v105h137v490h-137v105h404v-105h-137v-490h137v-105h-404z" />
    <glyph glyph-name="uni2161" unicode="&#x2161;" horiz-adv-x="785" 
d="M315 105h155v490h-155v-490zM48 0v105h137v490h-137v105h689v-105h-137v-490h137v-105h-689z" />
    <glyph glyph-name="uni2162" unicode="&#x2162;" horiz-adv-x="1070" 
d="M600 105h155v490h-155v-490zM315 105h155v490h-155v-490zM48 0v105h137v490h-137v105h974v-105h-137v-490h137v-105h-974z" />
    <glyph glyph-name="uni2163" unicode="&#x2163;" horiz-adv-x="1083" 
d="M319 105h233l-148 490h-85v-490zM52 0v105h137v490h-137v105h577v-105h-95l143 -485l154 485h-98v105h320v-105h-95l-159 -490h124v-105h-871z" />
    <glyph glyph-name="uni2164" unicode="&#x2164;" horiz-adv-x="805" 
d="M645 0h-495v105h124l-148 490h-96v105h321v-105h-95l143 -485l154 485h-98v105h320v-105h-95l-159 -490h124v-105z" />
    <glyph glyph-name="uni2165" unicode="&#x2165;" horiz-adv-x="1082" 
d="M763 105v490h-83l-159 -490h242zM150 0v105h124l-148 490h-96v105h321v-105h-95l143 -485l154 485h-98v105h575v-105h-137v-490h137v-105h-880z" />
    <glyph glyph-name="uni2166" unicode="&#x2166;" horiz-adv-x="1367" 
d="M893 105h155v490h-155v-490zM763 105v490h-83l-159 -490h242zM150 0v105h124l-148 490h-96v105h321v-105h-95l143 -485l154 485h-98v105h860v-105h-137v-490h137v-105h-1165z" />
    <glyph glyph-name="uni2167" unicode="&#x2167;" horiz-adv-x="1652" 
d="M1178 105h155v490h-155v-490zM893 105h155v490h-155v-490zM763 105v490h-83l-159 -490h242zM150 0v105h124l-148 490h-96v105h321v-105h-95l143 -485l154 485h-98v105h1145v-105h-137v-490h137v-105h-1450z" />
    <glyph glyph-name="uni2168" unicode="&#x2168;" horiz-adv-x="1032" 
d="M636 445l114 150h-229zM315 105h60l189 247l-186 243h-63v-490zM753 105l-120 157l-120 -157h240zM48 0v105h137v490h-137v105h930v-105h-90l-183 -240l191 -250h92v-105h-940z" />
    <glyph glyph-name="uni2169" unicode="&#x2169;" horiz-adv-x="798" 
d="M402 445l114 150h-229zM519 105l-120 157l-120 -157h240zM754 0h-710v105h97l189 247l-186 243h-90v105h690v-105h-90l-183 -240l191 -250h92v-105z" />
    <glyph glyph-name="uni216C" unicode="&#x216c;" horiz-adv-x="698" 
d="M48 0v105h137v490h-137v105h404v-105h-137v-490h215v165h130v-270h-612z" />
    <glyph glyph-name="uni216D" unicode="&#x216d;" horiz-adv-x="753" 
d="M559 0v68q-71 -78 -199 -78q-138 0 -224.5 97t-86.5 263q0 164 93 262t233 98q118 0 189 -72v62h125v-230h-119q-17 64 -67.5 99.5t-105.5 35.5h-10q-96 0 -152 -67t-56 -184q0 -123 54.5 -191t151.5 -68h10q55 0 101 35t69 100h119v-230h-125z" />
    <glyph glyph-name="uni216E" unicode="&#x216e;" horiz-adv-x="802" 
d="M185 105v490h-137v105h364q153 0 247 -93t94 -254q0 -165 -94 -259t-247 -94h-364v105h137zM315 105h87q109 0 165 60t56 189q0 241 -221 241h-87v-490z" />
    <glyph glyph-name="uni216F" unicode="&#x216f;" horiz-adv-x="1111" 
d="M380 105v-105h-332v105h137v490h-137v105h347l165 -529l163 529h340v-105h-137v-490h137v-105h-332v105h67v444l-177 -549h-132l-176 558v-453h67z" />
    <glyph glyph-name="uni2190" unicode="&#x2190;" horiz-adv-x="805" 
d="M426 128l-87 -88l-311 311l311 309l87 -88l-160 -156h501v-132h-501z" />
    <glyph glyph-name="uni2191" unicode="&#x2191;" horiz-adv-x="686" 
d="M573 334l-164 169v-503h-132v502l-164 -168l-88 87l319 319l317 -319z" />
    <glyph glyph-name="uni2192" unicode="&#x2192;" horiz-adv-x="805" 
d="M456 32l-87 88l168 164h-502v132h503l-169 164l87 88l319 -317z" />
    <glyph glyph-name="uni2193" unicode="&#x2193;" horiz-adv-x="686" 
d="M342 -40l-317 319l88 87l164 -169v503h132v-502l164 168l88 -87z" />
    <glyph glyph-name="uni2196" unicode="&#x2196;" horiz-adv-x="665" 
d="M503 700v-124h-222l353 -351l-94 -94l-351 353v-222h-124v438h438z" />
    <glyph glyph-name="uni2197" unicode="&#x2197;" horiz-adv-x="665" 
d="M162 576v124h438v-438h-124v222l-351 -353l-94 94l353 351h-222z" />
    <glyph glyph-name="uni2198" unicode="&#x2198;" horiz-adv-x="665" 
d="M162 -1v124h222l-353 351l94 94l351 -353v222h124v-438h-438z" />
    <glyph glyph-name="uni2199" unicode="&#x2199;" horiz-adv-x="665" 
d="M503 123v-124h-438v438h124v-222l351 353l94 -94l-353 -351h222z" />
    <glyph glyph-name="uni21A4" unicode="&#x21a4;" horiz-adv-x="855" 
d="M342 40l-311 311l311 309l87 -88l-160 -156h369v185h132v-502h-132v185h-369l160 -156z" />
    <glyph glyph-name="uni21A5" unicode="&#x21a5;" horiz-adv-x="706" 
d="M609 0h-512v130h190v372l-164 -168l-88 87l319 319l317 -319l-88 -87l-164 169v-373h190v-130z" />
    <glyph glyph-name="uni21A6" unicode="&#x21a6;" horiz-adv-x="855" 
d="M513 40l-87 88l160 156h-369v-185h-132v502h132v-185h369l-160 156l87 88l311 -309z" />
    <glyph glyph-name="uni21A7" unicode="&#x21a7;" horiz-adv-x="706" 
d="M354 -40l-319 319l88 87l164 -168v372h-190v130h512v-130h-190v-373l164 169l88 -87z" />
    <glyph glyph-name="uni21B0" unicode="&#x21b0;" horiz-adv-x="830" 
d="M751 0h-132v284h-369l160 -156l-87 -88l-311 311l311 309l87 -88l-160 -156h501v-416z" />
    <glyph glyph-name="uni21B1" unicode="&#x21b1;" horiz-adv-x="830" 
d="M211 0h-132v416h501l-160 156l87 88l311 -309l-311 -311l-87 88l160 156h-369v-284z" />
    <glyph glyph-name="uni21B2" unicode="&#x21b2;" horiz-adv-x="830" 
d="M323 40l-311 309l311 311l87 -88l-160 -156h369v284h132v-416h-501l160 -156z" />
    <glyph glyph-name="uni21B3" unicode="&#x21b3;" horiz-adv-x="830" 
d="M507 40l-87 88l160 156h-501v416h132v-284h369l-160 156l87 88l311 -311z" />
    <glyph glyph-name="partialdiff" unicode="&#x2202;" horiz-adv-x="582" 
d="M285 -10q-112 0 -179.5 68.5t-67.5 182.5q0 105 67 174.5t158 69.5q84 0 127 -50q-12 82 -61.5 121t-112.5 39q-64 0 -113 -17v115q47 17 121 17q102 0 173 -55t103.5 -145t32.5 -208q0 -148 -68 -230t-180 -82zM283 109h5q49 0 81.5 33t32.5 98q0 60 -32.5 95.5
t-81.5 35.5h-10q-46 0 -76.5 -34.5t-30.5 -95.5q0 -63 32.5 -97.5t79.5 -34.5z" />
    <glyph glyph-name="Delta" unicode="&#x2206;" horiz-adv-x="703" 
d="M22 0v90l255 610h149l255 -610v-90h-659zM537 120l-185 441l-186 -441h371z" />
    <glyph glyph-name="product" unicode="&#x220f;" horiz-adv-x="728" 
d="M260 0h-132v585h-93v115h656v-115h-91v-585h-132v585h-208v-585z" />
    <glyph glyph-name="summation" unicode="&#x2211;" horiz-adv-x="564" 
d="M513 113v-113h-465v100l188 250l-188 255v95h465v-113h-306l180 -237l-184 -237h310z" />
    <glyph glyph-name="minus" unicode="&#x2212;" horiz-adv-x="628" 
d="M67 200v115h494v-115h-494z" />
    <glyph glyph-name="radical" unicode="&#x221a;" horiz-adv-x="688" 
d="M352 0h-171l-160 500h132l108 -365l104 565h307v-115h-202z" />
    <glyph glyph-name="infinity" unicode="&#x221e;" horiz-adv-x="871" 
d="M630 170q-67 0 -110.5 23.5t-82.5 74.5q-41 -51 -85 -74.5t-111 -23.5q-83 0 -138 54t-55 136t55 136t138 54q66 0 110 -24.5t86 -76.5q39 52 83 76.5t110 24.5q83 0 138 -54t55 -136t-55 -136t-138 -54zM245 275h5q57 0 111 84q-56 86 -111 86h-5q-30 0 -51 -22.5
t-21 -62.5t21 -62.5t51 -22.5zM616 275h5q31 0 54 23t23 62t-23 62t-54 23h-5q-53 0 -106 -83q30 -47 53.5 -67t52.5 -20z" />
    <glyph glyph-name="integral" unicode="&#x222b;" horiz-adv-x="436" 
d="M284 80q0 -96 -47.5 -138t-147.5 -42h-71v115h53q45 0 62.5 17.5t17.5 62.5v425q0 96 47.5 138t147.5 42h72v-115h-54q-45 0 -62.5 -17.5t-17.5 -62.5v-425z" />
    <glyph glyph-name="approxequal" unicode="&#x2248;" horiz-adv-x="628" 
d="M432 441h130v-40q0 -52 -39 -87.5t-96 -35.5q-39 0 -106 24t-83 24q-40 0 -40 -38h-130v40q0 52 40 87.5t97 35.5q45 0 108.5 -24t78.5 -24q40 0 40 38zM432 223h130v-40q0 -52 -39 -87.5t-96 -35.5q-39 0 -106 24t-83 24q-40 0 -40 -38h-130v40q0 52 40 87.5t97 35.5
q45 0 108.5 -24t78.5 -24q40 0 40 38z" />
    <glyph glyph-name="notequal" unicode="&#x2260;" horiz-adv-x="628" 
d="M561 100h-239l-26 -85h-123l26 85h-132v115h168l26 85h-194v115h230l26 85h123l-26 -85h141v-115h-177l-26 -85h203v-115z" />
    <glyph glyph-name="lessequal" unicode="&#x2264;" horiz-adv-x="619" 
d="M554 131l-494 117v160l494 117v-125l-327 -71l327 -71v-127zM60 0v113h494v-113h-494z" />
    <glyph glyph-name="greaterequal" unicode="&#x2265;" horiz-adv-x="619" 
d="M65 131v125l327 71l-327 71v127l494 -117v-160zM559 113v-113h-494v113h494z" />
    <glyph glyph-name="uni2460" unicode="&#x2460;" horiz-adv-x="840" 
d="M420 -39q-160 0 -275 114.5t-115 275.5t114.5 275.5t275.5 114.5t275.5 -114.5t114.5 -275.5t-114.5 -275.5t-275.5 -114.5zM420 48q123 0 210.5 89t87.5 214t-87.5 214t-210.5 89t-210.5 -89t-87.5 -214t87.5 -214t210.5 -89zM499 155h-105v256l-109 -90v126l125 103h89
v-395z" />
    <glyph glyph-name="uni2461" unicode="&#x2461;" horiz-adv-x="840" 
d="M420 -39q-160 0 -275 114.5t-115 275.5t114.5 275.5t275.5 114.5t275.5 -114.5t114.5 -275.5t-114.5 -275.5t-275.5 -114.5zM420 48q123 0 210.5 89t87.5 214t-87.5 214t-210.5 89t-210.5 -89t-87.5 -214t87.5 -214t210.5 -89zM574 155h-296v84l149 135q38 34 38 57
q0 15 -10.5 25.5t-26.5 10.5h-4q-16 0 -28 -13t-13 -30h-107q4 59 47.5 95t108.5 36q63 0 102 -36t39 -81q0 -33 -14.5 -56t-43.5 -50l-95 -87h154v-90z" />
    <glyph glyph-name="uni2462" unicode="&#x2462;" horiz-adv-x="840" 
d="M420 -39q-160 0 -275 114.5t-115 275.5t114.5 275.5t275.5 114.5t275.5 -114.5t114.5 -275.5t-114.5 -275.5t-275.5 -114.5zM420 48q123 0 210.5 89t87.5 214t-87.5 214t-210.5 89t-210.5 -89t-87.5 -214t87.5 -214t210.5 -89zM414 150q-64 0 -107.5 31t-43.5 86h108
q1 -13 13.5 -21.5t28.5 -8.5h5q19 0 31.5 11t12.5 28t-12 26.5t-31 9.5h-37v84h37q18 0 29 10t11 26t-10.5 26t-27.5 10h-5q-15 0 -25.5 -8.5t-12.5 -19.5h-108q0 54 43 84.5t106 30.5q61 0 104.5 -30.5t43.5 -82.5q0 -63 -55 -87q58 -27 58 -93q0 -53 -46 -82.5t-110 -29.5
z" />
    <glyph glyph-name="uni2463" unicode="&#x2463;" horiz-adv-x="840" 
d="M420 -39q-160 0 -275 114.5t-115 275.5t114.5 275.5t275.5 114.5t275.5 -114.5t114.5 -275.5t-114.5 -275.5t-275.5 -114.5zM420 48q123 0 210.5 89t87.5 214t-87.5 214t-210.5 89t-210.5 -89t-87.5 -214t87.5 -214t210.5 -89zM535 155h-97v62h-196v109l174 224h119v-249
h53v-84h-53v-62zM438 438l-105 -137h105v137z" />
    <glyph glyph-name="uni2464" unicode="&#x2464;" horiz-adv-x="840" 
d="M420 -39q-160 0 -275 114.5t-115 275.5t114.5 275.5t275.5 114.5t275.5 -114.5t114.5 -275.5t-114.5 -275.5t-275.5 -114.5zM420 48q123 0 210.5 89t87.5 214t-87.5 214t-210.5 89t-210.5 -89t-87.5 -214t87.5 -214t210.5 -89zM412 150q-64 0 -107.5 34.5t-47.5 90.5h112
q4 -16 16.5 -26.5t29.5 -10.5h4q20 0 33.5 14.5t13.5 34.5t-12.5 32.5t-32.5 12.5h-4q-24 0 -38 -17h-108l44 235h252v-88h-174l-14 -67q26 23 72 23q47 0 84 -33.5t37 -92.5q0 -65 -44.5 -103.5t-115.5 -38.5z" />
    <glyph glyph-name="uni2465" unicode="&#x2465;" horiz-adv-x="840" 
d="M420 -39q-160 0 -275 114.5t-115 275.5t114.5 275.5t275.5 114.5t275.5 -114.5t114.5 -275.5t-114.5 -275.5t-275.5 -114.5zM420 48q123 0 210.5 89t87.5 214t-87.5 214t-210.5 89t-210.5 -89t-87.5 -214t87.5 -214t210.5 -89zM566 288q0 -60 -42.5 -99t-109.5 -39
q-76 0 -121 49.5t-45 133.5q0 102 50.5 162t135.5 60q62 0 99 -33.5t39 -85.5h-104q-7 31 -39 31h-6q-30 0 -50.5 -27.5t-24.5 -67.5q32 40 91 40q55 0 91 -35t36 -89zM362 283q0 -19 13.5 -32t33.5 -13h4q20 0 33.5 13t13.5 33q0 19 -13 31t-34 12h-4q-19 0 -33 -13
t-14 -31z" />
    <glyph glyph-name="uni2466" unicode="&#x2466;" horiz-adv-x="840" 
d="M420 -39q-160 0 -275 114.5t-115 275.5t114.5 275.5t275.5 114.5t275.5 -114.5t114.5 -275.5t-114.5 -275.5t-275.5 -114.5zM420 48q123 0 210.5 89t87.5 214t-87.5 214t-210.5 89t-210.5 -89t-87.5 -214t87.5 -214t210.5 -89zM456 155h-113v13q0 169 114 292h-180v90
h299v-78q-120 -120 -120 -299v-18z" />
    <glyph glyph-name="uni2467" unicode="&#x2467;" horiz-adv-x="840" 
d="M420 -39q-160 0 -275 114.5t-115 275.5t114.5 275.5t275.5 114.5t275.5 -114.5t114.5 -275.5t-114.5 -275.5t-275.5 -114.5zM420 48q123 0 210.5 89t87.5 214t-87.5 214t-210.5 89t-210.5 -89t-87.5 -214t87.5 -214t210.5 -89zM422 150q-65 0 -107 30.5t-42 77.5
q0 32 18.5 56.5t50.5 34.5q-75 28 -75 98q0 47 45 77.5t110 30.5t109.5 -30.5t44.5 -77.5q0 -70 -76 -98q32 -10 50.5 -34.5t18.5 -56.5q0 -47 -41 -77.5t-106 -30.5zM419 467q-19 0 -32.5 -10t-13.5 -27t13.5 -27t32.5 -10h5q19 0 32.5 10t13.5 27t-13.5 27t-32.5 10h-5z
M463 273q0 15 -11.5 25.5t-27.5 10.5h-5q-16 0 -28 -10.5t-12 -25.5t12 -25t28 -10h5q16 0 27.5 10t11.5 25z" />
    <glyph glyph-name="uni2468" unicode="&#x2468;" horiz-adv-x="840" 
d="M420 -39q-160 0 -275 114.5t-115 275.5t114.5 275.5t275.5 114.5t275.5 -114.5t114.5 -275.5t-114.5 -275.5t-275.5 -114.5zM420 48q123 0 210.5 89t87.5 214t-87.5 214t-210.5 89t-210.5 -89t-87.5 -214t87.5 -214t210.5 -89zM480 422q0 19 -13.5 32t-33.5 13h-4
q-20 0 -33.5 -13t-13.5 -33q0 -19 13 -31t34 -12h4q19 0 33 13t14 31zM276 417q0 60 42.5 99t109.5 39q76 0 121 -49.5t45 -133.5q0 -102 -50.5 -162t-135.5 -60q-62 0 -99 33.5t-39 85.5h104q7 -31 39 -31h6q30 0 50.5 27.5t24.5 67.5q-32 -40 -91 -40q-55 0 -91 35t-36 89
z" />
    <glyph glyph-name="uni24EA" unicode="&#x24ea;" horiz-adv-x="840" 
d="M420 -39q-160 0 -275 114.5t-115 275.5t114.5 275.5t275.5 114.5t275.5 -114.5t114.5 -275.5t-114.5 -275.5t-275.5 -114.5zM420 48q123 0 210.5 89t87.5 214t-87.5 214t-210.5 89t-210.5 -89t-87.5 -214t87.5 -214t210.5 -89zM422 149q-86 0 -130 59t-44 143
q0 85 44 144t130 59t130 -59t44 -144q0 -84 -44 -143t-130 -59zM420 241h4q64 0 64 110q0 111 -64 111h-4q-64 0 -64 -111q0 -110 64 -110z" />
    <glyph glyph-name="uni24FF" unicode="&#x24ff;" horiz-adv-x="840" 
d="M810 350q0 -161 -114.5 -275.5t-275.5 -114.5q-160 0 -275 115t-115 275q0 161 114.5 275.5t275.5 114.5t275.5 -114.5t114.5 -275.5zM246 351q0 -84 44 -143t130 -59t130 59t44 143q0 85 -44 144t-130 59t-130 -59t-44 -144zM422 241h-4q-64 0 -64 110q0 111 64 111h4
q64 0 64 -111q0 -110 -64 -110z" />
    <glyph glyph-name="lozenge" unicode="&#x25ca;" horiz-adv-x="619" 
d="M250 700h124l230 -350l-230 -350h-124l-235 350zM312 121l152 225l-155 234l-152 -229z" />
    <glyph glyph-name="uni278A" unicode="&#x278a;" horiz-adv-x="840" 
d="M810 350q0 -161 -114.5 -275.5t-275.5 -114.5q-160 0 -275 115t-115 275q0 161 114.5 275.5t275.5 114.5t275.5 -114.5t114.5 -275.5zM381 155h105v395h-89l-125 -103v-126l109 90v-256z" />
    <glyph glyph-name="uni278B" unicode="&#x278b;" horiz-adv-x="840" 
d="M810 350q0 -161 -114.5 -275.5t-275.5 -114.5q-160 0 -275 115t-115 275q0 161 114.5 275.5t275.5 114.5t275.5 -114.5t114.5 -275.5zM279 155h296v90h-154l95 87q29 27 43.5 50t14.5 56q0 45 -39 81t-102 36q-65 0 -108.5 -36t-47.5 -95h107q1 17 13 30t28 13h4
q16 0 26.5 -10.5t10.5 -25.5q0 -23 -38 -57l-149 -135v-84z" />
    <glyph glyph-name="uni278C" unicode="&#x278c;" horiz-adv-x="840" 
d="M810 350q0 -161 -114.5 -275.5t-275.5 -114.5q-160 0 -275 115t-115 275q0 161 114.5 275.5t275.5 114.5t275.5 -114.5t114.5 -275.5zM265 267q0 -55 43.5 -86t107.5 -31t110 29.5t46 82.5q0 66 -58 93q55 24 55 87q0 52 -43.5 82.5t-104.5 30.5q-63 0 -106 -30.5
t-43 -84.5h108q2 11 12.5 19.5t25.5 8.5h5q17 0 27.5 -10t10.5 -26t-11 -26t-29 -10h-37v-84h37q19 0 31 -9.5t12 -26.5t-12.5 -28t-31.5 -11h-5q-16 0 -28.5 8.5t-13.5 21.5h-108z" />
    <glyph glyph-name="uni278D" unicode="&#x278d;" horiz-adv-x="840" 
d="M810 350q0 -161 -114.5 -275.5t-275.5 -114.5q-160 0 -275 115t-115 275q0 161 114.5 275.5t275.5 114.5t275.5 -114.5t114.5 -275.5zM424 155h97v62h53v84h-53v249h-119l-174 -224v-109h196v-62zM319 301l105 137v-137h-105z" />
    <glyph glyph-name="uni278E" unicode="&#x278e;" horiz-adv-x="840" 
d="M810 350q0 -161 -114.5 -275.5t-275.5 -114.5q-160 0 -275 115t-115 275q0 161 114.5 275.5t275.5 114.5t275.5 -114.5t114.5 -275.5zM250 275q4 -56 47.5 -90.5t107.5 -34.5q71 0 115.5 38.5t44.5 103.5q0 59 -37 92.5t-84 33.5q-46 0 -72 -23l14 67h174v88h-252
l-44 -235h108q14 17 38 17h4q20 0 32.5 -12.5t12.5 -32.5t-13.5 -34.5t-33.5 -14.5h-4q-17 0 -29.5 10.5t-16.5 26.5h-112z" />
    <glyph glyph-name="uni278F" unicode="&#x278f;" horiz-adv-x="840" 
d="M810 350q0 -161 -114.5 -275.5t-275.5 -114.5q-160 0 -275 115t-115 275q0 161 114.5 275.5t275.5 114.5t275.5 -114.5t114.5 -275.5zM414 150q67 0 109.5 39t42.5 99q0 54 -36 89t-91 35q-59 0 -91 -40q4 40 24.5 67.5t50.5 27.5h6q32 0 39 -31h104q-2 52 -39 85.5
t-99 33.5q-85 0 -135.5 -60t-50.5 -162q0 -84 45 -133.5t121 -49.5zM409 238q-20 0 -33.5 13t-13.5 32q0 18 14 31t33 13h4q21 0 34 -12t13 -31q0 -20 -13.5 -33t-33.5 -13h-4z" />
    <glyph glyph-name="uni2790" unicode="&#x2790;" horiz-adv-x="840" 
d="M810 350q0 -161 -114.5 -275.5t-275.5 -114.5q-160 0 -275 115t-115 275q0 161 114.5 275.5t275.5 114.5t275.5 -114.5t114.5 -275.5zM340 155h113v18q0 179 120 299v78h-299v-90h180q-114 -123 -114 -292v-13z" />
    <glyph glyph-name="uni2791" unicode="&#x2791;" horiz-adv-x="840" 
d="M810 350q0 -161 -114.5 -275.5t-275.5 -114.5q-160 0 -275 115t-115 275q0 161 114.5 275.5t275.5 114.5t275.5 -114.5t114.5 -275.5zM272 258q0 -47 42 -77.5t107 -30.5t106 30.5t41 77.5q0 32 -18.5 56.5t-50.5 34.5q76 28 76 98q0 47 -44.5 77.5t-109.5 30.5
t-110 -30.5t-45 -77.5q0 -70 75 -98q-32 -10 -50.5 -34.5t-18.5 -56.5zM372 430q0 17 13.5 27t32.5 10h5q19 0 32.5 -10t13.5 -27t-13.5 -27t-32.5 -10h-5q-19 0 -32.5 10t-13.5 27zM423 309q16 0 27.5 -10.5t11.5 -25.5t-11.5 -25t-27.5 -10h-5q-16 0 -28 10t-12 25
t12 25.5t28 10.5h5z" />
    <glyph glyph-name="uni2792" unicode="&#x2792;" horiz-adv-x="840" 
d="M810 350q0 -161 -114.5 -275.5t-275.5 -114.5q-160 0 -275 115t-115 275q0 161 114.5 275.5t275.5 114.5t275.5 -114.5t114.5 -275.5zM433 467q20 0 33.5 -13t13.5 -32q0 -18 -14 -31t-33 -13h-4q-21 0 -34 12t-13 31q0 20 13.5 33t33.5 13h4zM428 555q-67 0 -109.5 -39
t-42.5 -99q0 -54 36 -89t91 -35q59 0 91 40q-4 -40 -24.5 -67.5t-50.5 -27.5h-6q-32 0 -39 31h-104q2 -52 39 -85.5t99 -33.5q85 0 135.5 60t50.5 162q0 84 -45 133.5t-121 49.5z" />
    <glyph glyph-name="Checkbox_one" unicode="&#xe000;" horiz-adv-x="500" 
d="M50 150v400h400v-400h-400zM125 225h250v250h-250v-250z" />
    <glyph glyph-name="Checkbox_two" unicode="&#xe001;" horiz-adv-x="650" 
d="M600 75h-550v550h550v-550zM125 550v-400h400v400h-400z" />
    <glyph glyph-name="Checkbox_three" unicode="&#xe002;" horiz-adv-x="840" 
d="M70 0v700h700v-700h-700zM145 75h550v550h-550v-550z" />
    <glyph glyph-name="circle_one" unicode="&#xe003;" horiz-adv-x="540" 
d="M270 110q-99 0 -169.5 70.5t-70.5 169.5t70.5 169.5t169.5 70.5t169.5 -70.5t70.5 -169.5t-70.5 -169.5t-169.5 -70.5zM270 185q68 0 116.5 48.5t48.5 116.5t-48.5 116.5t-116.5 48.5t-116.5 -48.5t-48.5 -116.5t48.5 -116.5t116.5 -48.5z" />
    <glyph glyph-name="circle_two" unicode="&#xe004;" horiz-adv-x="690" 
d="M660 350q0 -130 -92.5 -222.5t-222.5 -92.5t-222.5 92.5t-92.5 222.5t92.5 222.5t222.5 92.5t222.5 -92.5t92.5 -222.5zM105 350q0 -99 70.5 -169.5t169.5 -70.5t169.5 70.5t70.5 169.5t-70.5 169.5t-169.5 70.5t-169.5 -70.5t-70.5 -169.5z" />
    <glyph glyph-name="circle_three" unicode="&#xe005;" horiz-adv-x="840" 
d="M420 -40q-160 0 -275 115t-115 275q0 161 114.5 275.5t275.5 114.5t275.5 -114.5t114.5 -275.5t-114.5 -275.5t-275.5 -114.5zM420 35q130 0 222.5 92.5t92.5 222.5t-92.5 222.5t-222.5 92.5t-222.5 -92.5t-92.5 -222.5t92.5 -222.5t222.5 -92.5z" />
    <glyph glyph-name="bullet_one" unicode="&#xe006;" 
d="M300 110q-99 0 -169.5 70.5t-70.5 169.5t70.5 169.5t169.5 70.5t169.5 -70.5t70.5 -169.5t-70.5 -169.5t-169.5 -70.5z" />
    <glyph glyph-name="bullet_two" unicode="&#xe007;" horiz-adv-x="660" 
d="M630 350q0 -124 -88 -212t-212 -88t-212 88t-88 212t88 212t212 88t212 -88t88 -212z" />
    <glyph glyph-name="bullet_three" unicode="&#xe008;" horiz-adv-x="780" 
d="M390 -10q-148 0 -254 106t-106 254t106 254t254 106t254 -106t106 -254t-106 -254t-254 -106z" />
    <glyph glyph-name="Pyramide_one" unicode="&#xe009;" horiz-adv-x="500" 
d="M50 150v400h400v-400h-400zM125 225h250v250h-250v-250zM200 300v100h100v-100h-100z" />
    <glyph glyph-name="Pyramide_two" unicode="&#xe00a;" horiz-adv-x="650" 
d="M600 75h-550v550h550v-550zM125 550v-400h400v400h-400zM450 225h-250v250h250v-250zM275 400v-100h100v100h-100z" />
    <glyph glyph-name="Pyramide_three" unicode="&#xe00b;" horiz-adv-x="840" 
d="M70 0v700h700v-700h-700zM145 75h550v550h-550v-550zM220 150v400h400v-400h-400zM295 225h250v250h-250v-250zM470 300h-100v100h100v-100z" />
    <glyph glyph-name="Square_one" unicode="&#xe00c;" horiz-adv-x="500" 
d="M50 150v400h400v-400h-400z" />
    <glyph glyph-name="Square_two" unicode="&#xe00d;" horiz-adv-x="650" 
d="M600 75h-550v550h550v-550z" />
    <glyph glyph-name="Square_three" unicode="&#xe00e;" horiz-adv-x="840" 
d="M70 0v700h700v-700h-700z" />
    <glyph glyph-name="Tower_one" unicode="&#xe010;" horiz-adv-x="540" 
d="M270 110q-99 0 -169.5 70.5t-70.5 169.5t70.5 169.5t169.5 70.5t169.5 -70.5t70.5 -169.5t-70.5 -169.5t-169.5 -70.5zM270 185q68 0 116.5 48.5t48.5 116.5t-48.5 116.5t-116.5 48.5t-116.5 -48.5t-48.5 -116.5t48.5 -116.5t116.5 -48.5zM270 260q-37 0 -63.5 26.5
t-26.5 63.5t26.5 63.5t63.5 26.5q38 0 64 -26t26 -64q0 -37 -26.5 -63.5t-63.5 -26.5z" />
    <glyph glyph-name="Tower_two" unicode="&#xe011;" horiz-adv-x="690" 
d="M660 350q0 -130 -92.5 -222.5t-222.5 -92.5t-222.5 92.5t-92.5 222.5t92.5 222.5t222.5 92.5t222.5 -92.5t92.5 -222.5zM105 350q0 -99 70.5 -169.5t169.5 -70.5t169.5 70.5t70.5 169.5t-70.5 169.5t-169.5 70.5t-169.5 -70.5t-70.5 -169.5zM510 350q0 -68 -48.5 -116.5
t-116.5 -48.5t-116.5 48.5t-48.5 116.5t48.5 116.5t116.5 48.5t116.5 -48.5t48.5 -116.5zM255 350q0 -37 26.5 -63.5t63.5 -26.5t63.5 26.5t26.5 63.5q0 38 -26.5 64t-63.5 26t-63.5 -26.5t-26.5 -63.5z" />
    <glyph glyph-name="Tower_three" unicode="&#xe012;" horiz-adv-x="840" 
d="M420 -40q-160 0 -275 115t-115 275q0 161 114.5 275.5t275.5 114.5t275.5 -114.5t114.5 -275.5t-114.5 -275.5t-275.5 -114.5zM420 35q130 0 222.5 92.5t92.5 222.5t-92.5 222.5t-222.5 92.5t-222.5 -92.5t-92.5 -222.5t92.5 -222.5t222.5 -92.5zM420 110
q-99 0 -169.5 70.5t-70.5 169.5t70.5 169.5t169.5 70.5t169.5 -70.5t70.5 -169.5t-70.5 -169.5t-169.5 -70.5zM420 185q68 0 116.5 48.5t48.5 116.5t-48.5 116.5t-116.5 48.5t-116.5 -48.5t-48.5 -116.5t48.5 -116.5t116.5 -48.5zM420 260q-37 0 -63.5 26.5t-26.5 63.5
t26.5 63.5t63.5 26.5q38 0 64 -26t26 -64q0 -37 -26.5 -63.5t-63.5 -26.5z" />
    <glyph glyph-name="commaaccent" unicode="&#xf6c3;" horiz-adv-x="187" 
d="M43 -310h-28v75h23q54 0 54 40h-52v130h130v-130q0 -50 -35.5 -82.5t-91.5 -32.5z" />
    <glyph glyph-name="f_f" unicode="&#xfb00;" horiz-adv-x="731" 
d="M253 0h-130v395h-102v105h102v70q0 130 130 130h143v-108h-88q-34 0 -44.5 -10.5t-10.5 -44.5v-37h205v70q0 130 130 130h143v-108h-88q-34 0 -44.5 -10.5t-10.5 -44.5v-37h118v-105h-118v-395h-130v395h-205v-395z" />
    <glyph glyph-name="fi" unicode="&#xfb01;" horiz-adv-x="655" 
d="M453 565v135h140v-135h-140zM253 0h-130v395h-102v105h102v70q0 130 130 130h143v-108h-88q-34 0 -44.5 -10.5t-10.5 -44.5v-37h335v-500h-130v395h-205v-395z" />
    <glyph glyph-name="fl" unicode="&#xfb02;" horiz-adv-x="655" 
d="M253 0h-130v395h-102v105h102v70q0 130 130 130h335v-700h-130v592h-150q-34 0 -44.5 -10.5t-10.5 -44.5v-37h118v-105h-118v-395z" />
    <glyph glyph-name="f_f_i" unicode="&#xfb03;" horiz-adv-x="990" 
d="M788 565v135h140v-135h-140zM253 0h-130v395h-102v105h102v70q0 130 130 130h143v-108h-88q-34 0 -44.5 -10.5t-10.5 -44.5v-37h205v70q0 130 130 130h143v-108h-88q-34 0 -44.5 -10.5t-10.5 -44.5v-37h335v-500h-130v395h-205v-395h-130v395h-205v-395z" />
    <glyph glyph-name="f_f_l" unicode="&#xfb04;" horiz-adv-x="990" 
d="M253 0h-130v395h-102v105h102v70q0 130 130 130h143v-108h-88q-34 0 -44.5 -10.5t-10.5 -44.5v-37h205v70q0 130 130 130h335v-700h-130v592h-150q-34 0 -44.5 -10.5t-10.5 -44.5v-37h118v-105h-118v-395h-130v395h-205v-395z" />
    <glyph glyph-name="glyph488" horiz-adv-x="264" 
d="M62 565v135h140v-135h-140zM67 0v500h130v-500h-130z" />
    <glyph glyph-name="glyph489" horiz-adv-x="283" 
d="M183 766h-79l25 135h150zM140 530q-42 0 -73.5 30.5t-31.5 74.5q0 41 32 73t73 32q44 0 74.5 -31.5t30.5 -73.5q0 -45 -30 -75t-75 -30zM142 679q-18 0 -31 -13t-13 -31t13 -31t31 -13t30.5 13t12.5 31t-12.5 31t-30.5 13z" />
    <glyph glyph-name="glyph490" horiz-adv-x="170" 
d="M20 -195v130h130v-130h-130z" />
    <glyph glyph-name="glyph491" horiz-adv-x="778" 
d="M695 588q7 19 -2 39t-32 26q-12 -22 1 -42t33 -23zM530 508q6 -6 35 1q14 5 14 34q-28 28 -57 28q-5 -15 -3 -35t11 -28zM118 236q83 -13 111 -10q-5 13 -13 44t-16 47q-10 -9 -29.5 -25t-31.5 -28.5t-21 -27.5zM481 435q-48 -11 -117 -47t-109 -46q6 -22 12.5 -50
t10 -47t4.5 -21q33 2 110 25.5t131 19.5q-3 18 -10 43t-9 34q-3 13 -4.5 29t-2.5 24t-5 18t-11 18zM402 -32q-15 -20 -37 -5q-8 4 -17.5 14.5t-16.5 20t-18.5 26t-15.5 22.5q-11 15 -23.5 42t-18.5 31q-21 -63 -38 -103t-25 -39h-13t-12 5t-5 15q2 29 19.5 80.5t42.5 95.5
q-7 1 -51.5 4.5t-82 12t-60.5 26.5q-5 6 -10 14q6 7 12.5 12.5t10.5 8t12.5 7.5t12.5 8q14 19 52 47.5t53 50.5l-44 24q-44 23 -50 42q2 2 9 19q9 8 91 -34q1 7 2 25t2.5 29.5t5.5 16.5q1 4 10.5 7t18.5 5l8 1q11 -7 11 -15q1 -8 -5.5 -41t-4.5 -50q23 0 47.5 11t50.5 29
t38 23q4 1 52 13.5t73 20.5q-19 34 -20 72.5t17 60.5q79 1 111.5 -34t15.5 -85q19 2 40.5 14t24.5 24q-10 9 -23.5 16.5t-21.5 14.5t-13 21q-23 26 -14.5 54t41.5 40q45 16 73.5 -14t21.5 -83q27 13 23 114q33 4 67 -2.5t47 -17.5q-3 -27 -4 -28q-13 -7 -32.5 -6.5
t-31.5 3.5q2 -43 -18 -75t-59 -29q-10 -33 -35 -55t-53.5 -29.5t-59 -11.5t-51.5 0l4 -12q3 -11 8 -30t11 -42.5t12 -53t9 -56.5q58 -65 81 -86q46 -41 60 -78q9 -24 -17 -29q-22 13 -41.5 32t-44 47t-41.5 45q-3 -39 10.5 -103.5t14.5 -70.5q-14 -11 -27 -12t-15 9
q-13 22 -21.5 67.5t-12.5 89.5t-5 48q-33 2 -223 -44q-1 -28 12.5 -55.5t30.5 -47t36 -48.5t27 -56z" />
    <glyph glyph-name="glyph492" horiz-adv-x="386" 
d="M238 -145q-59 0 -99.5 33.5t-40.5 91.5q0 52 36 90q-81 17 -81 109v342q0 97 81 114q-36 39 -36 85q0 58 40.5 91.5t99.5 33.5h115v-105h-82q-20 0 -31.5 -10t-11.5 -26v-8q0 -16 11.5 -26t31.5 -10h17v-105h-43q-62 0 -62 -58v-294q0 -58 62 -58h43v-105h-18
q-19 0 -30.5 -9.5t-11.5 -26.5v-8q0 -17 11.5 -26.5t30.5 -9.5h83v-105h-115z" />
    <glyph glyph-name="glyph493" horiz-adv-x="396" 
d="M294 -20q0 -58 -40.5 -91.5t-99.5 -33.5h-115v105h83q19 0 30.5 9.5t11.5 26.5v8q0 17 -11.5 26.5t-30.5 9.5h-18v105h43q62 0 62 58v294q0 58 -62 58h-43v105h17q20 0 31.5 10t11.5 26v8q0 16 -11.5 26t-31.5 10h-82v105h115q59 0 99.5 -33.5t40.5 -91.5q0 -46 -36 -85
q81 -17 81 -114v-342q0 -92 -81 -109q36 -38 36 -90z" />
    <glyph glyph-name="glyph494" horiz-adv-x="2190" 
d="M1875 710q139 0 207 -66t68 -189v-455h-135v435q0 81 -33 118t-102 37h-10q-69 0 -102 -37t-33 -118v-435h-135v455q0 123 68 189t207 66zM1070 120h165q50 0 77.5 22.5t27.5 66.5q0 88 -105 88h-165v-177zM50 0v700h135v-580h400q55 0 84.5 21.5t29.5 56.5
q0 32 -17 49.5t-62 26.5l-125 26q-180 37 -180 200q0 82 64.5 141t185.5 59h680q98 0 156.5 -52t58.5 -129q0 -62 -32.5 -105t-85.5 -59q58 -12 95.5 -56.5t37.5 -112.5q0 -80 -62 -133t-158 -53h-320v413h290q100 0 100 84q0 83 -100 83h-655q-56 0 -88 -20t-32 -57
q0 -33 19.5 -49.5t65.5 -25.5l105 -21q194 -39 194 -202q0 -90 -65 -147.5t-189 -57.5h-530z" />
    <glyph glyph-name="glyph495" horiz-adv-x="2057" 
d="M484 0l-88 350l-83 -350h-146l-153 500h131l100 -371l81 371h139l87 -368l95 368h131l100 -371l81 371h139l87 -368l95 368h131l100 -371l81 371h139l87 -368l95 368h126l-143 -500h-146l-88 350l-83 -350h-146l-88 287l-82 -287h-146l-88 350l-83 -350h-146l-88 287
l-82 -287h-146z" />
    <glyph glyph-name="glyph496" horiz-adv-x="604" 
d="M302 -10q-114 0 -184.5 73t-70.5 187t70.5 187t184.5 73t184.5 -73t70.5 -187t-70.5 -187t-184.5 -73zM306 95q59 0 90 44.5t31 110.5t-31 110.5t-90 44.5h-8q-59 0 -90 -44.5t-31 -110.5t31 -110.5t90 -44.5h8z" />
    <glyph glyph-name="glyph497" horiz-adv-x="407" 
d="M328 0h-123v326l-164 -153v143l190 184h97v-500z" />
    <glyph glyph-name="glyph498" horiz-adv-x="496" 
d="M434 0h-380v123l229 181q31 25 31 51q0 22 -17 36t-44 14q-69 0 -69 -74h-130q0 81 56.5 130t144.5 49q87 0 138 -40.5t51 -105.5q0 -46 -24 -82.5t-84 -80.5l-129 -96h227v-105z" />
    <glyph glyph-name="glyph499" horiz-adv-x="588" 
d="M286 -210q-112 0 -180 55t-68 148h130q5 -44 34 -71t79 -27h10q57 0 86.5 31.5t29.5 73.5q0 47 -34.5 72.5t-92.5 25.5h-47v105h42q58 0 93 27.5t35 74.5q0 42 -30.5 71t-76.5 29h-10q-42 0 -71.5 -27t-33.5 -73h-130q0 89 68.5 147t171.5 58q109 0 175.5 -56.5
t66.5 -138.5q0 -60 -33.5 -103.5t-89.5 -58.5q57 -15 92.5 -59.5t35.5 -103.5q0 -95 -70 -147.5t-182 -52.5z" />
    <glyph glyph-name="glyph500" horiz-adv-x="633" 
d="M500 -200h-127v200h-337v127l320 373h144v-395h102v-105h-102v-200zM373 105v237l-206 -237h206z" />
    <glyph glyph-name="glyph501" horiz-adv-x="583" 
d="M285 -210q-107 0 -178 57t-82 148h130q11 -47 44.5 -73.5t83.5 -26.5h6q51 0 84.5 33t33.5 88t-33.5 86t-84.5 31h-6q-58 0 -112 -58h-122l86 425h395v-105h-295l-43 -205q20 21 55 34.5t71 13.5q97 0 158 -60.5t61 -156.5q0 -104 -68.5 -167.5t-183.5 -63.5z" />
    <glyph glyph-name="glyph502" horiz-adv-x="631" 
d="M573 230q0 -100 -68 -170t-187 -70q-128 0 -198 88t-70 249q0 171 90 277t224 106q89 0 151 -51.5t73 -138.5h-130q-5 37 -30 61t-70 24h-8q-30 0 -58.5 -13t-54.5 -40t-44.5 -75t-23.5 -112q23 44 71 69.5t107 25.5q95 0 160.5 -63.5t65.5 -166.5zM188 225
q0 -57 35 -93.5t92 -36.5h8q53 0 86.5 37.5t33.5 92.5t-33.5 92.5t-86.5 37.5h-8q-55 0 -91 -36.5t-36 -93.5z" />
    <glyph glyph-name="glyph503" horiz-adv-x="550" 
d="M271 -200h-136v65q0 361 255 530h-370v105h505v-110q-254 -165 -254 -525v-65z" />
    <glyph glyph-name="glyph504" horiz-adv-x="588" 
d="M294 -10q-108 0 -168.5 55t-60.5 135q0 116 118 157q-57 20 -94.5 68t-37.5 115q0 77 64.5 133.5t178.5 56.5t178.5 -56.5t64.5 -133.5q0 -67 -37.5 -115t-94.5 -68q118 -41 118 -157q0 -80 -60.5 -135t-168.5 -55zM289 605q-45 0 -76.5 -30.5t-31.5 -76.5
q0 -44 31.5 -73t76.5 -29h10q45 0 76.5 29t31.5 73q0 46 -31.5 76.5t-76.5 30.5h-10zM393 195q0 43 -27 69.5t-67 26.5h-10q-40 0 -67 -26.5t-27 -69.5q0 -45 27 -72.5t67 -27.5h10q40 0 67 27.5t27 72.5z" />
    <glyph glyph-name="glyph505" horiz-adv-x="617" 
d="M433 275q0 57 -35 93.5t-92 36.5h-8q-53 0 -86.5 -37.5t-33.5 -92.5t33.5 -92.5t86.5 -37.5h8q55 0 91 36.5t36 93.5zM257 -210q-89 0 -151 51.5t-73 138.5h130q5 -37 30 -61t70 -24h8q30 0 58.5 13t54.5 40t44.5 75t23.5 112q-23 -44 -71 -69.5t-107 -25.5
q-95 0 -160.5 63.5t-65.5 166.5q0 100 68 170t187 70q128 0 198 -88t70 -249q0 -171 -90 -277t-224 -106z" />
    <glyph glyph-name="glyph506" horiz-adv-x="420" 
d="M210 300q-86 0 -130 59t-44 143q0 85 44 144t130 59t130 -59t44 -144q0 -84 -44 -143t-130 -59zM208 392h4q64 0 64 110q0 111 -64 111h-4q-64 0 -64 -111q0 -110 64 -110z" />
    <glyph glyph-name="glyph507" horiz-adv-x="301" 
d="M244 305h-105v256l-109 -90v126l125 103h89v-395z" />
    <glyph glyph-name="glyph508" horiz-adv-x="374" 
d="M334 305h-296v84l149 135q38 34 38 57q0 15 -10.5 25.5t-26.5 10.5h-4q-16 0 -28 -13t-13 -30h-107q4 59 47.5 95t108.5 36q63 0 102 -36t39 -81q0 -33 -14.5 -56t-43.5 -50l-95 -87h154v-90z" />
    <glyph glyph-name="glyph509" horiz-adv-x="378" 
d="M183 300q-64 0 -107.5 31t-43.5 86h108q1 -13 13.5 -21.5t28.5 -8.5h5q19 0 31.5 11t12.5 28t-12 26.5t-31 9.5h-37v84h37q18 0 29 10t11 26t-10 26t-28 10h-5q-15 0 -25.5 -8.5t-12.5 -19.5h-108q0 54 43 84.5t106 30.5q61 0 104.5 -30.5t43.5 -82.5q0 -63 -55 -87
q58 -27 58 -93q0 -53 -46 -82.5t-110 -29.5z" />
    <glyph glyph-name="glyph510" horiz-adv-x="406" 
d="M321 306h-97v62h-196v109l174 224h119v-249h53v-84h-53v-62zM224 589l-105 -137h105v137z" />
    <glyph glyph-name="glyph511" horiz-adv-x="381" 
d="M182 299q-64 0 -107.5 34.5t-47.5 90.5h112q4 -16 16.5 -26.5t29.5 -10.5h4q20 0 33.5 14.5t13.5 34.5t-12.5 32.5t-32.5 12.5h-4q-24 0 -38 -17h-108l44 235h252v-88h-174l-14 -67q26 23 72 23q47 0 84 -33.5t37 -92.5q0 -65 -44.5 -103.5t-115.5 -38.5z" />
    <glyph glyph-name="glyph512" horiz-adv-x="395" 
d="M354 439q0 -60 -42.5 -99t-109.5 -39q-76 0 -121 49.5t-45 133.5q0 102 50.5 162t135.5 60q62 0 99 -33.5t39 -85.5h-104q-7 31 -39 31h-6q-30 0 -50.5 -27.5t-24.5 -67.5q32 40 91 40q55 0 91 -35t36 -89zM150 434q0 -19 13.5 -32t33.5 -13h4q20 0 33.5 13t13.5 33
q0 19 -13 31t-34 12h-4q-19 0 -33 -13t-14 -31z" />
    <glyph glyph-name="glyph513" horiz-adv-x="344" 
d="M203 306h-113v13q0 169 114 292h-180v90h299v-78q-120 -120 -120 -299v-18z" />
    <glyph glyph-name="glyph514" horiz-adv-x="384" 
d="M193 301q-65 0 -107 30.5t-42 77.5q0 32 18.5 56.5t50.5 34.5q-75 28 -75 98q0 47 45 77.5t110 30.5t109.5 -30.5t44.5 -77.5q0 -70 -76 -98q32 -10 50.5 -34.5t18.5 -56.5q0 -47 -41 -77.5t-106 -30.5zM190 618q-19 0 -32.5 -10t-13.5 -27t13.5 -27t32.5 -10h5
q19 0 32.5 10t13.5 27t-13.5 27t-32.5 10h-5zM234 424q0 15 -11.5 25.5t-27.5 10.5h-5q-16 0 -28 -10.5t-12 -25.5t12 -25t28 -10h5q16 0 27.5 10t11.5 25z" />
    <glyph glyph-name="glyph515" horiz-adv-x="396" 
d="M246 573q0 19 -13.5 32t-33.5 13h-4q-20 0 -33.5 -13t-13.5 -33q0 -19 13 -31t34 -12h4q19 0 33 13t14 31zM42 568q0 60 42.5 99t109.5 39q76 0 121 -49.5t45 -133.5q0 -102 -50.5 -162t-135.5 -60q-62 0 -99 33.5t-39 85.5h104q7 -31 39 -31h6q30 0 50.5 27.5t24.5 67.5
q-32 -40 -91 -40q-55 0 -91 35t-36 89z" />
    <glyph glyph-name="glyph516" horiz-adv-x="420" 
d="M210 -4q-86 0 -130 59t-44 143q0 85 44 144t130 59t130 -59t44 -144q0 -84 -44 -143t-130 -59zM208 88h4q64 0 64 110q0 111 -64 111h-4q-64 0 -64 -111q0 -110 64 -110z" />
    <glyph glyph-name="glyph517" horiz-adv-x="301" 
d="M244 0h-105v256l-109 -90v126l125 103h89v-395z" />
    <glyph glyph-name="glyph518" horiz-adv-x="374" 
d="M334 0h-296v84l149 135q38 34 38 57q0 15 -10.5 25.5t-26.5 10.5h-4q-16 0 -28 -13t-13 -30h-107q4 59 47.5 95t108.5 36q63 0 102 -36t39 -81q0 -33 -14.5 -56t-43.5 -50l-95 -87h154v-90z" />
    <glyph glyph-name="glyph519" horiz-adv-x="378" 
d="M183 -5q-64 0 -107.5 31t-43.5 86h108q1 -13 13.5 -21.5t28.5 -8.5h5q19 0 31.5 11t12.5 28t-12 26.5t-31 9.5h-37v84h37q18 0 29 10t11 26q0 15 -10 25.5t-28 10.5h-5q-15 0 -25.5 -8.5t-12.5 -19.5h-108q0 54 43 84.5t106 30.5q61 0 104.5 -30.5t43.5 -82.5
q0 -63 -55 -87q58 -27 58 -93q0 -53 -46 -82.5t-110 -29.5z" />
    <glyph glyph-name="glyph520" horiz-adv-x="406" 
d="M321 0h-97v62h-196v109l174 224h119v-249h53v-84h-53v-62zM224 283l-105 -137h105v137z" />
    <glyph glyph-name="glyph521" horiz-adv-x="381" 
d="M182 -5q-64 0 -107.5 34.5t-47.5 90.5h112q4 -16 16.5 -26.5t29.5 -10.5h4q20 0 33.5 14.5t13.5 34.5t-12.5 32.5t-32.5 12.5h-4q-24 0 -38 -17h-108l44 235h252v-88h-174l-14 -67q26 23 72 23q47 0 84 -33.5t37 -92.5q0 -65 -44.5 -103.5t-115.5 -38.5z" />
    <glyph glyph-name="glyph522" horiz-adv-x="395" 
d="M354 133q0 -60 -42.5 -99t-109.5 -39q-76 0 -121 49.5t-45 133.5q0 102 50.5 162t135.5 60q62 0 99 -33.5t39 -85.5h-104q-7 31 -39 31h-6q-30 0 -50.5 -27.5t-24.5 -67.5q32 40 91 40q55 0 91 -35t36 -89zM150 128q0 -19 13.5 -32t33.5 -13h4q20 0 33.5 13t13.5 33
q0 19 -13 31t-34 12h-4q-19 0 -33 -13t-14 -31z" />
    <glyph glyph-name="glyph523" horiz-adv-x="344" 
d="M202 0h-113v13q0 169 114 292h-180v90h299v-78q-120 -120 -120 -299v-18z" />
    <glyph glyph-name="glyph524" horiz-adv-x="384" 
d="M193 -10q-65 0 -107 30.5t-42 77.5q0 32 18.5 56.5t50.5 34.5q-75 28 -75 98q0 47 45 77.5t110 30.5t109.5 -30.5t44.5 -77.5q0 -70 -76 -98q32 -10 50.5 -34.5t18.5 -56.5q0 -47 -41 -77.5t-106 -30.5zM190 307q-19 0 -32.5 -10t-13.5 -27t13.5 -27t32.5 -10h5
q19 0 32.5 10t13.5 27t-13.5 27t-32.5 10h-5zM234 113q0 15 -11.5 25.5t-27.5 10.5h-5q-16 0 -28 -10.5t-12 -25.5t12 -25t28 -10h5q16 0 27.5 10t11.5 25z" />
    <glyph glyph-name="glyph525" horiz-adv-x="396" 
d="M246 267q0 19 -13.5 32t-33.5 13h-4q-20 0 -33.5 -13t-13.5 -33q0 -19 13 -31t34 -12h4q19 0 33 13t14 31zM42 262q0 60 42.5 99t109.5 39q76 0 121 -49.5t45 -133.5q0 -102 -50.5 -162t-135.5 -60q-62 0 -99 33.5t-39 85.5h104q7 -31 39 -31h6q30 0 50.5 27.5t24.5 67.5
q-32 -40 -91 -40q-55 0 -91 35t-36 89z" />
    <glyph glyph-name="glyph526" horiz-adv-x="670" 
d="M335 -10q-136 0 -210.5 97.5t-74.5 262.5q0 164 76 262t209 98t209 -98t76 -262q0 -165 -74.5 -262.5t-210.5 -97.5zM183 350q0 -53 7 -92l258 278q-38 59 -109 59h-8q-148 0 -148 -245zM331 105h8q148 0 148 245q0 44 -4 75l-253 -272q36 -48 101 -48z" />
    <glyph glyph-name="glyph527" horiz-adv-x="605" 
d="M303 -9q-114 0 -184.5 73t-70.5 187t70.5 187t184.5 73t184.5 -73t70.5 -187t-70.5 -187t-184.5 -73zM178 251q0 -35 9 -65l186 200q-28 20 -66 20h-8q-59 0 -90 -44.5t-31 -110.5zM299 96h8q59 0 90 44.5t31 110.5q0 36 -8 61l-184 -198q28 -18 63 -18z" />
    <glyph glyph-name="glyph528" 
d="M301 710q127 0 197.5 -95t70.5 -265t-70.5 -265t-197.5 -95t-197.5 95t-70.5 265t70.5 265t197.5 95zM167 350q0 -40 5 -80l233 252q-34 73 -100 73h-8q-62 0 -96 -64t-34 -181zM297 105h8q62 0 96 64t34 181q0 19 -2 53l-226 -244q34 -54 90 -54z" />
    <glyph glyph-name="glyph529" horiz-adv-x="420" 
d="M210 -120q-86 0 -130 59t-44 143q0 85 44 144t130 59t130 -59t44 -144q0 -84 -44 -143t-130 -59zM144 82q0 -20 1 -29l110 118q-17 22 -43 22h-4q-64 0 -64 -111zM208 -28h4q64 0 64 110q0 20 -1 29l-110 -118q17 -21 43 -21z" />
    <glyph glyph-name="glyph530" horiz-adv-x="420" 
d="M210 410q-86 0 -130 59t-44 143q0 85 44 144t130 59t130 -59t44 -144q0 -84 -44 -143t-130 -59zM144 612q0 -20 1 -29l110 118q-17 22 -43 22h-4q-64 0 -64 -111zM208 502h4q64 0 64 110q0 20 -1 29l-110 -118q17 -21 43 -21z" />
    <glyph glyph-name="glyph531" horiz-adv-x="420" 
d="M210 301q-86 0 -130 59t-44 143q0 85 44 144t130 59t130 -59t44 -144q0 -84 -44 -143t-130 -59zM144 503q0 -20 1 -29l110 118q-17 22 -43 22h-4q-64 0 -64 -111zM208 393h4q64 0 64 110q0 20 -1 29l-110 -118q17 -21 43 -21z" />
    <glyph glyph-name="glyph532" horiz-adv-x="420" 
d="M210 -4q-86 0 -130 59t-44 143q0 85 44 144t130 59t130 -59t44 -144q0 -84 -44 -143t-130 -59zM144 198q0 -20 1 -29l110 118q-17 22 -43 22h-4q-64 0 -64 -111zM208 88h4q64 0 64 110q0 20 -1 29l-110 -118q17 -21 43 -21z" />
    <glyph glyph-name="glyph533" horiz-adv-x="422" 
d="M66 298v105h290v-105h-290z" />
    <glyph glyph-name="glyph534" horiz-adv-x="602" 
d="M66 298v105h470v-105h-470z" />
    <glyph glyph-name="glyph535" horiz-adv-x="922" 
d="M66 298v105h790v-105h-790z" />
    <glyph glyph-name="glyph536" horiz-adv-x="378" 
d="M328 585q-65 -20 -105 -78.5t-40 -156.5t40.5 -156.5t104.5 -78.5v-125q-118 5 -199 110.5t-81 248.5q0 94 36.5 175.5t101.5 132t142 53.5v-125z" />
    <glyph glyph-name="glyph537" horiz-adv-x="378" 
d="M195 350q0 98 -40 156.5t-105 78.5v125q77 -3 142 -53.5t101.5 -132t36.5 -175.5q0 -143 -81 -248.5t-199 -110.5v125q64 20 104.5 78.5t40.5 156.5z" />
    <glyph glyph-name="glyph538" horiz-adv-x="361" 
d="M85 0v700h220v-120h-85v-460h85v-120h-220z" />
    <glyph glyph-name="glyph539" horiz-adv-x="361" 
d="M276 700v-700h-220v120h85v460h-85v120h220z" />
    <glyph glyph-name="glyph540" horiz-adv-x="394" 
d="M163 362v-24q81 0 81 -83v-70q0 -41 11 -53t48 -12h40v-120h-95q-134 0 -134 155v48q0 38 -10.5 51.5t-40.5 13.5h-15v164h15q30 0 40.5 13.5t10.5 51.5v48q0 155 134 155h95v-120h-40q-37 0 -48 -12t-11 -53v-70q0 -83 -81 -83z" />
    <glyph glyph-name="glyph541" horiz-adv-x="394" 
d="M231 338v24q-81 0 -81 83v70q0 41 -11 53t-48 12h-40v120h95q134 0 134 -155v-48q0 -38 10.5 -51.5t40.5 -13.5h15v-164h-15q-30 0 -40.5 -13.5t-10.5 -51.5v-48q0 -155 -134 -155h-95v120h40q37 0 48 12t11 53v70q0 83 81 83z" />
    <glyph glyph-name="glyph542" horiz-adv-x="396" 
d="M337 135h-150l-145 215l145 215h150l-145 -215z" />
    <glyph glyph-name="glyph543" horiz-adv-x="396" 
d="M209 135h-150l145 215l-145 215h150l145 -215z" />
    <glyph glyph-name="glyph544" horiz-adv-x="637" 
d="M337 135h-150l-145 215l145 215h150l-145 -215zM578 135h-150l-145 215l145 215h150l-145 -215z" />
    <glyph glyph-name="glyph545" horiz-adv-x="637" 
d="M450 135h-150l145 215l-145 215h150l145 -215zM209 135h-150l145 215l-145 215h150l145 -215z" />
    <glyph glyph-name="glyph546" horiz-adv-x="289" 
d="M79 570v130h130v-130h-130zM78 240l31 285h71l31 -285v-240h-133v240z" />
    <glyph glyph-name="glyph547" horiz-adv-x="491" 
d="M367 700v-130h-130v130h130zM214 380q15 0 20.5 5t5.5 20v104h123v-154q0 -38 -21 -59t-58 -21h-27q-93 0 -93 -80q0 -37 25.5 -58.5t67.5 -21.5h200v-115h-218q-91 0 -149 53t-58 142q0 78 49.5 131.5t132.5 53.5z" />
    <glyph glyph-name="glyph548" horiz-adv-x="215" 
d="M100 745h-90l40 145h155z" />
    <glyph glyph-name="glyph549" horiz-adv-x="215" 
d="M205 745h-90l-105 145h155z" />
    <glyph glyph-name="glyph550" horiz-adv-x="404" 
d="M289 745h-90l40 145h155zM100 745h-90l40 145h155z" />
    <glyph glyph-name="glyph551" horiz-adv-x="400" 
d="M120 745h-110l120 145h140l120 -145h-110l-80 58z" />
    <glyph glyph-name="glyph552" horiz-adv-x="400" 
d="M270 745h-140l-120 145h110l80 -58l80 58h110z" />
    <glyph glyph-name="glyph553" horiz-adv-x="360" 
d="M120 890q3 -27 19.5 -41t40.5 -14t40.5 14t19.5 41h110q-1 -68 -48.5 -109t-121.5 -41t-121.5 41t-48.5 109h110z" />
    <glyph glyph-name="glyph554" horiz-adv-x="399" 
d="M264 850q30 0 30 40h95v-26q0 -50 -27.5 -82t-82.5 -32q-35 0 -80 24l-18 10q-28 16 -45 16q-15 1 -23 -10.5t-8 -29.5h-95v26q0 47 32.5 80.5t79.5 33.5q37 0 75 -20l18 -10q40 -20 49 -20z" />
    <glyph glyph-name="glyph555" horiz-adv-x="355" 
d="M345 765h-335v110h335v-110z" />
    <glyph glyph-name="glyph556" horiz-adv-x="340" 
d="M330 765h-125v120h125v-120zM135 765h-125v120h125v-120z" />
    <glyph glyph-name="glyph557" horiz-adv-x="165" 
d="M20 765v135h140v-135h-140z" />
    <glyph glyph-name="glyph558" horiz-adv-x="240" 
d="M230 840q0 -47 -31.5 -78.5t-78.5 -31.5q-44 0 -77 32t-33 78q0 43 33.5 76.5t76.5 33.5q46 0 78 -33t32 -77zM159 840q0 16 -11.5 28t-27.5 12t-28 -12t-12 -28t12 -28t28 -12t27.5 12t11.5 28z" />
    <glyph glyph-name="glyph559" horiz-adv-x="407" 
d="M242 0q-64 0 -109 38.5t-45 94.5q0 74 54 102q-45 7 -71.5 39t-26.5 78q0 45 26 73.5t73 34.5q-24 13 -39.5 41.5t-15.5 66.5q0 56 42 94t106 38h115v-120h-99q-35 0 -35 -32q0 -33 37 -33h47v-120h-73q-55 0 -55 -43q0 -21 14 -34t41 -13h73v-120h-47q-37 0 -37 -32
q0 -33 37 -33h97v-120h-109z" />
    <glyph glyph-name="glyph560" horiz-adv-x="407" 
d="M165 0h-109v120h97q37 0 37 33q0 32 -37 32h-47v120h73q27 0 41 13t14 34q0 43 -55 43h-73v120h47q37 0 37 33q0 32 -35 32h-99v120h115q64 0 106 -38t42 -94q0 -38 -15.5 -66.5t-39.5 -41.5q47 -6 73 -34.5t26 -73.5q0 -46 -26.5 -78t-71.5 -39q54 -28 54 -102
q0 -56 -45 -94.5t-109 -38.5z" />
    <glyph glyph-name="glyph561" horiz-adv-x="214" 
d="M204 1016l-62 -88h-79l16 88h125zM188 818q0 -38 -25.5 -63.5t-63.5 -25.5t-63.5 25.5t-25.5 63.5t25.5 63.5t63.5 25.5t63.5 -25.5t25.5 -63.5zM132 818q0 14 -10 24t-23 10t-23.5 -10t-10.5 -24t10.5 -24t23.5 -10t23 10t10 24z" />
    <glyph glyph-name="glyph562" horiz-adv-x="737" 
d="M693 246q0 -113 -85 -184.5t-220 -71.5q-155 0 -250 102t-95 258t95 258t250 102q132 0 212 -69.5t88 -180.5h-135q-8 59 -48 94.5t-112 35.5h-10q-96 0 -150.5 -65t-54.5 -175t54.5 -175t150.5 -65h10q72 0 118.5 36t46.5 95v4h-170v120h305v-119z" />
    <glyph glyph-name="glyph563" horiz-adv-x="737" 
d="M300 745h-110l120 145h140l120 -145h-110l-80 58zM693 246q0 -113 -85 -184.5t-220 -71.5q-155 0 -250 102t-95 258t95 258t250 102q132 0 212 -69.5t88 -180.5h-135q-8 59 -48 94.5t-112 35.5h-10q-96 0 -150.5 -65t-54.5 -175t54.5 -175t150.5 -65h10q72 0 118.5 36
t46.5 95v4h-170v120h305v-119z" />
    <glyph glyph-name="glyph564" horiz-adv-x="737" 
d="M325 890q3 -27 19.5 -41t40.5 -14t40.5 14t19.5 41h110q-1 -68 -48.5 -109t-121.5 -41t-121.5 41t-48.5 109h110zM693 246q0 -113 -85 -184.5t-220 -71.5q-155 0 -250 102t-95 258t95 258t250 102q132 0 212 -69.5t88 -180.5h-135q-8 59 -48 94.5t-112 35.5h-10
q-96 0 -150.5 -65t-54.5 -175t54.5 -175t150.5 -65h10q72 0 118.5 36t46.5 95v4h-170v120h305v-119z" />
    <glyph glyph-name="glyph565" horiz-adv-x="737" 
d="M325 760v135h140v-135h-140zM693 246q0 -113 -85 -184.5t-220 -71.5q-155 0 -250 102t-95 258t95 258t250 102q132 0 212 -69.5t88 -180.5h-135q-8 59 -48 94.5t-112 35.5h-10q-96 0 -150.5 -65t-54.5 -175t54.5 -175t150.5 -65h10q72 0 118.5 36t46.5 95v4h-170v120h305
v-119z" />
    <glyph glyph-name="glyph566" horiz-adv-x="737" 
d="M693 246q0 -113 -85 -184.5t-220 -71.5q-155 0 -250 102t-95 258t95 258t250 102q132 0 212 -69.5t88 -180.5h-135q-8 59 -48 94.5t-112 35.5h-10q-96 0 -150.5 -65t-54.5 -175t54.5 -175t150.5 -65h10q72 0 118.5 36t46.5 95v4h-170v120h305v-119zM323 -310h-28v75h23
q54 0 54 40h-52v130h130v-130q0 -50 -35.5 -82.5t-91.5 -32.5z" />
    <glyph glyph-name="glyph567" horiz-adv-x="699" 
d="M217 383h150q120 0 120 101q0 96 -120 96h-150v-197zM217 265v-265h-135v700h325q91 0 153 -54t62 -136q0 -58 -30 -104.5t-80 -67.5q37 -4 54 -22t30 -60l81 -256h-145l-65 207q-9 30 -23.5 44t-40.5 14h-186z" />
    <glyph glyph-name="glyph568" horiz-adv-x="699" 
d="M375 745h-90l40 145h155zM217 383h150q120 0 120 101q0 96 -120 96h-150v-197zM217 265v-265h-135v700h325q91 0 153 -54t62 -136q0 -58 -30 -104.5t-80 -67.5q37 -4 54 -22t30 -60l81 -256h-145l-65 207q-9 30 -23.5 44t-40.5 14h-186z" />
    <glyph glyph-name="glyph569" horiz-adv-x="699" 
d="M217 383h150q120 0 120 101q0 96 -120 96h-150v-197zM217 265v-265h-135v700h325q91 0 153 -54t62 -136q0 -58 -30 -104.5t-80 -67.5q37 -4 54 -22t30 -60l81 -256h-145l-65 207q-9 30 -23.5 44t-40.5 14h-186zM296 -310h-28v75h23q54 0 54 40h-52v130h130v-130
q0 -50 -35.5 -82.5t-91.5 -32.5z" />
    <glyph glyph-name="glyph570" horiz-adv-x="699" 
d="M411 745h-140l-120 145h110l80 -58l80 58h110zM217 383h150q120 0 120 101q0 96 -120 96h-150v-197zM217 265v-265h-135v700h325q91 0 153 -54t62 -136q0 -58 -30 -104.5t-80 -67.5q37 -4 54 -22t30 -60l81 -256h-145l-65 207q-9 30 -23.5 44t-40.5 14h-186z" />
    <glyph glyph-name="glyph571" horiz-adv-x="601" 
d="M290 95q48 0 81 42t33 113t-33 113t-81 42h-8q-47 0 -80 -44t-33 -110q0 -67 33 -111.5t80 -44.5h8zM254 -10q-83 0 -149 69t-66 191q0 124 63 192t152 68q56 0 94.5 -23t55.5 -57v70h130v-500h-130v70q-19 -34 -57 -57t-93 -23z" />
    <glyph glyph-name="glyph572" horiz-adv-x="601" 
d="M315 700l25 -150h-75l-100 150h150zM290 95q48 0 81 42t33 113t-33 113t-81 42h-8q-47 0 -80 -44t-33 -110q0 -67 33 -111.5t80 -44.5h8zM254 -10q-83 0 -149 69t-66 191q0 124 63 192t152 68q56 0 94.5 -23t55.5 -57v70h130v-500h-130v70q-19 -34 -57 -57t-93 -23z" />
    <glyph glyph-name="glyph573" horiz-adv-x="601" 
d="M244 550l25 150h150l-100 -150h-75zM290 95q48 0 81 42t33 113t-33 113t-81 42h-8q-47 0 -80 -44t-33 -110q0 -67 33 -111.5t80 -44.5h8zM254 -10q-83 0 -149 69t-66 191q0 124 63 192t152 68q56 0 94.5 -23t55.5 -57v70h130v-500h-130v70q-19 -34 -57 -57t-93 -23z" />
    <glyph glyph-name="glyph574" horiz-adv-x="601" 
d="M404 550l-100 72l-100 -72h-80l100 150h160l100 -150h-80zM290 95q48 0 81 42t33 113t-33 113t-81 42h-8q-47 0 -80 -44t-33 -110q0 -67 33 -111.5t80 -44.5h8zM254 -10q-83 0 -149 69t-66 191q0 124 63 192t152 68q56 0 94.5 -23t55.5 -57v70h130v-500h-130v70
q-19 -34 -57 -57t-93 -23z" />
    <glyph glyph-name="glyph575" horiz-adv-x="601" 
d="M365 655q13 0 21.5 11.5t8.5 28.5h95v-26q0 -46 -33 -80t-77 -34q-35 0 -80 24l-18 10q-28 16 -42 16q-13 0 -23.5 -11.5t-10.5 -28.5h-95v26q0 47 32.5 80.5t79.5 33.5q37 0 75 -20l18 -10q40 -20 49 -20zM290 95q48 0 81 42t33 113t-33 113t-81 42h-8q-47 0 -80 -44
t-33 -110q0 -67 33 -111.5t80 -44.5h8zM254 -10q-83 0 -149 69t-66 191q0 124 63 192t152 68q56 0 94.5 -23t55.5 -57v70h130v-500h-130v70q-19 -34 -57 -57t-93 -23z" />
    <glyph glyph-name="glyph576" horiz-adv-x="601" 
d="M344 565v130h120v-130h-120zM144 565v130h120v-130h-120zM290 95q48 0 81 42t33 113t-33 113t-81 42h-8q-47 0 -80 -44t-33 -110q0 -67 33 -111.5t80 -44.5h8zM254 -10q-83 0 -149 69t-66 191q0 124 63 192t152 68q56 0 94.5 -23t55.5 -57v70h130v-500h-130v70
q-19 -34 -57 -57t-93 -23z" />
    <glyph glyph-name="glyph577" horiz-adv-x="601" 
d="M306 540q-42 0 -73.5 30.5t-31.5 74.5q0 41 32 73t73 32q44 0 74.5 -31.5t30.5 -73.5q0 -45 -30 -75t-75 -30zM306 689q-18 0 -31 -13t-13 -31t13 -31t31 -13t30.5 13t12.5 31t-12.5 31t-30.5 13zM290 95q48 0 81 42t33 113t-33 113t-81 42h-8q-47 0 -80 -44t-33 -110
q0 -67 33 -111.5t80 -44.5h8zM254 -10q-83 0 -149 69t-66 191q0 124 63 192t152 68q56 0 94.5 -23t55.5 -57v70h130v-500h-130v70q-19 -34 -57 -57t-93 -23z" />
    <glyph glyph-name="glyph578" horiz-adv-x="601" 
d="M147 565v105h305v-105h-305zM290 95q48 0 81 42t33 113t-33 113t-81 42h-8q-47 0 -80 -44t-33 -110q0 -67 33 -111.5t80 -44.5h8zM254 -10q-83 0 -149 69t-66 191q0 124 63 192t152 68q56 0 94.5 -23t55.5 -57v70h130v-500h-130v70q-19 -34 -57 -57t-93 -23z" />
    <glyph glyph-name="glyph579" horiz-adv-x="601" 
d="M299 635q27 0 42.5 17.5t17.5 47.5h110q-1 -72 -48.5 -116t-121.5 -44t-121.5 44t-48.5 116h110q2 -30 17.5 -47.5t42.5 -17.5zM290 95q48 0 81 42t33 113t-33 113t-81 42h-8q-47 0 -80 -44t-33 -110q0 -67 33 -111.5t80 -44.5h8zM254 -10q-83 0 -149 69t-66 191
q0 124 63 192t152 68q56 0 94.5 -23t55.5 -57v70h130v-500h-130v70q-19 -34 -57 -57t-93 -23z" />
    <glyph glyph-name="glyph580" horiz-adv-x="601" 
d="M290 95q48 0 81 42t33 113t-33 113t-81 42h-8q-47 0 -80 -44t-33 -110q0 -67 33 -111.5t80 -44.5h8zM534 -140v-80h-50q-52 0 -86 28t-34 72q0 74 76 120h-36v70q-19 -34 -57 -57t-93 -23q-83 0 -149 69t-66 191q0 124 63 192t152 68q56 0 94.5 -23t55.5 -57v70h130v-500
q-80 -46 -80 -90q0 -25 14.5 -37.5t35.5 -12.5h30z" />
    <glyph glyph-name="glyph581" horiz-adv-x="601" 
d="M357 766h-79l25 135h150zM314 530q-42 0 -73.5 30.5t-31.5 74.5q0 41 32 73t73 32q44 0 74.5 -31.5t30.5 -73.5q0 -45 -30 -75t-75 -30zM316 679q-18 0 -31 -13t-13 -31t13 -31t31 -13t30.5 13t12.5 31t-12.5 31t-30.5 13zM290 95q48 0 81 42t33 113t-33 113t-81 42h-8
q-47 0 -80 -44t-33 -110q0 -67 33 -111.5t80 -44.5h8zM254 -10q-83 0 -149 69t-66 191q0 124 63 192t152 68q56 0 94.5 -23t55.5 -57v70h130v-500h-130v70q-19 -34 -57 -57t-93 -23z" />
    <glyph glyph-name="glyph582" horiz-adv-x="601" 
d="M290 95q48 0 81 42t33 113t-33 113t-81 42h-8q-47 0 -80 -44t-33 -110q0 -67 33 -111.5t80 -44.5h8zM254 -10q-83 0 -149 69t-66 191q0 124 63 192t152 68q56 0 94.5 -23t55.5 -57v70h130v-500h-130v70q-19 -34 -57 -57t-93 -23zM234 -195v130h130v-130h-130z" />
    <glyph glyph-name="glyph583" horiz-adv-x="601" 
d="M233 565v135h140v-135h-140zM290 95q48 0 81 42t33 113t-33 113t-81 42h-8q-47 0 -80 -44t-33 -110q0 -67 33 -111.5t80 -44.5h8zM254 -10q-83 0 -149 69t-66 191q0 124 63 192t152 68q56 0 94.5 -23t55.5 -57v70h130v-500h-130v70q-19 -34 -57 -57t-93 -23z" />
    <glyph glyph-name="glyph584" horiz-adv-x="557" 
d="M177 -202h-151v112h115q25 0 34 7t18 29l33 86l-230 468h146l147 -305l118 305h144l-248 -622q-18 -44 -45 -62t-81 -18z" />
    <glyph glyph-name="glyph585" horiz-adv-x="557" 
d="M236 550l25 150h150l-100 -150h-75zM177 -202h-151v112h115q25 0 34 7t18 29l33 86l-230 468h146l147 -305l118 305h144l-248 -622q-18 -44 -45 -62t-81 -18z" />
    <glyph glyph-name="glyph586" horiz-adv-x="557" 
d="M381 550l-100 72l-100 -72h-80l100 150h160l100 -150h-80zM177 -202h-151v112h115q25 0 34 7t18 29l33 86l-230 468h146l147 -305l118 305h144l-248 -622q-18 -44 -45 -62t-81 -18z" />
    <glyph glyph-name="glyph587" horiz-adv-x="557" 
d="M324 565v130h120v-130h-120zM124 565v130h120v-130h-120zM177 -202h-151v112h115q25 0 34 7t18 29l33 86l-230 468h146l147 -305l118 305h144l-248 -622q-18 -44 -45 -62t-81 -18z" />
    <glyph glyph-name="glyph588" horiz-adv-x="557" 
d="M296 700l25 -150h-75l-100 150h150zM177 -202h-151v112h115q25 0 34 7t18 29l33 86l-230 468h146l147 -305l118 305h144l-248 -622q-18 -44 -45 -62t-81 -18z" />
    <glyph glyph-name="glyph589" horiz-adv-x="557" 
d="M127 565v105h305v-105h-305zM177 -202h-151v112h115q25 0 34 7t18 29l33 86l-230 468h146l147 -305l118 305h144l-248 -622q-18 -44 -45 -62t-81 -18z" />
    <glyph glyph-name="glyph590" horiz-adv-x="343" 
d="M152 -48h4q19 0 33 13t14 36v10l-55 -10q-24 -5 -24 -25q0 -24 28 -24zM212 -115q-2 9 -4 36q-32 -41 -87 -41q-40 0 -66.5 24t-26.5 63q0 73 108 86l65 8v9q0 33 -32 33h-4q-29 0 -34 -22h-93q2 43 36 68.5t95 25.5q57 0 92.5 -27.5t35.5 -71.5v-128q0 -36 4 -63h-89z
" />
    <glyph glyph-name="glyph591" horiz-adv-x="395" 
d="M365 27q0 -69 -37 -108t-92 -39q-56 0 -86 40v-35h-102v395h99v-145q30 40 89 40q55 0 92 -39.5t37 -108.5zM147 27q0 -29 16.5 -48t39.5 -19h4q24 0 40 18.5t16 48.5t-16 49t-40 19h-4q-23 0 -39.5 -19.5t-16.5 -48.5z" />
    <glyph glyph-name="glyph592" horiz-adv-x="351" 
d="M185 -120q-69 0 -112 37.5t-43 109.5t43 110t112 38q67 0 100.5 -32.5t37.5 -80.5h-101q-5 33 -40 33h-4q-46 0 -46 -68q0 -67 46 -67h4q35 0 40 30h101q-5 -47 -38 -78.5t-100 -31.5z" />
    <glyph glyph-name="glyph593" horiz-adv-x="395" 
d="M192 -37q23 0 39.5 19t16.5 48t-16.5 48.5t-39.5 19.5h-4q-24 0 -40 -19t-16 -49t16 -48.5t40 -18.5h4zM159 -117q-55 0 -92 39t-37 108t37 108.5t92 39.5q59 0 89 -40v145h99v-395h-102v35q-30 -40 -86 -40z" />
    <glyph glyph-name="glyph594" horiz-adv-x="353" 
d="M321 -22q-5 -42 -43.5 -70t-97.5 -28q-66 0 -108.5 40t-42.5 105q0 66 41 108t107 42t105.5 -41.5t39.5 -104.5q0 -17 -1 -22h-196q5 -54 53 -54h4q39 0 44 25h95zM175 101q-45 0 -50 -47h100q-3 47 -46 47h-4z" />
    <glyph glyph-name="glyph595" horiz-adv-x="266" 
d="M79 -115v203h-56v82h56v21q0 89 89 89h95v-75h-60q-22 0 -22 -27v-8h67v-82h-67v-203h-102z" />
    <glyph glyph-name="glyph596" horiz-adv-x="385" 
d="M183 -33h4q21 0 34.5 19.5t13.5 45.5t-13 45.5t-34 19.5h-4q-22 0 -36.5 -17t-14.5 -48t14 -48t36 -17zM177 -245q-58 0 -97 25.5t-45 76.5h102q7 -27 39 -27h6q59 0 59 58v45q-20 -44 -81 -44q-58 0 -93.5 39t-35.5 104q0 66 34.5 104.5t91.5 38.5q60 0 78 -47v42h102
v-279q0 -57 -41 -96.5t-119 -39.5z" />
    <glyph glyph-name="glyph597" horiz-adv-x="386" 
d="M150 47v-162h-102v395h102v-150q26 45 86 45q105 0 105 -117v-173h-102v169q0 42 -37 42h-4q-20 0 -34 -13.5t-14 -35.5z" />
    <glyph glyph-name="glyph598" horiz-adv-x="198" 
d="M45 205v75h108v-75h-108zM48 -115v285h102v-285h-102z" />
    <glyph glyph-name="glyph599" horiz-adv-x="198" 
d="M45 205v75h108v-75h-108zM150 170v-321q0 -89 -89 -89h-102v85h49q26 0 33 7.5t7 32.5v285h102z" />
    <glyph glyph-name="glyph600" horiz-adv-x="372" 
d="M244 -115l-67 103l-29 -30v-73h-100v395h100v-195l81 85h125l-109 -112l115 -173h-116z" />
    <glyph glyph-name="glyph601" horiz-adv-x="198" 
d="M48 -115v395h102v-395h-102z" />
    <glyph glyph-name="glyph602" horiz-adv-x="579" 
d="M150 47v-162h-102v285h102v-38q30 43 90 43q64 0 90 -50q31 50 102 50q49 0 75.5 -29t26.5 -77v-184h-102v163q0 47 -39 47h-4q-21 0 -34 -13t-13 -35v-162h-102v163q0 47 -39 47h-4q-21 0 -34 -13t-13 -35z" />
    <glyph glyph-name="glyph603" horiz-adv-x="386" 
d="M150 47v-162h-102v285h102v-40q26 45 86 45q105 0 105 -117v-173h-102v169q0 42 -37 42h-4q-20 0 -34 -13.5t-14 -35.5z" />
    <glyph glyph-name="glyph604" horiz-adv-x="366" 
d="M183 175q70 0 112 -42t42 -106t-42 -105.5t-112 -41.5t-112 41.5t-42 105.5t42 106t112 42zM185 95h-4q-23 0 -36.5 -18t-13.5 -50t13.5 -49.5t36.5 -17.5h4q23 0 36.5 17.5t13.5 49.5t-13.5 50t-36.5 18z" />
    <glyph glyph-name="glyph605" horiz-adv-x="395" 
d="M203 95q-23 0 -39.5 -19t-16.5 -48t16.5 -48.5t39.5 -19.5h4q24 0 40 19t16 49t-16 48.5t-40 18.5h-4zM236 175q55 0 92 -39t37 -108t-37 -108.5t-92 -39.5q-59 0 -89 40v-145h-99v395h102v-35q30 40 86 40z" />
    <glyph glyph-name="glyph606" horiz-adv-x="395" 
d="M30 28q0 69 37 108t92 39q56 0 86 -40v35h102v-395h-99v145q-30 -40 -89 -40q-55 0 -92 39.5t-37 108.5zM248 28q0 29 -16.5 48t-39.5 19h-4q-24 0 -40 -18.5t-16 -48.5t16 -49t40 -19h4q23 0 39.5 19.5t16.5 48.5z" />
    <glyph glyph-name="glyph607" horiz-adv-x="262" 
d="M48 -115v285h105v-53q17 55 82 55h8v-86h-34q-59 0 -59 -70v-131h-102z" />
    <glyph glyph-name="glyph608" horiz-adv-x="335" 
d="M165 -120q-68 0 -101 24.5t-37 76.5h99q2 -34 39 -34h4q14 0 22.5 6t8.5 16q0 17 -21 21l-67 14q-74 15 -74 79q0 46 37 69t92 23q131 0 139 -99h-97q-2 32 -35 32h-5q-32 0 -32 -20q0 -15 19 -18l72 -16q36 -8 53.5 -25t17.5 -53q0 -48 -39 -72t-95 -24z" />
    <glyph glyph-name="glyph609" horiz-adv-x="281" 
d="M250 -31v-84h-86q-89 0 -89 89v114h-56v82h56v90h102v-90h64v-82h-64v-80q0 -25 7 -32t33 -7h33z" />
    <glyph glyph-name="glyph610" horiz-adv-x="386" 
d="M236 8v162h102v-285h-102v40q-26 -45 -86 -45q-105 0 -105 117v173h102v-169q0 -42 37 -42h4q20 0 34 13.5t14 35.5z" />
    <glyph glyph-name="glyph611" horiz-adv-x="369" 
d="M250 -115h-131l-111 285h107l72 -189l73 189h101z" />
    <glyph glyph-name="glyph612" horiz-adv-x="497" 
d="M304 -115l-53 161l-48 -161h-89l-101 285h100l45 -151l50 151h94l47 -150l44 150h91l-101 -285h-79z" />
    <glyph glyph-name="glyph613" horiz-adv-x="351" 
d="M229 -115l-54 72l-54 -72h-106l107 143l-106 142h107l53 -71l53 71h106l-106 -141l107 -144h-107z" />
    <glyph glyph-name="glyph614" horiz-adv-x="368" 
d="M155 -230h-116v82h69q20 0 28 8t8 28v10l-144 272h115l71 -150l73 150h108l-130 -248v-70q0 -43 -19.5 -62.5t-62.5 -19.5z" />
    <glyph glyph-name="glyph615" horiz-adv-x="343" 
d="M311 -115h-276v65l132 138h-129v82h264v-67l-132 -136h141v-82z" />
    <glyph glyph-name="glyph616" horiz-adv-x="395" 
d="M188 -41h4q24 0 40 19.5t16 49.5t-16 49t-40 19h-4q-24 0 -40 -19t-16 -49t16 -49.5t40 -19.5zM245 -78q-35 -42 -81 -42q-55 0 -94.5 40t-39.5 108t39.5 107.5t94.5 39.5q52 0 84 -36v31h99v-285h-102v37z" />
    <glyph glyph-name="glyph617" horiz-adv-x="395" 
d="M188 489h4q24 0 40 19.5t16 49.5t-16 49t-40 19h-4q-24 0 -40 -19t-16 -49t16 -49.5t40 -19.5zM245 452q-35 -42 -81 -42q-55 0 -94.5 40t-39.5 108t39.5 107.5t94.5 39.5q52 0 84 -36v31h99v-285h-102v37z" />
    <glyph glyph-name="glyph618" horiz-adv-x="366" 
d="M144 -230h-111v82h52q18 0 25.5 6.5t13.5 21.5l5 12l-125 278h109l71 -161l71 161h108l-165 -363q-18 -37 -54 -37z" />
    <glyph glyph-name="glyph619" horiz-adv-x="366" 
d="M144 300h-111v82h52q18 0 25.5 6.5t13.5 21.5l5 12l-125 278h109l71 -161l71 161h108l-165 -363q-18 -37 -54 -37z" />
    <glyph glyph-name="glyph620" horiz-adv-x="420" 
d="M210 -120q-86 0 -130 59t-44 143q0 85 44 144t130 59t130 -59t44 -144q0 -84 -44 -143t-130 -59zM208 -28h4q64 0 64 110q0 111 -64 111h-4q-64 0 -64 -111q0 -110 64 -110z" />
    <glyph glyph-name="glyph621" horiz-adv-x="301" 
d="M244 -115h-105v256l-109 -90v126l125 103h89v-395z" />
    <glyph glyph-name="glyph622" horiz-adv-x="374" 
d="M334 -115h-296v84l149 135q38 34 38 57q0 15 -10.5 25.5t-26.5 10.5h-4q-16 0 -28 -13t-13 -30h-107q4 59 47.5 95t108.5 36q63 0 102 -36t39 -81q0 -33 -14.5 -56t-43.5 -50l-95 -87h154v-90z" />
    <glyph glyph-name="glyph623" horiz-adv-x="378" 
d="M183 -120q-64 0 -107.5 31t-43.5 86h108q1 -13 13.5 -21.5t28.5 -8.5h5q19 0 31.5 11t12.5 28t-12 26.5t-31 9.5h-37v84h37q18 0 29 10t11 26t-10 26t-28 10h-5q-15 0 -25.5 -8.5t-12.5 -19.5h-108q0 54 43 84.5t106 30.5q61 0 104.5 -30.5t43.5 -82.5q0 -63 -55 -87
q58 -27 58 -93q0 -53 -46 -82.5t-110 -29.5z" />
    <glyph glyph-name="glyph624" horiz-adv-x="406" 
d="M321 -115h-97v62h-196v109l174 224h119v-249h53v-84h-53v-62zM224 168l-105 -137h105v137z" />
    <glyph glyph-name="glyph625" horiz-adv-x="381" 
d="M182 -121q-64 0 -107.5 34.5t-47.5 90.5h112q4 -16 16.5 -26.5t29.5 -10.5h4q20 0 33.5 14.5t13.5 34.5t-12.5 32.5t-32.5 12.5h-4q-24 0 -38 -17h-108l44 235h252v-88h-174l-14 -67q26 23 72 23q47 0 84 -33.5t37 -92.5q0 -65 -44.5 -103.5t-115.5 -38.5z" />
    <glyph glyph-name="glyph626" horiz-adv-x="395" 
d="M354 18q0 -60 -42.5 -99t-109.5 -39q-76 0 -121 49.5t-45 133.5q0 102 50.5 162t135.5 60q62 0 99 -33.5t39 -85.5h-104q-7 31 -39 31h-6q-30 0 -50.5 -27.5t-24.5 -67.5q32 40 91 40q55 0 91 -35t36 -89zM150 13q0 -19 13.5 -32t33.5 -13h4q20 0 33.5 13t13.5 33
q0 19 -13 31t-34 12h-4q-19 0 -33 -13t-14 -31z" />
    <glyph glyph-name="glyph627" horiz-adv-x="344" 
d="M203 -115h-113v13q0 169 114 292h-180v90h299v-78q-120 -120 -120 -299v-18z" />
    <glyph glyph-name="glyph628" horiz-adv-x="384" 
d="M193 -122q-65 0 -107 30.5t-42 77.5q0 32 18.5 56.5t50.5 34.5q-75 28 -75 98q0 47 45 77.5t110 30.5t109.5 -30.5t44.5 -77.5q0 -70 -76 -98q32 -10 50.5 -34.5t18.5 -56.5q0 -47 -41 -77.5t-106 -30.5zM190 195q-19 0 -32.5 -10t-13.5 -27t13.5 -27t32.5 -10h5
q19 0 32.5 10t13.5 27t-13.5 27t-32.5 10h-5zM234 1q0 15 -11.5 25.5t-27.5 10.5h-5q-16 0 -28 -10.5t-12 -25.5t12 -25t28 -10h5q16 0 27.5 10t11.5 25z" />
    <glyph glyph-name="glyph629" horiz-adv-x="396" 
d="M246 151q0 19 -13.5 32t-33.5 13h-4q-20 0 -33.5 -13t-13.5 -33q0 -19 13 -31t34 -12h4q19 0 33 13t14 31zM42 146q0 60 42.5 99t109.5 39q76 0 121 -49.5t45 -133.5q0 -102 -50.5 -162t-135.5 -60q-62 0 -99 33.5t-39 85.5h104q7 -31 39 -31h6q30 0 50.5 27.5t24.5 67.5
q-32 -40 -91 -40q-55 0 -91 35t-36 89z" />
    <glyph glyph-name="glyph630" horiz-adv-x="343" 
d="M152 482h4q19 0 33 13t14 36v10l-55 -10q-24 -5 -24 -25q0 -24 28 -24zM212 415q-2 9 -4 36q-32 -41 -87 -41q-40 0 -66.5 24t-26.5 63q0 73 108 86l65 8v9q0 33 -32 33h-4q-29 0 -34 -22h-93q2 43 36 68.5t95 25.5q57 0 92.5 -27.5t35.5 -71.5v-128q0 -36 4 -63h-89z
" />
    <glyph glyph-name="glyph631" horiz-adv-x="395" 
d="M365 557q0 -69 -37 -108t-92 -39q-56 0 -86 40v-35h-102v395h99v-145q30 40 89 40q55 0 92 -39.5t37 -108.5zM147 557q0 -29 16.5 -48t39.5 -19h4q24 0 40 18.5t16 48.5t-16 49t-40 19h-4q-23 0 -39.5 -19.5t-16.5 -48.5z" />
    <glyph glyph-name="glyph632" horiz-adv-x="351" 
d="M185 410q-69 0 -112 37.5t-43 109.5t43 110t112 38q67 0 100.5 -32.5t37.5 -80.5h-101q-5 33 -40 33h-4q-46 0 -46 -68q0 -67 46 -67h4q35 0 40 30h101q-5 -47 -38 -78.5t-100 -31.5z" />
    <glyph glyph-name="glyph633" horiz-adv-x="395" 
d="M192 490q23 0 39.5 19t16.5 48t-16.5 48.5t-39.5 19.5h-4q-24 0 -40 -19t-16 -49t16 -48.5t40 -18.5h4zM159 410q-55 0 -92 39t-37 108t37 108.5t92 39.5q59 0 89 -40v145h99v-395h-102v35q-30 -40 -86 -40z" />
    <glyph glyph-name="glyph634" horiz-adv-x="353" 
d="M321 508q-5 -42 -43.5 -70t-97.5 -28q-66 0 -108.5 40t-42.5 105q0 66 41 108t107 42t105.5 -41.5t39.5 -104.5q0 -17 -1 -22h-196q5 -54 53 -54h4q39 0 44 25h95zM175 631q-45 0 -50 -47h100q-3 47 -46 47h-4z" />
    <glyph glyph-name="glyph635" horiz-adv-x="266" 
d="M79 415v203h-56v82h56v21q0 89 89 89h95v-75h-60q-22 0 -22 -27v-8h67v-82h-67v-203h-102z" />
    <glyph glyph-name="glyph636" horiz-adv-x="385" 
d="M183 497h4q21 0 34.5 19.5t13.5 45.5t-13 45.5t-34 19.5h-4q-22 0 -36.5 -17t-14.5 -48t14 -48t36 -17zM177 285q-58 0 -97 25.5t-45 76.5h102q7 -27 39 -27h6q59 0 59 58v45q-20 -44 -81 -44q-58 0 -93.5 39t-35.5 104q0 66 34.5 104.5t91.5 38.5q60 0 78 -47v42h102
v-279q0 -57 -41 -96.5t-119 -39.5z" />
    <glyph glyph-name="glyph637" horiz-adv-x="386" 
d="M150 577v-162h-102v395h102v-150q26 45 86 45q105 0 105 -117v-173h-102v169q0 42 -37 42h-4q-20 0 -34 -13.5t-14 -35.5z" />
    <glyph glyph-name="glyph638" horiz-adv-x="198" 
d="M45 735v75h108v-75h-108zM48 415v285h102v-285h-102z" />
    <glyph glyph-name="glyph639" horiz-adv-x="198" 
d="M45 735v75h108v-75h-108zM150 700v-321q0 -89 -89 -89h-102v85h49q26 0 33 7.5t7 32.5v285h102z" />
    <glyph glyph-name="glyph640" horiz-adv-x="372" 
d="M244 415l-67 103l-29 -30v-73h-100v395h100v-195l81 85h125l-109 -112l115 -173h-116z" />
    <glyph glyph-name="glyph641" horiz-adv-x="198" 
d="M48 415v395h102v-395h-102z" />
    <glyph glyph-name="glyph642" horiz-adv-x="579" 
d="M150 577v-162h-102v285h102v-38q30 43 90 43q64 0 90 -50q31 50 102 50q49 0 75.5 -29t26.5 -77v-184h-102v163q0 47 -39 47h-4q-21 0 -34 -13t-13 -35v-162h-102v163q0 47 -39 47h-4q-21 0 -34 -13t-13 -35z" />
    <glyph glyph-name="glyph643" horiz-adv-x="366" 
d="M183 705q70 0 112 -42t42 -106t-42 -105.5t-112 -41.5t-112 41.5t-42 105.5t42 106t112 42zM185 625h-4q-23 0 -36.5 -18t-13.5 -50t13.5 -49.5t36.5 -17.5h4q23 0 36.5 17.5t13.5 49.5t-13.5 50t-36.5 18z" />
    <glyph glyph-name="glyph644" horiz-adv-x="395" 
d="M203 625q-23 0 -39.5 -19t-16.5 -48t16.5 -48.5t39.5 -19.5h4q24 0 40 19t16 49t-16 48.5t-40 18.5h-4zM236 705q55 0 92 -39t37 -108t-37 -108.5t-92 -39.5q-59 0 -89 40v-145h-99v395h102v-35q30 40 86 40z" />
    <glyph glyph-name="glyph645" horiz-adv-x="395" 
d="M30 558q0 69 37 108t92 39q56 0 86 -40v35h102v-395h-99v145q-30 -40 -89 -40q-55 0 -92 39.5t-37 108.5zM248 558q0 29 -16.5 48t-39.5 19h-4q-24 0 -40 -18.5t-16 -48.5t16 -49t40 -19h4q23 0 39.5 19.5t16.5 48.5z" />
    <glyph glyph-name="glyph646" horiz-adv-x="262" 
d="M48 415v285h105v-53q17 55 82 55h8v-86h-34q-59 0 -59 -70v-131h-102z" />
    <glyph glyph-name="glyph647" horiz-adv-x="335" 
d="M165 410q-68 0 -101 24.5t-37 76.5h99q2 -34 39 -34h4q14 0 22.5 6t8.5 16q0 17 -21 21l-67 14q-74 15 -74 79q0 46 37 69t92 23q131 0 139 -99h-97q-2 32 -35 32h-5q-32 0 -32 -20q0 -15 19 -18l72 -16q36 -8 53.5 -25t17.5 -53q0 -48 -39 -72t-95 -24z" />
    <glyph glyph-name="glyph648" horiz-adv-x="281" 
d="M250 499v-84h-86q-89 0 -89 89v114h-56v82h56v90h102v-90h64v-82h-64v-80q0 -25 7 -32t33 -7h33z" />
    <glyph glyph-name="glyph649" horiz-adv-x="386" 
d="M236 538v162h102v-285h-102v40q-26 -45 -86 -45q-105 0 -105 117v173h102v-169q0 -42 37 -42h4q20 0 34 13.5t14 35.5z" />
    <glyph glyph-name="glyph650" horiz-adv-x="369" 
d="M250 415h-131l-111 285h107l72 -189l73 189h101z" />
    <glyph glyph-name="glyph651" horiz-adv-x="497" 
d="M304 415l-53 161l-48 -161h-89l-101 285h100l45 -151l50 151h94l47 -150l44 150h91l-101 -285h-79z" />
    <glyph glyph-name="glyph652" horiz-adv-x="351" 
d="M229 415l-54 72l-54 -72h-106l107 143l-106 142h107l53 -71l53 71h106l-106 -141l107 -144h-107z" />
    <glyph glyph-name="glyph653" horiz-adv-x="368" 
d="M155 300h-116v82h69q20 0 28 8t8 28v10l-144 272h115l71 -150l73 150h108l-130 -248v-70q0 -43 -19.5 -62.5t-62.5 -19.5z" />
    <glyph glyph-name="glyph654" horiz-adv-x="343" 
d="M311 415h-276v65l132 138h-129v82h264v-67l-132 -136h141v-82z" />
    <glyph glyph-name="glyph655" horiz-adv-x="386" 
d="M150 577v-162h-102v285h102v-40q26 45 86 45q105 0 105 -117v-173h-102v169q0 42 -37 42h-4q-20 0 -34 -13.5t-14 -35.5z" />
    <glyph glyph-name="glyph656" horiz-adv-x="420" 
d="M210 410q-86 0 -130 59t-44 143q0 85 44 144t130 59t130 -59t44 -144q0 -84 -44 -143t-130 -59zM208 502h4q64 0 64 110q0 111 -64 111h-4q-64 0 -64 -111q0 -110 64 -110z" />
    <glyph glyph-name="glyph657" horiz-adv-x="406" 
d="M321 415h-97v62h-196v109l174 224h119v-249h53v-84h-53v-62zM224 698l-105 -137h105v137z" />
    <glyph glyph-name="glyph658" horiz-adv-x="381" 
d="M182 410q-64 0 -107.5 34.5t-47.5 90.5h112q4 -16 16.5 -26.5t29.5 -10.5h4q20 0 33.5 14.5t13.5 34.5t-12.5 32.5t-32.5 12.5h-4q-24 0 -38 -17h-108l44 235h252v-88h-174l-14 -67q26 23 72 23q47 0 84 -33.5t37 -92.5q0 -65 -44.5 -103.5t-115.5 -38.5z" />
    <glyph glyph-name="glyph659" horiz-adv-x="395" 
d="M354 548q0 -60 -42.5 -99t-109.5 -39q-76 0 -121 49.5t-45 133.5q0 102 50.5 162t135.5 60q62 0 99 -33.5t39 -85.5h-104q-7 31 -39 31h-6q-30 0 -50.5 -27.5t-24.5 -67.5q32 40 91 40q55 0 91 -35t36 -89zM150 543q0 -19 13.5 -32t33.5 -13h4q20 0 33.5 13t13.5 33
q0 19 -13 31t-34 12h-4q-19 0 -33 -13t-14 -31z" />
    <glyph glyph-name="glyph660" horiz-adv-x="344" 
d="M203 415h-113v13q0 169 114 292h-180v90h299v-78q-120 -120 -120 -299v-18z" />
    <glyph glyph-name="glyph661" horiz-adv-x="384" 
d="M193 410q-65 0 -107 30.5t-42 77.5q0 32 18.5 56.5t50.5 34.5q-75 28 -75 98q0 47 45 77.5t110 30.5t109.5 -30.5t44.5 -77.5q0 -70 -76 -98q32 -10 50.5 -34.5t18.5 -56.5q0 -47 -41 -77.5t-106 -30.5zM190 727q-19 0 -32.5 -10t-13.5 -27t13.5 -27t32.5 -10h5
q19 0 32.5 10t13.5 27t-13.5 27t-32.5 10h-5zM234 533q0 15 -11.5 25.5t-27.5 10.5h-5q-16 0 -28 -10.5t-12 -25.5t12 -25t28 -10h5q16 0 27.5 10t11.5 25z" />
    <glyph glyph-name="glyph662" horiz-adv-x="396" 
d="M246 682q0 19 -13.5 32t-33.5 13h-4q-20 0 -33.5 -13t-13.5 -33q0 -19 13 -31t34 -12h4q19 0 33 13t14 31zM42 677q0 60 42.5 99t109.5 39q76 0 121 -49.5t45 -133.5q0 -102 -50.5 -162t-135.5 -60q-62 0 -99 33.5t-39 85.5h104q7 -31 39 -31h6q30 0 50.5 27.5t24.5 67.5
q-32 -40 -91 -40q-55 0 -91 35t-36 89z" />
    <glyph glyph-name="glyph663" 
 />
    <glyph glyph-name="glyph664" 
d="M300 -10q-127 0 -197.5 95t-70.5 265t70.5 265t197.5 95t197.5 -95t70.5 -265t-70.5 -265t-197.5 -95zM296 105h8q62 0 96 64t34 181t-34 181t-96 64h-8q-62 0 -96 -64t-34 -181t34 -181t96 -64z" />
    <glyph glyph-name="glyph665" 
d="M573 0h-530v115h205v397l-155 -149v165l177 172h105v-585h198v-115z" />
    <glyph glyph-name="glyph666" 
d="M546 0h-493v121l238 224q66 62 89 94t23 68q0 38 -26 63t-67 25h-10q-46 0 -76 -30.5t-31 -83.5h-133q0 105 68.5 167t175.5 62q104 0 168 -55.5t64 -142.5q0 -64 -30 -113.5t-103 -116.5l-182 -167h325v-115z" />
    <glyph glyph-name="glyph667" 
d="M292 -10q-112 0 -180 55t-68 148h133q4 -40 32.5 -64t77.5 -24h10q56 0 84.5 28.5t28.5 66.5q0 44 -34 68t-90 24h-47v115h42q57 0 91 26.5t34 71.5q0 38 -29.5 64t-74.5 26h-10q-40 0 -69 -24.5t-33 -65.5h-133q0 89 68.5 147t171.5 58q109 0 175.5 -56.5t66.5 -138.5
q0 -60 -33.5 -103.5t-89.5 -58.5q57 -15 92.5 -59.5t35.5 -103.5q0 -95 -70 -147.5t-182 -52.5z" />
    <glyph glyph-name="glyph668" 
d="M352 0v142h-329v133l332 425h124v-443h85v-115h-85v-142h-127zM352 257v256l-201 -256h201z" />
    <glyph glyph-name="glyph669" 
d="M293 -10q-107 0 -178 57t-82 148h133q10 -42 43 -66t82 -24h6q50 0 82.5 30t32.5 81t-32 79t-83 28h-6q-68 0 -112 -48h-122l86 425h395v-115h-294l-40 -191q46 44 122 44q97 0 158 -60.5t61 -156.5q0 -104 -68.5 -167.5t-183.5 -63.5z" />
    <glyph glyph-name="glyph670" 
d="M553 230q0 -100 -68 -170t-183 -70q-124 0 -193.5 89.5t-69.5 247.5q0 171 90 277t224 106q86 0 145 -51.5t70 -138.5h-133q-4 33 -26 54t-62 21h-8q-65 0 -117.5 -56t-63.5 -174q23 44 70 69.5t106 25.5q90 0 154.5 -63.5t64.5 -166.5zM180 225q0 -50 34 -85t86 -35h8
q48 0 80 34.5t32 85.5t-32 85.5t-80 34.5h-8q-50 0 -85 -34t-35 -86z" />
    <glyph glyph-name="glyph671" 
d="M168 0v65q0 87 17 163.5t41.5 128.5t61.5 99t67 73.5t68 55.5h-398v115h545v-110q-59 -47 -100 -90.5t-81.5 -106.5t-61 -145t-20.5 -183v-65h-139z" />
    <glyph glyph-name="glyph672" 
d="M300 -10q-110 0 -172.5 55.5t-62.5 134.5q0 55 32 95.5t87 62.5q-63 23 -97.5 71.5t-34.5 110.5q0 78 64.5 134t183.5 56t183.5 -56t64.5 -134q0 -62 -34.5 -110.5t-97.5 -70.5q119 -46 119 -159q0 -79 -62.5 -134.5t-172.5 -55.5zM295 595q-46 0 -78 -27t-32 -65
q0 -40 32 -66.5t78 -26.5h10q46 0 78 26.5t32 66.5q0 38 -32 65t-78 27h-10zM403 195q0 40 -28.5 65.5t-69.5 25.5h-10q-41 0 -69.5 -25.5t-28.5 -65.5t28.5 -65t69.5 -25h10q41 0 69.5 25t28.5 65z" />
    <glyph glyph-name="glyph673" 
d="M420 475q0 50 -34 85t-86 35h-8q-48 0 -80 -34.5t-32 -85.5t32 -85.5t80 -34.5h8q50 0 85 34t35 86zM247 -10q-86 0 -145 51.5t-70 138.5h133q4 -33 26 -54t62 -21h8q65 0 117.5 56t63.5 174q-23 -44 -70 -69.5t-106 -25.5q-90 0 -154.5 63.5t-64.5 166.5q0 100 68 170
t183 70q124 0 193.5 -89.5t69.5 -247.5q0 -171 -90 -277t-224 -106z" />
    <glyph glyph-name="glyph674" 
d="M338 275l31 150h-100l-31 -150h100zM281 0l33 160h-100l-33 -160h-118l33 160h-66v115h90l31 150h-101v115h125l33 160h118l-33 -160h100l33 160h118l-33 -160h58v-115h-82l-31 -150h93v-115h-117l-33 -160h-118z" />
    <glyph glyph-name="glyph675" 
d="M227 0v145h145v-145h-145z" />
    <glyph glyph-name="glyph676" 
d="M236 -150h-41v75h36q32 0 47 18t15 47v10h-65v145h145v-160q0 -54 -39.5 -94.5t-97.5 -40.5z" />
    <glyph glyph-name="glyph677" 
d="M227 355v145h145v-145h-145zM227 0v145h145v-145h-145z" />
    <glyph glyph-name="glyph678" 
d="M230 355v145h145v-145h-145zM239 -150h-41v75h36q32 0 47 18t15 47v10h-65v145h145v-160q0 -54 -39.5 -94.5t-97.5 -40.5z" />
    <glyph glyph-name="glyph679" 
d="M535 293h-170v-185h-131v185h-170v115h170v185h131v-185h170v-115z" />
    <glyph glyph-name="glyph680" 
d="M65 294v115h470v-115h-470z" />
    <glyph glyph-name="glyph681" 
d="M529 383h-164v-105h-131v105h-164v115h164v110h131v-110h164v-115zM70 108v114h459v-114h-459z" />
    <glyph glyph-name="glyph682" 
d="M230 452v135h140v-135h-140zM53 292v115h494v-115h-494zM230 112v135h140v-135h-140z" />
    <glyph glyph-name="glyph683" 
d="M444 123l-144 145l-145 -145l-81 82l144 144l-145 145l83 83l145 -145l144 144l81 -82l-143 -143l144 -145z" />
    <glyph glyph-name="glyph684" 
d="M65 387v115h470v-115h-470zM65 197v115h470v-115h-470z" />
    <glyph glyph-name="glyph685" 
d="M496 116l-425 170v120l425 170v-128l-261 -98l261 -99v-135z" />
    <glyph glyph-name="glyph686" 
d="M104 116v127l264 100l-264 99v134l425 -170v-120z" />
    <glyph glyph-name="glyph687" 
d="M518 230l-445 122v150l445 122v-124l-300 -72l300 -72v-126zM73 99v115h445v-115h-445z" />
    <glyph glyph-name="glyph688" 
d="M82 230v124l300 72l-300 72v126l445 -122v-150zM82 99v115h445v-115h-445z" />
    <glyph glyph-name="glyph689" 
d="M421 537h130v-40q0 -52 -39 -87.5t-96 -35.5q-39 0 -106 24t-83 24q-40 0 -40 -38h-130v40q0 52 40 87.5t97 35.5q45 0 108.5 -24t78.5 -24q40 0 40 38zM421 319h130v-40q0 -52 -39 -87.5t-96 -35.5q-39 0 -106 24t-83 24q-40 0 -40 -38h-130v40q0 52 40 87.5t97 35.5
q45 0 108.5 -24t78.5 -24q40 0 40 38z" />
    <glyph glyph-name="glyph690" 
d="M534 198h-219l-28 -90h-123l28 90h-127v115h162l24 75h-186v115h221l28 90h123l-28 -90h125v-115h-160l-24 -75h184v-115z" />
    <glyph glyph-name="glyph691" 
d="M537 143h-133v135h-349v115h482v-250z" />
    <glyph glyph-name="glyph692" 
d="M188 505q0 -34 16.5 -52t54.5 -28l28 171q-45 -4 -72 -30t-27 -61zM353 278l-6 1l-30 -176q52 0 81 26.5t29 65.5q0 34 -16.5 54t-57.5 29zM303 -10h-5l-18 -110h-113l21 126q-79 24 -120.5 83.5t-44.5 145.5h130q5 -70 56 -105l29 172l-10 2q-170 36 -170 193
q0 85 67 149.5t182 63.5l18 110h113l-21 -127q72 -24 111.5 -79t39.5 -129h-130q-4 56 -42 86l-29 -171l6 -1q184 -42 184 -194q0 -92 -67 -153.5t-187 -61.5z" />
    <glyph glyph-name="glyph693" 
d="M194 250q0 -76 42 -116l44 259q-41 -12 -63.5 -52t-22.5 -91zM315 -10h-1l-19 -110h-102l22 128q-72 27 -110.5 91.5t-38.5 150.5q0 110 61.5 182t171.5 78l19 110h102l-21 -123q56 -18 91 -60.5t40 -101.5h-128q-5 24 -23 41l-46 -272q27 4 46 21t23 40h128
q-7 -81 -66 -128t-149 -47z" />
    <glyph glyph-name="glyph694" 
d="M564 0h-516v115h43q32 0 46.5 15t16.5 47l6 87l-112 -27v110l121 29l8 114q16 210 222 210h115v-115h-118q-44 0 -64 -21.5t-24 -78.5l-6 -77l111 26v-110l-119 -28l-8 -99q-5 -56 -44 -82h322v-115z" />
    <glyph glyph-name="glyph695" 
d="M493 35l-81 77q-52 -27 -113 -27q-62 0 -111 26l-80 -76l-90 90l80 77q-23 46 -23 103q0 53 20 98l-77 77l90 90l76 -73q51 28 115 28q66 0 116 -29l78 74l90 -90l-81 -81q19 -44 19 -94q0 -54 -22 -100l84 -80zM294 200h8q41 0 65.5 30.5t24.5 74.5q0 45 -25 75t-65 30
h-8q-40 0 -65 -30t-25 -75q0 -44 24.5 -74.5t65.5 -30.5z" />
    <glyph glyph-name="glyph696" 
d="M367 0h-133v106l-135 -30v110l135 30v59l-165 -37v110l135 30l-197 322h143l154 -252l151 252h140l-167 -273l102 23v-110l-163 -36v-59l133 30v-110l-133 -30v-135z" />
    <glyph glyph-name="glyph697" 
d="M580 210q-2 -99 -67.5 -159.5t-171.5 -60.5q-81 0 -140.5 45.5t-89.5 129.5l-91 -19v107l66 14q-4 41 -5 66l-61 -13v107l67 14q18 127 85 198t169 71q103 0 168.5 -60.5t70.5 -159.5h-131q-5 48 -32.5 76.5t-71.5 28.5h-8q-90 0 -117 -125l149 32v-107l-160 -34v-8
q0 -23 2 -59l116 25v-107l-95 -20q32 -87 105 -87h8q44 0 71.5 28.5t32.5 76.5h131z" />
    <glyph glyph-name="glyph698" 
d="M318 -60h-209v105h205q52 0 52 41q0 31 -45 47l-139 52q-59 22 -86.5 54.5t-26.5 82.5q2 78 91 125q-53 38 -53 110q0 71 45.5 107.5t133.5 36.5l188 -1v-105h-180q-57 0 -57 -40q0 -33 43 -46l91 -30q83 -27 123 -59.5t40 -92.5q0 -42 -25 -78t-68 -57q58 -46 58 -108
q0 -61 -44.5 -102.5t-136.5 -41.5zM261 276l88 -33q25 9 38.5 28t13.5 37q0 42 -62 61l-87 28q-50 -21 -50 -67q0 -15 9 -25.5t19.5 -15.5t30.5 -13z" />
    <glyph glyph-name="glyph699" horiz-adv-x="683" 
d="M229 532q0 -22 10.5 -43t19 -31t31.5 -35l1 1q64 38 64 108q0 32 -16 52.5t-47 20.5q-32 0 -47.5 -20.5t-15.5 -52.5zM281 95q69 0 119 38l-135 143l-35 -21q-56 -33 -56 -85q0 -35 30.5 -55t76.5 -20zM525 0l-46 48q-80 -58 -206 -58q-97 0 -163 45t-66 130
q0 113 121 185l20 12q-43 46 -64.5 85.5t-21.5 94.5q0 74 56 121t137 47t137 -47t56 -121q0 -123 -117 -204l101 -111q18 47 18 151v22h125v-27q0 -156 -55 -242l119 -131h-151z" />
    <glyph glyph-name="glyph700" horiz-adv-x="518" 
d="M154 190v119q0 33 12.5 49.5t42.5 29.5l53 22q25 10 37 16.5t27.5 19t22 30t6.5 41.5q0 39 -24.5 63.5t-70.5 24.5q-42 0 -69 -26.5t-31 -68.5h-130q4 91 70.5 145.5t159.5 54.5q96 0 160.5 -52.5t64.5 -140.5q0 -130 -145 -193l-37 -16q-15 -6 -19.5 -15.5t-4.5 -29.5
v-73h-125zM151 0v130h130v-130h-130z" />
    <glyph glyph-name="glyph701" horiz-adv-x="512" 
d="M364 500v-130h-130v130h130zM361 310v-119q0 -33 -12.5 -49.5t-42.5 -29.5l-53 -22q-25 -10 -37 -16.5t-27.5 -19t-22 -30t-6.5 -41.5q0 -39 24.5 -63.5t70.5 -24.5q42 0 69 26.5t31 68.5h130q-4 -91 -70.5 -145.5t-159.5 -54.5q-96 0 -160.5 52.5t-64.5 140.5
q0 130 145 193l37 16q15 6 19.5 15.5t4.5 29.5v73h125z" />
    <glyph glyph-name="glyph702" horiz-adv-x="517" 
d="M366 700v-130h-130v130h130zM363 510v-119q0 -33 -12.5 -49.5t-42.5 -29.5l-53 -22q-25 -10 -37 -16.5t-27.5 -19t-22 -30t-6.5 -41.5q0 -39 24.5 -63.5t70.5 -24.5q42 0 69 26.5t31 68.5h130q-4 -91 -70.5 -145.5t-159.5 -54.5q-96 0 -160.5 52.5t-64.5 140.5
q0 130 145 193l37 16q15 6 19.5 15.5t4.5 29.5v73h125z" />
    <glyph glyph-name="glyph703" horiz-adv-x="798" 
d="M730 -125h-245q-188 0 -314 118.5t-126 309.5t113 309t282 118q136 0 213 -71.5t77 -179.5v-384h-120v69q-43 -79 -137 -79q-77 0 -130 60t-53 155t53 152.5t130 57.5q102 0 137 -80v36q0 77 -45 115.5t-128 38.5h-8q-115 0 -187 -86.5t-72 -228.5q0 -141 92.5 -230.5
t232.5 -89.5h235v-110zM505 185h7q38 0 63.5 33t25.5 82t-25 79.5t-64 30.5h-7q-40 0 -65 -30t-25 -80q0 -49 25.5 -82t64.5 -33z" />
    <glyph glyph-name="glyph704" horiz-adv-x="656" 
d="M217 580v-580h-135v700h275q98 0 156.5 -49t58.5 -131q0 -57 -33.5 -100t-79.5 -55q64 -4 111 -51t47 -119q0 -90 -63 -142.5t-172 -52.5h-85v120h77q52 0 80 24t28 66q0 82 -109 82h-76v116h20q61 0 90.5 23.5t29.5 63.5q0 39 -27 62t-78 23h-115z" />
    <glyph glyph-name="glyph705" 
d="M300 340q-79 0 -132 53t-53 132t53 132t132 53t132 -53t53 -132t-53 -132t-132 -53zM300 448q30 0 50.5 22t20.5 55q0 31 -20.5 51.5t-50.5 20.5t-50.5 -20.5t-20.5 -51.5q0 -33 20.5 -55t50.5 -22z" />
    <glyph glyph-name="glyph706" horiz-adv-x="840" 
d="M15 0l405 720l405 -720h-810z" />
    <glyph glyph-name="glyph707" 
d="M305 550q0 -71 -35 -113t-95 -42t-95 42t-35 113t35 113t95 42t95 -42t35 -113zM130 550q0 -80 45 -80t45 80t-45 80t-45 -80zM130 308l340 170v-86l-340 -170v86zM555 150q0 -71 -35 -113t-95 -42t-95 42t-35 113t35 113t95 42t95 -42t35 -113zM380 150q0 -80 45 -80
t45 80t-45 80t-45 -80z" />
    <glyph glyph-name="glyph708" 
d="M277 550q0 -71 -35 -113t-95 -42t-95 42t-35 113t35 113t95 42t95 -42t35 -113zM102 550q0 -80 45 -80t45 80t-45 80t-45 -80zM48 305l340 170v-81l-340 -170v81zM467 -5q-54 0 -88 34q-32 -34 -87 -34q-60 0 -95 42t-35 113t35 113t95 42q54 0 88 -34q32 34 87 34
q60 0 95 -42t35 -113t-35 -113t-95 -42zM422 150q0 -80 45 -80t45 80t-45 80t-45 -80zM247 150q0 -80 45 -80t45 80t-45 80t-45 -80z" />
    <glyph glyph-name="glyph709" horiz-adv-x="542" 
d="M501 510q0 -95 -67.5 -162.5t-162.5 -67.5t-162.5 68t-67.5 162q0 95 67.5 162.5t162.5 67.5t162.5 -67.5t67.5 -162.5zM97 510q0 -73 51 -124.5t123 -51.5q73 0 123.5 51.5t50.5 124.5q0 74 -50.5 125t-123.5 51q-72 0 -123 -51.5t-51 -124.5zM274 385q-49 0 -78.5 32
t-29.5 93q0 60 29.5 92.5t78.5 32.5q43 0 69 -22t29 -59h-63q-4 31 -33 31h-4q-21 0 -31.5 -21.5t-10.5 -53.5q0 -76 42 -76h4q23 0 31 30h63q-3 -37 -28 -58t-68 -21z" />
    <glyph glyph-name="glyph710" horiz-adv-x="543" 
d="M501 510q0 -95 -67.5 -162.5t-162.5 -67.5t-162.5 68t-67.5 162q0 95 67.5 162.5t162.5 67.5t162.5 -67.5t67.5 -162.5zM97 510q0 -73 51 -124.5t123 -51.5q73 0 123.5 51.5t50.5 124.5q0 74 -50.5 125t-123.5 51q-72 0 -123 -51.5t-51 -124.5zM244 523h33q32 0 32 28
q0 25 -34 25h-31v-53zM187 393v230h98q39 0 60 -17.5t21 -45.5q0 -23 -12.5 -39.5t-31.5 -20.5q41 0 41 -34v-73h-57v60q0 13 -5.5 18t-19.5 5h-37v-83h-57z" />
    <glyph glyph-name="glyph711" horiz-adv-x="542" 
d="M501 510q0 -95 -67.5 -162.5t-162.5 -67.5t-162.5 68t-67.5 162q0 95 67.5 162.5t162.5 67.5t162.5 -67.5t67.5 -162.5zM97 510q0 -73 51 -124.5t123 -51.5q73 0 123.5 51.5t50.5 124.5q0 74 -50.5 125t-123.5 51q-72 0 -123 -51.5t-51 -124.5zM194 395v230h103
q36 0 56.5 -19.5t20.5 -56.5t-20.5 -56.5t-56.5 -19.5h-46v-78h-57zM251 520h30q35 0 35 29t-35 29h-30v-58z" />
    <glyph glyph-name=".null" horiz-adv-x="880" 
d="M440 -39q-160 0 -275 114.5t-115 275.5t114.5 275.5t275.5 114.5t275.5 -114.5t114.5 -275.5t-114.5 -275.5t-275.5 -114.5zM440 48q123 0 210.5 89t87.5 214t-87.5 214t-210.5 89t-210.5 -89t-87.5 -214t87.5 -214t210.5 -89z" />
  </font>
</defs>
</svg>
