<?xml version="1.0" standalone="no"?>
<!DOCTYPE svg PUBLIC "-//W3C//DTD SVG 1.1//EN" "http://www.w3.org/Graphics/SVG/1.1/DTD/svg11.dtd" >
<svg xmlns="http://www.w3.org/2000/svg" xmlns:xlink="http://www.w3.org/1999/xlink" version="1.1">
<metadata>
Created by FontForge 20161003 at Fri Aug 17 10:11:17 2018
 By www-data
2008 Mitja Miklavcic published by FSI FontShop International GmbH
</metadata>
<defs>
<font id="TisaOT-BoldIta" horiz-adv-x="570" >
  <font-face 
    font-family="TisaOT-BoldIta"
    font-weight="700"
    font-style="italic"
    font-stretch="normal"
    units-per-em="1000"
    panose-1="2 1 8 4 4 1 1 2 1 2"
    ascent="729"
    descent="-271"
    x-height="483"
    cap-height="709"
    bbox="-578 -339 1586 987"
    underline-thickness="70"
    underline-position="-200"
    slope="-6.5"
    unicode-range="U+000D-FEFF"
  />
<missing-glyph horiz-adv-x="736" 
d="M69 0h529l64 723h-518zM340 498q-17 -9 -45 -15t-46 -6q-4 27 -3 62q0 34 3 64q32 11 74 18q41 8 80 8q65 0 101 -25t36 -72q-10 -86 -76 -125q-67 -39 -77 -83q0 -14 4 -26t11 -22q-14 -12 -38 -23q-23 -10 -44 -13q-14 13 -24 34t-11 43q8 67 67 108q59 40 67 89
q0 14 -9 25q-9 10 -31 11q-9 0 -18 -2q-10 -2 -16 -5zM347 212q29 0 46 -16q17 -15 17 -46q-1 -30 -18 -47q-17 -18 -45 -18q-67 0 -67 65q1 28 20 45t47 17v0z" />
    <glyph glyph-name=".notdef" horiz-adv-x="736" 
d="M69 0h529l64 723h-518zM340 498q-17 -9 -45 -15t-46 -6q-4 27 -3 62q0 34 3 64q32 11 74 18q41 8 80 8q65 0 101 -25t36 -72q-10 -86 -76 -125q-67 -39 -77 -83q0 -14 4 -26t11 -22q-14 -12 -38 -23q-23 -10 -44 -13q-14 13 -24 34t-11 43q8 67 67 108q59 40 67 89
q0 14 -9 25q-9 10 -31 11q-9 0 -18 -2q-10 -2 -16 -5zM347 212q29 0 46 -16q17 -15 17 -46q-1 -30 -18 -47q-17 -18 -45 -18q-67 0 -67 65q1 28 20 45t47 17v0z" />
    <glyph glyph-name="glyph1" horiz-adv-x="0" 
 />
    <glyph glyph-name="glyph1" horiz-adv-x="0" 
 />
    <glyph glyph-name="uni000D" unicode="&#xd;" horiz-adv-x="199" 
 />
    <glyph glyph-name="space" unicode=" " horiz-adv-x="199" 
 />
    <glyph glyph-name="exclam" unicode="!" horiz-adv-x="291" 
d="M260 712q-10 2 -23 2q-12 1 -23 1q-39 0 -74 -7q-36 -7 -61 -16l-7 -467q10 -2 24 -4q13 -1 29 -1q15 0 29 1q13 2 23 4zM108 152q-37 -1 -60 -24q-24 -23 -25 -60q0 -44 22 -66q21 -22 63 -22q36 0 59 23q22 23 23 65q-1 41 -23 63q-22 21 -59 21v0z" />
    <glyph glyph-name="quotedbl" unicode="&#x22;" horiz-adv-x="423" 
d="M316 417q23 57 47 140t31 143q-25 7 -58 11q-34 5 -65 5q-6 -64 -17 -142q-12 -79 -24 -146q19 -5 42 -8q22 -3 44 -3v0zM103 417q23 57 47 140t31 143q-25 7 -58 11q-34 5 -65 5q-6 -64 -17 -142q-12 -79 -24 -146q19 -5 42 -8q22 -3 44 -3v0z" />
    <glyph glyph-name="numbersign" unicode="#" horiz-adv-x="659" 
d="M582 134q6 17 11 43t5 43h-93l30 119h100q6 17 11 43t5 43h-94l29 124q-28 0 -60 -3q-32 -4 -56 -9l-30 -112h-144l29 124q-29 0 -60 -3q-32 -4 -55 -9l-31 -112h-101q-8 -17 -16 -41q-9 -24 -12 -45h106l-34 -119h-96q-9 -17 -17 -41q-8 -25 -11 -45h100l-37 -131
q10 -3 27 -4q17 -2 36 -2t36 2q18 1 29 4l32 131h137l-37 -131q10 -3 27 -4q18 -2 36 -2q19 0 37 2q17 1 29 4l31 131h101zM271 341h147l-34 -124h-144z" />
    <glyph glyph-name="dollar" unicode="$" horiz-adv-x="540" 
d="M333 417q23 -14 58 -22t70 -8q11 26 19 62q7 36 7 66q-26 14 -57 24q-30 10 -63 15l11 87q-33 0 -69 -4t-59 -10l-9 -74q-78 -14 -122 -61t-45 -120q15 -116 122 -142q107 -27 122 -91q0 -32 -20 -49q-19 -17 -57 -17q-18 0 -36 4q-19 4 -34 11l7 62q-28 10 -64 15
q-37 5 -70 5q-9 -22 -16 -52t-7 -63v-13t1 -13q31 -19 67 -30q37 -12 76 -16l-10 -81q12 -3 30 -4q17 -1 35 -1q19 0 37 1t28 4l10 85q79 16 127 65t49 133q-15 122 -121 149t-121 85q0 24 16 39q16 14 48 14q12 0 24 -2q11 -2 21 -6z" />
    <glyph glyph-name="percent" unicode="%" horiz-adv-x="960" 
d="M241 562q-93 -1 -148 -53q-54 -52 -55 -140q0 -70 39 -106q39 -35 113 -35q92 1 147 50q56 49 57 138q0 73 -40 109q-40 37 -113 37v0zM226 476q25 0 35 -17q11 -18 11 -48q0 -41 -17 -69t-49 -29q-23 0 -36 17q-12 17 -12 49q0 40 17 68t51 29v0zM756 546q-24 11 -55 18
t-57 8l-438 -562q13 -16 41 -34q29 -19 53 -25zM759 314q-93 -1 -148 -53q-54 -52 -55 -140q0 -70 39 -106q39 -35 113 -35q92 1 147 50q56 49 57 138q0 73 -40 109q-40 37 -113 37v0zM744 228q25 0 35 -17q11 -18 11 -48q0 -41 -17 -69t-49 -29q-23 0 -36 17q-12 17 -12 49
q0 40 17 68t51 29v0z" />
    <glyph glyph-name="ampersand" unicode="&#x26;" horiz-adv-x="823" 
d="M458 135q-28 -27 -63 -42q-36 -15 -82 -15q-53 -1 -87 24q-35 24 -36 80q0 43 22 76t60 56q49 -38 96 -83t90 -96v0zM338 425q-29 21 -43 45t-14 56q2 50 25 70q22 20 45 19q20 0 37 -17q16 -17 17 -56q0 -36 -17 -66t-50 -51v0zM597 406q-4 -44 -16 -91q-13 -48 -31 -86
q-37 39 -75 74t-74 63v9q57 15 98 65q40 50 42 116q-4 78 -59 113q-55 36 -119 35q-77 0 -147 -47q-71 -48 -76 -149q0 -49 20 -82q19 -33 52 -52v-9q-68 -19 -115 -74q-48 -54 -50 -132q4 -96 77 -138t166 -41q70 0 127 22q57 21 103 58q11 -13 22 -28q11 -16 20 -32h177
q0 19 -3 44t-8 41q-15 5 -33 8q-18 4 -35 5q-9 12 -19 24q-10 11 -18 20q29 41 50 86q22 44 35 88q14 2 29 6t25 9q10 17 19 44t10 47z" />
    <glyph glyph-name="quotesingle" unicode="'" horiz-adv-x="210" 
d="M103 417q23 57 47 140t31 143q-25 7 -58 11q-34 5 -65 5q-6 -64 -17 -142q-12 -79 -24 -146q19 -5 42 -8q22 -3 44 -3v0z" />
    <glyph glyph-name="parenleft" unicode="(" horiz-adv-x="324" 
d="M138 -219q26 6 59 19q33 12 55 25q-22 78 -34 165q-11 87 -11 175q0 157 39 321q38 164 110 304q-33 0 -74 -8q-42 -7 -66 -19q-78 -150 -114 -290q-37 -140 -37 -279q0 -93 17 -197t56 -216v0z" />
    <glyph glyph-name="parenright" unicode=")" horiz-adv-x="307" 
d="M-31 -178q20 -14 52 -26q31 -12 58 -18q91 179 132 328q40 149 39 303q0 91 -14 192q-14 102 -46 199q-31 -3 -63 -14q-32 -12 -53 -27q18 -69 26 -146t8 -161q1 -164 -33 -324q-33 -160 -106 -306v0z" />
    <glyph glyph-name="asterisk" unicode="*" horiz-adv-x="445" 
d="M344 406q17 16 39 47q23 31 33 55l-83 29q-10 4 -25 9q-15 4 -28 5l1 8q13 2 29 6t27 9l94 39q-9 21 -24 47q-15 25 -28 41l-74 -52q-11 -8 -23 -18q-12 -11 -22 -22l-8 6q9 11 16 27t9 28l18 87q-23 0 -54 -3t-53 -8v-76q0 -12 3 -27q2 -15 6 -26l-8 -5q-4 7 -14 19
t-20 20l-63 52q-17 -18 -33 -49q-17 -31 -22 -54l68 -26q11 -4 27 -9q16 -6 27 -7l-1 -8q-11 -3 -29 -8q-17 -5 -29 -9l-78 -25q3 -23 15 -53q13 -29 26 -46l72 59q8 7 21 18t21 19l6 -6q-5 -8 -12 -24t-10 -28l-22 -85q12 -3 29 -4q17 -2 28 -2q13 0 28 2q15 1 27 4l-2 85
q0 12 -2 28t-6 28l7 5q6 -10 15 -20q10 -11 19 -20z" />
    <glyph glyph-name="plus" unicode="+" 
d="M344 325v197q-33 0 -71 -3t-64 -9v-185h-172q-7 -22 -12 -53t-5 -55h189v-194q13 -3 32 -5q18 -2 38 -2q19 0 37 2t28 5v194h184q2 14 2 32q0 22 -2 43q-2 20 -5 33h-179z" />
    <glyph glyph-name="comma" unicode="," horiz-adv-x="218" 
d="M44 13q-12 -42 -31 -90q-19 -47 -40 -93q9 -10 32 -21t42 -17q40 57 86 148t71 173q-22 7 -50 11q-29 4 -53 4q-13 0 -28 -2q-15 -1 -26 -5q-16 -16 -31 -43q-16 -28 -25 -53z" />
    <glyph glyph-name="hyphen" unicode="-" horiz-adv-x="343" 
d="M285 220q5 19 8 42q2 24 2 45q0 13 -1 25h-253q-9 -24 -16 -54t-9 -58h269z" />
    <glyph glyph-name="period" unicode="." horiz-adv-x="281" 
d="M130 175q-41 -1 -66 -26q-26 -25 -27 -65q0 -48 24 -72q23 -24 69 -24q39 0 64 26q24 25 25 70q-1 44 -25 68q-24 23 -64 23v0z" />
    <glyph glyph-name="slash" unicode="/" horiz-adv-x="454" 
d="M515 747q-26 7 -60 11q-35 4 -64 4l-418 -898q18 -13 54 -28t62 -21z" />
    <glyph glyph-name="zero" unicode="0" horiz-adv-x="625" 
d="M340 559q-147 -2 -232 -91q-85 -90 -87 -242q0 -123 60 -184q60 -62 176 -62q147 2 233 91q86 88 88 240q-1 124 -62 186t-176 62v0zM320 464q53 -1 80 -42q26 -42 26 -115q-1 -96 -40 -162q-40 -66 -109 -69q-51 1 -77 42t-26 116q0 92 37 160q37 67 109 70v0z" />
    <glyph glyph-name="one" unicode="1" horiz-adv-x="449" 
d="M139 111q-21 -3 -50 -11q-28 -7 -47 -15q-11 -17 -20 -41q-10 -24 -15 -44h382q2 10 4 26q1 16 1 32q0 9 -1 17q0 8 -1 13q-19 7 -50 14q-31 6 -56 9l46 448q-88 -5 -157 -20t-104 -28q-11 -19 -19 -45t-13 -55l136 19z" />
    <glyph glyph-name="two" unicode="2" horiz-adv-x="546" 
d="M185 355l11 86q13 8 33 13q21 5 42 5q31 0 47 -15q17 -15 17 -44q-12 -85 -126 -167q-115 -82 -193 -137l6 -96h435q8 25 14 64t7 67q-63 -8 -134 -13t-135 -7v12q87 48 183 128q97 80 105 181q-2 70 -57 99t-141 28q-68 -1 -125 -15t-104 -36q-7 -26 -11 -55
q-3 -30 -3 -60q0 -17 1 -34q1 -16 3 -31q31 1 65 8q34 6 60 19v0z" />
    <glyph glyph-name="three" unicode="3" horiz-adv-x="531" 
d="M190 448q13 5 32 8q18 4 34 4q28 0 48 -15q20 -16 21 -50q-4 -62 -63 -90q-59 -29 -131 -31q-8 -21 -13 -48q-6 -27 -6 -48q98 0 144 -23t45 -72q-3 -51 -48 -73q-46 -23 -103 -23q-35 0 -82 7t-85 19q-1 -4 -1 -10q-1 -6 -1 -11q0 -21 5 -45t13 -41q32 -11 73 -17
q40 -6 78 -6q119 0 214 57t100 165q-1 58 -34 90t-84 41v9q53 16 95 62t44 108q-3 75 -61 110q-59 34 -138 34q-51 0 -109 -11q-59 -12 -113 -32q-9 -42 -11 -80q-2 -39 5 -81q31 2 66 9t58 20z" />
    <glyph glyph-name="four" unicode="4" horiz-adv-x="569" 
d="M437 67h78q4 16 6 36t2 39q0 9 -1 17q0 8 -1 14h-75l33 363l-149 23q-96 -100 -183 -207q-87 -106 -157 -211l13 -74h292l-16 -163q14 -4 33 -5q20 -2 42 -2q39 0 68 7zM306 172h-75q-19 0 -42 -1q-24 -2 -43 -5v12q34 53 83 118q50 65 97 115h12q-6 -21 -12 -49
q-5 -29 -7 -49z" />
    <glyph glyph-name="five" unicode="5" horiz-adv-x="523" 
d="M99 542l-59 -360q51 10 90 15q38 5 64 5q51 0 78 -20t27 -66q-2 -66 -49 -97q-46 -31 -112 -31q-30 0 -69 5q-40 6 -75 14q-1 -5 -1 -10q-1 -6 -1 -11q0 -21 5 -44t13 -40q29 -8 65 -14q36 -5 72 -5q117 0 210 63q93 62 98 185q-2 89 -55 130q-54 41 -139 40
q-19 0 -35 -2q-17 -2 -32 -6l16 133q64 -1 128 -4q63 -2 127 -6q12 33 19 64q6 31 9 62h-394z" />
    <glyph glyph-name="six" unicode="6" horiz-adv-x="567" 
d="M195 361q29 108 85 148q56 41 107 39q32 0 72 -10q39 -10 65 -25q1 5 1 11q1 6 1 12q0 23 -5 48q-4 25 -11 41q-25 15 -53 22q-29 6 -63 6q-151 -3 -256 -117q-104 -114 -109 -303q0 -122 53 -187q54 -65 158 -66q116 2 192 71t79 180q0 81 -45 131t-132 51
q-46 0 -77 -14t-50 -38h-12zM184 273q21 18 47 29q27 11 54 11q38 0 59 -23q20 -22 20 -68q-1 -59 -29 -101q-28 -43 -76 -45q-39 1 -59 35q-21 33 -21 94q0 17 1 35q2 17 4 33v0z" />
    <glyph glyph-name="seven" unicode="7" horiz-adv-x="539" 
d="M507 539h-464l-32 -187q19 -9 51 -15t55 -6q9 18 20 43t17 46h212v-12q-96 -116 -171 -235q-75 -118 -132 -265q35 -8 83 -8q21 0 40 2q19 1 38 5q47 138 123 272q75 133 173 268z" />
    <glyph glyph-name="eight" unicode="8" horiz-adv-x="568" 
d="M170 321q-62 -9 -104 -56q-42 -48 -44 -121q5 -94 72 -130q68 -36 144 -34q109 0 189 54q80 53 84 158q-1 61 -31 97t-78 54v9q46 10 83 50t39 104q-3 80 -64 114q-60 34 -138 33q-93 1 -166 -45t-77 -145q1 -53 25 -84q25 -31 66 -49v-9zM246 286q52 -23 85 -48
q32 -26 33 -72q-2 -50 -35 -72q-34 -22 -71 -22q-34 -1 -61 21q-27 21 -28 71q1 43 22 74t55 48v0zM322 387q-48 22 -77 45q-29 24 -30 61q2 42 32 58q30 17 57 16q27 1 51 -15q24 -17 26 -58q0 -31 -16 -59q-16 -29 -43 -48v0z" />
    <glyph glyph-name="nine" unicode="9" 
d="M362 180q-33 -112 -90 -151q-58 -40 -112 -37q-33 0 -76 9q-42 8 -73 22q-1 -4 -1 -9q-1 -6 -1 -11q0 -23 6 -48t14 -41q29 -14 65 -23q36 -8 73 -8q159 4 255 120q95 117 98 299q0 126 -54 191q-54 66 -160 66q-116 -2 -189 -69q-73 -66 -75 -177q0 -81 45 -133
q44 -51 134 -53q47 0 78 15q30 14 51 38h12zM374 277q-22 -23 -51 -36q-28 -14 -61 -14q-36 0 -55 25q-20 25 -20 72q1 58 29 99q28 40 76 42q41 -1 64 -36q22 -35 22 -99q0 -24 -4 -53v0z" />
    <glyph glyph-name="colon" unicode=":" horiz-adv-x="254" 
d="M148 507q-40 -1 -64 -24q-25 -24 -26 -64q0 -47 23 -71q23 -23 67 -23q39 0 63 25q24 24 25 69q-1 43 -24 65q-24 23 -64 23v0zM116 175q-41 -1 -66 -26q-26 -25 -27 -65q0 -48 24 -72q23 -24 69 -24q39 0 64 26q24 25 25 70q-1 44 -25 68q-24 23 -64 23v0z" />
    <glyph glyph-name="semicolon" unicode=";" horiz-adv-x="266" 
d="M155 507q-40 -1 -64 -24q-25 -24 -26 -64q0 -47 23 -71q23 -23 67 -23q39 0 63 25q24 24 25 69q-1 43 -24 65q-24 23 -64 23v0zM57 13q-12 -42 -31 -90q-19 -47 -40 -93q9 -10 32 -21t42 -17q40 57 86 148t71 173q-22 7 -50 11q-29 4 -53 4q-13 0 -28 -2q-15 -1 -26 -5
q-16 -16 -31 -43q-16 -28 -25 -53z" />
    <glyph glyph-name="less" unicode="&#x3c;" 
d="M487 457q-16 19 -45 43q-28 23 -53 37l-308 -226l-5 -79l323 -234q19 14 42 43t32 50l-247 174v12z" />
    <glyph glyph-name="equal" unicode="=" 
d="M503 313q2 14 2 32q0 22 -2 42t-5 33h-433q-6 -22 -11 -52q-5 -31 -5 -55h454zM503 117q2 14 2 32q0 22 -2 42t-5 33h-433q-6 -22 -11 -52q-5 -31 -5 -55h454z" />
    <glyph glyph-name="greater" unicode="&#x3e;" 
d="M484 233l-5 77l-307 220q-25 -12 -54 -35t-47 -43l261 -180v-12l-247 -173q9 -21 33 -50t44 -42z" />
    <glyph glyph-name="question" unicode="?" horiz-adv-x="508" 
d="M213 619q17 7 33 10t29 3q36 -1 51 -19q14 -19 14 -40q-12 -74 -96 -129t-96 -147q0 -27 11 -54t28 -46q29 3 61 15q31 12 52 26q-8 12 -12 28q-4 15 -4 30q13 70 108 126q94 55 107 172q-1 63 -51 97q-49 35 -136 35q-52 0 -114 -11t-107 -27q-3 -27 -4 -55
q-2 -28 -2 -56q0 -20 1 -39t2 -36q27 2 60 9t57 20zM236 152q-37 -1 -60 -24q-24 -23 -25 -60q0 -44 22 -66q21 -22 63 -22q36 0 59 23q22 23 23 65q-1 41 -23 63q-22 21 -59 21v0z" />
    <glyph glyph-name="at" unicode="@" horiz-adv-x="1011" 
d="M719 439q-28 23 -72 38t-96 16q-65 -1 -117 -25q-51 -25 -87 -67q-40 -48 -62 -111q-22 -62 -22 -124q1 -85 37 -126q36 -40 93 -40q47 1 80 20q33 20 55 47h9q2 -16 8 -35q5 -19 13 -32q215 17 315 134q99 116 98 262q-4 159 -113 243t-274 85q-241 -6 -398 -162
q-156 -156 -162 -391q2 -185 109 -293q107 -109 299 -111q82 0 167 21q85 22 159 65q-4 17 -16 40t-23 35q-58 -30 -127 -47q-69 -18 -131 -18q-152 2 -234 89q-83 87 -84 235q4 185 120 312q116 126 299 131q117 0 203 -61t90 -186q1 -86 -46 -164q-48 -78 -149 -103
q-3 6 -5 15q-2 8 -3 16zM527 153q-14 -20 -36 -32q-21 -12 -42 -12q-24 -1 -35 19q-12 20 -12 68q0 37 12 77q11 40 36 74q17 23 40 38t56 15q6 0 16 -1q10 -2 17 -4z" />
    <glyph glyph-name="A" unicode="A" horiz-adv-x="755" 
d="M723 0q0 22 -2 47t-6 46q-10 5 -24 9q-15 4 -27 6l-183 611h-108l-307 -614q-12 -2 -26 -6q-13 -4 -23 -9q-9 -19 -18 -43q-9 -23 -14 -47h284q0 19 -4 46q-3 26 -8 45q-13 4 -31 7t-34 5q10 14 20 33q10 18 16 32l13 33h237l8 -28q5 -18 12 -35q6 -17 15 -31
q-13 -2 -31 -7q-17 -4 -31 -9q-9 -19 -19 -45q-9 -27 -13 -46h304zM401 573q1 -33 7 -76q7 -42 13 -67l35 -136h-172l60 136q11 26 26 69q14 42 19 74h12z" />
    <glyph glyph-name="B" unicode="B" horiz-adv-x="672" 
d="M508 380q52 17 83 62q30 46 31 101q-2 91 -77 134q-74 43 -193 43q-60 0 -126 -4q-67 -4 -136 -9q-4 -18 -6 -46q-1 -29 0 -47q12 -3 30 -6q17 -2 33 -4l-44 -496q-16 -2 -35 -6t-32 -9q-8 -16 -16 -43t-11 -47q65 -4 151 -7t158 -3q121 -1 214 52t98 177q-1 58 -33 96
q-33 37 -89 53v9zM272 320h63q63 0 102 -26q39 -27 40 -84q0 -63 -41 -92t-117 -29q-15 0 -32 1t-33 3zM293 622q10 2 22 3t20 1q65 0 101 -25q36 -26 36 -76q-1 -59 -36 -85t-98 -25h-60z" />
    <glyph glyph-name="C" unicode="C" horiz-adv-x="637" 
d="M472 517q22 -12 56 -20q33 -9 62 -9q12 40 21 94q10 53 15 100q-39 21 -89 34t-105 13q-165 -3 -278 -115q-113 -113 -118 -304q1 -151 78 -239q78 -89 216 -91q57 1 112 15q55 15 99 38q13 21 23 50q10 30 10 52q-49 -18 -103 -28q-55 -10 -94 -10q-83 -1 -131 55
q-48 55 -49 174q2 139 63 221q60 81 155 83q38 0 66 -15z" />
    <glyph glyph-name="D" unicode="D" horiz-adv-x="736" 
d="M102 110q-16 -2 -35 -6t-32 -9q-9 -16 -16 -43q-8 -27 -11 -47q74 -7 169 -10q94 -3 171 -3q146 0 252 104t111 310q-2 160 -96 236q-94 77 -256 76q-53 0 -133 -6q-80 -5 -138 -12q-4 -18 -6 -47q-1 -29 0 -47l30 -5q18 -2 33 -4zM292 615q12 2 27 4q15 1 27 1
q97 0 155 -58q57 -58 58 -178q-2 -143 -66 -218q-64 -74 -171 -75q-16 0 -35 1q-18 2 -33 4z" />
    <glyph glyph-name="E" unicode="E" horiz-adv-x="639" 
d="M563 0l15 192q-26 0 -60 -4t-56 -11q-7 -18 -12 -39q-6 -22 -9 -42h-189l17 220h156q0 -10 1 -23q2 -13 4 -23q22 -7 52 -8q29 -2 55 0l14 205q-27 0 -56 -4t-52 -11q-3 -10 -7 -23q-3 -12 -5 -21h-155l14 207h194q0 -17 1 -37q2 -21 4 -35q23 -7 53 -11t56 -4l17 181
h-528q-4 -17 -6 -46q-1 -28 0 -46q11 -4 29 -7t34 -5l-44 -499q-16 -2 -36 -7q-21 -4 -33 -9q-9 -16 -16 -43q-8 -27 -11 -47h559z" />
    <glyph glyph-name="F" unicode="F" horiz-adv-x="581" 
d="M265 298h132q1 -11 2 -26t3 -25q21 -7 51 -9t56 0l17 216q-27 0 -56 -5q-29 -4 -51 -11q-5 -11 -8 -25q-3 -13 -5 -23h-134l14 225h172q0 -18 2 -41q3 -23 5 -38q22 -8 53 -12q31 -5 57 -5l16 190h-509q-5 -17 -6 -46q-1 -28 1 -46q11 -4 29 -7t34 -5l-40 -499
q-15 -2 -36 -7q-21 -4 -33 -9q-8 -16 -16 -43q-7 -27 -10 -47h343q4 17 5 46q0 28 -4 46q-19 5 -46 9q-27 3 -50 5z" />
    <glyph glyph-name="G" unicode="G" horiz-adv-x="733" 
d="M622 261q14 1 35 4q20 3 34 6q8 20 14 45q5 26 7 45h-358q0 -21 2 -46q2 -24 6 -44q26 -5 61 -8t60 -3l-18 -170q-19 -2 -42 -4q-22 -2 -41 -2q-86 -1 -133 52t-48 171q3 150 70 238q68 87 169 89q22 0 45 -5t41 -15l-10 -102q17 -10 53 -18q35 -8 64 -9q12 36 23 89
q10 53 14 93q-47 31 -100 46q-52 16 -115 16q-187 -4 -300 -123q-113 -120 -116 -310q0 -145 74 -230q74 -84 215 -86q71 1 149 18q78 16 125 32z" />
    <glyph glyph-name="H" unicode="H" horiz-adv-x="823" 
d="M550 311l-19 -205q-14 -2 -33 -7q-19 -4 -30 -9q-8 -16 -15 -43q-8 -27 -11 -47h315q5 17 6 46q1 28 -2 46q-16 5 -37 9q-21 3 -40 5l39 500q16 1 37 4q22 3 36 7q5 14 8 37t3 42v5t-1 8h-277q-5 -17 -7 -46q-2 -28 -1 -46q10 -4 27 -7q16 -3 30 -5l-18 -195h-279l14 196
q14 1 34 4q19 3 32 7q5 18 9 46q3 29 2 46h-278q-5 -17 -6 -46q-2 -28 -1 -46q11 -4 29 -7t34 -5l-47 -499q-15 -2 -36 -7q-21 -4 -33 -9q-9 -16 -17 -43t-11 -47h316q5 17 6 46q1 28 -2 46q-14 5 -33 9q-19 3 -37 5l16 205h278z" />
    <glyph glyph-name="I" unicode="I" horiz-adv-x="394" 
d="M328 0q4 17 5 46q1 28 -1 46q-16 5 -37 9q-21 3 -40 5l41 500q16 1 37 4q22 3 36 7q5 14 8 37t3 42v5t-1 8h-286q-5 -17 -6 -46q-2 -28 -1 -46q11 -4 29 -7t34 -5l-47 -499q-16 -2 -36 -7q-21 -4 -33 -9q-9 -16 -17 -43t-11 -47h323z" />
    <glyph glyph-name="J" unicode="J" horiz-adv-x="361" 
d="M288 606q15 1 37 4q21 3 35 7q5 14 8 37t3 42v5t-1 8h-303q-5 -17 -7 -46q-2 -28 0 -46q15 -4 38 -7t44 -5l-34 -389q-8 -104 -52 -186t-133 -133q4 -20 15 -43q12 -23 25 -37q135 61 211 169q75 107 87 256z" />
    <glyph glyph-name="K" unicode="K" horiz-adv-x="742" 
d="M282 405l16 201q14 1 33 4t32 7q5 18 9 46q3 29 2 46h-278q-5 -17 -6 -46q-2 -28 -1 -46q11 -4 29 -7t34 -5l-47 -499q-15 -2 -36 -7q-21 -4 -33 -9q-9 -16 -17 -43t-11 -47h316q5 17 6 46q1 28 -2 46q-14 5 -33 9q-18 3 -36 5l17 207h40l209 -333q34 2 73 7q38 6 66 13
q13 20 23 51q11 31 13 56l-64 -4l-185 265l199 235q13 1 30 2q17 2 32 5q9 21 16 50q8 28 11 49h-279q-2 -19 -2 -46q-1 -27 3 -47q8 -2 23 -5q14 -3 27 -5q-13 -10 -27 -25q-15 -15 -24 -28l-117 -148h-61z" />
    <glyph glyph-name="L" unicode="L" horiz-adv-x="628" 
d="M104 106q-16 -2 -36 -7q-20 -4 -33 -9q-9 -16 -17 -43t-11 -47h566l19 213q-26 0 -60 -4q-35 -5 -60 -13q-6 -18 -13 -47t-11 -51h-192l40 508q22 1 52 4q29 3 48 7q6 18 10 46q3 29 2 46h-313q-5 -17 -6 -46q-2 -28 -1 -46q11 -4 29 -7t34 -5z" />
    <glyph glyph-name="M" unicode="M" horiz-adv-x="965" 
d="M381 -11h108l178 421q17 41 32 91t26 95h12l-46 -490q-15 -2 -32 -7q-17 -4 -30 -9q-8 -16 -15 -43t-10 -47h297q3 16 4 45q1 28 -2 45q-16 4 -37 7t-39 5l42 504q16 1 37 4q22 3 36 7q5 14 8 37t3 42v5t-1 8h-254l-173 -378q-15 -33 -30 -85q-15 -51 -21 -91h-12
q0 43 -6 98q-5 56 -15 95l-94 361h-263q-5 -17 -6 -46q-2 -28 -1 -46q10 -4 27 -7t31 -5l-47 -499q-13 -2 -30 -7q-17 -4 -28 -9q-7 -16 -14 -43q-8 -27 -11 -47h256q5 17 6 45t-1 46q-13 5 -30 9q-17 3 -32 5l41 487h12q0 -41 6 -90q5 -50 13 -84z" />
    <glyph glyph-name="N" unicode="N" horiz-adv-x="772" 
d="M334 709h-249q-5 -17 -6 -46q-2 -28 -1 -46q11 -4 29 -7t34 -5l-47 -499q-14 -2 -32 -7q-19 -4 -32 -9q-7 -16 -14 -43q-8 -27 -11 -47h276q5 17 6 46q1 28 -2 46q-14 5 -34 9q-19 3 -37 5l37 465h12q3 -34 13 -74q11 -41 24 -72l182 -433h160l52 614q14 1 34 4t32 7
q5 14 8 37t3 42v5t-1 8h-244q-5 -17 -7 -46q-2 -28 -1 -46q13 -4 34 -7q20 -3 39 -5l-41 -437h-12q-3 38 -12 79q-9 40 -23 72z" />
    <glyph glyph-name="O" unicode="O" horiz-adv-x="712" 
d="M407 729q-165 -3 -261 -121q-97 -117 -99 -307q1 -157 71 -239q71 -82 205 -82q166 3 264 117q98 113 100 305q-1 162 -75 245q-74 82 -205 82v0zM391 631q69 -1 105 -61q36 -61 36 -170q-1 -134 -51 -225q-50 -92 -139 -96q-68 1 -103 61q-35 59 -35 168q0 128 47 223
q46 95 140 100v0z" />
    <glyph glyph-name="P" unicode="P" horiz-adv-x="623" 
d="M104 106q-17 -2 -36 -7q-20 -4 -33 -9q-9 -16 -16 -43q-8 -27 -11 -47h343q5 17 5 46q1 28 -3 46q-20 5 -47 9q-28 3 -52 5l12 169q13 -3 33 -5q21 -2 42 -2q111 0 195 62q85 63 89 194q-1 107 -76 152q-75 44 -212 43q-52 0 -129 -4q-76 -5 -124 -10q-2 -22 -4 -50
t0 -47q13 -2 31 -4t33 -2zM286 620q9 2 24 2q16 1 27 1q68 0 104 -30q36 -29 36 -90q-2 -70 -40 -105q-38 -34 -94 -34q-16 0 -37 2q-22 2 -34 4z" />
    <glyph glyph-name="Q" unicode="Q" horiz-adv-x="746" 
d="M407 729q-165 -3 -262 -121q-98 -117 -100 -307q1 -157 72 -239q72 -82 206 -82q71 0 131 23q49 -58 117 -114q68 -57 111 -61q12 0 35 5t35 11q14 25 26 59q11 35 12 65l-87 -10q-20 5 -62 39q-43 34 -78 69v9q60 54 93 137q33 82 33 190q-1 162 -76 245q-75 82 -206 82
v0zM391 631q69 -1 106 -61q37 -61 37 -170q-1 -134 -52 -225q-51 -92 -140 -96q-68 1 -104 61q-36 59 -36 168q0 128 48 223q47 95 141 100v0z" />
    <glyph glyph-name="R" unicode="R" horiz-adv-x="690" 
d="M103 106q-15 -2 -36 -7q-21 -4 -33 -9q-9 -16 -17 -43t-11 -47h314q5 17 6 46q1 28 -2 46q-14 5 -34 9q-19 3 -37 5l14 193q12 -3 30 -5t38 -2q35 -101 83 -192q47 -92 74 -116q26 2 66 8q40 7 64 14q12 19 20 49q9 30 9 55l-53 -6q-21 17 -57 75t-71 137q68 23 112 79
q43 55 45 133q-2 99 -74 145t-186 46q-68 0 -142 -4q-75 -3 -134 -11q-3 -22 -5 -50t-1 -47q12 -3 31 -5q18 -2 33 -2zM292 619q12 2 26 3q15 1 29 1q60 0 96 -30q35 -30 36 -86q-2 -60 -39 -90q-37 -31 -88 -31q-20 0 -41 2q-22 1 -36 4z" />
    <glyph glyph-name="S" unicode="S" horiz-adv-x="584" 
d="M408 540q22 -11 55 -18q32 -7 57 -7q13 39 24 90t14 89q-45 17 -98 26q-52 9 -100 9q-123 -1 -190 -61q-66 -59 -67 -163q18 -155 146 -197q127 -42 145 -131q-1 -52 -33 -78q-33 -27 -87 -27q-27 0 -51 6q-25 6 -48 15l9 104q-24 8 -60 13t-61 5q-12 -42 -21 -98
q-10 -56 -14 -100q49 -19 105 -28t107 -9q124 -2 209 54t89 191q-18 144 -147 190t-147 133q0 39 29 64q28 25 79 26q16 0 32 -3q15 -4 32 -13z" />
    <glyph glyph-name="T" unicode="T" horiz-adv-x="627" 
d="M415 615h106q-1 -19 1 -43t5 -41q25 -7 55 -11q30 -3 59 -3l16 192h-608l-16 -189q26 0 56 3q30 2 58 11q6 16 12 40t9 41h102l-45 -509q-19 -2 -43 -7t-40 -10q-9 -16 -18 -43q-9 -26 -12 -46h359q4 17 5 46q1 28 -3 46q-19 5 -45 9q-26 3 -50 5z" />
    <glyph glyph-name="U" unicode="U" horiz-adv-x="717" 
d="M258 606q15 1 35 4q19 3 33 7q5 18 8 46q3 29 2 46h-289q-1 -8 -1 -17q-1 -10 -1 -21q0 -14 1 -28t2 -24q13 -4 31 -7q17 -2 32 -4l-29 -341q-2 -24 -2 -47q0 -120 60 -180q59 -60 185 -60q157 2 233 84q77 82 86 218l24 324q13 1 31 4q19 3 30 7q5 13 8 37q3 23 3 42v5
t-1 8h-238q-5 -17 -7 -46q-2 -28 0 -46q11 -4 28 -7q16 -3 31 -5l-28 -330q-7 -86 -46 -139q-40 -53 -120 -55q-66 0 -96 40t-30 119q0 17 1 35z" />
    <glyph glyph-name="V" unicode="V" horiz-adv-x="701" 
d="M352 153q-1 35 -7 72t-13 66l-48 209q-6 28 -18 56q-11 29 -21 49q14 0 38 3q24 2 37 5q9 21 17 48q8 28 11 48h-310q0 -20 3 -47q3 -26 8 -44q11 -4 24 -7q14 -3 26 -5l162 -618h120l284 617q12 1 27 3t27 5q8 19 14 47q7 27 9 49h-273q0 -19 4 -47q3 -28 8 -45
q14 -4 33 -6q18 -3 33 -4q-16 -23 -32 -54q-16 -30 -26 -56l-82 -206q-12 -29 -23 -66q-12 -37 -20 -72h-12z" />
    <glyph glyph-name="W" unicode="W" horiz-adv-x="1007" 
d="M301 127q0 42 -4 100q-4 57 -11 101l-27 173q-5 28 -13 57q-8 28 -17 47q13 0 34 3q21 2 32 5q9 21 16 48q7 28 9 48h-290q0 -19 2 -45q3 -26 7 -46q10 -4 23 -7t25 -5l114 -618h142l145 419q11 35 20 81q9 47 13 87h12q0 -40 2 -89t6 -83l54 -414h128l247 616q12 1 26 3
q13 2 25 5q8 19 14 47q7 27 9 49h-245q0 -20 3 -47q2 -27 7 -46q12 -4 27 -6q15 -3 28 -4q-14 -22 -28 -50q-13 -28 -23 -55l-70 -184q-12 -34 -23 -85t-17 -97h-12q0 46 -2 104t-7 97l-55 382h-137l-140 -401q-13 -40 -24 -94t-14 -96h-11z" />
    <glyph glyph-name="X" unicode="X" horiz-adv-x="726" 
d="M411 442l-58 105q-8 14 -21 32q-14 17 -24 26q13 1 29 3t27 5q9 21 16 48q7 28 10 48h-311q0 -20 3 -45q4 -26 9 -46q11 -4 27 -8q15 -4 29 -6l128 -222l-206 -280q-12 -2 -29 -5q-18 -4 -30 -8q-9 -18 -18 -41q-8 -24 -12 -48h288q0 21 -3 48q-2 27 -6 45q-10 3 -26 6
t-28 4q14 14 31 33t31 41l65 108l68 -115q10 -18 24 -38t26 -31q-9 -1 -24 -3q-14 -3 -25 -6q-7 -17 -15 -43q-9 -26 -13 -49h310q0 22 -3 49t-6 45q-15 4 -33 8q-19 3 -30 4l-150 248l179 251q11 1 26 3q16 3 26 5q9 19 17 47q7 28 10 49h-251q0 -19 3 -45q2 -27 7 -46
q8 -3 20 -6q13 -3 23 -4q-11 -11 -22 -25q-12 -14 -20 -28z" />
    <glyph glyph-name="Y" unicode="Y" horiz-adv-x="642" 
d="M337 353q-1 27 -8 56t-14 47l-38 98q-5 14 -13 29q-9 14 -17 22q13 1 30 3t29 5q7 21 14 48q7 28 10 48h-297q0 -22 1 -48q2 -26 6 -43q10 -4 23 -7t25 -5l151 -345l-14 -155q-18 -2 -43 -7q-24 -5 -40 -10q-9 -16 -18 -43q-10 -26 -13 -46h357q5 17 6 46q1 28 -3 46
q-19 5 -45 9q-26 3 -50 5l11 160l227 339q12 1 26 3t26 5q8 19 14 47q7 27 9 49h-254q0 -18 3 -46t6 -45q9 -4 22 -7t25 -5q-11 -10 -22 -22q-10 -12 -17 -23l-64 -106q-11 -19 -22 -47q-11 -29 -17 -55h-12z" />
    <glyph glyph-name="Z" unicode="Z" horiz-adv-x="616" 
d="M10 0h536l18 214q-28 0 -63 -5t-57 -13q-6 -19 -13 -47q-8 -29 -13 -51h-204v12l375 510l8 89h-507l-18 -202q29 0 63 4q35 4 59 9q6 18 12 47q7 29 10 47h186v-12l-386 -513z" />
    <glyph glyph-name="bracketleft" unicode="[" horiz-adv-x="336" 
d="M31 -212h225q5 17 8 42q2 26 0 41q-16 5 -39 9q-22 3 -39 5l68 801q14 1 32 3q19 3 33 6q5 17 10 42q4 25 4 45v2h-208z" />
    <glyph glyph-name="backslash" unicode="\" horiz-adv-x="425" 
d="M92 787q-27 -7 -57 -26q-31 -19 -47 -36l249 -902q26 3 63 15q38 12 58 23z" />
    <glyph glyph-name="bracketright" unicode="]" horiz-adv-x="340" 
d="M277 784h-201q-5 -16 -8 -44q-2 -28 -1 -45l30 -5q18 -2 33 -3l-76 -802q-18 -2 -38 -4q-21 -3 -37 -7q-6 -18 -12 -43t-8 -43h232z" />
    <glyph glyph-name="asciicircum" unicode="^" 
d="M41 379q11 -18 35 -42q23 -24 47 -39l110 183q11 18 22 46q10 27 15 49h12q5 -24 17 -52q12 -29 23 -46l101 -165q25 8 56 23q30 16 49 30l-207 329l-95 -10z" />
    <glyph glyph-name="underscore" unicode="_" horiz-adv-x="500" 
d="M-3 -147q-7 -21 -11 -50q-5 -29 -5 -52h526q1 7 1 15q1 8 1 16q0 21 -2 40q-2 20 -4 31h-506z" />
    <glyph glyph-name="grave" unicode="`" horiz-adv-x="435" 
d="M238 553q19 1 45 10q26 10 42 22l-103 192q-32 -1 -71 -13q-38 -13 -60 -29z" />
    <glyph glyph-name="a" unicode="a" horiz-adv-x="539" 
d="M297 64q2 -18 9 -40q7 -23 17 -41q33 0 80 9q46 8 74 19q10 17 18 44q9 27 9 46l-70 -7q-1 2 -2 7q-2 6 -2 10l40 337q-30 21 -74 36q-43 15 -93 16q-73 -1 -127 -28q-55 -28 -91 -74q-37 -48 -55 -106q-19 -58 -19 -119q1 -100 40 -145q39 -46 100 -45q49 1 83 23t54 58
h9zM288 138q-37 -49 -82 -49q-23 -1 -37 21q-13 21 -13 73q0 40 10 86q9 47 30 80q17 25 43 43q25 17 54 18q7 0 17 -1q9 -1 17 -3z" />
    <glyph glyph-name="b" unicode="b" horiz-adv-x="544" 
d="M23 18q45 -15 95 -25q49 -10 95 -10q61 0 112 21q50 21 88 62q39 44 60 112q21 67 21 134q-3 100 -47 144q-45 45 -100 44t-88 -24q-33 -24 -45 -57h-15q10 34 20 78q10 45 13 81l14 146q-14 4 -31 6q-18 3 -31 3q-35 0 -69 -7t-58 -21q-11 -12 -18 -41q-8 -29 -8 -46
l68 7zM202 337q16 24 40 41q25 17 50 18q29 0 42 -28t13 -82q0 -49 -11 -95t-34 -74q-16 -18 -40 -28t-48 -10q-11 0 -21 2q-11 1 -19 4z" />
    <glyph glyph-name="c" unicode="c" horiz-adv-x="481" 
d="M302 339q20 -14 52 -22t57 -8q16 34 25 73q9 38 9 74q-31 20 -70 32q-38 12 -83 12q-63 0 -114 -24t-86 -65q-39 -47 -57 -108q-19 -61 -19 -128q0 -89 48 -140t148 -52q50 1 91 17q40 16 69 38q13 20 23 49q10 28 10 51q-33 -16 -78 -28q-44 -12 -84 -13q-41 0 -62 25
q-20 24 -20 75q0 39 9 85t31 81q13 20 33 31q20 12 45 12q8 0 16 -1q8 -2 14 -4z" />
    <glyph glyph-name="d" unicode="d" horiz-adv-x="547" 
d="M512 724q-14 4 -31 6q-17 3 -30 3q-35 0 -69 -7t-58 -21q-11 -12 -18 -41q-8 -29 -8 -46l68 7l-19 -139q-14 7 -32 10q-19 4 -37 4q-60 -1 -114 -29q-53 -29 -85 -74q-33 -48 -51 -107q-19 -60 -19 -120q1 -98 43 -143t106 -44q50 1 86 23q35 22 55 58h9q2 -18 9 -40
q7 -23 17 -41q33 0 80 9q46 8 74 19q10 17 18 44q9 27 9 46l-70 -7q-1 2 -2 7q-2 6 -2 10zM301 137q-21 -24 -42 -36q-22 -12 -47 -12q-26 -1 -41 21q-14 21 -14 73q0 41 10 88t33 82q16 24 41 40q24 15 54 15q12 0 21 -1q9 -2 19 -5z" />
    <glyph glyph-name="e" unicode="e" horiz-adv-x="470" 
d="M154 192q162 14 221 65q58 52 55 114q0 61 -40 95q-39 34 -114 34q-62 0 -110 -24q-47 -23 -80 -64q-37 -49 -56 -113t-19 -127q0 -93 44 -141q45 -48 136 -48q58 1 104 19q45 17 74 40q12 21 20 49q9 29 9 51q-36 -18 -85 -30q-48 -13 -92 -13q-33 -1 -50 18
q-17 18 -17 62v13zM163 282q2 18 8 40t16 39q12 22 31 36q18 14 39 14q19 0 27 -13q8 -12 8 -32q3 -27 -22 -52q-24 -25 -107 -32v0z" />
    <glyph glyph-name="f" unicode="f" horiz-adv-x="368" 
d="M224 483l7 58q7 57 27 83q19 26 43 26q8 0 15 -3l-6 -46q19 -12 50 -20q30 -9 57 -9q14 30 24 71q10 40 10 72q-38 13 -71 18q-33 6 -58 6q-82 1 -144 -46q-62 -48 -79 -155l-6 -44q-16 -3 -33 -8q-16 -6 -30 -12q-9 -15 -17 -40q-9 -26 -12 -50h81l-65 -526q12 -4 29 -5
q16 -2 33 -2q22 0 44 2t38 5l52 526h138q4 21 5 50t-1 49h-131z" />
    <glyph glyph-name="g" unicode="g" horiz-adv-x="510" 
d="M306 83q-10 -23 -18 -53q-9 -30 -12 -56q-5 -50 -29 -81q-23 -32 -84 -33q-34 0 -76 13t-84 38q-3 -10 -5 -25q-2 -14 -2 -26q0 -23 4 -44q4 -22 12 -40q36 -11 77 -18q42 -6 77 -6q135 3 191 78t65 187l46 431q-31 21 -74 36q-44 15 -94 16q-73 -1 -127 -27
q-55 -27 -91 -73q-37 -47 -55 -104q-19 -57 -19 -117q1 -98 41 -142q40 -45 105 -44q49 1 83 26q34 24 53 64h16zM325 406l-22 -227q-20 -38 -45 -59q-25 -20 -49 -20q-27 -1 -41 19q-15 20 -15 71q0 38 10 84q9 45 30 77q17 25 43 42q25 16 54 17q7 0 17 -1t18 -3v0z" />
    <glyph glyph-name="h" unicode="h" horiz-adv-x="563" 
d="M21 4q13 -4 29 -5q17 -2 35 -2q24 0 46 2t39 5l35 321q15 26 40 49q25 22 53 24q24 0 35 -17q10 -17 10 -45q-1 -44 -14 -124q-12 -80 -23 -137q1 -20 16 -48q15 -29 30 -44q33 0 80 9q46 8 74 19q10 17 18 44q9 27 9 46l-73 -7q-1 2 -2 7q-2 6 -2 10q9 60 20 133
q10 72 11 118q-2 78 -41 108q-38 31 -89 30q-53 -1 -87 -24q-33 -24 -54 -58h-15q12 40 21 82q9 41 13 80l15 144q-14 4 -30 6q-17 3 -30 3q-35 0 -69 -7t-58 -21q-11 -12 -18 -41q-8 -29 -8 -46l68 7z" />
    <glyph glyph-name="i" unicode="i" horiz-adv-x="294" 
d="M79 385l-50 -310q1 -20 16 -48q15 -29 30 -44q34 0 79 9q45 8 73 19q10 17 18 44q9 27 9 46l-70 -7q-1 2 -2 7q-2 6 -2 10l44 374q-14 4 -31 6q-18 3 -31 3q-36 0 -70 -7t-58 -21q-10 -12 -17 -42q-8 -29 -8 -45zM170 765q-38 -1 -61 -24q-24 -24 -25 -62q0 -46 22 -69
t64 -23q37 0 60 24t24 68q-1 41 -23 64q-23 22 -61 22v0z" />
    <glyph glyph-name="j" unicode="j" horiz-adv-x="279" 
d="M-17 -237q82 73 137 169q56 96 70 214l38 339q-14 4 -31 6q-18 3 -31 3q-36 0 -70 -7t-58 -21q-10 -12 -17 -42q-8 -29 -8 -45l70 6l-37 -276q-13 -90 -51 -165t-83 -121q11 -18 31 -35q20 -16 40 -25v0zM162 765q-38 -1 -61 -24q-24 -24 -25 -62q0 -46 22 -69t64 -23
q37 0 60 24t24 68q-1 41 -23 64q-23 22 -61 22v0z" />
    <glyph glyph-name="k" unicode="k" horiz-adv-x="523" 
d="M18 4q13 -4 29 -5q17 -2 35 -2q24 0 46 2t39 5l17 161q8 3 19 9q12 5 19 9q25 -57 57 -113t63 -94q28 2 61 8q32 5 56 13q11 21 19 50q8 30 8 50l-59 -7q-20 27 -47 70q-26 42 -47 85q53 36 90 74q38 37 66 73q-1 23 -16 56q-16 33 -29 46q-27 0 -69 -4q-43 -5 -68 -13
q-13 -13 -23 -39q-9 -26 -12 -48l64 3q2 -3 3 -8t1 -10q-30 -32 -68 -63q-39 -31 -80 -57l50 469q-14 4 -31 6q-18 3 -31 3q-35 0 -69 -7t-58 -21q-11 -12 -18 -41q-8 -29 -8 -46l68 7z" />
    <glyph glyph-name="l" unicode="l" horiz-adv-x="285" 
d="M244 724q-14 4 -31 6q-18 3 -31 3q-35 0 -69 -7t-58 -21q-11 -12 -18 -41q-8 -29 -8 -46l68 7l-74 -550q1 -20 16 -48q15 -29 30 -44q34 0 79 9q45 8 73 19q10 17 18 44q9 27 9 46l-70 -7q-1 2 -2 7q-2 6 -2 10z" />
    <glyph glyph-name="m" unicode="m" horiz-adv-x="833" 
d="M298 4q12 -4 29 -5q16 -2 34 -2q23 0 44 2t38 5l37 327q15 25 38 46q23 20 48 21q23 0 34 -17q10 -17 10 -45q-1 -44 -14 -124q-12 -80 -23 -137q1 -20 16 -48q15 -29 30 -44q33 0 80 9q46 8 74 19q10 17 18 44q9 27 9 46l-73 -7q-1 2 -2 7q-2 6 -2 10q9 60 20 133
q10 72 11 118q-2 78 -40 108q-38 31 -88 30q-58 -1 -92 -30q-35 -28 -51 -67h-9q-11 52 -43 75q-33 23 -76 22q-60 -2 -95 -31q-36 -30 -53 -70h-15l9 86q-27 9 -56 9q-30 0 -58 -7t-49 -21q-10 -12 -17 -42q-8 -29 -8 -45l70 6l-57 -381q13 -4 29 -5q17 -2 35 -2q24 0 46 2
t39 5l36 326q14 25 36 46q23 21 47 22q24 0 36 -17q11 -17 11 -45q-1 -37 -13 -131t-30 -201v0z" />
    <glyph glyph-name="n" unicode="n" horiz-adv-x="564" 
d="M191 399l9 86q-27 9 -56 9q-30 0 -58 -7t-49 -21q-10 -12 -17 -42q-8 -29 -8 -45l70 6l-57 -381q13 -4 29 -5q17 -2 35 -2q24 0 46 2t39 5l36 326q15 25 39 46q23 21 50 22q24 0 35 -17q10 -17 10 -45q-1 -44 -14 -124q-12 -80 -23 -137q1 -20 16 -48q15 -29 30 -44
q33 0 80 9q46 8 74 19q10 17 18 44q9 27 9 46l-73 -7q-1 2 -2 7q-2 6 -2 10q9 60 20 133q10 72 11 118q-2 78 -41 108q-38 31 -89 30q-62 -2 -98 -31q-36 -30 -54 -70h-15z" />
    <glyph glyph-name="o" unicode="o" horiz-adv-x="521" 
d="M208 -17q77 1 132 32t87 83q26 42 39 91q12 50 12 101q0 105 -50 158q-50 52 -144 52q-80 -1 -136 -36q-57 -35 -89 -93q-22 -40 -33 -85q-10 -45 -10 -93q0 -105 49 -157q48 -53 143 -53v0zM227 78q-31 0 -47 27t-16 88q0 36 6 76q5 39 20 73q13 29 33 46q21 18 48 18
q32 0 46 -28q14 -29 14 -91q0 -38 -5 -77q-6 -39 -19 -70q-12 -28 -32 -45t-48 -17v0z" />
    <glyph glyph-name="p" unicode="p" horiz-adv-x="540" 
d="M-6 -227q13 -4 29 -5q17 -2 35 -2q24 0 46 2t39 5l21 222q14 -5 33 -9q18 -3 38 -3q58 1 107 23q48 23 79 60q38 47 57 112t19 130q-1 101 -42 147q-40 46 -102 45q-55 0 -93 -27t-60 -74h-15l9 86q-27 9 -56 9q-30 0 -58 -7t-49 -21q-10 -12 -17 -42q-8 -29 -8 -45l70 6
zM201 325q21 37 43 54q22 18 49 18q29 1 44 -22q16 -24 16 -82q0 -44 -10 -93q-10 -48 -37 -83q-16 -19 -39 -29t-55 -10q-11 0 -21 2q-11 2 -17 4z" />
    <glyph glyph-name="q" unicode="q" horiz-adv-x="529" 
d="M316 75q-9 -21 -18 -51q-9 -31 -11 -56l-10 -124q1 -20 15 -48q15 -29 30 -44q33 0 77 9q44 8 72 19q10 17 18 44q9 27 9 46l-70 -7q-1 2 -2 7q-2 6 -2 10l55 568q-31 21 -74 36q-44 15 -95 16q-73 -1 -128 -28q-55 -28 -92 -74q-38 -48 -57 -106t-19 -119
q1 -100 42 -146q42 -45 108 -44q49 1 83 26q35 25 53 66h16zM336 406l-23 -235q-20 -40 -45 -61t-49 -21q-28 -1 -43 20t-15 73q0 40 10 87q10 46 31 80q17 25 44 43q26 17 56 18q6 0 16 -1t18 -3v0z" />
    <glyph glyph-name="r" unicode="r" horiz-adv-x="392" 
d="M374 493q-9 3 -22 5t-27 2q-58 -2 -88 -37q-31 -36 -43 -84h-15l11 106q-27 9 -56 9q-30 0 -58 -7t-49 -21q-10 -12 -17 -42q-8 -29 -8 -45l70 6l-51 -381q12 -4 29 -5q17 -2 35 -2q24 0 46 2t38 5l27 289q16 36 43 58t63 23q17 0 37 -5q19 -5 34 -13q5 13 8 32
q3 18 3 39q0 19 -3 36q-2 17 -7 30v0z" />
    <glyph glyph-name="s" unicode="s" horiz-adv-x="446" 
d="M264 364q18 -12 49 -20t60 -8q11 28 18 65q8 37 9 65q-37 17 -76 25q-38 9 -72 9q-92 -1 -144 -43q-53 -41 -54 -108q12 -111 95 -145q82 -35 94 -80q-1 -24 -17 -38q-17 -14 -37 -14q-23 0 -39 19t-19 55q-39 0 -78 -14q-39 -15 -57 -39q4 -57 49 -84q44 -26 121 -26
q86 -1 151 39q65 39 68 128q-12 99 -97 137q-86 37 -98 82q1 21 15 33q13 12 32 12q9 0 18 -3t13 -5z" />
    <glyph glyph-name="t" unicode="t" horiz-adv-x="379" 
d="M87 494q-15 -3 -31 -8q-16 -6 -29 -12q-9 -15 -17 -40q-9 -26 -12 -50h77q-13 -73 -24 -153t-12 -121q0 -60 31 -93q32 -33 102 -34q28 0 60 8q33 7 66 23q15 20 24 50t9 53q-25 -8 -48 -13t-45 -5q-34 0 -44 17t-6 51l22 217h144q3 15 5 33q1 17 1 35v16q-1 7 -2 15
h-135l17 143q-30 0 -65 -8q-36 -8 -57 -18z" />
    <glyph glyph-name="u" unicode="u" horiz-adv-x="566" 
d="M225 485q-14 4 -31 6q-18 3 -31 3q-36 0 -70 -7t-58 -21q-10 -12 -17 -42q-8 -29 -8 -45l70 6q-11 -55 -24 -136q-13 -80 -14 -128q2 -78 40 -108q37 -31 86 -30q62 1 97 27t52 59h9q2 -20 9 -44t17 -42q33 0 79 9q46 8 74 19q10 17 18 44q9 27 9 46l-69 -7q-1 2 -2 7
q-2 6 -2 10l36 374q-13 4 -30 6q-17 3 -30 3q-34 0 -67 -7t-56 -21q-10 -12 -17 -41q-8 -29 -8 -45l62 5l-33 -243q-15 -21 -38 -39q-23 -17 -49 -18q-22 0 -31 17t-9 45q1 48 14 161q13 112 22 177v0z" />
    <glyph glyph-name="v" unicode="v" horiz-adv-x="494" 
d="M36 387l79 -391l135 -21q69 110 128 218q60 107 101 209q-1 21 -18 54q-16 32 -30 44q-25 0 -68 -7q-44 -7 -69 -16q-12 -14 -21 -40q-8 -27 -10 -49l70 6q2 -4 3 -9t1 -8q-21 -64 -49 -136q-29 -72 -59 -138h-12q0 27 -4 62t-8 60l-42 260q-28 9 -58 9q-31 0 -59 -7
q-28 -6 -49 -17q-9 -13 -15 -43q-7 -29 -7 -46z" />
    <glyph glyph-name="w" unicode="w" horiz-adv-x="814" 
d="M571 103h-12q0 30 -3 67q-2 36 -6 66l-33 260l-189 -13q-23 -97 -50 -193q-27 -97 -55 -187h-12q0 29 -1 65q-1 35 -4 64l-24 253q-14 5 -30 7q-15 2 -30 2q-32 0 -59 -7q-28 -6 -50 -17q-9 -13 -15 -43q-7 -29 -7 -46l61 6l50 -389l166 -23q36 98 69 199t60 196h12
l34 -372l152 -23q59 111 111 221q51 109 90 206q-1 21 -18 54q-17 32 -31 44q-21 0 -58 -6q-38 -6 -59 -14q-12 -14 -21 -40q-8 -27 -10 -49l63 5q2 -4 3 -9t1 -8q-19 -65 -44 -137q-24 -71 -51 -139v0z" />
    <glyph glyph-name="x" unicode="x" horiz-adv-x="532" 
d="M236 489q-11 3 -24 4q-12 1 -25 1q-29 0 -58 -7q-28 -6 -49 -19q-8 -14 -13 -42q-6 -29 -6 -46l60 9q13 -34 29 -73q15 -39 34 -80q-28 -37 -62 -73t-59 -60l-62 25q-2 -9 -4 -22q-1 -13 -1 -26q0 -14 2 -29t6 -27q18 -12 48 -25t62 -22q31 33 65 76q34 42 58 78h9
q18 -46 42 -91q25 -45 45 -63q33 4 72 11q40 7 64 18q10 20 17 47t7 48l-75 -10q-13 16 -34 55q-21 38 -41 86q40 53 89 122t83 125q-18 4 -38 6t-39 2t-39 -2t-38 -6q-12 -32 -29 -70q-17 -37 -33 -67h-9q-16 38 -28 75q-13 37 -26 72v0z" />
    <glyph glyph-name="y" unicode="y" horiz-adv-x="489" 
d="M37 392l106 -405q-33 -37 -78 -61q-45 -25 -97 -40q1 -29 14 -67q12 -38 28 -60q71 31 127 78t103 103q53 66 119 197q67 131 115 258q-1 21 -15 54q-15 33 -27 45q-25 0 -68 -5q-43 -6 -68 -14q-12 -13 -21 -40q-9 -26 -12 -48l68 4q2 -4 3 -9t1 -8q-18 -63 -41 -135
q-23 -71 -48 -136h-12q-1 28 -6 65q-4 37 -10 63l-56 256q-13 5 -27 7q-14 3 -28 3q-30 0 -58 -6q-28 -5 -49 -15q-9 -13 -16 -42q-8 -29 -8 -46z" />
    <glyph glyph-name="z" unicode="z" horiz-adv-x="485" 
d="M11 0h403l30 158q-25 5 -59 5q-34 -1 -55 -5q-8 -15 -14 -32q-7 -18 -12 -34q-27 -2 -56 -4t-55 -3v12l258 318l-6 68h-390l-21 -136q18 -8 51 -13t57 -5q9 14 17 34q9 19 14 33h89v-12l-257 -318z" />
    <glyph glyph-name="braceleft" unicode="{" horiz-adv-x="350" 
d="M30 254q49 -4 61 -31t6 -79l-17 -199q-9 -74 31 -119t159 -52q7 16 11 46q4 31 2 48q-34 2 -47 25q-14 23 -10 66l17 198q5 56 -9 90q-13 33 -48 48v9q35 17 54 54q20 37 24 91l14 173q3 38 18 59q16 21 44 25q11 19 19 47t10 47q-124 -7 -173 -56q-50 -50 -54 -127
l-17 -176q-3 -44 -17 -68q-14 -25 -55 -30q-6 -16 -14 -42q-7 -26 -9 -47v0z" />
    <glyph glyph-name="bar" unicode="|" horiz-adv-x="348" 
d="M225 773q-29 0 -63 -3t-57 -8v-951q12 -3 28 -4q16 -2 34 -2t33 2q16 1 25 4v962z" />
    <glyph glyph-name="braceright" unicode="}" horiz-adv-x="353" 
d="M143 294q-38 -20 -54 -56q-17 -37 -22 -92l-17 -201q-4 -36 -23 -56q-20 -21 -50 -23q-3 -9 -4 -25q-2 -16 -2 -33q0 -11 1 -21t3 -15q123 7 170 55t50 125l16 203q3 49 23 72q21 23 65 25q0 20 -2 46t-6 44q-47 5 -56 32q-9 28 -4 70l14 178q8 66 -26 117
q-34 50 -142 60q-11 -17 -21 -45q-11 -27 -13 -46q39 -3 55 -25q16 -23 11 -70l-15 -172q-5 -49 6 -84q11 -34 44 -54z" />
    <glyph glyph-name="asciitilde" unicode="~" 
d="M92 190q12 19 33 33t48 15q49 -3 85 -26q35 -23 99 -26q56 1 100 34t66 83q-14 10 -37 20t-42 14q-9 -17 -28 -29q-19 -11 -44 -12q-48 3 -88 26q-41 23 -97 26q-49 -1 -87 -24q-39 -24 -61 -62q7 -18 22 -39t31 -33v0z" />
    <glyph glyph-name="uni00A0" unicode="&#xa0;" horiz-adv-x="199" 
 />
    <glyph glyph-name="exclamdown" unicode="&#xa1;" horiz-adv-x="291" 
d="M-2 -207q18 -4 42 -7q23 -2 48 -2q26 0 49 2q22 3 39 7l6 481q-7 2 -14 2q-6 1 -14 1q-21 0 -42 -4t-35 -11zM147 514q-37 -1 -60 -24q-24 -23 -25 -60q0 -44 22 -66q21 -22 63 -22q36 0 59 23q22 23 23 65q-1 41 -23 63q-22 21 -59 21v0z" />
    <glyph glyph-name="cent" unicode="&#xa2;" horiz-adv-x="542" 
d="M361 373q20 -14 52 -22t57 -8q16 34 25 73q9 38 9 74q-22 13 -48 23t-55 15l11 77q-31 0 -67 -4q-36 -5 -60 -11l-9 -63q-45 -10 -82 -31t-64 -50q-38 -44 -59 -106q-21 -63 -21 -124q0 -80 39 -131q39 -52 118 -65l-9 -78q12 -3 30 -4q17 -1 35 -1q19 0 37 1q17 1 27 4
l9 85q28 8 51 20q24 11 44 25q13 20 23 49q10 28 10 51q-35 -16 -82 -28q-48 -12 -89 -13q-49 -1 -72 26q-22 26 -22 85q0 36 9 79q9 42 33 75q16 20 38 32t53 12q21 0 36 -5z" />
    <glyph glyph-name="sterling" unicode="&#xa3;" horiz-adv-x="579" 
d="M443 236q5 19 7 43q2 23 0 40h-174q-1 8 -2 19q-1 10 -1 19q-1 48 17 80t73 33q11 0 23 -2q11 -2 20 -7l-6 -47q19 -12 47 -20q28 -9 59 -11q12 28 20 68q9 40 9 77q-37 16 -77 25q-41 9 -86 9q-119 -1 -179 -55q-60 -53 -60 -146q0 -10 1 -21t2 -21h-58q-6 -17 -11 -39
t-7 -44h79q0 -33 -11 -62q-12 -30 -36 -66q-15 -5 -30 -13q-16 -7 -30 -16q-6 -14 -14 -36q-7 -23 -11 -43h483l18 161q-25 1 -54 -1q-30 -3 -51 -8q-6 -11 -14 -27q-7 -17 -11 -30h-174l1 9q27 16 48 53t22 79h168z" />
    <glyph glyph-name="currency" unicode="&#xa4;" horiz-adv-x="599" 
d="M136 398q-30 -33 -44 -78q-15 -46 -15 -93q0 -31 6 -56t19 -45l-78 -80q9 -18 27 -33t40 -22l70 78q43 -23 106 -23q31 0 58 6q27 5 52 17l49 -75q26 6 47 20q22 14 34 32l-58 77q30 32 48 80q18 47 18 98q0 31 -7 56t-21 46l75 76q-10 16 -30 32t-42 24l-66 -76
q-22 11 -46 16q-25 6 -55 6q-32 0 -59 -6q-27 -7 -54 -20l-50 82q-24 -9 -46 -27q-23 -18 -36 -35zM280 144q-35 1 -55 28q-19 27 -19 73q0 55 28 96q27 40 75 42q36 -1 56 -26q20 -26 20 -71q-1 -59 -30 -99q-29 -41 -75 -43v0z" />
    <glyph glyph-name="yen" unicode="&#xa5;" horiz-adv-x="615" 
d="M372 217l28 37h119q5 17 6 39q2 22 0 37h-66l75 97q13 2 27 5q15 3 24 7q10 19 18 48t11 52h-233q-4 -24 -2 -49q1 -25 5 -45q5 -5 14 -10q10 -5 17 -8q-8 -6 -17 -17q-10 -11 -17 -21l-26 -38q-9 -13 -18 -31q-9 -19 -15 -35h-11q-3 16 -8 35q-5 18 -10 31l-13 37
q-3 9 -10 20q-6 11 -13 18q11 3 26 7q14 5 22 9q8 20 14 46t8 51h-275q-1 -10 -1 -24q0 -18 2 -37t4 -32q8 -5 19 -10q10 -4 21 -7l53 -99h-50q-6 -16 -11 -36q-4 -21 -6 -40h107l28 -52v-1h-136q-6 -16 -11 -36q-4 -21 -6 -40h144l-3 -25q-18 -5 -37 -12q-20 -8 -36 -16
q-6 -13 -15 -33q-8 -21 -12 -39h332q4 16 6 39q1 23 -1 39q-15 6 -41 12t-44 9l3 26h140q5 17 6 39q2 22 0 37h-137z" />
    <glyph glyph-name="brokenbar" unicode="&#xa6;" horiz-adv-x="348" 
d="M226 216q-29 0 -64 -3t-58 -8v-394q12 -3 29 -4q16 -2 34 -2t34 2q16 1 25 4v405zM226 773q-29 0 -64 -3t-58 -8v-365q12 -3 29 -4q16 -2 34 -2t34 2q16 1 25 4v376z" />
    <glyph glyph-name="section" unicode="&#xa7;" horiz-adv-x="530" 
d="M358 512q18 -11 47 -17q30 -5 59 -5q7 19 16 64t11 66q-36 17 -77 25q-41 9 -97 9q-68 0 -124 -39q-55 -39 -58 -116q0 -37 17 -67q-39 -33 -65 -70q-27 -37 -28 -84q13 -102 105 -151q92 -48 105 -110q0 -26 -19 -42q-18 -16 -55 -17q-25 0 -40 21t-18 57q-39 0 -78 -10
t-57 -34q4 -57 49 -84q44 -26 121 -26q87 -1 156 40q69 40 73 132q0 17 -5 32q-5 16 -13 29q26 21 55 57t32 85q-13 103 -106 157q-94 53 -107 116q2 29 23 40t40 10q14 0 24 -2q10 -1 20 -5zM209 367q47 -36 92 -69t48 -75q-1 -14 -10 -26q-9 -13 -17 -21q-48 34 -93 67
q-46 32 -49 75q1 14 10 27t19 22v0z" />
    <glyph glyph-name="dieresis" unicode="&#xa8;" horiz-adv-x="530" 
d="M141 727q-33 -1 -54 -21q-21 -21 -22 -55q0 -41 20 -61q19 -21 56 -21q33 0 54 22q20 21 21 60q0 36 -21 56q-20 20 -54 20v0zM395 727q-33 -1 -54 -21q-21 -21 -22 -55q0 -41 20 -61q19 -21 56 -21q33 0 54 22q20 21 21 60q0 36 -21 56q-20 20 -54 20v0z" />
    <glyph glyph-name="copyright" unicode="&#xa9;" horiz-adv-x="803" 
d="M453 407q17 -10 44 -16t54 -6q8 26 16 65q8 40 10 66q-25 13 -60 21q-36 8 -69 8q-96 -2 -166 -66t-73 -173q1 -80 45 -127t125 -48q33 0 67 8t64 22q10 16 19 39q8 23 9 41q-24 -8 -55 -13q-30 -4 -52 -4q-40 -1 -61 20q-21 20 -21 71q1 62 25 103q25 40 60 42
q6 0 14 -1q7 -1 10 -3zM446 704q-169 -4 -285 -120q-115 -116 -120 -291q2 -144 86 -227q83 -84 226 -86q173 4 288 118q116 114 120 285q-2 141 -87 230q-84 88 -228 91v0zM434 628q109 -3 173 -75t65 -181q-3 -132 -89 -222q-86 -89 -215 -93q-109 2 -173 70t-66 179
q4 135 92 227q88 91 213 95v0z" />
    <glyph glyph-name="ordfeminine" unicode="&#xaa;" horiz-adv-x="412" 
d="M341 191q5 20 7 44t0 41h-305q-7 -18 -12 -41q-5 -22 -7 -44h317zM232 368q2 -12 6 -26q4 -15 11 -27q26 0 61 6q36 6 55 14q7 13 12 34q6 21 6 36l-45 -5q-2 2 -3 7q-1 4 -1 7l25 208q-24 15 -57 24q-32 10 -70 10q-50 -1 -89 -19q-38 -18 -63 -48q-25 -31 -38 -71
q-12 -40 -12 -80q1 -64 29 -94q28 -29 72 -29q33 0 57 15q24 14 38 38h6zM226 424q-24 -29 -51 -29q-17 0 -26 13q-10 13 -10 43q0 25 7 53q7 27 21 47q11 16 27 27q17 11 36 11q5 0 10 -1q6 0 11 -2z" />
    <glyph glyph-name="guillemotleft" unicode="&#xab;" horiz-adv-x="619" 
d="M192 258q25 56 55 112q29 55 63 111q-37 0 -78 -8q-42 -8 -73 -19q-39 -52 -69 -98q-31 -46 -58 -98q16 -53 41 -113t54 -117q29 2 64 11q35 10 59 22q-20 50 -34 99q-14 48 -24 98v0zM451 261q25 56 55 112q29 55 63 111q-36 0 -77 -8t-72 -19q-39 -52 -69 -98
q-31 -46 -58 -98q15 -53 41 -113q25 -60 55 -117q28 1 62 11q35 10 58 22q-20 50 -34 99q-14 48 -24 98v0z" />
    <glyph glyph-name="logicalnot" unicode="&#xac;" 
d="M49 331q-7 -23 -12 -54t-5 -56h340v-99q13 -3 31 -5t38 -2q19 0 36 2t27 5v209h-455z" />
    <glyph glyph-name="uni00AD" unicode="&#xad;" horiz-adv-x="343" 
d="M285 220q5 19 8 42q2 24 2 45q0 13 -1 25h-253q-9 -24 -16 -54t-9 -58h269z" />
    <glyph glyph-name="registered" unicode="&#xae;" horiz-adv-x="564" 
d="M196 481q-7 -1 -13 -3q-7 -2 -15 -6q-3 -6 -7 -17q-5 -12 -8 -25h138q2 9 4 22q1 12 1 21q-5 3 -11 6q-7 2 -12 3l5 42q3 -1 8 -1q5 -1 8 -1q6 -21 18 -49q11 -27 23 -49q38 0 75 11q5 10 9 23q4 14 6 26l-30 -3q-7 10 -14 24t-12 26q22 9 36 28q15 19 15 48
q-1 33 -30 51q-29 17 -76 17q-22 0 -58 -1q-35 -1 -65 -4q-3 -11 -4 -25q-2 -14 -1 -24q8 -1 14 -2q7 -1 11 -1zM287 620h21q15 0 24 -5t9 -16q0 -13 -10 -20q-9 -7 -23 -7q-6 0 -14 1q-7 0 -12 1zM334 805q-131 -3 -213 -83q-82 -81 -85 -209q0 -104 58 -162
q57 -59 168 -60q132 3 214 85t85 209q0 102 -59 161q-58 58 -168 59v0zM323 747q84 -1 126 -49q41 -48 41 -127q-2 -95 -61 -158q-59 -64 -156 -66q-85 1 -127 49t-42 127q2 93 62 157q59 64 157 67v0z" />
    <glyph glyph-name="macron" unicode="&#xaf;" horiz-adv-x="530" 
d="M430 597q5 17 7 38q2 22 2 41v9q0 6 -1 14h-313q-8 -22 -14 -49q-7 -28 -9 -53h328z" />
    <glyph glyph-name="degree" unicode="&#xb0;" horiz-adv-x="392" 
d="M223 653q-78 -1 -124 -46q-47 -46 -48 -124q0 -59 35 -90q34 -31 102 -31q80 1 126 45q45 45 46 127q-1 58 -37 88q-37 31 -100 31v0zM213 570q20 0 30 -13q11 -14 11 -35q0 -33 -15 -55q-15 -21 -40 -22q-20 0 -31 15t-11 40q0 30 15 50q15 19 41 20v0z" />
    <glyph glyph-name="plusminus" unicode="&#xb1;" 
d="M338 423v169q-31 0 -66 -3t-60 -8v-158h-143q-6 -21 -10 -49q-5 -28 -5 -51h158v-164q14 -4 32 -5q17 -2 34 -2q18 0 33 2q16 2 27 5v164h155q2 14 2 30q0 20 -2 40q-2 19 -5 30h-150zM67 103q-6 -21 -10 -50q-5 -29 -5 -53h436q1 7 1 15q1 8 1 16q0 21 -2 41
q-2 19 -5 31h-416z" />
    <glyph glyph-name="uni00B2" unicode="&#xb2;" horiz-adv-x="385" 
d="M5 377h307q6 19 11 46q6 27 8 46q-54 -4 -106 -6q-51 -2 -98 -2v7q69 33 141 88t78 129q-1 48 -39 69q-39 21 -99 21q-50 0 -93 -12q-43 -11 -76 -27q0 -24 1 -52q1 -29 4 -52q19 0 46 4q26 3 46 10l3 44q8 3 23 6q15 2 26 2q40 0 40 -32q-6 -57 -79 -111t-135 -102z" />
    <glyph glyph-name="uni00B3" unicode="&#xb3;" horiz-adv-x="385" 
d="M84 535q68 0 96 -9q27 -9 26 -33q-1 -22 -16 -31q-16 -9 -40 -9q-25 0 -59 7t-60 19q-1 -7 -2 -16q-1 -8 -1 -13q0 -19 3 -37t8 -30q20 -6 48 -9q27 -4 51 -4q75 0 130 32t58 99q-1 37 -19 55q-18 19 -48 24v9q36 10 58 35q21 25 22 59q-2 48 -42 70q-39 22 -96 22
q-25 0 -54 -4q-28 -5 -54 -16q-11 -19 -17 -44q-5 -24 -5 -42q25 11 56 17q31 7 56 7q14 0 26 -6q11 -7 12 -23q-4 -33 -47 -41q-42 -7 -74 -6q-7 -16 -11 -39q-5 -24 -5 -43v0z" />
    <glyph glyph-name="acute" unicode="&#xb4;" horiz-adv-x="435" 
d="M369 725q-19 20 -59 32q-40 13 -70 13l-141 -169q8 -16 27 -32t38 -24z" />
    <glyph glyph-name="mu" unicode="&#xb5;" horiz-adv-x="622" 
d="M134 74q8 -45 37 -68t76 -23q59 2 90 32t44 61h9q1 -35 22 -63t64 -30q23 0 45 7t37 18q10 16 19 43q8 27 9 48q-11 -6 -25 -9t-26 -3q-14 -1 -23 16t-9 63q1 70 15 164q14 93 29 167q-25 0 -65 -4q-39 -5 -65 -13q-14 -70 -27 -160q-12 -90 -13 -164q-19 -28 -45 -48
q-27 -20 -58 -21q-38 0 -57 37q-20 37 -20 109q1 60 11 131q10 72 23 133q-24 0 -70 -5t-73 -13q-19 -160 -47 -352q-27 -192 -54 -369q22 -14 60 -23q39 -10 81 -12q3 27 6 58q2 31 2 68q0 55 -4 118q-5 62 -10 107h12z" />
    <glyph glyph-name="paragraph" unicode="&#xb6;" horiz-adv-x="628" 
d="M396 7q10 -2 24 -3t28 -1q13 0 25 1q11 1 19 3l61 637h36t36 1q3 13 6 37q2 24 2 40q-48 4 -127 6q-79 3 -160 3q-163 0 -246 -61q-84 -60 -84 -175q3 -87 56 -124q52 -37 115 -36q10 0 23 1q13 0 23 1l-41 -432q1 -18 16 -47q16 -29 34 -45q53 2 154 16q100 15 162 31
q6 13 12 34q6 22 6 35l-277 -29q-2 3 -5 9t-3 10l68 738q23 0 51 -1q27 -2 47 -4z" />
    <glyph glyph-name="periodcentered" unicode="&#xb7;" horiz-adv-x="290" 
d="M125 340q-42 -1 -69 -26q-26 -26 -27 -67q0 -49 24 -74q25 -25 72 -25q40 0 65 26t26 73q-1 45 -25 69q-25 24 -66 24v0z" />
    <glyph glyph-name="cedilla" unicode="&#xb8;" horiz-adv-x="435" 
d="M129 -82q19 -4 33 -15q13 -10 14 -28q-1 -24 -22 -38t-49 -18q6 -18 17 -34q12 -17 26 -27q55 5 101 36t49 82q-1 29 -16 46q-15 18 -37 23l24 72q-22 0 -47 -2t-42 -7z" />
    <glyph glyph-name="uni00B9" unicode="&#xb9;" horiz-adv-x="385" 
d="M272 775q-47 -3 -100 -11t-87 -16q-10 -18 -16 -38q-7 -21 -9 -37l87 7l-24 -222q-14 -2 -31 -5q-18 -4 -31 -8q-8 -14 -14 -32q-7 -19 -9 -36h271q1 8 1 21q1 12 1 18v11t-1 20q-14 3 -35 6t-34 4z" />
    <glyph glyph-name="ordmasculine" unicode="&#xba;" horiz-adv-x="415" 
d="M242 656q-48 0 -87 -17q-39 -18 -66 -50q-20 -25 -31 -58q-10 -32 -10 -70q0 -71 40 -108q39 -38 112 -38q47 0 85 17t64 49q21 26 33 61q11 35 11 77q-1 66 -41 102q-40 35 -110 35v0zM233 579q23 0 36 -19t13 -50q0 -27 -6 -51t-18 -40q-9 -12 -21 -18q-13 -7 -27 -7
q-24 0 -37 20t-13 55q0 24 4 45q5 21 15 37q9 14 23 21t31 7v0zM343 191q5 20 7 44t0 41h-296q-7 -18 -12 -41q-5 -22 -7 -44h308z" />
    <glyph glyph-name="guillemotright" unicode="&#xbb;" horiz-adv-x="612" 
d="M138 258q-22 -49 -48 -95q-26 -47 -56 -96q22 -15 53 -26q30 -11 60 -13q41 57 81 118q40 60 69 112q-15 50 -39 108t-54 117q-28 -1 -64 -11t-59 -22q17 -49 31 -96t26 -96v0zM398 261q-23 -49 -48 -95q-25 -47 -55 -96q22 -15 52 -26q29 -11 58 -13q41 57 81 118
q40 60 69 112q-15 50 -39 108t-54 117q-27 -1 -63 -11q-35 -10 -57 -22q17 -49 31 -96t25 -96v0z" />
    <glyph glyph-name="onequarter" unicode="&#xbc;" horiz-adv-x="926" 
d="M276 691q-47 -3 -100 -11t-87 -16q-10 -18 -16 -38q-7 -21 -9 -37l87 7l-24 -222q-14 -2 -31 -5q-18 -4 -31 -8q-8 -14 -14 -32q-7 -19 -9 -36h271q1 8 1 21q1 12 1 18v11t-1 20q-14 3 -35 6t-34 4zM812 89h48q3 12 5 29q2 18 2 34q0 12 -1 20h-47l24 219h-129l-183 -238
l-8 -64h178l-9 -86q11 -3 26 -4t32 -1q16 0 31 1q14 1 23 4zM710 172h-35q-9 0 -19 -1q-11 0 -19 -2v7l84 118h7q-3 -11 -6 -28t-5 -33zM833 697q-24 11 -55 16q-31 6 -59 6l-546 -702q13 -20 39 -37t55 -24z" />
    <glyph glyph-name="onehalf" unicode="&#xbd;" horiz-adv-x="926" 
d="M792 697q-24 11 -55 16q-31 6 -59 6l-546 -702q13 -20 39 -37t55 -24zM251 691q-47 -3 -100 -11t-87 -16q-10 -18 -16 -38q-7 -21 -9 -37l87 7l-24 -222q-14 -2 -31 -5q-18 -4 -31 -8q-8 -14 -14 -32q-7 -19 -9 -36h271q1 8 1 21q1 12 1 18v11t-1 20q-14 3 -35 6t-34 4z
M556 0h307q6 19 11 46q6 27 8 46q-54 -4 -106 -6q-51 -2 -98 -2v7q69 33 141 88t78 129q-1 48 -39 69q-39 21 -99 21q-50 0 -93 -12q-43 -11 -76 -27q0 -24 1 -52q1 -29 4 -52q19 0 46 4q26 3 46 10l3 44q8 3 23 6q15 2 26 2q40 0 40 -32q-6 -57 -79 -111t-135 -102z" />
    <glyph glyph-name="threequarters" unicode="&#xbe;" horiz-adv-x="926" 
d="M806 697q-24 11 -55 16q-31 6 -59 6l-546 -702q13 -20 39 -37t55 -24zM85 451q68 0 96 -9q27 -9 26 -33q-1 -22 -16 -31q-16 -9 -40 -9q-25 0 -59 7t-60 19q-1 -7 -2 -16q-1 -8 -1 -13q0 -19 3 -37t8 -30q20 -6 48 -9q27 -4 51 -4q75 0 130 32t58 99q-1 37 -19 55
q-18 19 -48 24v9q36 10 58 35q21 25 22 59q-2 48 -42 70q-39 22 -96 22q-25 0 -54 -4q-28 -5 -54 -16q-11 -19 -17 -44q-5 -24 -5 -42q25 11 56 17q31 7 56 7q14 0 26 -6q11 -7 12 -23q-4 -33 -47 -41q-42 -7 -74 -6q-7 -16 -11 -39q-5 -24 -5 -43v0zM785 89h48q3 12 5 29
q2 18 2 34q0 12 -1 20h-47l24 219h-129l-183 -238l-8 -64h178l-9 -86q11 -3 26 -4t32 -1q16 0 31 1q14 1 23 4zM683 172h-35q-9 0 -19 -1q-11 0 -19 -2v7l84 118h7q-3 -11 -6 -28t-5 -33z" />
    <glyph glyph-name="questiondown" unicode="&#xbf;" horiz-adv-x="455" 
d="M249 -130q-16 -7 -33 -10t-29 -3q-35 1 -49 19q-14 19 -14 40q12 75 98 130q86 56 98 149q-1 26 -12 52t-27 43q-28 -3 -60 -13q-32 -11 -55 -24q8 -12 12 -28q4 -15 4 -32q-14 -66 -109 -123q-96 -57 -110 -173q1 -63 51 -98t136 -36q52 1 114 12q61 11 107 26
q3 30 5 62q1 31 1 61q0 17 -1 33q0 16 -1 30q-27 -2 -60 -9t-57 -20zM237 514q-37 -1 -60 -24q-24 -23 -25 -60q0 -44 22 -66q21 -22 63 -22q36 0 59 23q22 23 23 65q-1 41 -23 63q-22 21 -59 21v0z" />
    <glyph glyph-name="Agrave" unicode="&#xc0;" horiz-adv-x="755" 
d="M723 0q0 22 -2 47t-6 46q-10 5 -24 9q-15 4 -27 6l-183 611h-108l-307 -614q-12 -2 -26 -6q-13 -4 -23 -9q-9 -19 -18 -43q-9 -23 -14 -47h284q0 19 -4 46q-3 26 -8 45q-13 4 -31 7t-34 5q10 14 20 33q10 18 16 32l13 33h237l8 -28q5 -18 12 -35q6 -17 15 -31
q-13 -2 -31 -7q-17 -4 -31 -9q-9 -19 -19 -45q-9 -27 -13 -46h304zM401 573q1 -33 7 -76q7 -42 13 -67l35 -136h-172l60 136q11 26 26 69q14 42 19 74h12zM495 754q14 16 27 43t17 49l-200 108q-29 -12 -62 -39q-34 -28 -53 -53z" />
    <glyph glyph-name="Aacute" unicode="&#xc1;" horiz-adv-x="755" 
d="M723 0q0 22 -2 47t-6 46q-10 5 -24 9q-15 4 -27 6l-183 611h-108l-307 -614q-12 -2 -26 -6q-13 -4 -23 -9q-9 -19 -18 -43q-9 -23 -14 -47h284q0 19 -4 46q-3 26 -8 45q-13 4 -31 7t-34 5q10 14 20 33q10 18 16 32l13 33h237l8 -28q5 -18 12 -35q6 -17 15 -31
q-13 -2 -31 -7q-17 -4 -31 -9q-9 -19 -19 -45q-9 -27 -13 -46h304zM401 573q1 -33 7 -76q7 -42 13 -67l35 -136h-172l60 136q11 26 26 69q14 42 19 74h12zM644 851q-8 28 -26 59q-19 31 -38 49l-239 -114q-1 -8 -1 -14v-9q0 -18 2 -38q2 -19 6 -33z" />
    <glyph glyph-name="Acircumflex" unicode="&#xc2;" horiz-adv-x="755" 
d="M723 0q0 22 -2 47t-6 46q-10 5 -24 9q-15 4 -27 6l-183 611h-108l-307 -614q-12 -2 -26 -6q-13 -4 -23 -9q-9 -19 -18 -43q-9 -23 -14 -47h284q0 19 -4 46q-3 26 -8 45q-13 4 -31 7t-34 5q10 14 20 33q10 18 16 32l13 33h237l8 -28q5 -18 12 -35q6 -17 15 -31
q-13 -2 -31 -7q-17 -4 -31 -9q-9 -19 -19 -45q-9 -27 -13 -46h304zM401 573q1 -33 7 -76q7 -42 13 -67l35 -136h-172l60 136q11 26 26 69q14 42 19 74h12zM383 940l-159 -101q0 -21 4 -46t14 -44l190 85l159 -81q17 12 36 35q18 23 26 44l-140 108h-130z" />
    <glyph glyph-name="Atilde" unicode="&#xc3;" horiz-adv-x="755" 
d="M723 0q0 22 -2 47t-6 46q-10 5 -24 9q-15 4 -27 6l-183 611h-108l-307 -614q-12 -2 -26 -6q-13 -4 -23 -9q-9 -19 -18 -43q-9 -23 -14 -47h284q0 19 -4 46q-3 26 -8 45q-13 4 -31 7t-34 5q10 14 20 33q10 18 16 32l13 33h237l8 -28q5 -18 12 -35q6 -17 15 -31
q-13 -2 -31 -7q-17 -4 -31 -9q-9 -19 -19 -45q-9 -27 -13 -46h304zM401 573q1 -33 7 -76q7 -42 13 -67l35 -136h-172l60 136q11 26 26 69q14 42 19 74h12zM579 926q-7 -18 -22 -29q-15 -12 -37 -12q-44 3 -74 23q-31 19 -89 22q-66 -1 -105 -33q-40 -32 -54 -79
q11 -18 31 -32q19 -15 43 -19q5 15 20 29t38 15q45 -3 77 -23q31 -21 84 -24q81 3 122 46t47 96q-17 9 -38 15q-22 5 -43 5v0z" />
    <glyph glyph-name="Adieresis" unicode="&#xc4;" horiz-adv-x="755" 
d="M273 923q-37 -1 -60 -22q-24 -22 -25 -56q0 -41 22 -62t63 -21q36 0 59 22q23 21 24 61q-1 37 -23 57q-23 21 -60 21v0zM582 923q-37 -1 -60 -22q-24 -22 -25 -56q0 -41 22 -62t63 -21q36 0 59 22q23 21 24 61q-1 37 -23 57q-23 21 -60 21v0zM723 0q0 22 -2 47t-6 46
q-10 5 -24 9q-15 4 -27 6l-183 611h-108l-307 -614q-12 -2 -26 -6q-13 -4 -23 -9q-9 -19 -18 -43q-9 -23 -14 -47h284q0 19 -4 46q-3 26 -8 45q-13 4 -31 7t-34 5q10 14 20 33q10 18 16 32l13 33h237l8 -28q5 -18 12 -35q6 -17 15 -31q-13 -2 -31 -7q-17 -4 -31 -9
q-9 -19 -19 -45q-9 -27 -13 -46h304zM401 573q1 -33 7 -76q7 -42 13 -67l35 -136h-172l60 136q11 26 26 69q14 42 19 74h12z" />
    <glyph glyph-name="Aring" unicode="&#xc5;" horiz-adv-x="755" 
d="M458 938q-73 -1 -114 -36t-42 -96q0 -37 17 -61t50 -34l-303 -606q-12 -2 -26 -6q-13 -4 -23 -9q-9 -19 -18 -43q-9 -23 -14 -47h284q0 19 -4 46q-3 26 -8 45q-13 4 -31 7t-34 5q10 14 20 33q10 18 16 32l13 33h237l8 -28q5 -18 12 -35q6 -17 15 -31q-13 -2 -31 -7
q-17 -4 -31 -9q-9 -19 -19 -45q-9 -27 -13 -46h304q0 22 -2 47t-6 46q-10 5 -24 9q-15 4 -27 6l-181 604q45 13 71 44q25 32 26 80q0 52 -32 77t-90 25v0zM401 573q1 -33 7 -76q7 -42 13 -67l35 -136h-172l60 136q11 26 26 69q14 42 19 74h12zM447 866q19 0 32 -9
q13 -10 14 -30q-1 -24 -17 -37q-17 -14 -42 -14q-21 0 -33 10t-12 30q0 22 16 36q15 14 42 14v0z" />
    <glyph glyph-name="AE" unicode="&#xc6;" horiz-adv-x="999" 
d="M975 709h-657q-5 -17 -6 -46q-1 -28 1 -46q15 -4 37 -7t42 -5l-336 -500q-12 -2 -25 -6t-23 -9q-8 -19 -16 -43q-8 -23 -12 -47h273q1 20 -2 47q-3 26 -9 44q-13 4 -31 7q-19 3 -35 5q13 13 28 32t24 33l45 68h199l-12 -130q-16 -2 -36 -7q-20 -4 -32 -9q-9 -16 -16 -43
q-8 -27 -11 -47h558l15 192q-26 0 -60 -4t-56 -11q-7 -18 -12 -39q-6 -22 -9 -42h-189l17 220h156q0 -10 1 -23q2 -13 4 -23q22 -7 52 -8q29 -2 55 0l14 205q-27 0 -56 -4t-52 -11q-3 -10 -7 -23q-3 -12 -5 -21h-155l14 207h194q0 -17 1 -37q2 -21 4 -35q23 -7 53 -11t56 -4
zM429 481q18 28 36 61t30 61h13l-24 -276h-156z" />
    <glyph glyph-name="Ccedilla" unicode="&#xc7;" horiz-adv-x="637" 
d="M248 -94q22 -4 37 -16t16 -32q-1 -28 -22 -43t-53 -19q6 -19 19 -37t28 -28q63 6 115 40q53 34 56 97q-1 34 -20 53t-44 24l12 40q41 7 79 19t70 29q13 21 23 50q10 30 10 52q-49 -18 -103 -28q-55 -10 -94 -10q-83 -1 -131 55q-48 55 -49 174q2 139 63 221q60 81 155 83
q38 0 66 -15l-9 -98q22 -12 56 -20q33 -9 62 -9q12 40 21 94q10 53 15 100q-39 21 -89 34t-105 13q-165 -3 -278 -115q-113 -113 -118 -304q1 -138 67 -225q65 -86 184 -102z" />
    <glyph glyph-name="Egrave" unicode="&#xc8;" horiz-adv-x="639" 
d="M563 0l15 192q-26 0 -60 -4t-56 -11q-7 -18 -12 -39q-6 -22 -9 -42h-189l17 220h156q0 -10 1 -23q2 -13 4 -23q22 -7 52 -8q29 -2 55 0l14 205q-27 0 -56 -4t-52 -11q-3 -10 -7 -23q-3 -12 -5 -21h-155l14 207h194q0 -17 1 -37q2 -21 4 -35q23 -7 53 -11t56 -4l17 181
h-528q-4 -17 -6 -46q-1 -28 0 -46q11 -4 29 -7t34 -5l-44 -499q-16 -2 -36 -7q-21 -4 -33 -9q-9 -16 -16 -43q-8 -27 -11 -47h559zM433 754q14 16 27 43t17 49l-200 108q-29 -12 -62 -39q-34 -28 -53 -53z" />
    <glyph glyph-name="Eacute" unicode="&#xc9;" horiz-adv-x="639" 
d="M563 0l15 192q-26 0 -60 -4t-56 -11q-7 -18 -12 -39q-6 -22 -9 -42h-189l17 220h156q0 -10 1 -23q2 -13 4 -23q22 -7 52 -8q29 -2 55 0l14 205q-27 0 -56 -4t-52 -11q-3 -10 -7 -23q-3 -12 -5 -21h-155l14 207h194q0 -17 1 -37q2 -21 4 -35q23 -7 53 -11t56 -4l17 181
h-528q-4 -17 -6 -46q-1 -28 0 -46q11 -4 29 -7t34 -5l-44 -499q-16 -2 -36 -7q-21 -4 -33 -9q-9 -16 -16 -43q-8 -27 -11 -47h559zM600 851q-8 28 -26 59q-19 31 -38 49l-239 -114q-1 -8 -1 -14v-9q0 -18 2 -38q2 -19 6 -33z" />
    <glyph glyph-name="Ecircumflex" unicode="&#xca;" horiz-adv-x="639" 
d="M563 0l15 192q-26 0 -60 -4t-56 -11q-7 -18 -12 -39q-6 -22 -9 -42h-189l17 220h156q0 -10 1 -23q2 -13 4 -23q22 -7 52 -8q29 -2 55 0l14 205q-27 0 -56 -4t-52 -11q-3 -10 -7 -23q-3 -12 -5 -21h-155l14 207h194q0 -17 1 -37q2 -21 4 -35q23 -7 53 -11t56 -4l17 181
h-528q-4 -17 -6 -46q-1 -28 0 -46q11 -4 29 -7t34 -5l-44 -499q-16 -2 -36 -7q-21 -4 -33 -9q-9 -16 -16 -43q-8 -27 -11 -47h559zM327 940l-159 -101q0 -21 4 -46t14 -44l190 85l159 -81q17 12 36 35q18 23 26 44l-140 108h-130z" />
    <glyph glyph-name="Edieresis" unicode="&#xcb;" horiz-adv-x="639" 
d="M214 923q-37 -1 -60 -22q-24 -22 -25 -56q0 -41 22 -62t63 -21q36 0 59 22q23 21 24 61q-1 37 -23 57q-23 21 -60 21v0zM523 923q-37 -1 -60 -22q-24 -22 -25 -56q0 -41 22 -62t63 -21q36 0 59 22q23 21 24 61q-1 37 -23 57q-23 21 -60 21v0zM563 0l15 192q-26 0 -60 -4
t-56 -11q-7 -18 -12 -39q-6 -22 -9 -42h-189l17 220h156q0 -10 1 -23q2 -13 4 -23q22 -7 52 -8q29 -2 55 0l14 205q-27 0 -56 -4t-52 -11q-3 -10 -7 -23q-3 -12 -5 -21h-155l14 207h194q0 -17 1 -37q2 -21 4 -35q23 -7 53 -11t56 -4l17 181h-528q-4 -17 -6 -46q-1 -28 0 -46
q11 -4 29 -7t34 -5l-44 -499q-16 -2 -36 -7q-21 -4 -33 -9q-9 -16 -16 -43q-8 -27 -11 -47h559z" />
    <glyph glyph-name="Igrave" unicode="&#xcc;" horiz-adv-x="394" 
d="M328 0q4 17 5 46q1 28 -1 46q-16 5 -37 9q-21 3 -40 5l41 500q16 1 37 4q22 3 36 7q5 14 8 37t3 42v5t-1 8h-286q-5 -17 -6 -46q-2 -28 -1 -46q11 -4 29 -7t34 -5l-47 -499q-16 -2 -36 -7q-21 -4 -33 -9q-9 -16 -17 -43t-11 -47h323zM297 754q14 16 27 43t17 49l-200 108
q-29 -12 -62 -39q-34 -28 -53 -53z" />
    <glyph glyph-name="Iacute" unicode="&#xcd;" horiz-adv-x="394" 
d="M328 0q4 17 5 46q1 28 -1 46q-16 5 -37 9q-21 3 -40 5l41 500q16 1 37 4q22 3 36 7q5 14 8 37t3 42v5t-1 8h-286q-5 -17 -6 -46q-2 -28 -1 -46q11 -4 29 -7t34 -5l-47 -499q-16 -2 -36 -7q-21 -4 -33 -9q-9 -16 -17 -43t-11 -47h323zM474 851q-8 28 -26 59q-19 31 -38 49
l-239 -114q-1 -8 -1 -14v-9q0 -18 2 -38q2 -19 6 -33z" />
    <glyph glyph-name="Icircumflex" unicode="&#xce;" horiz-adv-x="394" 
d="M328 0q4 17 5 46q1 28 -1 46q-16 5 -37 9q-21 3 -40 5l41 500q16 1 37 4q22 3 36 7q5 14 8 37t3 42v5t-1 8h-286q-5 -17 -6 -46q-2 -28 -1 -46q11 -4 29 -7t34 -5l-47 -499q-16 -2 -36 -7q-21 -4 -33 -9q-9 -16 -17 -43t-11 -47h323zM197 940l-159 -101q0 -21 4 -46
t14 -44l190 85l159 -81q17 12 36 35q18 23 26 44l-140 108h-130z" />
    <glyph glyph-name="Idieresis" unicode="&#xcf;" horiz-adv-x="394" 
d="M104 923q-37 -1 -60 -22q-24 -22 -25 -56q0 -41 22 -62t63 -21q36 0 59 22q23 21 24 61q-1 37 -23 57q-23 21 -60 21v0zM383 923q-37 -1 -60 -22q-24 -22 -25 -56q0 -41 22 -62t63 -21q36 0 59 22q23 21 24 61q-1 37 -23 57q-23 21 -60 21v0zM328 0q4 17 5 46q1 28 -1 46
q-16 5 -37 9q-21 3 -40 5l41 500q16 1 37 4q22 3 36 7q5 14 8 37t3 42v5t-1 8h-286q-5 -17 -6 -46q-2 -28 -1 -46q11 -4 29 -7t34 -5l-47 -499q-16 -2 -36 -7q-21 -4 -33 -9q-9 -16 -17 -43t-11 -47h323z" />
    <glyph glyph-name="Eth" unicode="&#xd0;" horiz-adv-x="745" 
d="M110 110q-16 -2 -35 -6t-32 -9q-9 -16 -16 -43q-8 -27 -11 -47q74 -7 169 -10q94 -3 171 -3q146 0 252 104t111 310q-2 160 -96 236q-94 77 -256 76q-53 0 -133 -6q-80 -5 -138 -12q-4 -18 -6 -47q-1 -29 0 -47l30 -5q18 -2 33 -4l-18 -199h-55q-8 -19 -13 -45
q-6 -25 -8 -48h68zM431 305q5 22 7 48t0 45h-154l16 217q12 2 27 4q15 1 27 1q97 0 155 -58q57 -58 58 -178q-2 -143 -66 -218q-64 -74 -171 -75q-16 0 -35 1q-18 2 -33 4l15 209h154z" />
    <glyph glyph-name="Ntilde" unicode="&#xd1;" horiz-adv-x="772" 
d="M334 709h-249q-5 -17 -6 -46q-2 -28 -1 -46q11 -4 29 -7t34 -5l-47 -499q-14 -2 -32 -7q-19 -4 -32 -9q-7 -16 -14 -43q-8 -27 -11 -47h276q5 17 6 46q1 28 -2 46q-14 5 -34 9q-19 3 -37 5l37 465h12q3 -34 13 -74q11 -41 24 -72l182 -433h160l52 614q14 1 34 4t32 7
q5 14 8 37t3 42v5t-1 8h-244q-5 -17 -7 -46q-2 -28 -1 -46q13 -4 34 -7q20 -3 39 -5l-41 -437h-12q-3 38 -12 79q-9 40 -23 72zM589 926q-7 -18 -22 -29q-15 -12 -37 -12q-44 3 -74 23q-31 19 -89 22q-66 -1 -105 -33q-40 -32 -54 -79q11 -18 31 -32q19 -15 43 -19
q5 15 20 29t38 15q45 -3 77 -23q31 -21 84 -24q81 3 122 46t47 96q-17 9 -38 15q-22 5 -43 5v0z" />
    <glyph glyph-name="Ograve" unicode="&#xd2;" horiz-adv-x="712" 
d="M407 729q-165 -3 -261 -121q-97 -117 -99 -307q1 -157 71 -239q71 -82 205 -82q166 3 264 117q98 113 100 305q-1 162 -75 245q-74 82 -205 82v0zM391 631q69 -1 105 -61q36 -61 36 -170q-1 -134 -51 -225q-50 -92 -139 -96q-68 1 -103 61q-35 59 -35 168q0 128 47 223
q46 95 140 100v0zM465 754q14 16 27 43t17 49l-200 108q-29 -12 -62 -39q-34 -28 -53 -53z" />
    <glyph glyph-name="Oacute" unicode="&#xd3;" horiz-adv-x="712" 
d="M407 729q-165 -3 -261 -121q-97 -117 -99 -307q1 -157 71 -239q71 -82 205 -82q166 3 264 117q98 113 100 305q-1 162 -75 245q-74 82 -205 82v0zM391 631q69 -1 105 -61q36 -61 36 -170q-1 -134 -51 -225q-50 -92 -139 -96q-68 1 -103 61q-35 59 -35 168q0 128 47 223
q46 95 140 100v0zM638 851q-8 28 -26 59q-19 31 -38 49l-239 -114q-1 -8 -1 -14v-9q0 -18 2 -38q2 -19 6 -33z" />
    <glyph glyph-name="Ocircumflex" unicode="&#xd4;" horiz-adv-x="712" 
d="M407 729q-165 -3 -261 -121q-97 -117 -99 -307q1 -157 71 -239q71 -82 205 -82q166 3 264 117q98 113 100 305q-1 162 -75 245q-74 82 -205 82v0zM391 631q69 -1 105 -61q36 -61 36 -170q-1 -134 -51 -225q-50 -92 -139 -96q-68 1 -103 61q-35 59 -35 168q0 128 47 223
q46 95 140 100v0zM364 940l-159 -101q0 -21 4 -46t14 -44l190 85l159 -81q17 12 36 35q18 23 26 44l-140 108h-130z" />
    <glyph glyph-name="Otilde" unicode="&#xd5;" horiz-adv-x="712" 
d="M407 729q-165 -3 -261 -121q-97 -117 -99 -307q1 -157 71 -239q71 -82 205 -82q166 3 264 117q98 113 100 305q-1 162 -75 245q-74 82 -205 82v0zM391 631q69 -1 105 -61q36 -61 36 -170q-1 -134 -51 -225q-50 -92 -139 -96q-68 1 -103 61q-35 59 -35 168q0 128 47 223
q46 95 140 100v0zM560 926q-7 -18 -22 -29q-15 -12 -37 -12q-44 3 -74 23q-31 19 -89 22q-66 -1 -105 -33q-40 -32 -54 -79q11 -18 31 -32q19 -15 43 -19q5 15 20 29t38 15q45 -3 77 -23q31 -21 84 -24q81 3 122 46t47 96q-17 9 -38 15q-22 5 -43 5v0z" />
    <glyph glyph-name="Odieresis" unicode="&#xd6;" horiz-adv-x="712" 
d="M407 729q-165 -3 -261 -121q-97 -117 -99 -307q1 -157 71 -239q71 -82 205 -82q166 3 264 117q98 113 100 305q-1 162 -75 245q-74 82 -205 82v0zM391 631q69 -1 105 -61q36 -61 36 -170q-1 -134 -51 -225q-50 -92 -139 -96q-68 1 -103 61q-35 59 -35 168q0 128 47 223
q46 95 140 100v0zM239 923q-37 -1 -60 -22q-24 -22 -25 -56q0 -41 22 -62t63 -21q36 0 59 22q23 21 24 61q-1 37 -23 57q-23 21 -60 21v0zM588 923q-37 -1 -60 -22q-24 -22 -25 -56q0 -41 22 -62t63 -21q36 0 59 22q23 21 24 61q-1 37 -23 57q-23 21 -60 21v0z" />
    <glyph glyph-name="multiply" unicode="&#xd7;" 
d="M352 267l166 160q-15 18 -44 38q-29 19 -57 28l-142 -148l-146 151q-26 -11 -54 -31t-44 -39l166 -159l-158 -153q11 -19 35 -43t49 -39l152 158l153 -159q23 13 47 37q24 25 36 46z" />
    <glyph glyph-name="Oslash" unicode="&#xd8;" horiz-adv-x="761" 
d="M439 729q-168 -3 -266 -121q-98 -117 -100 -307q0 -46 7 -85q6 -40 18 -73l-128 -134q10 -18 35 -43q24 -26 43 -38l113 118q35 -33 83 -49q48 -17 109 -17q169 3 269 117q99 113 101 305q0 111 -37 186l117 119q-18 14 -52 30q-34 15 -59 21l-78 -82q-35 26 -79 40
q-44 13 -96 13v0zM568 400q-1 -134 -52 -225q-52 -92 -144 -96q-41 0 -70 20q-29 21 -46 59l306 317q6 -34 6 -75v0zM423 631q35 0 62 -16t45 -45l-298 -308q-2 22 -2 46q0 128 48 223t145 100v0z" />
    <glyph glyph-name="Ugrave" unicode="&#xd9;" horiz-adv-x="717" 
d="M258 606q15 1 35 4q19 3 33 7q5 18 8 46q3 29 2 46h-289q-1 -8 -1 -17q-1 -10 -1 -21q0 -14 1 -28t2 -24q13 -4 31 -7q17 -2 32 -4l-29 -341q-2 -24 -2 -47q0 -120 60 -180q59 -60 185 -60q157 2 233 84q77 82 86 218l24 324q13 1 31 4q19 3 30 7q5 13 8 37q3 23 3 42v5
t-1 8h-238q-5 -17 -7 -46q-2 -28 0 -46q11 -4 28 -7q16 -3 31 -5l-28 -330q-7 -86 -46 -139q-40 -53 -120 -55q-66 0 -96 40t-30 119q0 17 1 35zM479 754q14 16 27 43t17 49l-200 108q-29 -12 -62 -39q-34 -28 -53 -53z" />
    <glyph glyph-name="Uacute" unicode="&#xda;" horiz-adv-x="717" 
d="M258 606q15 1 35 4q19 3 33 7q5 18 8 46q3 29 2 46h-289q-1 -8 -1 -17q-1 -10 -1 -21q0 -14 1 -28t2 -24q13 -4 31 -7q17 -2 32 -4l-29 -341q-2 -24 -2 -47q0 -120 60 -180q59 -60 185 -60q157 2 233 84q77 82 86 218l24 324q13 1 31 4q19 3 30 7q5 13 8 37q3 23 3 42v5
t-1 8h-238q-5 -17 -7 -46q-2 -28 0 -46q11 -4 28 -7q16 -3 31 -5l-28 -330q-7 -86 -46 -139q-40 -53 -120 -55q-66 0 -96 40t-30 119q0 17 1 35zM659 851q-8 28 -26 59q-19 31 -38 49l-239 -114q-1 -8 -1 -14v-9q0 -18 2 -38q2 -19 6 -33z" />
    <glyph glyph-name="Ucircumflex" unicode="&#xdb;" horiz-adv-x="717" 
d="M258 606q15 1 35 4q19 3 33 7q5 18 8 46q3 29 2 46h-289q-1 -8 -1 -17q-1 -10 -1 -21q0 -14 1 -28t2 -24q13 -4 31 -7q17 -2 32 -4l-29 -341q-2 -24 -2 -47q0 -120 60 -180q59 -60 185 -60q157 2 233 84q77 82 86 218l24 324q13 1 31 4q19 3 30 7q5 13 8 37q3 23 3 42v5
t-1 8h-238q-5 -17 -7 -46q-2 -28 0 -46q11 -4 28 -7q16 -3 31 -5l-28 -330q-7 -86 -46 -139q-40 -53 -120 -55q-66 0 -96 40t-30 119q0 17 1 35zM379 940l-159 -101q0 -21 4 -46t14 -44l190 85l159 -81q17 12 36 35q18 23 26 44l-140 108h-130z" />
    <glyph glyph-name="Udieresis" unicode="&#xdc;" horiz-adv-x="717" 
d="M274 923q-37 -1 -60 -22q-24 -22 -25 -56q0 -41 22 -62t63 -21q36 0 59 22q23 21 24 61q-1 37 -23 57q-23 21 -60 21v0zM583 924q-37 -1 -60 -22q-24 -22 -25 -56q0 -41 22 -62t63 -21q36 0 59 22q23 21 24 61q-1 37 -23 57q-23 21 -60 21v0zM258 606q15 1 35 4
q19 3 33 7q5 18 8 46q3 29 2 46h-289q-1 -8 -1 -17q-1 -10 -1 -21q0 -14 1 -28t2 -24q13 -4 31 -7q17 -2 32 -4l-29 -341q-2 -24 -2 -47q0 -120 60 -180q59 -60 185 -60q157 2 233 84q77 82 86 218l24 324q13 1 31 4q19 3 30 7q5 13 8 37q3 23 3 42v5t-1 8h-238
q-5 -17 -7 -46q-2 -28 0 -46q11 -4 28 -7q16 -3 31 -5l-28 -330q-7 -86 -46 -139q-40 -53 -120 -55q-66 0 -96 40t-30 119q0 17 1 35z" />
    <glyph glyph-name="Yacute" unicode="&#xdd;" horiz-adv-x="642" 
d="M337 353q-1 27 -8 56t-14 47l-38 98q-5 14 -13 29q-9 14 -17 22q13 1 30 3t29 5q7 21 14 48q7 28 10 48h-297q0 -22 1 -48q2 -26 6 -43q10 -4 23 -7t25 -5l151 -345l-14 -155q-18 -2 -43 -7q-24 -5 -40 -10q-9 -16 -18 -43q-10 -26 -13 -46h357q5 17 6 46q1 28 -3 46
q-19 5 -45 9q-26 3 -50 5l11 160l227 339q12 1 26 3t26 5q8 19 14 47q7 27 9 49h-254q0 -18 3 -46t6 -45q9 -4 22 -7t25 -5q-11 -10 -22 -22q-10 -12 -17 -23l-64 -106q-11 -19 -22 -47q-11 -29 -17 -55h-12zM598 851q-8 28 -26 59q-19 31 -38 49l-239 -114q-1 -8 -1 -14v-9
q0 -18 2 -38q2 -19 6 -33z" />
    <glyph glyph-name="Thorn" unicode="&#xde;" horiz-adv-x="644" 
d="M330 0q4 17 5 46q1 28 -1 46q-16 5 -37 9q-21 3 -40 5l3 59q19 -4 41 -6q21 -2 43 -2q112 -1 199 55t92 175q-2 90 -73 134q-72 43 -193 43h-37q-19 -1 -39 -2l3 44q16 1 37 4q22 3 36 7q5 18 8 46q3 29 2 46h-283q-5 -17 -6 -46q-2 -28 -1 -46q11 -4 29 -7t34 -5
l-47 -499q-15 -2 -36 -7q-21 -4 -33 -9q-9 -16 -17 -43t-11 -47h322zM282 465q16 1 34 2q19 1 31 1q62 0 100 -25q37 -26 38 -71q-1 -61 -37 -90q-37 -30 -92 -30q-20 0 -45 2q-24 1 -44 5z" />
    <glyph glyph-name="germandbls" unicode="&#xdf;" horiz-adv-x="676" 
d="M13 -142q13 -4 30 -5q18 -2 35 -2q22 0 45 2t39 5l62 589q9 88 48 142q39 53 107 54q33 0 61 -13q28 -14 30 -45q-8 -48 -62 -84t-62 -128q10 -86 78 -122q67 -35 77 -98q0 -34 -17 -55q-16 -21 -42 -22q-24 0 -39 16q-15 17 -18 52q-43 -1 -86 -17t-57 -38q6 -58 55 -82
q48 -25 116 -24q103 0 168 53t67 152q-9 89 -75 127q-66 37 -75 91q7 47 57 82q50 34 57 112q-5 75 -73 104q-69 30 -147 29q-121 -1 -197 -65q-77 -64 -99 -185h-72q-3 -15 -6 -38q-3 -24 -3 -52q12 -5 31 -10q18 -4 33 -6z" />
    <glyph glyph-name="agrave" unicode="&#xe0;" horiz-adv-x="539" 
d="M297 64q2 -18 9 -40q7 -23 17 -41q33 0 80 9q46 8 74 19q10 17 18 44q9 27 9 46l-70 -7q-1 2 -2 7q-2 6 -2 10l40 337q-30 21 -74 36q-43 15 -93 16q-73 -1 -127 -28q-55 -28 -91 -74q-37 -48 -55 -106q-19 -58 -19 -119q1 -100 40 -145q39 -46 100 -45q49 1 83 23t54 58
h9zM288 138q-37 -49 -82 -49q-23 -1 -37 21q-13 21 -13 73q0 40 10 86q9 47 30 80q17 25 43 43q25 17 54 18q7 0 17 -1q9 -1 17 -3zM315 553q19 1 45 10q26 10 42 22l-103 192q-32 -1 -71 -13q-38 -13 -60 -29z" />
    <glyph glyph-name="aacute" unicode="&#xe1;" horiz-adv-x="539" 
d="M297 64q2 -18 9 -40q7 -23 17 -41q33 0 80 9q46 8 74 19q10 17 18 44q9 27 9 46l-70 -7q-1 2 -2 7q-2 6 -2 10l40 337q-30 21 -74 36q-43 15 -93 16q-73 -1 -127 -28q-55 -28 -91 -74q-37 -48 -55 -106q-19 -58 -19 -119q1 -100 40 -145q39 -46 100 -45q49 1 83 23t54 58
h9zM288 138q-37 -49 -82 -49q-23 -1 -37 21q-13 21 -13 73q0 40 10 86q9 47 30 80q17 25 43 43q25 17 54 18q7 0 17 -1q9 -1 17 -3zM466 725q-19 20 -59 32q-40 13 -70 13l-141 -169q8 -16 27 -32t38 -24z" />
    <glyph glyph-name="acircumflex" unicode="&#xe2;" horiz-adv-x="539" 
d="M297 64q2 -18 9 -40q7 -23 17 -41q33 0 80 9q46 8 74 19q10 17 18 44q9 27 9 46l-70 -7q-1 2 -2 7q-2 6 -2 10l40 337q-30 21 -74 36q-43 15 -93 16q-73 -1 -127 -28q-55 -28 -91 -74q-37 -48 -55 -106q-19 -58 -19 -119q1 -100 40 -145q39 -46 100 -45q49 1 83 23t54 58
h9zM288 138q-37 -49 -82 -49q-23 -1 -37 21q-13 21 -13 73q0 40 10 86q9 47 30 80q17 25 43 43q25 17 54 18q7 0 17 -1q9 -1 17 -3zM256 756l-135 -123q3 -21 13 -45t22 -38l141 107l102 -105q20 7 41 22q21 16 32 33l-114 155z" />
    <glyph glyph-name="atilde" unicode="&#xe3;" horiz-adv-x="539" 
d="M297 64q2 -18 9 -40q7 -23 17 -41q33 0 80 9q46 8 74 19q10 17 18 44q9 27 9 46l-70 -7q-1 2 -2 7q-2 6 -2 10l40 337q-30 21 -74 36q-43 15 -93 16q-73 -1 -127 -28q-55 -28 -91 -74q-37 -48 -55 -106q-19 -58 -19 -119q1 -100 40 -145q39 -46 100 -45q49 1 83 23t54 58
h9zM288 138q-37 -49 -82 -49q-23 -1 -37 21q-13 21 -13 73q0 40 10 86q9 47 30 80q17 25 43 43q25 17 54 18q7 0 17 -1q9 -1 17 -3zM419 724q-7 -15 -19 -26t-33 -11q-33 3 -58 21t-73 21q-58 -1 -93 -31q-35 -31 -46 -76q8 -16 26 -28t39 -15q6 16 18 27t34 11
q35 -3 62 -21q26 -19 71 -22q68 2 106 43q37 40 45 90q-17 10 -38 14q-22 3 -41 3v0z" />
    <glyph glyph-name="adieresis" unicode="&#xe4;" horiz-adv-x="539" 
d="M297 64q2 -18 9 -40q7 -23 17 -41q33 0 80 9q46 8 74 19q10 17 18 44q9 27 9 46l-70 -7q-1 2 -2 7q-2 6 -2 10l40 337q-30 21 -74 36q-43 15 -93 16q-73 -1 -127 -28q-55 -28 -91 -74q-37 -48 -55 -106q-19 -58 -19 -119q1 -100 40 -145q39 -46 100 -45q49 1 83 23t54 58
h9zM288 138q-37 -49 -82 -49q-23 -1 -37 21q-13 21 -13 73q0 40 10 86q9 47 30 80q17 25 43 43q25 17 54 18q7 0 17 -1q9 -1 17 -3zM171 727q-33 -1 -54 -21q-21 -21 -22 -55q0 -41 20 -61q19 -21 56 -21q33 0 54 22q20 21 21 60q0 36 -21 56q-20 20 -54 20v0zM425 727
q-33 -1 -54 -21q-21 -21 -22 -55q0 -41 20 -61q19 -21 56 -21q33 0 54 22q20 21 21 60q0 36 -21 56q-20 20 -54 20v0z" />
    <glyph glyph-name="aring" unicode="&#xe5;" horiz-adv-x="539" 
d="M297 64q2 -18 9 -40q7 -23 17 -41q33 0 80 9q46 8 74 19q10 17 18 44q9 27 9 46l-70 -7q-1 2 -2 7q-2 6 -2 10l40 337q-30 21 -74 36q-43 15 -93 16q-73 -1 -127 -28q-55 -28 -91 -74q-37 -48 -55 -106q-19 -58 -19 -119q1 -100 40 -145q39 -46 100 -45q49 1 83 23t54 58
h9zM288 138q-37 -49 -82 -49q-23 -1 -37 21q-13 21 -13 73q0 40 10 86q9 47 30 80q17 25 43 43q25 17 54 18q7 0 17 -1q9 -1 17 -3zM322 790q-67 -1 -103 -38q-37 -37 -37 -97q0 -49 27 -73q26 -23 75 -23q65 1 102 37q38 35 39 96q-1 51 -28 75q-27 23 -75 23v0zM315 727
q17 0 26 -9t9 -30q0 -30 -16 -47q-15 -18 -41 -18q-18 0 -27 10q-9 9 -9 30q0 28 15 46q15 17 43 18v0z" />
    <glyph glyph-name="ae" unicode="&#xe6;" horiz-adv-x="756" 
d="M445 192q161 14 219 65q58 52 55 114q0 61 -39 95q-40 34 -115 34q-52 0 -83 -16q-32 -16 -49 -42h-9q-16 26 -47 44t-87 19q-48 0 -102 -8t-86 -20q-11 -21 -18 -47t-7 -49q0 -8 1 -16t2 -14q33 16 81 29q47 12 86 13q35 0 55 -15q19 -15 19 -45q0 -10 -2 -24
q-2 -15 -4 -27q-21 8 -42 12q-20 4 -46 4q-87 -1 -147 -49q-61 -49 -64 -137q1 -68 42 -99q41 -30 103 -30q61 1 97 25q37 23 57 55h9q20 -40 59 -60t98 -20q57 1 103 19q45 17 74 40q12 21 20 49q9 29 9 51q-36 -18 -84 -30q-49 -13 -92 -13q-32 -1 -49 18q-17 18 -17 62
v13zM220 83q-25 0 -42 13t-18 43q0 35 23 57t63 23q10 0 26 -1q16 -2 31 -4q-2 -21 -2 -42q0 -13 1 -25l2 -22q-12 -15 -34 -28q-21 -13 -50 -14v0zM454 284q2 17 8 39q6 21 15 38q12 21 30 34q18 14 39 14q18 0 26 -12q7 -12 7 -31q3 -27 -21 -51t-104 -31v0z" />
    <glyph glyph-name="ccedilla" unicode="&#xe7;" horiz-adv-x="481" 
d="M130 -82q19 -4 33 -15q13 -10 14 -28q-1 -24 -22 -38t-49 -18q6 -18 17 -34q12 -17 26 -27q55 5 101 36t49 82q-1 29 -16 46q-15 18 -37 23l13 42q34 6 62 19q28 12 51 27q13 20 23 49q10 28 10 51q-34 -14 -78 -25q-45 -10 -84 -11q-41 0 -62 25q-20 24 -20 75
q0 39 9 85t31 81q13 20 33 31q20 12 45 12q8 0 16 -1q8 -2 14 -4l-7 -62q20 -14 52 -22t57 -8q16 34 25 73q9 38 9 74q-31 20 -70 32q-38 12 -83 12q-63 0 -114 -24t-86 -65q-39 -47 -57 -108q-19 -61 -19 -128q0 -79 37 -128q38 -49 114 -61z" />
    <glyph glyph-name="egrave" unicode="&#xe8;" horiz-adv-x="470" 
d="M154 192q162 14 221 65q58 52 55 114q0 61 -40 95q-39 34 -114 34q-62 0 -110 -24q-47 -23 -80 -64q-37 -49 -56 -113t-19 -127q0 -93 44 -141q45 -48 136 -48q58 1 104 19q45 17 74 40q12 21 20 49q9 29 9 51q-36 -18 -85 -30q-48 -13 -92 -13q-33 -1 -50 18
q-17 18 -17 62v13zM163 282q2 18 8 40t16 39q12 22 31 36q18 14 39 14q19 0 27 -13q8 -12 8 -32q3 -27 -22 -52q-24 -25 -107 -32v0zM278 553q19 1 45 10q26 10 42 22l-103 192q-32 -1 -71 -13q-38 -13 -60 -29z" />
    <glyph glyph-name="eacute" unicode="&#xe9;" horiz-adv-x="470" 
d="M154 192q162 14 221 65q58 52 55 114q0 61 -40 95q-39 34 -114 34q-62 0 -110 -24q-47 -23 -80 -64q-37 -49 -56 -113t-19 -127q0 -93 44 -141q45 -48 136 -48q58 1 104 19q45 17 74 40q12 21 20 49q9 29 9 51q-36 -18 -85 -30q-48 -13 -92 -13q-33 -1 -50 18
q-17 18 -17 62v13zM163 282q2 18 8 40t16 39q12 22 31 36q18 14 39 14q19 0 27 -13q8 -12 8 -32q3 -27 -22 -52q-24 -25 -107 -32v0zM444 725q-19 20 -59 32q-40 13 -70 13l-141 -169q8 -16 27 -32t38 -24z" />
    <glyph glyph-name="ecircumflex" unicode="&#xea;" horiz-adv-x="470" 
d="M154 192q162 14 221 65q58 52 55 114q0 61 -40 95q-39 34 -114 34q-62 0 -110 -24q-47 -23 -80 -64q-37 -49 -56 -113t-19 -127q0 -93 44 -141q45 -48 136 -48q58 1 104 19q45 17 74 40q12 21 20 49q9 29 9 51q-36 -18 -85 -30q-48 -13 -92 -13q-33 -1 -50 18
q-17 18 -17 62v13zM163 282q2 18 8 40t16 39q12 22 31 36q18 14 39 14q19 0 27 -13q8 -12 8 -32q3 -27 -22 -52q-24 -25 -107 -32v0zM230 756l-135 -123q3 -21 13 -45t22 -38l141 107l102 -105q20 7 41 22q21 16 32 33l-114 155z" />
    <glyph glyph-name="edieresis" unicode="&#xeb;" horiz-adv-x="470" 
d="M154 192q162 14 221 65q58 52 55 114q0 61 -40 95q-39 34 -114 34q-62 0 -110 -24q-47 -23 -80 -64q-37 -49 -56 -113t-19 -127q0 -93 44 -141q45 -48 136 -48q58 1 104 19q45 17 74 40q12 21 20 49q9 29 9 51q-36 -18 -85 -30q-48 -13 -92 -13q-33 -1 -50 18
q-17 18 -17 62v13zM163 282q2 18 8 40t16 39q12 22 31 36q18 14 39 14q19 0 27 -13q8 -12 8 -32q3 -27 -22 -52q-24 -25 -107 -32v0zM136 727q-33 -1 -54 -21q-21 -21 -22 -55q0 -41 20 -61q19 -21 56 -21q33 0 54 22q20 21 21 60q0 36 -21 56q-20 20 -54 20v0zM390 727
q-33 -1 -54 -21q-21 -21 -22 -55q0 -41 20 -61q19 -21 56 -21q33 0 54 22q20 21 21 60q0 36 -21 56q-20 20 -54 20v0z" />
    <glyph glyph-name="igrave" unicode="&#xec;" horiz-adv-x="294" 
d="M81 385l-48 -310q1 -20 16 -48q15 -29 30 -44q33 0 78 9q44 8 72 19q10 17 18 44q9 27 9 46l-73 -7q-1 2 -2 7q-2 6 -2 10l47 374q-14 4 -31 6q-18 3 -31 3q-36 0 -70 -7t-58 -21q-10 -12 -17 -42q-8 -29 -8 -45zM167 553q19 1 45 10q26 10 42 22l-103 192
q-32 -1 -71 -13q-38 -13 -60 -29z" />
    <glyph glyph-name="iacute" unicode="&#xed;" horiz-adv-x="294" 
d="M81 385l-48 -310q1 -20 16 -48q15 -29 30 -44q33 0 78 9q44 8 72 19q10 17 18 44q9 27 9 46l-73 -7q-1 2 -2 7q-2 6 -2 10l47 374q-14 4 -31 6q-18 3 -31 3q-36 0 -70 -7t-58 -21q-10 -12 -17 -42q-8 -29 -8 -45zM339 725q-19 20 -59 32q-40 13 -70 13l-141 -169
q8 -16 27 -32t38 -24z" />
    <glyph glyph-name="icircumflex" unicode="&#xee;" horiz-adv-x="294" 
d="M81 385l-48 -310q1 -20 16 -48q15 -29 30 -44q33 0 78 9q44 8 72 19q10 17 18 44q9 27 9 46l-73 -7q-1 2 -2 7q-2 6 -2 10l47 374q-14 4 -31 6q-18 3 -31 3q-36 0 -70 -7t-58 -21q-10 -12 -17 -42q-8 -29 -8 -45zM121 756l-135 -123q3 -21 13 -45t22 -38l141 107
l102 -105q20 7 41 22q21 16 32 33l-114 155z" />
    <glyph glyph-name="idieresis" unicode="&#xef;" horiz-adv-x="294" 
d="M47 727q-33 -1 -54 -21q-21 -21 -22 -55q0 -41 20 -61q19 -21 56 -21q33 0 54 22q20 21 21 60q0 36 -21 56q-20 20 -54 20v0zM276 727q-33 -1 -54 -21q-21 -21 -22 -55q0 -41 20 -61q19 -21 56 -21q33 0 54 22q20 21 21 60q0 36 -21 56q-20 20 -54 20v0zM81 385l-48 -310
q1 -20 16 -48q15 -29 30 -44q33 0 78 9q44 8 72 19q10 17 18 44q9 27 9 46l-73 -7q-1 2 -2 7q-2 6 -2 10l47 374q-14 4 -31 6q-18 3 -31 3q-36 0 -70 -7t-58 -21q-10 -12 -17 -42q-8 -29 -8 -45z" />
    <glyph glyph-name="eth" unicode="&#xf0;" horiz-adv-x="544" 
d="M356 435q-19 22 -43 32t-56 10q-111 -4 -174 -91q-62 -88 -63 -208q0 -99 48 -147t140 -48q150 4 228 111t79 270q-1 94 -25 158q-25 63 -68 106l77 41q-5 18 -19 39t-24 32l-107 -56q-35 19 -73 33q-39 13 -77 23q-19 -16 -38 -40q-18 -25 -26 -50q20 -4 45 -11
q25 -8 46 -16l-80 -41q0 -20 3 -44q4 -24 11 -42l137 75q25 -23 45 -56q19 -34 29 -80h-15zM369 342q0 -98 -31 -177q-32 -79 -100 -84q-35 0 -54 29q-20 29 -20 87q0 73 30 128q30 54 88 57q30 -1 53 -14q22 -12 34 -26v0z" />
    <glyph glyph-name="ntilde" unicode="&#xf1;" horiz-adv-x="564" 
d="M191 399l9 86q-27 9 -56 9q-30 0 -58 -7t-49 -21q-10 -12 -17 -42q-8 -29 -8 -45l70 6l-57 -381q13 -4 29 -5q17 -2 35 -2q24 0 46 2t39 5l36 326q15 25 39 46q23 21 50 22q24 0 35 -17q10 -17 10 -45q-1 -44 -14 -124q-12 -80 -23 -137q1 -20 16 -48q15 -29 30 -44
q33 0 80 9q46 8 74 19q10 17 18 44q9 27 9 46l-73 -7q-1 2 -2 7q-2 6 -2 10q9 60 20 133q10 72 11 118q-2 78 -41 108q-38 31 -89 30q-62 -2 -98 -31q-36 -30 -54 -70h-15zM433 724q-7 -15 -19 -26t-33 -11q-33 3 -58 21t-73 21q-58 -1 -93 -31q-35 -31 -46 -76
q8 -16 26 -28t39 -15q6 16 18 27t34 11q35 -3 62 -21q26 -19 71 -22q68 2 106 43q37 40 45 90q-17 10 -38 14q-22 3 -41 3v0z" />
    <glyph glyph-name="ograve" unicode="&#xf2;" horiz-adv-x="521" 
d="M208 -17q77 1 132 32t87 83q26 42 39 91q12 50 12 101q0 105 -50 158q-50 52 -144 52q-80 -1 -136 -36q-57 -35 -89 -93q-22 -40 -33 -85q-10 -45 -10 -93q0 -105 49 -157q48 -53 143 -53v0zM227 78q-31 0 -47 27t-16 88q0 36 6 76q5 39 20 73q13 29 33 46q21 18 48 18
q32 0 46 -28q14 -29 14 -91q0 -38 -5 -77q-6 -39 -19 -70q-12 -28 -32 -45t-48 -17v0zM299 553q19 1 45 10q26 10 42 22l-103 192q-32 -1 -71 -13q-38 -13 -60 -29z" />
    <glyph glyph-name="oacute" unicode="&#xf3;" horiz-adv-x="521" 
d="M208 -17q77 1 132 32t87 83q26 42 39 91q12 50 12 101q0 105 -50 158q-50 52 -144 52q-80 -1 -136 -36q-57 -35 -89 -93q-22 -40 -33 -85q-10 -45 -10 -93q0 -105 49 -157q48 -53 143 -53v0zM227 78q-31 0 -47 27t-16 88q0 36 6 76q5 39 20 73q13 29 33 46q21 18 48 18
q32 0 46 -28q14 -29 14 -91q0 -38 -5 -77q-6 -39 -19 -70q-12 -28 -32 -45t-48 -17v0zM459 725q-19 20 -59 32q-40 13 -70 13l-141 -169q8 -16 27 -32t38 -24z" />
    <glyph glyph-name="ocircumflex" unicode="&#xf4;" horiz-adv-x="521" 
d="M208 -17q77 1 132 32t87 83q26 42 39 91q12 50 12 101q0 105 -50 158q-50 52 -144 52q-80 -1 -136 -36q-57 -35 -89 -93q-22 -40 -33 -85q-10 -45 -10 -93q0 -105 49 -157q48 -53 143 -53v0zM227 78q-31 0 -47 27t-16 88q0 36 6 76q5 39 20 73q13 29 33 46q21 18 48 18
q32 0 46 -28q14 -29 14 -91q0 -38 -5 -77q-6 -39 -19 -70q-12 -28 -32 -45t-48 -17v0zM246 756l-135 -123q3 -21 13 -45t22 -38l141 107l102 -105q20 7 41 22q21 16 32 33l-114 155z" />
    <glyph glyph-name="otilde" unicode="&#xf5;" horiz-adv-x="521" 
d="M208 -17q77 1 132 32t87 83q26 42 39 91q12 50 12 101q0 105 -50 158q-50 52 -144 52q-80 -1 -136 -36q-57 -35 -89 -93q-22 -40 -33 -85q-10 -45 -10 -93q0 -105 49 -157q48 -53 143 -53v0zM227 78q-31 0 -47 27t-16 88q0 36 6 76q5 39 20 73q13 29 33 46q21 18 48 18
q32 0 46 -28q14 -29 14 -91q0 -38 -5 -77q-6 -39 -19 -70q-12 -28 -32 -45t-48 -17v0zM411 724q-7 -15 -19 -26t-33 -11q-33 3 -58 21t-73 21q-58 -1 -93 -31q-35 -31 -46 -76q8 -16 26 -28t39 -15q6 16 18 27t34 11q35 -3 62 -21q26 -19 71 -22q68 2 106 43q37 40 45 90
q-17 10 -38 14q-22 3 -41 3v0z" />
    <glyph glyph-name="odieresis" unicode="&#xf6;" horiz-adv-x="521" 
d="M208 -17q77 1 132 32t87 83q26 42 39 91q12 50 12 101q0 105 -50 158q-50 52 -144 52q-80 -1 -136 -36q-57 -35 -89 -93q-22 -40 -33 -85q-10 -45 -10 -93q0 -105 49 -157q48 -53 143 -53v0zM227 78q-31 0 -47 27t-16 88q0 36 6 76q5 39 20 73q13 29 33 46q21 18 48 18
q32 0 46 -28q14 -29 14 -91q0 -38 -5 -77q-6 -39 -19 -70q-12 -28 -32 -45t-48 -17v0zM162 727q-33 -1 -54 -21q-21 -21 -22 -55q0 -41 20 -61q19 -21 56 -21q33 0 54 22q20 21 21 60q0 36 -21 56q-20 20 -54 20v0zM416 727q-33 -1 -54 -21q-21 -21 -22 -55q0 -41 20 -61
q19 -21 56 -21q33 0 54 22q20 21 21 60q0 36 -21 56q-20 20 -54 20v0z" />
    <glyph glyph-name="divide" unicode="&#xf7;" 
d="M518 217q1 7 1 15q1 9 1 18q0 22 -2 43q-2 20 -5 33h-465q-6 -23 -11 -53q-5 -31 -5 -56h486zM278 530q-32 0 -52 -18q-19 -18 -20 -49q0 -37 18 -55q19 -18 54 -18q31 0 50 19q19 18 20 54q-1 33 -20 50t-50 17v0zM278 147q-32 0 -52 -18q-19 -18 -20 -49q0 -37 18 -55
q19 -18 54 -18q31 0 50 19q19 18 20 54q-1 33 -20 50t-50 17v0z" />
    <glyph glyph-name="oslash" unicode="&#xf8;" horiz-adv-x="550" 
d="M224 -17q79 1 135 32t89 83q27 42 40 91q12 50 12 101q0 41 -9 74q-8 33 -24 58l68 81q-11 14 -31 30q-21 16 -39 24l-64 -77q-42 20 -99 20q-82 -1 -140 -36q-57 -35 -90 -93q-23 -40 -34 -85q-10 -45 -10 -93q0 -41 8 -75q7 -33 23 -58l-52 -65q7 -19 20 -42t25 -35
l69 85q42 -20 103 -20v0zM243 78q-31 0 -48 22l158 196v-9q0 -38 -5 -77q-6 -39 -20 -70q-13 -28 -34 -45t-51 -17v0zM176 193q0 36 6 76q6 39 22 73q14 29 35 46q21 18 50 18q30 0 44 -21l-157 -197v5z" />
    <glyph glyph-name="ugrave" unicode="&#xf9;" horiz-adv-x="566" 
d="M225 485q-14 4 -31 6q-18 3 -31 3q-36 0 -70 -7t-58 -21q-10 -12 -17 -42q-8 -29 -8 -45l70 6q-11 -55 -24 -136q-13 -80 -14 -128q2 -78 40 -108q37 -31 86 -30q62 1 97 27t52 59h9q2 -20 9 -44t17 -42q33 0 79 9q46 8 74 19q10 17 18 44q9 27 9 46l-69 -7q-1 2 -2 7
q-2 6 -2 10l36 374q-13 4 -30 6q-17 3 -30 3q-34 0 -67 -7t-56 -21q-10 -12 -17 -41q-8 -29 -8 -45l62 5l-33 -243q-15 -21 -38 -39q-23 -17 -49 -18q-22 0 -31 17t-9 45q1 48 14 161q13 112 22 177v0zM301 553q19 1 45 10q26 10 42 22l-103 192q-32 -1 -71 -13
q-38 -13 -60 -29z" />
    <glyph glyph-name="uacute" unicode="&#xfa;" horiz-adv-x="566" 
d="M225 485q-14 4 -31 6q-18 3 -31 3q-36 0 -70 -7t-58 -21q-10 -12 -17 -42q-8 -29 -8 -45l70 6q-11 -55 -24 -136q-13 -80 -14 -128q2 -78 40 -108q37 -31 86 -30q62 1 97 27t52 59h9q2 -20 9 -44t17 -42q33 0 79 9q46 8 74 19q10 17 18 44q9 27 9 46l-69 -7q-1 2 -2 7
q-2 6 -2 10l36 374q-13 4 -30 6q-17 3 -30 3q-34 0 -67 -7t-56 -21q-10 -12 -17 -41q-8 -29 -8 -45l62 5l-33 -243q-15 -21 -38 -39q-23 -17 -49 -18q-22 0 -31 17t-9 45q1 48 14 161q13 112 22 177v0zM474 725q-19 20 -59 32q-40 13 -70 13l-141 -169q8 -16 27 -32t38 -24z
" />
    <glyph glyph-name="ucircumflex" unicode="&#xfb;" horiz-adv-x="566" 
d="M225 485q-14 4 -31 6q-18 3 -31 3q-36 0 -70 -7t-58 -21q-10 -12 -17 -42q-8 -29 -8 -45l70 6q-11 -55 -24 -136q-13 -80 -14 -128q2 -78 40 -108q37 -31 86 -30q62 1 97 27t52 59h9q2 -20 9 -44t17 -42q33 0 79 9q46 8 74 19q10 17 18 44q9 27 9 46l-69 -7q-1 2 -2 7
q-2 6 -2 10l36 374q-13 4 -30 6q-17 3 -30 3q-34 0 -67 -7t-56 -21q-10 -12 -17 -41q-8 -29 -8 -45l62 5l-33 -243q-15 -21 -38 -39q-23 -17 -49 -18q-22 0 -31 17t-9 45q1 48 14 161q13 112 22 177v0zM266 756l-135 -123q3 -21 13 -45t22 -38l141 107l102 -105q20 7 41 22
q21 16 32 33l-114 155z" />
    <glyph glyph-name="udieresis" unicode="&#xfc;" horiz-adv-x="566" 
d="M225 485q-14 4 -31 6q-18 3 -31 3q-36 0 -70 -7t-58 -21q-10 -12 -17 -42q-8 -29 -8 -45l70 6q-11 -55 -24 -136q-13 -80 -14 -128q2 -78 40 -108q37 -31 86 -30q62 1 97 27t52 59h9q2 -20 9 -44t17 -42q33 0 79 9q46 8 74 19q10 17 18 44q9 27 9 46l-69 -7q-1 2 -2 7
q-2 6 -2 10l36 374q-13 4 -30 6q-17 3 -30 3q-34 0 -67 -7t-56 -21q-10 -12 -17 -41q-8 -29 -8 -45l62 5l-33 -243q-15 -21 -38 -39q-23 -17 -49 -18q-22 0 -31 17t-9 45q1 48 14 161q13 112 22 177v0zM163 727q-33 -1 -54 -21q-21 -21 -22 -55q0 -41 20 -61q19 -21 56 -21
q33 0 54 22q20 21 21 60q0 36 -21 56q-20 20 -54 20v0zM417 727q-33 -1 -54 -21q-21 -21 -22 -55q0 -41 20 -61q19 -21 56 -21q33 0 54 22q20 21 21 60q0 36 -21 56q-20 20 -54 20v0z" />
    <glyph glyph-name="yacute" unicode="&#xfd;" horiz-adv-x="489" 
d="M37 392l106 -405q-33 -37 -78 -61q-45 -25 -97 -40q1 -29 14 -67q12 -38 28 -60q71 31 127 78t103 103q53 66 119 197q67 131 115 258q-1 21 -15 54q-15 33 -27 45q-25 0 -68 -5q-43 -6 -68 -14q-12 -13 -21 -40q-9 -26 -12 -48l68 4q2 -4 3 -9t1 -8q-18 -63 -41 -135
q-23 -71 -48 -136h-12q-1 28 -6 65q-4 37 -10 63l-56 256q-13 5 -27 7q-14 3 -28 3q-30 0 -58 -6q-28 -5 -49 -15q-9 -13 -16 -42q-8 -29 -8 -46zM460 725q-19 20 -59 32q-40 13 -70 13l-141 -169q8 -16 27 -32t38 -24z" />
    <glyph glyph-name="thorn" unicode="&#xfe;" horiz-adv-x="539" 
d="M-6 -227q13 -4 29 -5q17 -2 35 -2q24 0 46 2t39 5l19 223q14 -5 34 -9q21 -4 43 -4q52 0 97 22q45 21 78 58q39 46 60 112q22 66 22 134q-2 105 -48 149q-45 43 -104 42q-51 -1 -84 -25t-44 -56h-15q10 34 20 79t13 80l14 146q-14 4 -31 6q-18 3 -31 3q-35 0 -69 -7
t-58 -21q-11 -12 -18 -41q-8 -29 -8 -46l68 7zM204 337q16 24 40 41q25 17 50 18q29 0 42 -28t13 -82q0 -50 -10 -95q-11 -45 -33 -74q-15 -19 -38 -28q-23 -10 -48 -10q-10 0 -23 2q-14 1 -21 4z" />
    <glyph glyph-name="ydieresis" unicode="&#xff;" horiz-adv-x="489" 
d="M37 392l106 -405q-33 -37 -78 -61q-45 -25 -97 -40q1 -29 14 -67q12 -38 28 -60q71 31 127 78t103 103q53 66 119 197q67 131 115 258q-1 21 -15 54q-15 33 -27 45q-25 0 -68 -5q-43 -6 -68 -14q-12 -13 -21 -40q-9 -26 -12 -48l68 4q2 -4 3 -9t1 -8q-18 -63 -41 -135
q-23 -71 -48 -136h-12q-1 28 -6 65q-4 37 -10 63l-56 256q-13 5 -27 7q-14 3 -28 3q-30 0 -58 -6q-28 -5 -49 -15q-9 -13 -16 -42q-8 -29 -8 -46zM149 727q-33 -1 -54 -21q-21 -21 -22 -55q0 -41 20 -61q19 -21 56 -21q33 0 54 22q20 21 21 60q0 36 -21 56q-20 20 -54 20v0z
M403 727q-33 -1 -54 -21q-21 -21 -22 -55q0 -41 20 -61q19 -21 56 -21q33 0 54 22q20 21 21 60q0 36 -21 56q-20 20 -54 20v0z" />
    <glyph glyph-name="dotlessi" unicode="&#x131;" horiz-adv-x="294" 
d="M81 385l-48 -310q1 -20 16 -48q15 -29 30 -44q33 0 78 9q44 8 72 19q10 17 18 44q9 27 9 46l-73 -7q-1 2 -2 7q-2 6 -2 10l47 374q-14 4 -31 6q-18 3 -31 3q-36 0 -70 -7t-58 -21q-10 -12 -17 -42q-8 -29 -8 -45z" />
    <glyph glyph-name="IJ" unicode="&#x132;" horiz-adv-x="755" 
d="M328 0q4 17 5 46q1 28 -1 46q-16 5 -37 9q-21 3 -40 5l41 500q16 1 37 4q22 3 36 7q5 14 8 37t3 42v5t-1 8h-286q-5 -17 -6 -46q-2 -28 -1 -46q11 -4 29 -7t34 -5l-47 -499q-16 -2 -36 -7q-21 -4 -33 -9q-9 -16 -17 -43t-11 -47h323zM682 606q15 1 37 4q21 3 35 7
q5 14 8 37t3 42v5t-1 8h-303q-5 -17 -7 -46q-2 -28 0 -46q15 -4 38 -7t44 -5l-34 -389q-8 -104 -52 -186t-133 -133q4 -20 15 -43q12 -23 25 -37q135 61 211 169q75 107 87 256z" />
    <glyph glyph-name="ij" unicode="&#x133;" horiz-adv-x="576" 
d="M81 385l-50 -310q1 -20 16 -48q15 -29 30 -44q34 0 79 9q45 8 73 19q10 17 18 44q9 27 9 46l-70 -7q-1 2 -2 7q-2 6 -2 10l44 374q-14 4 -31 6q-18 3 -31 3q-36 0 -70 -7t-58 -21q-10 -12 -17 -42q-8 -29 -8 -45zM172 765q-38 -1 -61 -24q-24 -24 -25 -62q0 -46 22 -69
t64 -23q37 0 60 24t24 68q-1 41 -23 64q-23 22 -61 22v0zM277 -237q82 73 137 169q56 96 70 214l38 339q-14 4 -31 6q-18 3 -31 3q-36 0 -70 -7t-58 -21q-10 -12 -17 -42q-8 -29 -8 -45l70 6l-37 -276q-13 -90 -51 -165t-83 -121q11 -18 31 -35q20 -16 40 -25v0zM456 765
q-38 -1 -61 -24q-24 -24 -25 -62q0 -46 22 -69t64 -23q37 0 60 24t24 68q-1 41 -23 64q-23 22 -61 22v0z" />
    <glyph glyph-name="Lslash" unicode="&#x141;" horiz-adv-x="633" 
d="M109 106q-16 -2 -36 -7q-20 -4 -33 -9q-9 -16 -17 -43t-11 -47h566l19 213q-26 0 -60 -4q-35 -5 -60 -13q-6 -18 -13 -47t-11 -51h-192l17 229l169 102q-5 19 -19 45q-13 26 -25 40l-116 -69l14 161q22 1 52 4q29 3 48 7q6 18 10 46q3 29 2 46h-313q-5 -17 -6 -46
q-2 -28 -1 -46q11 -4 29 -7t34 -5l-21 -231l-96 -57q0 -24 5 -54q4 -30 13 -50l66 39z" />
    <glyph glyph-name="lslash" unicode="&#x142;" horiz-adv-x="348" 
d="M272 724q-14 4 -31 6q-18 3 -31 3q-35 0 -69 -7t-58 -21q-11 -12 -18 -41q-8 -29 -8 -46l68 7l-34 -244l-99 -52q0 -21 5 -48q4 -28 10 -43l76 43q-5 -18 -10 -40q-5 -23 -7 -44l-15 -122q1 -20 16 -48q15 -29 30 -44q34 0 79 9q45 8 73 19q10 17 18 44q9 27 9 46l-70 -7
q-1 2 -2 7q-2 6 -2 10l27 229l102 58q-2 17 -11 39q-10 22 -20 34l-67 -37q5 20 10 43q4 23 6 43z" />
    <glyph glyph-name="OE" unicode="&#x152;" horiz-adv-x="999" 
d="M923 0l15 192q-26 0 -60 -4t-56 -11q-7 -18 -12 -39q-6 -22 -9 -42h-183l17 220h150q0 -10 1 -23q2 -13 4 -23q22 -7 52 -8q29 -2 55 0l14 205q-27 0 -56 -4t-52 -11q-3 -10 -7 -23q-3 -12 -5 -21h-149l14 207h188q0 -17 1 -37q2 -21 4 -35q23 -7 53 -11t56 -4l17 181
h-447q-52 17 -112 17q-162 -3 -264 -117q-102 -115 -105 -305q1 -155 76 -237q76 -82 219 -83q32 0 61 4t59 12h461zM370 87q-87 0 -128 57q-41 56 -41 168q0 130 52 219q53 89 161 93q29 0 55 -7q27 -7 45 -18l-44 -491q-21 -10 -47 -15q-26 -6 -53 -6v0z" />
    <glyph glyph-name="oe" unicode="&#x153;" horiz-adv-x="761" 
d="M203 -17q58 1 94 19q36 17 58 40h9q15 -25 42 -41q27 -17 81 -18q57 1 103 19q45 17 73 40q12 21 20 49q9 29 9 51q-33 -17 -80 -30q-47 -12 -87 -13q-35 -1 -52 16q-17 18 -17 64v13q157 14 214 65q57 52 54 114q0 60 -39 94q-38 34 -110 35q-44 0 -87 -14
q-42 -14 -63 -44h-9q-14 27 -52 43q-37 15 -86 15q-78 -1 -133 -36t-86 -92q-22 -41 -33 -85q-10 -45 -10 -94q0 -104 48 -157q47 -53 139 -53v0zM224 78q-31 -1 -46 27q-16 27 -16 90q0 35 6 74q7 39 21 72q12 30 31 47q20 18 46 18q31 0 45 -28q15 -29 15 -91
q0 -38 -5 -77q-6 -39 -19 -70q-12 -28 -31 -45q-20 -17 -47 -17v0zM554 409q17 0 25 -12q9 -12 9 -32q2 -26 -23 -50t-102 -31q2 16 8 39q6 24 14 39q11 19 30 33q20 13 39 14v0z" />
    <glyph glyph-name="Scaron" unicode="&#x160;" horiz-adv-x="584" 
d="M408 540q22 -11 55 -18q32 -7 57 -7q13 39 24 90t14 89q-45 17 -98 26q-52 9 -100 9q-123 -1 -190 -61q-66 -59 -67 -163q18 -155 146 -197q127 -42 145 -131q-1 -52 -33 -78q-33 -27 -87 -27q-27 0 -51 6q-25 6 -48 15l9 104q-24 8 -60 13t-61 5q-12 -42 -21 -98
q-10 -56 -14 -100q49 -19 105 -28t107 -9q124 -2 209 54t89 191q-18 144 -147 190t-147 133q0 39 29 64q28 25 79 26q16 0 32 -3q15 -4 32 -13zM411 761l166 115q-10 15 -27 31q-18 16 -36 23l-144 -72l-130 76q-28 -4 -58 -18q-31 -15 -47 -31l142 -124h134z" />
    <glyph glyph-name="scaron" unicode="&#x161;" horiz-adv-x="446" 
d="M264 364q18 -12 49 -20t60 -8q11 28 18 65q8 37 9 65q-37 17 -76 25q-38 9 -72 9q-92 -1 -144 -43q-53 -41 -54 -108q12 -111 95 -145q82 -35 94 -80q-1 -24 -17 -38q-17 -14 -37 -14q-23 0 -39 19t-19 55q-39 0 -78 -14q-39 -15 -57 -39q4 -57 49 -84q44 -26 121 -26
q86 -1 151 39q65 39 68 128q-12 99 -97 137q-86 37 -98 82q1 21 15 33q13 12 32 12q9 0 18 -3t13 -5zM294 558l172 154q-12 14 -33 28q-21 13 -39 19l-132 -98l-105 97q-21 -2 -48 -13q-27 -10 -43 -25l119 -167z" />
    <glyph glyph-name="Ydieresis" unicode="&#x178;" horiz-adv-x="642" 
d="M221 923q-37 -1 -60 -22q-24 -22 -25 -56q0 -41 22 -62t63 -21q36 0 59 22q23 21 24 61q-1 37 -23 57q-23 21 -60 21v0zM530 923q-37 -1 -60 -22q-24 -22 -25 -56q0 -41 22 -62t63 -21q36 0 59 22q23 21 24 61q-1 37 -23 57q-23 21 -60 21v0zM337 353q-1 27 -8 56t-14 47
l-38 98q-5 14 -13 29q-9 14 -17 22q13 1 30 3t29 5q7 21 14 48q7 28 10 48h-297q0 -22 1 -48q2 -26 6 -43q10 -4 23 -7t25 -5l151 -345l-14 -155q-18 -2 -43 -7q-24 -5 -40 -10q-9 -16 -18 -43q-10 -26 -13 -46h357q5 17 6 46q1 28 -3 46q-19 5 -45 9q-26 3 -50 5l11 160
l227 339q12 1 26 3t26 5q8 19 14 47q7 27 9 49h-254q0 -18 3 -46t6 -45q9 -4 22 -7t25 -5q-11 -10 -22 -22q-10 -12 -17 -23l-64 -106q-11 -19 -22 -47q-11 -29 -17 -55h-12z" />
    <glyph glyph-name="Zcaron" unicode="&#x17d;" horiz-adv-x="616" 
d="M10 0h536l18 214q-28 0 -63 -5t-57 -13q-6 -19 -13 -47q-8 -29 -13 -51h-204v12l375 510l8 89h-507l-18 -202q29 0 63 4q35 4 59 9q6 18 12 47q7 29 10 47h186v-12l-386 -513zM415 761l166 115q-10 15 -27 31q-18 16 -36 23l-144 -72l-130 76q-28 -4 -58 -18
q-31 -15 -47 -31l142 -124h134z" />
    <glyph glyph-name="zcaron" unicode="&#x17e;" horiz-adv-x="485" 
d="M11 0h403l30 158q-25 5 -59 5q-34 -1 -55 -5q-8 -15 -14 -32q-7 -18 -12 -34q-27 -2 -56 -4t-55 -3v12l258 318l-6 68h-390l-21 -136q18 -8 51 -13t57 -5q9 14 17 34q9 19 14 33h89v-12l-257 -318zM313 558l172 154q-12 14 -33 28q-21 13 -39 19l-132 -98l-105 97
q-21 -2 -48 -13q-27 -10 -43 -25l119 -167z" />
    <glyph glyph-name="longs" unicode="&#x17f;" horiz-adv-x="290" 
d="M96 483h-69q-3 -15 -5 -37q-3 -23 -3 -47v-6q12 -5 31 -10q19 -4 34 -6l-66 -519q12 -4 29 -5q16 -2 33 -2q22 0 44 2t38 5l73 683q7 57 26 83q20 26 44 26q8 0 15 -3l-6 -46q19 -12 50 -20q30 -9 57 -9q14 30 24 71q10 40 10 72q-38 13 -71 18q-33 6 -58 6
q-82 1 -144 -46q-63 -48 -79 -155z" />
    <glyph glyph-name="florin" unicode="&#x192;" horiz-adv-x="558" 
d="M450 191q6 21 8 46q2 26 0 44h-129l12 88q7 50 24 76q17 25 42 25q8 0 15 -2q6 -3 11 -5l-9 -45q15 -11 43 -20q27 -9 52 -11q14 31 28 73q13 42 20 76q-26 13 -60 19q-35 7 -66 7q-80 1 -146 -48q-66 -48 -88 -156l-14 -77h-110q-7 -19 -13 -43q-5 -24 -7 -47h114
l-30 -163q-8 -47 -24 -74q-16 -26 -37 -27q-6 0 -14 1q-8 2 -13 4l8 61q-19 8 -48 16q-29 9 -51 12q-15 -35 -28 -81q-13 -45 -17 -79q28 -12 63 -19q34 -7 69 -7q81 -1 148 45q68 47 88 159l23 152h136z" />
    <glyph glyph-name="uni02BB" unicode="&#x2bb;" horiz-adv-x="258" 
d="M264 729q-24 0 -47 -4q-23 -3 -42 -11q-39 -55 -77 -125t-66 -146q22 -14 60 -28q39 -13 70 -16q18 17 36 45t26 48l-58 14q14 45 43 108q28 64 55 115v0z" />
    <glyph glyph-name="uni02BC" unicode="&#x2bc;" horiz-adv-x="280" 
d="M116 621q-11 -42 -30 -91t-41 -94q8 -10 26 -20q17 -11 36 -17q41 56 88 147q47 90 72 172q-21 8 -46 13t-49 5q-14 0 -29 -2q-14 -2 -26 -5q-16 -16 -32 -43q-16 -28 -25 -52z" />
    <glyph glyph-name="circumflex" unicode="&#x2c6;" horiz-adv-x="530" 
d="M230 756l-135 -123q3 -21 13 -45t22 -38l141 107l102 -105q20 7 41 22q21 16 32 33l-114 155z" />
    <glyph glyph-name="caron" unicode="&#x2c7;" horiz-adv-x="530" 
d="M303 558l172 154q-12 14 -33 28q-21 13 -39 19l-132 -98l-105 97q-21 -2 -48 -13q-27 -10 -43 -25l119 -167z" />
    <glyph glyph-name="breve" unicode="&#x2d8;" horiz-adv-x="530" 
d="M189 751q-24 -4 -48 -14t-38 -23q1 -74 39 -116q38 -41 112 -42q78 1 130 45q52 45 73 120q-14 10 -38 17q-23 6 -45 8q-17 -41 -42 -63q-25 -23 -62 -23q-38 0 -58 23t-23 68v0z" />
    <glyph glyph-name="dotaccent" unicode="&#x2d9;" horiz-adv-x="435" 
d="M220 731q-34 -1 -56 -22q-22 -22 -23 -57q0 -42 20 -63q21 -22 59 -22q34 0 56 22q21 22 22 63q0 38 -21 58q-21 21 -57 21v0z" />
    <glyph glyph-name="ring" unicode="&#x2da;" horiz-adv-x="435" 
d="M249 790q-67 -1 -103 -38q-37 -37 -37 -97q0 -49 27 -73q26 -23 75 -23q65 1 102 37q38 35 39 96q-1 51 -28 75q-27 23 -75 23v0zM242 727q17 0 26 -9t9 -30q0 -30 -16 -47q-15 -18 -41 -18q-18 0 -27 10q-9 9 -9 30q0 28 15 46q15 17 43 18v0z" />
    <glyph glyph-name="ogonek" unicode="&#x2db;" horiz-adv-x="435" 
d="M344 10q-30 0 -65 -1t-55 -3q-61 -20 -90 -56q-29 -35 -29 -76q2 -49 36 -73q33 -23 80 -23q18 0 42 4t39 11q0 20 -3 38q-3 19 -10 35q-5 -2 -11 -3q-7 -1 -14 -1q-17 0 -28 9q-12 8 -12 27q1 32 33 61q33 28 87 51v0z" />
    <glyph glyph-name="tilde" unicode="&#x2dc;" horiz-adv-x="530" 
d="M394 724q-7 -15 -19 -26t-33 -11q-33 3 -58 21t-73 21q-58 -1 -93 -31q-35 -31 -46 -76q8 -16 26 -28t39 -15q6 16 18 27t34 11q35 -3 62 -21q26 -19 71 -22q68 2 106 43q37 40 45 90q-17 10 -38 14q-22 3 -41 3v0z" />
    <glyph glyph-name="hungarumlaut" unicode="&#x2dd;" horiz-adv-x="530" 
d="M279 725q-18 18 -55 30t-65 13l-116 -171q8 -17 26 -34t38 -25zM504 725q-18 18 -55 30t-65 13l-116 -171q8 -17 26 -34t38 -25z" />
    <glyph glyph-name="gravecomb" unicode="&#x300;" horiz-adv-x="1" 
d="M-86 553q19 1 45 10q26 10 42 22l-103 192q-32 -1 -71 -13q-38 -13 -60 -29z" />
    <glyph glyph-name="acutecomb" unicode="&#x301;" horiz-adv-x="1" 
d="M1 725q-19 20 -59 32q-40 13 -70 13l-141 -169q8 -16 27 -32t38 -24z" />
    <glyph glyph-name="uni0302" unicode="&#x302;" horiz-adv-x="1" 
d="M-215 756l-135 -123q3 -21 13 -45t22 -38l141 107l102 -105q20 7 41 22q21 16 32 33l-114 155z" />
    <glyph glyph-name="tildecomb" unicode="&#x303;" horiz-adv-x="1" 
d="M-78 724q-7 -15 -19 -26t-33 -11q-33 3 -58 21t-73 21q-58 -1 -93 -31q-35 -31 -46 -76q8 -16 26 -28t39 -15q6 16 18 27t34 11q35 -3 62 -21q26 -19 71 -22q68 2 106 43q37 40 45 90q-17 10 -38 14q-22 3 -41 3v0z" />
    <glyph glyph-name="uni0304" unicode="&#x304;" horiz-adv-x="1" 
d="M-8 625q5 17 7 38q2 22 2 41v9t-1 14h-313q-8 -22 -14 -49q-7 -28 -9 -53h328z" />
    <glyph glyph-name="uni0306" unicode="&#x306;" horiz-adv-x="1" 
d="M-267 748q-24 -4 -48 -14t-38 -23q1 -74 39 -116q38 -41 112 -42q78 1 130 45q52 45 73 120q-14 10 -38 17q-23 6 -45 8q-17 -41 -42 -63q-25 -23 -62 -23q-38 0 -58 23t-23 68v0z" />
    <glyph glyph-name="uni0307" unicode="&#x307;" horiz-adv-x="1" 
d="M-77 758q-34 -1 -56 -22q-22 -22 -23 -57q0 -42 20 -63q21 -22 59 -22q34 0 56 22q21 22 22 63q0 38 -21 58q-21 21 -57 21v0z" />
    <glyph glyph-name="uni0308" unicode="&#x308;" horiz-adv-x="1" 
d="M-328 727q-33 -1 -54 -21q-21 -21 -22 -55q0 -41 20 -61q19 -21 56 -21q33 0 54 22q20 21 21 60q0 36 -21 56q-20 20 -54 20v0zM-74 727q-33 -1 -54 -21q-21 -21 -22 -55q0 -41 20 -61q19 -21 56 -21q33 0 54 22q20 21 21 60q0 36 -21 56q-20 20 -54 20v0z" />
    <glyph glyph-name="uni030A" unicode="&#x30a;" horiz-adv-x="1" 
d="M-102 790q-67 -1 -103 -38q-37 -37 -37 -97q0 -49 27 -73q26 -23 75 -23q65 1 102 37q38 35 39 96q-1 51 -28 75q-27 23 -75 23v0zM-109 727q17 0 26 -9t9 -30q0 -30 -16 -47q-15 -18 -41 -18q-18 0 -27 10q-9 9 -9 30q0 28 15 46q15 17 43 18v0z" />
    <glyph glyph-name="uni030B" unicode="&#x30b;" horiz-adv-x="1" 
d="M-224 732q-18 18 -55 30t-65 13l-116 -171q8 -17 26 -34t38 -25zM1 732q-18 18 -55 30t-65 13l-116 -171q8 -17 26 -34t38 -25z" />
    <glyph glyph-name="uni030C" unicode="&#x30c;" horiz-adv-x="1" 
d="M-171 558l172 154q-12 14 -33 28q-21 13 -39 19l-132 -98l-105 97q-21 -2 -48 -13q-27 -10 -43 -25l119 -167z" />
    <glyph glyph-name="uni0312" unicode="&#x312;" horiz-adv-x="1" 
d="M1 881q-21 0 -46 -2t-39 -7q-30 -39 -60 -93q-30 -53 -50 -109q24 -15 60 -26t71 -15q16 16 32 41t23 44l-53 13q10 31 28 75q17 45 34 79v0z" />
    <glyph glyph-name="uni0313" unicode="&#x313;" horiz-adv-x="1" 
d="M-137 585q-9 -34 -25 -73q-15 -39 -33 -71q9 -8 28 -18q19 -11 35 -15q36 48 75 123t58 135q-18 7 -41 11q-24 4 -44 4q-12 0 -25 -1q-13 -2 -22 -4q-13 -15 -27 -37q-14 -23 -22 -44z" />
    <glyph glyph-name="uni0326" unicode="&#x326;" horiz-adv-x="1" 
d="M-141 -154q-9 -33 -24 -72t-30 -72q9 -7 28 -18q20 -11 37 -16q34 49 73 127t58 140q-19 6 -44 10q-25 3 -46 3q-12 0 -26 -1q-13 -2 -24 -5q-14 -15 -28 -39t-23 -47z" />
    <glyph glyph-name="uni0394" unicode="&#x394;" horiz-adv-x="657" 
d="M310 718l-329 -654l-5 -64h637l6 75l-200 643h-109zM136 95l141 297q14 30 29 83q16 53 21 91h12q0 -36 8 -90q7 -55 16 -86l85 -295h-312z" />
    <glyph glyph-name="uni03A9" unicode="&#x3a9;" horiz-adv-x="821" 
d="M405 0h362l15 165q-26 0 -58 -3q-32 -4 -53 -9q-4 -12 -8 -28t-6 -31h-107v12q63 34 117 118t58 204q-2 133 -78 214q-77 81 -208 83q-151 -3 -251 -106q-99 -102 -103 -269q1 -97 37 -153q36 -57 88 -91v-12h-107q0 12 -2 29t-5 29q-21 5 -51 8q-31 2 -55 2l-15 -162
h358l8 85q-46 34 -75 98q-29 63 -30 155q0 112 47 201q47 90 144 95q77 -3 112 -64q34 -61 33 -148q-2 -118 -49 -209t-111 -128z" />
    <glyph glyph-name="uni03BC" unicode="&#x3bc;" horiz-adv-x="622" 
d="M134 74q8 -45 37 -68t76 -23q59 2 90 32t44 61h9q1 -35 22 -63t64 -30q23 0 45 7t37 18q10 16 19 43q8 27 9 48q-11 -6 -25 -9t-26 -3q-14 -1 -23 16t-9 63q1 70 15 164q14 93 29 167q-25 0 -65 -4q-39 -5 -65 -13q-14 -70 -27 -160q-12 -90 -13 -164q-19 -28 -45 -48
q-27 -20 -58 -21q-38 0 -57 37q-20 37 -20 109q1 60 11 131q10 72 23 133q-24 0 -70 -5t-73 -13q-19 -160 -47 -352q-27 -192 -54 -369q22 -14 60 -23q39 -10 81 -12q3 27 6 58q2 31 2 68q0 55 -4 118q-5 62 -10 107h12z" />
    <glyph glyph-name="pi" unicode="&#x3c0;" horiz-adv-x="611" 
d="M20 428q-9 -17 -14 -41q-6 -25 -6 -46q0 -6 1 -13q0 -8 1 -11q25 19 57 34q32 14 64 19q-4 -91 -26 -184q-23 -92 -54 -166q18 -15 51 -27t79 -16q33 90 53 196q21 107 25 208q9 1 19 1q10 1 20 1q22 0 43 -1q20 -2 37 -4q-11 -43 -22 -109q-12 -67 -13 -131
q-1 -67 21 -110q22 -44 79 -45q19 0 41 4q23 3 37 9q13 19 21 51q8 31 9 56q-8 -4 -21 -6q-13 -3 -23 -3q-21 0 -28 19q-8 19 -7 52q1 56 10 112q9 55 19 96q29 -1 54 -2q26 -1 46 -3q6 22 9 46q3 25 3 46q0 8 -1 16q0 8 -1 13q-69 4 -142 6q-74 3 -140 3q-121 1 -185 -14
q-64 -16 -116 -56v0z" />
    <glyph glyph-name="uni2007" unicode="&#x2007;" horiz-adv-x="625" 
 />
    <glyph glyph-name="uni2008" unicode="&#x2008;" horiz-adv-x="281" 
 />
    <glyph glyph-name="uni200B" unicode="&#x200b;" horiz-adv-x="0" 
 />
    <glyph glyph-name="uniFEFF" unicode="&#xfeff;" horiz-adv-x="0" 
 />
    <glyph glyph-name="endash" unicode="&#x2013;" horiz-adv-x="500" 
d="M440 225q5 18 8 41q2 22 2 43v12q-1 5 -1 10h-395q-9 -22 -15 -51q-7 -29 -9 -55h410z" />
    <glyph glyph-name="emdash" unicode="&#x2014;" horiz-adv-x="1000" 
d="M897 225q5 18 8 41q2 22 2 43v12q-1 5 -1 10h-832q-9 -22 -15 -51q-7 -29 -9 -55h847z" />
    <glyph glyph-name="quoteleft" unicode="&#x2018;" horiz-adv-x="258" 
d="M264 729q-24 0 -47 -4q-23 -3 -42 -11q-39 -55 -77 -125t-66 -146q22 -14 60 -28q39 -13 70 -16q18 17 36 45t26 48l-58 14q14 45 43 108q28 64 55 115v0z" />
    <glyph glyph-name="quoteright" unicode="&#x2019;" horiz-adv-x="280" 
d="M116 621q-11 -42 -30 -91t-41 -94q8 -10 26 -20q17 -11 36 -17q41 56 88 147q47 90 72 172q-21 8 -46 13t-49 5q-14 0 -29 -2q-14 -2 -26 -5q-16 -16 -32 -43q-16 -28 -25 -52z" />
    <glyph glyph-name="quotesinglbase" unicode="&#x201a;" horiz-adv-x="276" 
d="M70 14q-12 -43 -32 -95t-42 -98q8 -10 27 -20q18 -11 37 -17q41 57 89 151q49 94 73 176q-22 8 -46 12q-24 5 -50 5q-14 0 -28 -2q-15 -1 -28 -5q-16 -16 -31 -43t-24 -51z" />
    <glyph glyph-name="quotereversed" unicode="&#x201b;" horiz-adv-x="265" 
d="M220 635q-2 25 -11 51q-10 26 -24 45q-9 2 -19 2q-10 1 -20 1q-28 0 -57 -5q-29 -6 -53 -15q6 -84 26 -172q21 -88 47 -147q21 3 44 13q24 9 37 18q-10 44 -17 97q-7 52 -9 99z" />
    <glyph glyph-name="quotedblleft" unicode="&#x201c;" horiz-adv-x="494" 
d="M247 730q-23 0 -45 -4q-22 -3 -41 -11q-39 -55 -78 -125q-38 -71 -66 -147q21 -15 58 -29q36 -13 69 -17q18 17 36 46q19 29 27 49l-58 14q14 45 43 109q28 64 55 115v0zM479 730q-24 0 -46 -4q-22 -3 -41 -11q-38 -55 -77 -125q-38 -71 -67 -147q21 -15 58 -29
q37 -13 69 -17q18 17 37 46t27 49l-58 14q13 45 42 109q28 64 56 115v0z" />
    <glyph glyph-name="quotedblright" unicode="&#x201d;" horiz-adv-x="471" 
d="M107 621q-11 -42 -29 -91q-19 -49 -42 -94q8 -10 25 -20q16 -11 35 -17q41 56 88 147q47 90 72 172q-21 8 -45 13t-48 5q-14 0 -28 -2q-14 -1 -27 -5q-16 -16 -32 -43q-16 -28 -25 -52zM330 621q-10 -42 -29 -91q-18 -49 -41 -94q7 -10 24 -20q17 -11 35 -17
q41 56 88 147q48 90 72 172q-21 8 -45 13t-48 5q-14 0 -28 -2q-14 -1 -27 -5q-16 -16 -31 -43q-16 -28 -26 -52z" />
    <glyph glyph-name="quotedblbase" unicode="&#x201e;" horiz-adv-x="500" 
d="M67 14q-10 -42 -29 -93t-41 -96q8 -10 25 -20q16 -11 35 -17q41 56 88 149q47 92 71 174q-21 8 -45 13t-48 5q-28 0 -55 -7q-16 -16 -31 -43q-15 -28 -24 -52zM293 14q-11 -42 -30 -93t-41 -96q8 -10 25 -20q17 -11 35 -17q41 56 88 149q47 92 72 174q-21 8 -45 13
q-25 5 -49 5q-28 0 -54 -7q-16 -16 -31 -43q-16 -28 -25 -52z" />
    <glyph glyph-name="dagger" unicode="&#x2020;" horiz-adv-x="500" 
d="M472 389q5 17 7 38t2 40v12q0 6 -1 11h-146l27 220q-39 0 -80 -5q-40 -6 -72 -15l-12 -200h-127q-8 -22 -14 -49q-7 -27 -9 -52h143l-38 -564q9 -2 22 -4q12 -1 26 -1q15 0 28 1q13 2 22 4l73 564h149z" />
    <glyph glyph-name="daggerdbl" unicode="&#x2021;" horiz-adv-x="500" 
d="M443 99q6 24 8 52t0 49h-151l25 189h146q5 17 7 38t2 40v12q0 6 -1 11h-143l27 219q-39 0 -80 -5q-40 -6 -72 -15l-12 -199h-127q-8 -22 -14 -49q-7 -27 -9 -52h143l-13 -189h-134q-8 -22 -14 -49q-7 -27 -9 -52h150l-18 -273q9 -2 22 -4q12 -1 26 -1q15 0 28 1
q13 2 22 4l35 273h156z" />
    <glyph glyph-name="bullet" unicode="&#x2022;" horiz-adv-x="568" 
d="M269 423q-80 -1 -130 -50t-52 -128q0 -93 46 -139q46 -47 136 -47q75 1 123 50q47 48 49 136q-1 87 -47 133q-47 45 -125 45v0z" />
    <glyph glyph-name="ellipsis" unicode="&#x2026;" horiz-adv-x="921" 
d="M435 175q-41 -1 -66 -26q-26 -25 -27 -65q0 -48 24 -72q23 -24 69 -24q39 0 64 26q24 25 25 70q-1 44 -25 68q-24 23 -64 23v0zM124 175q-41 -1 -66 -26q-26 -25 -27 -65q0 -48 24 -72q23 -24 69 -24q39 0 64 26q24 25 25 70q-1 44 -25 68q-24 23 -64 23v0zM748 175
q-41 -1 -66 -26q-26 -25 -27 -65q0 -48 24 -72q23 -24 69 -24q39 0 64 26q24 25 25 70q-1 44 -25 68q-24 23 -64 23v0z" />
    <glyph glyph-name="perthousand" unicode="&#x2030;" horiz-adv-x="1375" 
d="M756 546q-24 11 -55 18t-57 8l-438 -562q13 -16 41 -34q29 -19 53 -25zM241 562q-93 -1 -148 -53q-54 -52 -55 -140q0 -70 39 -106q39 -35 113 -35q92 1 147 50q56 49 57 138q0 73 -40 109q-40 37 -113 37v0zM226 476q25 0 35 -17q11 -18 11 -48q0 -41 -17 -69t-49 -29
q-23 0 -36 17q-12 17 -12 49q0 40 17 68t51 29v0zM759 314q-93 -1 -148 -53q-54 -52 -55 -140q0 -70 39 -106q39 -35 113 -35q92 1 147 50q56 49 57 138q0 73 -40 109q-40 37 -113 37v0zM744 228q25 0 35 -17q11 -18 11 -48q0 -41 -17 -69t-49 -29q-23 0 -36 17
q-12 17 -12 49q0 40 17 68t51 29v0zM1174 314q-93 -1 -148 -53q-54 -52 -55 -140q0 -70 39 -106q39 -35 113 -35q92 1 147 50q56 49 57 138q0 73 -40 109q-40 37 -113 37v0zM1159 228q25 0 35 -17q11 -18 11 -48q0 -41 -17 -69t-49 -29q-23 0 -36 17q-12 17 -12 49
q0 40 17 68t51 29v0z" />
    <glyph glyph-name="guilsinglleft" unicode="&#x2039;" horiz-adv-x="360" 
d="M192 258q25 55 54 111q30 55 64 110q-38 0 -78 -6q-41 -6 -73 -16q-39 -53 -69 -100q-31 -47 -58 -99q15 -52 40 -112q25 -59 54 -116q30 0 66 9q35 8 59 20q-18 45 -34 97t-25 102v0z" />
    <glyph glyph-name="guilsinglright" unicode="&#x203a;" horiz-adv-x="353" 
d="M137 258q-22 -49 -48 -97q-25 -47 -55 -95q22 -13 52 -24t59 -14q42 57 82 118q40 60 69 112q-15 51 -39 108q-24 58 -55 117q-30 0 -64 -10t-58 -23q18 -49 32 -96t25 -96v0z" />
    <glyph glyph-name="uni203E" unicode="&#x203e;" horiz-adv-x="500" 
d="M-4 734q-7 -21 -11 -50q-5 -29 -5 -52h527q1 7 1 15q1 8 1 16q0 21 -2 40q-2 20 -4 31h-507z" />
    <glyph glyph-name="fraction" unicode="&#x2044;" horiz-adv-x="192" 
d="M419 697q-24 11 -55 16q-31 6 -59 6l-546 -702q13 -20 39 -37t55 -24z" />
    <glyph glyph-name="uni2070" unicode="&#x2070;" horiz-adv-x="385" 
d="M205 775q-90 -2 -139 -67q-48 -66 -49 -170q1 -86 37 -127t101 -41q88 2 139 66q50 64 51 172q-1 87 -38 127q-37 41 -102 40v0zM193 694q19 0 26 -22q7 -21 7 -64q0 -60 -14 -106t-43 -49q-16 0 -25 22q-8 22 -8 63q0 56 13 104q14 49 44 52v0z" />
    <glyph glyph-name="uni2074" unicode="&#x2074;" horiz-adv-x="385" 
d="M293 466h48q3 12 5 29q2 18 2 34q0 12 -1 20h-47l24 219h-129l-183 -238l-8 -64h178l-9 -86q11 -3 26 -4t32 -1q16 0 31 1q14 1 23 4zM191 549h-35q-9 0 -19 -1q-11 0 -19 -2v7l84 118h7q-3 -11 -6 -28t-5 -33z" />
    <glyph glyph-name="uni2075" unicode="&#x2075;" horiz-adv-x="385" 
d="M179 678h159q6 21 10 46t6 44h-265l-39 -226q22 4 46 5q23 2 41 2q35 1 54 -8q18 -9 18 -35q-1 -31 -23 -42t-47 -10q-25 0 -57 7q-32 6 -56 15q-2 -9 -3 -17q-1 -9 -1 -18q0 -16 3 -32q3 -15 8 -29q18 -5 47 -7q29 -3 54 -3q84 0 138 37t56 116q-1 58 -32 82
q-31 25 -84 24q-11 0 -21 -1q-11 0 -20 -2z" />
    <glyph glyph-name="uni2076" unicode="&#x2076;" horiz-adv-x="385" 
d="M152 604q14 55 40 73t51 17q25 0 50 -5q26 -5 45 -13q2 8 3 19t1 22q0 14 -1 26q-2 12 -4 23q-17 5 -41 7q-23 2 -43 2q-115 -3 -170 -78q-56 -76 -56 -186q0 -141 140 -141q80 1 124 41q45 41 46 114q0 49 -26 77q-25 28 -77 29q-27 0 -45 -8q-17 -7 -28 -19h-9z
M145 532q8 7 20 13q11 6 25 6q29 0 29 -35q0 -25 -10 -47t-33 -23q-16 0 -25 12q-8 13 -8 41v15l2 18v0z" />
    <glyph glyph-name="uni2077" unicode="&#x2077;" horiz-adv-x="385" 
d="M372 768h-309l-18 -147q21 0 46 3t44 8q5 13 9 28q5 16 7 28h107v-9q-56 -68 -101 -145q-46 -76 -80 -154q17 -3 35 -4q19 -2 37 -2q12 0 27 1t27 4q32 79 71 154t91 156z" />
    <glyph glyph-name="uni2078" unicode="&#x2078;" horiz-adv-x="385" 
d="M98 573q-39 -10 -60 -39q-21 -28 -21 -66q2 -55 42 -77t99 -21q74 -1 126 29q53 30 55 100q-1 38 -17 59t-41 30v9q30 12 46 35q17 24 17 55q-2 49 -39 69q-38 20 -91 19q-63 1 -111 -26t-51 -89q1 -32 14 -51q13 -20 32 -27v-9zM166 539q27 -10 42 -21q16 -11 16 -32
q-1 -24 -16 -34q-15 -9 -33 -9t-30 9t-12 28q1 20 11 35q10 16 22 24v0zM208 632q-21 8 -34 16q-14 9 -14 24q1 18 15 25q13 7 26 7t22 -6q10 -7 10 -23q-1 -15 -8 -26q-8 -12 -17 -17v0z" />
    <glyph glyph-name="uni2079" unicode="&#x2079;" horiz-adv-x="385" 
d="M224 547q-15 -59 -42 -76q-26 -16 -51 -14q-26 0 -53 6q-28 6 -47 14q-5 -18 -5 -39q0 -15 2 -31q2 -15 6 -28q15 -5 41 -7t43 -2q125 4 179 78q53 74 52 176q0 79 -33 115q-33 37 -104 36q-78 0 -123 -38t-46 -111q0 -50 24 -78t75 -29q28 0 45 8t28 20h9zM235 618
q-9 -7 -22 -13t-27 -6q-32 0 -32 36q0 23 10 44q11 21 35 22q17 0 28 -13q10 -13 10 -42q0 -6 -1 -13q0 -7 -1 -15v0z" />
    <glyph glyph-name="uni2080" unicode="&#x2080;" horiz-adv-x="385" 
d="M212 310q-90 -2 -139 -67q-48 -66 -49 -170q1 -86 37 -127t101 -41q88 2 139 66q50 64 51 172q-1 87 -38 127q-37 41 -102 40v0zM200 229q19 0 26 -22q7 -21 7 -64q0 -60 -14 -106t-43 -49q-16 0 -25 22q-8 22 -8 63q0 56 13 104q14 49 44 52v0z" />
    <glyph glyph-name="uni2081" unicode="&#x2081;" horiz-adv-x="385" 
d="M279 310q-47 -3 -100 -11t-87 -16q-10 -18 -16 -38q-7 -21 -9 -37l87 7l-24 -222q-14 -2 -31 -5q-18 -4 -31 -8q-8 -14 -14 -32q-7 -19 -9 -36h271q1 8 1 21q1 12 1 18v11t-1 20q-14 3 -35 6t-34 4z" />
    <glyph glyph-name="uni2082" unicode="&#x2082;" horiz-adv-x="385" 
d="M12 -88h307q6 19 11 46q6 27 8 46q-54 -4 -106 -6q-51 -2 -98 -2v7q69 33 141 88t78 129q-1 48 -39 69q-39 21 -99 21q-50 0 -93 -12q-43 -11 -76 -27q0 -24 1 -52q1 -29 4 -52q19 0 46 4q26 3 46 10l3 44q8 3 23 6q15 2 26 2q40 0 40 -32q-6 -57 -79 -111t-135 -102z
" />
    <glyph glyph-name="uni2083" unicode="&#x2083;" horiz-adv-x="385" 
d="M91 70q68 0 96 -9q27 -9 26 -33q-1 -22 -16 -31q-16 -9 -40 -9q-25 0 -59 7t-60 19q-1 -7 -2 -16q-1 -8 -1 -13q0 -19 3 -37t8 -30q20 -6 48 -9q27 -4 51 -4q75 0 130 32t58 99q-1 37 -19 55q-18 19 -48 24v9q36 10 58 35q21 25 22 59q-2 48 -42 70q-39 22 -96 22
q-25 0 -54 -4q-28 -5 -54 -16q-11 -19 -17 -44q-5 -24 -5 -42q25 11 56 17q31 7 56 7q14 0 26 -6q11 -7 12 -23q-4 -33 -47 -41q-42 -7 -74 -6q-7 -16 -11 -39q-5 -24 -5 -43v0z" />
    <glyph glyph-name="uni2084" unicode="&#x2084;" horiz-adv-x="385" 
d="M300 1h48q3 12 5 29q2 18 2 34q0 12 -1 20h-47l24 219h-129l-183 -238l-8 -64h178l-9 -86q11 -3 26 -4t32 -1q16 0 31 1q14 1 23 4zM198 84h-35q-9 0 -19 -1q-11 0 -19 -2v7l84 118h7q-3 -11 -6 -28t-5 -33z" />
    <glyph glyph-name="uni2085" unicode="&#x2085;" horiz-adv-x="385" 
d="M186 213h159q6 21 10 46t6 44h-265l-39 -226q22 4 46 5q23 2 41 2q35 1 54 -8q18 -9 18 -35q-1 -31 -23 -42t-47 -10q-25 0 -57 7q-32 6 -56 15q-2 -9 -3 -17q-1 -9 -1 -18q0 -16 3 -32q3 -15 8 -29q18 -5 47 -7q29 -3 54 -3q84 0 138 37t56 116q-1 58 -32 82
q-31 25 -84 24q-11 0 -21 -1q-11 0 -20 -2z" />
    <glyph glyph-name="uni2086" unicode="&#x2086;" horiz-adv-x="385" 
d="M159 139q14 55 40 73t51 17q25 0 50 -5q26 -5 45 -13q2 8 3 19t1 22q0 14 -1 26q-2 12 -4 23q-17 5 -41 7q-23 2 -43 2q-115 -3 -170 -78q-56 -76 -56 -186q0 -141 140 -141q80 1 124 41q45 41 46 114q0 49 -26 77q-25 28 -77 29q-27 0 -45 -8q-17 -7 -28 -19h-9zM152 67
q8 7 20 13q11 6 25 6q29 0 29 -35q0 -25 -10 -47t-33 -23q-16 0 -25 12q-8 13 -8 41v15l2 18v0z" />
    <glyph glyph-name="uni2087" unicode="&#x2087;" horiz-adv-x="385" 
d="M379 304h-309l-18 -147q21 0 46 3t44 8q5 13 9 28q5 16 7 28h107v-9q-56 -68 -101 -145q-46 -76 -80 -154q17 -3 35 -4q19 -2 37 -2q12 0 27 1t27 4q32 79 71 154t91 156z" />
    <glyph glyph-name="uni2088" unicode="&#x2088;" horiz-adv-x="385" 
d="M105 108q-39 -10 -60 -39q-21 -28 -21 -66q2 -55 42 -77t99 -21q74 -1 126 29q53 30 55 100q-1 38 -17 59t-41 30v9q30 12 46 35q17 24 17 55q-2 49 -39 69q-38 20 -91 19q-63 1 -111 -26t-51 -89q1 -32 14 -51q13 -20 32 -27v-9zM173 74q27 -10 42 -21q16 -11 16 -32
q-1 -24 -16 -34q-15 -9 -33 -9t-30 9t-12 28q1 20 11 35q10 16 22 24v0zM215 167q-21 8 -34 16q-14 9 -14 24q1 18 15 25q13 7 26 7t22 -6q10 -7 10 -23q-1 -15 -8 -26q-8 -12 -17 -17v0z" />
    <glyph glyph-name="uni2089" unicode="&#x2089;" horiz-adv-x="385" 
d="M231 82q-15 -59 -42 -76q-26 -16 -51 -14q-26 0 -53 6q-28 6 -47 14q-5 -18 -5 -39q0 -15 2 -31q2 -15 6 -28q15 -5 41 -7t43 -2q125 4 179 78q53 74 52 176q0 79 -33 115q-33 37 -104 36q-78 0 -123 -38t-46 -111q0 -50 24 -78t75 -29q28 0 45 8t28 20h9zM242 153
q-9 -7 -22 -13t-27 -6q-32 0 -32 36q0 23 10 44q11 21 35 22q17 0 28 -13q10 -13 10 -42q0 -6 -1 -13q0 -7 -1 -15v0z" />
    <glyph glyph-name="Euro" unicode="&#x20ac;" horiz-adv-x="626" 
d="M454 280q5 17 6 39q2 22 0 37h-190q21 52 57 81q37 29 83 29q13 0 27 -2q15 -2 25 -6l-5 -42q22 -12 58 -21q37 -9 66 -10q11 25 20 62t10 69q-37 23 -81 34q-44 12 -94 12q-116 -1 -202 -57q-85 -55 -124 -149h-61q-6 -16 -11 -36q-4 -21 -6 -40h422zM37 234
q-6 -16 -11 -36q-4 -21 -6 -40h74q20 -83 82 -130q61 -47 156 -48q52 1 103 13q51 13 87 31q15 18 24 44q10 26 10 46q-40 -14 -86 -21q-46 -8 -82 -8q-48 0 -80 16q-33 17 -48 57h182q5 17 6 39q2 22 0 37h-411z" />
    <glyph glyph-name="uni2113" unicode="&#x2113;" horiz-adv-x="509" 
d="M109 286l-32 -20q-17 -10 -36 -20q0 -27 2 -56q3 -29 11 -56q9 5 21 11q12 7 21 12q-1 -8 -1 -17q-1 -10 -1 -17q1 -71 47 -107t119 -36q49 -1 97 23t96 82q-10 15 -30 32t-38 27q-27 -31 -54 -46q-26 -15 -47 -15q-29 1 -39 19q-10 19 -9 48q0 22 2 46q3 24 5 44
q105 74 168 154q62 79 64 169q-1 72 -40 107q-39 34 -97 34q-75 0 -135 -55q-60 -56 -74 -170zM257 383l7 104q4 55 19 87q15 31 36 32q12 0 20 -12q7 -12 7 -39q0 -44 -22 -87q-23 -44 -67 -85v0z" />
    <glyph glyph-name="uni2116" unicode="&#x2116;" horiz-adv-x="1082" 
d="M309 539h-233q-4 -17 -6 -41q-1 -25 0 -43q11 -5 28 -9q18 -4 33 -6l-40 -332q-15 -5 -31 -13q-15 -7 -29 -16q-7 -14 -14 -36q-7 -23 -11 -43h259q4 17 6 43q2 25 1 42q-13 7 -32 12q-19 6 -33 8l29 282h12q5 -31 18 -70q13 -38 24 -60l149 -275l148 16l49 442
q14 2 31 6q17 3 29 8q4 18 8 44q3 25 3 41h-250q-4 -17 -5 -41q-2 -25 0 -43q13 -5 35 -9t42 -6l-33 -275h-12q-6 34 -21 75t-27 64zM909 519q-48 0 -87 -17q-39 -18 -66 -50q-20 -25 -31 -58q-10 -32 -10 -70q0 -71 40 -108q39 -38 112 -38q47 0 85 17t64 49q21 26 33 61
q11 35 11 77q-1 66 -41 102q-40 35 -110 35v0zM900 442q23 0 36 -19t13 -50q0 -27 -6 -51t-18 -40q-9 -12 -21 -18q-13 -7 -27 -7q-24 0 -37 20t-13 55q0 24 4 45q5 21 15 37q9 14 23 21t31 7v0zM998 54q5 20 7 44t0 41h-284q-7 -18 -12 -41q-5 -22 -7 -44h296z" />
    <glyph glyph-name="trademark" unicode="&#x2122;" horiz-adv-x="996" 
d="M289 649h57q0 -14 1 -30q0 -15 3 -28q16 -3 36 -4q19 -2 36 -2l15 124h-371l-16 -125q18 0 39 3q20 2 37 8q4 11 8 26t7 28h55l-21 -179q-12 -1 -22 -4q-11 -2 -21 -5q-7 -12 -13 -29t-8 -30h209q4 12 6 31q1 19 -1 29q-12 4 -26 6q-15 2 -27 3zM601 402q3 11 5 29t1 30
q-8 3 -18 5q-9 2 -18 3l18 180h9q0 -20 4 -43q3 -24 8 -47l33 -162h100l70 154q11 24 23 51q11 28 16 47h9l-22 -180q-7 -1 -16 -3l-16 -4q-5 -11 -9 -29q-5 -18 -7 -31h175q5 12 6 31q2 19 0 29q-10 4 -23 7q-14 2 -24 3l16 169q9 0 21 2q11 2 20 4q3 12 6 31t3 31h-168
l-79 -178q-7 -14 -12 -31q-5 -16 -9 -33h-9q-1 17 -4 36q-2 19 -5 34l-35 172h-181q-3 -13 -5 -31t-2 -30q11 -4 21 -5q11 -2 20 -3l-22 -170l-18 -4q-10 -2 -18 -4q-5 -12 -10 -30t-7 -30h153z" />
    <glyph glyph-name="Omega" unicode="&#x2126;" horiz-adv-x="821" 
d="M405 0h362l15 165q-26 0 -58 -3q-32 -4 -53 -9q-4 -12 -8 -28t-6 -31h-107v12q63 34 117 118t58 204q-2 133 -78 214q-77 81 -208 83q-151 -3 -251 -106q-99 -102 -103 -269q1 -97 37 -153q36 -57 88 -91v-12h-107q0 12 -2 29t-5 29q-21 5 -51 8q-31 2 -55 2l-15 -162
h358l8 85q-46 34 -75 98q-29 63 -30 155q0 112 47 201q47 90 144 95q77 -3 112 -64q34 -61 33 -148q-2 -118 -49 -209t-111 -128z" />
    <glyph glyph-name="estimated" unicode="&#x212e;" horiz-adv-x="879" 
d="M845 332v9q-4 154 -117 257q-114 102 -283 106q-171 -4 -285 -106q-113 -103 -117 -257q4 -153 117 -255q114 -102 285 -106q98 1 180 38q81 37 137 102h-59q-47 -55 -112 -86q-66 -32 -145 -33q-73 1 -137 29q-63 29 -109 78q-4 5 -7 11q-2 6 -2 12v197q0 4 5 4h649z
M698 359q0 -2 -1 -3q-1 -2 -3 -2h-498q-2 0 -4 2q-1 1 -1 3v191q0 8 2 15q3 7 8 11q46 49 109 77t136 28q72 0 134 -27q61 -27 107 -74q11 -9 11 -26v-195z" />
    <glyph glyph-name="uni2150" unicode="&#x2150;" horiz-adv-x="962" 
d="M272 691q-47 -3 -100 -11t-87 -16q-10 -18 -16 -38q-7 -21 -9 -37l87 7l-24 -222q-14 -2 -31 -5q-18 -4 -31 -8q-8 -14 -14 -32q-7 -19 -9 -36h271q1 8 1 21q1 12 1 18v11t-1 20q-14 3 -35 6t-34 4zM804 697q-24 11 -55 16q-31 6 -59 6l-546 -702q13 -20 39 -37t55 -24z
M949 391h-309l-18 -147q21 0 46 3t44 8q5 13 9 28q5 16 7 28h107v-9q-56 -68 -101 -145q-46 -76 -80 -154q17 -3 35 -4q19 -2 37 -2q12 0 27 1t27 4q32 79 71 154t91 156z" />
    <glyph glyph-name="uni2151" unicode="&#x2151;" horiz-adv-x="962" 
d="M272 691q-47 -3 -100 -11t-87 -16q-10 -18 -16 -38q-7 -21 -9 -37l87 7l-24 -222q-14 -2 -31 -5q-18 -4 -31 -8q-8 -14 -14 -32q-7 -19 -9 -36h271q1 8 1 21q1 12 1 18v11t-1 20q-14 3 -35 6t-34 4zM804 697q-24 11 -55 16q-31 6 -59 6l-546 -702q13 -20 39 -37t55 -24z
M801 170q-15 -59 -42 -76q-26 -16 -51 -14q-26 0 -53 6q-28 6 -47 14q-5 -18 -5 -39q0 -15 2 -31q2 -15 6 -28q15 -5 41 -7t43 -2q125 4 179 78q53 74 52 176q0 79 -33 115q-33 37 -104 36q-78 0 -123 -38t-46 -111q0 -50 24 -78t75 -29q28 0 45 8t28 20h9zM812 241
q-9 -7 -22 -13t-27 -6q-32 0 -32 36q0 23 10 44q11 21 35 22q17 0 28 -13q10 -13 10 -42q0 -6 -1 -13q0 -7 -1 -15v0z" />
    <glyph glyph-name="uni2152" unicode="&#x2152;" horiz-adv-x="1317" 
d="M272 691q-47 -3 -100 -11t-87 -16q-10 -18 -16 -38q-7 -21 -9 -37l87 7l-24 -222q-14 -2 -31 -5q-18 -4 -31 -8q-8 -14 -14 -32q-7 -19 -9 -36h271q1 8 1 21q1 12 1 18v11t-1 20q-14 3 -35 6t-34 4zM804 697q-24 11 -55 16q-31 6 -59 6l-546 -702q13 -20 39 -37t55 -24z
M849 398q-47 -3 -100 -11t-87 -16q-10 -18 -16 -38q-7 -21 -9 -37l87 7l-24 -222q-14 -2 -31 -5q-18 -4 -31 -8q-8 -14 -14 -32q-7 -19 -9 -36h271q1 8 1 21q1 12 1 18v11t-1 20q-14 3 -35 6t-34 4zM1137 398q-90 -2 -139 -67q-48 -66 -49 -170q1 -86 37 -127t101 -41
q88 2 139 66q50 64 51 172q-1 87 -38 127q-37 41 -102 40v0zM1125 317q19 0 26 -22q7 -21 7 -64q0 -60 -14 -106t-43 -49q-16 0 -25 22q-8 22 -8 63q0 56 13 104q14 49 44 52v0z" />
    <glyph glyph-name="onethird" unicode="&#x2153;" horiz-adv-x="962" 
d="M272 691q-47 -3 -100 -11t-87 -16q-10 -18 -16 -38q-7 -21 -9 -37l87 7l-24 -222q-14 -2 -31 -5q-18 -4 -31 -8q-8 -14 -14 -32q-7 -19 -9 -36h271q1 8 1 21q1 12 1 18v11t-1 20q-14 3 -35 6t-34 4zM804 697q-24 11 -55 16q-31 6 -59 6l-546 -702q13 -20 39 -37t55 -24z
M661 158q68 0 96 -9q27 -9 26 -33q-1 -22 -16 -31q-16 -9 -40 -9q-25 0 -59 7t-60 19q-1 -7 -2 -16q-1 -8 -1 -13q0 -19 3 -37t8 -30q20 -6 48 -9q27 -4 51 -4q75 0 130 32t58 99q-1 37 -19 55q-18 19 -48 24v9q36 10 58 35q21 25 22 59q-2 48 -42 70q-39 22 -96 22
q-25 0 -54 -4q-28 -5 -54 -16q-11 -19 -17 -44q-5 -24 -5 -42q25 11 56 17q31 7 56 7q14 0 26 -6q11 -7 12 -23q-4 -33 -47 -41q-42 -7 -74 -6q-7 -16 -11 -39q-5 -24 -5 -43v0z" />
    <glyph glyph-name="twothirds" unicode="&#x2154;" horiz-adv-x="962" 
d="M5 293h307q6 19 11 46q6 27 8 46q-54 -4 -106 -6q-51 -2 -98 -2v7q69 33 141 88t78 129q-1 48 -39 69q-39 21 -99 21q-50 0 -93 -12q-43 -11 -76 -27q0 -24 1 -52q1 -29 4 -52q19 0 46 4q26 3 46 10l3 44q8 3 23 6q15 2 26 2q40 0 40 -32q-6 -57 -79 -111t-135 -102z
M804 697q-24 11 -55 16q-31 6 -59 6l-546 -702q13 -20 39 -37t55 -24zM661 158q68 0 96 -9q27 -9 26 -33q-1 -22 -16 -31q-16 -9 -40 -9q-25 0 -59 7t-60 19q-1 -7 -2 -16q-1 -8 -1 -13q0 -19 3 -37t8 -30q20 -6 48 -9q27 -4 51 -4q75 0 130 32t58 99q-1 37 -19 55
q-18 19 -48 24v9q36 10 58 35q21 25 22 59q-2 48 -42 70q-39 22 -96 22q-25 0 -54 -4q-28 -5 -54 -16q-11 -19 -17 -44q-5 -24 -5 -42q25 11 56 17q31 7 56 7q14 0 26 -6q11 -7 12 -23q-4 -33 -47 -41q-42 -7 -74 -6q-7 -16 -11 -39q-5 -24 -5 -43v0z" />
    <glyph glyph-name="uni2155" unicode="&#x2155;" horiz-adv-x="962" 
d="M272 691q-47 -3 -100 -11t-87 -16q-10 -18 -16 -38q-7 -21 -9 -37l87 7l-24 -222q-14 -2 -31 -5q-18 -4 -31 -8q-8 -14 -14 -32q-7 -19 -9 -36h271q1 8 1 21q1 12 1 18v11t-1 20q-14 3 -35 6t-34 4zM804 697q-24 11 -55 16q-31 6 -59 6l-546 -702q13 -20 39 -37t55 -24z
M756 301h159q6 21 10 46t6 44h-265l-39 -226q22 4 46 5q23 2 41 2q35 1 54 -8q18 -9 18 -35q-1 -31 -23 -42t-47 -10q-25 0 -57 7q-32 6 -56 15q-2 -9 -3 -17q-1 -9 -1 -18q0 -16 3 -32q3 -15 8 -29q18 -5 47 -7q29 -3 54 -3q84 0 138 37t56 116q-1 58 -32 82q-31 25 -84 24
q-11 0 -21 -1q-11 0 -20 -2z" />
    <glyph glyph-name="uni2156" unicode="&#x2156;" horiz-adv-x="962" 
d="M5 293h307q6 19 11 46q6 27 8 46q-54 -4 -106 -6q-51 -2 -98 -2v7q69 33 141 88t78 129q-1 48 -39 69q-39 21 -99 21q-50 0 -93 -12q-43 -11 -76 -27q0 -24 1 -52q1 -29 4 -52q19 0 46 4q26 3 46 10l3 44q8 3 23 6q15 2 26 2q40 0 40 -32q-6 -57 -79 -111t-135 -102z
M804 697q-24 11 -55 16q-31 6 -59 6l-546 -702q13 -20 39 -37t55 -24zM756 301h159q6 21 10 46t6 44h-265l-39 -226q22 4 46 5q23 2 41 2q35 1 54 -8q18 -9 18 -35q-1 -31 -23 -42t-47 -10q-25 0 -57 7q-32 6 -56 15q-2 -9 -3 -17q-1 -9 -1 -18q0 -16 3 -32q3 -15 8 -29
q18 -5 47 -7q29 -3 54 -3q84 0 138 37t56 116q-1 58 -32 82q-31 25 -84 24q-11 0 -21 -1q-11 0 -20 -2z" />
    <glyph glyph-name="uni2157" unicode="&#x2157;" horiz-adv-x="962" 
d="M84 451q68 0 96 -9q27 -9 26 -33q-1 -22 -16 -31q-16 -9 -40 -9q-25 0 -59 7t-60 19q-1 -7 -2 -16q-1 -8 -1 -13q0 -19 3 -37t8 -30q20 -6 48 -9q27 -4 51 -4q75 0 130 32t58 99q-1 37 -19 55q-18 19 -48 24v9q36 10 58 35q21 25 22 59q-2 48 -42 70q-39 22 -96 22
q-25 0 -54 -4q-28 -5 -54 -16q-11 -19 -17 -44q-5 -24 -5 -42q25 11 56 17q31 7 56 7q14 0 26 -6q11 -7 12 -23q-4 -33 -47 -41q-42 -7 -74 -6q-7 -16 -11 -39q-5 -24 -5 -43v0zM804 697q-24 11 -55 16q-31 6 -59 6l-546 -702q13 -20 39 -37t55 -24zM756 301h159q6 21 10 46
t6 44h-265l-39 -226q22 4 46 5q23 2 41 2q35 1 54 -8q18 -9 18 -35q-1 -31 -23 -42t-47 -10q-25 0 -57 7q-32 6 -56 15q-2 -9 -3 -17q-1 -9 -1 -18q0 -16 3 -32q3 -15 8 -29q18 -5 47 -7q29 -3 54 -3q84 0 138 37t56 116q-1 58 -32 82q-31 25 -84 24q-11 0 -21 -1
q-11 0 -20 -2z" />
    <glyph glyph-name="uni2158" unicode="&#x2158;" horiz-adv-x="962" 
d="M293 382h48q3 12 5 29q2 18 2 34q0 12 -1 20h-47l24 219h-129l-183 -238l-8 -64h178l-9 -86q11 -3 26 -4t32 -1q16 0 31 1q14 1 23 4zM191 465h-35q-9 0 -19 -1q-11 0 -19 -2v7l84 118h7q-3 -11 -6 -28t-5 -33zM804 697q-24 11 -55 16q-31 6 -59 6l-546 -702
q13 -20 39 -37t55 -24zM756 301h159q6 21 10 46t6 44h-265l-39 -226q22 4 46 5q23 2 41 2q35 1 54 -8q18 -9 18 -35q-1 -31 -23 -42t-47 -10q-25 0 -57 7q-32 6 -56 15q-2 -9 -3 -17q-1 -9 -1 -18q0 -16 3 -32q3 -15 8 -29q18 -5 47 -7q29 -3 54 -3q84 0 138 37t56 116
q-1 58 -32 82q-31 25 -84 24q-11 0 -21 -1q-11 0 -20 -2z" />
    <glyph glyph-name="uni2159" unicode="&#x2159;" horiz-adv-x="962" 
d="M272 691q-47 -3 -100 -11t-87 -16q-10 -18 -16 -38q-7 -21 -9 -37l87 7l-24 -222q-14 -2 -31 -5q-18 -4 -31 -8q-8 -14 -14 -32q-7 -19 -9 -36h271q1 8 1 21q1 12 1 18v11t-1 20q-14 3 -35 6t-34 4zM804 697q-24 11 -55 16q-31 6 -59 6l-546 -702q13 -20 39 -37t55 -24z
M729 227q14 55 40 73t51 17q25 0 50 -5q26 -5 45 -13q2 8 3 19t1 22q0 14 -1 26q-2 12 -4 23q-17 5 -41 7q-23 2 -43 2q-115 -3 -170 -78q-56 -76 -56 -186q0 -141 140 -141q80 1 124 41q45 41 46 114q0 49 -26 77q-25 28 -77 29q-27 0 -45 -8q-17 -7 -28 -19h-9zM722 155
q8 7 20 13q11 6 25 6q29 0 29 -35q0 -25 -10 -47t-33 -23q-16 0 -25 12q-8 13 -8 41v15l2 18v0z" />
    <glyph glyph-name="uni215A" unicode="&#x215a;" horiz-adv-x="962" 
d="M179 594h159q6 21 10 46t6 44h-265l-39 -226q22 4 46 5q23 2 41 2q35 1 54 -8q18 -9 18 -35q-1 -31 -23 -42t-47 -10q-25 0 -57 7q-32 6 -56 15q-2 -9 -3 -17q-1 -9 -1 -18q0 -16 3 -32q3 -15 8 -29q18 -5 47 -7q29 -3 54 -3q84 0 138 37t56 116q-1 58 -32 82
q-31 25 -84 24q-11 0 -21 -1q-11 0 -20 -2zM804 697q-24 11 -55 16q-31 6 -59 6l-546 -702q13 -20 39 -37t55 -24zM729 227q14 55 40 73t51 17q25 0 50 -5q26 -5 45 -13q2 8 3 19t1 22q0 14 -1 26q-2 12 -4 23q-17 5 -41 7q-23 2 -43 2q-115 -3 -170 -78q-56 -76 -56 -186
q0 -141 140 -141q80 1 124 41q45 41 46 114q0 49 -26 77q-25 28 -77 29q-27 0 -45 -8q-17 -7 -28 -19h-9zM722 155q8 7 20 13q11 6 25 6q29 0 29 -35q0 -25 -10 -47t-33 -23q-16 0 -25 12q-8 13 -8 41v15l2 18v0z" />
    <glyph glyph-name="oneeighth" unicode="&#x215b;" horiz-adv-x="962" 
d="M272 691q-47 -3 -100 -11t-87 -16q-10 -18 -16 -38q-7 -21 -9 -37l87 7l-24 -222q-14 -2 -31 -5q-18 -4 -31 -8q-8 -14 -14 -32q-7 -19 -9 -36h271q1 8 1 21q1 12 1 18v11t-1 20q-14 3 -35 6t-34 4zM804 697q-24 11 -55 16q-31 6 -59 6l-546 -702q13 -20 39 -37t55 -24z
M675 196q-39 -10 -60 -39q-21 -28 -21 -66q2 -55 42 -77t99 -21q74 -1 126 29q53 30 55 100q-1 38 -17 59t-41 30v9q30 12 46 35q17 24 17 55q-2 49 -39 69q-38 20 -91 19q-63 1 -111 -26t-51 -89q1 -32 14 -51q13 -20 32 -27v-9zM743 162q27 -10 42 -21q16 -11 16 -32
q-1 -24 -16 -34q-15 -9 -33 -9t-30 9t-12 28q1 20 11 35q10 16 22 24v0zM785 255q-21 8 -34 16q-14 9 -14 24q1 18 15 25q13 7 26 7t22 -6q10 -7 10 -23q-1 -15 -8 -26q-8 -12 -17 -17v0z" />
    <glyph glyph-name="threeeighths" unicode="&#x215c;" horiz-adv-x="962" 
d="M84 451q68 0 96 -9q27 -9 26 -33q-1 -22 -16 -31q-16 -9 -40 -9q-25 0 -59 7t-60 19q-1 -7 -2 -16q-1 -8 -1 -13q0 -19 3 -37t8 -30q20 -6 48 -9q27 -4 51 -4q75 0 130 32t58 99q-1 37 -19 55q-18 19 -48 24v9q36 10 58 35q21 25 22 59q-2 48 -42 70q-39 22 -96 22
q-25 0 -54 -4q-28 -5 -54 -16q-11 -19 -17 -44q-5 -24 -5 -42q25 11 56 17q31 7 56 7q14 0 26 -6q11 -7 12 -23q-4 -33 -47 -41q-42 -7 -74 -6q-7 -16 -11 -39q-5 -24 -5 -43v0zM804 697q-24 11 -55 16q-31 6 -59 6l-546 -702q13 -20 39 -37t55 -24zM675 196
q-39 -10 -60 -39q-21 -28 -21 -66q2 -55 42 -77t99 -21q74 -1 126 29q53 30 55 100q-1 38 -17 59t-41 30v9q30 12 46 35q17 24 17 55q-2 49 -39 69q-38 20 -91 19q-63 1 -111 -26t-51 -89q1 -32 14 -51q13 -20 32 -27v-9zM743 162q27 -10 42 -21q16 -11 16 -32
q-1 -24 -16 -34q-15 -9 -33 -9t-30 9t-12 28q1 20 11 35q10 16 22 24v0zM785 255q-21 8 -34 16q-14 9 -14 24q1 18 15 25q13 7 26 7t22 -6q10 -7 10 -23q-1 -15 -8 -26q-8 -12 -17 -17v0z" />
    <glyph glyph-name="fiveeighths" unicode="&#x215d;" horiz-adv-x="962" 
d="M179 594h159q6 21 10 46t6 44h-265l-39 -226q22 4 46 5q23 2 41 2q35 1 54 -8q18 -9 18 -35q-1 -31 -23 -42t-47 -10q-25 0 -57 7q-32 6 -56 15q-2 -9 -3 -17q-1 -9 -1 -18q0 -16 3 -32q3 -15 8 -29q18 -5 47 -7q29 -3 54 -3q84 0 138 37t56 116q-1 58 -32 82
q-31 25 -84 24q-11 0 -21 -1q-11 0 -20 -2zM804 697q-24 11 -55 16q-31 6 -59 6l-546 -702q13 -20 39 -37t55 -24zM675 196q-39 -10 -60 -39q-21 -28 -21 -66q2 -55 42 -77t99 -21q74 -1 126 29q53 30 55 100q-1 38 -17 59t-41 30v9q30 12 46 35q17 24 17 55q-2 49 -39 69
q-38 20 -91 19q-63 1 -111 -26t-51 -89q1 -32 14 -51q13 -20 32 -27v-9zM743 162q27 -10 42 -21q16 -11 16 -32q-1 -24 -16 -34q-15 -9 -33 -9t-30 9t-12 28q1 20 11 35q10 16 22 24v0zM785 255q-21 8 -34 16q-14 9 -14 24q1 18 15 25q13 7 26 7t22 -6q10 -7 10 -23
q-1 -15 -8 -26q-8 -12 -17 -17v0z" />
    <glyph glyph-name="seveneighths" unicode="&#x215e;" horiz-adv-x="912" 
d="M372 684h-309l-18 -147q21 0 46 3t44 8q5 13 9 28q5 16 7 28h107v-9q-56 -68 -101 -145q-46 -76 -80 -154q17 -3 35 -4q19 -2 37 -2q12 0 27 1t27 4q32 79 71 154t91 156zM754 697q-24 11 -55 16q-31 6 -59 6l-546 -702q13 -20 39 -37t55 -24zM625 196q-39 -10 -60 -39
q-21 -28 -21 -66q2 -55 42 -77t99 -21q74 -1 126 29q53 30 55 100q-1 38 -17 59t-41 30v9q30 12 46 35q17 24 17 55q-2 49 -39 69q-38 20 -91 19q-63 1 -111 -26t-51 -89q1 -32 14 -51q13 -20 32 -27v-9zM693 162q27 -10 42 -21q16 -11 16 -32q-1 -24 -16 -34q-15 -9 -33 -9
t-30 9t-12 28q1 20 11 35q10 16 22 24v0zM735 255q-21 8 -34 16q-14 9 -14 24q1 18 15 25q13 7 26 7t22 -6q10 -7 10 -23q-1 -15 -8 -26q-8 -12 -17 -17v0z" />
    <glyph glyph-name="uni215F" unicode="&#x215f;" horiz-adv-x="577" 
d="M272 691q-47 -3 -100 -11t-87 -16q-10 -18 -16 -38q-7 -21 -9 -37l87 7l-24 -222q-14 -2 -31 -5q-18 -4 -31 -8q-8 -14 -14 -32q-7 -19 -9 -36h271q1 8 1 21q1 12 1 18v11t-1 20q-14 3 -35 6t-34 4zM804 697q-24 11 -55 16q-31 6 -59 6l-546 -702q13 -20 39 -37t55 -24z
" />
    <glyph glyph-name="uni2189" unicode="&#x2189;" horiz-adv-x="962" 
d="M205 691q-90 -2 -139 -67q-48 -66 -49 -170q1 -86 37 -127t101 -41q88 2 139 66q50 64 51 172q-1 87 -38 127q-37 41 -102 40v0zM193 610q19 0 26 -22q7 -21 7 -64q0 -60 -14 -106t-43 -49q-16 0 -25 22q-8 22 -8 63q0 56 13 104q14 49 44 52v0zM804 697q-24 11 -55 16
q-31 6 -59 6l-546 -702q13 -20 39 -37t55 -24zM661 158q68 0 96 -9q27 -9 26 -33q-1 -22 -16 -31q-16 -9 -40 -9q-25 0 -59 7t-60 19q-1 -7 -2 -16q-1 -8 -1 -13q0 -19 3 -37t8 -30q20 -6 48 -9q27 -4 51 -4q75 0 130 32t58 99q-1 37 -19 55q-18 19 -48 24v9q36 10 58 35
q21 25 22 59q-2 48 -42 70q-39 22 -96 22q-25 0 -54 -4q-28 -5 -54 -16q-11 -19 -17 -44q-5 -24 -5 -42q25 11 56 17q31 7 56 7q14 0 26 -6q11 -7 12 -23q-4 -33 -47 -41q-42 -7 -74 -6q-7 -16 -11 -39q-5 -24 -5 -43v0z" />
    <glyph glyph-name="partialdiff" unicode="&#x2202;" horiz-adv-x="579" 
d="M398 298q-7 -87 -36 -149q-30 -62 -87 -65q-39 1 -60 32t-21 83q0 58 26 102q26 43 76 45q27 0 54 -13t48 -35v0zM390 397q-14 26 -41 41q-26 16 -73 16q-105 -3 -164 -77q-59 -73 -60 -174q2 -102 63 -162q60 -60 159 -61q135 4 200 111t65 268q-4 211 -90 307
q-86 95 -202 94q-33 0 -69 -5q-37 -4 -65 -12q-12 -24 -17 -60q-6 -36 -1 -63q27 13 66 22q38 10 73 10q65 1 112 -58q46 -60 56 -197h-12z" />
    <glyph glyph-name="Delta" unicode="&#x2206;" horiz-adv-x="657" 
d="M310 718l-329 -654l-5 -64h637l6 75l-200 643h-109zM136 95l141 297q14 30 29 83q16 53 21 91h12q0 -36 8 -90q7 -55 16 -86l85 -295h-312z" />
    <glyph glyph-name="product" unicode="&#x220f;" horiz-adv-x="828" 
d="M707 606q16 1 38 4q21 3 35 7q4 18 4 46q1 29 -2 46h-728q-4 -17 -3 -46q1 -28 4 -46q13 -4 31 -7q19 -3 35 -5v-667q-15 -2 -36 -7q-21 -4 -33 -9q-7 -16 -13 -43q-5 -27 -7 -47h312q3 17 2 46q-1 28 -6 46q-15 5 -35 9q-20 3 -38 5v676h294v-676q-13 -2 -32 -7
q-19 -4 -31 -9q-6 -16 -11 -43t-7 -47h311q3 17 2 46q-1 28 -6 46q-16 5 -38 9q-23 3 -42 5v668z" />
    <glyph glyph-name="summation" unicode="&#x2211;" horiz-adv-x="660" 
d="M36 -168h598v216q-27 0 -62 -4q-34 -4 -57 -11q-5 -18 -8 -39q-3 -22 -5 -42h-319v11q27 16 59 47q31 30 53 59l165 219l-158 227q-17 24 -43 49t-49 38v12h278q2 -17 5 -37q3 -21 7 -35q24 -7 55 -11q32 -4 58 -4v182h-572v-85l261 -364l-266 -346v-82z" />
    <glyph glyph-name="minus" unicode="&#x2212;" 
d="M52 324q-7 -23 -12 -54q-5 -32 -5 -57h478q2 15 2 33q0 22 -2 44q-2 21 -5 34h-456z" />
    <glyph glyph-name="uni2219" unicode="&#x2219;" 
d="M290 448q-80 -1 -130 -50t-52 -128q0 -93 46 -139q46 -47 136 -47q75 1 123 50q47 48 49 136q-1 87 -47 133q-47 45 -125 45v0z" />
    <glyph glyph-name="radical" unicode="&#x221a;" horiz-adv-x="626" 
d="M36 418q-7 -24 -11 -57t-4 -61l68 16l137 -387l141 17l264 843q-24 10 -61 18q-38 8 -65 8l-172 -580q-10 -36 -18 -83t-11 -83h-12q-2 37 -9 85q-7 47 -17 79l-75 224z" />
    <glyph glyph-name="infinity" unicode="&#x221e;" horiz-adv-x="900" 
d="M440 182q42 -41 94 -69q51 -28 117 -29q89 2 144 59q54 56 56 136q-1 73 -48 125q-47 51 -130 53q-63 -1 -118 -29q-55 -29 -92 -69q-42 41 -94 69q-53 29 -121 30q-98 -3 -149 -59q-50 -56 -50 -134q1 -76 48 -127t135 -53q65 1 118 29q52 28 90 68v0zM371 257
q-24 -23 -55 -42q-31 -18 -62 -19q-34 1 -56 23q-21 21 -22 55q1 31 18 50q18 18 46 19q33 -1 66 -26q32 -24 65 -60v0zM531 286q24 24 57 42q33 17 62 18q31 0 53 -21q21 -21 22 -56q0 -30 -17 -49t-47 -20q-34 1 -66 26q-33 24 -64 60v0z" />
    <glyph glyph-name="integral" unicode="&#x222b;" horiz-adv-x="350" 
d="M346 806q-14 12 -36 19t-50 7q-89 -3 -132 -71t-43 -163q2 -122 14 -271q11 -150 13 -274q1 -60 -6 -92t-35 -32q-15 0 -31 6q-17 5 -31 16q-13 -26 -22 -58t-9 -52q26 -13 51 -19q24 -5 47 -5q96 3 136 70q39 68 38 166q-2 121 -13 272q-11 150 -13 269q-1 60 10 96
q12 36 46 37q19 0 42 -8q22 -8 39 -25q0 37 -5 67q-4 31 -10 45v0z" />
    <glyph glyph-name="approxequal" unicode="&#x2248;" 
d="M457 431q-16 -17 -40 -27q-24 -11 -46 -11q-49 3 -91 25q-41 22 -103 25q-46 -1 -81 -21t-56 -44q2 -22 10 -45q8 -24 19 -42q17 18 46 31q28 12 55 13q49 -3 91 -24q41 -22 103 -25q59 1 96 24q36 23 52 50q-7 18 -23 38t-32 33v0zM457 228q-16 -17 -40 -27
q-24 -11 -46 -11q-49 3 -91 25q-41 22 -103 25q-46 -1 -81 -21t-56 -44q2 -22 10 -45q8 -24 19 -42q17 18 46 31q28 12 55 13q49 -3 91 -24q41 -22 103 -25q59 1 96 24q36 23 52 50q-7 18 -23 38t-32 33v0z" />
    <glyph glyph-name="notequal" unicode="&#x2260;" 
d="M499 118q2 14 2 32q0 21 -2 41q-2 19 -5 31h-209l58 93h156q2 14 2 32q0 22 -2 42t-5 33l-90 -3l30 47q-17 8 -40 12q-24 5 -44 5l-40 -64h-250q-6 -21 -11 -51q-5 -29 -5 -53h205l-57 -93h-131q-6 -21 -11 -51q-5 -29 -5 -53h85l-27 -45q11 -11 32 -23t36 -16l52 84h276
z" />
    <glyph glyph-name="lessequal" unicode="&#x2264;" 
d="M475 547q-16 18 -45 41q-28 22 -53 36l-297 -205l-4 -69l320 -214q18 12 44 43t33 50l-231 148v12zM65 103q-6 -21 -10 -50q-5 -29 -5 -53h436q1 7 1 15q1 8 1 16q0 21 -2 41q-2 19 -5 31h-416z" />
    <glyph glyph-name="greaterequal" unicode="&#x2265;" 
d="M474 350l-5 70l-297 201q-23 -12 -52 -36q-30 -24 -47 -44l235 -153v-12l-231 -150q9 -22 32 -53t40 -44zM66 103q-6 -21 -10 -50q-5 -29 -5 -53h436q1 7 1 15q1 8 1 16q0 21 -2 41q-2 19 -5 31h-416z" />
    <glyph glyph-name="dotmath" unicode="&#x22c5;" 
d="M273 363q-42 -1 -69 -26q-26 -26 -27 -67q0 -49 24 -74q25 -25 72 -25q40 0 65 26t26 73q-1 45 -25 69q-25 24 -66 24v0z" />
    <glyph glyph-name="H18543" unicode="&#x25aa;" 
d="M11 0h479l52 483h-472z" />
    <glyph glyph-name="H18551" unicode="&#x25ab;" 
d="M1 0h505l51 483h-494zM176 366h238l-31 -249h-231z" />
    <glyph glyph-name="uni25B8" unicode="&#x25b8;" 
d="M38 -32q108 48 269 132q160 84 259 145q-83 60 -224 142q-141 81 -238 128q-24 -106 -43 -271q-20 -166 -23 -276v0z" />
    <glyph glyph-name="uni25B9" unicode="&#x25b9;" 
d="M41 -32q109 47 272 130q162 84 264 148q-86 61 -228 142q-143 81 -242 127q-25 -108 -44 -273q-20 -165 -22 -274v0zM183 155q0 40 7 91t16 90q35 -14 83 -41q47 -26 76 -47q-34 -23 -89 -50q-54 -27 -93 -43v0z" />
    <glyph glyph-name="uni25C2" unicode="&#x25c2;" 
d="M454 -32q22 107 42 273q20 165 24 274q-107 -47 -264 -128q-158 -82 -255 -141q84 -61 221 -145q138 -85 232 -133v0z" />
    <glyph glyph-name="uni25C3" unicode="&#x25c3;" 
d="M460 -32q23 106 43 272q20 165 22 275q-109 -46 -272 -125q-163 -80 -263 -141q86 -64 228 -149t242 -132v0zM365 154q-36 16 -85 45q-50 29 -80 52q35 21 92 47q56 26 94 40q0 -40 -6 -92q-6 -53 -15 -92v0z" />
    <glyph glyph-name="lozenge" unicode="&#x25ca;" horiz-adv-x="564" 
d="M16 339l200 -376l133 12l199 377l-198 377l-136 -14zM161 365l79 147q11 21 19 49q7 28 9 51h12q2 -23 10 -50q7 -28 18 -50l91 -187l-59 -120q-12 -25 -24 -63t-16 -68h-12q-3 30 -14 67t-26 64z" />
    <glyph glyph-name="circle" unicode="&#x25cb;" 
d="M317 500q-133 -3 -212 -87q-78 -83 -80 -211q1 -106 58 -162t158 -57q124 1 209 80q85 78 88 216q-1 109 -60 165t-161 56v0zM303 379q50 0 77 -28q28 -28 28 -84q-2 -74 -43 -118t-103 -45q-49 0 -77 31q-28 30 -29 87q1 68 39 112q39 43 108 45v0z" />
    <glyph glyph-name="H18533" unicode="&#x25cf;" 
d="M310 500q-133 -3 -212 -86q-78 -83 -80 -212q1 -106 58 -162t158 -57q125 2 209 81q85 79 88 216q-1 108 -59 164q-59 56 -162 56v0z" />
    <glyph glyph-name="uniFB00" unicode="&#xfb00;" horiz-adv-x="728" 
d="M584 483l7 58q7 57 27 83q19 26 43 26q8 0 15 -3l-6 -46q19 -12 50 -20q30 -9 57 -9q14 30 24 71q10 40 10 72q-38 13 -71 18q-33 6 -58 6q-82 0 -144 -48q-61 -49 -78 -153l-8 -55h-228l5 46q6 57 22 83t37 26q5 0 9 -1q5 0 9 -2l-6 -46q19 -12 50 -20q30 -9 57 -9
q14 30 24 71q10 40 10 72q-38 13 -70 18q-33 6 -57 6q-80 1 -139 -46q-59 -48 -77 -155l-5 -32q-16 -3 -33 -8q-16 -6 -30 -12q-9 -15 -17 -40q-9 -26 -12 -50h81l-47 -380q12 -3 27 -5q16 -2 33 -2q22 0 43 2q22 2 37 5l38 380h229l-65 -526q12 -4 29 -5q16 -2 33 -2
q22 0 44 2t38 5l52 526h138q4 21 5 50t-1 49h-131z" />
    <glyph glyph-name="uniFB01" unicode="&#xfb01;" horiz-adv-x="664" 
d="M449 385l-50 -310q1 -20 16 -48q15 -29 30 -44q34 0 79 9q45 8 73 19q10 17 18 44q9 27 9 46l-70 -7q-1 2 -2 7q-2 6 -2 10l44 374q-14 4 -31 6q-17 3 -30 3q-35 0 -69 -7t-57 -21q-10 -12 -17 -42q-8 -29 -8 -45zM82 384l-65 -526q12 -4 29 -5q16 -2 33 -2q22 0 44 2
t38 5l52 526h122q4 21 5 50t-1 49h-115l4 36q9 65 55 96t104 31q21 0 42 -3q20 -4 37 -10l-6 -54q21 -12 57 -20q35 -9 65 -9q15 32 25 76q10 45 10 78q-52 19 -109 27q-58 8 -106 8q-121 0 -203 -54t-102 -166l-4 -25q-16 -3 -33 -8q-16 -6 -30 -12q-9 -15 -17 -40
q-9 -26 -12 -50h81z" />
    <glyph glyph-name="uniFB02" unicode="&#xfb02;" horiz-adv-x="653" 
d="M224 483l4 34q10 69 55 99q46 31 103 30q19 0 40 -3t41 -9l-76 -559q1 -20 16 -48q15 -29 30 -44q34 0 79 9q45 8 73 19q10 17 18 44q9 27 9 46l-70 -7q-1 2 -2 7q-2 6 -2 10l67 591q-50 20 -111 29q-60 8 -104 8q-115 1 -195 -53q-81 -53 -102 -169l-4 -23
q-16 -3 -33 -8q-16 -6 -30 -12q-9 -15 -17 -40q-9 -26 -12 -50h81l-65 -526q12 -4 29 -5q16 -2 33 -2q22 0 44 2t38 5l52 526h138q4 21 5 50t-1 49h-131z" />
    <glyph glyph-name="uniFB03" unicode="&#xfb03;" horiz-adv-x="1024" 
d="M229 529q6 57 22 83t37 26q5 0 9 -1q5 0 9 -2l-6 -46q19 -12 50 -20q30 -9 57 -9q14 30 24 71q10 40 10 72q-38 13 -70 18q-33 6 -57 6q-80 1 -139 -46q-59 -48 -77 -155l-5 -32q-16 -3 -33 -8q-16 -6 -30 -12q-9 -15 -17 -40q-9 -26 -12 -50h81l-47 -380q12 -3 27 -5
q16 -2 33 -2q22 0 43 2q22 2 37 5l38 380h229l-65 -526q12 -4 29 -5q16 -2 33 -2q22 0 44 2t38 5l52 526h122q4 21 5 50t-1 49h-115l4 36q9 65 55 96t104 31q21 0 42 -3q20 -4 37 -10l-6 -54q21 -12 57 -20q35 -9 65 -9q15 32 25 76q10 45 10 78q-52 19 -109 27
q-58 8 -106 8q-121 0 -203 -54q-83 -54 -102 -166l-6 -36h-227zM809 385l-50 -310q1 -20 16 -48q15 -29 30 -44q34 0 79 9q45 8 73 19q10 17 18 44q9 27 9 46l-70 -7q-1 2 -2 7q-2 6 -2 10l44 374q-14 4 -31 6q-17 3 -30 3q-35 0 -69 -7t-57 -21q-10 -12 -17 -42
q-8 -29 -8 -45z" />
    <glyph glyph-name="uniFB04" unicode="&#xfb04;" horiz-adv-x="1013" 
d="M584 483l4 34q10 69 55 99q46 31 103 30q19 0 40 -3t41 -9l-76 -559q1 -20 16 -48q15 -29 30 -44q34 0 79 9q45 8 73 19q10 17 18 44q9 27 9 46l-70 -7q-1 2 -2 7q-2 6 -2 10l67 591q-50 20 -111 29q-60 8 -104 8q-115 1 -195 -53q-79 -54 -102 -169l-6 -34h-227l5 46
q6 57 22 83t37 26q5 0 9 -1q5 0 9 -2l-6 -46q19 -12 50 -20q30 -9 57 -9q14 30 24 71q10 40 10 72q-38 13 -70 18q-33 6 -57 6q-80 1 -139 -46q-59 -48 -77 -155l-5 -32q-16 -3 -33 -8q-16 -6 -30 -12q-9 -15 -17 -40q-9 -26 -12 -50h81l-47 -380q12 -3 27 -5q16 -2 33 -2
q22 0 43 2q22 2 37 5l38 380h229l-65 -526q12 -4 29 -5q16 -2 33 -2q22 0 44 2t38 5l52 526h138q4 21 5 50t-1 49h-131z" />
    <glyph glyph-name="uniFB06" unicode="&#xfb06;" horiz-adv-x="817" 
d="M525 494q-15 -3 -30 -8q-15 -6 -27 -12q-9 -15 -17 -40q-9 -26 -12 -50h74q-13 -73 -24 -153t-12 -121q0 -60 31 -93q32 -33 102 -34q28 0 60 8q33 7 66 23q15 20 24 50t9 53q-25 -8 -48 -13t-45 -5q-34 0 -44 17t-6 51l22 217h144q3 15 5 33q1 17 1 35v16q-1 7 -2 15
h-135l16 166q-47 31 -95 45q-49 13 -96 13q-97 -1 -153 -46q-57 -46 -58 -129q0 -8 1 -17q0 -9 1 -16q-13 1 -25 1q-92 -1 -144 -43q-53 -41 -54 -108q12 -111 95 -145q82 -35 94 -80q-1 -24 -17 -38q-17 -14 -37 -14q-23 0 -39 19t-19 55q-39 0 -78 -14q-39 -15 -57 -39
q4 -57 49 -84q44 -26 121 -26q86 -1 151 39q65 39 68 128q-12 99 -97 137q-86 37 -98 82q1 21 15 33q13 12 32 12q9 0 18 -3t13 -5l-4 -42q18 -12 49 -20t60 -8q12 32 20 70q7 39 7 81q-1 55 17 85q18 31 64 31q19 0 35 -5t32 -16z" />
    <glyph glyph-name="glyph327" horiz-adv-x="385" 
d="M205 691q-90 -2 -139 -67q-48 -66 -49 -170q1 -86 37 -127t101 -41q88 2 139 66q50 64 51 172q-1 87 -38 127q-37 41 -102 40v0zM193 610q19 0 26 -22q7 -21 7 -64q0 -60 -14 -106t-43 -49q-16 0 -25 22q-8 22 -8 63q0 56 13 104q14 49 44 52v0z" />
    <glyph glyph-name="glyph328" horiz-adv-x="385" 
d="M272 691q-47 -3 -100 -11t-87 -16q-10 -18 -16 -38q-7 -21 -9 -37l87 7l-24 -222q-14 -2 -31 -5q-18 -4 -31 -8q-8 -14 -14 -32q-7 -19 -9 -36h271q1 8 1 21q1 12 1 18v11t-1 20q-14 3 -35 6t-34 4z" />
    <glyph glyph-name="glyph329" horiz-adv-x="385" 
d="M5 293h307q6 19 11 46q6 27 8 46q-54 -4 -106 -6q-51 -2 -98 -2v7q69 33 141 88t78 129q-1 48 -39 69q-39 21 -99 21q-50 0 -93 -12q-43 -11 -76 -27q0 -24 1 -52q1 -29 4 -52q19 0 46 4q26 3 46 10l3 44q8 3 23 6q15 2 26 2q40 0 40 -32q-6 -57 -79 -111t-135 -102z" />
    <glyph glyph-name="glyph330" horiz-adv-x="385" 
d="M84 451q68 0 96 -9q27 -9 26 -33q-1 -22 -16 -31q-16 -9 -40 -9q-25 0 -59 7t-60 19q-1 -7 -2 -16q-1 -8 -1 -13q0 -19 3 -37t8 -30q20 -6 48 -9q27 -4 51 -4q75 0 130 32t58 99q-1 37 -19 55q-18 19 -48 24v9q36 10 58 35q21 25 22 59q-2 48 -42 70q-39 22 -96 22
q-25 0 -54 -4q-28 -5 -54 -16q-11 -19 -17 -44q-5 -24 -5 -42q25 11 56 17q31 7 56 7q14 0 26 -6q11 -7 12 -23q-4 -33 -47 -41q-42 -7 -74 -6q-7 -16 -11 -39q-5 -24 -5 -43v0z" />
    <glyph glyph-name="glyph331" horiz-adv-x="385" 
d="M293 382h48q3 12 5 29q2 18 2 34q0 12 -1 20h-47l24 219h-129l-183 -238l-8 -64h178l-9 -86q11 -3 26 -4t32 -1q16 0 31 1q14 1 23 4zM191 465h-35q-9 0 -19 -1q-11 0 -19 -2v7l84 118h7q-3 -11 -6 -28t-5 -33z" />
    <glyph glyph-name="glyph332" horiz-adv-x="385" 
d="M179 594h159q6 21 10 46t6 44h-265l-39 -226q22 4 46 5q23 2 41 2q35 1 54 -8q18 -9 18 -35q-1 -31 -23 -42t-47 -10q-25 0 -57 7q-32 6 -56 15q-2 -9 -3 -17q-1 -9 -1 -18q0 -16 3 -32q3 -15 8 -29q18 -5 47 -7q29 -3 54 -3q84 0 138 37t56 116q-1 58 -32 82
q-31 25 -84 24q-11 0 -21 -1q-11 0 -20 -2z" />
    <glyph glyph-name="glyph333" horiz-adv-x="385" 
d="M152 520q14 55 40 73t51 17q25 0 50 -5q26 -5 45 -13q2 8 3 19t1 22q0 14 -1 26q-2 12 -4 23q-17 5 -41 7q-23 2 -43 2q-115 -3 -170 -78q-56 -76 -56 -186q0 -141 140 -141q80 1 124 41q45 41 46 114q0 49 -26 77q-25 28 -77 29q-27 0 -45 -8q-17 -7 -28 -19h-9z
M145 448q8 7 20 13q11 6 25 6q29 0 29 -35q0 -25 -10 -47t-33 -23q-16 0 -25 12q-8 13 -8 41v15l2 18v0z" />
    <glyph glyph-name="glyph334" horiz-adv-x="385" 
d="M372 684h-309l-18 -147q21 0 46 3t44 8q5 13 9 28q5 16 7 28h107v-9q-56 -68 -101 -145q-46 -76 -80 -154q17 -3 35 -4q19 -2 37 -2q12 0 27 1t27 4q32 79 71 154t91 156z" />
    <glyph glyph-name="glyph335" horiz-adv-x="385" 
d="M98 489q-39 -10 -60 -39q-21 -28 -21 -66q2 -55 42 -77t99 -21q74 -1 126 29q53 30 55 100q-1 38 -17 59t-41 30v9q30 12 46 35q17 24 17 55q-2 49 -39 69q-38 20 -91 19q-63 1 -111 -26t-51 -89q1 -32 14 -51q13 -20 32 -27v-9zM166 455q27 -10 42 -21q16 -11 16 -32
q-1 -24 -16 -34q-15 -9 -33 -9t-30 9t-12 28q1 20 11 35q10 16 22 24v0zM208 548q-21 8 -34 16q-14 9 -14 24q1 18 15 25q13 7 26 7t22 -6q10 -7 10 -23q-1 -15 -8 -26q-8 -12 -17 -17v0z" />
    <glyph glyph-name="glyph336" horiz-adv-x="385" 
d="M224 463q-15 -59 -42 -76q-26 -16 -51 -14q-26 0 -53 6q-28 6 -47 14q-5 -18 -5 -39q0 -15 2 -31q2 -15 6 -28q15 -5 41 -7t43 -2q125 4 179 78q53 74 52 176q0 79 -33 115q-33 37 -104 36q-78 0 -123 -38t-46 -111q0 -50 24 -78t75 -29q28 0 45 8t28 20h9zM235 534
q-9 -7 -22 -13t-27 -6q-32 0 -32 36q0 23 10 44q11 21 35 22q17 0 28 -13q10 -13 10 -42q0 -6 -1 -13q0 -7 -1 -15v0z" />
    <glyph glyph-name="glyph337" horiz-adv-x="385" 
d="M205 398q-90 -2 -139 -67q-48 -66 -49 -170q1 -86 37 -127t101 -41q88 2 139 66q50 64 51 172q-1 87 -38 127q-37 41 -102 40v0zM193 317q19 0 26 -22q7 -21 7 -64q0 -60 -14 -106t-43 -49q-16 0 -25 22q-8 22 -8 63q0 56 13 104q14 49 44 52v0z" />
    <glyph glyph-name="glyph338" horiz-adv-x="385" 
d="M272 398q-47 -3 -100 -11t-87 -16q-10 -18 -16 -38q-7 -21 -9 -37l87 7l-24 -222q-14 -2 -31 -5q-18 -4 -31 -8q-8 -14 -14 -32q-7 -19 -9 -36h271q1 8 1 21q1 12 1 18v11t-1 20q-14 3 -35 6t-34 4z" />
    <glyph glyph-name="glyph339" horiz-adv-x="385" 
d="M5 0h307q6 19 11 46q6 27 8 46q-54 -4 -106 -6q-51 -2 -98 -2v7q69 33 141 88t78 129q-1 48 -39 69q-39 21 -99 21q-50 0 -93 -12q-43 -11 -76 -27q0 -24 1 -52q1 -29 4 -52q19 0 46 4q26 3 46 10l3 44q8 3 23 6q15 2 26 2q40 0 40 -32q-6 -57 -79 -111t-135 -102z" />
    <glyph glyph-name="glyph340" horiz-adv-x="385" 
d="M84 158q68 0 96 -9q27 -9 26 -33q-1 -22 -16 -31q-16 -9 -40 -9q-25 0 -59 7t-60 19q-1 -7 -2 -16q-1 -8 -1 -13q0 -19 3 -37t8 -30q20 -6 48 -9q27 -4 51 -4q75 0 130 32t58 99q-1 37 -19 55q-18 19 -48 24v9q36 10 58 35q21 25 22 59q-2 48 -42 70q-39 22 -96 22
q-25 0 -54 -4q-28 -5 -54 -16q-11 -19 -17 -44q-5 -24 -5 -42q25 11 56 17q31 7 56 7q14 0 26 -6q11 -7 12 -23q-4 -33 -47 -41q-42 -7 -74 -6q-7 -16 -11 -39q-5 -24 -5 -43v0z" />
    <glyph glyph-name="glyph341" horiz-adv-x="385" 
d="M293 89h48q3 12 5 29q2 18 2 34q0 12 -1 20h-47l24 219h-129l-183 -238l-8 -64h178l-9 -86q11 -3 26 -4t32 -1q16 0 31 1q14 1 23 4zM191 172h-35q-9 0 -19 -1q-11 0 -19 -2v7l84 118h7q-3 -11 -6 -28t-5 -33z" />
    <glyph glyph-name="glyph342" horiz-adv-x="385" 
d="M179 301h159q6 21 10 46t6 44h-265l-39 -226q22 4 46 5q23 2 41 2q35 1 54 -8q18 -9 18 -35q-1 -31 -23 -42t-47 -10q-25 0 -57 7q-32 6 -56 15q-2 -9 -3 -17q-1 -9 -1 -18q0 -16 3 -32q3 -15 8 -29q18 -5 47 -7q29 -3 54 -3q84 0 138 37t56 116q-1 58 -32 82
q-31 25 -84 24q-11 0 -21 -1q-11 0 -20 -2z" />
    <glyph glyph-name="glyph343" horiz-adv-x="385" 
d="M152 227q14 55 40 73t51 17q25 0 50 -5q26 -5 45 -13q2 8 3 19t1 22q0 14 -1 26q-2 12 -4 23q-17 5 -41 7q-23 2 -43 2q-115 -3 -170 -78q-56 -76 -56 -186q0 -141 140 -141q80 1 124 41q45 41 46 114q0 49 -26 77q-25 28 -77 29q-27 0 -45 -8q-17 -7 -28 -19h-9z
M145 155q8 7 20 13q11 6 25 6q29 0 29 -35q0 -25 -10 -47t-33 -23q-16 0 -25 12q-8 13 -8 41v15l2 18v0z" />
    <glyph glyph-name="glyph344" horiz-adv-x="385" 
d="M372 391h-309l-18 -147q21 0 46 3t44 8q5 13 9 28q5 16 7 28h107v-9q-56 -68 -101 -145q-46 -76 -80 -154q17 -3 35 -4q19 -2 37 -2q12 0 27 1t27 4q32 79 71 154t91 156z" />
    <glyph glyph-name="glyph345" horiz-adv-x="385" 
d="M98 196q-39 -10 -60 -39q-21 -28 -21 -66q2 -55 42 -77t99 -21q74 -1 126 29q53 30 55 100q-1 38 -17 59t-41 30v9q30 12 46 35q17 24 17 55q-2 49 -39 69q-38 20 -91 19q-63 1 -111 -26t-51 -89q1 -32 14 -51q13 -20 32 -27v-9zM166 162q27 -10 42 -21q16 -11 16 -32
q-1 -24 -16 -34q-15 -9 -33 -9t-30 9t-12 28q1 20 11 35q10 16 22 24v0zM208 255q-21 8 -34 16q-14 9 -14 24q1 18 15 25q13 7 26 7t22 -6q10 -7 10 -23q-1 -15 -8 -26q-8 -12 -17 -17v0z" />
    <glyph glyph-name="glyph346" horiz-adv-x="385" 
d="M224 170q-15 -59 -42 -76q-26 -16 -51 -14q-26 0 -53 6q-28 6 -47 14q-5 -18 -5 -39q0 -15 2 -31q2 -15 6 -28q15 -5 41 -7t43 -2q125 4 179 78q53 74 52 176q0 79 -33 115q-33 37 -104 36q-78 0 -123 -38t-46 -111q0 -50 24 -78t75 -29q28 0 45 8t28 20h9zM235 241
q-9 -7 -22 -13t-27 -6q-32 0 -32 36q0 23 10 44q11 21 35 22q17 0 28 -13q10 -13 10 -42q0 -6 -1 -13q0 -7 -1 -15v0z" />
    <glyph glyph-name="glyph347" horiz-adv-x="39" 
 />
    <glyph glyph-name="glyph348" 
d="M367 417q23 57 47 140t31 143q-25 7 -58 11q-34 5 -65 5q-6 -64 -17 -142q-12 -79 -24 -146q19 -5 42 -8q22 -3 44 -3v0zM154 417q23 57 47 140t31 143q-25 7 -58 11q-34 5 -65 5q-6 -64 -17 -142q-12 -79 -24 -146q19 -5 42 -8q22 -3 44 -3v0z" />
    <glyph glyph-name="glyph349" 
d="M512 192q6 17 11 43t5 43h-81l31 141h80q6 17 11 43t5 43h-75l44 188q-29 0 -61 -3q-33 -4 -56 -9l-45 -176h-105l44 188q-29 0 -61 -3q-33 -4 -56 -9l-45 -176h-78q-8 -17 -16 -41q-9 -24 -12 -45h85l-37 -141h-70q-8 -17 -16 -41q-9 -24 -12 -45h76l-50 -189
q10 -3 28 -4q18 -2 37 -2t36 2q18 1 29 4l44 189h99l-48 -189q10 -3 27 -4q17 -2 36 -2t36 2q18 1 29 4l44 189h87zM247 419h121l-36 -141h-118z" />
    <glyph glyph-name="glyph350" 
d="M367 513q22 -11 55 -18q32 -7 57 -7q13 39 24 90t14 89q-60 21 -135 31l10 101q-33 0 -69 -4t-59 -10l-9 -92q-83 -19 -128 -71q-45 -53 -46 -134q17 -149 139 -189q121 -40 138 -125q0 -49 -26 -74q-26 -26 -79 -26q-20 0 -39 3t-41 12l9 108q-24 8 -60 13t-61 5
q-12 -42 -21 -98q-10 -56 -14 -100q35 -13 74 -22q40 -8 80 -12l-10 -111q12 -3 30 -4q17 -1 35 -1t35 1q16 1 26 4l10 117q91 17 147 73t58 158q-17 138 -140 182q-122 44 -140 127q0 37 19 58q20 22 61 22q16 0 32 -3q16 -2 32 -9z" />
    <glyph glyph-name="glyph351" horiz-adv-x="900" 
d="M758 689q-21 11 -51 18q-30 6 -60 7l-489 -702q14 -17 42 -34t54 -23zM254 704q-92 -1 -144 -59q-52 -57 -53 -152q0 -80 40 -120q39 -41 113 -41q90 1 143 56q54 55 55 151q-1 82 -41 123q-40 42 -113 42v0zM241 617q22 0 33 -21q10 -20 10 -58q0 -49 -16 -83
q-15 -34 -44 -35q-22 0 -32 21t-10 60q0 46 14 80t45 36v0zM689 352q-92 -1 -144 -59q-52 -57 -53 -152q0 -80 40 -120q39 -41 113 -41q90 1 143 56q54 55 55 151q-1 82 -41 123q-40 42 -113 42v0zM676 265q22 0 33 -21q10 -20 10 -58q0 -49 -16 -83q-15 -34 -44 -35
q-22 0 -32 21t-10 60q0 46 14 80t45 36v0z" />
    <glyph glyph-name="glyph352" horiz-adv-x="350" 
d="M147 417q23 57 47 140t31 143q-25 7 -58 11q-34 5 -65 5q-6 -64 -17 -142q-12 -79 -24 -146q19 -5 42 -8q22 -3 44 -3v0z" />
    <glyph glyph-name="glyph353" horiz-adv-x="350" 
d="M59 13q-12 -42 -31 -90q-19 -47 -40 -93q9 -10 32 -21t42 -17q40 57 86 148t71 173q-22 7 -50 11q-29 4 -53 4q-13 0 -28 -2q-15 -1 -26 -5q-16 -16 -31 -43q-16 -28 -25 -53z" />
    <glyph glyph-name="glyph354" horiz-adv-x="350" 
d="M123 175q-41 -1 -66 -26q-26 -25 -27 -65q0 -48 24 -72q23 -24 69 -24q39 0 64 26q24 25 25 70q-1 44 -25 68q-24 23 -64 23v0z" />
    <glyph glyph-name="glyph355" 
d="M325 704q-146 -4 -219 -123q-73 -118 -73 -306q0 -152 51 -224t155 -71q142 3 218 118q75 115 76 307q0 155 -52 228q-52 72 -156 71v0zM304 605q41 0 57 -49q17 -49 16 -144q0 -126 -28 -226q-28 -99 -87 -105q-39 0 -55 48t-16 143q-1 118 24 222t89 111v0z" />
    <glyph glyph-name="glyph356" 
d="M206 107q-22 -2 -51 -7t-52 -10q-8 -17 -18 -43q-9 -26 -12 -47h398q2 13 3 29t1 31v18q-1 8 -2 15q-24 5 -55 10q-31 4 -56 5l48 591q-63 -4 -147 -20q-83 -15 -126 -29q-11 -20 -19 -46q-8 -27 -11 -52l143 18z" />
    <glyph glyph-name="glyph357" 
d="M20 0h464l20 213q-25 0 -57 -4t-55 -9q-8 -17 -14 -40t-9 -43h-179v12q106 72 213 182q107 109 115 233q-2 82 -62 121t-152 39q-62 -1 -122 -15t-103 -34q0 -43 3 -93q4 -51 11 -93q27 0 59 7q31 7 55 18l8 89q17 9 38 14q22 5 38 5q32 0 49 -20t17 -59
q-11 -113 -126 -222q-115 -110 -201 -194z" />
    <glyph glyph-name="glyph358" 
d="M234 592q12 5 30 9q17 4 31 4q26 0 46 -18q20 -19 21 -62q-2 -67 -60 -95q-58 -27 -150 -26q-9 -19 -15 -49q-6 -29 -6 -52q106 1 158 -23t52 -86q-2 -55 -39 -81q-36 -25 -84 -25q-45 1 -100 16q-55 16 -89 34q-1 -5 -1 -12q-1 -6 -1 -12q0 -31 8 -62t20 -51
q30 -9 67 -15q38 -6 79 -6q115 0 205 55t95 168q-2 76 -42 110q-39 35 -93 41v9q60 10 105 57t47 124q-2 85 -60 123q-57 38 -139 37q-48 0 -108 -11t-111 -30q0 -42 3 -87t8 -85q28 0 61 6q32 6 54 17z" />
    <glyph glyph-name="glyph359" 
d="M22 181h272l-10 -87q-17 -2 -38 -6t-35 -9q-10 -16 -18 -37q-8 -22 -12 -42h325q2 9 4 22q1 14 1 28q0 17 -3 28q-16 5 -39 8q-22 3 -42 5l8 90h73q4 15 5 33q2 18 2 36q0 11 -1 19q0 9 -1 15h-69l36 409h-160l-289 -421zM306 284h-63q-20 0 -39 -2q-20 -2 -39 -6v12
l168 274h12q-9 -28 -15 -61t-9 -62z" />
    <glyph glyph-name="glyph360" 
d="M259 559h252q9 28 16 64q6 35 8 61h-379l-63 -372q29 7 67 11q38 5 64 5q49 1 79 -22q30 -24 31 -86q-1 -66 -35 -101q-33 -35 -86 -35q-38 0 -85 14q-48 13 -86 34q-1 -10 -2 -15v-8q0 -30 8 -61q8 -32 20 -52q29 -8 66 -12t72 -4q116 0 199 61q82 62 86 191
q-2 102 -55 149t-137 46q-15 0 -31 -2q-16 -1 -28 -5z" />
    <glyph glyph-name="glyph361" 
d="M225 396q27 121 77 162q51 42 95 39q31 0 68 -10q37 -11 66 -29q1 11 1 23q0 29 -6 59q-5 30 -16 49q-25 8 -54 11q-30 4 -57 4q-148 -3 -245 -125q-97 -123 -101 -331q0 -136 51 -202q52 -66 160 -66q118 1 186 70t69 190q0 94 -43 149q-43 54 -131 55q-39 0 -64 -13
q-26 -14 -44 -35h-12zM213 298q20 21 41 33q21 13 46 13q34 0 50 -26q17 -27 17 -81q0 -66 -23 -112q-22 -45 -65 -47q-36 0 -53 39q-17 38 -17 115q0 15 1 31t3 35v0z" />
    <glyph glyph-name="glyph362" 
d="M564 684h-477l-18 -222q28 0 62 4q33 5 57 13q6 19 13 47t9 48h218v-12q-98 -127 -175 -269q-78 -143 -134 -288q19 -4 42 -6q24 -2 46 -2q18 0 37 2q19 1 34 5q54 150 123 291q69 140 156 291z" />
    <glyph glyph-name="glyph363" 
d="M183 347q-58 -14 -102 -67q-45 -53 -47 -133q4 -91 70 -130q67 -38 145 -37q108 0 185 59q77 58 80 174q-2 64 -32 103q-31 39 -72 57v9q46 16 84 60q38 45 40 108q-3 81 -62 118t-137 36q-88 1 -162 -49t-79 -159q1 -55 26 -90q25 -34 63 -50v-9zM252 309q47 -22 82 -49
q34 -28 36 -71q-2 -58 -34 -86q-32 -27 -71 -27q-34 0 -56 21t-23 69q0 46 18 83t48 60v0zM334 421q-42 21 -72 44q-29 23 -30 58q3 53 33 73q31 19 56 18q24 1 44 -16q20 -18 21 -62q0 -35 -15 -64q-14 -29 -37 -51v0z" />
    <glyph glyph-name="glyph364" 
d="M363 308q-17 -101 -57 -158q-39 -57 -105 -58q-34 1 -83 16q-49 16 -85 38q-2 -11 -2 -23q0 -30 8 -63q8 -32 17 -53q33 -13 72 -20t80 -7q148 3 232 127t85 335q0 131 -53 196q-53 66 -159 66q-114 -1 -182 -71q-68 -69 -70 -190q0 -86 44 -141q44 -54 128 -56
q46 1 73 18t45 44h12zM371 398q-17 -20 -40 -35q-23 -14 -49 -15q-34 0 -50 27q-17 26 -17 74q0 66 22 112t65 48q31 2 51 -30q20 -31 21 -118q0 -16 -1 -32t-2 -31v0z" />
    <glyph glyph-name="glyph365" horiz-adv-x="350" 
d="M162 507q-40 -1 -64 -24q-25 -24 -26 -64q0 -47 23 -71q23 -23 67 -23q39 0 63 25q24 24 25 69q-1 43 -24 65q-24 23 -64 23v0zM130 191q-41 -1 -66 -26q-26 -25 -27 -65q0 -48 24 -72q23 -24 69 -24q39 0 64 26q24 25 25 70q-1 44 -25 68q-24 23 -64 23v0z" />
    <glyph glyph-name="glyph366" horiz-adv-x="350" 
d="M157 507q-40 -1 -64 -24q-25 -24 -26 -64q0 -47 23 -71q23 -23 67 -23q39 0 63 25q24 24 25 69q-1 43 -24 65q-24 23 -64 23v0zM59 13q-12 -42 -31 -90q-19 -47 -40 -93q9 -10 32 -21t42 -17q40 57 86 148t71 173q-22 7 -50 11q-29 4 -53 4q-13 0 -28 -2q-15 -1 -26 -5
q-16 -16 -31 -43q-16 -28 -25 -53z" />
    <glyph glyph-name="glyph367" 
d="M377 451q20 -14 52 -22t57 -8q16 34 25 73q9 38 9 74q-23 14 -49 24t-55 15l10 106q-33 0 -69 -4t-59 -10l-8 -95q-43 -11 -78 -31q-34 -21 -60 -50q-40 -47 -60 -108q-19 -61 -19 -128q0 -79 38 -127q39 -49 119 -62l-9 -95q12 -3 30 -4q17 -1 35 -1t35 1q16 1 26 4
l9 103q27 8 50 19q23 12 41 25q13 20 23 49q10 28 10 51q-35 -16 -81 -28t-89 -13q-44 0 -66 25q-22 24 -22 75q-1 39 8 85q8 46 33 81q14 20 37 31q22 12 50 12q9 0 18 -1q9 -2 16 -4z" />
    <glyph glyph-name="glyph368" 
d="M432 290q7 22 9 49t0 47h-166q-2 21 -3 40q-2 20 -2 37q-1 61 17 100q19 38 73 39q14 0 27 -2q12 -2 20 -6l-7 -69q19 -9 51 -15q32 -7 61 -7q13 46 21 88q8 43 11 84q-44 15 -90 22t-86 7q-119 -1 -179 -64q-59 -63 -59 -179q0 -9 3 -28q2 -20 5 -47h-70q-7 -20 -13 -46
q-6 -25 -8 -50h93q-2 -47 -14 -95q-12 -47 -40 -89q-15 -2 -35 -7q-20 -4 -32 -9q-9 -16 -17 -43t-11 -47h522l18 192q-27 0 -61 -4t-57 -11q-7 -18 -12 -39q-6 -22 -8 -42h-203v9q45 45 65 92q19 47 22 93h155z" />
    <glyph glyph-name="glyph369" 
d="M125 483q-30 -33 -44 -78q-15 -46 -15 -93q0 -31 6 -56t19 -45l-78 -80q9 -18 27 -33t40 -22l70 78q43 -23 106 -23q31 0 58 6q27 5 52 17l49 -75q26 6 47 20q22 14 34 32l-58 77q30 32 48 80q18 47 18 98q0 31 -7 56t-21 46l75 76q-10 16 -30 32t-42 24l-66 -76
q-22 11 -46 16q-25 6 -55 6q-32 0 -59 -6q-27 -7 -54 -20l-50 82q-24 -9 -46 -27q-23 -18 -36 -35zM269 229q-35 1 -55 28q-19 27 -19 73q0 55 28 96q27 40 75 42q36 -1 56 -26q20 -26 20 -71q-1 -59 -30 -99q-29 -41 -75 -43v0z" />
    <glyph glyph-name="glyph370" 
d="M66 262q-7 -19 -12 -43q-6 -24 -8 -47h154l-6 -73q-18 -2 -42 -7q-24 -4 -40 -9q-9 -15 -18 -40q-10 -24 -13 -43h358q4 16 5 42q0 25 -3 44q-19 5 -45 9q-25 3 -49 5l4 72h147q5 21 7 46q2 26 0 44h-148l1 4l39 69h118q5 21 7 46q2 26 0 44h-73l90 158q11 1 23 3t23 5
q7 18 13 45t8 48h-236q0 -18 4 -47q3 -29 6 -46q9 -4 22 -7t25 -5q-11 -10 -21 -21q-10 -12 -16 -24l-38 -78q-9 -20 -18 -48q-9 -29 -15 -55h-12q-1 27 -6 56q-6 29 -12 47l-28 73q-5 14 -13 29q-9 14 -17 22q13 1 30 3t29 5q7 21 14 48q7 28 10 48h-267q-1 -8 -1 -13v-8
q0 -20 2 -38t6 -32q10 -4 23 -7t25 -5l51 -156h-70q-7 -19 -12 -43q-6 -24 -8 -47h120l24 -73h-141z" />
    <glyph glyph-name="glyph371" 
d="M80 295q15 -135 119 -181t119 -128q0 -49 -27 -78q-27 -28 -74 -29q-38 -1 -58 24q-20 24 -24 80q-39 -1 -79 -16q-41 -15 -59 -37q5 -67 55 -98q50 -32 135 -32q110 -1 178 52t70 167q0 21 -3 39q-4 18 -10 34q32 36 52 80q20 45 21 95q-14 139 -111 185
q-98 46 -112 119q0 37 19 60q19 22 54 23q14 0 27 -2q12 -2 24 -7l-6 -61q18 -11 48 -17q30 -7 58 -7q10 33 17 69q7 35 10 63q-40 18 -84 28q-45 11 -88 11q-90 -1 -143 -53q-54 -52 -55 -142q0 -25 5 -46q-36 -38 -57 -86t-21 -109v0zM191 335q0 20 4 40q5 20 13 39
q56 -47 114 -81q57 -34 62 -93q0 -18 -5 -38q-6 -19 -15 -39q-58 44 -113 78q-56 33 -60 94v0z" />
    <glyph glyph-name="glyph372" horiz-adv-x="350" 
d="M179 701q-78 -1 -124 -46q-47 -46 -48 -124q0 -59 35 -90q34 -31 102 -31q80 1 126 45q45 45 46 127q-1 58 -37 88q-37 31 -100 31v0zM169 618q20 0 30 -13q11 -14 11 -35q0 -33 -15 -55q-15 -21 -40 -22q-20 0 -31 15t-11 40q0 30 15 50q15 19 41 20v0z" />
    <glyph glyph-name="glyph373" 
d="M480 284q6 21 8 46q2 26 0 44h-132l22 137q7 50 15 76q9 25 31 25q8 0 15 -2q6 -3 11 -5l-9 -45q15 -11 43 -20q27 -9 52 -11q14 31 28 73q13 42 20 76q-26 13 -60 19q-35 7 -66 7q-79 1 -136 -48q-57 -48 -78 -156l-23 -126h-113q-7 -19 -13 -43q-5 -24 -7 -47h116
l-52 -306q-9 -51 -18 -69t-23 -17q-6 0 -13 1q-6 2 -11 4l8 61q-19 8 -48 16q-29 9 -51 12q-15 -35 -28 -81q-13 -45 -17 -79q28 -12 63 -19q34 -7 69 -7q80 -1 138 45q58 47 77 159l43 280h139z" />
    <glyph glyph-name="glyph374" 
 />
    <glyph glyph-name="glyph375" horiz-adv-x="350" 
 />
    <glyph glyph-name="glyph376" horiz-adv-x="1300" 
d="M757 689q-21 11 -51 18q-30 6 -60 7l-489 -702q14 -17 42 -34t54 -23zM253 704q-92 -1 -144 -59q-52 -57 -53 -152q0 -80 40 -120q39 -41 113 -41q90 1 143 56q54 55 55 151q-1 82 -41 123q-40 42 -113 42v0zM240 617q22 0 33 -21q10 -20 10 -58q0 -49 -16 -83
q-15 -34 -44 -35q-22 0 -32 21t-10 60q0 46 14 80t45 36v0zM688 352q-92 -1 -144 -59q-52 -57 -53 -152q0 -80 40 -120q39 -41 113 -41q90 1 143 56q54 55 55 151q-1 82 -41 123q-40 42 -113 42v0zM675 265q22 0 33 -21q10 -20 10 -58q0 -49 -16 -83q-15 -34 -44 -35
q-22 0 -32 21t-10 60q0 46 14 80t45 36v0zM1097 352q-92 -1 -144 -59q-52 -57 -53 -152q0 -80 40 -120q39 -41 113 -41q90 1 143 56q54 55 55 151q-1 82 -41 123q-40 42 -113 42v0zM1084 265q22 0 33 -21q10 -20 10 -58q0 -49 -16 -83q-15 -34 -44 -35q-22 0 -32 21t-10 60
q0 46 14 80t45 36v0z" />
    <glyph glyph-name="glyph377" 
d="M58 450q-7 -19 -12 -43q-6 -24 -8 -47h402q5 21 7 46q2 26 0 44h-186q12 56 44 104q31 48 92 51q14 0 25 -2q10 -3 17 -5l-6 -65q22 -12 56 -20q34 -9 64 -9q10 34 19 80q8 46 12 86q-41 17 -82 26q-42 9 -84 9q-129 -3 -208 -75q-79 -73 -106 -180h-46zM426 209
q5 21 7 46q2 26 0 44h-389q-7 -19 -12 -43q-6 -24 -8 -47h64q6 -73 63 -148t175 -81q46 0 88 9t82 31q15 22 24 50q10 28 10 52q-30 -13 -68 -19t-87 -6q-49 1 -82 31t-39 81h172z" />
    <glyph glyph-name="glyph378" horiz-adv-x="634" 
d="M570 192q6 17 11 43t5 43h-101l31 141h100q6 17 11 43t5 43h-95l44 188q-29 0 -61 -3q-33 -4 -56 -9l-45 -176h-125l44 188q-29 0 -61 -3q-33 -4 -56 -9l-45 -176h-98q-8 -17 -16 -41q-9 -24 -12 -45h105l-37 -141h-90q-8 -17 -16 -41q-9 -24 -12 -45h96l-50 -189
q10 -3 28 -4q18 -2 37 -2t36 2q18 1 29 4l44 189h119l-48 -189q10 -3 27 -4q17 -2 36 -2t36 2q18 1 29 4l44 189h107zM268 419h135l-36 -141h-132z" />
    <glyph glyph-name="glyph379" horiz-adv-x="577" 
d="M389 513q22 -11 55 -18q32 -7 57 -7q13 39 24 90t14 89q-35 12 -73 21q-39 8 -78 11l10 100q-33 0 -69 -4t-59 -10l-8 -91q-86 -17 -133 -70q-46 -54 -47 -136q18 -149 142 -189t142 -125q-1 -49 -31 -74q-31 -26 -84 -26q-26 0 -50 6q-25 6 -47 15l9 102q-24 8 -60 13
t-61 5q-12 -42 -21 -98q-10 -56 -14 -100q41 -16 88 -25q46 -9 92 -11l-11 -109q12 -3 30 -4q17 -1 35 -1t35 1q16 1 26 4l11 117q90 16 147 72q57 55 59 159q-18 138 -143 182q-126 44 -144 127q0 37 26 58q26 22 75 22q16 0 32 -3q15 -4 32 -13z" />
    <glyph glyph-name="glyph380" horiz-adv-x="921" 
d="M782 689q-21 11 -51 18q-30 6 -60 7l-531 -702q14 -17 42 -34t54 -23zM237 704q-92 -1 -144 -59q-52 -57 -53 -152q0 -80 40 -120q39 -41 113 -41q90 1 143 56q54 55 55 151q-1 82 -41 123q-40 42 -113 42v0zM224 617q22 0 33 -21q10 -20 10 -58q0 -49 -16 -83
q-15 -34 -44 -35q-22 0 -32 21t-10 60q0 46 14 80t45 36v0zM712 352q-92 -1 -144 -59q-52 -57 -53 -152q0 -80 40 -120q39 -41 113 -41q90 1 143 56q54 55 55 151q-1 82 -41 123q-40 42 -113 42v0zM699 265q22 0 33 -21q10 -20 10 -58q0 -49 -16 -83q-15 -34 -44 -35
q-22 0 -32 21t-10 60q0 46 14 80t45 36v0z" />
    <glyph glyph-name="glyph381" horiz-adv-x="619" 
d="M344 704q-156 -4 -236 -124q-80 -119 -80 -305q0 -150 56 -223q57 -72 167 -72q153 3 235 119q83 116 84 306q0 154 -58 227t-168 72v0zM324 605q46 0 68 -50t22 -143q0 -124 -36 -225q-35 -100 -105 -106q-44 0 -66 49q-21 49 -21 142q-1 117 32 221q32 105 106 112v0z
" />
    <glyph glyph-name="glyph382" horiz-adv-x="472" 
d="M140 105q-20 -2 -46 -6t-46 -9q-8 -17 -18 -43q-9 -26 -12 -47h376q2 13 3 29t1 31v14q-1 9 -2 19q-22 5 -50 9q-27 3 -50 4l48 593q-63 -4 -147 -20q-83 -15 -126 -29q-11 -20 -19 -46q-8 -27 -11 -52l143 18z" />
    <glyph glyph-name="glyph383" horiz-adv-x="573" 
d="M-7 0h478l20 213q-25 0 -57 -4t-55 -9q-8 -17 -14 -40t-9 -43h-193v12q111 72 222 182q111 109 120 233q-2 82 -64 121t-157 39q-64 -1 -126 -15t-106 -34q0 -43 3 -93q4 -51 11 -93q27 0 59 7q31 7 55 18l8 89q18 9 42 14t42 5q35 0 54 -20q18 -20 18 -59
q-12 -113 -131 -222q-120 -110 -210 -194z" />
    <glyph glyph-name="glyph384" horiz-adv-x="558" 
d="M203 592q14 5 33 9q20 4 34 4q28 0 51 -18q22 -19 23 -62q-2 -67 -64 -95q-62 -27 -159 -26q-9 -19 -15 -49q-6 -29 -6 -52q113 1 168 -23t55 -86q-2 -55 -40 -81q-39 -25 -88 -25q-46 1 -104 16q-57 16 -93 34q-1 -5 -1 -12q-1 -6 -1 -12q0 -31 8 -62t20 -51
q30 -9 69 -15t81 -6q119 0 212 55q92 55 97 168q-2 76 -43 110q-41 35 -97 41v9q62 10 108 57q47 47 49 124q-3 85 -62 123t-143 37q-50 0 -112 -11t-114 -30q0 -42 3 -87t8 -85q28 0 61 6q32 6 54 17z" />
    <glyph glyph-name="glyph385" horiz-adv-x="595" 
d="M-4 181h293l-10 -87q-18 -2 -41 -6t-39 -9q-10 -16 -18 -37q-8 -22 -12 -42h340q2 9 4 22q1 14 1 28q0 17 -3 28q-17 5 -41 8q-23 3 -45 5l8 90h86q4 15 5 33q2 18 2 36q0 11 -1 19q0 9 -1 15h-82l36 409h-163l-310 -421zM300 284h-72q-46 0 -90 -8v12l189 274h12
q-9 -28 -15 -61t-9 -62z" />
    <glyph glyph-name="glyph386" horiz-adv-x="546" 
d="M222 559h268q9 28 16 64q6 35 8 61h-395l-63 -372q31 7 72 11q41 5 68 5q52 1 84 -22q32 -24 33 -86q-1 -66 -37 -101q-35 -35 -91 -35q-40 1 -90 15q-49 15 -90 37q-2 -11 -2 -23q0 -30 8 -61q8 -32 20 -52q30 -10 68 -15t75 -5q121 0 207 61q85 62 89 191
q-2 102 -58 149t-146 46q-17 0 -33 -2q-17 -1 -30 -5z" />
    <glyph glyph-name="glyph387" horiz-adv-x="581" 
d="M197 396q29 121 85 162q56 42 106 39q34 0 75 -12t73 -33q1 11 1 23q0 29 -6 59q-5 30 -16 49q-26 11 -58 16t-61 5q-159 -3 -263 -125q-104 -123 -108 -331q0 -136 55 -202t171 -66q126 1 199 70t74 190q0 94 -48 149q-49 54 -146 55q-46 0 -74 -13t-47 -35h-12z
M185 298q25 21 50 33q26 13 56 13q81 1 81 -107q0 -66 -27 -112q-28 -45 -79 -47q-43 0 -64 39q-21 38 -21 115q0 15 1 31t3 35v0z" />
    <glyph glyph-name="glyph388" horiz-adv-x="543" 
d="M540 684h-498l-18 -222q28 0 62 4q33 5 57 13q6 19 13 47t9 48h239v-12q-101 -127 -181 -269q-80 -143 -139 -288q19 -4 42 -6q24 -2 46 -2q18 0 37 2q19 1 34 5q57 150 129 291q71 140 161 291z" />
    <glyph glyph-name="glyph389" horiz-adv-x="585" 
d="M167 347q-59 -14 -104 -67q-46 -53 -48 -133q4 -91 74 -130q69 -38 151 -37q113 0 193 59q80 58 84 174q-2 64 -33 103t-74 57v9q47 16 86 60q39 45 41 108q-3 81 -65 118t-144 36q-93 1 -170 -49q-78 -50 -83 -159q1 -55 27 -90q26 -34 65 -50v-9zM241 309
q53 -22 92 -49q38 -28 40 -71q-2 -58 -38 -86q-36 -27 -79 -27q-38 0 -63 21t-26 69q1 46 21 83t53 60v0zM329 421q-48 21 -81 44q-34 23 -35 58q3 53 38 73q35 19 64 18q28 1 50 -16q23 -18 24 -62q0 -35 -17 -64q-16 -29 -43 -51v0z" />
    <glyph glyph-name="glyph390" horiz-adv-x="580" 
d="M374 308q-18 -101 -62 -158t-116 -58q-38 1 -91 18q-54 16 -93 41q-2 -11 -2 -23q0 -30 8 -63q8 -32 17 -53q35 -16 77 -24t85 -8q159 3 248 127q90 124 91 335q0 131 -57 196q-57 66 -170 66q-121 -1 -194 -71q-73 -69 -75 -190q0 -86 49 -141q49 -54 142 -56
q51 1 81 18t50 44h12zM381 398q-20 -20 -48 -35q-28 -14 -59 -15q-40 0 -60 27q-20 26 -20 74q0 66 27 112q26 46 78 48q37 2 61 -30q24 -31 25 -118q0 -33 -4 -63v0z" />
    <glyph glyph-name="glyph391" horiz-adv-x="534" 
d="M357 451q20 -14 52 -22t57 -8q16 34 25 73q9 38 9 74q-23 14 -49 24t-55 15l10 106q-33 0 -69 -4t-59 -10l-8 -95q-43 -11 -78 -31q-34 -21 -60 -50q-40 -47 -60 -108q-19 -61 -19 -128q0 -79 38 -127q39 -49 119 -62l-9 -95q12 -3 30 -4q17 -1 35 -1t35 1q16 1 26 4
l9 103q27 8 50 19q23 12 41 25q13 20 23 49q10 28 10 51q-35 -16 -81 -28t-89 -13q-44 0 -66 25q-22 24 -22 75q-1 39 8 85q8 46 33 81q14 20 37 31q22 12 50 12q9 0 18 -1q9 -2 16 -4z" />
    <glyph glyph-name="glyph392" horiz-adv-x="609" 
d="M95 106q-15 -2 -36 -7q-21 -4 -33 -9q-9 -16 -17 -43t-11 -47h539l18 192q-27 0 -61 -4t-57 -11q-7 -18 -12 -39q-6 -22 -8 -42h-218v9q35 35 59 83t25 102h173q7 22 9 49t0 47h-180q-3 17 -4 39q-2 22 -2 38q-1 61 22 100q23 38 83 39q14 0 27 -2q12 -2 20 -6l-7 -69
q19 -9 51 -15q32 -7 61 -7q13 46 21 88q8 43 11 84q-44 15 -90 22t-86 7q-127 -1 -190 -64t-63 -179q0 -16 2 -37t5 -38h-72q-7 -20 -13 -46q-6 -25 -8 -50h94q0 -46 -12 -91q-13 -45 -40 -93v0z" />
    <glyph glyph-name="glyph393" horiz-adv-x="577" 
d="M129 483q-30 -33 -44 -78q-15 -46 -15 -93q0 -31 6 -56t19 -45l-78 -80q9 -18 27 -33t40 -22l70 78q43 -23 106 -23q31 0 58 6q27 5 52 17l49 -75q26 6 47 20q22 14 34 32l-58 77q30 32 48 80q18 47 18 98q0 31 -7 56t-21 46l75 76q-10 16 -30 32t-42 24l-66 -76
q-22 11 -46 16q-25 6 -55 6q-32 0 -59 -6q-27 -7 -54 -20l-50 82q-24 -9 -46 -27q-23 -18 -36 -35zM273 229q-35 1 -55 28q-19 27 -19 73q0 55 28 96q27 40 75 42q36 -1 56 -26q20 -26 20 -71q-1 -59 -30 -99q-29 -41 -75 -43v0z" />
    <glyph glyph-name="glyph394" horiz-adv-x="603" 
d="M515 172q5 21 7 46q2 26 0 44h-161l1 10l40 63h130q5 21 7 46q2 26 0 44h-79l102 160q11 1 23 3t23 5q7 18 12 44q6 26 8 47h-234q0 -18 3 -46t6 -45q9 -4 22 -7t25 -5q-11 -10 -22 -22q-10 -12 -17 -23l-48 -81q-11 -19 -22 -47q-11 -29 -17 -55h-12q-1 27 -8 56t-14 47
l-28 73q-5 14 -13 29q-9 14 -17 22q13 1 30 3t29 5q8 21 15 48t9 48h-272q-1 -9 -1 -13v-7q0 -19 2 -38t5 -34q9 -4 20 -7t21 -5l62 -155h-77q-7 -19 -12 -43q-6 -24 -8 -47h133l23 -57l-2 -16h-151q-7 -19 -12 -43q-6 -24 -8 -47h163l-6 -73q-18 -2 -42 -7q-24 -4 -40 -9
q-9 -15 -18 -40q-10 -24 -13 -43h361q5 16 6 42t-3 43q-19 5 -45 8q-27 3 -51 5l5 74h160z" />
    <glyph glyph-name="glyph395" horiz-adv-x="530" 
d="M58 295q15 -135 119 -181t119 -128q0 -49 -27 -78q-27 -28 -74 -29q-38 -1 -58 24q-20 24 -24 80q-39 -1 -79 -16q-41 -15 -59 -37q5 -67 55 -98q50 -32 135 -32q110 -1 178 52t70 167q0 21 -3 39q-4 18 -10 34q32 36 52 80q20 45 21 95q-14 139 -111 185
q-98 46 -112 119q0 37 19 60q19 22 54 23q14 0 27 -2q12 -2 24 -7l-6 -61q18 -11 48 -17q30 -7 58 -7q10 33 17 69q7 35 10 63q-40 18 -84 28q-45 11 -88 11q-90 -1 -143 -53q-54 -52 -55 -142q0 -25 5 -46q-36 -38 -57 -86t-21 -109v0zM169 335q0 20 4 40q5 20 13 39
q56 -47 114 -81q57 -34 62 -93q0 -18 -5 -38q-6 -19 -15 -39q-58 44 -113 78q-56 33 -60 94v0z" />
    <glyph glyph-name="glyph396" horiz-adv-x="350" 
d="M179 701q-78 -1 -124 -46q-47 -46 -48 -124q0 -59 35 -90q34 -31 102 -31q80 1 126 45q45 45 46 127q-1 58 -37 88q-37 31 -100 31v0zM169 618q20 0 30 -13q11 -14 11 -35q0 -33 -15 -55q-15 -21 -40 -22q-20 0 -31 15t-11 40q0 30 15 50q15 19 41 20v0z" />
    <glyph glyph-name="glyph397" horiz-adv-x="535" 
d="M464 284q6 21 8 46q2 26 0 44h-142l22 137q8 49 23 75t37 26q7 0 14 -2q7 -1 13 -5l-11 -45q16 -11 44 -20t51 -11q15 31 29 73t21 76q-25 13 -60 19q-35 7 -65 7q-78 1 -142 -48t-87 -156l-24 -126h-123q-7 -19 -13 -43q-5 -24 -7 -47h126l-50 -291q-7 -44 -22 -72
t-40 -29q-8 0 -14 2t-10 4l11 59q-17 8 -48 17q-30 9 -53 12q-14 -35 -27 -81q-14 -45 -18 -79q27 -12 61 -19t68 -7q81 -1 149 45q68 47 88 159l42 280h149z" />
    <glyph glyph-name="glyph398" horiz-adv-x="1340" 
d="M782 689q-21 11 -51 18q-30 6 -60 7l-531 -702q14 -17 42 -34t54 -23zM237 704q-92 -1 -144 -59q-52 -57 -53 -152q0 -80 40 -120q39 -41 113 -41q90 1 143 56q54 55 55 151q-1 82 -41 123q-40 42 -113 42v0zM224 617q22 0 33 -21q10 -20 10 -58q0 -49 -16 -83
q-15 -34 -44 -35q-22 0 -32 21t-10 60q0 46 14 80t45 36v0zM712 352q-92 -1 -144 -59q-52 -57 -53 -152q0 -80 40 -120q39 -41 113 -41q90 1 143 56q54 55 55 151q-1 82 -41 123q-40 42 -113 42v0zM699 265q22 0 33 -21q10 -20 10 -58q0 -49 -16 -83q-15 -34 -44 -35
q-22 0 -32 21t-10 60q0 46 14 80t45 36v0zM1131 352q-92 -1 -144 -59q-52 -57 -53 -152q0 -80 40 -120q39 -41 113 -41q90 1 143 56q54 55 55 151q-1 82 -41 123q-40 42 -113 42v0zM1118 265q22 0 33 -21q10 -20 10 -58q0 -49 -16 -83q-15 -34 -44 -35q-22 0 -32 21t-10 60
q0 46 14 80t45 36v0z" />
    <glyph glyph-name="glyph399" horiz-adv-x="633" 
d="M461 366q5 21 7 46q2 26 0 44h-222q25 71 75 110q49 39 115 39q15 0 29 -2t26 -5l-6 -70q22 -12 56 -20q34 -9 64 -9q10 34 19 80q8 46 12 86q-37 17 -86 28q-48 11 -100 11q-124 -1 -221 -66t-143 -182h-52q-7 -19 -12 -43q-6 -24 -8 -47h447zM20 293q-7 -19 -12 -43
q-6 -24 -8 -47h69q23 -104 95 -163q71 -59 181 -60q56 1 110 15q53 14 96 35q13 21 23 50t10 51q-47 -16 -98 -25t-89 -9q-57 0 -96 25q-40 26 -60 81h206q5 21 7 46q2 26 0 44h-434z" />
    <glyph glyph-name="glyph400" 
d="M367 360q23 57 47 140t31 143q-25 7 -58 11q-34 5 -65 5q-6 -64 -17 -142q-12 -79 -24 -146q19 -5 42 -8q22 -3 44 -3v0zM154 360q23 57 47 140t31 143q-25 7 -58 11q-34 5 -65 5q-6 -64 -17 -142q-12 -79 -24 -146q19 -5 42 -8q22 -3 44 -3v0z" />
    <glyph glyph-name="glyph401" 
d="M490 134q6 17 11 43t5 43h-54l30 119h61q6 17 11 43t5 43h-55l29 124q-28 0 -60 -3q-32 -4 -56 -9l-30 -112h-124l29 124q-29 0 -60 -3q-32 -4 -55 -9l-31 -112h-62q-8 -17 -16 -41q-9 -24 -12 -45h67l-34 -119h-57q-9 -17 -17 -41q-8 -25 -11 -45h61l-37 -131
q10 -3 27 -4q17 -2 36 -2t36 2q18 1 29 4l32 131h117l-37 -131q10 -3 27 -4q18 -2 36 -2q19 0 37 2q17 1 29 4l31 131h62zM238 341h127l-34 -124h-124z" />
    <glyph glyph-name="glyph402" 
d="M347 417q23 -14 58 -22t70 -8q11 26 19 62q7 36 7 66q-26 14 -57 24q-30 10 -63 15l11 87q-33 0 -69 -4t-59 -10l-9 -74q-78 -14 -122 -61t-45 -120q15 -116 122 -142q107 -27 122 -91q0 -32 -20 -49q-19 -17 -57 -17q-18 0 -36 4q-19 4 -34 11l7 62q-28 10 -64 15
q-37 5 -70 5q-9 -22 -16 -52t-7 -63v-13t1 -13q31 -19 67 -30q37 -12 76 -16l-10 -81q12 -3 30 -4q17 -1 35 -1q19 0 37 1t28 4l10 85q79 16 127 65t49 133q-15 122 -121 149t-121 85q0 24 16 39q16 14 48 14q12 0 24 -2q11 -2 21 -6z" />
    <glyph glyph-name="glyph403" horiz-adv-x="900" 
d="M229 562q-93 -1 -148 -53q-54 -52 -55 -140q0 -70 39 -106q39 -35 113 -35q92 1 147 50q56 49 57 138q0 73 -40 109q-40 37 -113 37v0zM214 476q25 0 35 -17q11 -18 11 -48q0 -41 -17 -69t-49 -29q-23 0 -36 17q-12 17 -12 49q0 40 17 68t51 29v0zM703 546q-24 11 -55 18
t-57 8l-396 -562q13 -16 41 -34q29 -19 53 -25zM707 314q-93 -1 -148 -53q-54 -52 -55 -140q0 -70 39 -106q39 -35 113 -35q92 1 147 50q56 49 57 138q0 73 -40 109q-40 37 -113 37v0zM692 228q25 0 35 -17q11 -18 11 -48q0 -41 -17 -69t-49 -29q-23 0 -36 17q-12 17 -12 49
q0 40 17 68t51 29v0z" />
    <glyph glyph-name="glyph404" horiz-adv-x="350" 
d="M147 360q23 57 47 140t31 143q-25 7 -58 11q-34 5 -65 5q-6 -64 -17 -142q-12 -79 -24 -146q19 -5 42 -8q22 -3 44 -3v0z" />
    <glyph glyph-name="glyph405" horiz-adv-x="350" 
d="M59 13q-12 -42 -31 -90q-19 -47 -40 -93q9 -10 32 -21t42 -17q40 57 86 148t71 173q-22 7 -50 11q-29 4 -53 4q-13 0 -28 -2q-15 -1 -26 -5q-16 -16 -31 -43q-16 -28 -25 -53z" />
    <glyph glyph-name="glyph406" horiz-adv-x="350" 
d="M123 175q-41 -1 -66 -26q-26 -25 -27 -65q0 -48 24 -72q23 -24 69 -24q39 0 64 26q24 25 25 70q-1 44 -25 68q-24 23 -64 23v0z" />
    <glyph glyph-name="glyph407" 
d="M308 559q-131 -2 -207 -91q-76 -90 -78 -242q0 -123 54 -184q53 -62 157 -62q131 2 207 91q76 88 78 240q-1 124 -55 186t-156 62v0zM286 463q40 -1 59 -42q19 -42 19 -115q0 -95 -28 -161q-29 -65 -80 -68q-39 1 -58 42t-19 116q0 92 27 158q27 67 80 70v0z" />
    <glyph glyph-name="glyph408" 
d="M208 111q-21 -3 -50 -11q-28 -7 -47 -15q-11 -17 -20 -41q-10 -24 -15 -44h383q2 10 4 26q1 16 1 32q0 9 -1 17q0 8 -1 13q-19 7 -50 14q-31 6 -56 9l46 448q-88 -5 -158 -20q-69 -15 -104 -28q-11 -19 -19 -45t-13 -55l136 19z" />
    <glyph glyph-name="glyph409" 
d="M212 355l11 86q11 8 28 13t35 5q26 0 40 -15t14 -44q-11 -85 -118 -167t-179 -137l6 -96h414q8 25 14 64t7 67q-59 -8 -124 -13q-66 -5 -125 -7v12q80 48 170 128q89 80 97 181q-2 70 -54 99q-53 29 -134 28q-64 -1 -118 -15t-99 -36q-7 -26 -11 -55q-3 -30 -3 -60
q0 -17 1 -34q1 -16 3 -31q31 1 65 8q34 6 60 19v0z" />
    <glyph glyph-name="glyph410" 
d="M208 448q11 5 28 8q17 4 31 4q25 0 43 -15q18 -16 19 -50q-3 -62 -59 -90q-55 -29 -122 -31q-8 -21 -13 -48q-6 -27 -6 -48q92 0 134 -23q43 -23 42 -72q-3 -51 -46 -73q-44 -23 -98 -23q-33 0 -78 7t-82 19q-1 -4 -1 -9v-10q0 -23 5 -48q4 -25 12 -40q31 -11 70 -17
t76 -6q115 0 207 57t97 165q-1 58 -33 90t-82 41v9q52 16 93 62t43 108q-3 75 -59 110q-56 34 -133 34q-48 0 -105 -11q-57 -12 -109 -32q-9 -42 -11 -80q-2 -39 5 -81q31 2 66 9t58 20z" />
    <glyph glyph-name="glyph411" 
d="M442 67h55q4 16 6 36t2 39q0 9 -1 17q0 8 -1 14h-52l33 363l-143 23q-91 -100 -173 -207q-82 -106 -149 -211l13 -74h267l-16 -163q14 -4 33 -5q20 -2 42 -2q20 0 37 2q18 1 32 5zM309 171h-66q-16 0 -34 -1q-19 -2 -35 -5v12q28 53 71 118t85 115h12q-6 -21 -12 -49
q-5 -29 -7 -49z" />
    <glyph glyph-name="glyph412" 
d="M134 542l-59 -360q96 21 144 20q47 0 73 -20q25 -20 25 -66q-2 -66 -46 -97t-106 -31q-28 0 -66 5q-37 6 -70 14q-1 -9 -1 -19q0 -23 5 -47q4 -24 12 -39q28 -8 63 -14q34 -5 69 -5q112 0 202 63q89 62 94 185q-2 89 -52 130q-51 41 -131 40q-18 0 -33 -2t-29 -6l16 133
q61 -1 120 -4q59 -2 120 -6q12 33 19 64q6 31 9 62h-378z" />
    <glyph glyph-name="glyph413" 
d="M213 361q27 108 78 148q51 41 99 39q30 0 66 -9t60 -21q1 3 1 10q1 6 1 13q0 23 -5 49q-4 25 -11 40q-24 12 -50 18q-26 5 -59 5q-145 -3 -245 -117t-104 -303q0 -122 50 -187q51 -65 151 -66q111 2 184 71q72 69 75 180q0 81 -42 131t-122 51q-42 0 -70 -14t-46 -38h-11
zM199 273q18 18 41 30q23 11 47 11q33 0 52 -23t19 -69q-1 -59 -26 -102q-26 -43 -68 -45q-34 1 -52 35t-18 95q0 17 1 35q2 17 4 33v0z" />
    <glyph glyph-name="glyph414" 
d="M527 539h-429l-32 -187q19 -9 51 -15t55 -6q9 18 20 43t17 46h180v-12q-92 -116 -165 -235q-72 -118 -127 -265q17 -4 37 -6q19 -2 43 -2q21 0 42 2q20 1 39 5q45 138 116 272q72 133 166 268z" />
    <glyph glyph-name="glyph415" 
d="M173 321q-60 -9 -100 -56q-39 -48 -41 -121q4 -94 69 -130t140 -34q106 0 183 54q76 53 80 158q-1 61 -28 97q-28 36 -73 54v9q44 10 78 50t36 104q-3 80 -61 114q-57 34 -133 33q-91 1 -161 -45t-74 -145q0 -53 23 -84t62 -49v-9zM248 286q47 -23 78 -48q31 -26 32 -72
q-2 -49 -33 -72q-30 -22 -64 -22q-31 -1 -56 21q-25 21 -26 71q1 42 20 74q20 31 49 48v0zM322 387q-42 21 -69 45t-28 61q2 41 30 58q27 17 50 16q23 1 45 -16q21 -17 23 -57q0 -31 -15 -59q-14 -29 -36 -48v0z" />
    <glyph glyph-name="glyph416" 
d="M345 180q-31 -112 -84 -151q-53 -40 -104 -37q-31 0 -69 7t-66 18q-2 -9 -2 -20q0 -23 6 -48q6 -24 14 -41q27 -11 61 -18q33 -7 68 -7q151 4 242 120q91 117 93 299q0 126 -51 191q-50 66 -151 66q-110 -2 -179 -69q-69 -66 -71 -177q0 -81 40 -133q41 -51 123 -53
q43 0 71 15q28 14 47 38h12zM359 277q-19 -23 -44 -36q-26 -14 -53 -14q-30 0 -48 25t-18 72q1 58 26 99t66 43q35 -1 55 -36q20 -36 20 -100q0 -24 -4 -53v0z" />
    <glyph glyph-name="glyph417" horiz-adv-x="350" 
d="M162 507q-40 -1 -64 -24q-25 -24 -26 -64q0 -47 23 -71q23 -23 67 -23q39 0 63 25q24 24 25 69q-1 43 -24 65q-24 23 -64 23v0zM130 191q-41 -1 -66 -26q-26 -25 -27 -65q0 -48 24 -72q23 -24 69 -24q39 0 64 26q24 25 25 70q-1 44 -25 68q-24 23 -64 23v0z" />
    <glyph glyph-name="glyph418" horiz-adv-x="350" 
d="M157 507q-40 -1 -64 -24q-25 -24 -26 -64q0 -47 23 -71q23 -23 67 -23q39 0 63 25q24 24 25 69q-1 43 -24 65q-24 23 -64 23v0zM59 13q-12 -42 -31 -90q-19 -47 -40 -93q9 -10 32 -21t42 -17q40 57 86 148t71 173q-22 7 -50 11q-29 4 -53 4q-13 0 -28 -2q-15 -1 -26 -5
q-16 -16 -31 -43q-16 -28 -25 -53z" />
    <glyph glyph-name="glyph419" 
d="M380 373q20 -14 52 -22t57 -8q16 34 25 73q9 38 9 74q-22 13 -48 23t-55 15l11 77q-31 0 -67 -4q-36 -5 -60 -11l-9 -63q-45 -10 -82 -31t-64 -50q-38 -44 -59 -106q-21 -63 -21 -124q0 -80 39 -131q39 -52 118 -65l-9 -78q12 -3 30 -4q17 -1 35 -1q19 0 37 1q17 1 27 4
l9 85q28 8 51 20q24 11 44 25q13 20 23 49q10 28 10 51q-35 -16 -82 -28q-48 -12 -89 -13q-49 -1 -72 26q-22 26 -22 85q0 36 9 79q9 42 33 75q16 20 38 32t53 12q21 0 36 -5z" />
    <glyph glyph-name="glyph420" 
d="M423 236q5 19 7 43q2 23 0 40h-162q-2 23 -2 38q-1 48 14 80q16 32 63 33q11 0 23 -2q11 -2 20 -7l-6 -47q19 -12 47 -20q28 -9 59 -11q12 28 20 68q9 40 9 77q-37 16 -77 25q-41 9 -86 9q-118 -1 -173 -55q-54 -53 -53 -146q0 -24 2 -42h-51q-6 -17 -11 -39t-7 -44h72
q1 -34 -9 -59t-37 -69q-28 -11 -55 -29q-6 -14 -14 -36q-7 -23 -11 -43h465l18 162q-25 1 -54 -1q-30 -3 -51 -8q-6 -11 -14 -28q-7 -17 -11 -30h-161l1 9q36 27 52 61q16 35 19 71h154z" />
    <glyph glyph-name="glyph421" 
d="M124 398q-30 -33 -44 -78q-15 -46 -15 -93q0 -31 6 -56t19 -45l-78 -80q9 -18 27 -33t40 -22l70 78q43 -23 106 -23q31 0 58 6q27 5 52 17l49 -75q26 6 47 20q22 14 34 32l-58 77q30 32 48 80q18 47 18 98q0 31 -7 56t-21 46l75 76q-10 16 -30 32t-42 24l-66 -76
q-22 11 -46 16q-25 6 -55 6q-32 0 -59 -6q-27 -7 -54 -20l-50 82q-24 -9 -46 -27q-23 -18 -36 -35zM268 144q-35 1 -55 28q-19 27 -19 73q0 55 28 96q27 40 75 42q36 -1 56 -26q20 -26 20 -71q-1 -59 -30 -99q-29 -41 -75 -43v0z" />
    <glyph glyph-name="glyph422" 
d="M351 217l27 37h110q5 17 6 39q2 22 0 37h-61l70 97q13 2 27 5q15 3 24 7q10 19 18 48t11 52h-223q-4 -24 -2 -49q1 -25 5 -45q5 -5 14 -10q10 -5 17 -8q-8 -6 -17 -17q-10 -11 -17 -21l-26 -38q-9 -13 -20 -33q-10 -19 -16 -36h-11q-2 16 -7 35q-5 18 -10 31l-15 40
q-3 9 -10 20q-6 11 -13 18q11 3 26 7q14 5 22 9q8 20 14 46t8 51h-261q-1 -8 -1 -14v-10q0 -18 2 -37t4 -32q8 -5 19 -10q10 -4 21 -7l48 -99h-45q-6 -16 -11 -36q-4 -21 -6 -40h99l26 -53h-126q-6 -16 -11 -36q-4 -21 -6 -40h137l-3 -24q-18 -5 -37 -12q-19 -8 -35 -16
q-7 -13 -15 -33q-9 -21 -13 -40h329q5 16 6 40q1 23 -1 39q-15 6 -41 12t-44 9l3 25h130q5 17 6 39q2 22 0 37h-127z" />
    <glyph glyph-name="glyph423" 
d="M372 512q18 -11 47 -17q30 -5 59 -5q7 19 16 64t11 66q-36 17 -77 25q-41 9 -97 9q-68 0 -124 -39q-55 -39 -58 -116q0 -37 17 -67q-39 -33 -65 -70q-27 -37 -28 -84q13 -102 105 -151q92 -48 105 -110q0 -26 -19 -42q-18 -16 -55 -17q-25 0 -40 21t-18 57q-39 0 -78 -10
t-57 -34q4 -57 49 -84q44 -26 121 -26q87 -1 156 40q69 40 73 132q0 17 -5 32q-5 16 -13 29q26 21 55 57t32 85q-13 103 -106 157q-94 53 -107 116q2 29 23 40t40 10q14 0 24 -2q10 -1 20 -5zM223 367q47 -36 92 -69t48 -75q-1 -14 -10 -26q-9 -13 -17 -21q-48 34 -93 67
q-46 32 -49 75q1 14 10 27t19 22v0z" />
    <glyph glyph-name="glyph424" horiz-adv-x="350" 
d="M179 650q-78 -1 -124 -46q-47 -46 -48 -124q0 -59 35 -90q34 -31 102 -31q80 1 126 45q45 45 46 127q-1 58 -37 88q-37 31 -100 31v0zM169 567q20 0 30 -13q11 -14 11 -35q0 -33 -15 -55q-15 -21 -40 -22q-20 0 -31 15t-11 40q0 30 15 50q15 19 41 20v0z" />
    <glyph glyph-name="glyph425" 
d="M458 191q6 21 8 47q2 25 0 43h-125l14 88q7 50 17 75q10 26 29 26q8 0 15 -2q6 -3 11 -5l-9 -45q15 -11 43 -20q27 -9 52 -11q14 31 28 73q13 42 20 76q-26 13 -60 19q-35 7 -66 7q-80 1 -137 -45q-56 -47 -77 -159l-14 -77h-106q-7 -19 -13 -43q-5 -24 -7 -47h110
l-32 -178q-9 -51 -18 -69t-23 -17q-6 0 -13 1q-6 2 -11 4l8 61q-19 8 -48 16q-29 9 -51 12q-15 -35 -28 -81q-13 -45 -17 -79q28 -12 63 -19q34 -7 69 -7q80 -1 138 45q58 47 77 159l23 152h130z" />
    <glyph glyph-name="glyph426" 
 />
    <glyph glyph-name="glyph427" horiz-adv-x="350" 
 />
    <glyph glyph-name="glyph428" horiz-adv-x="1300" 
d="M695 546q-24 11 -55 18t-57 8l-396 -562q13 -16 41 -34q29 -19 53 -25zM221 562q-93 -1 -148 -53q-54 -52 -55 -140q0 -70 39 -106q39 -35 113 -35q92 1 147 50q56 49 57 138q0 73 -40 109q-40 37 -113 37v0zM206 476q25 0 35 -17q11 -18 11 -48q0 -41 -17 -69t-49 -29
q-23 0 -36 17q-12 17 -12 49q0 40 17 68t51 29v0zM699 314q-93 -1 -148 -53q-54 -52 -55 -140q0 -70 39 -106q39 -35 113 -35q92 1 147 50q56 49 57 138q0 73 -40 109q-40 37 -113 37v0zM684 228q25 0 35 -17q11 -18 11 -48q0 -41 -17 -69t-49 -29q-23 0 -36 17
q-12 17 -12 49q0 40 17 68t51 29v0zM1104 314q-93 -1 -148 -53q-54 -52 -55 -140q0 -70 39 -106q39 -35 113 -35q92 1 147 50q56 49 57 138q0 73 -40 109q-40 37 -113 37v0zM1089 228q25 0 35 -17q11 -18 11 -48q0 -41 -17 -69t-49 -29q-23 0 -36 17q-12 17 -12 49
q0 40 17 68t51 29v0z" />
    <glyph glyph-name="glyph429" 
d="M412 280q5 17 6 39q2 22 0 37h-160q13 54 42 82q30 28 68 28q13 0 27 -2q15 -2 25 -6l-5 -42q22 -12 58 -21q37 -9 66 -10q11 25 20 62t10 69q-37 23 -83 34q-46 12 -107 12q-96 -1 -173 -57q-78 -55 -108 -149h-51q-6 -16 -11 -36q-4 -21 -6 -40h382zM35 234
q-6 -16 -11 -36q-4 -21 -6 -40h64q16 -81 75 -129q58 -48 153 -49q51 1 93 13q43 13 77 31q15 18 24 44q10 26 10 46q-40 -14 -86 -21q-46 -8 -82 -8q-38 -1 -64 16q-25 16 -34 57h152q5 17 6 39q2 22 0 37h-371z" />
    <glyph glyph-name="glyph430" horiz-adv-x="333" 
d="M261 555q-24 5 -53 5q-30 0 -58 -4t-48 -11l-12 -342q10 -2 24 -4q14 -1 29 -1t29 1q14 2 24 4zM126 142q-34 -1 -56 -22q-23 -22 -24 -56q0 -41 21 -63q21 -21 59 -21q34 0 56 22q21 22 22 62q-1 37 -22 57q-21 21 -56 21v0z" />
    <glyph glyph-name="glyph431" horiz-adv-x="424" 
d="M317 258q23 57 46 138q24 81 31 140q-25 7 -58 11q-34 5 -65 5q-6 -63 -17 -140t-23 -143q19 -5 42 -8q22 -3 44 -3v0zM103 258q23 57 46 138q24 81 31 140q-25 7 -58 11q-34 5 -65 5q-6 -63 -17 -140t-23 -143q19 -5 42 -8q22 -3 44 -3v0z" />
    <glyph glyph-name="glyph432" horiz-adv-x="210" 
d="M103 258q23 57 46 138q24 81 31 140q-25 7 -58 11q-34 5 -65 5q-6 -63 -17 -140t-23 -143q19 -5 42 -8q22 -3 44 -3v0z" />
    <glyph glyph-name="glyph433" horiz-adv-x="339" 
d="M149 -130q28 5 59 18q32 13 51 28q-24 56 -36 126q-13 69 -13 140q0 118 34 234t102 229q-32 0 -73 -8q-41 -7 -66 -18q-71 -113 -104 -214t-33 -205q0 -75 18 -158t61 -172v0z" />
    <glyph glyph-name="glyph434" horiz-adv-x="319" 
d="M75 -115q91 129 130 241q40 111 39 218q0 70 -15 148q-15 79 -48 160q-30 -1 -64 -12q-35 -12 -55 -28q20 -56 31 -119t11 -129q0 -119 -34 -232q-35 -113 -100 -204q19 -16 47 -28t58 -15v0z" />
    <glyph glyph-name="glyph435" horiz-adv-x="393" 
d="M399 573q-23 10 -48 14q-25 5 -44 5q-12 0 -26 -1l-301 -607q19 -15 54 -28q35 -14 62 -18z" />
    <glyph glyph-name="glyph436" horiz-adv-x="458" 
d="M169 179q30 4 64 16q35 13 57 28q-11 18 -11 37q10 46 79 89q68 43 78 119q-1 45 -47 69q-46 25 -131 25q-49 0 -108 -8q-59 -7 -97 -18q-4 -21 -6 -47t-2 -51v-16t1 -15q27 0 66 3q38 4 62 9l8 49q8 4 19 6q10 2 19 2q22 0 31 -8q9 -9 9 -24q-8 -44 -62 -80t-62 -104
q0 -21 10 -45t23 -36v0zM203 142q-34 -1 -56 -22q-23 -22 -24 -56q0 -41 21 -63q21 -21 59 -21q34 0 56 22q21 22 22 62q-1 37 -22 57q-21 21 -56 21v0z" />
    <glyph glyph-name="glyph437" horiz-adv-x="685" 
d="M497 376q-23 18 -53 30t-70 13q-43 0 -76 -16t-56 -43q-29 -33 -43 -72q-14 -40 -14 -79q1 -53 24 -80t60 -27q33 0 54 14q21 13 36 36h9q1 -12 4 -26q4 -13 9 -25q143 13 216 86q72 73 72 165q-2 111 -77 170q-74 59 -192 59q-165 -3 -272 -104q-106 -102 -110 -267
q1 -119 72 -189q72 -69 203 -71q52 0 107 13q55 12 104 35q-3 14 -11 32q-8 19 -17 29q-37 -18 -80 -28t-84 -10q-99 1 -152 55t-53 147q2 127 80 206t201 81q80 0 137 -42q56 -42 58 -126q0 -51 -30 -97t-94 -63q-2 9 -2 22zM351 208q-8 -10 -16 -16q-9 -6 -18 -6t-15 8
q-7 9 -7 30q0 24 8 48q7 24 19 43q8 14 20 22q11 8 26 8q5 0 10 -1q4 -1 6 -2z" />
    <glyph glyph-name="glyph438" horiz-adv-x="341" 
d="M34 -115h215q6 18 10 46q3 28 0 44q-12 4 -32 8q-20 3 -38 5l57 565q15 1 31 3q16 3 30 6q6 18 10 46q5 27 5 46v3h-198z" />
    <glyph glyph-name="glyph439" horiz-adv-x="362" 
d="M136 627q-27 -7 -59 -26q-32 -18 -50 -35l156 -625q33 4 68 15t56 23z" />
    <glyph glyph-name="glyph440" horiz-adv-x="339" 
d="M273 657h-191q-5 -17 -9 -47q-3 -30 -2 -48q13 -3 27 -5t29 -3l-66 -566q-13 -1 -34 -4q-21 -4 -35 -8q-5 -15 -9 -40t-4 -51h212z" />
    <glyph glyph-name="glyph441" horiz-adv-x="667" 
d="M390 163l5 -20q3 -11 7 -23q4 -11 10 -20q-10 -2 -23 -6t-23 -9q-9 -17 -19 -40q-9 -23 -14 -45h285q0 32 -3 53q-2 21 -7 36q-19 9 -42 12l-144 456l-123 -15l-242 -434q-13 -5 -29 -13t-28 -17q-8 -13 -14 -35q-7 -22 -10 -43h259q1 21 0 48q-2 26 -7 42q-9 4 -24 8
t-26 6q8 10 16 22t11 20l8 17h177zM339 421q0 -23 4 -54q5 -31 10 -51l19 -70h-120l38 77q11 22 21 49t16 49h12z" />
    <glyph glyph-name="glyph442" horiz-adv-x="618" 
d="M93 110q-13 -4 -27 -10q-15 -7 -31 -17q-8 -13 -15 -38q-8 -25 -11 -44q44 -3 122 -6t126 -3q130 -1 216 38q87 39 90 130q0 52 -28 82q-27 29 -83 40v9q54 12 82 45q28 32 28 76q-1 74 -67 106q-66 31 -182 30q-49 0 -118 -3t-115 -7q-5 -15 -7 -42q-3 -26 -3 -43
q13 -4 32 -7q18 -3 31 -4zM255 235h57q46 0 71 -17t25 -57t-31 -59q-30 -18 -85 -18q-12 0 -27 1t-25 2zM278 457q9 1 21 1q12 1 23 1q41 0 64 -15q24 -16 24 -49q-1 -36 -26 -53q-26 -17 -68 -17h-52z" />
    <glyph glyph-name="glyph443" horiz-adv-x="567" 
d="M369 381q22 -11 58 -19q35 -9 64 -9q13 29 24 73q10 44 11 82q-35 23 -77 34q-41 12 -89 12q-148 -3 -240 -94q-92 -90 -95 -233q1 -112 64 -179q62 -66 174 -68q49 1 98 13q48 13 82 31q15 22 24 51q10 30 10 53q-38 -14 -81 -22q-42 -7 -77 -7q-63 -1 -98 31
q-35 33 -36 111q2 96 44 156q42 59 103 61q11 0 24 -2q12 -2 21 -6z" />
    <glyph glyph-name="glyph444" horiz-adv-x="655" 
d="M96 110q-26 -7 -59 -27q-8 -13 -15 -38q-8 -25 -11 -44q58 -4 136 -6q79 -2 136 -2q134 0 233 80q99 81 104 245q-2 117 -80 174q-78 56 -210 56q-52 0 -121 -4t-128 -10q-5 -15 -7 -42q-2 -26 -1 -43q11 -3 30 -7q20 -3 33 -4zM280 450q9 2 21 2q12 1 23 1q65 1 102 -35
q37 -35 38 -115q-1 -101 -44 -156q-44 -55 -125 -56q-28 0 -52 3z" />
    <glyph glyph-name="glyph445" horiz-adv-x="591" 
d="M242 95l12 132h92q0 -8 3 -19t6 -18q16 -5 40 -6q24 -2 46 0l21 175q-20 0 -43 -3t-39 -8q-8 -7 -15 -15q-6 -8 -11 -16h-91l12 129h134q2 -13 6 -25q4 -11 9 -22q21 -6 49 -9q28 -4 52 -4l19 153h-467q-5 -17 -6 -41q-2 -24 -1 -43q11 -5 29 -9t33 -6l-37 -332
q-15 -5 -31 -13q-15 -7 -29 -16q-7 -14 -14 -36q-8 -23 -11 -43h487l18 158q-26 1 -55 -1q-29 -3 -51 -8q-6 -10 -13 -26t-11 -28h-143z" />
    <glyph glyph-name="glyph446" horiz-adv-x="541" 
d="M259 304l12 141h122q1 -14 5 -26q3 -12 8 -24q22 -7 50 -10q28 -4 52 -4l19 158h-454q-4 -17 -6 -41q-2 -25 -1 -43q11 -5 29 -9t33 -6l-35 -332q-15 -5 -31 -13q-15 -7 -29 -16q-7 -14 -14 -36q-7 -23 -11 -43h309q5 17 6 42q2 26 0 42q-15 6 -40 12t-43 9l9 108h88
q0 -10 3 -23q2 -13 6 -21q15 -5 39 -7t46 0l22 187q-19 0 -42 -3q-22 -4 -39 -9q-8 -7 -15 -15q-6 -9 -11 -18h-87z" />
    <glyph glyph-name="glyph447" horiz-adv-x="642" 
d="M528 185q12 3 24 9q13 5 23 12q9 14 17 36q9 22 12 41h-308q-1 -17 0 -40t4 -40q16 -6 41 -12q26 -6 47 -8l-12 -98q-12 -2 -31 -3q-20 -2 -35 -2q-57 -2 -91 30q-33 32 -34 116q1 108 50 171q48 64 125 65q15 0 29 -3t26 -8l-6 -66q24 -10 58 -17q35 -7 67 -9
q12 28 21 68q9 39 10 75q-35 25 -83 38q-48 14 -103 14q-155 -3 -253 -99q-98 -95 -101 -244q0 -111 63 -171q63 -59 183 -60q65 1 132 15q68 13 110 29z" />
    <glyph glyph-name="glyph448" horiz-adv-x="737" 
d="M617 440q17 2 37 6q19 3 33 8q5 18 9 42q4 25 4 43h-264q-5 -17 -7 -41q-2 -25 -1 -43q10 -5 24 -9t26 -6l-15 -123h-200l13 123q15 2 33 6q18 3 30 8q5 18 9 44q4 25 4 41h-271q-4 -17 -6 -41q-2 -25 -1 -43q11 -5 29 -9t33 -6l-42 -332q-15 -5 -31 -13q-15 -7 -29 -16
q-7 -14 -14 -36q-7 -23 -11 -43h285q5 17 7 43q1 25 0 42q-12 6 -30 12q-19 6 -32 8l14 119h199l-14 -116q-12 -5 -26 -13q-14 -7 -26 -16q-6 -14 -13 -36q-6 -23 -10 -43h284q5 17 7 43q1 25 0 42q-13 6 -35 12t-37 8z" />
    <glyph glyph-name="glyph449" horiz-adv-x="390" 
d="M273 440q17 2 37 6q19 3 33 8q5 18 9 42q4 25 4 43h-280q-5 -17 -6 -41q-2 -24 -1 -43q11 -5 29 -9t33 -6l-38 -332q-15 -5 -31 -13q-15 -7 -29 -16q-7 -14 -14 -36q-8 -23 -11 -43h297q5 17 7 43q1 25 0 42q-13 6 -35 12t-37 8z" />
    <glyph glyph-name="glyph450" horiz-adv-x="382" 
d="M-33 -69q4 -21 15 -44t23 -36q119 46 184 133t75 206l20 249q15 2 35 6q19 4 31 9q5 15 9 38t4 47h-303q-4 -17 -5 -41q-2 -25 0 -43q14 -5 39 -10t48 -7l-26 -270q-7 -75 -44 -136q-36 -61 -105 -101v0z" />
    <glyph glyph-name="glyph451" horiz-adv-x="674" 
d="M266 320l12 120q13 2 30 6q16 3 26 8q5 18 9 43q4 26 4 42h-267q-4 -17 -6 -41q-2 -25 -1 -43q11 -5 29 -9t33 -6l-41 -332q-15 -5 -31 -13q-15 -7 -29 -16q-7 -14 -14 -36q-7 -23 -11 -43h287q5 16 7 42q1 25 0 41q-12 7 -29 12q-17 6 -30 8l13 126h45q45 -88 91 -154
q45 -66 79 -93q29 2 59 5q29 4 57 10q11 20 21 51q9 30 11 55l-60 -5q-17 16 -55 67q-39 51 -80 120l143 150q13 2 29 6t27 9q9 18 16 43q7 26 10 46h-261q-2 -18 -1 -41q1 -24 5 -42q7 -5 18 -9q12 -5 22 -7q-12 -8 -25 -20q-14 -12 -23 -22l-68 -78h-51z" />
    <glyph glyph-name="glyph452" horiz-adv-x="558" 
d="M239 91l36 349q23 2 51 6q28 3 46 8q6 18 10 44q4 25 4 41h-308q-4 -17 -6 -41q-2 -25 -1 -43q11 -5 29 -9t33 -6l-40 -332q-15 -5 -31 -13q-15 -7 -29 -16q-7 -14 -14 -36q-7 -23 -11 -43h477l19 179q-22 2 -51 1q-30 -2 -49 -6q-8 -16 -16 -37q-8 -20 -13 -37
q-30 -5 -67 -7t-69 -2v0z" />
    <glyph glyph-name="glyph453" horiz-adv-x="903" 
d="M319 -16l159 14l94 241q10 26 22 72q13 46 21 83h12l21 -286q-11 -4 -24 -9q-13 -6 -23 -13q-9 -17 -17 -42t-11 -44h276q3 11 6 31q2 20 2 37v7t-1 11q-12 8 -30 14q-19 6 -31 8l-36 329q18 2 37 4q18 3 34 7q6 18 11 46t5 45h-264l-115 -293q-7 -19 -16 -54
q-9 -36 -15 -61h-12q0 29 -5 74t-9 70l-49 264h-238q-5 -19 -8 -45q-4 -27 -3 -46q13 -4 28 -7q15 -2 29 -4l-113 -328q-12 -3 -27 -10q-16 -7 -28 -15q-8 -14 -18 -39q-10 -26 -14 -45h252q5 17 7 44q2 26 0 43q-11 5 -27 11q-16 5 -29 7l82 290h11q0 -33 2 -80
q3 -47 8 -78z" />
    <glyph glyph-name="glyph454" horiz-adv-x="722" 
d="M309 539h-233q-4 -17 -6 -41q-1 -25 0 -43q11 -5 28 -9q18 -4 33 -6l-40 -332q-15 -5 -31 -13q-15 -7 -29 -16q-7 -14 -14 -36q-7 -23 -11 -43h259q4 17 6 43q2 25 1 42q-13 7 -32 12q-19 6 -33 8l29 282h12q5 -31 17 -70q13 -38 24 -60l144 -275l148 16l49 442
q14 2 31 6q17 3 29 8q4 17 7 41q4 24 4 44h-250q-4 -17 -5 -41q-2 -25 0 -43q13 -5 35 -9t42 -6l-33 -275h-12q-5 34 -20 75q-14 41 -26 64z" />
    <glyph glyph-name="glyph455" horiz-adv-x="648" 
d="M355 554q-146 -2 -234 -91q-89 -89 -91 -238q1 -119 63 -182q62 -62 179 -63q144 2 234 90t93 238q-1 121 -65 183q-64 63 -179 63v0zM337 460q54 -1 82 -43q29 -42 29 -116q-1 -95 -43 -159q-41 -64 -110 -66q-54 1 -83 43q-30 43 -30 117q1 91 42 156t113 68v0z" />
    <glyph glyph-name="glyph456" horiz-adv-x="580" 
d="M95 108q-15 -5 -31 -13q-15 -7 -29 -16q-7 -14 -14 -36q-7 -23 -11 -43h313q5 17 6 42q2 26 0 42q-14 6 -40 12t-46 9l9 94q9 -1 26 -2t31 -1q98 0 171 49t77 151q-1 84 -64 118q-62 35 -178 34q-46 0 -117 -4q-71 -3 -113 -7q-5 -17 -8 -44q-4 -27 -3 -44q14 -4 30 -6
t31 -3zM275 453q11 2 25 2q14 1 26 1q35 0 57 -19q21 -20 22 -56q-1 -45 -25 -68q-25 -23 -65 -23q-13 0 -29 1q-17 1 -27 2z" />
    <glyph glyph-name="glyph457" horiz-adv-x="692" 
d="M360 554q-149 -2 -239 -91t-92 -238q1 -119 64 -182q63 -62 182 -63q33 0 65 6q53 -49 122 -92q70 -43 110 -46q16 0 44 8q27 7 50 20q10 20 19 51q8 32 9 57l-104 -19q-15 1 -48 19q-33 19 -68 45v9q62 42 98 111q35 69 36 159q-1 121 -66 183q-65 63 -182 63v0z
M342 460q55 -1 85 -43t30 -116q-1 -95 -44 -159t-115 -66q-56 1 -86 43q-31 43 -31 117q1 91 43 156q43 65 118 68v0z" />
    <glyph glyph-name="glyph458" horiz-adv-x="623" 
d="M85 535q-5 -17 -9 -44q-3 -27 -2 -44q14 -4 30 -6t31 -3l-40 -330q-15 -5 -31 -13q-15 -7 -29 -16q-7 -14 -14 -36q-7 -23 -11 -43h280q5 16 7 42q1 25 0 41q-12 7 -28 12q-17 6 -30 8l12 115q12 -2 29 -4t30 -2q30 -94 59 -153t55 -76q32 2 62 6t59 11q11 19 20 47
t10 51l-52 -7q-13 10 -38 50q-24 39 -51 96q52 19 84 62q32 42 33 99q-1 81 -61 116q-61 35 -175 34q-48 0 -116 -4t-114 -9v0zM273 450q9 2 22 2q12 1 21 1q42 0 64 -17q23 -17 23 -51q-1 -42 -26 -62q-25 -19 -68 -19q-10 0 -25 1q-16 1 -26 3z" />
    <glyph glyph-name="glyph459" horiz-adv-x="524" 
d="M326 417q23 -14 58 -22t70 -8q11 25 18 62q8 36 8 66q-38 22 -87 33q-48 11 -97 11q-102 -1 -161 -48q-60 -47 -61 -127q15 -120 118 -148q103 -29 118 -95q0 -33 -19 -52t-57 -19q-16 0 -35 4t-32 11l7 65q-28 10 -64 15q-37 5 -70 5q-9 -22 -16 -52t-7 -63q0 -6 1 -13
q0 -8 1 -13q41 -25 91 -37t102 -12q105 0 175 47t73 143q-15 126 -116 155q-102 29 -117 90q0 25 14 42q15 16 47 17q11 0 23 -2q11 -2 20 -6z" />
    <glyph glyph-name="glyph460" horiz-adv-x="602" 
d="M457 449q0 -15 4 -36q3 -21 8 -37q18 -8 47 -13q29 -6 58 -6l22 182h-540l-22 -183q28 0 59 5q31 6 52 14q8 17 16 37q7 21 10 37h72l-39 -342q-18 -5 -37 -14q-19 -8 -35 -17q-8 -14 -16 -35q-9 -21 -13 -41h334q5 16 6 41q2 25 0 41q-16 7 -43 14t-47 10l32 343h72z
" />
    <glyph glyph-name="glyph461" horiz-adv-x="662" 
d="M404 539q-5 -16 -8 -42q-3 -25 -3 -42q12 -5 31 -9t36 -6l-24 -225q-6 -60 -36 -96q-31 -36 -91 -37q-47 0 -68 27q-20 27 -20 80q0 9 1 18q0 10 1 20l20 213q19 2 43 6q23 4 40 9q5 19 10 42q4 24 4 42h-305q0 -17 1 -41q2 -24 6 -44q12 -5 27 -10q14 -5 29 -8l-23 -216
q-3 -25 -3 -48q-1 -95 50 -143q52 -49 164 -49q121 2 189 68q69 67 80 177l22 215q15 2 34 6q19 3 31 8q6 18 11 43t5 42h-254z" />
    <glyph glyph-name="glyph462" horiz-adv-x="606" 
d="M283 123q0 20 -3 43q-2 23 -6 40l-32 138q-5 19 -12 42q-8 22 -17 40q15 2 34 7t29 10q9 20 17 46q7 25 10 50h-277q-1 -6 -1 -15q-1 -9 -1 -15q0 -16 1 -31t4 -28q6 -6 18 -13q12 -8 22 -11l116 -444l136 15l221 430q13 2 26 5q14 3 23 7q10 20 19 49q8 28 11 51h-235
q-3 -24 -2 -48q2 -25 7 -45q8 -5 22 -10q14 -6 24 -9q-14 -17 -29 -40q-14 -23 -23 -43l-60 -131q-9 -16 -18 -43t-13 -47h-11z" />
    <glyph glyph-name="glyph463" horiz-adv-x="879" 
d="M209 426q13 2 29 7q17 5 25 10q8 20 15 46q6 25 9 50h-257q-1 -5 -1 -12v-13q0 -17 2 -34q1 -17 4 -30q6 -6 18 -13q12 -8 22 -11l75 -444l164 15l102 289q10 28 18 63q9 34 12 60h12q-3 -26 -3 -61q1 -36 3 -62l28 -304l156 15l179 430q12 2 25 5q14 3 24 7q9 20 16 49
q8 28 10 51h-229q-3 -24 -1 -48q2 -25 7 -45q7 -5 19 -11q12 -5 22 -8q-11 -15 -22 -37q-12 -22 -16 -37l-45 -132q-9 -24 -18 -54t-13 -54h-12q2 23 2 54q-1 31 -3 56l-31 326l-157 -15l-111 -310q-9 -25 -17 -56t-12 -55h-11q1 24 0 54q-2 31 -4 56l-13 122q-2 18 -9 42
q-7 25 -13 39v0z" />
    <glyph glyph-name="glyph464" horiz-adv-x="647" 
d="M355 340l-40 60q-5 7 -12 15q-7 9 -14 15q8 2 17 7q9 4 15 8q8 19 13 45t7 49h-273q-1 -22 2 -48q4 -26 10 -44q8 -4 22 -9q15 -4 27 -7l96 -138l-170 -187q-13 -4 -27 -10t-24 -11q-7 -16 -14 -40q-8 -24 -11 -45h262q0 21 -3 46q-2 25 -7 43q-9 5 -20 8q-11 4 -21 6
q11 9 23 22t19 23l51 68l48 -73q6 -9 17 -21q10 -12 20 -19q-7 -2 -17 -7q-9 -5 -17 -10q-8 -18 -14 -41q-6 -24 -9 -45h282q0 23 -4 49q-5 26 -11 44q-10 4 -25 7t-26 5l-119 166l133 160q12 2 28 6q16 3 26 8q8 21 15 46t9 48h-224q-3 -21 -2 -47t4 -43q5 -5 13 -10
q8 -4 16 -7q-10 -9 -21 -21t-17 -21z" />
    <glyph glyph-name="glyph465" horiz-adv-x="584" 
d="M347 217l162 210q13 2 27 5q15 3 24 7q10 19 18 48t11 52h-233q-4 -24 -2 -49q1 -25 5 -45q5 -5 14 -10q10 -5 17 -8q-8 -6 -17 -17q-10 -11 -17 -21l-26 -38q-9 -13 -20 -33q-10 -19 -16 -36h-11q-2 16 -7 35q-5 18 -10 31l-14 40q-3 9 -10 20q-6 11 -13 18q11 3 26 7
q14 5 22 9q8 20 14 46t8 51h-272q-1 -4 -1 -12q-1 -7 -1 -13q0 -18 2 -36t5 -32q8 -5 19 -10q10 -4 21 -7l124 -233l-11 -91q-18 -5 -37 -12q-19 -8 -35 -16q-7 -14 -16 -35q-9 -22 -13 -42h329q5 16 6 42q2 25 0 41q-15 6 -41 12t-44 9z" />
    <glyph glyph-name="glyph466" horiz-adv-x="554" 
d="M16 0h459l30 177q-23 4 -61 2q-39 -2 -62 -11q-8 -13 -15 -31q-8 -18 -12 -33q-34 -6 -72 -10t-73 -4v12l293 361l-5 76h-434l-17 -143q20 -9 50 -17q29 -7 56 -8q10 17 19 37q10 20 16 38h122v-12l-299 -364z" />
    <glyph glyph-name="glyph467" horiz-adv-x="354" 
d="M44 227q47 -4 58 -27q11 -22 4 -63l-14 -116q-10 -68 30 -109t148 -45q5 14 7 35q3 20 3 40q0 6 -1 19q-26 2 -36 20q-11 18 -6 62l11 114q4 53 -12 79q-17 25 -46 33v9q29 9 52 33q24 23 30 74l13 120q3 27 15 40q13 13 38 16q12 20 21 50q9 31 12 52q-119 -4 -166 -45
q-48 -40 -53 -103l-15 -124q-2 -31 -15 -48q-12 -18 -49 -21q-7 -14 -16 -41t-13 -54v0z" />
    <glyph glyph-name="glyph468" horiz-adv-x="346" 
d="M223 574q-30 0 -61 -3q-32 -3 -57 -8v-604q24 -6 59 -6q18 0 33 2q15 1 26 4v615z" />
    <glyph glyph-name="glyph469" horiz-adv-x="339" 
d="M139 270q-30 -8 -53 -35q-23 -28 -31 -86l-13 -116q-5 -40 -25 -56q-21 -16 -50 -17q-1 -8 -2 -19t-1 -22q0 -14 2 -27q1 -13 4 -23q114 5 160 48q45 43 51 112l14 118q5 43 25 61q21 17 64 19q0 25 -3 51t-8 45q-40 4 -48 23q-9 20 -4 49l11 126q7 52 -25 92
q-33 41 -131 50q-13 -17 -25 -46q-12 -30 -16 -52q36 -3 50 -17q13 -15 10 -47l-12 -120q-4 -53 13 -74t43 -28v-9z" />
    <glyph glyph-name="glyph470" horiz-adv-x="333" 
d="M42 -11q20 -4 40 -7q21 -2 41 -2t40 2q19 3 40 7l10 355q-30 0 -58 -4q-29 -5 -50 -13zM178 559q-34 -1 -56 -22q-23 -22 -24 -56q0 -41 21 -63q21 -21 59 -21q34 0 56 22q21 22 22 62q-1 37 -22 57q-21 21 -56 21v0z" />
    <glyph glyph-name="glyph471" horiz-adv-x="346" 
d="M223 195q-30 0 -62 -3t-58 -8v-225q12 -3 27 -4q16 -2 33 -2q18 0 34 2q15 1 26 4v236zM223 574q-30 0 -62 -3t-58 -8v-213q12 -3 27 -4q16 -2 33 -2q18 0 34 2q15 1 26 4v224z" />
    <glyph glyph-name="glyph472" horiz-adv-x="439" 
d="M129 -80q21 -4 36 -14q14 -10 15 -27q-1 -24 -23 -38q-22 -13 -52 -17q6 -18 17 -34q12 -17 26 -27q56 5 104 36q47 30 50 80q-1 28 -17 45t-40 22l24 71q-22 0 -47 -2t-42 -7z" />
    <glyph glyph-name="glyph473" horiz-adv-x="472" 
d="M274 356q-28 -3 -61 -14q-34 -12 -58 -25q8 -15 8 -35q-10 -48 -78 -87q-68 -40 -78 -122q1 -44 47 -68q46 -25 131 -25q49 0 108 8q59 7 96 18q3 20 5 47q1 27 1 52q0 20 -1 33q-28 0 -66 -5q-37 -6 -60 -12l-6 -47q-8 -4 -19 -6q-10 -2 -20 -2q-22 0 -32 8t-10 24
q8 43 64 78q55 36 63 103q-1 21 -11 43t-23 34v0zM243 559q-34 -1 -56 -22q-23 -22 -24 -56q0 -41 21 -63q21 -21 59 -21q34 0 56 22q21 22 22 62q-1 37 -22 57q-21 21 -56 21v0z" />
    <glyph glyph-name="glyph474" horiz-adv-x="1048" 
d="M850 417q23 -14 58 -22t70 -8q11 25 18 62q8 36 8 66q-38 22 -87 33q-48 11 -97 11q-102 -1 -161 -48q-60 -47 -61 -127q15 -120 118 -148q103 -29 118 -95q0 -33 -19 -52t-57 -19q-16 0 -35 4t-32 11l7 65q-28 10 -64 15q-37 5 -70 5q-9 -22 -16 -52t-7 -63q0 -6 1 -13
q0 -8 1 -13q41 -25 91 -37t102 -12q105 0 175 47t73 143q-15 126 -116 155q-102 29 -117 90q0 25 14 42q15 16 47 17q11 0 23 -2q11 -2 20 -6zM326 417q23 -14 58 -22t70 -8q11 25 18 62q8 36 8 66q-38 22 -87 33q-48 11 -97 11q-102 -1 -161 -48q-60 -47 -61 -127
q15 -120 118 -148q103 -29 118 -95q0 -33 -19 -52t-57 -19q-16 0 -35 4t-32 11l7 65q-28 10 -64 15q-37 5 -70 5q-9 -22 -16 -52t-7 -63q0 -6 1 -13q0 -8 1 -13q41 -25 91 -37t102 -12q105 0 175 47t73 143q-15 126 -116 155q-102 29 -117 90q0 25 14 42q15 16 47 17
q11 0 23 -2q11 -2 20 -6z" />
    <glyph glyph-name="glyph475" horiz-adv-x="667" 
d="M390 163l5 -20q3 -11 7 -23q4 -11 10 -20q-10 -2 -23 -6t-23 -9q-9 -17 -19 -40q-9 -23 -14 -45h285q0 32 -3 53q-2 21 -7 36q-19 9 -42 12l-144 456l-123 -15l-242 -434q-13 -5 -29 -13t-28 -17q-8 -13 -14 -35q-7 -22 -10 -43h259q1 21 0 48q-2 26 -7 42q-9 4 -24 8
t-26 6q8 10 16 22t11 20l8 17h177zM339 421q0 -23 4 -54q5 -31 10 -51l19 -70h-120l38 77q11 22 21 49t16 49h12zM382 590q19 1 45 10q26 10 42 22l-113 185q-32 -1 -71 -13q-38 -13 -60 -29z" />
    <glyph glyph-name="glyph476" horiz-adv-x="667" 
d="M390 163l5 -20q3 -11 7 -23q4 -11 10 -20q-10 -2 -23 -6t-23 -9q-9 -17 -19 -40q-9 -23 -14 -45h285q0 32 -3 53q-2 21 -7 36q-19 9 -42 12l-144 456l-123 -15l-242 -434q-13 -5 -29 -13t-28 -17q-8 -13 -14 -35q-7 -22 -10 -43h259q1 21 0 48q-2 26 -7 42q-9 4 -24 8
t-26 6q8 10 16 22t11 20l8 17h177zM339 421q0 -23 4 -54q5 -31 10 -51l19 -70h-120l38 77q11 22 21 49t16 49h12zM548 755q-19 20 -59 32q-40 13 -70 13l-151 -162q8 -16 27 -32t38 -24z" />
    <glyph glyph-name="glyph477" horiz-adv-x="667" 
d="M390 163l5 -20q3 -11 7 -23q4 -11 10 -20q-10 -2 -23 -6t-23 -9q-9 -17 -19 -40q-9 -23 -14 -45h285q0 32 -3 53q-2 21 -7 36q-19 9 -42 12l-144 456l-123 -15l-242 -434q-13 -5 -29 -13t-28 -17q-8 -13 -14 -35q-7 -22 -10 -43h259q1 21 0 48q-2 26 -7 42q-9 4 -24 8
t-26 6q8 10 16 22t11 20l8 17h177zM339 421q0 -23 4 -54q5 -31 10 -51l19 -70h-120l38 77q11 22 21 49t16 49h12zM337 786l-144 -116q3 -21 13 -45t22 -38l152 100l111 -98q20 7 41 22q21 16 32 33l-122 148z" />
    <glyph glyph-name="glyph478" horiz-adv-x="667" 
d="M390 163l5 -20q3 -11 7 -23q4 -11 10 -20q-10 -2 -23 -6t-23 -9q-9 -17 -19 -40q-9 -23 -14 -45h285q0 32 -3 53q-2 21 -7 36q-19 9 -42 12l-144 456l-123 -15l-242 -434q-13 -5 -29 -13t-28 -17q-8 -13 -14 -35q-7 -22 -10 -43h259q1 21 0 48q-2 26 -7 42q-9 4 -24 8
t-26 6q8 10 16 22t11 20l8 17h177zM339 421q0 -23 4 -54q5 -31 10 -51l19 -70h-120l38 77q11 22 21 49t16 49h12zM500 754q-7 -15 -19 -26q-13 -11 -35 -11q-35 3 -61 21t-76 21q-61 -1 -97 -31q-36 -31 -48 -76q8 -16 26 -28t39 -15q6 16 19 27t35 11q37 -3 64 -21
q28 -19 75 -22q70 2 110 43q39 40 47 90q-17 10 -38 14q-22 3 -41 3v0z" />
    <glyph glyph-name="glyph479" horiz-adv-x="667" 
d="M233 757q-33 -1 -54 -21q-21 -21 -22 -55q0 -41 20 -61q19 -21 56 -21q33 0 54 22q20 21 21 60q0 36 -21 56q-20 20 -54 20v0zM507 757q-33 -1 -54 -21q-21 -21 -22 -55q0 -41 20 -61q19 -21 56 -21q33 0 54 22q20 21 21 60q0 36 -21 56q-20 20 -54 20v0zM390 163l5 -20
q3 -11 7 -23q4 -11 10 -20q-10 -2 -23 -6t-23 -9q-9 -17 -19 -40q-9 -23 -14 -45h285q0 32 -3 53q-2 21 -7 36q-19 9 -42 12l-144 456l-123 -15l-242 -434q-13 -5 -29 -13t-28 -17q-8 -13 -14 -35q-7 -22 -10 -43h259q1 21 0 48q-2 26 -7 42q-9 4 -24 8t-26 6q8 10 16 22
t11 20l8 17h177zM339 421q0 -23 4 -54q5 -31 10 -51l19 -70h-120l38 77q11 22 21 49t16 49h12z" />
    <glyph glyph-name="glyph480" horiz-adv-x="667" 
d="M385 759q-72 -1 -111 -38q-39 -38 -39 -98q0 -37 15 -60q14 -22 43 -31l-236 -424q-13 -5 -29 -13t-28 -17q-8 -13 -14 -35q-7 -22 -10 -43h259q1 21 0 48q-2 26 -7 42q-9 4 -24 8t-26 6q8 10 16 22t11 20l8 17h177l5 -20q3 -11 7 -23q4 -11 10 -20q-10 -2 -23 -6t-23 -9
q-9 -17 -19 -40q-9 -23 -14 -45h285q0 32 -3 53q-2 21 -7 36q-19 9 -42 12l-140 442q33 17 51 47t18 70q0 52 -29 76q-29 23 -81 23v0zM339 421q0 -23 4 -54q5 -31 10 -51l19 -70h-120l38 77q11 22 21 49t16 49h12zM377 692q19 0 28 -8q10 -8 10 -29q0 -28 -17 -44
q-17 -17 -46 -17q-19 0 -29 9t-10 29q0 26 17 43q16 16 47 17v0z" />
    <glyph glyph-name="glyph481" horiz-adv-x="865" 
d="M518 95l12 132h90q0 -8 3 -19t6 -18q16 -5 40 -6q24 -2 46 0l21 175q-20 0 -43 -3t-39 -8q-8 -7 -15 -15q-6 -8 -11 -16h-89l12 129h132q2 -13 6 -25q4 -11 9 -22q21 -6 49 -9q28 -4 52 -4l19 153h-602q-5 -17 -6 -41q-1 -25 2 -43q13 -5 33 -9t39 -6l-234 -332
q-13 -5 -28 -13q-16 -8 -28 -17q-8 -13 -15 -34q-6 -22 -10 -44h253q1 21 -1 48q-3 26 -8 42q-8 4 -23 8t-26 6q11 8 26 22q14 14 23 27l16 24h151l-8 -69q-15 -5 -31 -13q-15 -7 -29 -16q-7 -14 -14 -36q-8 -23 -11 -43h484l18 158q-26 1 -55 -1q-29 -3 -51 -8
q-6 -10 -13 -26t-11 -28h-141zM352 361q12 18 25 42q13 23 22 43h12l-21 -184h-103z" />
    <glyph glyph-name="glyph482" horiz-adv-x="567" 
d="M192 -80q21 -4 36 -14q14 -10 15 -27q-1 -24 -23 -38q-22 -13 -52 -17q6 -18 17 -34q12 -17 26 -27q56 5 104 36q47 30 50 80q-1 28 -17 45t-40 22l13 39q35 6 67 16q31 10 55 23q15 22 24 51q10 30 10 53q-38 -14 -81 -22q-42 -7 -77 -7q-63 -1 -98 31q-35 33 -36 111
q2 96 44 156q42 59 103 61q11 0 24 -2q12 -2 21 -6l-8 -69q22 -11 58 -19q35 -9 64 -9q13 29 24 73q10 44 11 82q-35 23 -77 34q-41 12 -89 12q-148 -3 -240 -94q-92 -90 -95 -233q1 -102 54 -167t149 -78z" />
    <glyph glyph-name="glyph483" horiz-adv-x="591" 
d="M242 95l12 132h92q0 -8 3 -19t6 -18q16 -5 40 -6q24 -2 46 0l21 175q-20 0 -43 -3t-39 -8q-8 -7 -15 -15q-6 -8 -11 -16h-91l12 129h134q2 -13 6 -25q4 -11 9 -22q21 -6 49 -9q28 -4 52 -4l19 153h-467q-5 -17 -6 -41q-2 -24 -1 -43q11 -5 29 -9t33 -6l-37 -332
q-15 -5 -31 -13q-15 -7 -29 -16q-7 -14 -14 -36q-8 -23 -11 -43h487l18 158q-26 1 -55 -1q-29 -3 -51 -8q-6 -10 -13 -26t-11 -28h-143zM339 590q19 1 45 10q26 10 42 22l-113 185q-32 -1 -71 -13q-38 -13 -60 -29z" />
    <glyph glyph-name="glyph484" horiz-adv-x="591" 
d="M242 95l12 132h92q0 -8 3 -19t6 -18q16 -5 40 -6q24 -2 46 0l21 175q-20 0 -43 -3t-39 -8q-8 -7 -15 -15q-6 -8 -11 -16h-91l12 129h134q2 -13 6 -25q4 -11 9 -22q21 -6 49 -9q28 -4 52 -4l19 153h-467q-5 -17 -6 -41q-2 -24 -1 -43q11 -5 29 -9t33 -6l-37 -332
q-15 -5 -31 -13q-15 -7 -29 -16q-7 -14 -14 -36q-8 -23 -11 -43h487l18 158q-26 1 -55 -1q-29 -3 -51 -8q-6 -10 -13 -26t-11 -28h-143zM513 755q-19 20 -59 32q-40 13 -70 13l-151 -162q8 -16 27 -32t38 -24z" />
    <glyph glyph-name="glyph485" horiz-adv-x="591" 
d="M242 95l12 132h92q0 -8 3 -19t6 -18q16 -5 40 -6q24 -2 46 0l21 175q-20 0 -43 -3t-39 -8q-8 -7 -15 -15q-6 -8 -11 -16h-91l12 129h134q2 -13 6 -25q4 -11 9 -22q21 -6 49 -9q28 -4 52 -4l19 153h-467q-5 -17 -6 -41q-2 -24 -1 -43q11 -5 29 -9t33 -6l-37 -332
q-15 -5 -31 -13q-15 -7 -29 -16q-7 -14 -14 -36q-8 -23 -11 -43h487l18 158q-26 1 -55 -1q-29 -3 -51 -8q-6 -10 -13 -26t-11 -28h-143zM291 786l-144 -116q3 -21 13 -45t22 -38l152 100l111 -98q20 7 41 22q21 16 32 33l-122 148z" />
    </font>
</defs>
</svg>
