<?xml version="1.0" standalone="no"?>
<!DOCTYPE svg PUBLIC "-//W3C//DTD SVG 1.1//EN" "http://www.w3.org/Graphics/SVG/1.1/DTD/svg11.dtd" >
<svg xmlns="http://www.w3.org/2000/svg" xmlns:xlink="http://www.w3.org/1999/xlink" version="1.1">
<metadata>
Created by FontForge 20161003 at Fri Aug 17 10:13:24 2018
 By www-data
2008 Mitja Miklavcic published by FSI FontShop International GmbH
</metadata>
<defs>
<font id="TisaOT-MediIta" horiz-adv-x="570" >
  <font-face 
    font-family="TisaOT-MediIta"
    font-weight="500"
    font-style="italic"
    font-stretch="normal"
    units-per-em="1000"
    panose-1="2 1 6 4 3 1 1 2 1 2"
    ascent="729"
    descent="-271"
    x-height="476"
    cap-height="701"
    bbox="-489 -300 1513 950"
    underline-thickness="75"
    underline-position="-200"
    slope="-6.5"
    unicode-range="U+000D-FEFF"
  />
<missing-glyph horiz-adv-x="717" 
d="M82 0h520l64 721h-505zM336 505q-14 -8 -35 -12q-21 -5 -36 -5q-3 25 -2 55q0 30 3 60q28 10 68 17t76 7q60 0 94 -24q33 -24 33 -68q-10 -83 -76 -124q-67 -41 -77 -87q0 -13 4 -26q3 -12 10 -23q-12 -9 -33 -17q-21 -7 -38 -9q-11 13 -19 32t-8 38q9 63 69 105t69 95
q0 17 -12 31q-12 13 -39 14q-11 0 -24 -2q-12 -2 -21 -7zM357 204q25 0 40 -14t15 -41q0 -28 -15 -43q-16 -16 -40 -16q-29 0 -43 15q-15 15 -15 44q1 24 17 40q16 15 41 15v0z" />
    <glyph glyph-name=".notdef" horiz-adv-x="717" 
d="M82 0h520l64 721h-505zM336 505q-14 -8 -35 -12q-21 -5 -36 -5q-3 25 -2 55q0 30 3 60q28 10 68 17t76 7q60 0 94 -24q33 -24 33 -68q-10 -83 -76 -124q-67 -41 -77 -87q0 -13 4 -26q3 -12 10 -23q-12 -9 -33 -17q-21 -7 -38 -9q-11 13 -19 32t-8 38q9 63 69 105t69 95
q0 17 -12 31q-12 13 -39 14q-11 0 -24 -2q-12 -2 -21 -7zM357 204q25 0 40 -14t15 -41q0 -28 -15 -43q-16 -16 -40 -16q-29 0 -43 15q-15 15 -15 44q1 24 17 40q16 15 41 15v0z" />
    <glyph glyph-name="glyph1" horiz-adv-x="0" 
 />
    <glyph glyph-name="glyph1" horiz-adv-x="0" 
 />
    <glyph glyph-name="uni000D" unicode="&#xd;" horiz-adv-x="196" 
 />
    <glyph glyph-name="space" unicode=" " horiz-adv-x="196" 
 />
    <glyph glyph-name="exclam" unicode="!" horiz-adv-x="280" 
d="M231 703q-8 2 -20 2q-11 1 -21 1q-26 0 -55 -5q-28 -4 -47 -11l-14 -473q7 -2 18 -3t23 -1t23 1t19 3zM100 134q-31 -1 -52 -21q-20 -20 -21 -51q0 -38 19 -58q18 -20 54 -20q31 0 51 21t21 57q0 35 -20 53q-19 19 -52 19v0z" />
    <glyph glyph-name="quotedbl" unicode="&#x22;" horiz-adv-x="380" 
d="M90 452q21 50 42 122t27 124q-21 5 -49 9q-29 4 -53 4q-6 -55 -16 -122q-10 -68 -21 -126q14 -5 34 -8t36 -3v0zM278 452q21 50 42 122t27 124q-21 5 -49 9q-29 4 -53 4q-6 -55 -16 -122q-10 -68 -21 -126q14 -5 34 -8t36 -3v0z" />
    <glyph glyph-name="numbersign" unicode="#" horiz-adv-x="581" 
d="M508 136q5 14 9 34t4 35h-94l34 143h97q5 14 8 34q4 20 4 35h-90l28 119q-21 0 -47 -3q-25 -2 -44 -7l-27 -109h-139l28 119q-22 0 -47 -3q-25 -2 -43 -7l-28 -109h-97q-7 -13 -14 -33q-6 -19 -9 -36h100l-36 -143h-92q-7 -14 -13 -33q-6 -20 -9 -36h94l-35 -134
q8 -2 20 -3q13 -1 27 -1t28 1t23 3l31 134h134l-34 -134q8 -2 20 -3q13 -1 27 -1t28 1t23 3l31 134h100zM231 349h140l-37 -146h-138z" />
    <glyph glyph-name="dollar" unicode="$" horiz-adv-x="487" 
d="M317 408q17 -11 43 -17q27 -6 53 -6q11 26 17 60q7 34 7 65q-27 14 -59 23t-66 12l9 80q-24 0 -50 -3t-42 -8l-9 -70q-72 -13 -114 -55q-42 -43 -43 -110q15 -111 120 -144q104 -32 119 -102q-1 -38 -26 -58q-25 -21 -68 -21q-22 0 -45 5q-22 5 -39 15l8 71q-22 8 -50 12
t-54 4q-9 -25 -14 -51q-5 -25 -5 -51q0 -18 3 -36q31 -18 68 -28q37 -11 78 -14l-8 -80q9 -1 22 -2q14 -1 26 -1q13 0 28 1q14 1 21 2l9 85q71 14 116 59q46 44 47 122q-15 114 -118 149q-104 34 -119 98q0 29 21 47t61 18q17 0 33 -4q16 -3 26 -8z" />
    <glyph glyph-name="percent" unicode="%" horiz-adv-x="911" 
d="M222 549q-87 -1 -137 -51q-50 -49 -51 -133q0 -68 37 -102q36 -34 105 -34q86 1 137 48t52 132q0 70 -37 105t-106 35v0zM211 483q30 0 43 -20q13 -21 13 -57q0 -48 -20 -79t-58 -32q-29 0 -44 20q-14 20 -14 58q0 46 20 78q20 31 60 32v0zM705 537q-17 8 -40 13
q-23 6 -42 7l-424 -551q10 -11 32 -25t40 -18zM718 302q-87 -1 -137 -51q-50 -49 -51 -133q0 -68 37 -102q36 -34 105 -34q86 1 137 48t52 132q0 70 -37 105t-106 35v0zM707 236q30 0 43 -20q13 -21 13 -57q0 -48 -20 -79t-58 -32q-29 0 -44 20q-14 20 -14 58q0 46 20 78
q20 31 60 32v0z" />
    <glyph glyph-name="ampersand" unicode="&#x26;" horiz-adv-x="805" 
d="M470 129q-31 -32 -72 -50q-42 -18 -96 -18q-57 -1 -93 25q-37 26 -38 89q1 52 26 89q25 38 67 61q56 -41 108 -91q53 -50 98 -105v0zM325 412q-33 26 -51 53t-18 65q2 54 29 74q27 21 57 20q26 1 46 -16t21 -61q0 -42 -22 -77q-22 -36 -62 -58v0zM592 401q-4 -46 -16 -95
q-13 -50 -35 -93q-37 40 -79 81q-43 40 -85 71v7q55 16 97 67t44 119q-3 74 -53 107q-50 32 -111 31q-76 1 -141 -45q-66 -46 -70 -145q0 -48 20 -81q19 -33 52 -54v-7q-66 -20 -113 -76q-46 -55 -48 -134q4 -96 72 -135q68 -40 156 -39q73 0 133 24q59 23 105 63
q25 -31 46 -67h160q0 15 -2 36q-2 20 -6 34q-18 4 -36 7q-19 3 -36 4q-11 17 -23 33t-24 30q29 43 49 90q20 46 32 92q15 3 31 7t27 9q8 14 15 35q7 22 8 38z" />
    <glyph glyph-name="quotesingle" unicode="'" horiz-adv-x="193" 
d="M90 452q21 50 42 122t27 124q-21 5 -49 9q-29 4 -53 4q-6 -55 -16 -122q-10 -68 -21 -126q14 -5 34 -8t36 -3v0z" />
    <glyph glyph-name="parenleft" unicode="(" horiz-adv-x="306" 
d="M138 -212q20 4 45 13q26 9 42 19q-20 75 -31 157q-10 83 -10 167q0 158 36 324q35 166 105 305q-25 0 -57 -7q-33 -6 -52 -16q-74 -150 -109 -288q-34 -138 -34 -280q0 -91 15 -191q15 -99 50 -203v0z" />
    <glyph glyph-name="parenright" unicode=")" horiz-adv-x="298" 
d="M-30 -182q15 -9 40 -18q24 -9 45 -13q86 173 125 322q38 149 37 302q0 89 -12 181q-13 93 -43 188q-24 -3 -48 -12q-24 -10 -39 -21q16 -67 24 -139q7 -73 7 -152q0 -165 -32 -328q-33 -163 -104 -310v0z" />
    <glyph glyph-name="asterisk" unicode="*" horiz-adv-x="412" 
d="M315 423q12 13 28 36q16 24 24 42l-83 37q-8 4 -20 7q-11 3 -20 4v7q10 1 22 4t21 7l97 46q-7 17 -19 36q-13 18 -23 29l-80 -53q-8 -6 -17 -14l-17 -17l-6 5q6 9 11 21t7 22l17 97q-18 0 -42 -3q-24 -2 -39 -6l-4 -88q-1 -9 2 -21q3 -11 6 -20l-7 -4q-3 6 -12 15
q-8 9 -15 15l-72 54q-12 -14 -24 -37q-12 -24 -16 -41l75 -36q8 -3 20 -7q13 -4 21 -5l-1 -7q-8 -2 -22 -5q-13 -4 -22 -8l-87 -36q3 -18 13 -39q10 -22 20 -34l81 58q7 5 16 14q10 9 16 15l5 -4q-4 -7 -10 -19q-5 -12 -7 -22l-18 -94q13 -2 23 -3q11 -1 21 -1q9 0 19 1
t20 3l3 94q0 10 -2 22t-5 21l5 4q4 -8 12 -16q7 -8 15 -15z" />
    <glyph glyph-name="plus" unicode="+" 
d="M323 314v204q-25 0 -56 -3q-31 -2 -51 -6v-195h-182q-5 -17 -9 -42t-4 -44h195v-204q11 -2 25 -4q15 -1 31 -1q15 0 29 1q13 2 22 4v204h191q3 14 3 32q0 13 -1 27q-2 15 -5 27h-188z" />
    <glyph glyph-name="comma" unicode="," horiz-adv-x="199" 
d="M40 15q-10 -36 -28 -79q-18 -44 -35 -83q8 -8 26 -17t33 -14q35 48 76 128q40 79 63 149q-18 6 -41 10q-23 3 -45 3q-11 0 -23 -1q-13 -1 -23 -4q-13 -14 -27 -37q-13 -24 -21 -44z" />
    <glyph glyph-name="hyphen" unicode="-" horiz-adv-x="335" 
d="M267 227q5 12 7 29q2 16 2 34v12q-1 8 -2 17h-234q-7 -19 -12 -44q-5 -26 -7 -48h246z" />
    <glyph glyph-name="period" unicode="." horiz-adv-x="256" 
d="M110 143q-33 -1 -54 -21t-22 -54q0 -40 19 -60t57 -20q33 0 53 21t21 59q0 37 -20 56t-54 19v0z" />
    <glyph glyph-name="slash" unicode="/" horiz-adv-x="430" 
d="M481 744q-20 7 -45 10q-26 4 -48 4l-415 -896q14 -10 41 -22t47 -16z" />
    <glyph glyph-name="zero" unicode="0" horiz-adv-x="609" 
d="M326 550q-139 -2 -218 -91t-80 -240q0 -121 55 -180t163 -59q141 2 220 91t80 239q0 121 -56 181q-56 59 -164 59v0zM311 472q60 -1 89 -44q28 -43 28 -122q0 -103 -42 -174q-43 -70 -124 -73q-58 0 -85 42q-28 43 -28 126q0 101 39 171q39 71 123 74v0z" />
    <glyph glyph-name="one" unicode="1" horiz-adv-x="428" 
d="M136 92q-24 -4 -52 -11t-47 -14q-8 -13 -16 -32q-7 -19 -12 -35h347q2 8 3 20q1 11 1 23v13q-1 6 -2 14q-21 6 -50 11q-30 6 -55 8l47 461q-76 -5 -138 -19q-63 -14 -96 -25q-9 -17 -16 -38q-6 -21 -10 -42l138 18z" />
    <glyph glyph-name="two" unicode="2" horiz-adv-x="531" 
d="M161 363l10 84q19 9 42 15q22 6 47 6q38 0 59 -17q21 -16 21 -50q-12 -87 -127 -174q-115 -86 -193 -144l5 -83h409q6 21 11 52q5 32 6 55q-70 -7 -144 -11q-73 -4 -142 -5v9q81 46 186 133q105 88 115 193q-2 66 -53 95q-52 30 -133 29q-62 -1 -113 -14q-52 -14 -92 -33
q-6 -23 -9 -48q-3 -26 -3 -52q0 -15 1 -30q1 -16 3 -29q23 0 49 5t45 14v0z" />
    <glyph glyph-name="three" unicode="3" horiz-adv-x="506" 
d="M153 453q17 6 40 11q23 4 44 4q33 1 57 -16q24 -16 25 -56q-4 -67 -65 -100q-61 -32 -134 -34q-7 -16 -11 -38q-5 -22 -5 -41q103 0 149 -23q47 -24 46 -75q-3 -61 -52 -88q-50 -27 -114 -26q-32 0 -74 6q-42 5 -74 15q-1 -7 -2 -11v-11q0 -14 4 -32t11 -33q28 -8 65 -14
q38 -6 74 -6q108 1 196 57t93 158q-1 62 -37 93q-35 30 -89 38v7q57 17 99 64q43 47 45 112q-2 72 -56 104q-54 33 -131 32q-47 0 -100 -11q-53 -10 -101 -29q-8 -35 -9 -73q-2 -37 4 -73q24 1 50 6q27 5 44 15z" />
    <glyph glyph-name="four" unicode="4" horiz-adv-x="539" 
d="M398 75h82q3 13 5 28t2 30q0 8 -1 15q0 7 -1 12h-80l35 370l-118 20q-89 -99 -172 -204q-84 -105 -155 -209l11 -62h281l-18 -168q10 -2 26 -4q16 -1 32 -1t31 1q15 2 24 4zM296 160h-108q-17 0 -37 -1t-34 -3v9q42 64 97 139q55 74 109 134h9q-5 -19 -9 -42
q-4 -24 -6 -43z" />
    <glyph glyph-name="five" unicode="5" horiz-adv-x="500" 
d="M102 530l-56 -338q39 8 73 12t60 4q60 1 91 -21q30 -22 30 -73q-2 -71 -52 -108q-49 -36 -119 -36q-30 0 -67 6q-38 5 -66 12q-1 -6 -2 -11v-11q0 -14 4 -31t11 -32q19 -6 55 -12q35 -6 74 -6q110 0 195 62q84 61 89 179q-1 84 -51 123t-132 39q-22 0 -41 -2t-37 -7
l22 154q64 -1 128 -4q64 -2 127 -6q20 54 23 107h-359z" />
    <glyph glyph-name="six" unicode="6" horiz-adv-x="553" 
d="M166 333q27 120 86 172q58 53 127 52q29 0 60 -7q32 -7 56 -20q3 12 3 29q0 16 -2 31q-3 15 -9 31q-23 11 -49 17q-27 6 -56 6q-145 -4 -243 -120q-99 -117 -103 -298q0 -120 52 -183q51 -63 150 -63q107 2 177 67q69 66 71 171q0 79 -45 128q-44 49 -129 51
q-51 -1 -85 -18q-34 -18 -52 -46h-9zM158 263q25 26 54 40t62 14q47 0 71 -28q25 -27 25 -79q-1 -62 -32 -106q-32 -45 -88 -47q-48 1 -72 40t-24 108q0 12 1 27q1 14 3 31v0z" />
    <glyph glyph-name="seven" unicode="7" horiz-adv-x="505" 
d="M473 530h-427l-30 -170q14 -7 39 -11q24 -5 41 -5q9 16 19 41t16 44h232v-9q-94 -117 -172 -246t-131 -265q28 -7 67 -7q18 0 32 1q15 1 29 5q47 135 123 271q75 136 172 272z" />
    <glyph glyph-name="eight" unicode="8" horiz-adv-x="549" 
d="M176 325q-63 -17 -106 -66q-42 -50 -44 -121q4 -89 67 -124t136 -34q97 0 171 51q73 50 77 153q-1 62 -30 97q-30 35 -76 52v7q50 15 86 58q35 43 37 105q-3 76 -58 109t-125 32q-84 0 -153 -44q-68 -44 -72 -137q1 -53 26 -84t64 -47v-7zM237 296q55 -24 90 -52
q34 -28 35 -81q-2 -59 -39 -84q-37 -26 -81 -25q-40 -1 -69 22q-30 23 -31 79q1 50 26 86q26 35 69 55v0zM307 370q-49 21 -80 47q-32 25 -33 69q3 52 38 71t65 18q30 1 57 -18q27 -18 29 -65q0 -36 -20 -68q-19 -33 -56 -54v0z" />
    <glyph glyph-name="nine" unicode="9" horiz-adv-x="550" 
d="M359 197q-27 -120 -87 -172q-60 -51 -132 -50q-30 0 -67 7q-37 6 -63 16l-2 -10v-10q0 -16 5 -35q4 -19 10 -33q24 -11 58 -18q33 -7 70 -7q148 4 239 120q90 116 93 293q0 123 -51 188q-50 64 -150 64q-106 -2 -174 -66t-70 -170q0 -80 44 -129q43 -50 131 -52
q51 0 85 18q33 17 52 46h9zM367 273q-23 -27 -53 -43t-66 -16q-48 0 -72 29t-24 80q1 64 33 107q32 42 87 44q50 0 74 -37q25 -38 25 -107q0 -14 -1 -28q-1 -15 -3 -29v0z" />
    <glyph glyph-name="colon" unicode=":" horiz-adv-x="235" 
d="M134 483q-33 -1 -54 -20q-20 -20 -21 -53q0 -39 19 -58q19 -20 56 -20q31 0 51 21q20 20 21 57q0 35 -20 54q-19 19 -52 19v0zM101 152q-33 -1 -54 -21t-22 -54q0 -40 19 -60t57 -20q33 0 53 21t21 59q0 37 -20 56t-54 19v0z" />
    <glyph glyph-name="semicolon" unicode=";" horiz-adv-x="242" 
d="M140 483q-32 -1 -53 -20q-20 -20 -21 -53q0 -39 19 -58q19 -20 55 -20q32 0 52 21q20 20 21 57q-1 35 -20 54q-20 19 -53 19v0zM52 15q-10 -36 -28 -79q-18 -44 -35 -83q8 -8 26 -17t33 -14q35 48 76 128q40 79 63 149q-18 6 -41 10q-23 3 -45 3q-11 0 -23 -1
q-13 -1 -23 -4q-13 -14 -27 -37q-13 -24 -21 -44z" />
    <glyph glyph-name="less" unicode="&#x3c;" 
d="M466 465q-14 15 -37 34t-43 30l-303 -224l-4 -69l316 -230q16 11 35 34t26 39l-259 186v9z" />
    <glyph glyph-name="equal" unicode="=" 
d="M484 318q3 14 3 32q0 13 -1 28q-2 15 -5 27h-423q-5 -17 -8 -42q-4 -25 -4 -45h438zM484 131q3 14 3 32q0 13 -1 28q-2 15 -5 27h-423q-5 -17 -9 -42t-4 -45h439z" />
    <glyph glyph-name="greater" unicode="&#x3e;" 
d="M466 237l-4 68l-304 218q-21 -10 -44 -28q-23 -19 -37 -35l270 -188v-9l-260 -188q7 -17 27 -40q19 -23 35 -33z" />
    <glyph glyph-name="question" unicode="?" horiz-adv-x="479" 
d="M186 625q18 9 37 14q19 4 37 4q42 -1 61 -22q18 -22 18 -50q-12 -79 -98 -138q-86 -60 -98 -148q0 -25 9 -49q9 -25 22 -44q25 3 52 13q27 9 44 21q-7 13 -11 28t-4 31q13 74 106 132t106 171q-1 61 -47 97q-46 35 -130 36q-50 0 -105 -12q-56 -11 -96 -27
q-6 -57 -6 -108v-31l2 -32q21 1 48 7q26 5 44 15zM217 134q-31 -1 -52 -21q-20 -20 -21 -51q0 -38 19 -58q18 -20 54 -20q31 0 51 21t21 57q0 35 -20 53q-19 19 -52 19v0z" />
    <glyph glyph-name="at" unicode="@" horiz-adv-x="987" 
d="M688 434q-24 20 -64 33q-39 14 -88 14q-62 0 -111 -24t-84 -65q-39 -48 -60 -109q-22 -62 -22 -125q1 -81 34 -118t88 -37q41 0 77 18q37 18 62 50h7q2 -17 7 -36t12 -32q199 17 297 131t98 258q-4 159 -109 243t-268 85q-235 -6 -385 -161t-155 -390q1 -184 104 -290
q102 -106 289 -108q77 0 156 19q80 19 147 57q-4 14 -13 32q-9 19 -17 29q-55 -28 -120 -43q-65 -16 -129 -16q-154 2 -237 92q-84 90 -85 243q4 194 122 323t306 134q122 0 210 -63q88 -64 92 -195q0 -97 -56 -182t-166 -106q-2 6 -4 13q-1 8 -2 15zM526 146
q-18 -26 -44 -41q-27 -15 -54 -15q-29 -1 -44 21q-15 21 -15 71q0 41 12 86q13 45 38 81q19 28 46 45t64 17q12 0 26 -3t24 -8z" />
    <glyph glyph-name="A" unicode="A" horiz-adv-x="727" 
d="M688 0q0 17 -2 37q-1 21 -5 37q-11 4 -27 7q-15 3 -27 5l-181 627h-81l-308 -630q-12 -2 -25 -5q-14 -3 -25 -7q-8 -15 -14 -34q-7 -19 -11 -37h256q0 14 -3 36t-6 35q-17 4 -35 7q-19 2 -36 3q11 17 21 37q11 20 17 35l26 60h245l14 -53q5 -18 12 -39q7 -20 17 -36
q-15 -2 -35 -5q-21 -4 -34 -8q-7 -15 -14 -36q-6 -20 -9 -36h270zM385 590q0 -26 6 -61q5 -35 11 -57l48 -185h-196l81 184q11 23 23 58q13 35 18 61h9z" />
    <glyph glyph-name="B" unicode="B" horiz-adv-x="647" 
d="M467 376q55 15 89 60q33 45 34 105q-2 87 -72 129q-69 42 -179 42q-57 0 -120 -3q-64 -2 -127 -7q-4 -15 -5 -38q-2 -23 -1 -38q15 -2 33 -4q19 -1 35 -2l-52 -533q-17 -2 -37 -5q-20 -4 -34 -9q-6 -14 -12 -34t-8 -37q61 -3 140 -5q78 -2 148 -2q117 -1 204 52
q88 52 92 167q0 64 -33 102t-95 53v7zM243 327h78q71 1 112 -28t42 -93q-1 -67 -47 -100t-129 -33q-18 0 -39 1q-20 1 -39 3zM267 632q13 2 28 2q16 1 26 1q73 0 112 -27q40 -27 40 -86q-1 -61 -41 -89q-40 -29 -108 -29h-76z" />
    <glyph glyph-name="C" unicode="C" horiz-adv-x="621" 
d="M478 522q18 -10 44 -16t48 -6q10 36 19 85q8 50 13 94q-35 18 -82 30q-46 12 -98 12q-161 -2 -268 -113q-108 -110 -112 -306q1 -148 71 -234q71 -86 200 -88q55 1 109 15q55 14 97 35q10 16 18 41q8 24 8 42q-43 -16 -95 -26t-93 -10q-88 -1 -137 57q-50 58 -51 184
q2 151 66 236q65 85 170 86q23 0 43 -4q20 -5 40 -14z" />
    <glyph glyph-name="D" unicode="D" horiz-adv-x="713" 
d="M103 88q-17 -2 -37 -6q-21 -4 -35 -8q-6 -14 -12 -34t-8 -37q65 -4 153 -6q88 -3 159 -3q143 0 246 100q102 99 107 291q-2 168 -89 246q-87 79 -240 78q-54 0 -126 -5q-72 -4 -130 -11q-3 -14 -5 -38q-1 -24 0 -38q14 -2 33 -4q18 -2 34 -3zM267 625q13 2 31 4
q17 1 30 1q106 1 166 -61t61 -196q-1 -144 -68 -221t-185 -78q-19 0 -40 1q-22 1 -40 3z" />
    <glyph glyph-name="E" unicode="E" horiz-adv-x="606" 
d="M520 0l15 173q-19 0 -46 -3q-26 -3 -43 -8q-6 -17 -12 -40q-5 -23 -9 -43h-206l20 239h166q0 -13 2 -28q1 -15 3 -25q16 -5 39 -7q22 -1 42 1l16 194q-20 0 -42 -3q-23 -3 -40 -8q-3 -10 -7 -24q-4 -15 -6 -25h-168l20 231h209q0 -17 2 -39q2 -21 4 -36q17 -5 39 -8
q23 -3 42 -3l16 163h-488q-3 -13 -5 -36q-1 -22 0 -38q12 -2 32 -5q19 -2 36 -4l-52 -533q-17 -2 -38 -6q-22 -4 -35 -8q-7 -14 -13 -34t-8 -37h515z" />
    <glyph glyph-name="F" unicode="F" horiz-adv-x="551" 
d="M238 305h147q1 -13 2 -29t3 -26q16 -5 39 -7q22 -2 42 0l17 200q-19 0 -42 -3q-22 -3 -39 -8q-5 -11 -8 -26q-4 -16 -6 -26h-149l19 244h190q0 -18 2 -42t4 -38q17 -6 40 -9t42 -3l15 169h-469q-4 -13 -5 -36q-1 -22 0 -38q12 -2 32 -5q19 -2 36 -4l-49 -533
q-17 -2 -38 -6q-22 -4 -35 -8q-7 -14 -13 -34t-8 -37h306q3 14 4 36t-2 37q-19 4 -45 7q-26 2 -50 4z" />
    <glyph glyph-name="G" unicode="G" horiz-adv-x="715" 
d="M597 267q16 1 37 3q21 3 35 6q6 16 11 37t7 37h-330q0 -16 2 -37q1 -21 5 -36q27 -5 61 -8q34 -2 62 -3l-18 -190q-26 -5 -52 -7q-27 -3 -50 -3q-93 -1 -145 56q-51 56 -52 181q3 159 75 249q72 89 181 91q26 0 52 -6q26 -5 49 -18l-10 -102q14 -7 42 -14t49 -7
q11 33 20 83t13 87q-42 27 -90 41q-49 14 -108 14q-180 -3 -288 -120t-111 -311q0 -145 69 -227t205 -83q69 1 142 17t117 32z" />
    <glyph glyph-name="H" unicode="H" horiz-adv-x="796" 
d="M548 320l-22 -235q-15 -2 -36 -6q-20 -4 -33 -8q-5 -14 -11 -34q-5 -20 -8 -37h285q4 14 5 36t-2 37q-16 4 -38 7q-22 2 -42 4l45 535q18 1 39 3q21 3 37 6q5 12 7 27q2 16 2 29v7t-1 10h-255q-4 -13 -5 -36q-2 -22 -1 -38l30 -5q19 -2 35 -4l-22 -216h-308l19 217
q16 1 36 3q20 3 35 6q5 14 7 37q3 22 2 36h-255q-3 -13 -5 -36q-1 -22 0 -38q11 -2 31 -5q19 -2 36 -4l-53 -533q-16 -2 -38 -6q-21 -4 -35 -8q-6 -14 -12 -34t-9 -37h286q3 14 4 36t-1 37q-16 5 -37 7q-21 3 -38 4l21 236h305z" />
    <glyph glyph-name="I" unicode="I" horiz-adv-x="371" 
d="M299 0q3 14 4 36t-1 37q-17 4 -39 7q-22 2 -42 4l46 535q18 1 39 3q21 3 37 6q5 12 7 27q2 16 2 29v7t-1 10h-260q-3 -13 -5 -36q-1 -22 0 -38q12 -2 32 -5q19 -2 36 -4l-53 -533q-17 -2 -38 -6q-22 -4 -35 -8q-7 -14 -13 -34t-8 -37h292z" />
    <glyph glyph-name="J" unicode="J" horiz-adv-x="349" 
d="M270 619q17 1 39 3q21 3 36 6q5 12 7 27q2 16 2 29v7t-1 10h-276q-3 -13 -5 -36q-1 -22 0 -38q16 -2 39 -5q24 -2 45 -4l-37 -405q-9 -111 -56 -194q-47 -84 -137 -136q3 -15 13 -34t20 -30q125 58 196 165q72 107 84 255z" />
    <glyph glyph-name="K" unicode="K" horiz-adv-x="684" 
d="M249 393l20 226q16 1 35 3q20 3 34 6q5 14 8 37q2 22 1 36h-254q-3 -13 -5 -36q-1 -22 0 -38q12 -2 32 -5q19 -2 36 -4l-53 -533q-17 -2 -38 -6q-22 -4 -35 -8q-7 -14 -13 -34t-8 -37h282q3 14 4 36t-1 37q-15 4 -34 7q-19 2 -37 4l21 236h43l208 -338q28 2 63 7
q34 5 59 11q9 16 16 41q7 24 8 44l-63 -4l-190 285l210 251q13 1 30 2q16 2 29 4q7 16 13 39q7 22 9 39h-246q-1 -15 0 -37q0 -21 3 -38q11 -2 27 -5q17 -2 30 -3q-13 -10 -28 -26q-15 -17 -25 -30l-133 -169h-58z" />
    <glyph glyph-name="L" unicode="L" horiz-adv-x="593" 
d="M101 85q-17 -2 -38 -6q-22 -4 -35 -8q-7 -14 -13 -34t-8 -37h521l18 191q-19 0 -46 -3q-26 -3 -45 -9q-6 -19 -13 -47q-7 -29 -10 -52h-211l46 539q20 0 48 3t47 6q5 14 8 37q3 22 2 36h-280q-3 -13 -5 -36q-1 -22 0 -38q11 -2 31 -5q19 -2 36 -4z" />
    <glyph glyph-name="M" unicode="M" horiz-adv-x="915" 
d="M369 -12h84l197 461q15 36 30 80q14 44 23 84h9l-50 -528q-16 -2 -35 -6t-32 -8q-6 -14 -11 -34q-6 -20 -8 -37h272q2 13 4 36q1 22 -2 36q-17 4 -38 7q-21 2 -41 4l45 536q18 1 40 3q22 3 38 6q5 12 7 27q2 16 2 29v7t-1 10h-222l-190 -426q-14 -32 -27 -74
q-14 -42 -21 -75h-9q-1 38 -6 82q-5 45 -13 77l-105 416h-227q-3 -13 -5 -36q-1 -22 0 -38q12 -2 31 -5q18 -2 34 -4l-52 -534q-14 -2 -33 -6t-32 -8q-5 -13 -10 -33t-8 -37h234q3 13 4 36q1 22 -1 35q-13 5 -29 8q-17 3 -33 4l45 528h9q2 -40 8 -85q7 -46 15 -82z" />
    <glyph glyph-name="N" unicode="N" horiz-adv-x="750" 
d="M306 701h-219q-3 -13 -5 -36q-1 -22 0 -38q12 -2 31 -5q19 -2 36 -4l-53 -533q-15 -2 -36 -6q-20 -4 -34 -8q-5 -14 -11 -34q-5 -20 -8 -37h257q4 13 5 36t-2 37q-15 4 -36 7q-20 2 -39 4l44 512h9q3 -24 12 -54t18 -52l206 -497h134l55 626q16 1 36 3q19 3 33 6
q5 12 7 27q2 16 2 29v7t-1 10h-226q-4 -13 -5 -36q-2 -22 -1 -38q14 -2 34 -5q21 -2 39 -4l-49 -494h-9q-4 34 -13 69q-8 34 -19 60z" />
    <glyph glyph-name="O" unicode="O" horiz-adv-x="713" 
d="M394 721q-160 -3 -252 -120q-92 -116 -94 -309q0 -153 69 -232q69 -80 201 -80q161 3 253 118q92 116 94 312q-1 153 -73 232q-71 79 -198 79v0zM384 640q76 -1 117 -65q41 -63 41 -172q0 -147 -55 -242q-54 -96 -157 -99q-77 1 -117 64q-41 63 -41 175q0 140 52 237
q52 98 160 102v0z" />
    <glyph glyph-name="P" unicode="P" horiz-adv-x="592" 
d="M102 85q-17 -2 -38 -6t-35 -8q-6 -14 -12 -34t-9 -37h309q4 13 4 36q1 23 -2 37q-21 4 -48 7q-26 2 -51 4l13 196q20 -4 44 -6t47 -2q104 0 182 62t82 183q-2 111 -77 154q-76 42 -205 40q-49 0 -112 -4q-63 -3 -112 -8q-2 -16 -4 -40q-1 -23 0 -38q15 -2 34 -4
q18 -1 34 -1zM257 629q12 2 31 2q18 1 31 1q74 0 113 -31q39 -32 39 -101q-1 -74 -42 -112t-104 -38q-20 0 -44 2q-25 2 -42 4z" />
    <glyph glyph-name="Q" unicode="Q" horiz-adv-x="729" 
d="M394 721q-162 -3 -255 -119q-92 -115 -94 -306q0 -156 69 -236q68 -80 200 -80q32 0 61 5q28 5 55 14q51 -51 120 -100q68 -49 109 -53q13 0 34 5q20 5 33 10q11 20 19 48q8 29 8 53l-76 -9q-21 3 -68 33t-86 63v7q63 46 101 138q39 91 40 209q-1 158 -72 238
q-72 80 -198 80v0zM380 640q80 -1 120 -65q41 -64 41 -179q-1 -141 -56 -236q-55 -94 -157 -98q-78 1 -118 65q-41 63 -41 181q0 136 53 232t158 100v0z" />
    <glyph glyph-name="R" unicode="R" horiz-adv-x="656" 
d="M103 85q-16 -2 -38 -6q-21 -4 -35 -8q-6 -14 -12 -34t-9 -37h283q3 13 4 36t-1 37q-16 5 -37 7q-21 3 -37 4l18 223q18 -3 39 -4q21 -2 42 -2q43 -121 86 -210q42 -88 64 -108q25 2 59 7t60 13q9 15 15 40q6 24 6 44l-56 -5q-17 15 -53 82t-72 154q67 22 114 76
q46 54 48 133q-2 95 -70 140q-69 45 -176 45q-63 0 -130 -3q-67 -4 -126 -10q-2 -16 -4 -39q-2 -24 -1 -39q14 -2 33 -4q20 -1 36 -1zM265 630q12 2 28 2q16 1 30 1q69 0 110 -30q40 -30 41 -94q-2 -69 -44 -101q-43 -33 -107 -33q-15 0 -40 1t-38 3z" />
    <glyph glyph-name="S" unicode="S" horiz-adv-x="561" 
d="M406 543q17 -8 42 -14q24 -5 44 -5q12 35 21 82t13 83q-44 15 -94 24q-49 8 -92 8q-115 -1 -177 -58q-61 -57 -62 -155q18 -148 143 -190q125 -43 143 -141q-1 -58 -37 -89t-100 -31q-29 0 -56 7q-28 6 -51 18l9 103q-19 7 -48 11q-28 4 -48 4q-9 -37 -18 -89
q-8 -52 -12 -93q43 -19 95 -28q52 -10 104 -10q115 -2 195 51q80 52 83 179q-18 145 -144 188q-127 44 -145 143q0 46 32 75t92 30q43 0 76 -18z" />
    <glyph glyph-name="T" unicode="T" horiz-adv-x="589" 
d="M377 624h131q-1 -20 1 -44q2 -25 5 -42q18 -5 41 -8q22 -2 43 -2l16 173h-569l-15 -169q19 0 43 2t44 7q6 16 12 41q6 24 9 42h127l-50 -539q-18 -2 -42 -6q-25 -4 -40 -9q-7 -14 -14 -33q-6 -20 -9 -37h314q3 14 4 36t-2 37q-19 4 -43 7q-25 2 -48 4z" />
    <glyph glyph-name="U" unicode="U" horiz-adv-x="698" 
d="M226 619q18 1 39 3q21 3 37 6q5 14 7 37q3 23 2 36h-267q-2 -15 -2 -30q0 -22 3 -43q15 -3 33 -6q18 -2 34 -3l-32 -357q-1 -13 -2 -28q-1 -14 -1 -26q0 -113 56 -170q56 -58 172 -58q149 2 223 81q73 80 82 213l26 345q15 1 33 3q19 3 32 6q5 12 7 27q2 16 2 29v7t-1 10
h-220q-4 -13 -6 -36q-1 -23 0 -38l30 -5q17 -2 33 -4l-33 -351q-8 -88 -51 -146q-43 -57 -127 -59q-70 0 -103 42q-34 42 -34 122q0 10 1 22q0 13 1 22z" />
    <glyph glyph-name="V" unicode="V" horiz-adv-x="683" 
d="M330 105q-2 30 -7 66t-11 63l-65 279q-6 28 -17 57q-11 30 -20 48q18 1 43 3q24 2 39 4q8 16 15 38q6 22 8 38h-281q0 -16 3 -37q2 -21 6 -36q11 -2 26 -5t27 -5l160 -631h104l281 631q13 1 28 3t27 4q6 15 12 37q5 22 7 39h-246q0 -15 3 -37t6 -35q15 -4 34 -6
q19 -3 35 -4q-14 -21 -27 -48q-14 -27 -25 -53l-117 -291q-10 -26 -21 -59q-11 -34 -18 -63h-9z" />
    <glyph glyph-name="W" unicode="W" horiz-adv-x="981" 
d="M282 94q0 31 -3 74t-7 74l-38 278q-3 25 -10 52q-7 26 -15 46q18 0 40 2q22 3 36 5q7 16 13 38t8 38h-266q0 -15 2 -36t6 -37q10 -2 24 -5t26 -5l103 -631h123l162 489q9 27 16 63q8 36 11 67h10q0 -29 1 -66t4 -64l57 -488h113l239 630q13 1 27 3t24 4q7 15 12 37t7 39
h-225q0 -15 2 -36q2 -22 5 -37q13 -4 30 -6q17 -3 32 -4q-11 -19 -22 -43q-10 -24 -18 -46l-106 -303q-9 -24 -17 -59t-12 -66h-9q0 34 -2 75t-5 68l-59 466h-119l-163 -485q-9 -26 -17 -63t-11 -68h-9z" />
    <glyph glyph-name="X" unicode="X" horiz-adv-x="697" 
d="M383 424l-70 129q-9 16 -21 34q-13 18 -25 31q16 1 34 3t31 4q7 16 13 38t8 38h-273q0 -17 3 -37q2 -21 6 -37q11 -3 26 -6q15 -2 28 -4l134 -243l-214 -293q-13 -2 -28 -4q-16 -3 -29 -7q-7 -14 -13 -33q-7 -19 -10 -37h260q0 15 -2 37q-2 21 -5 36q-13 3 -30 6
q-18 2 -33 3q14 13 30 31q15 18 26 36l91 150l82 -147q10 -18 23 -38t27 -33q-15 -1 -31 -3q-17 -3 -29 -6q-6 -13 -12 -34q-7 -21 -10 -38h275q0 16 -3 38q-3 21 -6 36q-14 4 -31 7q-17 2 -29 3l-154 271l188 264q10 0 24 2q14 1 24 3q8 15 13 38q6 23 7 39h-223
q0 -15 2 -36q2 -22 6 -37q10 -3 25 -5q14 -2 27 -3q-12 -13 -25 -29q-12 -17 -21 -30z" />
    <glyph glyph-name="Y" unicode="Y" horiz-adv-x="611" 
d="M312 343q-1 20 -7 44q-6 25 -12 41l-51 131q-6 15 -14 31t-18 29q16 1 36 2q20 2 35 5q6 15 11 37q6 21 8 38h-265q0 -18 1 -38t5 -36q10 -3 24 -6q14 -2 25 -3l144 -351l-17 -182q-18 -2 -43 -6q-24 -4 -40 -9q-6 -14 -13 -33q-7 -20 -10 -37h313q3 14 4 36t-2 37
q-19 4 -43 7q-24 2 -47 4l14 185l226 350q12 1 25 2q14 2 24 4q6 15 11 38q5 22 6 38h-223q0 -15 2 -37q2 -21 5 -36q11 -3 27 -6q15 -2 29 -3q-12 -11 -24 -27q-13 -17 -21 -31l-80 -135q-10 -17 -20 -40t-15 -43h-10z" />
    <glyph glyph-name="Z" unicode="Z" horiz-adv-x="582" 
d="M12 0h497l18 194q-21 0 -48 -4t-44 -10q-6 -18 -13 -47q-8 -29 -12 -51h-242v10l381 530l8 79h-469l-17 -182q21 0 48 3q27 2 45 6q6 18 14 47q7 28 10 46h223v-9l-393 -533z" />
    <glyph glyph-name="bracketleft" unicode="[" horiz-adv-x="313" 
d="M35 -202h194q3 13 5 34q1 21 -1 34q-14 4 -37 7q-22 3 -40 4l72 809q14 1 33 3t33 5q5 11 8 27q3 15 3 30v6t-1 9h-174z" />
    <glyph glyph-name="backslash" unicode="\" horiz-adv-x="406" 
d="M86 776q-21 -5 -44 -21q-24 -15 -36 -28l239 -897q22 2 50 11q29 9 44 18z" />
    <glyph glyph-name="bracketright" unicode="]" horiz-adv-x="315" 
d="M247 766h-170q-5 -13 -6 -36q-2 -22 -1 -36q12 -2 31 -5q18 -2 33 -3l-80 -809q-18 -1 -39 -4q-21 -2 -37 -5q-5 -14 -9 -35q-4 -20 -6 -35h197z" />
    <glyph glyph-name="asciicircum" unicode="^" 
d="M45 374q9 -14 27 -31q18 -18 35 -29l113 190q11 19 22 44q12 25 18 45h9q7 -21 20 -47t23 -44l107 -177q19 6 43 18q23 12 38 22l-198 318l-78 -7z" />
    <glyph glyph-name="underscore" unicode="_" horiz-adv-x="500" 
d="M-2 -160q-5 -17 -9 -40q-3 -23 -3 -40h518q2 7 2 15q1 7 1 15q0 11 -1 24t-4 26h-504z" />
    <glyph glyph-name="grave" unicode="`" horiz-adv-x="427" 
d="M217 547q16 1 39 9t36 17l-96 175q-28 0 -60 -10t-51 -23z" />
    <glyph glyph-name="a" unicode="a" horiz-adv-x="530" 
d="M295 60q2 -18 10 -39q7 -22 16 -38q28 0 69 8q41 7 67 17q8 14 14 35q7 22 7 38l-74 -7q-2 3 -3 10q-2 6 -2 9l44 352q-29 20 -69 34q-40 13 -90 14q-65 -1 -115 -27q-51 -27 -85 -73q-34 -47 -52 -105q-17 -59 -17 -121q1 -97 39 -141q37 -44 96 -43q41 0 77 20
q36 19 61 57h7zM291 131q-19 -30 -43 -46t-51 -16q-32 0 -50 25q-18 26 -18 84q0 40 10 91t31 86q17 28 47 48q30 19 64 20q12 0 26 -3q14 -2 24 -7z" />
    <glyph glyph-name="b" unicode="b" horiz-adv-x="530" 
d="M32 14q37 -12 81 -21q45 -10 86 -10q129 3 200 93q70 90 71 227q-2 107 -43 149q-42 43 -101 41q-53 -1 -87 -25t-50 -58h-12q9 35 18 82q9 46 13 85l14 146q-10 2 -25 4t-26 2q-33 0 -62 -7t-50 -18q-9 -10 -15 -33t-6 -35l70 7zM178 338q16 29 45 49t61 21q37 0 53 -32
q17 -33 17 -95q1 -89 -34 -154q-34 -64 -115 -67q-16 0 -30 3q-15 2 -26 6z" />
    <glyph glyph-name="c" unicode="c" horiz-adv-x="459" 
d="M301 341q15 -10 38 -15q24 -6 43 -6q14 31 21 65q8 35 8 68q-26 18 -58 29q-33 11 -73 11q-59 -1 -110 -25q-50 -25 -84 -68q-33 -43 -51 -105q-19 -61 -19 -123q0 -89 42 -138q41 -50 126 -51q52 1 95 18q42 16 71 39q9 15 16 38q7 22 7 40q-30 -16 -73 -29t-81 -14
q-45 0 -66 29t-21 94q0 46 10 89t31 76q16 26 39 40q23 15 53 15q11 0 22 -2q11 -3 21 -8z" />
    <glyph glyph-name="d" unicode="d" horiz-adv-x="541" 
d="M487 723q-10 2 -25 4t-26 2q-33 0 -62 -7t-50 -18q-9 -10 -15 -33t-6 -35l70 7l-23 -166q-17 8 -36 12q-20 4 -40 4q-60 -1 -110 -29q-50 -29 -83 -76q-32 -46 -48 -104q-17 -59 -17 -120q1 -96 40 -139t100 -42q43 0 81 20q38 19 63 57h7q3 -18 10 -39q7 -22 16 -38
q28 0 68 8q41 7 67 17q8 14 14 35q7 22 7 38l-74 -7q-1 3 -2 10q-2 6 -2 9zM304 130q-20 -29 -46 -45q-25 -15 -54 -15q-35 -1 -54 25q-19 25 -19 85q0 41 10 89q11 47 34 86q18 28 46 47q28 18 64 19q15 0 29 -3q15 -4 26 -10z" />
    <glyph glyph-name="e" unicode="e" horiz-adv-x="454" 
d="M131 200q162 11 220 61q59 50 55 112q0 57 -35 88q-34 32 -100 32q-58 -1 -103 -23q-45 -23 -77 -62q-38 -49 -57 -114q-18 -65 -18 -128q0 -90 39 -136q38 -47 119 -47q57 1 101 19q45 19 74 43q8 15 14 37q6 21 6 39q-32 -19 -77 -31q-45 -13 -82 -14q-40 -1 -60 23
q-19 24 -19 79v22zM138 273q3 23 10 48t19 45q15 25 38 41q22 16 48 16q24 0 35 -16q10 -15 10 -40q3 -33 -28 -60t-132 -34v0z" />
    <glyph glyph-name="f" unicode="f" horiz-adv-x="336" 
d="M199 476l8 67q9 68 35 97q26 28 56 27q5 0 12 -1t12 -4l-8 -55q15 -9 37 -15q23 -7 42 -7q12 27 22 64q9 37 9 66q-32 10 -61 15t-52 5q-76 1 -135 -46q-58 -46 -73 -152l-6 -50q-17 -3 -33 -8q-17 -5 -31 -10q-7 -13 -14 -32q-7 -20 -10 -38h79l-67 -545q11 -3 23 -4
q13 -1 27 -1q18 0 35 1q18 2 30 4l56 545h131q3 16 4 39q1 22 0 38h-128z" />
    <glyph glyph-name="g" unicode="g" horiz-adv-x="509" 
d="M310 76q-8 -20 -15 -46t-10 -51q-7 -60 -35 -98q-29 -38 -92 -39q-36 0 -76 13q-41 13 -81 37q-3 -10 -4 -20q-1 -11 -1 -21q0 -19 3 -36q3 -18 10 -34q33 -11 73 -18q41 -7 76 -7q127 3 180 79q53 77 62 192l45 418q-28 19 -68 33q-41 14 -89 15q-65 -1 -117 -28
q-52 -26 -85 -70q-35 -45 -52 -105q-18 -59 -18 -120q1 -94 40 -137q38 -44 98 -43q44 0 81 22t62 64h13zM334 412l-29 -258q-21 -38 -48 -58q-27 -19 -57 -19q-32 0 -51 25t-19 81q0 40 10 90t32 84q17 26 47 46q30 19 63 20q12 0 27 -3q14 -3 25 -8v0z" />
    <glyph glyph-name="h" unicode="h" horiz-adv-x="556" 
d="M30 3q10 -3 23 -4t27 -1q18 0 35 1q18 2 30 4l36 324q13 28 43 55q29 26 66 28q31 0 45 -21q14 -20 14 -54q-1 -44 -14 -127t-24 -142q1 -17 13 -42t27 -41q28 0 68 8q40 7 67 17q8 14 14 35q7 22 7 38l-75 -8q-1 3 -2 8q-2 6 -2 9q7 51 20 137t14 136q-2 75 -38 103
q-37 28 -85 27q-58 -1 -93 -25q-35 -25 -53 -56h-12q10 39 18 80q7 41 12 86l15 145q-10 2 -24 4q-15 2 -26 2q-33 0 -61 -7q-29 -7 -50 -18q-9 -10 -15 -33q-7 -23 -7 -35l70 7z" />
    <glyph glyph-name="i" unicode="i" horiz-adv-x="287" 
d="M86 401l-51 -335q1 -17 13 -42t27 -41q28 0 68 8q40 7 67 17q8 14 14 35q7 22 7 38l-74 -8q-2 3 -3 8q-2 6 -2 9l47 391q-10 2 -25 4t-26 2q-33 0 -62 -7t-50 -18q-9 -10 -15 -33q-7 -23 -7 -35zM163 735q-30 -1 -50 -20q-19 -19 -20 -50q0 -37 18 -56t52 -19q30 0 49 20
q18 19 19 55q0 33 -19 52q-18 18 -49 18v0z" />
    <glyph glyph-name="j" unicode="j" horiz-adv-x="272" 
d="M-21 -233q75 68 127 157q52 88 65 199l39 358q-10 2 -25 4t-26 2q-33 0 -63 -7q-29 -7 -50 -18q-9 -10 -15 -33t-6 -35l71 7l-39 -309q-13 -88 -50 -160t-82 -118q8 -14 24 -27q15 -13 30 -20v0zM163 735q-30 -1 -50 -20q-19 -19 -20 -50q0 -37 18 -56t52 -19q30 0 49 20
q18 19 19 55q0 33 -19 52q-18 18 -49 18v0z" />
    <glyph glyph-name="k" unicode="k" horiz-adv-x="510" 
d="M30 3q10 -3 23 -4t27 -1q18 0 35 1q18 2 30 4l17 161q11 5 26 13q14 7 25 14q29 -63 61 -123q33 -59 61 -91q25 2 55 9q30 6 51 15q8 16 13 39q6 22 6 38l-59 -10q-21 26 -50 73q-28 46 -54 98q56 39 100 84q43 44 70 80q-1 17 -14 45q-12 27 -23 39q-28 0 -62 -4
q-35 -3 -60 -10q-11 -11 -18 -32q-8 -22 -10 -38l66 3q2 -4 2 -8q1 -5 1 -9q-31 -37 -79 -79t-101 -75l53 488q-10 2 -25 4t-26 2q-33 0 -62 -7t-50 -18q-9 -10 -15 -33q-7 -23 -7 -35l71 7z" />
    <glyph glyph-name="l" unicode="l" horiz-adv-x="284" 
d="M225 723q-10 2 -25 4t-26 2q-33 0 -62 -7t-50 -18q-9 -10 -15 -33t-6 -35l70 7l-77 -577q1 -17 13 -42t27 -41q28 0 68 8q40 7 67 17q8 14 14 35q7 22 7 38l-74 -8q-2 3 -3 8q-2 6 -2 9z" />
    <glyph glyph-name="m" unicode="m" horiz-adv-x="820" 
d="M304 3q10 -3 22 -4q13 -1 27 -1q18 0 34 1q16 2 29 4l38 328q15 29 42 53q28 25 60 26q29 0 43 -20q13 -20 13 -53q-1 -44 -14 -128t-24 -143q1 -17 13 -42t27 -41q28 0 68 8q40 7 67 17q9 14 15 35q7 22 7 38l-75 -8q-2 3 -3 8q-2 6 -2 9q7 51 20 137q13 87 14 137
q-2 74 -37 102t-83 27q-59 -1 -96 -29q-36 -28 -52 -65h-7q-9 53 -40 74q-32 21 -74 20q-60 -2 -97 -30q-37 -29 -53 -66h-12l9 84q-21 6 -45 6q-28 0 -54 -7q-27 -7 -45 -18q-9 -10 -15 -33t-6 -35l71 7l-56 -398q10 -3 23 -4t27 -1q18 0 35 1q18 2 30 4l36 328
q15 28 43 53q27 24 60 26q29 0 44 -19q14 -18 14 -51q0 -36 -12 -130q-11 -94 -29 -207v0z" />
    <glyph glyph-name="n" unicode="n" horiz-adv-x="554" 
d="M173 397l9 84q-21 6 -44 6q-28 0 -55 -7q-26 -7 -44 -18q-9 -10 -15 -33q-7 -23 -7 -35l72 7l-56 -398q10 -3 23 -4t27 -1q18 0 35 1q18 2 30 4l37 328q15 28 43 53q29 24 63 26q30 0 44 -21q13 -20 13 -54q-1 -44 -14 -127t-24 -142q1 -17 13 -42t27 -41q28 0 68 8
q40 7 67 17q9 14 15 35q7 22 7 38l-75 -8q-2 3 -3 8q-2 6 -2 9q7 51 20 137t14 136q-2 75 -38 103t-84 27q-64 -2 -101 -30q-36 -29 -53 -66h-12z" />
    <glyph glyph-name="o" unicode="o" horiz-adv-x="504" 
d="M194 -17q66 1 116 28q51 27 82 74q27 41 42 96t15 111q-1 99 -47 150t-130 51q-70 -1 -123 -32q-52 -32 -85 -87q-23 -39 -35 -89q-11 -50 -11 -101q0 -99 45 -150t131 -51v0zM211 59q-40 0 -59 33q-18 34 -18 102q0 38 6 79q6 40 22 73q15 31 39 51q25 20 57 21
q40 0 58 -34t18 -99q0 -43 -8 -84q-8 -42 -24 -75q-15 -31 -38 -49q-22 -18 -53 -18v0z" />
    <glyph glyph-name="p" unicode="p" horiz-adv-x="535" 
d="M7 -225q11 -3 24 -4q12 -1 26 -1q18 0 35 1q18 2 30 4l23 224q15 -8 36 -12q22 -4 44 -4q123 5 187 99q64 93 64 221q-1 105 -41 148t-101 42q-55 -1 -91 -27q-37 -26 -59 -65h-12l10 80q-21 6 -45 6q-28 0 -54 -7t-45 -18q-9 -10 -15 -33t-6 -35l71 7zM183 332
q19 35 46 56t60 21q37 0 55 -30q18 -31 18 -98q2 -82 -31 -149q-33 -68 -122 -72q-17 0 -31 3q-15 2 -26 7z" />
    <glyph glyph-name="q" unicode="q" horiz-adv-x="516" 
d="M315 69q-7 -19 -14 -46q-6 -28 -8 -49l-12 -136q1 -16 13 -41t26 -41q27 0 66 8t65 17q8 14 14 35t6 36l-72 -7q-2 3 -3 8q-2 6 -2 9l58 585q-29 19 -69 32t-90 14q-67 -1 -118 -28t-85 -72q-35 -47 -53 -105q-18 -59 -18 -121q1 -97 40 -141q38 -44 99 -43q44 0 82 22
q38 21 63 64h12zM341 412l-30 -264q-21 -39 -48 -59q-28 -20 -58 -20q-33 0 -52 26t-19 85q0 42 11 91q11 48 33 84q18 28 46 48q29 19 64 20q13 0 27 -3t26 -8v0z" />
    <glyph glyph-name="r" unicode="r" horiz-adv-x="379" 
d="M356 485q-9 4 -22 6t-26 2q-55 -2 -87 -35q-33 -34 -46 -81h-12l12 104q-21 6 -44 6q-28 0 -54 -7q-27 -7 -45 -18q-9 -10 -15 -33q-7 -23 -7 -35l72 7l-52 -398q10 -3 23 -4t27 -1q18 0 35 1q18 2 30 4l29 298q18 43 47 66q29 24 65 24q17 0 35 -5q19 -4 35 -14
q5 12 7 27t2 31q0 15 -2 29q-2 15 -7 26v0z" />
    <glyph glyph-name="s" unicode="s" horiz-adv-x="430" 
d="M268 365q13 -9 37 -15q23 -6 44 -6q9 27 16 60q6 33 7 60q-32 14 -66 22q-34 7 -65 7q-87 -1 -134 -42q-47 -40 -47 -104q12 -101 94 -138q81 -37 93 -94q-1 -28 -21 -44q-19 -16 -46 -16q-32 0 -51 19q-19 18 -21 58q-32 0 -63 -12t-44 -32q3 -56 45 -81q42 -24 111 -24
q79 -1 137 38q59 38 62 121q-12 93 -95 132t-95 97q1 25 18 39q18 14 42 14q14 0 27 -3q12 -3 20 -7z" />
    <glyph glyph-name="t" unicode="t" horiz-adv-x="362" 
d="M93 487q-15 -2 -31 -7q-16 -6 -28 -11q-8 -13 -14 -32q-7 -20 -9 -38h74q-14 -78 -26 -168q-13 -91 -14 -136q0 -53 26 -82q27 -30 86 -30q27 0 58 8t62 24q9 14 17 36q7 22 7 40q-22 -8 -45 -13q-24 -5 -45 -5q-32 0 -42 18q-11 19 -7 56l26 252h143q2 12 4 26
q1 13 1 27v12q0 5 -1 12h-137l16 143q-22 0 -48 -6q-27 -6 -43 -15z" />
    <glyph glyph-name="u" unicode="u" horiz-adv-x="558" 
d="M506 81l-72 -7q-2 2 -3 8q-2 6 -2 10l41 389q-10 2 -24 4q-15 2 -25 2q-33 0 -60 -7q-28 -7 -48 -18q-9 -10 -15 -33q-7 -23 -7 -35l66 7l-36 -267q-17 -28 -45 -47t-59 -20q-30 0 -43 20t-13 54q1 43 14 153t23 187q-10 2 -25 4t-26 2q-33 0 -63 -7q-29 -7 -50 -18
q-9 -10 -15 -33t-6 -35l71 7q-10 -52 -24 -144t-15 -144q2 -74 38 -102q36 -29 83 -28q58 1 95 24t57 57h7q2 -19 9 -42q7 -22 16 -39q28 0 68 8t66 17q9 14 15 35q7 22 7 38v0z" />
    <glyph glyph-name="v" unicode="v" horiz-adv-x="485" 
d="M45 402l77 -406l105 -21q67 109 126 220q59 112 104 217q-1 16 -14 42q-12 26 -26 39q-22 0 -63 -6q-40 -6 -63 -15q-11 -12 -18 -33t-8 -38l76 7q2 -4 3 -9t1 -8q-26 -75 -60 -157q-35 -82 -72 -158h-9q-1 25 -4 56q-3 32 -7 55l-46 293q-24 7 -51 7q-26 0 -51 -6
q-25 -5 -46 -16q-8 -11 -13 -34q-6 -23 -6 -35z" />
    <glyph glyph-name="w" unicode="w" horiz-adv-x="768" 
d="M517 76h-9q0 27 -1 62q-2 35 -5 61l-35 290l-145 -12q-24 -93 -57 -201q-34 -109 -66 -200h-9q0 28 -1 63q0 35 -2 58l-24 283q-24 7 -51 7q-26 0 -51 -6q-26 -5 -47 -16q-8 -11 -13 -34q-6 -23 -6 -35l65 6l45 -405l124 -22q37 89 77 200q39 112 66 207h9l38 -385
l119 -22q57 110 108 222q51 113 90 215q-1 16 -14 42t-27 39q-19 0 -52 -6q-33 -5 -52 -12q-11 -12 -18 -33q-7 -22 -9 -38l66 5q2 -4 3 -9t1 -8q-24 -76 -54 -157q-31 -82 -63 -159v0z" />
    <glyph glyph-name="x" unicode="x" horiz-adv-x="512" 
d="M210 483q-9 2 -20 3t-21 1q-26 0 -51 -6q-26 -6 -42 -17q-7 -11 -12 -34q-6 -22 -6 -35l64 9q14 -39 31 -81q16 -43 36 -87q-31 -45 -68 -89q-38 -43 -67 -71l-60 24q-4 -18 -4 -38q0 -23 6 -43q16 -12 43 -24q26 -12 52 -18q34 36 71 83q36 47 65 91h7q24 -61 50 -112
q26 -50 43 -62q28 3 63 12q36 9 57 19q8 15 13 37q5 21 5 38l-72 -11q-11 12 -35 58q-23 46 -47 101q41 52 88 120q47 67 79 122q-13 3 -29 5q-17 1 -31 1q-15 0 -30 -1q-16 -2 -28 -5q-15 -38 -37 -79q-22 -42 -44 -78h-7q-16 40 -32 83t-30 84v0z" />
    <glyph glyph-name="y" unicode="y" horiz-adv-x="483" 
d="M51 403l103 -419q-34 -46 -80 -75q-46 -30 -99 -46q1 -24 10 -53q10 -30 22 -47q62 26 120 75q57 50 101 110q52 73 116 198q63 126 116 266q-1 15 -12 42q-11 26 -24 39q-23 0 -62 -5q-40 -6 -62 -14q-11 -12 -18 -33q-8 -21 -10 -37l75 5q2 -3 3 -8q1 -6 1 -9
q-22 -73 -53 -154q-31 -80 -65 -154h-9q-1 28 -6 64q-4 37 -9 60l-59 271q-10 4 -22 6t-23 2q-29 0 -56 -6t-45 -15q-7 -11 -13 -33q-7 -23 -7 -35z" />
    <glyph glyph-name="z" unicode="z" horiz-adv-x="469" 
d="M9 0h372l28 146q-18 4 -43 3q-25 0 -41 -3q-8 -15 -15 -34q-7 -18 -11 -34q-34 -4 -73 -6t-76 -2v9l272 342l-5 55h-358l-19 -126q15 -6 38 -9q23 -4 41 -4q9 15 17 34t13 34h126v-9l-271 -342z" />
    <glyph glyph-name="braceleft" unicode="{" horiz-adv-x="328" 
d="M30 258q49 -4 60 -34t5 -86l-15 -190q-7 -71 26 -113q34 -43 132 -48q5 12 8 36t1 38q-33 3 -45 28q-13 26 -9 73l15 191q5 57 -8 91t-50 47v7q39 15 58 52q20 38 25 94l15 165q4 44 19 66q16 22 46 26q9 15 15 38q7 23 9 38q-105 -6 -148 -52q-43 -47 -48 -122l-17 -166
q-4 -48 -18 -76q-14 -27 -56 -32q-6 -11 -12 -32t-8 -39v0z" />
    <glyph glyph-name="bar" unicode="|" horiz-adv-x="323" 
d="M191 764q-22 0 -48 -2t-44 -6v-942q7 -2 21 -3t26 -1q13 0 26 1q12 1 19 3v950z" />
    <glyph glyph-name="braceright" unicode="}" horiz-adv-x="329" 
d="M152 290q-41 -16 -59 -52q-19 -37 -23 -96l-18 -193q-4 -41 -24 -64t-52 -25q-1 -6 -2 -17q-1 -12 -1 -24q0 -10 1 -19t2 -14q102 6 142 51t45 119l18 194q4 55 24 79q20 25 66 28q0 17 -2 37q-2 21 -5 35q-46 4 -54 35q-9 30 -4 77l12 169q7 63 -22 110t-120 57
q-9 -13 -17 -35q-9 -22 -11 -38q39 -3 53 -27q15 -24 10 -77l-13 -163q-5 -53 7 -88q13 -35 48 -52z" />
    <glyph glyph-name="asciitilde" unicode="~" 
d="M85 202q12 18 34 33q22 14 51 15q49 -3 85 -25q35 -23 99 -26q51 1 92 29q40 28 61 71q-11 8 -30 16t-33 11q-10 -17 -30 -29q-19 -12 -45 -13q-48 3 -88 26q-41 22 -97 25q-46 -1 -83 -22q-37 -22 -59 -56q7 -14 19 -30t24 -25v0z" />
    <glyph glyph-name="uni00A0" unicode="&#xa0;" horiz-adv-x="196" 
 />
    <glyph glyph-name="exclamdown" unicode="&#xa1;" horiz-adv-x="280" 
d="M9 -210q17 -4 36 -6q18 -2 36 -2q17 0 35 2q17 2 34 6l13 478q-5 1 -12 1q-7 1 -15 1q-13 0 -29 -3q-17 -2 -27 -6zM135 497q-31 -1 -52 -21q-20 -20 -21 -51q0 -38 19 -58q18 -20 54 -20q31 0 51 21t21 57q0 35 -20 53q-19 19 -52 19v0z" />
    <glyph glyph-name="cent" unicode="&#xa2;" horiz-adv-x="495" 
d="M344 368q15 -10 38 -15q24 -6 42 -6q14 31 22 66t8 68q-21 14 -48 24q-27 9 -58 12l8 69q-23 0 -49 -3t-43 -8l-8 -62q-42 -9 -78 -30q-35 -21 -61 -51q-36 -42 -55 -100q-20 -59 -20 -119q0 -80 38 -128t115 -55l-8 -78q9 -1 22 -2q14 -1 26 -1q13 0 27 1t21 2l8 85
q33 9 59 22q25 13 46 27q9 15 16 38q7 22 7 40q-36 -18 -81 -30q-44 -12 -83 -13q-49 -1 -72 27t-23 91q0 43 10 84q11 40 33 71q18 24 43 37q26 14 57 14q13 0 25 -2q12 -3 23 -8z" />
    <glyph glyph-name="sterling" unicode="&#xa3;" horiz-adv-x="542" 
d="M403 235q5 16 6 36t-1 35h-175l-2 26q-1 14 -1 26q-1 53 21 85t81 33q14 0 27 -2q13 -3 27 -8l-6 -57q15 -8 37 -15q22 -6 45 -7q10 24 18 63t8 71q-34 14 -70 21q-36 8 -77 8q-112 -1 -166 -49q-55 -49 -55 -139q0 -13 1 -27q1 -15 2 -29h-63q-5 -14 -10 -34
q-4 -20 -5 -37h81q-1 -39 -13 -75t-37 -72q-15 -5 -32 -11t-30 -14q-6 -12 -12 -30t-9 -33h458l17 150q-19 1 -41 0q-21 -2 -37 -6q-6 -13 -14 -33q-7 -19 -11 -34h-205v7q30 20 50 62q19 42 22 89h171z" />
    <glyph glyph-name="currency" unicode="&#xa4;" horiz-adv-x="569" 
d="M123 401q-28 -32 -42 -76q-14 -45 -14 -95q0 -32 6 -59q7 -26 20 -47l-74 -80q7 -14 22 -27q14 -13 31 -19l69 78q42 -26 107 -26q31 0 58 6t52 19l49 -74q19 4 38 16q18 12 27 26l-56 78q29 31 46 78q17 46 17 99q0 32 -7 59q-7 26 -22 48l71 77q-7 12 -23 24
q-16 13 -33 17l-64 -73q-22 13 -48 20t-58 7q-33 0 -61 -7q-28 -8 -53 -23l-51 79q-18 -7 -35 -21t-26 -27zM258 126q-45 1 -69 32q-24 32 -24 88q0 65 32 109q31 44 88 46q46 -1 70 -31q24 -31 24 -85q-1 -66 -33 -112q-33 -45 -88 -47v0z" />
    <glyph glyph-name="yen" unicode="&#xa5;" horiz-adv-x="571" 
d="M327 206l26 36h122q4 13 5 31q1 17 0 30h-81l99 140q12 1 25 4t22 7q7 15 13 37q7 22 9 39h-203q-3 -18 -2 -37q1 -20 5 -35q8 -5 21 -9q12 -5 23 -7q-9 -8 -21 -21q-11 -14 -18 -24l-51 -74q-8 -12 -16 -27q-7 -16 -12 -28h-9q-2 13 -7 28q-4 15 -9 27l-30 73
q-5 12 -11 24q-7 12 -15 21q16 2 33 7q17 4 28 8q5 15 10 35t7 39h-247q-1 -6 -1 -11v-11q0 -13 1 -26t3 -22q9 -6 21 -11t24 -8l64 -138h-74q-5 -13 -8 -30q-4 -17 -5 -31h117l23 -47l-1 -13h-142q-5 -13 -8 -30q-4 -17 -5 -31h149l-5 -37q-18 -5 -37 -11t-34 -14
q-6 -11 -12 -28q-7 -17 -10 -31h290q3 13 4 32t-1 32q-15 5 -39 10q-25 5 -43 7l4 40h141q4 13 5 31q1 17 0 30h-140z" />
    <glyph glyph-name="brokenbar" unicode="&#xa6;" horiz-adv-x="323" 
d="M191 764q-22 0 -49 -2t-45 -6v-364q8 -2 22 -3t27 -1q12 0 26 1q13 1 19 3v372zM191 187q-22 0 -49 -2t-45 -6v-365q8 -2 22 -3t27 -1q12 0 26 1q13 1 19 3v373z" />
    <glyph glyph-name="section" unicode="&#xa7;" horiz-adv-x="500" 
d="M352 501q14 -8 38 -13t46 -5q7 23 15 62t11 66q-34 15 -73 24q-40 9 -89 9q-76 0 -127 -38q-52 -38 -54 -110q0 -24 8 -42q-35 -27 -57 -65q-22 -37 -23 -84q14 -120 112 -165q98 -44 112 -115q0 -33 -26 -53q-25 -20 -72 -21q-35 0 -54 23q-20 22 -24 61q-30 0 -61 -10
q-32 -11 -46 -29q7 -57 50 -84t114 -27q89 0 154 39q65 40 68 126q0 13 -3 25q-2 12 -7 23q25 20 47 55t24 82q-14 125 -108 174q-95 48 -109 110q1 32 24 47q24 15 57 15q18 0 34 -4q15 -3 27 -8zM167 393q49 -46 107 -82q59 -35 64 -100q0 -15 -6 -28t-14 -24
q-53 44 -111 80q-58 35 -63 94q0 17 7 32q6 16 16 28v0z" />
    <glyph glyph-name="dieresis" unicode="&#xa8;" horiz-adv-x="472" 
d="M127 697q-27 -1 -45 -18q-17 -17 -18 -45q0 -34 17 -51q16 -17 46 -17q27 0 44 18t18 50q0 30 -17 46q-17 17 -45 17v0zM351 697q-27 -1 -45 -18q-17 -17 -18 -45q0 -34 17 -51q16 -17 46 -17q27 0 44 18t18 50q0 30 -17 46q-17 17 -45 17v0z" />
    <glyph glyph-name="copyright" unicode="&#xa9;" horiz-adv-x="799" 
d="M461 410q14 -8 35 -12q21 -5 40 -5q7 23 14 59q6 35 9 61q-22 11 -53 18t-62 7q-92 -1 -157 -63t-68 -169q0 -79 42 -124q41 -46 118 -47q33 0 65 8q33 8 59 21q8 12 14 31q7 19 7 33q-23 -8 -52 -13q-28 -5 -50 -5q-44 -1 -67 24q-24 25 -24 82q1 69 29 111t71 43
q9 0 19 -2t16 -5zM435 696q-163 -4 -273 -117q-111 -113 -115 -283q2 -142 85 -228q82 -86 222 -88q167 4 278 117q111 112 115 279q-2 140 -86 229q-84 88 -226 91v0zM426 633q113 -3 180 -78q66 -75 68 -189q-3 -134 -90 -227q-87 -92 -217 -96q-112 2 -179 75
q-66 73 -68 189q4 137 91 229q87 93 215 97v0z" />
    <glyph glyph-name="ordfeminine" unicode="&#xaa;" horiz-adv-x="393" 
d="M322 199q3 16 4 36q1 21 0 36h-278q-5 -15 -10 -35q-4 -20 -5 -37h289zM228 363q1 -12 6 -26q4 -14 11 -24q22 0 52 6q30 5 49 13q6 11 10 27q3 16 3 28l-45 -5q-1 3 -2 8q-1 4 -1 7l28 216q-21 13 -51 22q-29 9 -67 9q-95 -3 -143 -65q-49 -61 -49 -144q1 -65 27 -94
q27 -29 69 -29q29 0 55 13q25 13 42 38h6zM225 417q-12 -18 -28 -27q-15 -10 -32 -10q-21 0 -33 15q-12 16 -12 51q0 50 24 95t73 48q8 0 17 -2t15 -5z" />
    <glyph glyph-name="guillemotleft" unicode="&#xab;" horiz-adv-x="567" 
d="M168 254q24 52 53 106q28 53 60 105q-29 0 -62 -5q-32 -6 -56 -14q-36 -50 -65 -96t-55 -96q17 -51 41 -108q23 -57 50 -110q23 1 51 8q27 7 45 16q-19 47 -34 96q-16 49 -28 98v0zM387 257q24 52 53 106q28 53 60 105q-29 0 -62 -5q-32 -6 -56 -14q-36 -50 -65 -96
t-55 -96q17 -51 41 -108q23 -57 50 -110q23 1 51 8q27 7 45 16q-19 47 -34 96q-16 49 -28 98v0z" />
    <glyph glyph-name="logicalnot" unicode="&#xac;" 
d="M49 317q-5 -17 -9 -42t-4 -46h352v-103q11 -2 25 -4q15 -1 30 -1t28 1q13 2 21 4v191h-443z" />
    <glyph glyph-name="uni00AD" unicode="&#xad;" horiz-adv-x="335" 
d="M267 227q5 12 7 29q2 16 2 34v12q-1 8 -2 17h-234q-7 -19 -12 -44q-5 -26 -7 -48h246z" />
    <glyph glyph-name="registered" unicode="&#xae;" horiz-adv-x="531" 
d="M197 476q-15 -2 -27 -8q-4 -7 -7 -16q-2 -9 -4 -17h124q1 7 1 16q1 10 0 16q-5 3 -12 5q-8 2 -14 3l6 54q4 -1 10 -1h13q8 -22 20 -49q11 -27 23 -50q31 0 61 9q5 7 8 18q3 12 4 21l-29 -3q-7 13 -15 29q-8 17 -14 32q24 9 38 29q14 19 14 43q-1 34 -28 49t-69 15
q-22 0 -53 -1t-58 -4q-3 -8 -3 -19q-1 -11 0 -19q7 -1 14 -1q7 -1 12 -1zM311 785q-117 -3 -187 -79q-70 -77 -72 -187q1 -94 55 -150q55 -57 151 -58q120 4 189 82t70 186q-1 93 -55 149t-151 57v0zM304 735q74 -1 115 -47t42 -121q-2 -88 -55 -146t-139 -60q-75 2 -117 49
q-41 46 -42 120q2 88 57 146q55 57 139 59v0zM266 567l6 60q5 1 10 1h8q22 0 33 -6t11 -22q-1 -19 -13 -27q-13 -8 -28 -8q-7 0 -15 1q-7 0 -12 1v0z" />
    <glyph glyph-name="macron" unicode="&#xaf;" horiz-adv-x="472" 
d="M380 588q4 11 6 26t2 30v11q-1 7 -2 15h-273q-6 -17 -11 -40t-6 -42h284z" />
    <glyph glyph-name="degree" unicode="&#xb0;" horiz-adv-x="379" 
d="M221 644q-72 -1 -116 -43q-44 -43 -45 -115q0 -59 32 -88q32 -30 92 -30q72 1 116 41q43 41 44 113q-1 61 -33 91q-32 31 -90 31v0zM210 577q25 0 37 -16q12 -15 12 -43q0 -35 -17 -59q-16 -24 -46 -25q-24 0 -37 17q-14 17 -14 47q0 34 17 56t48 23v0z" />
    <glyph glyph-name="plusminus" unicode="&#xb1;" 
d="M318 411v174q-24 0 -52 -2t-47 -6v-166h-151q-5 -15 -8 -38q-4 -23 -4 -41h163v-172q9 -2 24 -3t28 -1t27 1q13 1 20 3v172h159q2 7 2 14q1 7 1 16q0 12 -1 25q-2 13 -5 24h-156zM65 83q-5 -17 -8 -40q-4 -24 -4 -43h420q3 13 3 31q0 12 -1 26q-2 14 -5 26h-405z" />
    <glyph glyph-name="uni00B2" unicode="&#xb2;" horiz-adv-x="385" 
d="M18 379h290q5 16 9 38q4 23 6 40q-53 -4 -104 -6q-50 -2 -95 -2v6q58 32 131 91q72 59 79 137q-1 48 -37 69q-35 21 -94 21q-46 0 -84 -11q-39 -10 -67 -24q0 -25 1 -53q1 -27 3 -50q15 0 37 2q21 3 36 8l2 50q11 6 28 9t31 3q23 0 35 -9q11 -10 11 -29q-7 -63 -80 -120
q-74 -57 -131 -103z" />
    <glyph glyph-name="uni00B3" unicode="&#xb3;" horiz-adv-x="385" 
d="M85 543q71 1 102 -11q31 -11 30 -41q-1 -27 -20 -38q-19 -12 -49 -12q-28 0 -61 8q-34 7 -56 17q-1 -6 -2 -14t-1 -13q0 -15 3 -30t6 -25q20 -6 46 -9q27 -3 51 -3q73 0 126 30t56 94q-1 40 -23 60t-56 24v7q40 7 65 34q24 27 25 64q-2 46 -40 67q-39 21 -94 21
q-26 0 -54 -5t-53 -15q-9 -16 -14 -36q-4 -19 -5 -36q26 12 57 19q31 6 55 6q19 1 34 -7q15 -7 16 -29q-2 -36 -42 -48q-40 -13 -89 -12q-6 -14 -9 -33q-4 -18 -4 -34v0z" />
    <glyph glyph-name="acute" unicode="&#xb4;" horiz-adv-x="427" 
d="M358 709q-15 15 -46 27q-32 11 -56 14l-133 -163q7 -15 22 -29q15 -15 30 -22z" />
    <glyph glyph-name="mu" unicode="&#xb5;" horiz-adv-x="593" 
d="M114 78q9 -49 37 -72q29 -23 74 -23q62 2 95 30t46 61h9q3 -38 21 -64q19 -26 58 -27q21 0 41 7t34 16q7 13 14 35q6 23 7 41q-10 -5 -24 -9q-14 -3 -26 -3q-16 0 -24 17t-8 58q1 64 13 161q13 97 28 182q-20 0 -52 -4t-51 -10q-13 -70 -25 -161q-11 -91 -15 -168
q-18 -30 -48 -51q-31 -22 -67 -23q-42 0 -62 33q-21 34 -21 99q1 59 12 143q12 83 23 142q-20 0 -56 -4q-35 -4 -56 -11q-19 -165 -45 -350q-27 -185 -55 -368q18 -10 50 -18t64 -10q4 38 7 80t3 88q0 42 -3 92q-3 49 -7 91h9z" />
    <glyph glyph-name="paragraph" unicode="&#xb6;" horiz-adv-x="584" 
d="M364 -12q20 -3 42 -3q20 0 38 3l61 655h35t36 1q4 12 6 33t2 34q-44 4 -117 6q-72 3 -144 3q-146 0 -223 -56q-78 -55 -79 -162q3 -86 55 -122t117 -35q9 0 19 1q11 0 21 1l-44 -451q1 -14 13 -40q13 -25 29 -42q48 1 132 14q85 12 140 27q6 12 11 30t5 31l-240 -25
q-2 3 -4 9t-2 9l69 747q22 0 46 -1t41 -2z" />
    <glyph glyph-name="periodcentered" unicode="&#xb7;" horiz-adv-x="293" 
d="M124 327q-35 -1 -57 -23t-23 -57q0 -43 20 -64t60 -21q34 0 56 23q22 22 23 62q-1 39 -22 60q-21 20 -57 20v0z" />
    <glyph glyph-name="cedilla" unicode="&#xb8;" horiz-adv-x="416" 
d="M136 -79q19 -5 32 -17t14 -31q-1 -25 -22 -40t-50 -20q5 -14 13 -27t19 -22q52 5 95 35t46 78q-1 27 -16 44q-16 17 -37 22l23 72q-18 0 -37 -2t-34 -6z" />
    <glyph glyph-name="uni00B9" unicode="&#xb9;" horiz-adv-x="385" 
d="M258 773q-49 -3 -94 -10q-46 -7 -72 -13q-9 -15 -14 -33q-5 -17 -7 -31l86 8l-25 -248q-16 -2 -33 -4q-17 -3 -30 -6q-7 -12 -13 -28q-5 -16 -7 -29h248q2 7 2 14q1 7 1 16q0 8 -1 16q0 7 -1 12q-15 3 -34 6q-20 2 -35 3z" />
    <glyph glyph-name="ordmasculine" unicode="&#xba;" horiz-adv-x="398" 
d="M237 644q-46 0 -83 -17q-38 -17 -62 -49q-19 -26 -29 -59t-10 -70q0 -67 34 -102t99 -35q43 0 79 16q35 16 59 46q20 25 32 62q12 36 12 76q0 65 -35 99q-34 33 -96 33v0zM224 582q27 0 40 -20t13 -58q0 -27 -6 -52q-6 -26 -19 -44q-11 -15 -25 -23q-14 -9 -30 -9
q-26 0 -40 22q-13 21 -13 60q0 23 5 45q4 22 13 40t25 28q17 11 37 11v0zM330 199q3 16 4 36q1 21 0 36h-281q-5 -15 -10 -35q-4 -20 -5 -37h292z" />
    <glyph glyph-name="guillemotright" unicode="&#xbb;" horiz-adv-x="564" 
d="M144 254q-22 -49 -47 -96q-26 -46 -54 -94q16 -10 40 -19q24 -8 46 -10q38 53 75 111q37 57 65 108q-15 50 -39 105t-51 109q-23 0 -49 -8t-44 -18q18 -49 32 -94q14 -46 26 -94v0zM364 257q-22 -49 -47 -96q-26 -46 -54 -94q16 -10 40 -19q24 -8 46 -10q38 53 75 111
q37 57 65 108q-15 50 -39 105t-51 109q-23 0 -49 -8t-44 -18q18 -49 32 -94q14 -46 26 -94v0z" />
    <glyph glyph-name="onequarter" unicode="&#xbc;" horiz-adv-x="926" 
d="M784 94h52q2 10 4 22q1 13 1 25q0 6 -1 12q0 6 -1 10h-49l22 224h-108l-182 -237l-7 -56h180l-9 -92q20 -4 44 -4q14 0 26 1t21 3zM701 163h-49h-20q-11 -1 -21 -2v6l106 143h5q-4 -15 -6 -30q-3 -16 -4 -30zM806 691q-19 8 -42 12q-24 4 -43 4l-535 -696q10 -14 29 -28
q20 -13 41 -19zM276 683q-49 -3 -94 -10q-46 -7 -72 -13q-9 -15 -14 -33q-5 -17 -7 -31l86 8l-25 -248q-16 -2 -33 -4q-17 -3 -30 -6q-7 -12 -13 -28q-5 -16 -7 -29h248q2 7 2 14q1 7 1 16q0 8 -1 16q0 7 -1 12q-15 3 -34 6q-20 2 -35 3z" />
    <glyph glyph-name="onehalf" unicode="&#xbd;" horiz-adv-x="926" 
d="M769 691q-19 8 -42 12q-24 4 -43 4l-535 -696q10 -14 29 -28q20 -13 41 -19zM262 683q-49 -3 -94 -10q-46 -7 -72 -13q-9 -15 -14 -33q-5 -17 -7 -31l86 8l-25 -248q-16 -2 -33 -4q-17 -3 -30 -6q-7 -12 -13 -28q-5 -16 -7 -29h248q2 7 2 14q1 7 1 16q0 8 -1 16
q0 7 -1 12q-15 3 -34 6q-20 2 -35 3zM539 0h290q5 16 9 38q4 23 6 40q-53 -4 -104 -6q-50 -2 -95 -2v6q58 32 131 91q72 59 79 137q-1 48 -37 69q-35 21 -94 21q-46 0 -84 -11q-39 -10 -67 -24q0 -25 1 -53q1 -27 3 -50q15 0 37 2q21 3 36 8l2 50q11 6 28 9t31 3q23 0 35 -9
q11 -10 11 -29q-7 -63 -80 -120q-74 -57 -131 -103z" />
    <glyph glyph-name="threequarters" unicode="&#xbe;" horiz-adv-x="926" 
d="M777 94h52q2 10 4 22q1 13 1 25q0 6 -1 12q0 6 -1 10h-49l22 224h-108l-182 -237l-7 -56h180l-9 -92q20 -4 44 -4q14 0 26 1t21 3zM694 163h-49h-20q-11 -1 -21 -2v6l106 143h5q-4 -15 -6 -30q-3 -16 -4 -30zM798 691q-19 8 -42 12q-24 4 -43 4l-535 -696q10 -14 29 -28
q20 -13 41 -19zM116 453q71 1 102 -11q31 -11 30 -41q-1 -27 -20 -38q-19 -12 -49 -12q-28 0 -61 8q-34 7 -56 17q-1 -6 -2 -14t-1 -13q0 -15 3 -30t6 -25q20 -6 46 -9q27 -3 51 -3q73 0 126 30t56 94q-1 40 -23 60t-56 24v7q40 7 65 34q24 27 25 64q-2 46 -40 67
q-39 21 -94 21q-26 0 -54 -5t-53 -15q-9 -16 -14 -36q-4 -19 -5 -36q26 12 57 19q31 6 55 6q19 1 34 -7q15 -7 16 -29q-2 -36 -42 -48q-40 -13 -89 -12q-6 -14 -9 -33q-4 -18 -4 -34v0z" />
    <glyph glyph-name="questiondown" unicode="&#xbf;" horiz-adv-x="441" 
d="M248 -141q-15 -8 -35 -13t-36 -5q-44 1 -62 22q-19 20 -18 48q12 78 99 138q86 59 98 147q0 24 -9 48q-10 25 -22 42q-25 -3 -52 -12t-45 -21q7 -13 11 -28q4 -14 4 -31q-13 -72 -106 -130q-94 -58 -107 -169q1 -61 47 -95q46 -35 131 -36q49 1 104 12q56 11 95 26
q3 27 5 57q1 30 1 59q0 15 -1 29q0 15 -1 26q-21 -1 -47 -6q-25 -6 -45 -16zM227 497q-31 -1 -52 -21q-20 -20 -21 -51q0 -38 19 -58q18 -20 54 -20q31 0 51 21t21 57q0 35 -20 53q-19 19 -52 19v0z" />
    <glyph glyph-name="Agrave" unicode="&#xc0;" horiz-adv-x="727" 
d="M688 0q0 17 -2 37q-1 21 -5 37q-11 4 -27 7q-15 3 -27 5l-181 627h-81l-308 -630q-12 -2 -25 -5q-14 -3 -25 -7q-8 -15 -14 -34q-7 -19 -11 -37h256q0 14 -3 36t-6 35q-17 4 -35 7q-19 2 -36 3q11 17 21 37q11 20 17 35l26 60h245l14 -53q5 -18 12 -39q7 -20 17 -36
q-15 -2 -35 -5q-21 -4 -34 -8q-7 -15 -14 -36q-6 -20 -9 -36h270zM385 590q0 -26 6 -61q5 -35 11 -57l48 -185h-196l81 184q11 23 23 58q13 35 18 61h9zM458 751q13 13 24 35t14 40l-187 102q-24 -10 -51 -32t-43 -43z" />
    <glyph glyph-name="Aacute" unicode="&#xc1;" horiz-adv-x="727" 
d="M688 0q0 17 -2 37q-1 21 -5 37q-11 4 -27 7q-15 3 -27 5l-181 627h-81l-308 -630q-12 -2 -25 -5q-14 -3 -25 -7q-8 -15 -14 -34q-7 -19 -11 -37h256q0 14 -3 36t-6 35q-17 4 -35 7q-19 2 -36 3q11 17 21 37q11 20 17 35l26 60h245l14 -53q5 -18 12 -39q7 -20 17 -36
q-15 -2 -35 -5q-21 -4 -34 -8q-7 -15 -14 -36q-6 -20 -9 -36h270zM385 590q0 -26 6 -61q5 -35 11 -57l48 -185h-196l81 184q11 23 23 58q13 35 18 61h9zM611 842q-7 24 -22 51q-16 26 -32 41l-218 -107q-1 -6 -1 -12q-1 -7 -1 -13q0 -15 2 -29q2 -15 5 -26z" />
    <glyph glyph-name="Acircumflex" unicode="&#xc2;" horiz-adv-x="727" 
d="M688 0q0 17 -2 37q-1 21 -5 37q-11 4 -27 7q-15 3 -27 5l-181 627h-81l-308 -630q-12 -2 -25 -5q-14 -3 -25 -7q-8 -15 -14 -34q-7 -19 -11 -37h256q0 14 -3 36t-6 35q-17 4 -35 7q-19 2 -36 3q11 17 21 37q11 20 17 35l26 60h245l14 -53q5 -18 12 -39q7 -20 17 -36
q-15 -2 -35 -5q-21 -4 -34 -8q-7 -15 -14 -36q-6 -20 -9 -36h270zM385 590q0 -26 6 -61q5 -35 11 -57l48 -185h-196l81 184q11 23 23 58q13 35 18 61h9zM364 915l-140 -97q0 -17 4 -38t12 -36l170 83l143 -78q15 9 29 27q15 18 22 35l-125 104h-115z" />
    <glyph glyph-name="Atilde" unicode="&#xc3;" horiz-adv-x="727" 
d="M688 0q0 17 -2 37q-1 21 -5 37q-11 4 -27 7q-15 3 -27 5l-181 627h-81l-308 -630q-12 -2 -25 -5q-14 -3 -25 -7q-8 -15 -14 -34q-7 -19 -11 -37h256q0 14 -3 36t-6 35q-17 4 -35 7q-19 2 -36 3q11 17 21 37q11 20 17 35l26 60h245l14 -53q5 -18 12 -39q7 -20 17 -36
q-15 -2 -35 -5q-21 -4 -34 -8q-7 -15 -14 -36q-6 -20 -9 -36h270zM385 590q0 -26 6 -61q5 -35 11 -57l48 -185h-196l81 184q11 23 23 58q13 35 18 61h9zM547 898q-5 -17 -19 -29q-15 -12 -38 -13q-39 3 -68 22q-29 18 -81 21q-57 -1 -92 -30q-36 -29 -48 -73q9 -13 25 -24
q15 -11 33 -14q6 16 21 30q16 14 39 15q39 -3 71 -22q32 -20 78 -23q67 2 103 40q35 38 42 85q-13 6 -31 11q-18 4 -35 4v0z" />
    <glyph glyph-name="Adieresis" unicode="&#xc4;" horiz-adv-x="727" 
d="M263 897q-31 -1 -50 -19t-20 -47q0 -35 18 -52q18 -18 52 -18q30 0 50 19q20 18 21 51q-1 32 -20 49q-20 17 -51 17v0zM536 897q-31 -1 -50 -19t-20 -47q0 -35 18 -52q18 -18 52 -18q30 0 50 19q20 18 21 51q-1 32 -20 49q-20 17 -51 17v0zM688 0q0 17 -2 37q-1 21 -5 37
q-11 4 -27 7q-15 3 -27 5l-181 627h-81l-308 -630q-12 -2 -25 -5q-14 -3 -25 -7q-8 -15 -14 -34q-7 -19 -11 -37h256q0 14 -3 36t-6 35q-17 4 -35 7q-19 2 -36 3q11 17 21 37q11 20 17 35l26 60h245l14 -53q5 -18 12 -39q7 -20 17 -36q-15 -2 -35 -5q-21 -4 -34 -8
q-7 -15 -14 -36q-6 -20 -9 -36h270zM385 590q0 -26 6 -61q5 -35 11 -57l48 -185h-196l81 184q11 23 23 58q13 35 18 61h9z" />
    <glyph glyph-name="Aring" unicode="&#xc5;" horiz-adv-x="727" 
d="M431 923q-69 -1 -107 -34q-37 -33 -38 -89q0 -38 19 -62q19 -25 56 -33l-304 -622q-12 -2 -25 -5q-14 -3 -25 -7q-8 -15 -14 -34q-7 -19 -11 -37h256q0 14 -3 36t-6 35q-17 4 -35 7q-19 2 -36 3q11 17 21 37q11 20 17 35l26 60h245l14 -53q5 -18 12 -39q7 -20 17 -36
q-15 -2 -35 -5q-21 -4 -34 -8q-7 -15 -14 -36q-6 -20 -9 -36h270q0 17 -2 37q-1 21 -5 37q-11 4 -27 7q-15 3 -27 5l-179 620q46 11 73 41q26 30 27 78q0 49 -31 74q-30 24 -86 24v0zM385 590q0 -26 6 -61q5 -35 11 -57l48 -185h-196l81 184q11 23 23 58q13 35 18 61h9z
M422 863q23 0 36 -11t13 -33q0 -27 -17 -41q-17 -15 -44 -15q-23 0 -36 11q-12 11 -12 33q0 26 17 41q16 15 43 15v0z" />
    <glyph glyph-name="AE" unicode="&#xc6;" horiz-adv-x="943" 
d="M350 0h507l15 173q-19 0 -46 -3q-26 -3 -43 -8q-6 -17 -12 -40q-5 -23 -9 -43h-203l20 234h163q0 -13 2 -28q1 -15 3 -25q16 -5 39 -7q22 -1 42 1l16 194q-20 0 -42 -3q-23 -3 -40 -8q-3 -10 -7 -24q-4 -15 -6 -25h-165l20 236h206q0 -17 2 -39q2 -21 4 -36q17 -5 39 -8
q23 -3 42 -3l16 163h-590q-4 -13 -5 -36q-1 -22 1 -38q14 -3 37 -6q23 -2 43 -4l-345 -534q-11 -2 -24 -5t-23 -7q-7 -15 -13 -34q-7 -19 -10 -37h247q1 15 -1 37q-2 21 -7 36q-13 3 -32 6q-20 2 -36 3q13 15 27 34q13 20 24 37l50 80h198l-14 -148q-16 -2 -37 -6t-33 -8
q-6 -14 -12 -34q-6 -21 -8 -37v0zM462 307h-162l129 207q15 24 31 53q15 29 24 52h9z" />
    <glyph glyph-name="Ccedilla" unicode="&#xc7;" horiz-adv-x="621" 
d="M250 -89q22 -5 38 -18q15 -12 16 -33q-1 -30 -22 -46q-22 -16 -54 -22q4 -14 14 -29t22 -25q58 6 105 39t50 90q-1 31 -19 50q-19 18 -45 23l12 44q42 6 81 18t71 28q10 16 18 41q8 24 8 42q-43 -16 -95 -26t-93 -10q-88 -1 -137 57q-50 58 -51 184q2 151 66 236
q65 85 170 86q23 0 43 -4q20 -5 40 -14l-10 -100q18 -10 44 -16t48 -6q10 36 19 85q8 50 13 94q-35 18 -82 30q-46 12 -98 12q-161 -2 -268 -113q-108 -110 -112 -306q1 -140 64 -224q62 -85 178 -96z" />
    <glyph glyph-name="Egrave" unicode="&#xc8;" horiz-adv-x="606" 
d="M520 0l15 173q-19 0 -46 -3q-26 -3 -43 -8q-6 -17 -12 -40q-5 -23 -9 -43h-206l20 239h166q0 -13 2 -28q1 -15 3 -25q16 -5 39 -7q22 -1 42 1l16 194q-20 0 -42 -3q-23 -3 -40 -8q-3 -10 -7 -24q-4 -15 -6 -25h-168l20 231h209q0 -17 2 -39q2 -21 4 -36q17 -5 39 -8
q23 -3 42 -3l16 163h-488q-3 -13 -5 -36q-1 -22 0 -38q12 -2 32 -5q19 -2 36 -4l-52 -533q-17 -2 -38 -6q-22 -4 -35 -8q-7 -14 -13 -34t-8 -37h515zM403 751q13 13 24 35t14 40l-187 102q-24 -10 -51 -32t-43 -43z" />
    <glyph glyph-name="Eacute" unicode="&#xc9;" horiz-adv-x="606" 
d="M520 0l15 173q-19 0 -46 -3q-26 -3 -43 -8q-6 -17 -12 -40q-5 -23 -9 -43h-206l20 239h166q0 -13 2 -28q1 -15 3 -25q16 -5 39 -7q22 -1 42 1l16 194q-20 0 -42 -3q-23 -3 -40 -8q-3 -10 -7 -24q-4 -15 -6 -25h-168l20 231h209q0 -17 2 -39q2 -21 4 -36q17 -5 39 -8
q23 -3 42 -3l16 163h-488q-3 -13 -5 -36q-1 -22 0 -38q12 -2 32 -5q19 -2 36 -4l-52 -533q-17 -2 -38 -6q-22 -4 -35 -8q-7 -14 -13 -34t-8 -37h515zM564 842q-7 24 -22 51q-16 26 -32 41l-218 -107q-1 -6 -1 -12q-1 -7 -1 -13q0 -15 2 -29q2 -15 5 -26z" />
    <glyph glyph-name="Ecircumflex" unicode="&#xca;" horiz-adv-x="606" 
d="M520 0l15 173q-19 0 -46 -3q-26 -3 -43 -8q-6 -17 -12 -40q-5 -23 -9 -43h-206l20 239h166q0 -13 2 -28q1 -15 3 -25q16 -5 39 -7q22 -1 42 1l16 194q-20 0 -42 -3q-23 -3 -40 -8q-3 -10 -7 -24q-4 -15 -6 -25h-168l20 231h209q0 -17 2 -39q2 -21 4 -36q17 -5 39 -8
q23 -3 42 -3l16 163h-488q-3 -13 -5 -36q-1 -22 0 -38q12 -2 32 -5q19 -2 36 -4l-52 -533q-17 -2 -38 -6q-22 -4 -35 -8q-7 -14 -13 -34t-8 -37h515zM309 915l-140 -97q0 -17 4 -38t12 -36l170 83l143 -78q15 9 29 27q15 18 22 35l-125 104h-115z" />
    <glyph glyph-name="Edieresis" unicode="&#xcb;" horiz-adv-x="606" 
d="M213 897q-31 -1 -50 -19t-20 -47q0 -35 18 -52q18 -18 52 -18q30 0 50 19q20 18 21 51q-1 32 -20 49q-20 17 -51 17v0zM474 897q-31 -1 -50 -19t-20 -47q0 -35 18 -52q18 -18 52 -18q30 0 50 19q20 18 21 51q-1 32 -20 49q-20 17 -51 17v0zM520 0l15 173q-19 0 -46 -3
q-26 -3 -43 -8q-6 -17 -12 -40q-5 -23 -9 -43h-206l20 239h166q0 -13 2 -28q1 -15 3 -25q16 -5 39 -7q22 -1 42 1l16 194q-20 0 -42 -3q-23 -3 -40 -8q-3 -10 -7 -24q-4 -15 -6 -25h-168l20 231h209q0 -17 2 -39q2 -21 4 -36q17 -5 39 -8q23 -3 42 -3l16 163h-488
q-3 -13 -5 -36q-1 -22 0 -38q12 -2 32 -5q19 -2 36 -4l-52 -533q-17 -2 -38 -6q-22 -4 -35 -8q-7 -14 -13 -34t-8 -37h515z" />
    <glyph glyph-name="Igrave" unicode="&#xcc;" horiz-adv-x="371" 
d="M299 0q3 14 4 36t-1 37q-17 4 -39 7q-22 2 -42 4l46 535q18 1 39 3q21 3 37 6q5 12 7 27q2 16 2 29v7t-1 10h-260q-3 -13 -5 -36q-1 -22 0 -38q12 -2 32 -5q19 -2 36 -4l-53 -533q-17 -2 -38 -6q-22 -4 -35 -8q-7 -14 -13 -34t-8 -37h292zM270 751q13 13 24 35t14 40
l-187 102q-24 -10 -51 -32t-43 -43z" />
    <glyph glyph-name="Iacute" unicode="&#xcd;" horiz-adv-x="371" 
d="M299 0q3 14 4 36t-1 37q-17 4 -39 7q-22 2 -42 4l46 535q18 1 39 3q21 3 37 6q5 12 7 27q2 16 2 29v7t-1 10h-260q-3 -13 -5 -36q-1 -22 0 -38q12 -2 32 -5q19 -2 36 -4l-53 -533q-17 -2 -38 -6q-22 -4 -35 -8q-7 -14 -13 -34t-8 -37h292zM438 842q-7 24 -22 51
q-16 26 -32 41l-218 -107q-1 -6 -1 -12q-1 -7 -1 -13q0 -15 2 -29q2 -15 5 -26z" />
    <glyph glyph-name="Icircumflex" unicode="&#xce;" horiz-adv-x="371" 
d="M299 0q3 14 4 36t-1 37q-17 4 -39 7q-22 2 -42 4l46 535q18 1 39 3q21 3 37 6q5 12 7 27q2 16 2 29v7t-1 10h-260q-3 -13 -5 -36q-1 -22 0 -38q12 -2 32 -5q19 -2 36 -4l-53 -533q-17 -2 -38 -6q-22 -4 -35 -8q-7 -14 -13 -34t-8 -37h292zM184 915l-140 -97q0 -17 4 -38
t12 -36l170 83l143 -78q15 9 29 27q15 18 22 35l-125 104h-115z" />
    <glyph glyph-name="Idieresis" unicode="&#xcf;" horiz-adv-x="371" 
d="M107 897q-31 -1 -50 -19t-20 -47q0 -35 18 -52q18 -18 52 -18q30 0 50 19q20 18 21 51q-1 32 -20 49q-20 17 -51 17v0zM345 897q-31 -1 -50 -19t-20 -47q0 -35 18 -52q18 -18 52 -18q30 0 50 19q20 18 21 51q-1 32 -20 49q-20 17 -51 17v0zM299 0q3 14 4 36t-1 37
q-17 4 -39 7q-22 2 -42 4l46 535q18 1 39 3q21 3 37 6q5 12 7 27q2 16 2 29v7t-1 10h-260q-3 -13 -5 -36q-1 -22 0 -38q12 -2 32 -5q19 -2 36 -4l-53 -533q-17 -2 -38 -6q-22 -4 -35 -8q-7 -14 -13 -34t-8 -37h292z" />
    <glyph glyph-name="Eth" unicode="&#xd0;" horiz-adv-x="723" 
d="M113 88q-17 -2 -37 -6q-21 -4 -35 -8q-6 -14 -12 -34t-8 -37q65 -4 153 -6q88 -3 159 -3q143 0 246 100q102 99 107 291q-2 168 -89 246q-87 79 -240 78q-54 0 -126 -5q-72 -4 -130 -11q-3 -14 -5 -38q-1 -24 0 -38q14 -2 33 -4q18 -2 34 -3l-21 -222h-67q-6 -16 -11 -37
q-4 -22 -6 -39h76zM419 312q4 17 6 39q1 21 -1 37h-167l20 237q13 2 31 4q17 1 30 1q106 1 166 -61t61 -196q-1 -144 -68 -221t-185 -78q-19 0 -40 1q-22 1 -40 3l19 234h168z" />
    <glyph glyph-name="Ntilde" unicode="&#xd1;" horiz-adv-x="750" 
d="M306 701h-219q-3 -13 -5 -36q-1 -22 0 -38q12 -2 31 -5q19 -2 36 -4l-53 -533q-15 -2 -36 -6q-20 -4 -34 -8q-5 -14 -11 -34q-5 -20 -8 -37h257q4 13 5 36t-2 37q-15 4 -36 7q-20 2 -39 4l44 512h9q3 -24 12 -54t18 -52l206 -497h134l55 626q16 1 36 3q19 3 33 6
q5 12 7 27q2 16 2 29v7t-1 10h-226q-4 -13 -5 -36q-2 -22 -1 -38q14 -2 34 -5q21 -2 39 -4l-49 -494h-9q-4 34 -13 69q-8 34 -19 60zM564 898q-5 -17 -19 -29q-15 -12 -38 -13q-39 3 -68 22q-29 18 -81 21q-57 -1 -92 -30q-36 -29 -48 -73q9 -13 25 -24q15 -11 33 -14
q6 16 21 30q16 14 39 15q39 -3 71 -22q32 -20 78 -23q67 2 103 40q35 38 42 85q-13 6 -31 11q-18 4 -35 4v0z" />
    <glyph glyph-name="Ograve" unicode="&#xd2;" horiz-adv-x="713" 
d="M394 721q-160 -3 -252 -120q-92 -116 -94 -309q0 -153 69 -232q69 -80 201 -80q161 3 253 118q92 116 94 312q-1 153 -73 232q-71 79 -198 79v0zM384 640q76 -1 117 -65q41 -63 41 -172q0 -147 -55 -242q-54 -96 -157 -99q-77 1 -117 64q-41 63 -41 175q0 140 52 237
q52 98 160 102v0zM445 751q13 13 24 35t14 40l-187 102q-24 -10 -51 -32t-43 -43z" />
    <glyph glyph-name="Oacute" unicode="&#xd3;" horiz-adv-x="713" 
d="M394 721q-160 -3 -252 -120q-92 -116 -94 -309q0 -153 69 -232q69 -80 201 -80q161 3 253 118q92 116 94 312q-1 153 -73 232q-71 79 -198 79v0zM384 640q76 -1 117 -65q41 -63 41 -172q0 -147 -55 -242q-54 -96 -157 -99q-77 1 -117 64q-41 63 -41 175q0 140 52 237
q52 98 160 102v0zM604 842q-7 24 -22 51q-16 26 -32 41l-218 -107q-1 -6 -1 -12q-1 -7 -1 -13q0 -15 2 -29q2 -15 5 -26z" />
    <glyph glyph-name="Ocircumflex" unicode="&#xd4;" horiz-adv-x="713" 
d="M394 721q-160 -3 -252 -120q-92 -116 -94 -309q0 -153 69 -232q69 -80 201 -80q161 3 253 118q92 116 94 312q-1 153 -73 232q-71 79 -198 79v0zM384 640q76 -1 117 -65q41 -63 41 -172q0 -147 -55 -242q-54 -96 -157 -99q-77 1 -117 64q-41 63 -41 175q0 140 52 237
q52 98 160 102v0zM354 915l-140 -97q0 -17 4 -38t12 -36l170 83l143 -78q15 9 29 27q15 18 22 35l-125 104h-115z" />
    <glyph glyph-name="Otilde" unicode="&#xd5;" horiz-adv-x="713" 
d="M394 721q-160 -3 -252 -120q-92 -116 -94 -309q0 -153 69 -232q69 -80 201 -80q161 3 253 118q92 116 94 312q-1 153 -73 232q-71 79 -198 79v0zM384 640q76 -1 117 -65q41 -63 41 -172q0 -147 -55 -242q-54 -96 -157 -99q-77 1 -117 64q-41 63 -41 175q0 140 52 237
q52 98 160 102v0zM541 898q-5 -17 -19 -29q-15 -12 -38 -13q-39 3 -68 22q-29 18 -81 21q-57 -1 -92 -30q-36 -29 -48 -73q9 -13 25 -24q15 -11 33 -14q6 16 21 30q16 14 39 15q39 -3 71 -22q32 -20 78 -23q67 2 103 40q35 38 42 85q-13 6 -31 11q-18 4 -35 4v0z" />
    <glyph glyph-name="Odieresis" unicode="&#xd6;" horiz-adv-x="713" 
d="M243 897q-31 -1 -50 -19t-20 -47q0 -35 18 -52q18 -18 52 -18q30 0 50 19q20 18 21 51q-1 32 -20 49q-20 17 -51 17v0zM554 897q-31 -1 -50 -19t-20 -47q0 -35 18 -52q18 -18 52 -18q30 0 50 19q20 18 21 51q-1 32 -20 49q-20 17 -51 17v0zM394 721q-160 -3 -252 -120
q-92 -116 -94 -309q0 -153 69 -232q69 -80 201 -80q161 3 253 118q92 116 94 312q-1 153 -73 232q-71 79 -198 79v0zM384 640q76 -1 117 -65q41 -63 41 -172q0 -147 -55 -242q-54 -96 -157 -99q-77 1 -117 64q-41 63 -41 175q0 140 52 237q52 98 160 102v0z" />
    <glyph glyph-name="multiply" unicode="&#xd7;" 
d="M339 268l170 165q-12 14 -35 30t-44 23l-152 -157l-155 158q-20 -9 -42 -24q-22 -16 -34 -30l169 -165l-164 -161q9 -15 29 -34q19 -19 37 -31l160 164l161 -164q16 10 36 30q19 19 28 35z" />
    <glyph glyph-name="Oslash" unicode="&#xd8;" horiz-adv-x="750" 
d="M413 721q-162 -3 -256 -120q-93 -117 -95 -309q0 -98 28 -164l-111 -115q6 -17 22 -39t29 -33l109 112q35 -36 84 -54q49 -19 111 -19q165 3 259 118q94 114 96 307q0 56 -9 99t-27 81l110 114q-13 13 -36 27q-24 14 -43 20l-85 -90q-72 65 -186 65v0zM566 398
q-1 -143 -57 -238q-57 -94 -160 -98q-45 0 -78 21t-53 59l337 351q6 -23 9 -46q2 -22 2 -49v0zM400 640q42 0 73 -18q31 -17 53 -51l-332 -349q-4 20 -6 40q-2 19 -2 43q0 136 53 233q54 97 161 102v0z" />
    <glyph glyph-name="Ugrave" unicode="&#xd9;" horiz-adv-x="698" 
d="M226 619q18 1 39 3q21 3 37 6q5 14 7 37q3 23 2 36h-267q-2 -15 -2 -30q0 -22 3 -43q15 -3 33 -6q18 -2 34 -3l-32 -357q-1 -13 -2 -28q-1 -14 -1 -26q0 -113 56 -170q56 -58 172 -58q149 2 223 81q73 80 82 213l26 345q15 1 33 3q19 3 32 6q5 12 7 27q2 16 2 29v7t-1 10
h-220q-4 -13 -6 -36q-1 -23 0 -38l30 -5q17 -2 33 -4l-33 -351q-8 -88 -51 -146q-43 -57 -127 -59q-70 0 -103 42q-34 42 -34 122q0 10 1 22q0 13 1 22zM449 751q13 13 24 35t14 40l-187 102q-24 -10 -51 -32t-43 -43z" />
    <glyph glyph-name="Uacute" unicode="&#xda;" horiz-adv-x="698" 
d="M226 619q18 1 39 3q21 3 37 6q5 14 7 37q3 23 2 36h-267q-2 -15 -2 -30q0 -22 3 -43q15 -3 33 -6q18 -2 34 -3l-32 -357q-1 -13 -2 -28q-1 -14 -1 -26q0 -113 56 -170q56 -58 172 -58q149 2 223 81q73 80 82 213l26 345q15 1 33 3q19 3 32 6q5 12 7 27q2 16 2 29v7t-1 10
h-220q-4 -13 -6 -36q-1 -23 0 -38l30 -5q17 -2 33 -4l-33 -351q-8 -88 -51 -146q-43 -57 -127 -59q-70 0 -103 42q-34 42 -34 122q0 10 1 22q0 13 1 22zM612 842q-7 24 -22 51q-16 26 -32 41l-218 -107q-1 -6 -1 -12q-1 -7 -1 -13q0 -15 2 -29q2 -15 5 -26z" />
    <glyph glyph-name="Ucircumflex" unicode="&#xdb;" horiz-adv-x="698" 
d="M226 619q18 1 39 3q21 3 37 6q5 14 7 37q3 23 2 36h-267q-2 -15 -2 -30q0 -22 3 -43q15 -3 33 -6q18 -2 34 -3l-32 -357q-1 -13 -2 -28q-1 -14 -1 -26q0 -113 56 -170q56 -58 172 -58q149 2 223 81q73 80 82 213l26 345q15 1 33 3q19 3 32 6q5 12 7 27q2 16 2 29v7t-1 10
h-220q-4 -13 -6 -36q-1 -23 0 -38l30 -5q17 -2 33 -4l-33 -351q-8 -88 -51 -146q-43 -57 -127 -59q-70 0 -103 42q-34 42 -34 122q0 10 1 22q0 13 1 22zM360 915l-140 -97q0 -17 4 -38t12 -36l170 83l143 -78q15 9 29 27q15 18 22 35l-125 104h-115z" />
    <glyph glyph-name="Udieresis" unicode="&#xdc;" horiz-adv-x="698" 
d="M264 897q-31 -1 -50 -19t-20 -47q0 -35 18 -52q18 -18 52 -18q30 0 50 19q20 18 21 51q-1 32 -20 49q-20 17 -51 17v0zM546 897q-31 -1 -50 -19t-20 -47q0 -35 18 -52q18 -18 52 -18q30 0 50 19q20 18 21 51q-1 32 -20 49q-20 17 -51 17v0zM226 619q18 1 39 3q21 3 37 6
q5 14 7 37q3 23 2 36h-267q-2 -15 -2 -30q0 -22 3 -43q15 -3 33 -6q18 -2 34 -3l-32 -357q-1 -13 -2 -28q-1 -14 -1 -26q0 -113 56 -170q56 -58 172 -58q149 2 223 81q73 80 82 213l26 345q15 1 33 3q19 3 32 6q5 12 7 27q2 16 2 29v7t-1 10h-220q-4 -13 -6 -36
q-1 -23 0 -38l30 -5q17 -2 33 -4l-33 -351q-8 -88 -51 -146q-43 -57 -127 -59q-70 0 -103 42q-34 42 -34 122q0 10 1 22q0 13 1 22z" />
    <glyph glyph-name="Yacute" unicode="&#xdd;" horiz-adv-x="611" 
d="M312 343q-1 20 -7 44q-6 25 -12 41l-51 131q-6 15 -14 31t-18 29q16 1 36 2q20 2 35 5q6 15 11 37q6 21 8 38h-265q0 -18 1 -38t5 -36q10 -3 24 -6q14 -2 25 -3l144 -351l-17 -182q-18 -2 -43 -6q-24 -4 -40 -9q-6 -14 -13 -33q-7 -20 -10 -37h313q3 14 4 36t-2 37
q-19 4 -43 7q-24 2 -47 4l14 185l226 350q12 1 25 2q14 2 24 4q6 15 11 38q5 22 6 38h-223q0 -15 2 -37q2 -21 5 -36q11 -3 27 -6q15 -2 29 -3q-12 -11 -24 -27q-13 -17 -21 -31l-80 -135q-10 -17 -20 -40t-15 -43h-10zM559 842q-7 24 -22 51q-16 26 -32 41l-218 -107
q-1 -6 -1 -12q-1 -7 -1 -13q0 -15 2 -29q2 -15 5 -26z" />
    <glyph glyph-name="Thorn" unicode="&#xde;" horiz-adv-x="607" 
d="M308 0q3 13 4 36t-1 37q-19 4 -43 7l-46 4l5 70q19 -3 43 -5q23 -2 42 -2q111 0 192 57t85 174q-1 98 -68 143q-68 45 -188 44q-18 0 -35 -1q-17 0 -35 -2l5 57q17 1 39 3q21 3 37 6q5 14 7 37q2 22 1 36h-259q-3 -13 -5 -36q-1 -23 0 -38q11 -2 31 -5q20 -2 37 -4
l-53 -533q-17 -2 -38 -6t-35 -8q-6 -14 -12 -34t-9 -37h299zM255 483q15 1 34 2q18 1 30 1q73 0 112 -30q40 -30 40 -94q-1 -71 -44 -104t-115 -33q-16 0 -39 1q-24 2 -40 4z" />
    <glyph glyph-name="germandbls" unicode="&#xdf;" horiz-adv-x="638" 
d="M31 -146q11 -3 24 -4t27 -1q18 0 36 1q18 2 31 4l64 603q10 95 50 147q39 52 112 53q34 0 62 -13q28 -14 30 -47q-8 -52 -66 -89t-66 -131q10 -86 78 -123q67 -37 77 -107q0 -40 -22 -65q-22 -24 -59 -25q-29 0 -47 18q-17 18 -20 56q-33 -1 -66 -13q-33 -13 -45 -32
q4 -56 47 -80q44 -24 107 -23q96 0 156 50q60 49 62 145q-9 89 -75 127q-67 38 -76 99q8 54 62 91q54 36 62 116q-4 68 -63 94t-127 25q-115 0 -185 -64q-70 -63 -89 -190h-72q-3 -12 -5 -32q-3 -21 -3 -41q14 -4 33 -7q18 -2 34 -4z" />
    <glyph glyph-name="agrave" unicode="&#xe0;" horiz-adv-x="530" 
d="M295 60q2 -18 10 -39q7 -22 16 -38q28 0 69 8q41 7 67 17q8 14 14 35q7 22 7 38l-74 -7q-2 3 -3 10q-2 6 -2 9l44 352q-29 20 -69 34q-40 13 -90 14q-65 -1 -115 -27q-51 -27 -85 -73q-34 -47 -52 -105q-17 -59 -17 -121q1 -97 39 -141q37 -44 96 -43q41 0 77 20
q36 19 61 57h7zM291 131q-19 -30 -43 -46t-51 -16q-32 0 -50 25q-18 26 -18 84q0 40 10 91t31 86q17 28 47 48q30 19 64 20q12 0 26 -3q14 -2 24 -7zM299 547q16 1 39 9t36 17l-96 175q-28 0 -60 -10t-51 -23z" />
    <glyph glyph-name="aacute" unicode="&#xe1;" horiz-adv-x="530" 
d="M295 60q2 -18 10 -39q7 -22 16 -38q28 0 69 8q41 7 67 17q8 14 14 35q7 22 7 38l-74 -7q-2 3 -3 10q-2 6 -2 9l44 352q-29 20 -69 34q-40 13 -90 14q-65 -1 -115 -27q-51 -27 -85 -73q-34 -47 -52 -105q-17 -59 -17 -121q1 -97 39 -141q37 -44 96 -43q41 0 77 20
q36 19 61 57h7zM291 131q-19 -30 -43 -46t-51 -16q-32 0 -50 25q-18 26 -18 84q0 40 10 91t31 86q17 28 47 48q30 19 64 20q12 0 26 -3q14 -2 24 -7zM442 709q-15 15 -46 27q-32 11 -56 14l-133 -163q7 -15 22 -29q15 -15 30 -22z" />
    <glyph glyph-name="acircumflex" unicode="&#xe2;" horiz-adv-x="530" 
d="M295 60q2 -18 10 -39q7 -22 16 -38q28 0 69 8q41 7 67 17q8 14 14 35q7 22 7 38l-74 -7q-2 3 -3 10q-2 6 -2 9l44 352q-29 20 -69 34q-40 13 -90 14q-65 -1 -115 -27q-51 -27 -85 -73q-34 -47 -52 -105q-17 -59 -17 -121q1 -97 39 -141q37 -44 96 -43q41 0 77 20
q36 19 61 57h7zM291 131q-19 -30 -43 -46t-51 -16q-32 0 -50 25q-18 26 -18 84q0 40 10 91t31 86q17 28 47 48q30 19 64 20q12 0 26 -3q14 -2 24 -7zM253 730l-122 -122q3 -18 11 -38q9 -20 19 -31l129 107l91 -101q19 5 37 17q19 12 29 27l-103 147z" />
    <glyph glyph-name="atilde" unicode="&#xe3;" horiz-adv-x="530" 
d="M295 60q2 -18 10 -39q7 -22 16 -38q28 0 69 8q41 7 67 17q8 14 14 35q7 22 7 38l-74 -7q-2 3 -3 10q-2 6 -2 9l44 352q-29 20 -69 34q-40 13 -90 14q-65 -1 -115 -27q-51 -27 -85 -73q-34 -47 -52 -105q-17 -59 -17 -121q1 -97 39 -141q37 -44 96 -43q41 0 77 20
q36 19 61 57h7zM291 131q-19 -30 -43 -46t-51 -16q-32 0 -50 25q-18 26 -18 84q0 40 10 91t31 86q17 28 47 48q30 19 64 20q12 0 26 -3q14 -2 24 -7zM407 695q-6 -16 -18 -27t-33 -11q-32 3 -56 21t-65 21q-52 -1 -82 -29q-31 -28 -41 -70q6 -12 20 -22q13 -9 28 -11
q6 16 20 28t34 13q31 -3 57 -22q27 -19 66 -22q58 2 90 38q31 36 38 80q-13 7 -29 10q-15 3 -29 3v0z" />
    <glyph glyph-name="adieresis" unicode="&#xe4;" horiz-adv-x="530" 
d="M295 60q2 -18 10 -39q7 -22 16 -38q28 0 69 8q41 7 67 17q8 14 14 35q7 22 7 38l-74 -7q-2 3 -3 10q-2 6 -2 9l44 352q-29 20 -69 34q-40 13 -90 14q-65 -1 -115 -27q-51 -27 -85 -73q-34 -47 -52 -105q-17 -59 -17 -121q1 -97 39 -141q37 -44 96 -43q41 0 77 20
q36 19 61 57h7zM291 131q-19 -30 -43 -46t-51 -16q-32 0 -50 25q-18 26 -18 84q0 40 10 91t31 86q17 28 47 48q30 19 64 20q12 0 26 -3q14 -2 24 -7zM175 697q-27 -1 -45 -18q-17 -17 -18 -45q0 -34 17 -51q16 -17 46 -17q27 0 44 18t18 50q0 30 -17 46q-17 17 -45 17v0z
M399 697q-27 -1 -45 -18q-17 -17 -18 -45q0 -34 17 -51q16 -17 46 -17q27 0 44 18t18 50q0 30 -17 46q-17 17 -45 17v0z" />
    <glyph glyph-name="aring" unicode="&#xe5;" horiz-adv-x="530" 
d="M295 60q2 -18 10 -39q7 -22 16 -38q28 0 69 8q41 7 67 17q8 14 14 35q7 22 7 38l-74 -7q-2 3 -3 10q-2 6 -2 9l44 352q-29 20 -69 34q-40 13 -90 14q-65 -1 -115 -27q-51 -27 -85 -73q-34 -47 -52 -105q-17 -59 -17 -121q1 -97 39 -141q37 -44 96 -43q41 0 77 20
q36 19 61 57h7zM291 131q-19 -30 -43 -46t-51 -16q-32 0 -50 25q-18 26 -18 84q0 40 10 91t31 86q17 28 47 48q30 19 64 20q12 0 26 -3q14 -2 24 -7zM307 764q-61 -1 -94 -35q-34 -35 -34 -91q0 -45 25 -67q26 -22 73 -22q57 1 92 34t36 91q-1 45 -27 68q-27 22 -71 22v0z
M302 712q18 0 29 -10q10 -11 10 -32q0 -32 -15 -49q-15 -18 -42 -18q-41 0 -41 43q0 30 15 48t44 18v0z" />
    <glyph glyph-name="ae" unicode="&#xe6;" horiz-adv-x="732" 
d="M410 200q163 11 220 61q58 50 54 112q0 57 -34 88q-34 32 -99 32q-54 -1 -91 -21q-37 -19 -53 -46h-7q-11 31 -41 50q-31 19 -86 20q-44 -1 -94 -11t-80 -23q-7 -16 -11 -34q-5 -19 -5 -38q0 -15 3 -28q30 17 75 30q44 13 80 14q75 1 75 -74q0 -14 -2 -31t-5 -32
q-39 17 -87 17q-82 -1 -141 -48t-62 -132q1 -65 39 -94q37 -29 95 -29q60 1 100 26q39 25 58 57h7q13 -38 46 -60q34 -22 90 -23q56 1 101 19q44 19 73 43q8 15 14 37q6 21 6 39q-33 -19 -78 -31q-45 -13 -81 -14q-41 0 -60 24t-19 78v22zM200 67q-30 0 -49 14
q-19 15 -20 49q1 40 29 65q29 24 77 25q13 0 31 -2t32 -5q-3 -26 -3 -49q0 -11 1 -24t3 -25q-16 -20 -42 -34q-26 -13 -59 -14v0zM417 274q3 21 10 48t18 45q14 23 38 39q25 15 50 16q23 0 33 -15t10 -39q3 -32 -28 -60q-30 -28 -131 -34v0z" />
    <glyph glyph-name="ccedilla" unicode="&#xe7;" horiz-adv-x="459" 
d="M301 341q15 -10 38 -15q24 -6 43 -6q14 31 21 65q8 35 8 68q-26 18 -58 29q-33 11 -73 11q-59 -1 -110 -25q-50 -25 -84 -68q-33 -43 -51 -105q-19 -61 -19 -123q0 -80 34 -129q34 -48 104 -58l-33 -64q19 -5 32 -18q13 -12 14 -30q-1 -25 -22 -40t-50 -20q5 -14 13 -27
t19 -22q52 5 95 36q43 30 46 77q-1 26 -16 43q-16 17 -37 23l13 44q38 7 69 21q30 14 53 32q9 15 16 38q7 22 7 40q-30 -16 -73 -29t-81 -14q-45 0 -66 29t-21 94q0 46 10 89t31 76q16 26 39 40q23 15 53 15q11 0 22 -2q11 -3 21 -8z" />
    <glyph glyph-name="egrave" unicode="&#xe8;" horiz-adv-x="454" 
d="M131 200q162 11 220 61q59 50 55 112q0 57 -35 88q-34 32 -100 32q-58 -1 -103 -23q-45 -23 -77 -62q-38 -49 -57 -114q-18 -65 -18 -128q0 -90 39 -136q38 -47 119 -47q57 1 101 19q45 19 74 43q8 15 14 37q6 21 6 39q-32 -19 -77 -31q-45 -13 -82 -14q-40 -1 -60 23
q-19 24 -19 79v22zM138 273q3 23 10 48t19 45q15 25 38 41q22 16 48 16q24 0 35 -16q10 -15 10 -40q3 -33 -28 -60t-132 -34v0zM263 547q16 1 39 9t36 17l-96 175q-28 0 -60 -10t-51 -23z" />
    <glyph glyph-name="eacute" unicode="&#xe9;" horiz-adv-x="454" 
d="M131 200q162 11 220 61q59 50 55 112q0 57 -35 88q-34 32 -100 32q-58 -1 -103 -23q-45 -23 -77 -62q-38 -49 -57 -114q-18 -65 -18 -128q0 -90 39 -136q38 -47 119 -47q57 1 101 19q45 19 74 43q8 15 14 37q6 21 6 39q-32 -19 -77 -31q-45 -13 -82 -14q-40 -1 -60 23
q-19 24 -19 79v22zM138 273q3 23 10 48t19 45q15 25 38 41q22 16 48 16q24 0 35 -16q10 -15 10 -40q3 -33 -28 -60t-132 -34v0zM422 709q-15 15 -46 27q-32 11 -56 14l-133 -163q7 -15 22 -29q15 -15 30 -22z" />
    <glyph glyph-name="ecircumflex" unicode="&#xea;" horiz-adv-x="454" 
d="M131 200q162 11 220 61q59 50 55 112q0 57 -35 88q-34 32 -100 32q-58 -1 -103 -23q-45 -23 -77 -62q-38 -49 -57 -114q-18 -65 -18 -128q0 -90 39 -136q38 -47 119 -47q57 1 101 19q45 19 74 43q8 15 14 37q6 21 6 39q-32 -19 -77 -31q-45 -13 -82 -14q-40 -1 -60 23
q-19 24 -19 79v22zM138 273q3 23 10 48t19 45q15 25 38 41q22 16 48 16q24 0 35 -16q10 -15 10 -40q3 -33 -28 -60t-132 -34v0zM230 730l-122 -122q3 -18 11 -38q9 -20 19 -31l129 107l91 -101q19 5 37 17q19 12 29 27l-103 147z" />
    <glyph glyph-name="edieresis" unicode="&#xeb;" horiz-adv-x="454" 
d="M131 200q162 11 220 61q59 50 55 112q0 57 -35 88q-34 32 -100 32q-58 -1 -103 -23q-45 -23 -77 -62q-38 -49 -57 -114q-18 -65 -18 -128q0 -90 39 -136q38 -47 119 -47q57 1 101 19q45 19 74 43q8 15 14 37q6 21 6 39q-32 -19 -77 -31q-45 -13 -82 -14q-40 -1 -60 23
q-19 24 -19 79v22zM138 273q3 23 10 48t19 45q15 25 38 41q22 16 48 16q24 0 35 -16q10 -15 10 -40q3 -33 -28 -60t-132 -34v0zM149 697q-27 -1 -45 -18q-17 -17 -18 -45q0 -34 17 -51q16 -17 46 -17q27 0 44 18t18 50q0 30 -17 46q-17 17 -45 17v0zM373 697q-27 -1 -45 -18
q-17 -17 -18 -45q0 -34 17 -51q16 -17 46 -17q27 0 44 18t18 50q0 30 -17 46q-17 17 -45 17v0z" />
    <glyph glyph-name="igrave" unicode="&#xec;" horiz-adv-x="287" 
d="M86 401l-50 -335q1 -17 13 -42t27 -41q28 0 68 8q39 7 66 17q8 14 14 35q7 22 7 38l-76 -8q-1 3 -2 8q-2 6 -2 9l48 391q-10 2 -25 4t-26 2q-33 0 -62 -7t-50 -18q-9 -10 -15 -33q-7 -23 -7 -35zM149 547q16 1 39 9t36 17l-96 175q-28 0 -60 -10t-51 -23z" />
    <glyph glyph-name="iacute" unicode="&#xed;" horiz-adv-x="287" 
d="M86 401l-50 -335q1 -17 13 -42t27 -41q28 0 68 8q39 7 66 17q8 14 14 35q7 22 7 38l-76 -8q-1 3 -2 8q-2 6 -2 9l48 391q-10 2 -25 4t-26 2q-33 0 -62 -7t-50 -18q-9 -10 -15 -33q-7 -23 -7 -35zM310 709q-15 15 -46 27q-32 11 -56 14l-133 -163q7 -15 22 -29
q15 -15 30 -22z" />
    <glyph glyph-name="icircumflex" unicode="&#xee;" horiz-adv-x="287" 
d="M118 730l-122 -122q3 -18 11 -38q9 -20 19 -31l129 107l91 -101q19 5 37 17q19 12 29 27l-103 147zM86 401l-50 -335q1 -17 13 -42t27 -41q28 0 68 8q39 7 66 17q8 14 14 35q7 22 7 38l-76 -8q-1 3 -2 8q-2 6 -2 9l48 391q-10 2 -25 4t-26 2q-33 0 -62 -7t-50 -18
q-9 -10 -15 -33q-7 -23 -7 -35z" />
    <glyph glyph-name="idieresis" unicode="&#xef;" horiz-adv-x="287" 
d="M51 697q-27 -1 -45 -18q-17 -17 -18 -45q0 -34 17 -51q16 -17 46 -17q27 0 44 18t18 50q0 30 -17 46q-17 17 -45 17v0zM252 697q-27 -1 -45 -18q-17 -17 -18 -45q0 -34 17 -51q16 -17 46 -17q27 0 44 18t18 50q0 30 -17 46q-17 17 -45 17v0zM86 401l-50 -335
q1 -17 13 -42t27 -41q28 0 68 8q39 7 66 17q8 14 14 35q7 22 7 38l-76 -8q-1 3 -2 8q-2 6 -2 9l48 391q-10 2 -25 4t-26 2q-33 0 -62 -7t-50 -18q-9 -10 -15 -33q-7 -23 -7 -35z" />
    <glyph glyph-name="eth" unicode="&#xf0;" horiz-adv-x="527" 
d="M356 425q-14 21 -41 34t-67 13q-108 -4 -168 -89q-61 -85 -62 -202q1 -99 48 -148q47 -50 135 -50q142 5 210 115t68 262q-1 92 -24 155q-23 64 -63 105l84 46q-4 14 -15 32q-11 17 -20 27l-106 -58q-37 24 -80 39q-42 15 -86 25q-15 -13 -29 -33q-13 -20 -20 -40
q28 -5 59 -15q31 -9 59 -25l-82 -45q0 -15 3 -35q3 -21 9 -35l127 70q25 -25 44 -61q18 -37 28 -87h-11zM366 351q1 -103 -32 -193q-34 -90 -113 -96q-43 0 -66 34q-24 33 -24 100q0 81 34 138q35 56 103 59q32 -1 57 -13t41 -29v0z" />
    <glyph glyph-name="ntilde" unicode="&#xf1;" horiz-adv-x="554" 
d="M173 397l9 84q-21 6 -44 6q-28 0 -55 -7q-26 -7 -44 -18q-9 -10 -15 -33q-7 -23 -7 -35l72 7l-56 -398q10 -3 23 -4t27 -1q18 0 35 1q18 2 30 4l37 328q15 28 43 53q29 24 63 26q30 0 44 -21q13 -20 13 -54q-1 -44 -14 -127t-24 -142q1 -17 13 -42t27 -41q28 0 68 8
q40 7 67 17q9 14 15 35q7 22 7 38l-75 -8q-2 3 -3 8q-2 6 -2 9q7 51 20 137t14 136q-2 75 -38 103t-84 27q-64 -2 -101 -30q-36 -29 -53 -66h-12zM415 695q-6 -16 -18 -27t-33 -11q-32 3 -56 21t-65 21q-52 -1 -82 -29q-31 -28 -41 -70q6 -12 20 -22q13 -9 28 -11
q6 16 20 28t34 13q31 -3 57 -22q27 -19 66 -22q58 2 90 38q31 36 38 80q-13 7 -29 10q-15 3 -29 3v0z" />
    <glyph glyph-name="ograve" unicode="&#xf2;" horiz-adv-x="504" 
d="M194 -17q66 1 116 28q51 27 82 74q27 41 42 96t15 111q-1 99 -47 150t-130 51q-70 -1 -123 -32q-52 -32 -85 -87q-23 -39 -35 -89q-11 -50 -11 -101q0 -99 45 -150t131 -51v0zM211 59q-40 0 -59 33q-18 34 -18 102q0 38 6 79q6 40 22 73q15 31 39 51q25 20 57 21
q40 0 58 -34t18 -99q0 -43 -8 -84q-8 -42 -24 -75q-15 -31 -38 -49q-22 -18 -53 -18v0zM286 547q16 1 39 9t36 17l-96 175q-28 0 -60 -10t-51 -23z" />
    <glyph glyph-name="oacute" unicode="&#xf3;" horiz-adv-x="504" 
d="M194 -17q66 1 116 28q51 27 82 74q27 41 42 96t15 111q-1 99 -47 150t-130 51q-70 -1 -123 -32q-52 -32 -85 -87q-23 -39 -35 -89q-11 -50 -11 -101q0 -99 45 -150t131 -51v0zM211 59q-40 0 -59 33q-18 34 -18 102q0 38 6 79q6 40 22 73q15 31 39 51q25 20 57 21
q40 0 58 -34t18 -99q0 -43 -8 -84q-8 -42 -24 -75q-15 -31 -38 -49q-22 -18 -53 -18v0zM428 709q-15 15 -46 27q-32 11 -56 14l-133 -163q7 -15 22 -29q15 -15 30 -22z" />
    <glyph glyph-name="ocircumflex" unicode="&#xf4;" horiz-adv-x="504" 
d="M194 -17q66 1 116 28q51 27 82 74q27 41 42 96t15 111q-1 99 -47 150t-130 51q-70 -1 -123 -32q-52 -32 -85 -87q-23 -39 -35 -89q-11 -50 -11 -101q0 -99 45 -150t131 -51v0zM211 59q-40 0 -59 33q-18 34 -18 102q0 38 6 79q6 40 22 73q15 31 39 51q25 20 57 21
q40 0 58 -34t18 -99q0 -43 -8 -84q-8 -42 -24 -75q-15 -31 -38 -49q-22 -18 -53 -18v0zM238 730l-122 -122q3 -18 11 -38q9 -20 19 -31l129 107l91 -101q19 5 37 17q19 12 29 27l-103 147z" />
    <glyph glyph-name="otilde" unicode="&#xf5;" horiz-adv-x="504" 
d="M194 -17q66 1 116 28q51 27 82 74q27 41 42 96t15 111q-1 99 -47 150t-130 51q-70 -1 -123 -32q-52 -32 -85 -87q-23 -39 -35 -89q-11 -50 -11 -101q0 -99 45 -150t131 -51v0zM211 59q-40 0 -59 33q-18 34 -18 102q0 38 6 79q6 40 22 73q15 31 39 51q25 20 57 21
q40 0 58 -34t18 -99q0 -43 -8 -84q-8 -42 -24 -75q-15 -31 -38 -49q-22 -18 -53 -18v0zM394 695q-6 -16 -18 -27t-33 -11q-32 3 -56 21t-65 21q-52 -1 -82 -29q-31 -28 -41 -70q6 -12 20 -22q13 -9 28 -11q6 16 20 28t34 13q31 -3 57 -22q27 -19 66 -22q58 2 90 38
q31 36 38 80q-13 7 -29 10q-15 3 -29 3v0z" />
    <glyph glyph-name="odieresis" unicode="&#xf6;" horiz-adv-x="504" 
d="M194 -17q66 1 116 28q51 27 82 74q27 41 42 96t15 111q-1 99 -47 150t-130 51q-70 -1 -123 -32q-52 -32 -85 -87q-23 -39 -35 -89q-11 -50 -11 -101q0 -99 45 -150t131 -51v0zM211 59q-40 0 -59 33q-18 34 -18 102q0 38 6 79q6 40 22 73q15 31 39 51q25 20 57 21
q40 0 58 -34t18 -99q0 -43 -8 -84q-8 -42 -24 -75q-15 -31 -38 -49q-22 -18 -53 -18v0zM165 697q-27 -1 -45 -18q-17 -17 -18 -45q0 -34 17 -51q16 -17 46 -17q27 0 44 18t18 50q0 30 -17 46q-17 17 -45 17v0zM389 697q-27 -1 -45 -18q-17 -17 -18 -45q0 -34 17 -51
q16 -17 46 -17q27 0 44 18t18 50q0 30 -17 46q-17 17 -45 17v0z" />
    <glyph glyph-name="divide" unicode="&#xf7;" 
d="M503 227q3 14 3 32q0 13 -1 28q-2 15 -5 27h-456q-5 -17 -8 -42q-4 -25 -4 -45h471zM269 135q-28 0 -45 -16t-18 -44q0 -32 16 -49q16 -16 47 -16q28 0 45 17q18 16 18 48q0 29 -18 45q-17 15 -45 15v0zM269 527q-28 0 -45 -16t-18 -44q0 -32 16 -49q16 -16 47 -16
q28 0 45 17q18 16 18 48q0 29 -18 45q-17 15 -45 15v0z" />
    <glyph glyph-name="oslash" unicode="&#xf8;" horiz-adv-x="504" 
d="M201 -17q66 1 118 28q51 27 83 74q28 41 43 96t15 111q0 37 -7 68q-7 30 -21 54l68 78q-8 12 -25 25q-16 13 -30 19l-60 -71q-42 28 -105 28q-71 -1 -124 -33t-87 -86q-24 -39 -35 -89q-12 -50 -12 -101q0 -37 6 -67q6 -31 19 -54l-58 -70q5 -15 15 -34q11 -19 20 -29
l68 82q21 -14 49 -22q27 -7 60 -7v0zM218 59q-42 0 -61 33l187 224q1 -6 1 -15q1 -9 1 -16q0 -43 -8 -84q-9 -42 -26 -75q-16 -31 -39 -49q-24 -18 -55 -18v0zM138 194q0 38 6 79q7 40 23 73q16 31 41 51t58 21q39 0 59 -32l-186 -223q-1 7 -1 15v16v0z" />
    <glyph glyph-name="ugrave" unicode="&#xf9;" horiz-adv-x="558" 
d="M506 81l-72 -7q-2 2 -3 8q-2 6 -2 10l41 389q-10 2 -24 4q-15 2 -25 2q-33 0 -60 -7q-28 -7 -48 -18q-9 -10 -15 -33q-7 -23 -7 -35l66 7l-36 -267q-17 -28 -45 -47t-59 -20q-30 0 -43 20t-13 54q1 43 14 153t23 187q-10 2 -25 4t-26 2q-33 0 -63 -7q-29 -7 -50 -18
q-9 -10 -15 -33t-6 -35l71 7q-10 -52 -24 -144t-15 -144q2 -74 38 -102q36 -29 83 -28q58 1 95 24t57 57h7q2 -19 9 -42q7 -22 16 -39q28 0 68 8t66 17q9 14 15 35q7 22 7 38v0zM288 547q16 1 39 9t36 17l-96 175q-28 0 -60 -10t-51 -23z" />
    <glyph glyph-name="uacute" unicode="&#xfa;" horiz-adv-x="558" 
d="M506 81l-72 -7q-2 2 -3 8q-2 6 -2 10l41 389q-10 2 -24 4q-15 2 -25 2q-33 0 -60 -7q-28 -7 -48 -18q-9 -10 -15 -33q-7 -23 -7 -35l66 7l-36 -267q-17 -28 -45 -47t-59 -20q-30 0 -43 20t-13 54q1 43 14 153t23 187q-10 2 -25 4t-26 2q-33 0 -63 -7q-29 -7 -50 -18
q-9 -10 -15 -33t-6 -35l71 7q-10 -52 -24 -144t-15 -144q2 -74 38 -102q36 -29 83 -28q58 1 95 24t57 57h7q2 -19 9 -42q7 -22 16 -39q28 0 68 8t66 17q9 14 15 35q7 22 7 38v0zM440 709q-15 15 -46 27q-32 11 -56 14l-133 -163q7 -15 22 -29q15 -15 30 -22z" />
    <glyph glyph-name="ucircumflex" unicode="&#xfb;" horiz-adv-x="558" 
d="M506 81l-72 -7q-2 2 -3 8q-2 6 -2 10l41 389q-10 2 -24 4q-15 2 -25 2q-33 0 -60 -7q-28 -7 -48 -18q-9 -10 -15 -33q-7 -23 -7 -35l66 7l-36 -267q-17 -28 -45 -47t-59 -20q-30 0 -43 20t-13 54q1 43 14 153t23 187q-10 2 -25 4t-26 2q-33 0 -63 -7q-29 -7 -50 -18
q-9 -10 -15 -33t-6 -35l71 7q-10 -52 -24 -144t-15 -144q2 -74 38 -102q36 -29 83 -28q58 1 95 24t57 57h7q2 -19 9 -42q7 -22 16 -39q28 0 68 8t66 17q9 14 15 35q7 22 7 38v0zM258 730l-122 -122q3 -18 11 -38q9 -20 19 -31l129 107l91 -101q19 5 37 17q19 12 29 27
l-103 147z" />
    <glyph glyph-name="udieresis" unicode="&#xfc;" horiz-adv-x="558" 
d="M506 81l-72 -7q-2 2 -3 8q-2 6 -2 10l41 389q-10 2 -24 4q-15 2 -25 2q-33 0 -60 -7q-28 -7 -48 -18q-9 -10 -15 -33q-7 -23 -7 -35l66 7l-36 -267q-17 -28 -45 -47t-59 -20q-30 0 -43 20t-13 54q1 43 14 153t23 187q-10 2 -25 4t-26 2q-33 0 -63 -7q-29 -7 -50 -18
q-9 -10 -15 -33t-6 -35l71 7q-10 -52 -24 -144t-15 -144q2 -74 38 -102q36 -29 83 -28q58 1 95 24t57 57h7q2 -19 9 -42q7 -22 16 -39q28 0 68 8t66 17q9 14 15 35q7 22 7 38v0zM170 697q-27 -1 -45 -18q-17 -17 -18 -45q0 -34 17 -51q16 -17 46 -17q27 0 44 18t18 50
q0 30 -17 46q-17 17 -45 17v0zM394 697q-27 -1 -45 -18q-17 -17 -18 -45q0 -34 17 -51q16 -17 46 -17q27 0 44 18t18 50q0 30 -17 46q-17 17 -45 17v0z" />
    <glyph glyph-name="yacute" unicode="&#xfd;" horiz-adv-x="483" 
d="M51 403l103 -419q-34 -46 -80 -75q-46 -30 -99 -46q1 -24 10 -53q10 -30 22 -47q62 26 120 75q57 50 101 110q52 73 116 198q63 126 116 266q-1 15 -12 42q-11 26 -24 39q-23 0 -62 -5q-40 -6 -62 -14q-11 -12 -18 -33q-8 -21 -10 -37l75 5q2 -3 3 -8q1 -6 1 -9
q-22 -73 -53 -154q-31 -80 -65 -154h-9q-1 28 -6 64q-4 37 -9 60l-59 271q-10 4 -22 6t-23 2q-29 0 -56 -6t-45 -15q-7 -11 -13 -33q-7 -23 -7 -35zM426 709q-15 15 -46 27q-32 11 -56 14l-133 -163q7 -15 22 -29q15 -15 30 -22z" />
    <glyph glyph-name="thorn" unicode="&#xfe;" horiz-adv-x="537" 
d="M7 -225q11 -3 24 -4q12 -1 26 -1q18 0 36 1q18 2 30 4l21 225q15 -8 37 -12q21 -5 45 -5q50 0 94 21t77 57q39 45 60 110q21 66 21 136q-2 104 -45 146t-101 40q-55 -1 -88 -26q-33 -24 -48 -57h-13q10 35 19 82q8 47 12 85l15 146q-10 2 -25 4t-26 2q-33 0 -62 -7
t-50 -18q-9 -10 -15 -33t-6 -35l70 7zM185 338q16 29 45 49q28 20 61 21q37 0 54 -32q17 -33 17 -95q0 -51 -11 -99q-12 -48 -36 -78q-18 -22 -44 -33t-57 -11q-16 0 -33 3q-16 2 -28 7z" />
    <glyph glyph-name="ydieresis" unicode="&#xff;" horiz-adv-x="483" 
d="M51 403l103 -419q-34 -46 -80 -75q-46 -30 -99 -46q1 -24 10 -53q10 -30 22 -47q62 26 120 75q57 50 101 110q52 73 116 198q63 126 116 266q-1 15 -12 42q-11 26 -24 39q-23 0 -62 -5q-40 -6 -62 -14q-11 -12 -18 -33q-8 -21 -10 -37l75 5q2 -3 3 -8q1 -6 1 -9
q-22 -73 -53 -154q-31 -80 -65 -154h-9q-1 28 -6 64q-4 37 -9 60l-59 271q-10 4 -22 6t-23 2q-29 0 -56 -6t-45 -15q-7 -11 -13 -33q-7 -23 -7 -35zM151 697q-27 -1 -45 -18q-17 -17 -18 -45q0 -34 17 -51q16 -17 46 -17q27 0 44 18t18 50q0 30 -17 46q-17 17 -45 17v0z
M375 697q-27 -1 -45 -18q-17 -17 -18 -45q0 -34 17 -51q16 -17 46 -17q27 0 44 18t18 50q0 30 -17 46q-17 17 -45 17v0z" />
    <glyph glyph-name="dotlessi" unicode="&#x131;" horiz-adv-x="287" 
d="M86 401l-50 -335q1 -17 13 -42t27 -41q28 0 68 8q39 7 66 17q8 14 14 35q7 22 7 38l-76 -8q-1 3 -2 8q-2 6 -2 9l48 391q-10 2 -25 4t-26 2q-33 0 -62 -7t-50 -18q-9 -10 -15 -33q-7 -23 -7 -35z" />
    <glyph glyph-name="IJ" unicode="&#x132;" horiz-adv-x="720" 
d="M299 0q3 14 4 36t-1 37q-17 4 -39 7q-22 2 -42 4l46 535q18 1 39 3q21 3 37 6q5 12 7 27q2 16 2 29v7t-1 10h-260q-3 -13 -5 -36q-1 -22 0 -38q12 -2 32 -5q19 -2 36 -4l-53 -533q-17 -2 -38 -6q-22 -4 -35 -8q-7 -14 -13 -34t-8 -37h292zM641 619q17 1 39 3q21 3 36 6
q5 12 7 27q2 16 2 29v7t-1 10h-276q-3 -13 -5 -36q-1 -22 0 -38q16 -2 39 -5q24 -2 45 -4l-37 -405q-9 -111 -56 -194q-47 -84 -137 -136q3 -15 13 -34t20 -30q125 58 196 165q72 107 84 255z" />
    <glyph glyph-name="ij" unicode="&#x133;" horiz-adv-x="559" 
d="M86 401l-51 -335q1 -17 13 -42t27 -41q28 0 68 8q40 7 67 17q8 14 14 35q7 22 7 38l-74 -8q-2 3 -3 8q-2 6 -2 9l47 391q-10 2 -25 4t-26 2q-33 0 -62 -7t-50 -18q-9 -10 -15 -33q-7 -23 -7 -35zM163 735q-30 -1 -50 -20q-19 -19 -20 -50q0 -37 18 -56t52 -19q30 0 49 20
q18 19 19 55q0 33 -19 52q-18 18 -49 18v0zM266 -233q75 68 127 157q52 88 65 199l39 358q-10 2 -25 4t-26 2q-33 0 -63 -7q-29 -7 -50 -18q-9 -10 -15 -33t-6 -35l71 7l-39 -309q-13 -88 -50 -160t-82 -118q8 -14 24 -27q15 -13 30 -20v0zM450 735q-30 -1 -50 -20
q-19 -19 -20 -50q0 -37 18 -56t52 -19q30 0 49 20q18 19 19 55q0 33 -19 52q-18 18 -49 18v0z" />
    <glyph glyph-name="Lslash" unicode="&#x141;" horiz-adv-x="603" 
d="M112 85q-17 -2 -38 -6q-22 -4 -35 -8q-7 -14 -13 -34t-8 -37h521l17 191q-19 0 -46 -3q-26 -3 -45 -9q-6 -19 -13 -47q-7 -29 -10 -52h-211l20 239l188 115q-4 15 -15 35q-12 20 -22 31l-143 -86l18 205q20 0 48 3q29 3 48 6q5 14 7 37q3 22 2 36h-280q-3 -13 -5 -36
q-1 -22 0 -38q11 -2 31 -5q19 -2 36 -4l-25 -259l-97 -59q0 -19 4 -44q3 -25 9 -41l74 45z" />
    <glyph glyph-name="lslash" unicode="&#x142;" horiz-adv-x="327" 
d="M245 723q-10 2 -25 4t-26 2q-33 0 -62 -7t-50 -18q-9 -10 -15 -33t-6 -35l70 7l-38 -278l-95 -54q0 -17 4 -38q3 -22 8 -34l77 46q-5 -16 -9 -36q-4 -21 -6 -39l-18 -144q1 -17 13 -42t27 -41q29 0 69 8q39 7 66 17q8 14 14 35q7 22 7 38l-74 -8q-1 3 -2 8q-2 6 -2 9
l28 245l105 61q-3 13 -11 31t-17 27l-73 -43q5 17 8 40q4 23 6 41z" />
    <glyph glyph-name="OE" unicode="&#x152;" horiz-adv-x="959" 
d="M874 0l15 173q-19 0 -46 -3q-26 -3 -43 -8q-6 -17 -12 -40t-9 -43h-200l19 239h161q0 -13 1 -28q2 -15 4 -25q15 -5 38 -7q23 -1 42 1l17 194q-20 0 -43 -3t-39 -8q-4 -10 -8 -24q-4 -15 -6 -25h-161l19 231h204q0 -17 2 -39q2 -21 4 -36q17 -5 39 -8q23 -3 41 -3l16 163
h-408q-27 9 -53 13q-27 4 -55 4q-167 -3 -265 -116q-98 -114 -100 -304q0 -156 73 -235q72 -80 213 -80q26 0 57 4q31 3 63 13h420zM461 86q-25 -10 -53 -15t-53 -5q-94 0 -139 61q-44 62 -44 181q0 139 57 232q56 93 173 97q30 0 58 -7q29 -8 51 -23z" />
    <glyph glyph-name="oe" unicode="&#x153;" horiz-adv-x="751" 
d="M192 -17q56 1 95 20q38 19 61 48h7q12 -30 40 -49q28 -18 79 -19q55 1 100 20q45 18 72 42q8 15 14 37q6 21 6 39q-32 -19 -76 -31q-43 -13 -79 -14q-40 -1 -59 23q-20 23 -20 79v22q160 11 217 61q58 50 54 111q0 57 -34 89q-34 31 -97 32q-51 0 -95 -20
q-43 -20 -65 -53h-7q-13 33 -50 53q-36 20 -89 20q-68 -1 -119 -33q-52 -32 -83 -85q-23 -40 -35 -89q-11 -49 -11 -101q0 -101 45 -151q44 -51 129 -51v0zM209 59q-39 0 -57 33q-19 33 -19 101q0 40 7 80q6 40 21 72t39 52t56 21q38 0 57 -34q18 -34 18 -100q0 -43 -8 -84
q-8 -42 -24 -75q-16 -30 -38 -48t-52 -18v0zM551 422q24 0 35 -15q10 -15 10 -39q3 -32 -28 -60q-32 -28 -130 -34q3 22 10 48q7 25 18 44q14 25 37 40q23 16 48 16v0z" />
    <glyph glyph-name="Scaron" unicode="&#x160;" horiz-adv-x="561" 
d="M406 543q17 -8 42 -14q24 -5 44 -5q12 35 21 82t13 83q-44 15 -94 24q-49 8 -92 8q-115 -1 -177 -58q-61 -57 -62 -155q18 -148 143 -190q125 -43 143 -141q-1 -58 -37 -89t-100 -31q-29 0 -56 7q-28 6 -51 18l9 103q-19 7 -48 11q-28 4 -48 4q-9 -37 -18 -89
q-8 -52 -12 -93q43 -19 95 -28q52 -10 104 -10q115 -2 195 51q80 52 83 179q-18 145 -144 188q-127 44 -145 143q0 46 32 75t92 30q43 0 76 -18zM387 755l145 109q-7 12 -22 25q-15 14 -29 19l-133 -70l-125 74q-22 -3 -45 -14t-37 -24l128 -119h118z" />
    <glyph glyph-name="scaron" unicode="&#x161;" horiz-adv-x="430" 
d="M268 365q13 -9 37 -15q23 -6 44 -6q9 27 16 60q6 33 7 60q-32 14 -66 22q-34 7 -65 7q-87 -1 -134 -42q-47 -40 -47 -104q12 -101 94 -138q81 -37 93 -94q-1 -28 -21 -44q-19 -16 -46 -16q-32 0 -51 19q-19 18 -21 58q-32 0 -63 -12t-44 -32q3 -56 45 -81q42 -24 111 -24
q79 -1 137 38q59 38 62 121q-12 93 -95 132t-95 97q1 25 18 39q18 14 42 14q14 0 27 -3q12 -3 20 -7zM274 550l150 149q-10 11 -26 21q-17 11 -32 15l-121 -102l-96 101q-18 -2 -40 -11q-23 -9 -35 -21l106 -158z" />
    <glyph glyph-name="Ydieresis" unicode="&#x178;" horiz-adv-x="611" 
d="M229 897q-31 -1 -50 -19t-20 -47q0 -35 18 -52q18 -18 52 -18q30 0 50 19q20 18 21 51q-1 32 -20 49q-20 17 -51 17v0zM493 897q-31 -1 -50 -19t-20 -47q0 -35 18 -52q18 -18 52 -18q30 0 50 19q20 18 21 51q-1 32 -20 49q-20 17 -51 17v0zM312 343q-1 20 -7 44
q-6 25 -12 41l-51 131q-6 15 -14 31t-18 29q16 1 36 2q20 2 35 5q6 15 11 37q6 21 8 38h-265q0 -18 1 -38t5 -36q10 -3 24 -6q14 -2 25 -3l144 -351l-17 -182q-18 -2 -43 -6q-24 -4 -40 -9q-6 -14 -13 -33q-7 -20 -10 -37h313q3 14 4 36t-2 37q-19 4 -43 7q-24 2 -47 4
l14 185l226 350q12 1 25 2q14 2 24 4q6 15 11 38q5 22 6 38h-223q0 -15 2 -37q2 -21 5 -36q11 -3 27 -6q15 -2 29 -3q-12 -11 -24 -27q-13 -17 -21 -31l-80 -135q-10 -17 -20 -40t-15 -43h-10z" />
    <glyph glyph-name="Zcaron" unicode="&#x17d;" horiz-adv-x="582" 
d="M12 0h497l18 194q-21 0 -48 -4t-44 -10q-6 -18 -13 -47q-8 -29 -12 -51h-242v10l381 530l8 79h-469l-17 -182q21 0 48 3q27 2 45 6q6 18 14 47q7 28 10 46h223v-9l-393 -533zM393 755l145 109q-7 12 -22 25q-15 14 -29 19l-133 -70l-125 74q-22 -3 -45 -14t-37 -24
l128 -119h118z" />
    <glyph glyph-name="zcaron" unicode="&#x17e;" horiz-adv-x="469" 
d="M9 0h372l28 146q-18 4 -43 3q-25 0 -41 -3q-8 -15 -15 -34q-7 -18 -11 -34q-34 -4 -73 -6t-76 -2v9l272 342l-5 55h-358l-19 -126q15 -6 38 -9q23 -4 41 -4q9 15 17 34t13 34h126v-9l-271 -342zM297 550l150 149q-10 11 -26 21q-17 11 -32 15l-121 -102l-96 101
q-18 -2 -40 -11q-23 -9 -35 -21l106 -158z" />
    <glyph glyph-name="longs" unicode="&#x17f;" horiz-adv-x="282" 
d="M98 476h-71q-3 -13 -5 -33q-2 -21 -2 -40q14 -4 33 -7q19 -2 35 -4l-66 -538q11 -3 23 -4q13 -1 27 -1q18 0 35 1q18 2 30 4l72 688q9 68 35 97q26 28 56 27q5 0 12 -1t12 -4l-8 -55q15 -9 37 -15q23 -7 42 -7q12 27 22 64q9 37 9 66q-32 10 -61 15t-52 5q-76 1 -135 -46
q-58 -46 -73 -152z" />
    <glyph glyph-name="florin" unicode="&#x192;" horiz-adv-x="513" 
d="M416 196q5 17 6 38q2 21 0 36h-133l14 94q11 64 35 90t53 25q8 0 15 -2q7 -1 12 -5l-10 -53q11 -9 32 -15q21 -7 39 -9q12 28 23 65q12 37 18 69q-25 11 -53 16t-53 5q-73 1 -134 -47t-83 -152l-15 -81h-114q-6 -15 -11 -35q-4 -21 -5 -39h117l-33 -172q-12 -60 -34 -88
q-23 -27 -51 -27q-8 0 -15 1q-8 2 -12 4l9 67q-14 6 -36 13q-22 6 -40 9q-12 -31 -23 -71q-11 -41 -15 -73q26 -10 55 -15q30 -6 57 -6q75 -1 138 45q63 47 83 155l24 158h140z" />
    <glyph glyph-name="uni02BB" unicode="&#x2bb;" horiz-adv-x="240" 
d="M241 718q-19 0 -39 -3q-21 -3 -35 -8q-34 -47 -67 -109q-34 -62 -59 -127q19 -13 50 -24t59 -14q15 14 31 38q16 25 22 41l-48 12q13 39 38 95q25 55 48 99v0z" />
    <glyph glyph-name="uni02BC" unicode="&#x2bc;" horiz-adv-x="266" 
d="M124 626q-10 -37 -27 -82q-18 -45 -37 -84q7 -8 21 -17t29 -14q35 48 77 129q42 82 64 152q-18 6 -39 10q-22 3 -43 3q-11 0 -23 -1q-11 -2 -21 -5q-12 -14 -25 -36q-13 -23 -22 -43z" />
    <glyph glyph-name="circumflex" unicode="&#x2c6;" horiz-adv-x="472" 
d="M202 730l-122 -122q3 -18 11 -38q9 -20 19 -31l129 107l91 -101q19 5 37 17q19 12 29 27l-103 147z" />
    <glyph glyph-name="caron" unicode="&#x2c7;" horiz-adv-x="472" 
d="M275 550l150 149q-10 11 -26 21q-17 11 -32 15l-121 -102l-96 101q-18 -2 -40 -11q-23 -9 -35 -21l106 -158z" />
    <glyph glyph-name="breve" unicode="&#x2d8;" horiz-adv-x="472" 
d="M169 724q-20 -3 -40 -11q-19 -9 -32 -20q1 -69 35 -107q34 -37 101 -38q71 1 117 42q45 42 62 111q-12 8 -31 14q-19 5 -36 6q-15 -42 -39 -65q-25 -23 -61 -23t-54 23q-19 22 -22 68v0z" />
    <glyph glyph-name="dotaccent" unicode="&#x2d9;" horiz-adv-x="427" 
d="M217 699q-28 0 -47 -18q-18 -18 -19 -48q0 -35 17 -52q17 -18 49 -18q28 0 46 19q18 18 19 51q0 32 -18 49q-17 17 -47 17v0z" />
    <glyph glyph-name="ring" unicode="&#x2da;" horiz-adv-x="427" 
d="M234 764q-61 -1 -94 -35q-34 -35 -34 -91q0 -45 25 -67q26 -22 73 -22q57 1 92 34t36 91q-1 45 -27 68q-27 22 -71 22v0zM229 712q18 0 29 -10q10 -11 10 -32q0 -32 -15 -49q-15 -18 -42 -18q-41 0 -41 43q0 30 15 48t44 18v0z" />
    <glyph glyph-name="ogonek" unicode="&#x2db;" horiz-adv-x="416" 
d="M304 9q-23 0 -51 -1q-27 -1 -43 -3q-60 -21 -89 -55q-28 -33 -28 -73q1 -47 32 -71q31 -23 74 -23q17 0 38 4q20 3 34 9q0 16 -3 32q-3 17 -8 29q-5 -2 -12 -3q-6 -1 -13 -1q-20 0 -32 10q-13 11 -13 33q1 34 31 62q30 27 83 51v0z" />
    <glyph glyph-name="tilde" unicode="&#x2dc;" horiz-adv-x="472" 
d="M366 695q-6 -16 -18 -27t-33 -11q-32 3 -56 21t-65 21q-52 -1 -82 -29q-31 -28 -41 -70q6 -12 20 -22q13 -9 28 -11q6 16 20 28t34 13q31 -3 57 -22q27 -19 66 -22q58 2 90 38q31 36 38 80q-13 7 -29 10q-15 3 -29 3v0z" />
    <glyph glyph-name="hungarumlaut" unicode="&#x2dd;" horiz-adv-x="461" 
d="M257 709q-15 15 -45 25t-54 12l-110 -165q7 -14 22 -29q14 -14 30 -21zM453 709q-15 15 -45 25t-54 12l-110 -165q7 -14 22 -29q14 -14 30 -21z" />
    <glyph glyph-name="gravecomb" unicode="&#x300;" horiz-adv-x="1" 
d="M-74 547q16 1 39 9t36 17l-96 175q-28 0 -60 -10t-51 -23z" />
    <glyph glyph-name="acutecomb" unicode="&#x301;" horiz-adv-x="1" 
d="M1 709q-15 15 -46 27q-32 11 -56 14l-133 -163q7 -15 22 -29q15 -15 30 -22z" />
    <glyph glyph-name="uni0302" unicode="&#x302;" horiz-adv-x="1" 
d="M-193 730l-122 -122q3 -18 11 -38q9 -20 19 -31l129 107l91 -101q19 5 37 17q19 12 29 27l-103 147z" />
    <glyph glyph-name="tildecomb" unicode="&#x303;" horiz-adv-x="1" 
d="M-57 695q-6 -16 -18 -27t-33 -11q-32 3 -56 21t-65 21q-52 -1 -82 -29q-31 -28 -41 -70q6 -12 20 -22q13 -9 28 -11q6 16 20 28t34 13q31 -3 57 -22q27 -19 66 -22q58 2 90 38q31 36 38 80q-13 7 -29 10q-15 3 -29 3v0z" />
    <glyph glyph-name="uni0304" unicode="&#x304;" horiz-adv-x="1" 
d="M-7 588q3 11 6 26q2 14 2 31v11q-1 6 -2 14h-273q-6 -17 -11 -40t-6 -42h284z" />
    <glyph glyph-name="uni0306" unicode="&#x306;" horiz-adv-x="1" 
d="M-242 724q-20 -3 -40 -11q-19 -9 -32 -20q1 -69 35 -107q34 -37 101 -38q71 1 117 42q45 42 62 111q-12 8 -31 14q-19 5 -36 6q-15 -42 -39 -65q-25 -23 -61 -23t-54 23q-19 22 -22 68v0z" />
    <glyph glyph-name="uni0307" unicode="&#x307;" horiz-adv-x="1" 
d="M-64 699q-28 0 -47 -18q-18 -18 -19 -48q0 -35 17 -52q17 -18 49 -18q28 0 46 19q18 18 19 51q0 32 -18 49q-17 17 -47 17v0z" />
    <glyph glyph-name="uni0308" unicode="&#x308;" horiz-adv-x="1" 
d="M-285 697q-27 -1 -45 -18q-17 -17 -18 -45q0 -34 17 -51q16 -17 46 -17q27 0 44 18t18 50q0 30 -17 46q-17 17 -45 17v0zM-61 697q-27 -1 -45 -18q-17 -17 -18 -45q0 -34 17 -51q16 -17 46 -17q27 0 44 18t18 50q0 30 -17 46q-17 17 -45 17v0z" />
    <glyph glyph-name="uni030A" unicode="&#x30a;" horiz-adv-x="1" 
d="M-97 764q-61 -1 -94 -35q-34 -35 -34 -91q0 -45 25 -67q26 -22 73 -22q57 1 92 34t36 91q-1 45 -27 68q-27 22 -71 22v0zM-102 712q18 0 29 -10q10 -11 10 -32q0 -32 -15 -49q-15 -18 -42 -18q-41 0 -41 43q0 30 15 48t44 18v0z" />
    <glyph glyph-name="uni030B" unicode="&#x30b;" horiz-adv-x="1" 
d="M-195 712q-15 15 -45 25t-54 12l-110 -165q7 -14 22 -29q14 -14 30 -21zM1 712q-15 15 -45 25t-54 12l-110 -165q7 -14 22 -29q14 -14 30 -21z" />
    <glyph glyph-name="uni030C" unicode="&#x30c;" horiz-adv-x="1" 
d="M-149 550l150 149q-10 11 -26 21q-17 11 -32 15l-121 -102l-96 101q-18 -2 -40 -11q-23 -9 -35 -21l106 -158z" />
    <glyph glyph-name="uni0312" unicode="&#x312;" horiz-adv-x="1" 
d="M1 805q-18 0 -39 -3q-21 -2 -32 -6q-26 -35 -52 -82q-26 -48 -44 -98q20 -13 50 -22q29 -10 58 -13q14 13 29 35t20 39l-47 11q9 27 26 68q16 41 31 71v0z" />
    <glyph glyph-name="uni0313" unicode="&#x313;" horiz-adv-x="1" 
d="M-115 619q-9 -31 -24 -68q-15 -38 -31 -68q7 -7 22 -15t30 -12q30 40 66 108t53 123q-15 6 -35 9t-38 3q-11 0 -21 -1q-11 -1 -19 -3q-11 -12 -23 -31q-11 -20 -18 -37z" />
    <glyph glyph-name="uni0326" unicode="&#x326;" horiz-adv-x="1" 
d="M-116 -136q-9 -29 -24 -66q-14 -37 -28 -67q7 -6 22 -15q15 -8 30 -12q29 40 64 109t53 124q-15 6 -35 9q-20 2 -39 2q-11 0 -22 -1t-20 -4q-12 -13 -23 -32q-12 -20 -19 -38z" />
    <glyph glyph-name="uni0394" unicode="&#x394;" horiz-adv-x="634" 
d="M306 713l-321 -658l-4 -55h602l5 66l-189 647h-93zM108 78l162 354q15 34 31 80q15 47 21 79h10q0 -32 8 -79q8 -48 17 -82l95 -352h-344z" />
    <glyph glyph-name="uni03A9" unicode="&#x3a9;" horiz-adv-x="798" 
d="M407 0h330l15 160q-21 0 -45 -3q-25 -2 -42 -6q-5 -14 -9 -33q-5 -20 -7 -36h-122v9q65 34 118 123q52 89 55 212q-1 133 -74 213t-201 82q-149 -3 -243 -107q-95 -103 -98 -272q1 -97 34 -158q32 -60 83 -93v-9h-117q0 14 -2 34q-2 19 -4 33q-16 4 -40 6q-25 2 -43 2
l-15 -157h324l7 74q-48 36 -77 101t-30 157q0 119 52 213t160 99q87 -3 125 -69t37 -159q-2 -119 -49 -211q-48 -92 -115 -131z" />
    <glyph glyph-name="uni03BC" unicode="&#x3bc;" horiz-adv-x="593" 
d="M114 78q9 -49 37 -72q29 -23 74 -23q62 2 95 30t46 61h9q3 -38 21 -64q19 -26 58 -27q21 0 41 7t34 16q7 13 14 35q6 23 7 41q-10 -5 -24 -9q-14 -3 -26 -3q-16 0 -24 17t-8 58q1 64 13 161q13 97 28 182q-20 0 -52 -4t-51 -10q-13 -70 -25 -161q-11 -91 -15 -168
q-18 -30 -48 -51q-31 -22 -67 -23q-42 0 -62 33q-21 34 -21 99q1 59 12 143q12 83 23 142q-20 0 -56 -4q-35 -4 -56 -11q-19 -165 -45 -350q-27 -185 -55 -368q18 -10 50 -18t64 -10q4 38 7 80t3 88q0 42 -3 92q-3 49 -7 91h9z" />
    <glyph glyph-name="pi" unicode="&#x3c0;" horiz-adv-x="582" 
d="M15 419q-7 -14 -11 -35q-4 -20 -4 -38q0 -5 1 -11q0 -6 1 -10q24 23 57 38t67 20q-6 -97 -27 -195q-22 -98 -55 -174q16 -13 43 -23q28 -11 61 -15q33 89 52 199q19 111 24 215q23 2 47 2q23 0 44 -1q22 -1 40 -3q-11 -52 -23 -127t-13 -138t19 -101q19 -38 66 -39
q17 0 35 3q18 4 30 9q10 16 16 42q7 26 7 48q-8 -3 -19 -5q-12 -3 -21 -3q-18 0 -25 17q-6 17 -6 51q1 54 10 121t19 119q27 -1 52 -3q26 -1 49 -3q4 14 7 34q3 21 3 40q0 13 -3 28q-66 4 -139 6q-72 2 -136 2q-107 0 -167 -16q-61 -17 -101 -54v0z" />
    <glyph glyph-name="uni2007" unicode="&#x2007;" horiz-adv-x="609" 
 />
    <glyph glyph-name="uni2008" unicode="&#x2008;" horiz-adv-x="256" 
 />
    <glyph glyph-name="uni200B" unicode="&#x200b;" horiz-adv-x="0" 
 />
    <glyph glyph-name="uniFEFF" unicode="&#xfeff;" horiz-adv-x="0" 
 />
    <glyph glyph-name="endash" unicode="&#x2013;" horiz-adv-x="500" 
d="M438 232q4 11 6 27q2 15 2 32v12q-1 7 -2 15h-409q-6 -17 -11 -41q-5 -25 -6 -45h420z" />
    <glyph glyph-name="emdash" unicode="&#x2014;" horiz-adv-x="1000" 
d="M918 232q4 11 6 27q2 15 2 32v12q-1 7 -2 15h-880q-6 -17 -11 -41q-5 -25 -6 -45h891z" />
    <glyph glyph-name="quoteleft" unicode="&#x2018;" horiz-adv-x="240" 
d="M241 718q-19 0 -39 -3q-21 -3 -35 -8q-34 -47 -67 -109q-34 -62 -59 -127q19 -13 50 -24t59 -14q15 14 31 38q16 25 22 41l-48 12q13 39 38 95q25 55 48 99v0z" />
    <glyph glyph-name="quoteright" unicode="&#x2019;" horiz-adv-x="266" 
d="M124 626q-10 -37 -27 -82q-18 -45 -37 -84q7 -8 21 -17t29 -14q35 48 77 129q42 82 64 152q-18 6 -39 10q-22 3 -43 3q-11 0 -23 -1q-11 -2 -21 -5q-12 -14 -25 -36q-13 -23 -22 -43z" />
    <glyph glyph-name="quotesinglbase" unicode="&#x201a;" horiz-adv-x="264" 
d="M66 16q-10 -37 -29 -84t-38 -86q7 -8 22 -17t30 -14q35 48 78 131t66 154q-18 6 -40 9q-21 3 -43 3q-12 0 -24 -1q-11 -1 -22 -4q-13 -14 -26 -37q-13 -22 -21 -42z" />
    <glyph glyph-name="quotereversed" unicode="&#x201b;" horiz-adv-x="261" 
d="M202 639q-3 20 -11 42t-19 37q-18 3 -37 3q-22 0 -45 -3q-22 -4 -42 -10q6 -72 24 -150t39 -128q16 3 35 10q18 7 28 15q-8 38 -14 85q-7 48 -8 87z" />
    <glyph glyph-name="quotedblleft" unicode="&#x201c;" horiz-adv-x="438" 
d="M219 719q-19 0 -39 -4q-20 -3 -33 -8q-33 -47 -66 -109q-34 -62 -58 -127q18 -13 47 -24q29 -12 58 -15q14 15 30 39q15 24 22 41l-46 12q12 39 37 95t48 100v0zM418 719q-19 0 -38 -4q-20 -3 -34 -8q-32 -47 -66 -109q-33 -62 -58 -127q18 -13 47 -24q29 -12 58 -15
q14 15 30 39t23 41l-46 12q12 39 36 95q25 56 48 100v0z" />
    <glyph glyph-name="quotedblright" unicode="&#x201d;" horiz-adv-x="427" 
d="M109 626q-9 -37 -27 -82q-17 -45 -36 -84q7 -8 21 -17q13 -9 27 -14q34 49 75 130q42 81 64 151q-18 7 -38 10q-21 3 -41 3q-24 0 -43 -6q-13 -14 -26 -36q-13 -23 -21 -43zM307 626q-8 -37 -25 -82q-18 -45 -37 -84q7 -8 20 -17q14 -9 28 -14q34 49 75 130t63 151
q-17 7 -38 10q-20 3 -41 3q-23 0 -43 -6q-12 -14 -25 -36q-13 -23 -22 -43z" />
    <glyph glyph-name="quotedblbase" unicode="&#x201e;" horiz-adv-x="460" 
d="M62 16q-10 -37 -27 -83q-18 -46 -36 -85q7 -8 21 -17q13 -9 28 -14q34 48 75 131q42 82 64 153q-18 7 -38 9q-21 3 -42 3q-23 0 -44 -6q-12 -14 -25 -36q-13 -23 -21 -43zM260 16q-9 -37 -27 -83q-17 -46 -36 -85q7 -8 21 -17q13 -9 28 -14q34 48 75 131q42 82 64 153
q-18 7 -38 9q-21 3 -42 3q-23 0 -43 -6q-13 -14 -26 -36q-12 -23 -21 -43z" />
    <glyph glyph-name="dagger" unicode="&#x2020;" horiz-adv-x="500" 
d="M461 404q4 11 5 25q2 14 2 29v10l-2 14h-150l27 221q-30 0 -63 -3t-57 -10l-14 -208h-133q-7 -16 -11 -38q-5 -22 -6 -40h143l-42 -574q8 -1 18 -2q9 -1 20 -1q24 0 39 3l69 574h155z" />
    <glyph glyph-name="daggerdbl" unicode="&#x2021;" horiz-adv-x="500" 
d="M435 111q4 11 5 24q2 14 2 29v10l-2 14h-155l26 216h151q4 11 5 25q2 14 2 29v10l-2 14h-146l26 221q-30 0 -63 -4q-33 -3 -56 -10l-15 -207h-133q-6 -16 -11 -38q-4 -21 -5 -40h143l-15 -216h-140q-7 -16 -11 -38q-4 -21 -6 -39h150l-20 -280q7 -2 17 -3t21 -1t21 1
t17 3l34 280h160z" />
    <glyph glyph-name="bullet" unicode="&#x2022;" horiz-adv-x="549" 
d="M256 398q-67 -1 -110 -43t-44 -109q0 -82 39 -122q38 -40 115 -40q66 1 106 43q41 43 42 119q-1 74 -40 113q-40 39 -108 39v0z" />
    <glyph glyph-name="ellipsis" unicode="&#x2026;" horiz-adv-x="826" 
d="M107 143q-33 -1 -54 -21t-22 -54q0 -40 19 -60t57 -20q33 0 53 21t21 59q0 37 -20 56t-54 19v0zM670 143q-33 -1 -54 -21t-22 -54q0 -40 19 -60t57 -20q33 0 53 21t21 59q0 37 -20 56t-54 19v0zM389 143q-33 -1 -54 -21t-22 -54q0 -40 19 -60t57 -20q33 0 53 21t21 59
q0 37 -20 56t-54 19v0z" />
    <glyph glyph-name="perthousand" unicode="&#x2030;" horiz-adv-x="1310" 
d="M222 549q-87 -1 -137 -51q-50 -49 -51 -133q0 -68 37 -102q36 -34 105 -34q86 1 137 48t52 132q0 70 -37 105t-106 35v0zM211 483q30 0 43 -20q13 -21 13 -57q0 -48 -20 -79t-58 -32q-29 0 -44 20q-14 20 -14 58q0 46 20 78q20 31 60 32v0zM705 537q-17 8 -40 13
q-23 6 -42 7l-424 -551q10 -11 32 -25t40 -18zM713 302q-87 -1 -137 -51q-50 -49 -51 -133q0 -68 37 -102q36 -34 105 -34q86 1 137 48t52 132q0 70 -37 105t-106 35v0zM702 236q30 0 43 -20q13 -21 13 -57q0 -48 -20 -79t-58 -32q-29 0 -44 20q-14 20 -14 58q0 46 20 78
q20 31 60 32v0zM1118 302q-87 -1 -137 -51q-50 -49 -51 -133q0 -68 37 -102q36 -34 105 -34q86 1 137 48t52 132q0 70 -37 105t-106 35v0zM1107 236q30 0 43 -20q13 -21 13 -57q0 -48 -20 -79t-58 -32q-29 0 -44 20q-14 20 -14 58q0 46 20 78q20 31 60 32v0z" />
    <glyph glyph-name="guilsinglleft" unicode="&#x2039;" horiz-adv-x="348" 
d="M170 254q24 52 53 106q28 53 60 105q-29 0 -62 -5q-32 -6 -56 -14q-36 -50 -65 -96t-55 -96q17 -51 41 -108q23 -57 50 -110q23 1 51 8q27 7 45 16q-19 47 -34 96q-16 49 -28 98v0z" />
    <glyph glyph-name="guilsinglright" unicode="&#x203a;" horiz-adv-x="344" 
d="M142 254q-22 -49 -47 -96q-26 -46 -54 -94q16 -10 40 -19q24 -8 46 -10q38 53 75 111q37 57 65 108q-15 50 -39 105t-51 109q-23 0 -49 -8t-44 -18q18 -49 32 -94q14 -46 26 -94v0z" />
    <glyph glyph-name="uni203E" unicode="&#x203e;" horiz-adv-x="500" 
d="M-2 728q-5 -17 -9 -39q-3 -23 -3 -40h518q2 7 2 15q1 7 1 15q0 11 -1 24q-1 12 -4 25h-504z" />
    <glyph glyph-name="fraction" unicode="&#x2044;" horiz-adv-x="154" 
d="M390 691q-19 8 -42 12q-24 4 -43 4l-535 -696q10 -14 29 -28q20 -13 41 -19z" />
    <glyph glyph-name="uni2070" unicode="&#x2070;" horiz-adv-x="385" 
d="M205 773q-95 -3 -140 -72q-44 -69 -44 -165q0 -83 34 -124q34 -40 98 -40q93 3 139 71q46 69 46 166q0 84 -35 124t-98 40v0zM193 708q26 0 37 -26q11 -25 11 -73q1 -59 -16 -113q-17 -55 -59 -59q-25 0 -37 25t-12 75q-1 55 16 111t60 60v0z" />
    <glyph glyph-name="uni2074" unicode="&#x2074;" horiz-adv-x="385" 
d="M278 473h52q2 10 4 22q1 13 1 25q0 6 -1 12q0 6 -1 10h-49l22 224h-108l-182 -237l-7 -56h180l-9 -92q20 -4 44 -4q14 0 26 1t21 3zM195 542h-49h-20q-11 -1 -21 -2v6l106 143h5q-4 -15 -6 -30q-3 -16 -4 -30z" />
    <glyph glyph-name="uni2075" unicode="&#x2075;" horiz-adv-x="385" 
d="M164 688h165q5 18 9 39q3 21 5 39h-251l-38 -213q22 4 47 6q24 2 43 2q36 1 55 -11q20 -12 20 -42q-1 -38 -26 -53t-55 -14q-27 0 -58 7q-32 7 -53 16q-3 -15 -3 -29t3 -28q2 -13 6 -25q18 -5 46 -7q28 -3 52 -3q81 0 133 36t54 112q-1 57 -32 82q-32 25 -85 24
q-13 0 -24 -1q-12 -1 -23 -3z" />
    <glyph glyph-name="uni2076" unicode="&#x2076;" horiz-adv-x="385" 
d="M133 595q14 62 43 86q30 23 67 22q23 0 47 -6q23 -5 41 -13q2 8 2 17q1 10 1 19q0 26 -6 43q-14 5 -37 8q-22 2 -40 2q-112 -3 -168 -78q-56 -74 -56 -177q0 -75 33 -110q33 -36 102 -36q76 1 121 40q44 39 45 108q0 51 -27 80q-26 29 -81 30q-31 0 -51 -10
q-19 -10 -29 -25h-7zM127 538q12 11 26 18q15 8 32 8q22 0 33 -13q12 -13 12 -38q0 -30 -15 -54q-15 -25 -45 -26q-45 0 -45 69v16l2 20v0z" />
    <glyph glyph-name="uni2077" unicode="&#x2077;" horiz-adv-x="385" 
d="M361 766h-297l-14 -132q18 0 39 3q21 2 37 6q4 10 9 25q4 15 6 25h126v-7q-57 -70 -106 -148q-48 -78 -83 -157q14 -2 29 -3t29 -1q12 0 25 1t24 3q32 80 72 156q40 77 98 159z" />
    <glyph glyph-name="uni2078" unicode="&#x2078;" horiz-adv-x="385" 
d="M100 575q-38 -12 -60 -41q-22 -30 -23 -68q2 -53 43 -74t96 -20q71 0 120 29q49 30 51 95q-1 38 -17 59q-16 20 -41 31v7q28 12 46 37q18 24 19 57q-2 47 -40 67t-89 19q-60 1 -105 -26q-45 -26 -47 -86q1 -31 14 -50q14 -19 33 -29v-7zM157 549q32 -11 52 -25t21 -40
q-1 -28 -22 -40q-20 -12 -43 -12t-37 12q-14 11 -14 35q1 24 14 43q13 18 29 27v0zM209 621q-28 10 -46 21q-17 12 -18 33q1 22 19 31q17 9 36 9q17 0 29 -8q12 -9 12 -29q-1 -20 -10 -34q-10 -15 -22 -23v0z" />
    <glyph glyph-name="uni2079" unicode="&#x2079;" horiz-adv-x="385" 
d="M230 554q-13 -65 -42 -88q-30 -23 -68 -22q-24 0 -50 6q-27 6 -44 14q-2 -8 -3 -16q-1 -9 -1 -17q0 -14 2 -27t6 -23q15 -4 38 -7q24 -2 43 -2q118 4 171 78q54 73 53 173q0 76 -32 113t-101 37q-75 0 -119 -38t-45 -108q0 -51 26 -79q26 -29 78 -29q32 0 51 10t30 25h7z
M238 611q-12 -11 -27 -18q-15 -8 -33 -8q-23 0 -34 13q-12 13 -12 38q0 29 15 53t45 25q23 0 35 -16q13 -17 13 -50q0 -8 -1 -18q0 -10 -1 -19v0z" />
    <glyph glyph-name="uni2080" unicode="&#x2080;" horiz-adv-x="385" 
d="M212 302q-95 -3 -140 -72q-44 -69 -44 -165q0 -83 34 -124q34 -40 98 -40q93 3 139 71q46 69 46 166q0 84 -35 124t-98 40v0zM200 237q26 0 37 -26q11 -25 11 -73q1 -59 -16 -113q-17 -55 -59 -59q-25 0 -37 25t-12 75q-1 55 16 111t60 60v0z" />
    <glyph glyph-name="uni2081" unicode="&#x2081;" horiz-adv-x="385" 
d="M265 302q-49 -3 -94 -10q-46 -7 -72 -13q-9 -15 -14 -33q-5 -17 -7 -31l86 8l-25 -248q-16 -2 -33 -4q-17 -3 -30 -6q-7 -12 -13 -28q-5 -16 -7 -29h248q2 7 2 14q1 7 1 16q0 8 -1 16q0 7 -1 12q-15 3 -34 6q-20 2 -35 3z" />
    <glyph glyph-name="uni2082" unicode="&#x2082;" horiz-adv-x="385" 
d="M25 -92h290q5 16 9 38q4 23 6 40q-53 -4 -104 -6q-50 -2 -95 -2v6q58 32 131 91q72 59 79 137q-1 48 -37 69q-35 21 -94 21q-46 0 -84 -11q-39 -10 -67 -24q0 -25 1 -53q1 -27 3 -50q15 0 37 2q21 3 36 8l2 50q11 6 28 9t31 3q23 0 35 -9q11 -10 11 -29q-7 -63 -80 -120
q-74 -57 -131 -103z" />
    <glyph glyph-name="uni2083" unicode="&#x2083;" horiz-adv-x="385" 
d="M92 72q71 1 102 -11q31 -11 30 -41q-1 -27 -20 -38q-19 -12 -49 -12q-28 0 -61 8q-34 7 -56 17q-1 -6 -2 -14t-1 -13q0 -15 3 -30t6 -25q20 -6 46 -9q27 -3 51 -3q73 0 126 30t56 94q-1 40 -23 60t-56 24v7q40 7 65 34q24 27 25 64q-2 46 -40 67q-39 21 -94 21
q-26 0 -54 -5t-53 -15q-9 -16 -14 -36q-4 -19 -5 -36q26 12 57 19q31 6 55 6q19 1 34 -7q15 -7 16 -29q-2 -36 -42 -48q-40 -13 -89 -12q-6 -14 -9 -33q-4 -18 -4 -34v0z" />
    <glyph glyph-name="uni2084" unicode="&#x2084;" horiz-adv-x="385" 
d="M285 2h52q2 10 4 22q1 13 1 25q0 6 -1 12q0 6 -1 10h-49l22 224h-108l-182 -237l-7 -56h180l-9 -92q20 -4 44 -4q14 0 26 1t21 3zM202 71h-49h-20q-11 -1 -21 -2v6l106 143h5q-4 -15 -6 -30q-3 -16 -4 -30z" />
    <glyph glyph-name="uni2085" unicode="&#x2085;" horiz-adv-x="385" 
d="M171 217h165q5 18 9 39q3 21 5 39h-251l-38 -213q22 4 47 6q24 2 43 2q36 1 55 -11q20 -12 20 -42q-1 -38 -26 -53t-55 -14q-27 0 -58 7q-32 7 -53 16q-3 -15 -3 -29t3 -28q2 -13 6 -25q18 -5 46 -7q28 -3 52 -3q81 0 133 36t54 112q-1 57 -32 82q-32 25 -85 24
q-13 0 -24 -1q-12 -1 -23 -3z" />
    <glyph glyph-name="uni2086" unicode="&#x2086;" horiz-adv-x="385" 
d="M140 124q14 62 43 86q30 23 67 22q23 0 47 -6q23 -5 41 -13q2 8 2 17q1 10 1 19q0 26 -6 43q-14 5 -37 8q-22 2 -40 2q-112 -3 -168 -78q-56 -74 -56 -177q0 -75 33 -110q33 -36 102 -36q76 1 121 40q44 39 45 108q0 51 -27 80q-26 29 -81 30q-31 0 -51 -10
q-19 -10 -29 -25h-7zM134 67q12 11 26 18q15 8 32 8q22 0 33 -13q12 -13 12 -38q0 -30 -15 -54q-15 -25 -45 -26q-45 0 -45 69v16l2 20v0z" />
    <glyph glyph-name="uni2087" unicode="&#x2087;" horiz-adv-x="385" 
d="M368 295h-297l-14 -132q18 0 39 3q21 2 37 6q4 10 9 25q4 15 6 25h126v-7q-57 -70 -106 -148q-48 -78 -83 -157q14 -2 29 -3t29 -1q12 0 25 1t24 3q32 80 72 156q40 77 98 159z" />
    <glyph glyph-name="uni2088" unicode="&#x2088;" horiz-adv-x="385" 
d="M107 104q-38 -12 -60 -41q-22 -30 -23 -68q2 -53 43 -74t96 -20q71 0 120 29q49 30 51 95q-1 38 -17 59q-16 20 -41 31v7q28 12 46 37q18 24 19 57q-2 47 -40 67t-89 19q-60 1 -105 -26q-45 -26 -47 -86q1 -31 14 -50q14 -19 33 -29v-7zM164 78q32 -11 52 -25t21 -40
q-1 -28 -22 -40q-20 -12 -43 -12t-37 12q-14 11 -14 35q1 24 14 43q13 18 29 27v0zM216 150q-28 10 -46 21q-17 12 -18 33q1 22 19 31q17 9 36 9q17 0 29 -8q12 -9 12 -29q-1 -20 -10 -34q-10 -15 -22 -23v0z" />
    <glyph glyph-name="uni2089" unicode="&#x2089;" horiz-adv-x="385" 
d="M237 83q-13 -65 -42 -88q-30 -23 -68 -22q-24 0 -50 6q-27 6 -44 14q-2 -8 -3 -16q-1 -9 -1 -17q0 -14 2 -27t6 -23q15 -4 38 -7q24 -2 43 -2q118 4 171 78q54 73 53 173q0 76 -32 113t-101 37q-75 0 -119 -38t-45 -108q0 -51 26 -79q26 -29 78 -29q32 0 51 10t30 25h7z
M245 140q-12 -11 -27 -18q-15 -8 -33 -8q-23 0 -34 13q-12 13 -12 38q0 29 15 53t45 25q23 0 35 -16q13 -17 13 -50q0 -8 -1 -18q0 -10 -1 -19v0z" />
    <glyph glyph-name="Euro" unicode="&#x20ac;" horiz-adv-x="599" 
d="M420 282q3 14 4 31q1 18 0 31h-194q21 62 63 95q41 34 97 34q16 0 31 -3q16 -3 30 -10l-7 -58q17 -9 44 -15t48 -6q12 26 20 61q7 34 7 66q-32 20 -70 31q-39 11 -85 11q-107 -1 -186 -57q-79 -55 -115 -149h-64q-5 -13 -9 -30t-5 -32h391zM31 223q-5 -13 -9 -30t-5 -32
h73q17 -82 74 -131q56 -49 146 -50q48 1 97 12q48 12 82 29q11 15 18 38q8 22 8 39q-40 -14 -82 -21q-41 -7 -76 -7q-51 0 -86 22q-34 21 -49 69h187q3 14 4 31q1 18 0 31h-382z" />
    <glyph glyph-name="uni2113" unicode="&#x2113;" horiz-adv-x="502" 
d="M112 274q-31 -20 -69 -41q0 -19 2 -43t8 -44q12 6 25 13q12 7 23 13q-1 -12 -2 -25q-1 -14 -1 -23q1 -73 43 -108q42 -34 108 -34q47 -1 92 21t86 77q-8 11 -23 24q-15 12 -28 20q-22 -26 -48 -42q-27 -16 -60 -16q-36 1 -48 24q-13 23 -12 53q0 22 3 47q2 25 5 47
q104 73 165 154q62 82 63 174q-1 66 -35 98t-85 32q-68 0 -122 -52q-55 -53 -69 -163zM227 349l10 116q7 74 23 113q17 39 47 39q15 0 25 -15t10 -46q0 -56 -28 -107q-29 -51 -87 -100v0z" />
    <glyph glyph-name="uni2116" unicode="&#x2116;" horiz-adv-x="1043" 
d="M286 530h-208q-4 -13 -5 -34q-1 -20 0 -35q12 -3 29 -6q18 -3 34 -5l-43 -362q-15 -5 -32 -11t-30 -14q-6 -11 -12 -30q-6 -18 -9 -33h239q4 13 5 34q1 20 -1 34q-15 5 -34 9t-35 6l35 336h9q5 -22 14 -48q8 -25 16 -43l154 -342l127 14l49 450q13 2 30 4q17 3 30 6
q4 13 7 34q4 21 4 36h-227q-4 -13 -5 -34q-1 -20 0 -35q13 -3 35 -6t42 -5l-38 -334h-9q-6 29 -17 63q-11 35 -21 57zM882 511q-46 0 -83 -18q-38 -17 -62 -49q-19 -26 -29 -59t-10 -70q0 -67 34 -102t99 -35q43 0 79 16q35 16 59 46q20 25 32 62q12 36 12 76q0 65 -35 99
q-34 34 -96 34v0zM869 449q27 0 40 -20q13 -21 13 -59q0 -27 -6 -52q-6 -26 -19 -44q-11 -15 -25 -23q-14 -9 -30 -9q-26 0 -40 22q-13 21 -13 60q0 23 5 45q4 22 13 40t25 29q17 11 37 11v0zM968 65q3 16 4 36q1 21 0 36h-273q-5 -15 -10 -35q-4 -20 -5 -37h284z" />
    <glyph glyph-name="trademark" unicode="&#x2122;" horiz-adv-x="927" 
d="M267 652h60q0 -15 1 -30q0 -16 3 -30q13 -2 28 -3t27 -1l13 113h-323l-13 -114q13 0 28 2q15 1 29 7q4 10 8 26q5 16 7 30h57l-21 -192q-12 -1 -24 -3q-13 -2 -22 -5q-5 -10 -10 -23t-7 -23h194q3 9 4 24t0 23q-13 4 -27 6q-15 1 -29 2zM551 406q3 10 4 24q1 13 0 23
q-7 2 -18 5q-12 2 -19 2l19 190h7q0 -20 3 -42q4 -22 9 -45l39 -162h81l74 158q11 23 21 48q10 24 15 43h7l-22 -190q-7 -1 -18 -3q-10 -2 -18 -4q-5 -10 -8 -23q-4 -14 -6 -24h165q3 9 4 24q1 14 0 23q-9 3 -22 6q-13 2 -25 3l16 184q9 0 21 2q12 1 21 3q3 10 6 25
q2 16 2 25h-145l-83 -176q-7 -16 -13 -33t-11 -34h-7q-1 17 -4 35q-2 19 -6 35l-41 173h-154q-3 -11 -4 -25q-2 -15 -2 -24q10 -3 22 -4q13 -2 22 -3l-23 -185q-8 -1 -19 -3t-20 -4q-4 -10 -8 -23q-4 -14 -5 -24h143z" />
    <glyph glyph-name="Omega" unicode="&#x2126;" horiz-adv-x="798" 
d="M407 0h330l15 160q-21 0 -45 -3q-25 -2 -42 -6q-5 -14 -9 -33q-5 -20 -7 -36h-122v9q65 34 118 123q52 89 55 212q-1 133 -74 213t-201 82q-149 -3 -243 -107q-95 -103 -98 -272q1 -97 34 -158q32 -60 83 -93v-9h-117q0 14 -2 34q-2 19 -4 33q-16 4 -40 6q-25 2 -43 2
l-15 -157h324l7 74q-48 36 -77 101t-30 157q0 119 52 213t160 99q87 -3 125 -69t37 -159q-2 -119 -49 -211q-48 -92 -115 -131z" />
    <glyph glyph-name="estimated" unicode="&#x212e;" horiz-adv-x="879" 
d="M836 325v9q-4 151 -114 251q-111 100 -276 104q-167 -4 -277 -104q-111 -100 -115 -251q4 -149 115 -248q110 -99 277 -103q95 1 175 37t134 100h-57q-46 -55 -110 -85q-64 -31 -141 -32q-72 1 -133 28q-62 28 -107 76q-9 11 -9 23v191q0 4 5 4h633zM693 352q0 -2 -1 -3
q-1 -2 -3 -2h-486q-2 0 -4 2q-1 1 -1 3v187q0 8 2 14q3 6 8 10q46 49 107 76q61 28 132 28q70 -1 130 -27q60 -27 105 -73q11 -9 11 -24v-191z" />
    <glyph glyph-name="uni2150" unicode="&#x2150;" horiz-adv-x="924" 
d="M258 683q-49 -3 -94 -10q-46 -7 -72 -13q-9 -15 -14 -33q-5 -17 -7 -31l86 8l-25 -248q-16 -2 -33 -4q-17 -3 -30 -6q-7 -12 -13 -28q-5 -16 -7 -29h248q2 7 2 14q1 7 1 16q0 8 -1 16q0 7 -1 12q-15 3 -34 6q-20 2 -35 3zM775 691q-19 8 -42 12q-24 4 -43 4l-535 -696
q10 -14 29 -28q20 -13 41 -19zM900 387h-297l-14 -132q18 0 39 3q21 2 37 6q4 10 9 25q4 15 6 25h126v-7q-57 -70 -106 -148q-48 -78 -83 -157q14 -2 29 -3t29 -1q12 0 25 1t24 3q32 80 72 156q40 77 98 159z" />
    <glyph glyph-name="uni2151" unicode="&#x2151;" horiz-adv-x="924" 
d="M258 683q-49 -3 -94 -10q-46 -7 -72 -13q-9 -15 -14 -33q-5 -17 -7 -31l86 8l-25 -248q-16 -2 -33 -4q-17 -3 -30 -6q-7 -12 -13 -28q-5 -16 -7 -29h248q2 7 2 14q1 7 1 16q0 8 -1 16q0 7 -1 12q-15 3 -34 6q-20 2 -35 3zM775 691q-19 8 -42 12q-24 4 -43 4l-535 -696
q10 -14 29 -28q20 -13 41 -19zM769 175q-13 -65 -42 -88q-30 -23 -68 -22q-24 0 -50 6q-27 6 -44 14q-2 -8 -3 -16q-1 -9 -1 -17q0 -14 2 -27t6 -23q15 -4 38 -7q24 -2 43 -2q118 4 171 78q54 73 53 173q0 76 -32 113t-101 37q-75 0 -119 -38t-45 -108q0 -51 26 -79
q26 -29 78 -29q32 0 51 10t30 25h7zM777 232q-12 -11 -27 -18q-15 -8 -33 -8q-23 0 -34 13q-12 13 -12 38q0 29 15 53t45 25q23 0 35 -16q13 -17 13 -50q0 -8 -1 -18q0 -10 -1 -19v0z" />
    <glyph glyph-name="uni2152" unicode="&#x2152;" horiz-adv-x="1259" 
d="M258 683q-49 -3 -94 -10q-46 -7 -72 -13q-9 -15 -14 -33q-5 -17 -7 -31l86 8l-25 -248q-16 -2 -33 -4q-17 -3 -30 -6q-7 -12 -13 -28q-5 -16 -7 -29h248q2 7 2 14q1 7 1 16q0 8 -1 16q0 7 -1 12q-15 3 -34 6q-20 2 -35 3zM775 691q-19 8 -42 12q-24 4 -43 4l-535 -696
q10 -14 29 -28q20 -13 41 -19zM797 394q-49 -3 -94 -10q-46 -7 -72 -13q-9 -15 -14 -33q-5 -17 -7 -31l86 8l-25 -248q-16 -2 -33 -4q-17 -3 -30 -6q-7 -12 -13 -28q-5 -16 -7 -29h248q2 7 2 14q1 7 1 16q0 8 -1 16q0 7 -1 12q-15 3 -34 6q-20 2 -35 3zM1079 394
q-95 -3 -140 -72q-44 -69 -44 -165q0 -83 34 -124q34 -40 98 -40q93 3 139 71q46 69 46 166q0 84 -35 124t-98 40v0zM1067 329q26 0 37 -26q11 -25 11 -73q1 -59 -16 -113q-17 -55 -59 -59q-25 0 -37 25t-12 75q-1 55 16 111t60 60v0z" />
    <glyph glyph-name="onethird" unicode="&#x2153;" horiz-adv-x="924" 
d="M258 683q-49 -3 -94 -10q-46 -7 -72 -13q-9 -15 -14 -33q-5 -17 -7 -31l86 8l-25 -248q-16 -2 -33 -4q-17 -3 -30 -6q-7 -12 -13 -28q-5 -16 -7 -29h248q2 7 2 14q1 7 1 16q0 8 -1 16q0 7 -1 12q-15 3 -34 6q-20 2 -35 3zM775 691q-19 8 -42 12q-24 4 -43 4l-535 -696
q10 -14 29 -28q20 -13 41 -19zM624 164q71 1 102 -11q31 -11 30 -41q-1 -27 -20 -38q-19 -12 -49 -12q-28 0 -61 8q-34 7 -56 17q-1 -6 -2 -14t-1 -13q0 -15 3 -30t6 -25q20 -6 46 -9q27 -3 51 -3q73 0 126 30t56 94q-1 40 -23 60t-56 24v7q40 7 65 34q24 27 25 64
q-2 46 -40 67q-39 21 -94 21q-26 0 -54 -5t-53 -15q-9 -16 -14 -36q-4 -19 -5 -36q26 12 57 19q31 6 55 6q19 1 34 -7q15 -7 16 -29q-2 -36 -42 -48q-40 -13 -89 -12q-6 -14 -9 -33q-4 -18 -4 -34v0z" />
    <glyph glyph-name="twothirds" unicode="&#x2154;" horiz-adv-x="924" 
d="M18 289h290q5 16 9 38q4 23 6 40q-53 -4 -104 -6q-50 -2 -95 -2v6q58 32 131 91q72 59 79 137q-1 48 -37 69q-35 21 -94 21q-46 0 -84 -11q-39 -10 -67 -24q0 -25 1 -53q1 -27 3 -50q15 0 37 2q21 3 36 8l2 50q11 6 28 9t31 3q23 0 35 -9q11 -10 11 -29q-7 -63 -80 -120
q-74 -57 -131 -103zM775 691q-19 8 -42 12q-24 4 -43 4l-535 -696q10 -14 29 -28q20 -13 41 -19zM624 164q71 1 102 -11q31 -11 30 -41q-1 -27 -20 -38q-19 -12 -49 -12q-28 0 -61 8q-34 7 -56 17q-1 -6 -2 -14t-1 -13q0 -15 3 -30t6 -25q20 -6 46 -9q27 -3 51 -3
q73 0 126 30t56 94q-1 40 -23 60t-56 24v7q40 7 65 34q24 27 25 64q-2 46 -40 67q-39 21 -94 21q-26 0 -54 -5t-53 -15q-9 -16 -14 -36q-4 -19 -5 -36q26 12 57 19q31 6 55 6q19 1 34 -7q15 -7 16 -29q-2 -36 -42 -48q-40 -13 -89 -12q-6 -14 -9 -33q-4 -18 -4 -34v0z" />
    <glyph glyph-name="uni2155" unicode="&#x2155;" horiz-adv-x="924" 
d="M258 683q-49 -3 -94 -10q-46 -7 -72 -13q-9 -15 -14 -33q-5 -17 -7 -31l86 8l-25 -248q-16 -2 -33 -4q-17 -3 -30 -6q-7 -12 -13 -28q-5 -16 -7 -29h248q2 7 2 14q1 7 1 16q0 8 -1 16q0 7 -1 12q-15 3 -34 6q-20 2 -35 3zM775 691q-19 8 -42 12q-24 4 -43 4l-535 -696
q10 -14 29 -28q20 -13 41 -19zM703 309h165q5 18 9 39q3 21 5 39h-251l-38 -213q22 4 47 6q24 2 43 2q36 1 55 -11q20 -12 20 -42q-1 -38 -26 -53t-55 -14q-27 0 -58 7q-32 7 -53 16q-3 -15 -3 -29t3 -28q2 -13 6 -25q18 -5 46 -7q28 -3 52 -3q81 0 133 36t54 112
q-1 57 -32 82q-32 25 -85 24q-13 0 -24 -1q-12 -1 -23 -3z" />
    <glyph glyph-name="uni2156" unicode="&#x2156;" horiz-adv-x="924" 
d="M18 289h290q5 16 9 38q4 23 6 40q-53 -4 -104 -6q-50 -2 -95 -2v6q58 32 131 91q72 59 79 137q-1 48 -37 69q-35 21 -94 21q-46 0 -84 -11q-39 -10 -67 -24q0 -25 1 -53q1 -27 3 -50q15 0 37 2q21 3 36 8l2 50q11 6 28 9t31 3q23 0 35 -9q11 -10 11 -29q-7 -63 -80 -120
q-74 -57 -131 -103zM775 691q-19 8 -42 12q-24 4 -43 4l-535 -696q10 -14 29 -28q20 -13 41 -19zM703 309h165q5 18 9 39q3 21 5 39h-251l-38 -213q22 4 47 6q24 2 43 2q36 1 55 -11q20 -12 20 -42q-1 -38 -26 -53t-55 -14q-27 0 -58 7q-32 7 -53 16q-3 -15 -3 -29t3 -28
q2 -13 6 -25q18 -5 46 -7q28 -3 52 -3q81 0 133 36t54 112q-1 57 -32 82q-32 25 -85 24q-13 0 -24 -1q-12 -1 -23 -3z" />
    <glyph glyph-name="uni2157" unicode="&#x2157;" horiz-adv-x="924" 
d="M85 453q71 1 102 -11q31 -11 30 -41q-1 -27 -20 -38q-19 -12 -49 -12q-28 0 -61 8q-34 7 -56 17q-1 -6 -2 -14t-1 -13q0 -15 3 -30t6 -25q20 -6 46 -9q27 -3 51 -3q73 0 126 30t56 94q-1 40 -23 60t-56 24v7q40 7 65 34q24 27 25 64q-2 46 -40 67q-39 21 -94 21
q-26 0 -54 -5t-53 -15q-9 -16 -14 -36q-4 -19 -5 -36q26 12 57 19q31 6 55 6q19 1 34 -7q15 -7 16 -29q-2 -36 -42 -48q-40 -13 -89 -12q-6 -14 -9 -33q-4 -18 -4 -34v0zM775 691q-19 8 -42 12q-24 4 -43 4l-535 -696q10 -14 29 -28q20 -13 41 -19zM703 309h165q5 18 9 39
q3 21 5 39h-251l-38 -213q22 4 47 6q24 2 43 2q36 1 55 -11q20 -12 20 -42q-1 -38 -26 -53t-55 -14q-27 0 -58 7q-32 7 -53 16q-3 -15 -3 -29t3 -28q2 -13 6 -25q18 -5 46 -7q28 -3 52 -3q81 0 133 36t54 112q-1 57 -32 82q-32 25 -85 24q-13 0 -24 -1q-12 -1 -23 -3z" />
    <glyph glyph-name="uni2158" unicode="&#x2158;" horiz-adv-x="924" 
d="M278 383h52q2 10 4 22q1 13 1 25q0 6 -1 12q0 6 -1 10h-49l22 224h-108l-182 -237l-7 -56h180l-9 -92q20 -4 44 -4q14 0 26 1t21 3zM195 452h-49h-20q-11 -1 -21 -2v6l106 143h5q-4 -15 -6 -30q-3 -16 -4 -30zM775 691q-19 8 -42 12q-24 4 -43 4l-535 -696q10 -14 29 -28
q20 -13 41 -19zM703 309h165q5 18 9 39q3 21 5 39h-251l-38 -213q22 4 47 6q24 2 43 2q36 1 55 -11q20 -12 20 -42q-1 -38 -26 -53t-55 -14q-27 0 -58 7q-32 7 -53 16q-3 -15 -3 -29t3 -28q2 -13 6 -25q18 -5 46 -7q28 -3 52 -3q81 0 133 36t54 112q-1 57 -32 82
q-32 25 -85 24q-13 0 -24 -1q-12 -1 -23 -3z" />
    <glyph glyph-name="uni2159" unicode="&#x2159;" horiz-adv-x="924" 
d="M258 683q-49 -3 -94 -10q-46 -7 -72 -13q-9 -15 -14 -33q-5 -17 -7 -31l86 8l-25 -248q-16 -2 -33 -4q-17 -3 -30 -6q-7 -12 -13 -28q-5 -16 -7 -29h248q2 7 2 14q1 7 1 16q0 8 -1 16q0 7 -1 12q-15 3 -34 6q-20 2 -35 3zM775 691q-19 8 -42 12q-24 4 -43 4l-535 -696
q10 -14 29 -28q20 -13 41 -19zM672 216q14 62 43 86q30 23 67 22q23 0 47 -6q23 -5 41 -13q2 8 2 17q1 10 1 19q0 26 -6 43q-14 5 -37 8q-22 2 -40 2q-112 -3 -168 -78q-56 -74 -56 -177q0 -75 33 -110q33 -36 102 -36q76 1 121 40q44 39 45 108q0 51 -27 80q-26 29 -81 30
q-31 0 -51 -10q-19 -10 -29 -25h-7zM666 159q12 11 26 18q15 8 32 8q22 0 33 -13q12 -13 12 -38q0 -30 -15 -54q-15 -25 -45 -26q-45 0 -45 69v16l2 20v0z" />
    <glyph glyph-name="uni215A" unicode="&#x215a;" horiz-adv-x="924" 
d="M164 598h165q5 18 9 39q3 21 5 39h-251l-38 -213q22 4 47 6q24 2 43 2q36 1 55 -11q20 -12 20 -42q-1 -38 -26 -53t-55 -14q-27 0 -58 7q-32 7 -53 16q-3 -15 -3 -29t3 -28q2 -13 6 -25q18 -5 46 -7q28 -3 52 -3q81 0 133 36t54 112q-1 57 -32 82q-32 25 -85 24
q-13 0 -24 -1q-12 -1 -23 -3zM775 691q-19 8 -42 12q-24 4 -43 4l-535 -696q10 -14 29 -28q20 -13 41 -19zM672 216q14 62 43 86q30 23 67 22q23 0 47 -6q23 -5 41 -13q2 8 2 17q1 10 1 19q0 26 -6 43q-14 5 -37 8q-22 2 -40 2q-112 -3 -168 -78q-56 -74 -56 -177
q0 -75 33 -110q33 -36 102 -36q76 1 121 40q44 39 45 108q0 51 -27 80q-26 29 -81 30q-31 0 -51 -10q-19 -10 -29 -25h-7zM666 159q12 11 26 18q15 8 32 8q22 0 33 -13q12 -13 12 -38q0 -30 -15 -54q-15 -25 -45 -26q-45 0 -45 69v16l2 20v0z" />
    <glyph glyph-name="oneeighth" unicode="&#x215b;" horiz-adv-x="924" 
d="M258 683q-49 -3 -94 -10q-46 -7 -72 -13q-9 -15 -14 -33q-5 -17 -7 -31l86 8l-25 -248q-16 -2 -33 -4q-17 -3 -30 -6q-7 -12 -13 -28q-5 -16 -7 -29h248q2 7 2 14q1 7 1 16q0 8 -1 16q0 7 -1 12q-15 3 -34 6q-20 2 -35 3zM775 691q-19 8 -42 12q-24 4 -43 4l-535 -696
q10 -14 29 -28q20 -13 41 -19zM639 196q-38 -12 -60 -41q-22 -30 -23 -68q2 -53 43 -74t96 -20q71 0 120 29q49 30 51 95q-1 38 -17 59q-16 20 -41 31v7q28 12 46 37q18 24 19 57q-2 47 -40 67t-89 19q-60 1 -105 -26q-45 -26 -47 -86q1 -31 14 -50q14 -19 33 -29v-7z
M696 170q32 -11 52 -25t21 -40q-1 -28 -22 -40q-20 -12 -43 -12t-37 12q-14 11 -14 35q1 24 14 43q13 18 29 27v0zM748 242q-28 10 -46 21q-17 12 -18 33q1 22 19 31q17 9 36 9q17 0 29 -8q12 -9 12 -29q-1 -20 -10 -34q-10 -15 -22 -23v0z" />
    <glyph glyph-name="threeeighths" unicode="&#x215c;" horiz-adv-x="924" 
d="M85 453q71 1 102 -11q31 -11 30 -41q-1 -27 -20 -38q-19 -12 -49 -12q-28 0 -61 8q-34 7 -56 17q-1 -6 -2 -14t-1 -13q0 -15 3 -30t6 -25q20 -6 46 -9q27 -3 51 -3q73 0 126 30t56 94q-1 40 -23 60t-56 24v7q40 7 65 34q24 27 25 64q-2 46 -40 67q-39 21 -94 21
q-26 0 -54 -5t-53 -15q-9 -16 -14 -36q-4 -19 -5 -36q26 12 57 19q31 6 55 6q19 1 34 -7q15 -7 16 -29q-2 -36 -42 -48q-40 -13 -89 -12q-6 -14 -9 -33q-4 -18 -4 -34v0zM775 691q-19 8 -42 12q-24 4 -43 4l-535 -696q10 -14 29 -28q20 -13 41 -19zM639 196q-38 -12 -60 -41
q-22 -30 -23 -68q2 -53 43 -74t96 -20q71 0 120 29q49 30 51 95q-1 38 -17 59q-16 20 -41 31v7q28 12 46 37q18 24 19 57q-2 47 -40 67t-89 19q-60 1 -105 -26q-45 -26 -47 -86q1 -31 14 -50q14 -19 33 -29v-7zM696 170q32 -11 52 -25t21 -40q-1 -28 -22 -40
q-20 -12 -43 -12t-37 12q-14 11 -14 35q1 24 14 43q13 18 29 27v0zM748 242q-28 10 -46 21q-17 12 -18 33q1 22 19 31q17 9 36 9q17 0 29 -8q12 -9 12 -29q-1 -20 -10 -34q-10 -15 -22 -23v0z" />
    <glyph glyph-name="fiveeighths" unicode="&#x215d;" horiz-adv-x="924" 
d="M164 598h165q5 18 9 39q3 21 5 39h-251l-38 -213q22 4 47 6q24 2 43 2q36 1 55 -11q20 -12 20 -42q-1 -38 -26 -53t-55 -14q-27 0 -58 7q-32 7 -53 16q-3 -15 -3 -29t3 -28q2 -13 6 -25q18 -5 46 -7q28 -3 52 -3q81 0 133 36t54 112q-1 57 -32 82q-32 25 -85 24
q-13 0 -24 -1q-12 -1 -23 -3zM775 691q-19 8 -42 12q-24 4 -43 4l-535 -696q10 -14 29 -28q20 -13 41 -19zM639 196q-38 -12 -60 -41q-22 -30 -23 -68q2 -53 43 -74t96 -20q71 0 120 29q49 30 51 95q-1 38 -17 59q-16 20 -41 31v7q28 12 46 37q18 24 19 57q-2 47 -40 67
t-89 19q-60 1 -105 -26q-45 -26 -47 -86q1 -31 14 -50q14 -19 33 -29v-7zM696 170q32 -11 52 -25t21 -40q-1 -28 -22 -40q-20 -12 -43 -12t-37 12q-14 11 -14 35q1 24 14 43q13 18 29 27v0zM748 242q-28 10 -46 21q-17 12 -18 33q1 22 19 31q17 9 36 9q17 0 29 -8
q12 -9 12 -29q-1 -20 -10 -34q-10 -15 -22 -23v0z" />
    <glyph glyph-name="seveneighths" unicode="&#x215e;" horiz-adv-x="864" 
d="M361 676h-297l-14 -132q18 0 39 3q21 2 37 6q4 10 9 25q4 15 6 25h126v-7q-57 -70 -106 -148q-48 -78 -83 -157q14 -2 29 -3t29 -1q12 0 25 1t24 3q32 80 72 156q40 77 98 159zM715 691q-19 8 -42 12q-24 4 -43 4l-535 -696q10 -14 29 -28q20 -13 41 -19zM579 196
q-38 -12 -60 -41q-22 -30 -23 -68q2 -53 43 -74t96 -20q71 0 120 29q49 30 51 95q-1 38 -17 59q-16 20 -41 31v7q28 12 46 37q18 24 19 57q-2 47 -40 67t-89 19q-60 1 -105 -26q-45 -26 -47 -86q1 -31 14 -50q14 -19 33 -29v-7zM636 170q32 -11 52 -25t21 -40
q-1 -28 -22 -40q-20 -12 -43 -12t-37 12q-14 11 -14 35q1 24 14 43q13 18 29 27v0zM688 242q-28 10 -46 21q-17 12 -18 33q1 22 19 31q17 9 36 9q17 0 29 -8q12 -9 12 -29q-1 -20 -10 -34q-10 -15 -22 -23v0z" />
    <glyph glyph-name="uni215F" unicode="&#x215f;" horiz-adv-x="539" 
d="M258 683q-49 -3 -94 -10q-46 -7 -72 -13q-9 -15 -14 -33q-5 -17 -7 -31l86 8l-25 -248q-16 -2 -33 -4q-17 -3 -30 -6q-7 -12 -13 -28q-5 -16 -7 -29h248q2 7 2 14q1 7 1 16q0 8 -1 16q0 7 -1 12q-15 3 -34 6q-20 2 -35 3zM775 691q-19 8 -42 12q-24 4 -43 4l-535 -696
q10 -14 29 -28q20 -13 41 -19z" />
    <glyph glyph-name="uni2189" unicode="&#x2189;" horiz-adv-x="924" 
d="M205 683q-95 -3 -140 -72q-44 -69 -44 -165q0 -83 34 -124q34 -40 98 -40q93 3 139 71q46 69 46 166q0 84 -35 124t-98 40v0zM193 618q26 0 37 -26q11 -25 11 -73q1 -59 -16 -113q-17 -55 -59 -59q-25 0 -37 25t-12 75q-1 55 16 111t60 60v0zM775 691q-19 8 -42 12
q-24 4 -43 4l-535 -696q10 -14 29 -28q20 -13 41 -19zM624 164q71 1 102 -11q31 -11 30 -41q-1 -27 -20 -38q-19 -12 -49 -12q-28 0 -61 8q-34 7 -56 17q-1 -6 -2 -14t-1 -13q0 -15 3 -30t6 -25q20 -6 46 -9q27 -3 51 -3q73 0 126 30t56 94q-1 40 -23 60t-56 24v7
q40 7 65 34q24 27 25 64q-2 46 -40 67q-39 21 -94 21q-26 0 -54 -5t-53 -15q-9 -16 -14 -36q-4 -19 -5 -36q26 12 57 19q31 6 55 6q19 1 34 -7q15 -7 16 -29q-2 -36 -42 -48q-40 -13 -89 -12q-6 -14 -9 -33q-4 -18 -4 -34v0z" />
    <glyph glyph-name="partialdiff" unicode="&#x2202;" horiz-adv-x="556" 
d="M392 303q-10 -94 -46 -165q-36 -70 -106 -74q-45 1 -69 31q-24 31 -24 85q0 72 34 124q33 52 99 55q34 0 62 -16q29 -15 50 -40v0zM389 382q-12 26 -43 44q-31 19 -82 20q-107 -4 -166 -82t-60 -176q1 -98 55 -151q53 -53 147 -54q157 11 213 147q56 135 52 264
q1 136 -60 243q-62 106 -203 112q-31 0 -65 -5q-33 -5 -59 -14q-11 -20 -17 -50q-5 -31 -2 -54q26 13 61 22q35 10 67 10q111 -7 142 -97q32 -90 30 -179h-10z" />
    <glyph glyph-name="Delta" unicode="&#x2206;" horiz-adv-x="634" 
d="M306 713l-321 -658l-4 -55h602l5 66l-189 647h-93zM108 78l162 354q15 34 31 80q15 47 21 79h10q0 -32 8 -79q8 -48 17 -82l95 -352h-344z" />
    <glyph glyph-name="product" unicode="&#x220f;" horiz-adv-x="794" 
d="M676 618q17 1 39 3t37 6q3 14 4 37q0 23 -2 37h-707q-2 -14 -2 -37q1 -24 4 -38q14 -3 33 -5t36 -4v-700q-16 -2 -37 -6q-22 -4 -35 -8q-5 -14 -9 -34q-5 -21 -6 -37h284q2 13 1 36t-5 37q-16 4 -37 7q-21 2 -40 4v707h326v-706q-15 -2 -35 -6t-32 -8q-5 -14 -9 -34
q-4 -21 -5 -37h282q1 5 1 12q1 7 1 14q0 12 -1 25q-2 13 -4 22q-17 4 -39 7q-23 2 -43 4v702z" />
    <glyph glyph-name="summation" unicode="&#x2211;" horiz-adv-x="631" 
d="M29 -168h571v197q-21 0 -48 -3t-43 -8q-5 -19 -8 -43t-5 -46h-348v9q25 16 51 44q27 28 50 59l183 239l-166 238q-19 27 -43 54q-25 26 -46 42v9h314q2 -18 5 -42q4 -23 8 -40q19 -5 42 -8q24 -3 43 -3v171h-548v-71l265 -372l-277 -354v-72z" />
    <glyph glyph-name="minus" unicode="&#x2212;" 
d="M51 313q-5 -18 -9 -43q-4 -26 -4 -46h463q2 7 2 15q1 9 1 18q0 14 -1 28q-2 15 -5 28h-447z" />
    <glyph glyph-name="uni2219" unicode="&#x2219;" 
d="M288 426q-67 -1 -110 -43t-44 -109q0 -82 39 -122q38 -40 115 -40q66 1 106 43q41 43 42 119q-1 74 -40 113q-40 39 -108 39v0z" />
    <glyph glyph-name="radical" unicode="&#x221a;" horiz-adv-x="567" 
d="M24 402q-5 -19 -8 -45t-3 -49l65 16l135 -390l121 15l258 826q-19 7 -48 13q-29 7 -49 7l-186 -610q-10 -33 -18 -72q-8 -40 -11 -71h-10q-2 32 -9 71t-17 69l-83 254z" />
    <glyph glyph-name="infinity" unicode="&#x221e;" horiz-adv-x="863" 
d="M413 198q42 -48 92 -79t112 -32q89 3 143 60t55 139q0 69 -41 115q-41 45 -119 47q-63 -1 -117 -31q-55 -31 -97 -77q-47 51 -97 80q-51 29 -113 29q-96 -3 -146 -60t-50 -136q0 -71 41 -117q42 -46 122 -48q64 1 118 32t97 78v0zM361 256q-29 -32 -65 -55
q-36 -22 -74 -23q-40 1 -64 25q-24 25 -25 64q1 39 24 63q24 23 60 24q33 0 68 -25t76 -73v0zM492 282q30 33 67 54q36 21 72 22q37 0 61 -23t25 -63q0 -37 -22 -62q-22 -26 -61 -27q-40 1 -74 29q-33 27 -68 70v0z" />
    <glyph glyph-name="integral" unicode="&#x222b;" horiz-adv-x="344" 
d="M332 803q-12 8 -31 13q-20 4 -42 4q-87 -3 -127 -69t-40 -162q2 -117 13 -267q10 -151 12 -271q1 -67 -10 -103q-10 -37 -46 -37q-14 0 -29 5q-16 4 -30 13q-9 -20 -16 -46q-8 -27 -8 -44q20 -10 41 -14q22 -4 42 -4q93 3 130 70q37 66 36 162q-1 118 -12 270
q-10 151 -12 266q-1 66 12 107q14 41 57 42q17 0 38 -6q20 -6 35 -19q0 27 -4 51q-4 25 -9 39v0z" />
    <glyph glyph-name="approxequal" unicode="&#x2248;" 
d="M459 225q-20 -17 -41 -26q-22 -10 -45 -10q-51 3 -94 26q-42 22 -106 25q-42 -1 -74 -17q-33 -17 -54 -38q2 -18 9 -38q6 -19 15 -35q16 16 42 28q26 11 55 12q54 -3 94 -25q40 -23 106 -26q50 1 84 20q34 20 53 44q-6 14 -19 32q-12 17 -25 28v0zM459 421
q-20 -17 -41 -26q-22 -10 -45 -10q-51 3 -94 26q-42 22 -106 25q-42 -1 -74 -17q-33 -17 -54 -38q2 -18 9 -38q6 -19 15 -35q16 16 42 28q26 11 55 12q54 -3 94 -25q40 -23 106 -26q50 1 84 20q34 20 53 44q-6 14 -19 32q-12 17 -25 28v0z" />
    <glyph glyph-name="notequal" unicode="&#x2260;" 
d="M491 132q3 13 3 31q0 13 -1 27q-2 14 -5 26h-211l64 104h150q3 13 3 31q0 13 -1 27q-2 14 -5 26h-100l37 60q-13 6 -33 10q-19 4 -36 4l-46 -74h-245q-5 -16 -8 -40q-4 -25 -4 -44h210l-64 -104h-133q-5 -16 -9 -40q-4 -25 -4 -44h98l-34 -57q9 -10 28 -19q18 -10 30 -14
l54 90h262z" />
    <glyph glyph-name="lessequal" unicode="&#x2264;" 
d="M460 554q-14 15 -36 33q-23 18 -42 29l-298 -208l-3 -61l315 -216q13 10 34 34t27 39l-250 167v10zM65 83q-5 -17 -8 -40q-4 -24 -4 -43h419q3 13 3 31q0 13 -1 26t-4 26h-405z" />
    <glyph glyph-name="greaterequal" unicode="&#x2265;" 
d="M457 347l-4 61l-298 205q-18 -11 -42 -30q-25 -19 -38 -34l257 -169v-9l-252 -170q8 -17 27 -41t32 -34zM67 83q-5 -17 -8 -40q-3 -24 -3 -43h418q3 13 3 31q0 13 -1 26t-4 26h-405z" />
    <glyph glyph-name="dotmath" unicode="&#x22c5;" 
d="M261 351q-35 -1 -57 -23t-23 -57q0 -43 20 -64t60 -21q34 0 56 23q22 22 23 62q-1 39 -22 60q-21 20 -57 20v0z" />
    <glyph glyph-name="H18543" unicode="&#x25aa;" 
d="M11 0h464l54 479h-461z" />
    <glyph glyph-name="H18551" unicode="&#x25ab;" 
d="M9 0h476l54 479h-472zM158 389h268l-36 -299h-265z" />
    <glyph glyph-name="uni25B8" unicode="&#x25b8;" 
d="M37 -32q105 48 261 131q155 83 251 144q-81 59 -217 140t-230 128q-23 -105 -42 -270q-19 -164 -23 -273v0z" />
    <glyph glyph-name="uni25B9" unicode="&#x25b9;" 
d="M38 -32q105 47 262 130q156 83 254 145q-82 60 -219 141q-137 80 -232 127q-23 -106 -41 -271q-19 -164 -24 -272v0zM151 122q2 49 11 120q8 70 19 119q41 -19 104 -55t99 -62q-43 -27 -115 -64q-71 -37 -118 -58v0z" />
    <glyph glyph-name="uni25C2" unicode="&#x25c2;" 
d="M439 -32q21 106 40 271t24 272q-104 -47 -258 -128t-249 -140q81 -60 216 -144q134 -83 227 -131v0z" />
    <glyph glyph-name="uni25C3" unicode="&#x25c3;" 
d="M445 -32q21 106 41 270q19 165 23 273q-106 -47 -262 -127q-157 -80 -253 -139q83 -62 220 -146q137 -83 231 -131v0zM370 121q-43 21 -106 59q-64 38 -101 66q43 25 116 61q72 36 119 55q-3 -49 -11 -121q-8 -71 -17 -120v0z" />
    <glyph glyph-name="lozenge" unicode="&#x25ca;" horiz-adv-x="535" 
d="M16 338l168 -367l117 10l206 370l-172 369l-112 -12zM132 360l95 169q12 22 22 48t15 48h9q3 -21 11 -47q8 -27 17 -48l87 -200l-87 -160q-12 -24 -24 -54q-12 -31 -17 -55h-10q-3 24 -12 53q-8 29 -19 53z" />
    <glyph glyph-name="circle" unicode="&#x25cb;" 
d="M311 493q-131 -3 -207 -86q-76 -82 -78 -209q1 -106 57 -160q57 -55 161 -55q117 2 198 81q80 80 83 218q-1 102 -59 156t-155 55v0zM300 399q55 0 88 -32q32 -32 33 -94q-2 -88 -48 -141q-46 -54 -115 -55q-60 0 -93 35q-34 34 -34 102q1 79 46 131q44 52 123 54v0z" />
    <glyph glyph-name="H18533" unicode="&#x25cf;" 
d="M306 493q-127 -2 -205 -84q-78 -81 -80 -211q1 -106 58 -160q56 -55 160 -55q117 2 198 81q80 79 83 218q-1 102 -59 156t-155 55v0z" />
    <glyph glyph-name="uniFB00" unicode="&#xfb00;" horiz-adv-x="671" 
d="M535 476l8 70q8 66 34 93q27 28 57 27q5 0 12 -1t12 -4l-8 -55q14 -9 37 -15q23 -7 42 -7q12 26 21 64q9 37 9 66q-31 10 -60 15q-28 5 -52 5q-76 1 -133 -46q-58 -48 -74 -152l-8 -60h-233l6 59q8 66 32 93q23 28 52 27q6 0 12 -1q7 -1 12 -4l-8 -55q15 -9 37 -15
q23 -7 41 -7q12 26 21 64q9 37 9 66q-31 10 -59 15t-50 5q-74 1 -130 -46q-56 -46 -73 -152l-5 -38q-17 -3 -33 -8q-17 -5 -31 -10q-7 -13 -14 -32q-6 -20 -9 -38h78l-49 -396q11 -3 23 -4q13 -1 27 -1q18 0 35 1q18 2 30 4l39 396h232l-67 -545q11 -3 23 -4q13 -1 27 -1
q18 0 35 1q18 2 30 4l56 545h131q2 16 3 39q1 22 0 38h-127z" />
    <glyph glyph-name="uniFB01" unicode="&#xfb01;" horiz-adv-x="623" 
d="M422 401l-51 -335q1 -17 13 -42t27 -41q28 0 68 8q40 7 67 17q8 14 14 35q7 22 7 38l-74 -8q-2 3 -3 8q-2 6 -2 9l47 391q-10 2 -25 4q-14 2 -25 2q-33 0 -62 -7t-49 -18q-9 -10 -15 -33t-6 -35zM87 399l-67 -545q11 -3 23 -4q13 -1 27 -1q18 0 35 1q18 2 30 4l55 545
h120q3 16 4 39q1 22 0 38h-115l4 35q11 83 57 117q46 33 107 32q19 0 39 -3t39 -8l-8 -60q15 -9 41 -15q25 -7 47 -7q13 29 23 68q10 40 10 71q-46 15 -94 22q-47 6 -88 6q-116 1 -188 -54t-89 -172l-3 -21q-17 -3 -33 -8q-17 -5 -31 -10q-7 -13 -14 -32q-6 -20 -9 -38h78z
" />
    <glyph glyph-name="uniFB02" unicode="&#xfb02;" horiz-adv-x="620" 
d="M199 476l4 34q11 82 54 117q44 36 111 35q18 0 40 -3t40 -8l-78 -585q1 -17 13 -42t27 -41q28 0 68 8q40 7 67 17q8 14 14 35q7 22 7 38l-74 -8q-2 3 -3 8q-2 6 -2 9l72 613q-45 16 -96 24q-52 7 -91 7q-113 1 -184 -54q-72 -55 -89 -172l-3 -21q-17 -3 -33 -8
q-17 -5 -31 -10q-7 -13 -14 -32q-6 -20 -9 -38h78l-67 -545q11 -3 23 -4q13 -1 27 -1q18 0 35 1q18 2 30 4l55 545h132q3 16 4 39q1 22 0 38h-127z" />
    <glyph glyph-name="uniFB03" unicode="&#xfb03;" horiz-adv-x="960" 
d="M205 535q8 66 32 93q23 28 52 27q6 0 12 -1q7 -1 12 -4l-8 -55q15 -9 37 -15q23 -7 41 -7q12 26 21 64q9 37 9 66q-31 10 -59 15t-50 5q-74 1 -130 -46q-56 -46 -73 -152l-5 -38q-17 -3 -33 -8q-17 -5 -31 -10q-7 -13 -14 -32q-6 -20 -9 -38h78l-49 -396q11 -3 23 -4
q13 -1 27 -1q18 0 35 1q18 2 30 4l39 396h232l-67 -545q11 -3 23 -4q13 -1 27 -1q18 0 35 1q18 2 30 4l55 545h120q3 16 4 39q1 22 0 38h-115l4 35q11 83 57 117q46 33 107 32q19 0 39 -3t39 -8l-8 -60q15 -9 41 -15q25 -7 47 -7q13 29 23 68q10 40 10 71q-46 15 -94 22
q-47 6 -88 6q-116 1 -189 -54q-72 -55 -88 -172l-4 -32h-233zM759 401l-51 -335q1 -17 13 -42t27 -41q28 0 68 8q40 7 67 17q8 14 14 35q7 22 7 38l-74 -8q-2 3 -3 8q-2 6 -2 9l47 391q-10 2 -25 4q-14 2 -25 2q-33 0 -62 -7t-49 -18q-9 -10 -15 -33t-6 -35z" />
    <glyph glyph-name="uniFB04" unicode="&#xfb04;" horiz-adv-x="957" 
d="M536 476l4 34q11 82 54 117q44 36 111 35q18 0 40 -3t40 -8l-78 -585q1 -17 13 -42t27 -41q28 0 68 8q40 7 67 17q8 14 14 35q7 22 7 38l-74 -8q-2 3 -3 8q-2 6 -2 9l72 613q-45 16 -96 24q-52 7 -91 7q-114 1 -185 -54t-88 -172l-4 -32h-233l6 59q8 66 32 93
q23 28 52 27q6 0 12 -1q7 -1 12 -4l-8 -55q15 -9 37 -15q23 -7 41 -7q12 26 21 64q9 37 9 66q-31 10 -59 15t-50 5q-74 1 -130 -46q-56 -46 -73 -152l-5 -38q-17 -3 -33 -8q-17 -5 -31 -10q-7 -13 -14 -32q-6 -20 -9 -38h78l-49 -396q11 -3 23 -4q13 -1 27 -1q18 0 35 1
q18 2 30 4l39 396h232l-67 -545q11 -3 23 -4q13 -1 27 -1q18 0 35 1q18 2 30 4l55 545h132q3 16 4 39q1 22 0 38h-127z" />
    <glyph glyph-name="uniFB06" unicode="&#xfb06;" horiz-adv-x="778" 
d="M509 487q-15 -2 -31 -7q-16 -6 -28 -11q-8 -13 -14 -32q-7 -20 -9 -38h74q-14 -78 -26 -168q-13 -91 -14 -136q0 -53 26 -82q27 -30 86 -30q27 0 58 8t62 24q9 14 17 36q7 22 7 40q-22 -8 -45 -13q-24 -5 -45 -5q-32 0 -42 18q-11 19 -7 56l26 252h143q2 12 4 26
q1 13 1 27v12q0 5 -1 12h-137l17 169q-41 27 -83 39q-42 11 -83 11q-94 -1 -143 -48t-49 -128q0 -8 1 -15v-13q-5 1 -15 1q-10 1 -18 1q-87 -1 -134 -42q-47 -40 -47 -104q12 -101 94 -138q81 -37 93 -94q-1 -28 -21 -44q-19 -16 -46 -16q-32 0 -51 19q-19 18 -21 58
q-32 0 -63 -12t-44 -32q3 -56 45 -81q42 -24 111 -24q79 -1 137 38q59 38 62 121q-12 93 -95 132t-95 97q1 25 18 39q18 14 42 14q14 0 27 -3q12 -3 20 -7l-5 -49q13 -9 37 -15q23 -6 44 -6q10 28 16 62q7 33 7 73q-1 60 16 97q17 36 70 37q20 0 38 -5t34 -16z" />
    <glyph glyph-name="glyph327" horiz-adv-x="385" 
d="M205 683q-95 -3 -140 -72q-44 -69 -44 -165q0 -83 34 -124q34 -40 98 -40q93 3 139 71q46 69 46 166q0 84 -35 124t-98 40v0zM193 618q26 0 37 -26q11 -25 11 -73q1 -59 -16 -113q-17 -55 -59 -59q-25 0 -37 25t-12 75q-1 55 16 111t60 60v0z" />
    <glyph glyph-name="glyph328" horiz-adv-x="385" 
d="M258 683q-49 -3 -94 -10q-46 -7 -72 -13q-9 -15 -14 -33q-5 -17 -7 -31l86 8l-25 -248q-16 -2 -33 -4q-17 -3 -30 -6q-7 -12 -13 -28q-5 -16 -7 -29h248q2 7 2 14q1 7 1 16q0 8 -1 16q0 7 -1 12q-15 3 -34 6q-20 2 -35 3z" />
    <glyph glyph-name="glyph329" horiz-adv-x="385" 
d="M18 289h290q5 16 9 38q4 23 6 40q-53 -4 -104 -6q-50 -2 -95 -2v6q58 32 131 91q72 59 79 137q-1 48 -37 69q-35 21 -94 21q-46 0 -84 -11q-39 -10 -67 -24q0 -25 1 -53q1 -27 3 -50q15 0 37 2q21 3 36 8l2 50q11 6 28 9t31 3q23 0 35 -9q11 -10 11 -29q-7 -63 -80 -120
q-74 -57 -131 -103z" />
    <glyph glyph-name="glyph330" horiz-adv-x="385" 
d="M85 453q71 1 102 -11q31 -11 30 -41q-1 -27 -20 -38q-19 -12 -49 -12q-28 0 -61 8q-34 7 -56 17q-1 -6 -2 -14t-1 -13q0 -15 3 -30t6 -25q20 -6 46 -9q27 -3 51 -3q73 0 126 30t56 94q-1 40 -23 60t-56 24v7q40 7 65 34q24 27 25 64q-2 46 -40 67q-39 21 -94 21
q-26 0 -54 -5t-53 -15q-9 -16 -14 -36q-4 -19 -5 -36q26 12 57 19q31 6 55 6q19 1 34 -7q15 -7 16 -29q-2 -36 -42 -48q-40 -13 -89 -12q-6 -14 -9 -33q-4 -18 -4 -34v0z" />
    <glyph glyph-name="glyph331" horiz-adv-x="385" 
d="M278 383h52q2 10 4 22q1 13 1 25q0 6 -1 12q0 6 -1 10h-49l22 224h-108l-182 -237l-7 -56h180l-9 -92q20 -4 44 -4q14 0 26 1t21 3zM195 452h-49h-20q-11 -1 -21 -2v6l106 143h5q-4 -15 -6 -30q-3 -16 -4 -30z" />
    <glyph glyph-name="glyph332" horiz-adv-x="385" 
d="M164 598h165q5 18 9 39q3 21 5 39h-251l-38 -213q22 4 47 6q24 2 43 2q36 1 55 -11q20 -12 20 -42q-1 -38 -26 -53t-55 -14q-27 0 -58 7q-32 7 -53 16q-3 -15 -3 -29t3 -28q2 -13 6 -25q18 -5 46 -7q28 -3 52 -3q81 0 133 36t54 112q-1 57 -32 82q-32 25 -85 24
q-13 0 -24 -1q-12 -1 -23 -3z" />
    <glyph glyph-name="glyph333" horiz-adv-x="385" 
d="M133 505q14 62 43 86q30 23 67 22q23 0 47 -6q23 -5 41 -13q2 8 2 17q1 10 1 19q0 26 -6 43q-14 5 -37 8q-22 2 -40 2q-112 -3 -168 -78q-56 -74 -56 -177q0 -75 33 -110q33 -36 102 -36q76 1 121 40q44 39 45 108q0 51 -27 80q-26 29 -81 30q-31 0 -51 -10
q-19 -10 -29 -25h-7zM127 448q12 11 26 18q15 8 32 8q22 0 33 -13q12 -13 12 -38q0 -30 -15 -54q-15 -25 -45 -26q-45 0 -45 69v16l2 20v0z" />
    <glyph glyph-name="glyph334" horiz-adv-x="385" 
d="M361 676h-297l-14 -132q18 0 39 3q21 2 37 6q4 10 9 25q4 15 6 25h126v-7q-57 -70 -106 -148q-48 -78 -83 -157q14 -2 29 -3t29 -1q12 0 25 1t24 3q32 80 72 156q40 77 98 159z" />
    <glyph glyph-name="glyph335" horiz-adv-x="385" 
d="M100 485q-38 -12 -60 -41q-22 -30 -23 -68q2 -53 43 -74t96 -20q71 0 120 29q49 30 51 95q-1 38 -17 59q-16 20 -41 31v7q28 12 46 37q18 24 19 57q-2 47 -40 67t-89 19q-60 1 -105 -26q-45 -26 -47 -86q1 -31 14 -50q14 -19 33 -29v-7zM157 459q32 -11 52 -25t21 -40
q-1 -28 -22 -40q-20 -12 -43 -12t-37 12q-14 11 -14 35q1 24 14 43q13 18 29 27v0zM209 531q-28 10 -46 21q-17 12 -18 33q1 22 19 31q17 9 36 9q17 0 29 -8q12 -9 12 -29q-1 -20 -10 -34q-10 -15 -22 -23v0z" />
    <glyph glyph-name="glyph336" horiz-adv-x="385" 
d="M230 464q-13 -65 -42 -88q-30 -23 -68 -22q-24 0 -50 6q-27 6 -44 14q-2 -8 -3 -16q-1 -9 -1 -17q0 -14 2 -27t6 -23q15 -4 38 -7q24 -2 43 -2q118 4 171 78q54 73 53 173q0 76 -32 113t-101 37q-75 0 -119 -38t-45 -108q0 -51 26 -79q26 -29 78 -29q32 0 51 10t30 25h7z
M238 521q-12 -11 -27 -18q-15 -8 -33 -8q-23 0 -34 13q-12 13 -12 38q0 29 15 53t45 25q23 0 35 -16q13 -17 13 -50q0 -8 -1 -18q0 -10 -1 -19v0z" />
    <glyph glyph-name="glyph337" horiz-adv-x="385" 
d="M205 394q-95 -3 -140 -72q-44 -69 -44 -165q0 -83 34 -124q34 -40 98 -40q93 3 139 71q46 69 46 166q0 84 -35 124t-98 40v0zM193 329q26 0 37 -26q11 -25 11 -73q1 -59 -16 -113q-17 -55 -59 -59q-25 0 -37 25t-12 75q-1 55 16 111t60 60v0z" />
    <glyph glyph-name="glyph338" horiz-adv-x="385" 
d="M258 394q-49 -3 -94 -10q-46 -7 -72 -13q-9 -15 -14 -33q-5 -17 -7 -31l86 8l-25 -248q-16 -2 -33 -4q-17 -3 -30 -6q-7 -12 -13 -28q-5 -16 -7 -29h248q2 7 2 14q1 7 1 16q0 8 -1 16q0 7 -1 12q-15 3 -34 6q-20 2 -35 3z" />
    <glyph glyph-name="glyph339" horiz-adv-x="385" 
d="M18 0h290q5 16 9 38q4 23 6 40q-53 -4 -104 -6q-50 -2 -95 -2v6q58 32 131 91q72 59 79 137q-1 48 -37 69q-35 21 -94 21q-46 0 -84 -11q-39 -10 -67 -24q0 -25 1 -53q1 -27 3 -50q15 0 37 2q21 3 36 8l2 50q11 6 28 9t31 3q23 0 35 -9q11 -10 11 -29q-7 -63 -80 -120
q-74 -57 -131 -103z" />
    <glyph glyph-name="glyph340" horiz-adv-x="385" 
d="M85 164q71 1 102 -11q31 -11 30 -41q-1 -27 -20 -38q-19 -12 -49 -12q-28 0 -61 8q-34 7 -56 17q-1 -6 -2 -14t-1 -13q0 -15 3 -30t6 -25q20 -6 46 -9q27 -3 51 -3q73 0 126 30t56 94q-1 40 -23 60t-56 24v7q40 7 65 34q24 27 25 64q-2 46 -40 67q-39 21 -94 21
q-26 0 -54 -5t-53 -15q-9 -16 -14 -36q-4 -19 -5 -36q26 12 57 19q31 6 55 6q19 1 34 -7q15 -7 16 -29q-2 -36 -42 -48q-40 -13 -89 -12q-6 -14 -9 -33q-4 -18 -4 -34v0z" />
    <glyph glyph-name="glyph341" horiz-adv-x="385" 
d="M278 94h52q2 10 4 22q1 13 1 25q0 6 -1 12q0 6 -1 10h-49l22 224h-108l-182 -237l-7 -56h180l-9 -92q20 -4 44 -4q14 0 26 1t21 3zM195 163h-49h-20q-11 -1 -21 -2v6l106 143h5q-4 -15 -6 -30q-3 -16 -4 -30z" />
    <glyph glyph-name="glyph342" horiz-adv-x="385" 
d="M164 309h165q5 18 9 39q3 21 5 39h-251l-38 -213q22 4 47 6q24 2 43 2q36 1 55 -11q20 -12 20 -42q-1 -38 -26 -53t-55 -14q-27 0 -58 7q-32 7 -53 16q-3 -15 -3 -29t3 -28q2 -13 6 -25q18 -5 46 -7q28 -3 52 -3q81 0 133 36t54 112q-1 57 -32 82q-32 25 -85 24
q-13 0 -24 -1q-12 -1 -23 -3z" />
    <glyph glyph-name="glyph343" horiz-adv-x="385" 
d="M133 216q14 62 43 86q30 23 67 22q23 0 47 -6q23 -5 41 -13q2 8 2 17q1 10 1 19q0 26 -6 43q-14 5 -37 8q-22 2 -40 2q-112 -3 -168 -78q-56 -74 -56 -177q0 -75 33 -110q33 -36 102 -36q76 1 121 40q44 39 45 108q0 51 -27 80q-26 29 -81 30q-31 0 -51 -10
q-19 -10 -29 -25h-7zM127 159q12 11 26 18q15 8 32 8q22 0 33 -13q12 -13 12 -38q0 -30 -15 -54q-15 -25 -45 -26q-45 0 -45 69v16l2 20v0z" />
    <glyph glyph-name="glyph344" horiz-adv-x="385" 
d="M361 387h-297l-14 -132q18 0 39 3q21 2 37 6q4 10 9 25q4 15 6 25h126v-7q-57 -70 -106 -148q-48 -78 -83 -157q14 -2 29 -3t29 -1q12 0 25 1t24 3q32 80 72 156q40 77 98 159z" />
    <glyph glyph-name="glyph345" horiz-adv-x="385" 
d="M100 196q-38 -12 -60 -41q-22 -30 -23 -68q2 -53 43 -74t96 -20q71 0 120 29q49 30 51 95q-1 38 -17 59q-16 20 -41 31v7q28 12 46 37q18 24 19 57q-2 47 -40 67t-89 19q-60 1 -105 -26q-45 -26 -47 -86q1 -31 14 -50q14 -19 33 -29v-7zM157 170q32 -11 52 -25t21 -40
q-1 -28 -22 -40q-20 -12 -43 -12t-37 12q-14 11 -14 35q1 24 14 43q13 18 29 27v0zM209 242q-28 10 -46 21q-17 12 -18 33q1 22 19 31q17 9 36 9q17 0 29 -8q12 -9 12 -29q-1 -20 -10 -34q-10 -15 -22 -23v0z" />
    <glyph glyph-name="glyph346" horiz-adv-x="385" 
d="M230 175q-13 -65 -42 -88q-30 -23 -68 -22q-24 0 -50 6q-27 6 -44 14q-2 -8 -3 -16q-1 -9 -1 -17q0 -14 2 -27t6 -23q15 -4 38 -7q24 -2 43 -2q118 4 171 78q54 73 53 173q0 76 -32 113t-101 37q-75 0 -119 -38t-45 -108q0 -51 26 -79q26 -29 78 -29q32 0 51 10t30 25h7z
M238 232q-12 -11 -27 -18q-15 -8 -33 -8q-23 0 -34 13q-12 13 -12 38q0 29 15 53t45 25q23 0 35 -16q13 -17 13 -50q0 -8 -1 -18q0 -10 -1 -19v0z" />
    <glyph glyph-name="glyph347" horiz-adv-x="39" 
 />
    <glyph glyph-name="glyph348" 
d="M162 452q20 50 41 122t27 124q-21 5 -49 9q-29 4 -53 4q-6 -55 -15 -122q-10 -68 -21 -126q14 -5 34 -8q19 -3 36 -3v0zM351 452q20 50 41 122t27 124q-21 5 -49 9q-29 4 -53 4q-6 -55 -15 -122q-10 -68 -21 -126q14 -5 34 -8q19 -3 36 -3v0z" />
    <glyph glyph-name="glyph349" 
d="M492 199q5 14 8 34q4 20 4 35h-87l35 154h86q5 14 8 34q4 20 4 35h-80l45 190q-22 0 -47 -3q-25 -2 -44 -6l-45 -181h-115l45 190q-22 0 -47 -3q-25 -2 -43 -6l-45 -181h-87q-7 -13 -14 -33q-6 -19 -9 -36h91l-39 -154h-79q-7 -13 -14 -33q-6 -19 -9 -36h83l-49 -197
q7 -2 20 -3t27 -1q15 0 29 1q13 1 22 3l46 197h111l-48 -197q7 -2 20 -3q12 -1 26 -1q15 0 28 1q14 1 23 3l46 197h94zM242 422h122l-38 -154h-120z" />
    <glyph glyph-name="glyph350" 
d="M382 520q17 -8 42 -14q24 -5 44 -5q11 35 20 82q10 46 13 81q-30 11 -66 18t-72 11l9 96q-24 0 -50 -3q-26 -2 -42 -7l-10 -90q-82 -14 -126 -66q-45 -52 -45 -133q17 -144 133 -183q115 -40 132 -134q0 -56 -30 -85q-30 -30 -89 -30q-25 0 -48 5q-24 4 -46 17l9 102
q-18 6 -47 10q-28 4 -47 4q-10 -37 -18 -88t-12 -91q33 -15 73 -24t84 -12l-10 -110q8 -1 22 -2q13 -1 26 -1t27 1q13 1 20 2l10 115q86 13 140 65t56 155q-17 141 -134 183q-117 41 -134 133q0 44 26 70q27 26 79 27q18 0 35 -3q18 -4 35 -11z" />
    <glyph glyph-name="glyph351" horiz-adv-x="900" 
d="M738 684q-16 8 -38 13t-44 6l-492 -696q11 -12 33 -25q22 -12 40 -17zM256 695q-86 -1 -135 -56t-50 -148q0 -77 37 -117q36 -39 106 -39q86 1 135 55q50 54 51 147q0 79 -38 118q-37 40 -106 40v0zM246 627q28 0 41 -24t13 -67q0 -56 -19 -93q-18 -38 -56 -40
q-28 0 -41 24q-14 24 -14 69q0 54 19 92q18 37 57 39v0zM680 341q-86 -1 -135 -56t-50 -148q0 -77 37 -117q36 -39 106 -39q86 1 135 55q50 54 51 147q0 79 -38 118q-37 40 -106 40v0zM670 273q28 0 41 -24t13 -67q0 -56 -19 -93q-18 -38 -56 -40q-28 0 -41 24
q-14 24 -14 69q0 54 19 92q18 37 57 39v0z" />
    <glyph glyph-name="glyph352" horiz-adv-x="350" 
d="M143 452q20 50 41 122t27 124q-21 5 -49 9q-29 4 -53 4q-6 -55 -15 -122q-10 -68 -21 -126q14 -5 34 -8q19 -3 36 -3v0z" />
    <glyph glyph-name="glyph353" horiz-adv-x="350" 
d="M60 15q-10 -36 -28 -79q-18 -44 -36 -83q8 -8 26 -17q19 -9 34 -14q34 48 75 129q41 80 64 150q-19 6 -42 9q-23 2 -44 2q-12 0 -24 -1q-13 -1 -22 -4q-13 -14 -27 -37q-14 -24 -22 -44z" />
    <glyph glyph-name="glyph354" horiz-adv-x="350" 
d="M115 143q-33 -1 -54 -21q-20 -20 -21 -54q0 -80 75 -80q32 0 53 21t22 59q-1 37 -21 56t-54 19v0z" />
    <glyph glyph-name="glyph355" 
d="M320 696q-141 -5 -210 -126q-70 -121 -70 -303q0 -147 48 -217q49 -71 146 -70q140 4 211 122q70 118 70 302q0 151 -49 222q-50 71 -146 70v0zM302 616q48 0 70 -53q21 -53 21 -153q0 -137 -35 -240q-36 -103 -108 -108q-45 0 -66 53q-21 52 -21 154q-1 125 31 233
q32 107 108 114v0z" />
    <glyph glyph-name="glyph356" 
d="M210 89q-24 -2 -53 -6t-52 -9q-7 -14 -15 -35q-7 -22 -10 -39h365q2 9 3 21t1 24v15q-1 7 -2 16q-24 5 -55 8t-59 4l51 603q-65 -5 -136 -19t-110 -26q-9 -17 -16 -38q-7 -22 -10 -42l148 19z" />
    <glyph glyph-name="glyph357" 
d="M27 0h435l18 194q-19 0 -45 -3t-44 -8q-6 -18 -12 -42q-6 -25 -9 -43h-209v9q90 68 205 188q116 119 127 250q-2 80 -57 116t-144 35q-58 -1 -112 -15q-54 -15 -92 -34q0 -38 3 -84t8 -82q21 0 45 5q24 6 43 14l6 89q19 10 42 16q23 7 44 7q44 0 66 -22q22 -21 22 -64
q-12 -116 -129 -232q-118 -116 -203 -204z" />
    <glyph glyph-name="glyph358" 
d="M207 598q16 7 38 12t40 5q34 1 60 -20t27 -70q-2 -74 -63 -105t-156 -30q-8 -15 -12 -38q-5 -24 -5 -43q108 1 162 -25q54 -27 54 -94q-2 -64 -41 -93q-39 -28 -92 -28q-48 1 -99 14q-51 12 -83 28q-1 -4 -1 -9q-1 -6 -1 -10q0 -26 7 -51q6 -26 16 -43q30 -8 68 -13
t84 -5q104 0 183 53q80 54 84 165q-2 70 -41 108q-40 37 -98 45v7q67 12 111 60q44 47 46 120q-3 83 -57 121q-55 38 -132 37q-47 0 -102 -10q-56 -10 -101 -29q0 -38 3 -81q3 -42 8 -76q21 0 46 5t41 13z" />
    <glyph glyph-name="glyph359" 
d="M30 186h268l-10 -108q-17 -2 -38 -5q-21 -4 -35 -8q-8 -13 -14 -31t-8 -34h285q2 6 2 16q1 10 1 21q0 8 -1 15q0 8 -1 13q-16 4 -38 7t-41 5l9 109h79q3 13 5 27q2 15 2 30q0 8 -1 15q0 6 -1 11h-77l34 416h-116l-296 -419zM308 269h-82q-21 0 -44 -1q-22 -2 -41 -4v10
l193 295h9q-7 -30 -11 -63q-5 -32 -9 -72z" />
    <glyph glyph-name="glyph360" 
d="M237 572h262q8 22 13 51t7 53h-358l-60 -356q30 6 64 10t61 4q55 1 89 -24q34 -26 35 -94q-1 -72 -40 -111q-38 -40 -101 -40q-41 1 -85 14q-45 14 -78 32q-1 -4 -1 -9q-1 -6 -1 -10q0 -26 7 -51q6 -25 16 -42q26 -8 62 -13q36 -6 73 -6q112 0 190 61q79 61 82 185
q-2 100 -54 144q-53 45 -136 44q-17 0 -35 -2q-19 -2 -35 -6z" />
    <glyph glyph-name="glyph361" 
d="M186 368q25 131 78 187q54 55 116 54q32 0 67 -11q36 -11 63 -30q1 11 1 20q0 24 -5 49q-5 24 -13 40q-23 9 -52 14q-30 5 -57 5q-141 -3 -235 -127q-93 -123 -97 -325q0 -133 49 -199q50 -65 153 -65q112 1 178 70q65 69 67 187q0 90 -43 141q-43 52 -130 53
q-51 0 -82 -18q-31 -17 -48 -45h-10zM178 292q24 27 50 42q26 16 61 16q46 0 68 -29q23 -30 23 -90q0 -72 -29 -121t-83 -51q-46 1 -70 41q-25 39 -25 112q0 16 1 39q2 23 4 41v0z" />
    <glyph glyph-name="glyph362" 
d="M539 676h-441l-17 -198q21 0 47 3q25 4 44 9q6 18 12 45q7 26 9 45h237v-9q-92 -133 -171 -278q-79 -146 -137 -290q13 -3 32 -4q19 -2 37 -2q15 0 32 2q16 1 28 4q54 147 124 291q69 143 157 295z" />
    <glyph glyph-name="glyph363" 
d="M191 351q-61 -18 -105 -72q-44 -55 -46 -133q4 -92 65 -130q60 -37 136 -36q102 0 176 57q74 56 78 165q-1 65 -30 102t-73 58v7q46 18 84 66q37 49 39 114q-3 77 -57 113q-55 35 -127 34q-83 1 -155 -45q-71 -46 -76 -149q1 -58 26 -92q26 -35 65 -52v-7zM247 321
q55 -25 92 -56t39 -87q-2 -62 -40 -92q-38 -29 -85 -29q-42 0 -68 25t-27 81q1 54 25 95q24 40 64 63v0zM329 402q-53 25 -86 51t-34 74q3 57 41 78q37 22 70 21q31 1 55 -19q25 -20 26 -69q0 -40 -19 -76q-20 -36 -53 -60v0z" />
    <glyph glyph-name="glyph364" 
d="M380 321q-19 -128 -64 -189t-115 -60q-39 1 -85 15q-46 15 -79 34q-1 -5 -2 -11q-1 -7 -1 -12q0 -25 6 -50q6 -26 14 -43q30 -11 67 -18q38 -7 78 -7q146 4 227 128q82 123 83 316q0 140 -48 207q-49 66 -150 65q-110 -1 -177 -67q-68 -65 -70 -180q0 -88 44 -142
q44 -53 131 -55q51 0 83 19q31 19 49 50h9zM386 393q-22 -27 -49 -43t-61 -16q-46 0 -69 32q-23 31 -23 88q0 69 30 117q29 47 83 49q43 0 68 -37q24 -37 25 -115q0 -18 -1 -37q-1 -20 -3 -38v0z" />
    <glyph glyph-name="glyph365" horiz-adv-x="350" 
d="M152 483q-33 -1 -53 -20q-20 -20 -21 -53q0 -39 19 -58q19 -20 55 -20q32 0 52 21q20 20 21 57q-1 35 -20 54q-20 19 -53 19v0zM120 159q-33 -1 -54 -21t-22 -54q0 -40 19 -60t57 -20q33 0 53 21t21 59q0 37 -20 56t-54 19v0z" />
    <glyph glyph-name="glyph366" horiz-adv-x="350" 
d="M147 483q-33 -1 -53 -20q-20 -20 -21 -53q0 -39 19 -58q19 -20 55 -20q32 0 52 21q20 20 21 57q-1 35 -20 54q-20 19 -53 19v0zM60 15q-10 -36 -28 -79q-18 -44 -36 -83q8 -8 26 -17q19 -9 34 -14q34 48 75 128q40 79 63 149q-18 6 -41 10q-23 3 -44 3q-12 0 -24 -1
q-13 -1 -22 -4q-13 -14 -27 -37q-14 -24 -22 -44z" />
    <glyph glyph-name="glyph367" 
d="M384 456q15 -10 39 -15q24 -6 42 -6q14 31 22 66t8 68q-22 14 -48 24t-57 13l9 94q-24 0 -50 -3q-26 -2 -43 -7l-8 -89q-44 -10 -79 -32q-36 -22 -62 -54q-35 -44 -55 -104q-19 -60 -19 -123q0 -84 38 -133q37 -48 116 -55l-9 -98q9 -1 22 -2t25 -1q13 0 27 1t21 2l9 106
q32 8 57 21q26 13 45 27q9 15 16 38q7 22 7 40q-36 -18 -80 -30q-43 -12 -82 -13q-48 -1 -70 28q-23 28 -23 95q0 44 10 89q10 44 32 76q18 24 43 39q26 15 57 15q12 0 25 -2q12 -3 22 -8z" />
    <glyph glyph-name="glyph368" 
d="M425 297q5 17 7 39q1 22 -1 37h-174q-2 22 -4 43q-1 22 -1 42q-1 66 21 111q22 46 84 48q14 0 28 -3q14 -2 26 -7l-7 -76q15 -7 39 -12t46 -5q11 39 19 79q7 39 10 78q-33 12 -73 19q-40 6 -74 6q-121 -1 -177 -64q-56 -62 -55 -178q0 -15 1 -36q1 -20 4 -45h-72
q-6 -15 -11 -36q-4 -22 -5 -40h90q-1 -54 -14 -109q-12 -55 -41 -102q-15 -2 -35 -6q-20 -5 -34 -10q-7 -14 -14 -34q-6 -20 -9 -36h491l16 175q-20 0 -46 -3t-43 -8q-6 -18 -12 -41q-6 -24 -9 -44h-221v7q40 41 60 97q20 55 23 114h167z" />
    <glyph glyph-name="glyph369" 
d="M130 481q-28 -32 -42 -76q-14 -45 -14 -95q0 -32 6 -59q7 -26 20 -47l-74 -80q7 -14 22 -27q14 -13 31 -19l69 78q42 -26 107 -26q31 0 58 6t52 19l49 -74q19 4 38 16q18 12 27 26l-56 78q29 31 46 78q17 46 17 99q0 32 -7 59q-7 26 -22 48l71 77q-7 12 -23 24
q-16 13 -33 17l-64 -73q-22 13 -48 20t-58 7q-33 0 -61 -7q-28 -8 -53 -23l-51 79q-18 -7 -35 -21t-26 -27zM265 206q-45 1 -69 32q-24 32 -24 88q0 65 32 109q31 44 88 46q46 -1 70 -31q24 -31 24 -85q-1 -66 -33 -112q-33 -45 -88 -47v0z" />
    <glyph glyph-name="glyph370" 
d="M81 243q-5 -14 -10 -34q-4 -20 -5 -36h144l-8 -93q-18 -2 -42 -6q-25 -4 -40 -8q-7 -13 -14 -31q-6 -19 -9 -35h313q4 13 4 33q1 20 -2 35q-19 4 -43 7t-47 5l6 93h143q4 15 5 35q1 21 0 35h-143l3 26l28 50h119q4 15 5 35q1 21 0 35h-82l122 206q11 1 24 3q13 1 22 3
q6 15 11 37q4 22 6 38h-215q0 -15 3 -37q2 -22 5 -36q10 -4 26 -6q15 -3 29 -4q-15 -16 -28 -36q-14 -19 -22 -36l-42 -81q-10 -19 -21 -46q-12 -27 -19 -51h-9q-1 15 -6 41q-5 25 -16 58l-27 76q-7 20 -16 39q-9 18 -21 37q16 1 36 2q20 2 35 5q6 15 11 37q5 21 7 38h-249
q-1 -4 -1 -9q-1 -6 -1 -9q0 -16 2 -30q2 -15 5 -26q10 -3 24 -6q14 -2 25 -3l71 -204h-84q-5 -14 -10 -34q-4 -20 -5 -36h123l17 -49l-2 -27h-135z" />
    <glyph glyph-name="glyph371" 
d="M164 492q-36 -31 -61 -79q-24 -48 -25 -110q15 -137 121 -182q106 -46 121 -144q-1 -49 -31 -77q-30 -29 -80 -30q-42 0 -63 24q-22 23 -27 72q-30 -1 -62 -13q-32 -13 -46 -31q7 -61 52 -91q46 -29 122 -29q100 0 164 48q65 49 67 150q0 22 -3 40q-4 17 -10 33
q33 31 55 76t23 101q-14 142 -112 190q-99 49 -113 133q0 39 22 62q23 22 64 22q18 0 35 -4q16 -4 28 -9l-7 -67q14 -8 38 -14q24 -5 45 -5q9 30 16 64t10 65q-35 15 -77 25q-41 10 -83 10q-87 -1 -138 -47q-50 -47 -51 -134q0 -27 6 -49v0zM200 433q54 -56 119 -94
q64 -38 70 -112q0 -24 -8 -48t-21 -45q-58 53 -121 92q-63 38 -68 107q0 27 8 52q7 26 21 48v0z" />
    <glyph glyph-name="glyph372" horiz-adv-x="350" 
d="M185 696q-72 -1 -116 -43q-44 -43 -45 -115q0 -59 32 -88q32 -30 92 -30q72 1 116 41q43 41 44 113q-1 61 -33 91q-32 31 -90 31v0zM174 629q25 0 37 -16q12 -15 12 -43q0 -35 -17 -59q-16 -24 -46 -25q-24 0 -37 17q-14 17 -14 47q0 34 17 56t48 23v0z" />
    <glyph glyph-name="glyph373" 
d="M466 288q5 17 6 38q2 21 0 36h-142l24 147q11 64 31 91q21 27 48 26q8 0 15 -1q7 -2 12 -5l-10 -55q12 -9 33 -15q20 -7 38 -8q12 27 24 64q11 38 17 69q-24 11 -52 16q-29 5 -54 5q-72 1 -129 -47q-56 -48 -78 -154l-25 -133h-118q-6 -15 -11 -35q-4 -21 -5 -39h120
l-54 -304q-12 -64 -32 -88q-21 -23 -44 -22q-8 0 -14 1q-7 2 -12 4l9 67q-14 6 -36 13q-22 6 -39 9q-12 -31 -24 -71q-11 -40 -15 -72q26 -10 55 -16q30 -5 57 -5q74 -1 133 45q58 46 78 156l45 283h149z" />
    <glyph glyph-name="glyph374" 
 />
    <glyph glyph-name="glyph375" horiz-adv-x="350" 
 />
    <glyph glyph-name="glyph376" horiz-adv-x="1300" 
d="M739 684q-16 8 -39 13q-22 5 -43 6l-492 -696q10 -12 32 -25q22 -12 41 -17zM256 695q-86 -1 -135 -56t-50 -148q0 -77 37 -117q36 -39 106 -39q86 1 135 55q50 54 51 147q0 79 -38 118q-37 40 -106 40v0zM246 627q28 0 41 -24t13 -67q0 -56 -19 -93q-18 -38 -56 -40
q-28 0 -41 24q-14 24 -14 69q0 54 19 92q18 37 57 39v0zM680 341q-86 -1 -135 -56t-50 -148q0 -77 37 -117q36 -39 106 -39q86 1 135 55q50 54 51 147q0 79 -38 118q-37 40 -106 40v0zM670 273q28 0 41 -24t13 -67q0 -56 -19 -93q-18 -38 -56 -40q-28 0 -41 24
q-14 24 -14 69q0 54 19 92q18 37 57 39v0zM1078 341q-86 -1 -135 -56t-50 -148q0 -77 37 -117q36 -39 106 -39q86 1 135 55q50 54 51 147q0 79 -38 118q-37 40 -106 40v0zM1068 273q28 0 41 -24t13 -67q0 -56 -19 -93q-18 -38 -56 -40q-28 0 -41 24q-14 24 -14 69
q0 54 19 92q18 37 57 39v0z" />
    <glyph glyph-name="glyph377" 
d="M35 427q-5 -14 -10 -34q-4 -20 -5 -36h403q4 15 5 35q1 21 0 35h-219q17 82 60 134q43 51 113 53q39 0 69 -14l-8 -79q17 -9 43 -15q27 -7 49 -7q9 33 18 77q8 44 12 83q-36 18 -78 28q-41 9 -88 9q-118 -2 -199 -75t-112 -194h-53zM412 225q4 15 5 35q1 21 0 35h-395
q-5 -14 -10 -34q-4 -20 -5 -36h65q8 -97 66 -169t165 -76q49 0 95 12q47 12 84 33q10 17 17 40q8 24 8 42q-32 -14 -73 -22q-42 -8 -85 -8q-60 0 -100 38q-40 37 -48 110h211z" />
    <glyph glyph-name="glyph378" horiz-adv-x="579" 
d="M519 199q5 14 8 34q4 20 4 35h-102l36 154h100q5 14 8 34q4 20 4 35h-94l45 190q-22 0 -47 -3q-26 -2 -44 -6l-45 -181h-130l46 190q-22 0 -47 -3q-26 -2 -44 -6l-45 -181h-102q-7 -13 -14 -33q-6 -19 -9 -36h106l-39 -154h-94q-7 -13 -14 -33q-6 -19 -9 -36h98l-49 -197
q7 -2 20 -3t27 -1q15 0 29 1q13 1 22 3l46 197h126l-49 -197q8 -2 20 -3q13 -1 27 -1t28 1t23 3l45 197h109zM242 422h134l-38 -154h-132z" />
    <glyph glyph-name="glyph379" horiz-adv-x="541" 
d="M380 520q17 -8 42 -14q24 -5 44 -5q11 35 20 82q10 46 13 81q-33 11 -72 19t-77 10l9 96q-24 0 -50 -3q-26 -2 -43 -7l-9 -89q-86 -14 -131 -66q-46 -52 -46 -134q17 -144 138 -184q120 -39 137 -133q0 -56 -33 -85q-33 -30 -95 -30q-29 0 -55 6q-27 6 -50 18l9 100
q-19 6 -47 10t-48 4q-9 -37 -17 -88q-9 -51 -12 -91q37 -16 82 -25q44 -10 91 -12l-11 -109q9 -1 23 -2q13 -1 26 -1t26 1q14 1 21 2l10 115q87 12 143 64q55 52 57 156q-17 142 -139 183q-123 41 -140 133q0 44 31 70q30 26 88 27q20 0 39 -4q18 -5 35 -14z" />
    <glyph glyph-name="glyph380" horiz-adv-x="880" 
d="M740 684q-16 8 -38 13t-44 6l-520 -696q10 -12 32 -25q22 -12 41 -17zM229 695q-86 -1 -135 -56t-50 -148q0 -77 37 -117q36 -39 106 -39q86 1 135 55q50 54 51 147q0 79 -38 118q-37 40 -106 40v0zM219 627q28 0 41 -24t13 -67q0 -56 -19 -93q-18 -38 -56 -40
q-28 0 -41 24q-14 24 -14 69q0 54 19 92q18 37 57 39v0zM682 341q-86 -1 -135 -56t-50 -148q0 -77 37 -117q36 -39 106 -39q86 1 135 55q50 54 51 147q0 79 -38 118q-37 40 -106 40v0zM672 273q28 0 41 -24t13 -67q0 -56 -19 -93q-18 -38 -56 -40q-28 0 -41 24
q-14 24 -14 69q0 54 19 92q18 37 57 39v0z" />
    <glyph glyph-name="glyph381" horiz-adv-x="597" 
d="M332 696q-147 -5 -220 -126q-74 -122 -74 -303q0 -147 52 -217q51 -71 153 -70q146 4 220 123q75 118 75 301q0 151 -53 222q-52 71 -153 70v0zM315 616q52 0 77 -53t25 -155q0 -133 -40 -237q-40 -103 -118 -109q-50 0 -74 52q-24 53 -24 154q-1 125 35 233
q37 108 119 115v0z" />
    <glyph glyph-name="glyph382" horiz-adv-x="438" 
d="M136 88q-23 -2 -51 -5q-28 -4 -50 -9q-7 -14 -14 -35q-7 -22 -10 -39h355q2 9 3 21t1 24v15q-1 7 -2 16q-23 5 -53 7q-30 3 -57 4l52 604q-66 -5 -137 -19t-109 -26q-10 -17 -17 -38q-7 -22 -9 -42l148 19z" />
    <glyph glyph-name="glyph383" horiz-adv-x="546" 
d="M-1 0h450l18 194q-20 0 -46 -3q-25 -3 -43 -8q-6 -18 -12 -42q-7 -25 -10 -43h-223v9q93 67 214 186q121 120 132 252q-2 79 -59 115q-56 37 -146 36q-63 -1 -119 -15q-55 -14 -96 -34q0 -37 3 -83t9 -83q20 0 45 5q24 6 42 14l7 89q21 11 46 17q26 6 50 6q45 0 69 -22
q23 -22 23 -64q-12 -116 -135 -233q-122 -116 -211 -203z" />
    <glyph glyph-name="glyph384" horiz-adv-x="521" 
d="M169 598q17 7 40 12t42 5q34 1 61 -20q26 -21 28 -70q-2 -74 -64 -105q-63 -31 -161 -30q-8 -15 -12 -38q-5 -24 -5 -43q111 1 167 -25q55 -27 55 -94q-2 -64 -41 -93q-40 -28 -93 -28q-50 1 -102 14q-52 12 -85 28q-1 -4 -1 -9q-1 -6 -1 -10q0 -26 7 -51q6 -26 16 -43
q30 -8 69 -13t85 -5q106 0 187 53q81 54 85 165q-2 70 -42 108q-41 37 -100 45v7q68 12 113 60q44 47 46 120q-3 83 -58 121t-133 37q-47 0 -104 -10t-103 -29q0 -38 3 -81q3 -42 8 -76q21 0 46 5t41 13z" />
    <glyph glyph-name="glyph385" horiz-adv-x="552" 
d="M1 186h284l-10 -108q-18 -2 -40 -5q-22 -4 -38 -8q-7 -13 -13 -31t-9 -34h294q2 6 2 16q1 10 1 21q0 8 -1 15q0 8 -1 13q-17 4 -40 7t-42 5l9 109h85q3 13 5 27q2 15 2 30q0 8 -1 15q0 6 -1 11h-83l35 416h-118l-312 -419zM294 269h-90q-22 0 -47 -1q-25 -2 -45 -4v10
l209 297h10q-5 -20 -10 -46q-5 -27 -7 -52z" />
    <glyph glyph-name="glyph386" horiz-adv-x="512" 
d="M194 572h270q7 22 12 51t7 53h-366l-59 -356q30 6 66 10t63 4q57 1 91 -24q35 -26 36 -93q-1 -72 -40 -112q-39 -39 -103 -40q-42 1 -87 15q-46 14 -81 33q-1 -4 -1 -9q-1 -6 -1 -10q0 -26 7 -51q6 -26 16 -43q27 -8 62 -14q36 -6 74 -6q116 0 195 61q80 61 83 185
q-2 100 -55 144q-54 45 -140 44q-18 0 -37 -2t-36 -6z" />
    <glyph glyph-name="glyph387" horiz-adv-x="554" 
d="M167 368q26 130 82 186t121 55q33 0 70 -12t67 -32q1 11 1 20q0 24 -5 49q-5 24 -13 40q-25 11 -56 17q-31 5 -59 5q-145 -4 -242 -128q-96 -124 -100 -326q0 -132 51 -197q52 -65 158 -65q116 1 184 70q67 68 69 186q0 90 -45 142t-137 53q-54 0 -86 -18
q-33 -17 -51 -45h-9zM159 292q26 27 54 42q28 16 66 16q49 0 73 -29q24 -30 24 -90q0 -72 -32 -121q-31 -49 -89 -51q-49 1 -75 41t-26 112q0 16 1 39q2 23 4 41v0z" />
    <glyph glyph-name="glyph388" horiz-adv-x="503" 
d="M502 676h-451l-17 -198q21 0 47 3q25 4 43 9q6 17 13 44q6 27 9 46h246v-9q-92 -133 -173 -278q-80 -146 -140 -290q14 -3 32 -4q17 -2 35 -2q16 0 33 2q18 1 30 4q55 147 126 291q71 143 160 295z" />
    <glyph glyph-name="glyph389" horiz-adv-x="553" 
d="M171 351q-61 -18 -106 -72q-45 -55 -47 -133q4 -92 66 -130q63 -37 140 -36q104 0 180 57q76 56 80 165q-1 64 -30 102t-74 58v7q46 18 84 66q37 49 39 114q-3 77 -58 113q-56 35 -130 34q-86 1 -159 -45t-78 -149q1 -58 27 -92q26 -35 66 -52v-7zM229 321q57 -25 97 -56
q39 -31 41 -88q-2 -61 -43 -91q-40 -29 -89 -29q-44 0 -70 25q-27 26 -28 82q1 53 26 94t66 63v0zM314 402q-54 23 -90 51q-35 27 -36 74q3 56 42 78t74 21q32 1 58 -19t28 -69q0 -40 -20 -76t-56 -60v0z" />
    <glyph glyph-name="glyph390" horiz-adv-x="550" 
d="M375 321q-20 -128 -67 -189q-47 -60 -118 -60q-41 1 -90 15q-48 15 -83 36q-1 -5 -2 -11q-1 -7 -1 -12q0 -25 6 -50q6 -26 14 -43q29 -12 67 -19q39 -8 78 -8q155 4 239 127t85 317q0 141 -50 207q-51 66 -155 65q-113 -1 -182 -67q-70 -65 -72 -180q0 -88 46 -142
q46 -53 138 -55q53 0 86 19t52 50h9zM380 393q-23 -27 -52 -43q-30 -16 -67 -16q-49 0 -73 32q-24 31 -24 88q0 69 32 117q31 47 90 49q47 1 72 -38q26 -39 26 -126q0 -16 -1 -31t-3 -32v0z" />
    <glyph glyph-name="glyph391" horiz-adv-x="502" 
d="M354 456q15 -10 38 -15q24 -6 42 -6q14 31 22 66t8 68q-22 14 -48 24t-56 13l8 94q-24 0 -50 -3q-26 -2 -42 -7l-9 -89q-42 -10 -78 -32q-37 -22 -62 -53q-35 -44 -55 -105q-19 -60 -19 -123q0 -84 37 -133q38 -48 117 -55l-9 -98q9 -1 22 -2t25 -1q13 0 27 1q13 1 20 2
l9 106q33 8 58 21q26 13 45 27q9 15 16 38q7 22 7 40q-37 -18 -80 -30q-44 -12 -82 -13q-49 -1 -71 28q-23 29 -23 94q0 45 10 89q11 45 33 77q17 24 43 39q25 15 57 15q12 0 25 -2q12 -3 22 -8z" />
    <glyph glyph-name="glyph392" horiz-adv-x="576" 
d="M87 86q-15 -2 -36 -6q-21 -5 -35 -10q-7 -14 -14 -34q-6 -20 -9 -36h506l16 175q-20 0 -46 -3t-43 -8q-6 -18 -12 -41q-6 -24 -9 -44h-234v7q35 36 57 92t25 119h180q5 17 7 39q1 22 -1 37h-185q-3 21 -4 43q-2 22 -2 42q-1 66 23 111q25 46 92 48q14 0 29 -3
q15 -2 27 -7l-7 -76q14 -7 38 -12t46 -5q11 39 19 79q7 39 10 78q-33 12 -73 19q-40 6 -75 6q-126 -1 -184 -64q-59 -62 -58 -178q0 -19 1 -40t4 -41h-74q-6 -15 -11 -36q-4 -22 -5 -40h91q0 -54 -13 -107q-13 -54 -41 -104v0z" />
    <glyph glyph-name="glyph393" horiz-adv-x="551" 
d="M123 481q-28 -32 -42 -76q-14 -45 -14 -95q0 -32 6 -59q7 -26 20 -47l-74 -80q7 -14 22 -27q14 -13 31 -19l69 78q42 -26 107 -26q31 0 58 6t52 19l49 -74q19 4 38 16q18 12 27 26l-56 78q29 31 46 78q17 46 17 99q0 32 -7 59q-7 26 -22 48l71 77q-7 12 -23 24
q-16 13 -33 17l-64 -73q-22 13 -48 20t-58 7q-33 0 -61 -7q-28 -8 -53 -23l-51 79q-18 -7 -35 -21t-26 -27zM258 206q-45 1 -69 32q-24 32 -24 88q0 65 32 109q31 44 88 46q46 -1 70 -31q24 -31 24 -85q-1 -66 -33 -112q-33 -45 -88 -47v0z" />
    <glyph glyph-name="glyph394" horiz-adv-x="565" 
d="M475 172q4 15 5 35q1 21 0 35h-155l2 29l30 48h129q4 15 5 35q1 21 0 35h-88l130 207l24 2q13 2 23 4q5 15 10 37q4 21 5 37h-214q0 -15 3 -37q2 -21 5 -36q10 -3 26 -6q16 -2 29 -3q-11 -11 -23 -27q-12 -17 -21 -31l-65 -110q-10 -17 -20 -40t-15 -43h-10q-1 20 -7 44
q-6 25 -12 41l-41 106q-6 15 -14 31t-18 29q17 1 37 2q19 2 34 5q6 15 12 37q5 21 7 38h-253q-1 -7 -1 -11v-7q0 -15 2 -30t5 -26q9 -3 22 -6q13 -2 23 -4l80 -203h-92q-5 -14 -10 -34q-4 -20 -5 -36h134l18 -44l-3 -33h-146q-5 -14 -10 -34q-4 -20 -5 -36h154l-9 -92
q-18 -2 -42 -6t-40 -8q-6 -13 -13 -31q-7 -19 -10 -35h315q3 13 4 33q1 21 -1 35q-19 4 -44 7q-24 2 -47 4l6 93h155z" />
    <glyph glyph-name="glyph395" horiz-adv-x="498" 
d="M41 299q15 -135 122 -180q106 -46 121 -142q-1 -48 -30 -77t-80 -30q-42 0 -63 24q-22 23 -27 72q-30 -1 -62 -13q-32 -13 -46 -31q7 -61 52 -91q46 -29 122 -29q100 0 164 48t66 150q0 24 -4 44q-4 19 -12 37q31 31 52 75q20 43 21 98q-14 140 -113 188
q-100 47 -114 131q0 39 23 62q22 22 63 22q18 0 35 -4t29 -9l-8 -67q14 -8 38 -14q24 -5 45 -5q9 30 16 64t10 65q-34 15 -76 25t-83 10q-86 -1 -137 -47q-52 -46 -53 -129q0 -19 3 -34q2 -15 7 -28q-35 -30 -57 -77q-23 -47 -24 -108v0zM134 329q0 26 7 51t19 47
q56 -50 118 -87q62 -38 67 -108q0 -24 -8 -48q-7 -24 -19 -45q-59 49 -119 86q-60 38 -65 104v0z" />
    <glyph glyph-name="glyph396" horiz-adv-x="350" 
d="M185 696q-72 -1 -116 -43q-44 -43 -45 -115q0 -59 32 -88q32 -30 92 -30q72 1 116 41q43 41 44 113q-1 61 -33 91q-32 31 -90 31v0zM174 629q25 0 37 -16q12 -15 12 -43q0 -35 -17 -59q-16 -24 -46 -25q-24 0 -37 17q-14 17 -14 47q0 34 17 56t48 23v0z" />
    <glyph glyph-name="glyph397" horiz-adv-x="491" 
d="M431 288q5 17 6 38q2 21 0 36h-148l25 147q11 62 35 90q23 28 50 27q7 0 14 -2q8 -1 14 -5l-11 -54q12 -9 33 -15q20 -7 37 -8q13 27 25 64q11 38 17 69q-23 11 -51 16q-29 5 -54 5q-72 1 -131 -48q-60 -48 -83 -153l-26 -133h-123q-6 -15 -11 -35q-4 -21 -5 -39h125
l-53 -297q-11 -60 -34 -88q-24 -29 -52 -29q-8 0 -15 2t-11 4l11 66q-14 6 -37 13q-22 6 -40 9q-11 -31 -22 -71q-12 -40 -16 -72q26 -10 55 -16q28 -5 55 -5q75 -1 138 45q63 47 84 156l45 283h154z" />
    <glyph glyph-name="glyph398" horiz-adv-x="1287" 
d="M740 684q-16 8 -38 13t-44 6l-520 -696q10 -12 32 -25q22 -12 41 -17zM229 695q-86 -1 -135 -56t-50 -148q0 -77 37 -117q36 -39 106 -39q86 1 135 55q50 54 51 147q0 79 -38 118q-37 40 -106 40v0zM219 627q28 0 41 -24t13 -67q0 -56 -19 -93q-18 -38 -56 -40
q-28 0 -41 24q-14 24 -14 69q0 54 19 92q18 37 57 39v0zM682 341q-86 -1 -135 -56t-50 -148q0 -77 37 -117q36 -39 106 -39q86 1 135 55q50 54 51 147q0 79 -38 118q-37 40 -106 40v0zM672 273q28 0 41 -24t13 -67q0 -56 -19 -93q-18 -38 -56 -40q-28 0 -41 24
q-14 24 -14 69q0 54 19 92q18 37 57 39v0zM1090 341q-86 -1 -135 -56t-50 -148q0 -77 37 -117q36 -39 106 -39q86 1 135 55q50 54 51 147q0 79 -38 118q-37 40 -106 40v0zM1080 273q28 0 41 -24t13 -67q0 -56 -19 -93q-18 -38 -56 -40q-28 0 -41 24q-14 24 -14 69
q0 54 19 92q18 37 57 39v0z" />
    <glyph glyph-name="glyph399" horiz-adv-x="619" 
d="M451 362q4 15 5 35q1 21 0 35h-247q25 88 79 135q55 47 132 48q22 0 42 -3q20 -4 39 -11l-8 -81q18 -10 44 -16t49 -6q9 33 17 77q8 43 12 83q-36 17 -82 28q-46 10 -99 10q-121 -1 -214 -70t-134 -194h-56q-5 -14 -10 -34q-4 -20 -5 -36h436zM18 289q-5 -14 -10 -34
q-4 -20 -5 -36h67q17 -109 85 -173q67 -65 174 -66q56 1 110 15t94 35q10 16 17 40q8 24 8 42q-41 -15 -91 -25t-91 -10q-68 0 -113 34q-45 35 -61 108h237q4 15 5 35q1 21 0 35h-426z" />
    <glyph glyph-name="glyph400" 
d="M162 391q20 50 41 122t27 124q-21 5 -49 9q-29 4 -53 4q-6 -55 -15 -123q-10 -68 -21 -125q14 -5 34 -8q19 -3 36 -3v0zM354 391q20 50 41 122t27 124q-21 5 -49 9q-29 4 -53 4q-6 -55 -15 -123q-10 -68 -21 -125q14 -5 34 -8q19 -3 36 -3v0z" />
    <glyph glyph-name="glyph401" 
d="M474 136q5 14 8 34q4 20 4 35h-71l35 143h73q5 14 8 34q4 20 4 35h-67l28 119q-21 0 -46 -3q-26 -2 -44 -7l-28 -109h-130l28 119q-21 0 -46 -3q-26 -2 -43 -7l-29 -109h-74q-7 -13 -14 -33q-6 -19 -9 -36h78l-37 -143h-68q-7 -13 -14 -33q-6 -19 -9 -36h71l-34 -134
q8 -2 20 -3t26 -1q15 0 29 1t23 3l31 134h124l-34 -134q8 -2 21 -3t25 -1q15 0 29 1t23 3l31 134h78zM229 349h130l-37 -146h-128z" />
    <glyph glyph-name="glyph402" 
d="M361 408q17 -11 43 -17t52 -6q11 26 18 60t7 65q-27 14 -60 23q-32 9 -66 12l9 80q-23 0 -49 -3t-43 -8l-9 -70q-71 -13 -114 -55q-42 -43 -43 -110q15 -111 120 -144q104 -32 119 -102q-1 -38 -25 -58q-25 -21 -68 -21q-23 0 -45 5t-39 15l7 71q-22 8 -50 12t-53 4
q-9 -25 -14 -51q-5 -25 -5 -51q0 -18 3 -36q29 -18 67 -28q37 -11 79 -14l-9 -80q9 -1 23 -2q13 -1 25 -1q13 0 28 1t22 2l8 85q72 14 117 59q46 44 47 122q-15 114 -118 149q-104 34 -119 98q0 29 21 47t60 18q17 0 33 -4q16 -3 27 -8z" />
    <glyph glyph-name="glyph403" horiz-adv-x="900" 
d="M228 549q-87 -1 -137 -51q-50 -49 -51 -133q0 -68 37 -102q36 -34 105 -34q86 1 137 48t52 132q0 70 -37 105t-106 35v0zM217 483q30 0 43 -20q13 -21 13 -57q0 -48 -20 -79t-58 -32q-29 0 -44 20q-14 20 -14 58q0 46 20 78q20 31 60 32v0zM682 537q-17 8 -40 13
q-23 6 -42 7l-396 -551q10 -11 32 -25t40 -18zM695 302q-87 -1 -137 -51q-50 -49 -51 -133q0 -68 37 -102q36 -34 105 -34q86 1 137 48t52 132q0 70 -37 105t-106 35v0zM684 236q30 0 43 -20q13 -21 13 -57q0 -48 -20 -79t-58 -32q-29 0 -44 20q-14 20 -14 58q0 46 20 78
q20 31 60 32v0z" />
    <glyph glyph-name="glyph404" horiz-adv-x="350" 
d="M143 391q20 50 41 122t27 124q-21 5 -49 9q-29 4 -53 4q-6 -55 -15 -123q-10 -68 -21 -125q14 -5 34 -8q19 -3 36 -3v0z" />
    <glyph glyph-name="glyph405" horiz-adv-x="350" 
d="M60 15q-10 -36 -28 -79q-18 -44 -36 -83q8 -8 26 -17q19 -9 34 -14q34 48 75 128q40 79 63 149q-18 6 -41 10q-23 3 -44 3q-12 0 -24 -1q-13 -1 -22 -4q-13 -14 -27 -37q-14 -24 -22 -44z" />
    <glyph glyph-name="glyph406" horiz-adv-x="350" 
d="M117 143q-33 -1 -55 -21q-21 -20 -22 -54q0 -40 20 -60q19 -20 57 -20q32 0 52 21t21 59q0 37 -20 56t-53 19v0z" />
    <glyph glyph-name="glyph407" 
d="M305 550q-129 -2 -201 -91q-73 -89 -74 -240q0 -121 51 -180q50 -59 149 -59q129 2 202 91t74 239q0 121 -51 180q-51 60 -150 60v0zM288 471q51 0 75 -43q23 -43 23 -123q0 -103 -35 -173q-36 -70 -104 -73q-49 0 -72 43t-23 126q0 99 32 169q33 71 104 74v0z" />
    <glyph glyph-name="glyph408" 
d="M208 92q-24 -4 -52 -11t-47 -14q-8 -13 -16 -32t-12 -35h347q2 8 3 20q1 11 1 23v13q-1 6 -2 14q-21 6 -51 11q-29 6 -54 8l47 461q-76 -5 -138 -19q-63 -14 -96 -25q-9 -17 -16 -38t-11 -42l138 18z" />
    <glyph glyph-name="glyph409" 
d="M188 363l10 85q17 9 37 15q20 5 43 5q34 0 52 -17q19 -16 19 -50q-11 -87 -120 -174q-109 -86 -183 -144l5 -83h392q6 21 11 52q4 32 5 55q-66 -7 -135 -11t-134 -5v9q76 46 176 133q100 88 109 193q-2 66 -51 95q-49 30 -127 29q-58 -1 -107 -14q-49 -14 -88 -33
q-6 -23 -9 -48q-3 -26 -3 -52q0 -15 1 -30q1 -16 3 -29q23 0 49 5t45 14v0z" />
    <glyph glyph-name="glyph410" 
d="M185 455q16 5 38 9t41 4q33 1 56 -16q23 -16 24 -56q-4 -67 -62 -99q-59 -32 -131 -35q-7 -16 -11 -38q-5 -22 -5 -41q100 0 145 -24q44 -24 43 -75q-3 -60 -50 -86q-48 -27 -109 -27q-32 0 -74 6q-42 5 -74 15q-1 -7 -2 -11v-11q0 -14 4 -32t11 -33q28 -8 65 -14t74 -6
q106 1 191 57q86 57 91 159q-1 61 -37 92q-35 30 -87 38v7q56 17 99 64q42 46 44 111q-2 72 -56 105q-53 33 -128 32q-45 0 -98 -10q-52 -10 -100 -28q-8 -36 -9 -73t4 -74q24 1 51 6q26 5 44 15z" />
    <glyph glyph-name="glyph411" 
d="M413 75h70q3 13 5 28t2 30q0 8 -1 15q0 7 -1 12h-68l35 370l-115 20q-87 -99 -167 -204t-148 -209l10 -62h266l-17 -168q10 -2 26 -4q16 -1 32 -1t31 1q15 2 24 4zM310 159h-84q-19 0 -40 -1q-22 0 -40 -2v9q38 64 89 137q51 74 102 134h9q-6 -31 -11 -61t-8 -60z" />
    <glyph glyph-name="glyph412" 
d="M141 531l-56 -339q37 8 70 12q32 4 58 4q59 1 88 -21q30 -22 30 -73q-2 -71 -51 -108q-48 -36 -116 -36q-29 0 -65 6q-36 5 -64 12q-1 -6 -2 -11v-11q0 -14 4 -31q4 -16 11 -31q23 -7 56 -13t70 -6q107 0 191 62q83 61 88 178q-1 85 -50 124q-49 40 -128 39q-42 0 -75 -9
l21 155q125 -3 248 -10q20 54 24 107h-352z" />
    <glyph glyph-name="glyph413" 
d="M182 333q25 119 82 172t123 52q26 0 57 -6t55 -17q2 6 2 13q1 6 1 15q0 16 -2 30q-3 14 -9 30q-24 11 -48 16q-24 6 -54 6q-142 -4 -238 -120q-96 -117 -100 -298q0 -120 50 -183t146 -63q105 2 173 67t70 171q0 79 -43 128t-125 51q-49 -1 -82 -18q-32 -18 -50 -46h-8z
M173 263q23 26 51 40q27 14 59 14q44 0 67 -28q24 -27 24 -79q-1 -61 -31 -106t-82 -47q-45 1 -69 39t-24 102q0 13 1 31l4 34v0z" />
    <glyph glyph-name="glyph414" 
d="M512 530h-410l-30 -170q14 -7 39 -11q24 -5 41 -5q9 16 19 41t15 44h218v-9q-92 -117 -169 -246t-130 -265q28 -7 67 -7q18 0 33 1t29 5q46 135 120 271q73 136 168 272z" />
    <glyph glyph-name="glyph415" 
d="M187 325q-62 -17 -104 -67q-41 -50 -43 -121q4 -89 66 -123q62 -35 134 -34q96 0 168 51q71 50 75 153q-1 62 -29 97q-29 35 -74 52v7q50 15 84 58q35 43 36 105q-3 76 -56 109t-123 32q-83 0 -150 -44t-71 -137q1 -53 25 -84t62 -47v-7zM248 296q52 -23 86 -52t35 -82
q-2 -59 -38 -84t-78 -24q-39 -1 -67 22q-29 23 -30 79q1 50 26 86t66 55v0zM316 370q-45 21 -76 47t-32 70q3 51 37 70q33 19 61 18q29 1 55 -18q26 -18 28 -65q0 -35 -19 -68t-54 -54v0z" />
    <glyph glyph-name="glyph416" 
d="M363 197q-26 -120 -83 -172q-58 -51 -128 -50q-28 0 -64 6q-35 5 -60 14l-2 -10v-10q0 -16 5 -35q4 -20 10 -34q24 -9 56 -15q31 -6 65 -6q146 4 235 120q89 115 91 293q0 124 -50 188q-49 64 -146 64q-104 -2 -169 -66q-66 -64 -68 -171q0 -78 42 -128q41 -50 125 -52
q49 0 82 18q33 17 50 46h9zM372 273q-21 -27 -50 -43t-62 -16q-46 0 -68 29q-23 29 -23 80q1 64 31 107t82 45q46 0 70 -38q24 -37 24 -107q0 -14 -1 -28q-1 -15 -3 -29v0z" />
    <glyph glyph-name="glyph417" horiz-adv-x="350" 
d="M152 483q-33 -1 -53 -20q-20 -20 -21 -53q0 -39 19 -58q19 -20 55 -20q32 0 52 21q20 20 21 57q-1 35 -20 54q-20 19 -53 19v0zM120 159q-33 -1 -54 -21t-22 -54q0 -40 19 -60t57 -20q33 0 53 21t21 59q0 37 -20 56t-54 19v0z" />
    <glyph glyph-name="glyph418" horiz-adv-x="350" 
d="M147 483q-33 -1 -53 -20q-20 -20 -21 -53q0 -39 19 -58q19 -20 55 -20q32 0 52 21q20 20 21 57q-1 35 -20 54q-20 19 -53 19v0zM60 15q-10 -36 -28 -79q-18 -44 -36 -83q8 -8 26 -17q19 -9 34 -14q34 48 75 128q40 79 63 149q-18 6 -41 10q-23 3 -44 3q-12 0 -24 -1
q-13 -1 -22 -4q-13 -14 -27 -37q-14 -24 -22 -44z" />
    <glyph glyph-name="glyph419" 
d="M378 368q15 -10 39 -15q24 -6 42 -6q14 31 22 66t8 68q-22 14 -49 24q-26 9 -58 12l8 69q-22 0 -48 -3t-44 -8l-7 -62q-42 -9 -78 -30q-35 -21 -61 -50q-36 -41 -55 -101q-20 -59 -20 -119q0 -80 38 -128t115 -55l-8 -78q9 -1 22 -2t25 -1q13 0 28 1q14 1 21 2l8 85
q33 9 58 22q26 13 46 27q9 15 16 38q7 22 7 40q-36 -18 -80 -30t-83 -13q-49 -1 -72 27t-23 93q0 42 10 82t33 71q19 24 44 38q25 13 56 13q13 0 25 -3q12 -2 22 -7z" />
    <glyph glyph-name="glyph420" 
d="M416 235q4 16 5 36t0 35h-167q-2 14 -3 28q-1 13 -1 24q-1 53 20 86t75 34q14 0 27 -2q13 -3 27 -8l-7 -57q15 -8 37 -15q22 -6 45 -7q10 24 18 63t8 71q-33 14 -69 21q-36 8 -77 8q-110 -1 -162 -50q-52 -50 -52 -140q0 -29 4 -56h-60q-5 -14 -10 -34q-4 -20 -5 -37h77
q0 -40 -12 -73q-12 -34 -38 -74q-15 -5 -30 -11t-28 -14q-6 -11 -12 -30q-6 -18 -9 -33h446l18 151q-19 1 -41 -1t-38 -6q-6 -13 -13 -33q-8 -19 -11 -34h-198l1 7q34 25 51 66q18 41 21 85h163z" />
    <glyph glyph-name="glyph421" 
d="M129 401q-28 -32 -43 -76q-14 -45 -14 -95q0 -32 6 -59q7 -26 20 -47l-74 -80q7 -14 22 -27q14 -13 31 -19l69 78q42 -26 107 -26q31 0 58 6t52 19l49 -74q19 4 38 16q18 12 28 26l-56 78q29 32 46 78t17 98q0 33 -7 60q-8 26 -23 48l71 77q-7 12 -23 24q-16 13 -33 17
l-63 -73q-23 13 -48 20q-26 7 -58 7q-34 0 -62 -7q-28 -8 -53 -23l-51 79q-18 -7 -35 -21q-16 -14 -26 -27zM263 126q-44 1 -68 32q-25 32 -25 88q0 65 32 109q31 44 89 46q46 -1 70 -31q24 -31 24 -85q-1 -66 -34 -112q-32 -45 -88 -47v0z" />
    <glyph glyph-name="glyph422" 
d="M328 206l26 36h117q3 13 4 31q1 17 0 30h-78l97 140q11 1 24 4t22 7q8 15 14 37t8 39h-198q-3 -18 -2 -37q1 -20 5 -35q8 -5 21 -9q12 -5 23 -7q-10 -8 -21 -20q-11 -13 -20 -25l-51 -76q-9 -13 -16 -28q-6 -15 -11 -27h-9q-2 13 -7 28q-4 15 -9 27l-29 75q-5 12 -11 24
q-7 12 -15 21q16 2 33 7q17 4 28 8q6 15 10 35q5 20 7 39h-240q-1 -13 -1 -22q0 -13 1 -26t3 -22q9 -6 21 -11t24 -8l61 -138h-71q-5 -13 -8 -29q-4 -17 -5 -32h112l22 -48l-1 -12h-136q-5 -13 -8 -29q-4 -17 -5 -32h144l-4 -37q-18 -4 -37 -10t-34 -14q-6 -11 -12 -28
q-7 -18 -10 -32h288q4 13 5 32q0 19 -2 33q-15 5 -39 10q-25 4 -43 6l4 40h136q3 13 4 31q1 17 0 30h-133z" />
    <glyph glyph-name="glyph423" 
d="M380 501q14 -8 38 -13q23 -5 46 -5q7 23 15 62t10 66q-30 14 -70 23q-39 10 -83 10q-81 0 -134 -37q-53 -38 -55 -112q0 -11 2 -22t6 -19q-33 -28 -56 -65t-24 -84q14 -120 112 -165q98 -44 112 -115q-1 -32 -26 -53t-67 -22q-39 0 -59 22t-24 62q-31 0 -62 -10
q-31 -11 -45 -29q6 -57 49 -84q44 -27 115 -27q89 0 154 40t68 123q0 14 -2 26q-3 12 -9 24q25 22 48 57q22 35 24 81q-14 125 -108 174q-95 48 -109 110q1 32 24 47t56 15q18 0 34 -4q17 -3 28 -8zM194 393q49 -46 108 -82q59 -35 64 -100q0 -14 -7 -28q-6 -13 -13 -24
q-53 44 -111 80q-58 35 -63 94q0 17 7 32q6 15 15 28v0z" />
    <glyph glyph-name="glyph424" horiz-adv-x="350" 
d="M185 644q-72 -1 -116 -43q-44 -43 -45 -115q0 -59 32 -88q32 -30 92 -30q72 1 116 41q43 41 44 113q-1 61 -33 91q-32 31 -90 31v0zM174 577q25 0 37 -16q12 -15 12 -43q0 -35 -17 -59q-16 -24 -46 -25q-24 0 -37 17q-14 17 -14 47q0 34 17 56t48 23v0z" />
    <glyph glyph-name="glyph425" 
d="M449 196q5 17 6 38t-1 36h-131l15 94q10 63 32 90q21 27 47 26q8 0 15 -2q7 -1 12 -5l-10 -53q12 -9 33 -15q20 -7 38 -9q12 28 24 65q11 37 17 69q-25 11 -53 16t-53 5q-73 1 -130 -47q-56 -47 -77 -153l-15 -81h-113q-5 -15 -10 -35q-5 -21 -6 -39h115l-31 -179
q-12 -63 -33 -86t-45 -22q-8 0 -14 1q-7 2 -12 4l9 67q-14 6 -36 13q-22 6 -39 9q-12 -31 -23 -71q-11 -41 -15 -73q26 -10 55 -15q29 -6 56 -6q75 -1 133 45q59 47 78 155l25 158h137z" />
    <glyph glyph-name="glyph426" 
 />
    <glyph glyph-name="glyph427" horiz-adv-x="350" 
 />
    <glyph glyph-name="glyph428" horiz-adv-x="1300" 
d="M685 537q-17 8 -40 13q-23 6 -42 7l-395 -551q10 -11 32 -25q21 -14 40 -18zM231 549q-87 -1 -137 -51q-50 -49 -51 -133q0 -68 37 -102q36 -34 105 -34q86 1 137 48t52 132q0 70 -37 105t-106 35v0zM220 483q30 0 43 -20q13 -21 13 -57q0 -48 -20 -79t-58 -32
q-29 0 -44 20q-14 20 -14 58q0 46 20 78q20 31 60 32v0zM692 302q-87 -1 -137 -51q-50 -49 -51 -133q0 -68 37 -102q36 -34 105 -34q86 1 137 48t52 132q0 70 -37 105t-106 35v0zM681 236q30 0 43 -20q13 -21 13 -57q0 -48 -20 -79t-58 -32q-29 0 -44 20q-14 20 -14 58
q0 46 20 78q20 31 60 32v0zM1087 302q-87 -1 -137 -51q-50 -49 -51 -133q0 -68 37 -102q36 -34 105 -34q86 1 137 48t52 132q0 70 -37 105t-106 35v0zM1076 236q30 0 43 -20q13 -21 13 -57q0 -48 -20 -79t-58 -32q-29 0 -44 20q-14 20 -14 58q0 46 20 78q20 31 60 32v0z" />
    <glyph glyph-name="glyph429" 
d="M395 283q3 13 4 31q1 17 0 30h-174q17 63 54 96q37 34 88 34q32 0 59 -13l-6 -58q16 -9 43 -15q26 -6 48 -6q12 26 20 61q8 34 8 66q-31 20 -71 31t-91 11q-96 -1 -170 -57t-105 -150h-57q-5 -13 -8 -29q-4 -17 -5 -32h363zM33 222q-5 -13 -8 -29q-4 -17 -5 -32h65
q15 -81 69 -130q55 -50 143 -51q47 1 91 12q43 12 77 29q11 15 18 38q7 22 7 39q-40 -14 -80 -21t-74 -7q-45 0 -77 22q-31 21 -42 69h168q3 13 4 31q1 17 0 30h-356z" />
    <glyph glyph-name="glyph430" horiz-adv-x="319" 
d="M237 541q-20 4 -44 4q-22 0 -46 -3q-23 -2 -40 -9l-13 -342q8 -2 18 -3q11 -1 23 -1q11 0 23 1q11 1 19 3zM119 129q-31 -1 -50 -20q-20 -19 -21 -50q0 -75 71 -75q31 0 50 20q18 19 19 55q0 35 -19 52q-19 18 -50 18v0z" />
    <glyph glyph-name="glyph431" horiz-adv-x="381" 
d="M90 282q21 50 42 121q20 71 26 122q-21 6 -49 10q-29 3 -53 3q-5 -54 -15 -121q-10 -66 -21 -124q14 -5 34 -8t36 -3v0zM278 282q21 50 42 121q20 71 26 122q-21 6 -49 10q-29 3 -53 3q-5 -54 -15 -121q-10 -66 -21 -124q14 -5 34 -8t36 -3v0z" />
    <glyph glyph-name="glyph432" horiz-adv-x="193" 
d="M90 282q21 50 42 121q20 71 26 122q-21 6 -49 10q-29 3 -53 3q-5 -54 -15 -121q-10 -66 -21 -124q14 -5 34 -8t36 -3v0z" />
    <glyph glyph-name="glyph433" horiz-adv-x="319" 
d="M147 -123q21 3 47 13q25 10 40 20q-24 58 -36 126q-12 69 -12 138q0 119 33 238q33 118 95 224q-24 0 -56 -6q-31 -7 -50 -16q-69 -113 -101 -216t-32 -208q0 -73 16 -151q17 -79 56 -162v0z" />
    <glyph glyph-name="glyph434" horiz-adv-x="304" 
d="M44 -116q88 126 127 239t38 226q0 69 -14 142q-13 74 -44 150q-24 -2 -49 -12q-26 -9 -41 -21q19 -54 29 -114q9 -60 9 -124q0 -124 -34 -241q-33 -117 -100 -213q14 -11 36 -20q21 -9 43 -12v0z" />
    <glyph glyph-name="glyph435" horiz-adv-x="359" 
d="M358 559q-17 5 -34 8q-17 2 -29 2q-7 0 -16 -1q-9 0 -14 -1l-283 -590q14 -11 41 -22t47 -14z" />
    <glyph glyph-name="glyph436" horiz-adv-x="424" 
d="M143 170q24 2 52 11q27 9 45 20q-6 11 -8 21q-3 10 -3 21q10 49 81 92q70 42 80 122q0 43 -40 67q-39 25 -112 25q-44 0 -95 -8q-51 -7 -85 -17q-4 -20 -5 -42q-2 -21 -2 -43v-17q1 -8 2 -21q20 0 49 3q28 4 46 9l7 52q11 5 24 8q13 2 25 2q27 0 39 -11q12 -10 12 -27
q-9 -50 -69 -89q-61 -39 -70 -107q0 -19 8 -39q8 -21 19 -32v0zM172 129q-31 -1 -50 -20q-20 -19 -21 -50q0 -75 71 -75q31 0 50 20q18 19 19 55q0 35 -19 52q-19 18 -50 18v0z" />
    <glyph glyph-name="glyph437" horiz-adv-x="654" 
d="M467 371q-19 16 -46 26q-27 11 -64 11q-41 0 -73 -16q-33 -15 -56 -42q-28 -32 -42 -70q-13 -38 -13 -77q1 -53 23 -79q21 -25 58 -25q27 0 50 12q23 11 40 34h7q0 -11 3 -24q3 -12 8 -22q133 12 200 84t67 165q-2 101 -73 155q-70 54 -179 55q-154 -3 -253 -101
q-100 -97 -104 -251q1 -117 67 -182t190 -66q51 0 102 12q51 11 96 32q-3 12 -10 28q-7 17 -14 25q-33 -16 -75 -25q-43 -10 -83 -10q-96 1 -146 54q-51 54 -51 144q3 118 78 196q74 78 191 81q78 0 133 -39q55 -40 57 -119q0 -56 -31 -105q-32 -49 -94 -61q-1 4 -2 9
q-1 4 -1 9zM340 198q-10 -13 -22 -20q-12 -8 -25 -8q-11 0 -19 10q-7 10 -7 35t7 50q7 26 20 47q9 14 24 25q14 10 32 11q5 0 12 -1t12 -5z" />
    <glyph glyph-name="glyph438" horiz-adv-x="316" 
d="M42 -109h189q5 14 6 36q2 22 0 35q-13 4 -34 7t-40 4l56 582q15 1 33 3q17 2 32 5q4 13 7 30q4 17 4 32q0 5 -1 12h-169z" />
    <glyph glyph-name="glyph439" horiz-adv-x="340" 
d="M118 597q-21 -6 -46 -21t-38 -28l153 -603q25 3 53 11q27 9 43 18z" />
    <glyph glyph-name="glyph440" horiz-adv-x="315" 
d="M239 637h-165q-5 -14 -7 -37t-1 -37q12 -3 29 -5q16 -2 31 -3l-63 -582q-17 -1 -38 -3q-22 -3 -36 -7q-5 -12 -8 -32t-3 -40h187z" />
    <glyph glyph-name="glyph441" horiz-adv-x="646" 
d="M391 160l7 -29q3 -12 8 -26q5 -13 12 -24q-11 -2 -27 -6t-27 -9q-7 -13 -14 -31q-8 -19 -11 -35h250q0 22 -3 40q-2 17 -6 30q-10 4 -22 7q-12 2 -23 3l-140 466l-99 -12l-241 -446q-13 -4 -29 -11q-16 -8 -28 -16q-7 -12 -12 -28q-5 -17 -7 -33h232q1 17 -1 36t-6 32
q-10 4 -26 8t-29 6q9 11 17 24q8 14 13 24l15 30h197zM329 444q1 -18 5 -44q3 -26 7 -43l33 -127h-148l61 129q9 20 19 44q9 24 14 41h9z" />
    <glyph glyph-name="glyph442" horiz-adv-x="592" 
d="M94 88q-15 -4 -31 -10t-30 -14q-6 -11 -13 -30q-6 -20 -8 -34q46 -2 115 -4q70 -2 124 -2q111 -1 188 39q78 40 81 129q0 49 -26 77t-76 38v7q50 12 76 45q26 32 26 77q-1 69 -60 100q-60 32 -162 31q-49 0 -109 -2q-61 -1 -110 -5q-4 -13 -6 -34q-3 -21 -3 -35
q12 -3 32 -6q19 -3 34 -4zM226 239h64q51 0 80 -19q29 -20 30 -61q-1 -46 -36 -68t-95 -22q-15 0 -30 1q-16 1 -30 2zM247 463q10 1 25 1h26q49 0 76 -17q28 -17 28 -54q-1 -40 -30 -60q-30 -21 -78 -21h-62z" />
    <glyph glyph-name="glyph443" horiz-adv-x="553" 
d="M376 379q17 -8 43 -14t47 -6q14 29 22 68q9 39 9 75q-31 20 -68 32q-38 11 -83 11q-137 -3 -225 -95t-91 -231q1 -107 59 -172q57 -65 163 -67q47 1 94 12q46 12 79 29q11 16 18 40q8 25 8 43q-34 -12 -77 -20t-78 -8q-66 -1 -103 37q-36 37 -37 123q2 106 50 168
q48 63 124 64q30 0 55 -12z" />
    <glyph glyph-name="glyph444" horiz-adv-x="631" 
d="M97 90q-15 -3 -31 -9q-16 -7 -30 -15q-7 -11 -14 -30q-6 -20 -8 -34q56 -3 128 -4q71 -2 127 -2q123 1 215 80q92 78 97 229q-1 120 -70 176q-69 57 -195 56q-50 0 -115 -3q-65 -4 -120 -9q-4 -11 -6 -33q-3 -22 -3 -36q13 -2 33 -5q19 -2 33 -3zM249 458q11 2 26 2
q15 1 26 1q74 1 116 -39q41 -40 42 -129q-1 -101 -51 -159q-50 -59 -136 -60q-15 0 -30 1q-16 1 -31 3z" />
    <glyph glyph-name="glyph445" horiz-adv-x="572" 
d="M210 77l14 155h115q0 -10 2 -22t5 -21q13 -3 31 -5t35 -1l20 169q-16 -1 -33 -4q-18 -2 -30 -7q-7 -8 -13 -17q-6 -10 -10 -19h-115l15 149h158q5 -32 15 -58q15 -5 35 -8q21 -3 38 -3l18 145h-432q-4 -13 -6 -33q-2 -21 -1 -36q13 -4 31 -7q17 -2 33 -4l-40 -362
q-16 -5 -32 -11q-17 -6 -30 -14q-6 -11 -12 -30q-6 -18 -9 -33h451l18 149q-19 1 -41 -1t-38 -6q-6 -12 -13 -31q-7 -20 -11 -34h-168z" />
    <glyph glyph-name="glyph446" horiz-adv-x="525" 
d="M227 293l15 161h150q5 -33 15 -61q15 -5 35 -8q21 -3 38 -3l18 148h-424q-4 -13 -6 -34q-2 -20 -1 -35q13 -3 31 -6q17 -3 33 -5l-39 -362q-15 -5 -32 -11q-16 -6 -29 -14q-6 -11 -13 -30q-6 -18 -8 -33h276q3 13 4 33t-1 34q-16 5 -39 10q-24 4 -43 6l12 137h112
q0 -11 2 -25q2 -13 5 -23q12 -4 30 -6q18 -1 35 0l21 177q-15 -1 -32 -4t-31 -8q-7 -8 -13 -18l-10 -20h-111z" />
    <glyph glyph-name="glyph447" horiz-adv-x="622" 
d="M498 189q12 3 25 8q14 5 25 11q6 12 13 30t10 33h-277q-1 -14 0 -32q1 -19 3 -33q19 -6 45 -11q25 -5 47 -7l-15 -119q-18 -3 -39 -5q-20 -2 -38 -2q-66 -1 -103 36q-36 38 -37 128q1 112 54 178q52 66 140 67q19 0 37 -4q17 -4 34 -13l-7 -68q17 -7 43 -12q26 -6 49 -7
q11 26 19 62t8 69q-31 22 -74 34q-43 13 -94 13q-148 -3 -240 -97q-92 -93 -95 -238q0 -109 59 -169t171 -61q59 1 121 14q62 12 99 26z" />
    <glyph glyph-name="glyph448" horiz-adv-x="711" 
d="M584 450q16 2 35 4q19 3 33 6q5 15 9 35q3 21 3 35h-237q-4 -13 -6 -34q-2 -20 -1 -35q12 -3 26 -6q15 -3 29 -5l-17 -146h-227l16 146q16 2 34 4q17 3 30 6q5 15 9 35q3 21 3 35h-241q-4 -13 -6 -34q-2 -20 -1 -35q13 -3 31 -6q17 -3 33 -5l-44 -362q-15 -5 -32 -11
t-30 -14q-6 -11 -12 -30q-6 -18 -9 -33h257q4 13 5 34q1 20 -1 34q-14 5 -33 9q-18 4 -33 6l17 147h225l-16 -143q-14 -4 -28 -10q-15 -6 -28 -14q-5 -12 -11 -30q-6 -17 -9 -33h257q4 13 5 34q1 20 -1 34q-15 5 -36 9q-20 4 -37 6z" />
    <glyph glyph-name="glyph449" horiz-adv-x="373" 
d="M246 450q16 2 36 4q19 3 34 6q5 14 8 35t3 35h-249q-4 -13 -6 -33q-1 -21 0 -36q13 -3 30 -6q18 -3 34 -5l-42 -362q-16 -5 -32 -11q-17 -6 -30 -14q-6 -11 -12 -30q-6 -18 -9 -33h267q4 13 5 34q1 20 -1 34q-15 5 -36 9t-38 6z" />
    <glyph glyph-name="glyph450" horiz-adv-x="370" 
d="M-34 -84q3 -16 11 -33q9 -18 18 -28q110 41 170 124t70 200l25 271q15 1 34 4t32 6q5 13 8 33t3 37h-267q-3 -13 -4 -34q-2 -20 -1 -35q17 -4 40 -7q22 -3 44 -5l-31 -292q-8 -79 -44 -140q-37 -62 -108 -101v0z" />
    <glyph glyph-name="glyph451" horiz-adv-x="641" 
d="M235 306l15 144q13 2 30 4q17 3 29 6q5 13 8 33q4 20 3 37h-239q-4 -13 -6 -34q-1 -20 0 -35q13 -3 30 -6q18 -3 34 -5l-44 -362q-15 -5 -32 -11t-30 -14q-6 -11 -12 -30q-6 -18 -9 -33h264q3 13 4 33t-1 34q-14 5 -33 10q-19 4 -35 6l17 151h41q59 -100 108 -168
q48 -67 79 -84q25 1 52 5q26 5 48 10q8 15 15 39q7 23 8 42l-57 -5q-16 11 -60 69q-45 58 -94 135l160 170q13 2 28 5q14 3 24 7q7 14 14 35q6 20 8 36h-227q-2 -15 -1 -34t5 -33q8 -5 21 -9t25 -6q-10 -7 -22 -17q-12 -11 -20 -20l-94 -105h-54z" />
    <glyph glyph-name="glyph452" horiz-adv-x="535" 
d="M208 74l37 376q23 2 48 4q26 3 45 7q4 13 8 35q4 21 4 34h-273q-4 -13 -6 -34q-2 -20 -1 -35q13 -3 31 -6t34 -5l-41 -362q-16 -5 -32 -11q-17 -6 -30 -14q-6 -11 -12 -30q-6 -18 -9 -33h434l18 165q-17 2 -39 1q-23 -2 -37 -6q-8 -17 -15 -39t-11 -39q-36 -4 -77 -6
t-76 -2v0z" />
    <glyph glyph-name="glyph453" horiz-adv-x="867" 
d="M321 -15l119 11l123 300q10 24 21 60q11 37 17 66h9l12 -334q-13 -4 -27 -9t-26 -12q-6 -13 -13 -33q-7 -19 -9 -34h251q2 7 3 20t1 26v11t-1 11q-14 6 -32 11q-19 4 -33 6l-24 364q18 2 39 4q20 2 36 5q5 14 8 36q4 23 5 36h-224l-135 -328q-8 -19 -17 -49
q-8 -29 -14 -52h-9q0 26 -4 59q-3 34 -7 56l-59 314h-211q-5 -14 -7 -36q-3 -21 -2 -36q13 -3 30 -5q18 -2 33 -4l-104 -361q-14 -3 -30 -9t-28 -14q-7 -11 -14 -31q-8 -20 -11 -34h233q3 13 4 34t-1 35q-12 5 -29 9q-17 3 -32 5l81 339h9q1 -27 4 -64t8 -63z" />
    <glyph glyph-name="glyph454" horiz-adv-x="687" 
d="M285 530h-208q-4 -13 -5 -34q-1 -20 0 -35q12 -3 29 -6q18 -3 34 -5l-43 -362q-15 -5 -32 -11t-30 -14q-6 -11 -12 -30q-6 -18 -9 -33h239q4 13 5 34q1 20 -1 34q-15 5 -34 9t-35 6l35 336h9q5 -22 14 -48q8 -25 16 -43l154 -342l127 14l49 450q13 2 30 4q17 3 30 6
q4 13 7 34q4 21 4 36h-227q-4 -13 -5 -34q-1 -20 0 -35q13 -3 35 -6t42 -5l-38 -334h-9q-6 29 -17 63t-21 57z" />
    <glyph glyph-name="glyph455" horiz-adv-x="625" 
d="M338 545q-137 -2 -221 -91q-84 -88 -86 -234q1 -116 59 -178q58 -61 168 -62q136 2 221 90q84 87 87 235q-1 118 -61 179t-167 61v0zM321 468q62 -1 94 -46q33 -45 33 -125q-1 -100 -48 -168q-46 -68 -124 -71q-60 1 -92 46q-33 45 -33 126q1 96 45 166q44 69 125 72v0z
" />
    <glyph glyph-name="glyph456" horiz-adv-x="554" 
d="M96 88q-15 -5 -32 -11t-30 -14q-6 -11 -12 -30q-6 -18 -9 -33h283q3 13 4 33t-1 34q-16 5 -42 10q-25 5 -46 7l13 120q13 -2 31 -3t33 -1q91 -1 159 45t72 145q0 81 -57 114q-58 34 -169 33q-43 0 -107 -3q-64 -2 -105 -6q-4 -13 -6 -34q-3 -22 -2 -36q13 -3 31 -6
q17 -2 33 -3zM247 459q12 2 26 2q13 1 25 1q49 0 76 -20q27 -21 27 -66q-1 -51 -31 -76t-80 -25q-12 0 -31 1t-29 3z" />
    <glyph glyph-name="glyph457" horiz-adv-x="655" 
d="M340 545q-137 -2 -222 -90q-84 -87 -87 -235q0 -117 60 -178q59 -62 172 -62q17 0 30 1q13 2 28 4q50 -44 116 -85q66 -42 103 -45q14 0 38 7q25 7 43 17q9 16 15 41q7 25 7 46l-85 -14q-18 1 -54 20q-35 19 -74 47v7q64 37 102 113q38 77 39 170q-1 115 -63 175
q-61 61 -168 61v0zM324 469q63 -1 96 -46q32 -45 32 -125q-1 -100 -48 -169q-46 -69 -126 -72q-61 1 -94 46q-33 46 -33 126q1 97 46 167t127 73v0z" />
    <glyph glyph-name="glyph458" horiz-adv-x="603" 
d="M83 528q-5 -13 -7 -34q-2 -22 -1 -36q13 -3 31 -5q17 -2 33 -3l-42 -362q-15 -5 -32 -11t-29 -14q-6 -11 -13 -30q-6 -18 -9 -33h256q3 13 4 33t-1 34q-13 5 -30 9t-32 6l14 140q14 -2 34 -4q21 -2 36 -2q34 -95 64 -158q29 -63 50 -77q29 2 56 6q27 3 52 10q9 15 16 37
t7 40l-52 -6q-11 7 -38 55q-26 47 -56 109q63 20 94 65q30 44 30 100q0 77 -60 109q-61 32 -178 31q-41 0 -98 -3q-58 -2 -99 -6v0zM248 458q10 1 24 2h25q51 0 78 -18q27 -19 27 -61q-1 -51 -35 -72t-85 -20q-10 0 -25 1q-16 1 -26 2z" />
    <glyph glyph-name="glyph459" horiz-adv-x="506" 
d="M326 406q17 -11 43 -17t52 -6q10 26 17 60t7 65q-36 19 -79 29q-43 11 -87 11q-90 -1 -144 -45q-55 -44 -56 -118q14 -113 115 -147q101 -33 115 -104q-1 -38 -25 -59q-24 -22 -65 -22q-22 0 -44 5t-37 16l7 71q-22 8 -50 12t-54 4q-9 -25 -14 -51q-5 -25 -5 -51
q0 -18 3 -36q36 -22 81 -33q44 -10 93 -10q94 0 159 44t68 135q-14 117 -114 152q-100 36 -114 101q0 29 20 48q19 18 57 19q16 0 32 -4q15 -5 25 -10z" />
    <glyph glyph-name="glyph460" horiz-adv-x="567" 
d="M439 455q1 -17 4 -38t8 -37q14 -6 35 -10t40 -5l20 165h-495l-20 -166q20 0 43 5q23 4 38 10q8 16 15 38q7 21 11 38h95l-40 -368q-18 -4 -37 -11q-20 -7 -35 -15q-6 -11 -13 -29t-10 -32h293q3 13 4 33q1 19 -1 33q-17 5 -41 11q-25 5 -45 7l36 371h95z" />
    <glyph glyph-name="glyph461" horiz-adv-x="638" 
d="M396 530q-4 -13 -6 -34t-2 -35q12 -3 31 -6q18 -3 34 -5l-26 -246q-6 -62 -40 -101t-98 -40q-61 1 -82 34t-20 79q0 9 1 19q0 9 1 18l22 237q19 2 41 5q23 3 40 7q5 14 8 34q4 20 4 34h-266q0 -14 1 -34t4 -35q10 -4 26 -8t30 -6l-25 -239q-3 -24 -3 -45q0 -94 49 -139
q50 -44 150 -44q110 2 175 64t76 164l24 242q15 2 32 4q18 3 31 6q5 15 8 36q4 21 5 34h-225z" />
    <glyph glyph-name="glyph462" horiz-adv-x="582" 
d="M262 90q0 20 -3 45q-3 24 -7 42l-38 174q-5 23 -13 48q-8 24 -17 42q17 2 38 7q20 4 33 9q7 15 12 35q6 19 8 38h-252q-1 -12 -1 -24q0 -23 4 -44q9 -7 22 -13q13 -7 25 -10l111 -456l113 13l219 447q12 1 26 4q13 3 22 7q8 15 15 37q6 22 8 39h-212q-2 -18 -1 -37
q1 -20 5 -35q10 -5 25 -9q15 -5 28 -7q-12 -16 -23 -37q-12 -21 -20 -38l-85 -184q-9 -19 -18 -46t-15 -47h-9z" />
    <glyph glyph-name="glyph463" horiz-adv-x="841" 
d="M187 441q16 2 34 7q18 4 29 9q6 15 11 35q6 19 8 38h-233q-1 -10 -1 -19q0 -11 1 -24t4 -25q7 -8 20 -14q12 -6 23 -10l69 -455l134 13l111 318q9 27 19 62t14 61h9q-1 -27 0 -63q2 -36 4 -60l31 -331l127 13l177 447q10 1 23 4t23 7q7 15 13 37q5 22 7 39h-200
q-2 -18 -1 -37q1 -20 5 -35q10 -5 24 -9q14 -5 26 -7q-13 -19 -23 -43q-11 -24 -18 -44l-60 -168q-9 -23 -17 -51q-8 -27 -13 -50h-9q0 24 -1 54q-1 31 -3 56l-35 341l-129 -13l-119 -335q-8 -23 -16 -51q-8 -29 -13 -52h-9q0 23 -1 55q-1 31 -4 54l-19 157q-3 23 -9 48
q-6 24 -13 41v0z" />
    <glyph glyph-name="glyph464" horiz-adv-x="625" 
d="M332 327l-49 77q-6 9 -15 21q-9 11 -18 20q10 2 24 5q13 4 21 8q6 15 10 35q4 19 6 37h-240q-1 -17 1 -38q2 -20 7 -35q10 -5 25 -9q14 -5 27 -7l102 -160l-170 -194q-14 -3 -31 -9q-16 -7 -29 -13q-6 -12 -12 -31q-6 -20 -9 -34h244q0 16 -2 35t-5 33q-12 5 -27 9t-27 6
q10 8 21 20t19 22l71 94l58 -92q6 -10 17 -23t21 -21q-12 -2 -24 -7q-13 -5 -24 -10q-6 -13 -11 -31q-6 -19 -8 -35h254q0 17 -4 37q-3 20 -7 33q-12 4 -26 8q-14 3 -27 5l-123 187l144 175q12 2 27 5q14 3 24 7q7 16 12 36t7 37h-204q-2 -16 -1 -36q1 -21 3 -34q9 -5 21 -9
q11 -4 22 -6q-11 -9 -21 -21q-11 -12 -18 -21z" />
    <glyph glyph-name="glyph465" horiz-adv-x="560" 
d="M317 206l170 237q12 1 25 4t22 7q8 15 14 37t8 39h-203q-3 -18 -2 -37q1 -20 5 -35q8 -5 21 -9q12 -5 23 -7q-9 -8 -21 -21q-11 -13 -18 -24l-50 -74q-8 -12 -17 -28q-8 -16 -14 -29h-9q-2 14 -6 29q-4 14 -9 26l-30 75q-5 12 -11 24q-7 12 -15 21q15 2 32 7q18 4 29 8
q5 15 10 35q4 20 6 39h-245q-1 -3 -1 -10q-1 -6 -1 -12q0 -13 1 -25q2 -13 4 -23q10 -6 22 -11t23 -8l119 -249l-11 -106q-18 -4 -37 -10t-34 -14q-6 -11 -13 -29q-8 -19 -11 -33h290q3 13 4 33q0 20 -2 34q-15 5 -39 10q-24 4 -42 6z" />
    <glyph glyph-name="glyph466" horiz-adv-x="538" 
d="M16 0h428l30 165q-18 3 -47 2q-28 -2 -47 -8q-8 -16 -15 -36q-8 -20 -13 -37q-42 -6 -91 -9q-48 -3 -95 -3v9l311 385l-4 62h-406l-16 -136q14 -7 37 -12t42 -6q10 16 19 38q10 22 15 39h164v-9l-317 -386z" />
    <glyph glyph-name="glyph467" horiz-adv-x="336" 
d="M50 234q47 -4 58 -30t4 -75l-12 -106q-8 -63 24 -102q33 -39 128 -43q4 10 6 26t2 31q0 8 -1 18q-29 3 -40 25q-12 22 -7 67l11 105q5 53 -10 80q-14 28 -49 38v7q36 10 58 37q22 26 27 74l12 108q4 34 18 51q15 16 43 19q9 16 17 40q7 24 9 40q-103 -4 -144 -42
q-42 -38 -47 -98l-14 -111q-3 -38 -17 -59q-13 -22 -54 -25q-6 -11 -12 -33q-7 -21 -10 -42v0z" />
    <glyph glyph-name="glyph468" horiz-adv-x="318" 
d="M191 562q-22 0 -46 -2q-25 -2 -44 -5v-593q8 -2 21 -3t25 -1q13 0 25 1q13 1 19 3v600z" />
    <glyph glyph-name="glyph469" horiz-adv-x="321" 
d="M148 269q-38 -9 -59 -40q-21 -30 -28 -87l-13 -106q-6 -43 -26 -63t-51 -21q-1 -7 -2 -15q-1 -9 -1 -18q0 -11 1 -21q2 -11 4 -19q98 4 138 45q40 42 46 108l12 108q5 49 26 71q21 21 65 23q0 19 -2 40t-7 35q-42 4 -50 29t-3 59l11 113q7 51 -22 89q-28 38 -115 45
q-9 -13 -18 -35q-10 -23 -13 -41q37 -3 51 -21t9 -57l-12 -108q-5 -48 10 -73q16 -25 49 -33v-7z" />
    <glyph glyph-name="glyph470" horiz-adv-x="319" 
d="M58 -8q15 -4 32 -5q17 -2 35 -2q33 0 64 7l12 353q-23 0 -45 -2q-22 -3 -38 -9zM173 545q-31 -1 -50 -20q-20 -19 -21 -50q0 -75 71 -75q31 0 50 20q18 19 19 55q0 35 -19 52q-19 18 -50 18v0z" />
    <glyph glyph-name="glyph471" horiz-adv-x="318" 
d="M195 562q-23 0 -48 -2t-44 -5v-208q8 -2 21 -3t25 -1q13 0 26 1t20 3v215zM195 185q-23 0 -48 -2t-44 -6v-215q8 -2 21 -3t25 -1q13 0 26 1t20 3v223z" />
    <glyph glyph-name="glyph472" horiz-adv-x="417" 
d="M120 -80q20 -5 33 -16q14 -12 14 -30q-1 -25 -22 -40t-51 -21q5 -13 15 -27q9 -13 21 -22q50 5 94 34t47 79q-1 27 -16 44q-16 17 -38 21l22 73q-18 0 -38 -2q-19 -2 -35 -6z" />
    <glyph glyph-name="glyph473" horiz-adv-x="447" 
d="M237 545q-31 -1 -50 -20q-20 -19 -21 -50q0 -75 71 -75q31 0 50 20q18 19 19 55q0 35 -19 52q-19 18 -50 18v0zM268 356q-23 -2 -50 -10t-45 -19q9 -19 9 -41q-10 -50 -80 -90q-71 -40 -81 -124q0 -43 40 -67q39 -25 112 -25q44 0 95 8q51 7 84 17q4 20 5 43q2 22 2 44
v17q-1 8 -2 21q-21 0 -48 -4q-28 -5 -46 -10l-6 -52q-11 -4 -24 -7q-13 -2 -25 -2q-28 0 -40 11q-13 10 -13 27q9 50 71 88q61 38 70 106q0 19 -8 38q-8 20 -20 31v0z" />
    <glyph glyph-name="glyph474" horiz-adv-x="1012" 
d="M326 406q17 -11 43 -17t52 -6q10 26 17 60t7 65q-36 19 -79 29q-43 11 -87 11q-90 -1 -144 -45q-55 -44 -56 -118q14 -113 115 -147q101 -33 115 -104q-1 -38 -25 -59q-24 -22 -65 -22q-22 0 -44 5t-37 16l7 71q-22 8 -50 12t-54 4q-9 -25 -14 -51q-5 -25 -5 -51
q0 -18 3 -36q36 -22 81 -33q44 -10 93 -10q94 0 159 44t68 135q-14 117 -114 152q-100 36 -114 101q0 29 20 48q19 18 57 19q16 0 32 -4q15 -5 25 -10zM832 406q17 -11 43 -17t52 -6q10 26 17 60t7 65q-36 19 -79 29q-43 11 -87 11q-90 -1 -144 -45q-55 -44 -56 -118
q14 -113 115 -147q101 -33 115 -104q-1 -38 -25 -59q-24 -22 -65 -22q-22 0 -44 5t-37 16l7 71q-22 8 -50 12t-54 4q-9 -25 -14 -51q-5 -25 -5 -51q0 -18 3 -36q36 -22 81 -33q44 -10 93 -10q94 0 159 44t68 135q-14 117 -114 152q-100 36 -114 101q0 29 20 48q19 18 57 19
q16 0 32 -4q15 -5 25 -10z" />
    <glyph glyph-name="glyph475" horiz-adv-x="646" 
d="M391 160l7 -29q3 -12 8 -26q5 -13 12 -24q-11 -2 -27 -6t-27 -9q-7 -13 -14 -31q-8 -19 -11 -35h250q0 22 -3 40q-2 17 -6 30q-10 4 -22 7q-12 2 -23 3l-140 466l-99 -12l-241 -446q-13 -4 -29 -11q-16 -8 -28 -16q-7 -12 -12 -28q-5 -17 -7 -33h232q1 17 -1 36t-6 32
q-10 4 -26 8t-29 6q9 11 17 24q8 14 13 24l15 30h197zM329 444q1 -18 5 -44q3 -26 7 -43l33 -127h-148l61 129q9 20 19 44q9 24 14 41h9zM363 584q17 0 40 8q22 8 34 19l-105 167q-28 0 -62 -10q-35 -10 -53 -25z" />
    <glyph glyph-name="glyph476" horiz-adv-x="646" 
d="M391 160l7 -29q3 -12 8 -26q5 -13 12 -24q-11 -2 -27 -6t-27 -9q-7 -13 -14 -31q-8 -19 -11 -35h250q0 22 -3 40q-2 17 -6 30q-10 4 -22 7q-12 2 -23 3l-140 466l-99 -12l-241 -446q-13 -4 -29 -11q-16 -8 -28 -16q-7 -12 -12 -28q-5 -17 -7 -33h232q1 17 -1 36t-6 32
q-10 4 -26 8t-29 6q9 11 17 24q8 14 13 24l15 30h197zM329 444q1 -18 5 -44q3 -26 7 -43l33 -127h-148l61 129q9 20 19 44q9 24 14 41h9zM509 736q-15 16 -45 28q-31 13 -55 16l-143 -156q7 -16 22 -30q15 -15 29 -22z" />
    <glyph glyph-name="glyph477" horiz-adv-x="646" 
d="M391 160l7 -29q3 -12 8 -26q5 -13 12 -24q-11 -2 -27 -6t-27 -9q-7 -13 -14 -31q-8 -19 -11 -35h250q0 22 -3 40q-2 17 -6 30q-10 4 -22 7q-12 2 -23 3l-140 466l-99 -12l-241 -446q-13 -4 -29 -11q-16 -8 -28 -16q-7 -12 -12 -28q-5 -17 -7 -33h232q1 17 -1 36t-6 32
q-10 4 -26 8t-29 6q9 11 17 24q8 14 13 24l15 30h197zM329 444q1 -18 5 -44q3 -26 7 -43l33 -127h-148l61 129q9 20 19 44q9 24 14 41h9zM315 762l-130 -117q3 -17 12 -38q8 -21 20 -33l140 106l107 -101q17 6 35 20t27 28l-113 140z" />
    <glyph glyph-name="glyph478" horiz-adv-x="646" 
d="M391 160l7 -29q3 -12 8 -26q5 -13 12 -24q-11 -2 -27 -6t-27 -9q-7 -13 -14 -31q-8 -19 -11 -35h250q0 22 -3 40q-2 17 -6 30q-10 4 -22 7q-12 2 -23 3l-140 466l-99 -12l-241 -446q-13 -4 -29 -11q-16 -8 -28 -16q-7 -12 -12 -28q-5 -17 -7 -33h232q1 17 -1 36t-6 32
q-10 4 -26 8t-29 6q9 11 17 24q8 14 13 24l15 30h197zM329 444q1 -18 5 -44q3 -26 7 -43l33 -127h-148l61 129q9 20 19 44q9 24 14 41h9zM471 729q-6 -16 -18 -28q-13 -11 -33 -12q-33 3 -58 21t-70 21q-52 -1 -84 -28q-31 -27 -42 -68q7 -12 21 -23q14 -10 29 -13
q5 16 20 28q14 12 35 13q33 -3 61 -21t68 -21q59 2 92 37t40 80q-13 7 -30 11q-16 3 -31 3v0z" />
    <glyph glyph-name="glyph479" horiz-adv-x="646" 
d="M225 730q-28 -1 -45 -18q-17 -18 -18 -46q0 -34 16 -51q16 -18 47 -18q28 0 46 18q17 18 18 51q0 30 -18 47q-17 17 -46 17v0zM472 730q-28 -1 -45 -18q-17 -18 -18 -46q0 -34 16 -51q16 -18 47 -18q28 0 46 18q17 18 18 51q0 30 -18 47q-17 17 -46 17v0zM391 160l7 -29
q3 -12 8 -26q5 -13 12 -24q-11 -2 -27 -6t-27 -9q-7 -13 -14 -31q-8 -19 -11 -35h250q0 22 -3 40q-2 17 -6 30q-10 4 -22 7q-12 2 -23 3l-140 466l-99 -12l-241 -446q-13 -4 -29 -11q-16 -8 -28 -16q-7 -12 -12 -28q-5 -17 -7 -33h232q1 17 -1 36t-6 32q-10 4 -26 8t-29 6
q9 11 17 24q8 14 13 24l15 30h197zM329 444q1 -18 5 -44q3 -26 7 -43l33 -127h-148l61 129q9 20 19 44q9 24 14 41h9z" />
    <glyph glyph-name="glyph480" horiz-adv-x="646" 
d="M366 742q-64 -1 -100 -36q-35 -34 -36 -91q0 -72 61 -89l-236 -438q-13 -4 -29 -11q-16 -8 -28 -16q-7 -12 -12 -28q-5 -17 -7 -33h232q1 17 -1 36t-6 32q-10 4 -26 8t-29 6q9 11 17 24q8 14 13 24l15 30h197l7 -29q3 -12 8 -26q5 -13 12 -24q-11 -2 -27 -6t-27 -9
q-7 -13 -14 -31q-8 -19 -11 -35h250q0 22 -3 40q-2 17 -6 30q-10 4 -22 7q-12 2 -23 3l-136 453q34 14 53 43q20 29 20 70q-1 49 -29 72q-28 24 -77 24v0zM329 444q1 -18 5 -44q3 -26 7 -43l33 -127h-148l61 129q9 20 19 44q9 24 14 41h9zM360 685q21 0 32 -11t11 -33
q0 -29 -17 -45q-16 -17 -45 -17q-21 0 -32 11q-12 11 -12 33q0 28 17 45t46 17v0z" />
    <glyph glyph-name="glyph481" horiz-adv-x="828" 
d="M471 77l14 152h112q0 -10 2 -22t5 -21q13 -3 31 -5t35 -1l20 169q-16 -1 -33 -4q-18 -2 -30 -7q-7 -8 -13 -17q-6 -10 -10 -19h-112l14 152h156q5 -32 15 -58q15 -5 35 -8q21 -3 38 -3l18 145h-536q-5 -13 -6 -34q-1 -20 1 -35q14 -3 34 -6q21 -3 40 -5l-256 -362
q-13 -4 -28 -11t-27 -16q-7 -12 -12 -28t-7 -33h228q1 17 -1 37q-2 19 -7 33q-10 4 -25 7q-15 4 -28 6q11 9 25 24q13 15 22 28l24 37h157l-10 -84q-15 -5 -32 -11q-16 -6 -29 -14q-6 -11 -13 -30q-6 -18 -9 -33h445l18 149q-19 1 -41 -1t-38 -6q-6 -12 -13 -31
q-7 -20 -11 -34h-162zM374 243h-117l92 141q10 16 21 35q12 20 18 35h10z" />
    <glyph glyph-name="glyph482" horiz-adv-x="553" 
d="M376 379q17 -8 43 -14t47 -6q14 29 22 68q9 39 9 75q-31 20 -68 32q-38 11 -83 11q-137 -4 -225 -97t-91 -232q1 -97 51 -160q51 -64 143 -75l-32 -61q19 -5 33 -16q13 -12 14 -30q-1 -25 -22 -40q-22 -15 -52 -21q5 -13 15 -27q10 -13 21 -22q51 5 95 34q43 29 46 79
q-1 27 -16 44q-16 17 -38 21l13 42q36 5 68 14q33 10 57 23q10 14 17 39q8 25 8 44q-34 -12 -77 -20t-78 -8q-66 -1 -103 37q-36 37 -37 123q2 106 50 168q48 63 124 64q30 0 55 -12z" />
    <glyph glyph-name="glyph483" horiz-adv-x="572" 
d="M210 77l14 155h115q0 -10 2 -22t5 -21q13 -3 31 -5t35 -1l20 169q-16 -1 -33 -4q-18 -2 -30 -7q-7 -8 -13 -17q-6 -10 -10 -19h-115l15 149h158q5 -32 15 -58q15 -5 35 -8q21 -3 38 -3l18 145h-432q-4 -13 -6 -33q-2 -21 -1 -36q13 -4 31 -7q17 -2 33 -4l-40 -362
q-16 -5 -32 -11q-17 -6 -30 -14q-6 -11 -12 -30q-6 -18 -9 -33h451l18 149q-19 1 -41 -1t-38 -6q-6 -12 -13 -31q-7 -20 -11 -34h-168zM317 584q17 0 40 8q22 8 34 19l-105 167q-28 0 -62 -10q-35 -10 -53 -25z" />
    <glyph glyph-name="glyph484" horiz-adv-x="572" 
d="M210 77l14 155h115q0 -10 2 -22t5 -21q13 -3 31 -5t35 -1l20 169q-16 -1 -33 -4q-18 -2 -30 -7q-7 -8 -13 -17q-6 -10 -10 -19h-115l15 149h158q5 -32 15 -58q15 -5 35 -8q21 -3 38 -3l18 145h-432q-4 -13 -6 -33q-2 -21 -1 -36q13 -4 31 -7q17 -2 33 -4l-40 -362
q-16 -5 -32 -11q-17 -6 -30 -14q-6 -11 -12 -30q-6 -18 -9 -33h451l18 149q-19 1 -41 -1t-38 -6q-6 -12 -13 -31q-7 -20 -11 -34h-168zM481 736q-15 16 -45 28q-31 13 -55 16l-143 -156q7 -16 22 -30q15 -15 29 -22z" />
    </font>
</defs>
</svg>
